<?xml version="1.0" encoding="UTF-8" standalone="no"?>
<!DOCTYPE svg PUBLIC "-//W3C//DTD SVG 1.1//EN"
 "http://www.w3.org/Graphics/SVG/1.1/DTD/svg11.dtd">
<!-- Generated by graphviz version 2.43.0 (0)
 -->
<!-- Title: apply Pages: 1 -->
<svg width="669pt" height="256pt"
 viewBox="0.00 0.00 669.00 256.00" xmlns="http://www.w3.org/2000/svg" xmlns:xlink="http://www.w3.org/1999/xlink">
<g id="graph0" class="graph" transform="scale(1 1) rotate(0) translate(4 252)">
<title>apply</title>
<polygon fill="white" stroke="transparent" points="-4,4 -4,-252 665,-252 665,4 -4,4"/>
<!-- Node1 -->
<g id="node1" class="node">
<title>Node1</title>
<g id="a_node1"><a xlink:title="Apply the inverse Hessian approximation to the given vector q, applying only the columns and rows of ...">
<polygon fill="#bfbfbf" stroke="black" points="0,-114.5 0,-133.5 44,-133.5 44,-114.5 0,-114.5"/>
<text text-anchor="middle" x="22" y="-121.5" font-family="Helvetica,sans-Serif" font-size="10.00">apply</text>
</a>
</g>
</g>
<!-- Node2 -->
<g id="node2" class="node">
<title>Node2</title>
<g id="a_node2"><a xlink:href="classquala_1_1LBFGS.html#aa871b5290773b86e2e4919bbac258a04" target="_top" xlink:title="Iterate over the indices in the history buffer, oldest first.">
<polygon fill="white" stroke="black" points="82,-228.5 82,-247.5 158,-247.5 158,-228.5 82,-228.5"/>
<text text-anchor="middle" x="120" y="-235.5" font-family="Helvetica,sans-Serif" font-size="10.00">foreach_fwd</text>
</a>
</g>
</g>
<!-- Node1&#45;&gt;Node2 -->
<g id="edge1" class="edge">
<title>Node1&#45;&gt;Node2</title>
<path fill="none" stroke="midnightblue" d="M26.57,-133.58C33.94,-152.23 52.49,-193.79 80,-219 81.5,-220.37 83.12,-221.67 84.81,-222.89"/>
<polygon fill="midnightblue" stroke="midnightblue" points="83.36,-226.1 93.72,-228.34 87.02,-220.13 83.36,-226.1"/>
</g>
<!-- Node5 -->
<g id="node5" class="node">
<title>Node5</title>
<g id="a_node5"><a xlink:href="classquala_1_1LBFGS.html#a0804b751cf2035a35f24762474f62cbf" target="_top" xlink:title="Iterate over the indices in the history buffer, newest first.">
<polygon fill="white" stroke="black" points="83,-190.5 83,-209.5 157,-209.5 157,-190.5 83,-190.5"/>
<text text-anchor="middle" x="120" y="-197.5" font-family="Helvetica,sans-Serif" font-size="10.00">foreach_rev</text>
</a>
</g>
</g>
<!-- Node1&#45;&gt;Node5 -->
<g id="edge4" class="edge">
<title>Node1&#45;&gt;Node5</title>
<path fill="none" stroke="midnightblue" d="M31.05,-133.87C41.41,-146.1 60.4,-167.03 80,-181 82.22,-182.58 84.6,-184.1 87.04,-185.54"/>
<polygon fill="midnightblue" stroke="midnightblue" points="85.54,-188.71 96,-190.37 88.86,-182.54 85.54,-188.71"/>
</g>
<!-- Node6 -->
<g id="node6" class="node">
<title>Node6</title>
<g id="a_node6"><a xlink:href="classquala_1_1LBFGS.html#a15e4a3db39457cabe764a7737d24e73f" target="_top" xlink:title=" ">
<polygon fill="white" stroke="black" points="105.5,-152.5 105.5,-171.5 134.5,-171.5 134.5,-152.5 105.5,-152.5"/>
<text text-anchor="middle" x="120" y="-159.5" font-family="Helvetica,sans-Serif" font-size="10.00">s</text>
</a>
</g>
</g>
<!-- Node1&#45;&gt;Node6 -->
<g id="edge6" class="edge">
<title>Node1&#45;&gt;Node6</title>
<path fill="none" stroke="midnightblue" d="M44.31,-132.43C59.62,-138.5 80.25,-146.66 95.95,-152.88"/>
<polygon fill="midnightblue" stroke="midnightblue" points="94.87,-156.21 105.45,-156.64 97.44,-149.7 94.87,-156.21"/>
</g>
<!-- Node9 -->
<g id="node9" class="node">
<title>Node9</title>
<g id="a_node9"><a xlink:href="classquala_1_1LBFGS.html#a1109c880f1969f61532c94c19122e927" target="_top" xlink:title="Check if the new vectors s and y allow for a valid BFGS update that preserves the positive definitene...">
<polygon fill="white" stroke="black" points="80,-114.5 80,-133.5 160,-133.5 160,-114.5 80,-114.5"/>
<text text-anchor="middle" x="120" y="-121.5" font-family="Helvetica,sans-Serif" font-size="10.00">update_valid</text>
</a>
</g>
</g>
<!-- Node1&#45;&gt;Node9 -->
<g id="edge9" class="edge">
<title>Node1&#45;&gt;Node9</title>
<path fill="none" stroke="midnightblue" d="M44.31,-124C51.93,-124 60.87,-124 69.87,-124"/>
<polygon fill="midnightblue" stroke="midnightblue" points="69.98,-127.5 79.98,-124 69.98,-120.5 69.98,-127.5"/>
</g>
<!-- Node10 -->
<g id="node10" class="node">
<title>Node10</title>
<g id="a_node10"><a xlink:href="classquala_1_1LBFGS.html#ac7c2ee7d2562303f555dd1f4c3fca8cd" target="_top" xlink:title=" ">
<polygon fill="white" stroke="black" points="247,-76.5 247,-95.5 276,-95.5 276,-76.5 247,-76.5"/>
<text text-anchor="middle" x="261.5" y="-83.5" font-family="Helvetica,sans-Serif" font-size="10.00">α</text>
</a>
</g>
</g>
<!-- Node1&#45;&gt;Node10 -->
<g id="edge16" class="edge">
<title>Node1&#45;&gt;Node10</title>
<path fill="none" stroke="midnightblue" d="M44.08,-115.76C54.7,-111.92 67.87,-107.63 80,-105 135.3,-93.02 201.83,-88.5 236.63,-86.87"/>
<polygon fill="midnightblue" stroke="midnightblue" points="236.91,-90.36 246.75,-86.43 236.61,-83.36 236.91,-90.36"/>
</g>
<!-- Node12 -->
<g id="node12" class="node">
<title>Node12</title>
<g id="a_node12"><a xlink:href="classquala_1_1LBFGS.html#aebac2ec4461761a48a7284152a8217f8" target="_top" xlink:title=" ">
<polygon fill="white" stroke="black" points="105.5,-38.5 105.5,-57.5 134.5,-57.5 134.5,-38.5 105.5,-38.5"/>
<text text-anchor="middle" x="120" y="-45.5" font-family="Helvetica,sans-Serif" font-size="10.00">y</text>
</a>
</g>
</g>
<!-- Node1&#45;&gt;Node12 -->
<g id="edge13" class="edge">
<title>Node1&#45;&gt;Node12</title>
<path fill="none" stroke="midnightblue" d="M32.6,-114.2C43.55,-103.27 62.24,-85.38 80,-72 85.13,-68.14 90.9,-64.33 96.4,-60.92"/>
<polygon fill="midnightblue" stroke="midnightblue" points="98.46,-63.76 105.23,-55.62 94.86,-57.76 98.46,-63.76"/>
</g>
<!-- Node14 -->
<g id="node14" class="node">
<title>Node14</title>
<g id="a_node14"><a xlink:href="classquala_1_1LBFGS.html#acade3dc51f7ca788be9b91908b2e73ab" target="_top" xlink:title=" ">
<polygon fill="white" stroke="black" points="105.5,-0.5 105.5,-19.5 134.5,-19.5 134.5,-0.5 105.5,-0.5"/>
<text text-anchor="middle" x="120" y="-7.5" font-family="Helvetica,sans-Serif" font-size="10.00">ρ</text>
</a>
</g>
</g>
<!-- Node1&#45;&gt;Node14 -->
<g id="edge17" class="edge">
<title>Node1&#45;&gt;Node14</title>
<path fill="none" stroke="midnightblue" d="M26.57,-114.42C33.94,-95.77 52.49,-54.21 80,-29 84.62,-24.76 90.37,-21.27 96.01,-18.49"/>
<polygon fill="midnightblue" stroke="midnightblue" points="97.44,-21.68 105.2,-14.47 94.64,-15.27 97.44,-21.68"/>
</g>
<!-- Node3 -->
<g id="node3" class="node">
<title>Node3</title>
<g id="a_node3"><a xlink:href="classquala_1_1LBFGS.html#a9cf7dcccbc3bc69a10833450ee79c623" target="_top" xlink:title="Get the number of previous vectors s and y stored in the buffer.">
<polygon fill="white" stroke="black" points="236.5,-199.5 236.5,-218.5 286.5,-218.5 286.5,-199.5 236.5,-199.5"/>
<text text-anchor="middle" x="261.5" y="-206.5" font-family="Helvetica,sans-Serif" font-size="10.00">history</text>
</a>
</g>
</g>
<!-- Node2&#45;&gt;Node3 -->
<g id="edge2" class="edge">
<title>Node2&#45;&gt;Node3</title>
<path fill="none" stroke="midnightblue" d="M158.02,-230.3C179.29,-225.88 205.8,-220.37 226.54,-216.06"/>
<polygon fill="midnightblue" stroke="midnightblue" points="227.42,-219.45 236.5,-213.99 225.99,-212.6 227.42,-219.45"/>
</g>
<!-- Node4 -->
<g id="node4" class="node">
<title>Node4</title>
<g id="a_node4"><a xlink:href="structquala_1_1LBFGSStorage.html#a9cf7dcccbc3bc69a10833450ee79c623" target="_top" xlink:title="Get the number of previous vectors s and y stored in the buffer.">
<polygon fill="white" stroke="black" points="369,-194 369,-224 488,-224 488,-194 369,-194"/>
<text text-anchor="start" x="377" y="-212" font-family="Helvetica,sans-Serif" font-size="10.00">quala::LBFGSStorage</text>
<text text-anchor="middle" x="428.5" y="-201" font-family="Helvetica,sans-Serif" font-size="10.00">::history</text>
</a>
</g>
</g>
<!-- Node3&#45;&gt;Node4 -->
<g id="edge3" class="edge">
<title>Node3&#45;&gt;Node4</title>
<path fill="none" stroke="midnightblue" d="M286.85,-209C305.84,-209 333.2,-209 358.75,-209"/>
<polygon fill="midnightblue" stroke="midnightblue" points="358.8,-212.5 368.8,-209 358.8,-205.5 358.8,-212.5"/>
</g>
<!-- Node5&#45;&gt;Node3 -->
<g id="edge5" class="edge">
<title>Node5&#45;&gt;Node3</title>
<path fill="none" stroke="midnightblue" d="M157.29,-202.34C178.56,-203.71 205.27,-205.44 226.19,-206.79"/>
<polygon fill="midnightblue" stroke="midnightblue" points="226.04,-210.28 236.24,-207.44 226.49,-203.3 226.04,-210.28"/>
</g>
<!-- Node7 -->
<g id="node7" class="node">
<title>Node7</title>
<g id="a_node7"><a xlink:href="structquala_1_1LBFGSStorage.html#a15e4a3db39457cabe764a7737d24e73f" target="_top" xlink:title=" ">
<polygon fill="white" stroke="black" points="363.5,-139.5 363.5,-158.5 493.5,-158.5 493.5,-139.5 363.5,-139.5"/>
<text text-anchor="middle" x="428.5" y="-146.5" font-family="Helvetica,sans-Serif" font-size="10.00">quala::LBFGSStorage::s</text>
</a>
</g>
</g>
<!-- Node6&#45;&gt;Node7 -->
<g id="edge7" class="edge">
<title>Node6&#45;&gt;Node7</title>
<path fill="none" stroke="midnightblue" d="M134.57,-161.42C172.08,-159.83 279.29,-155.29 353.04,-152.16"/>
<polygon fill="midnightblue" stroke="midnightblue" points="353.38,-155.65 363.22,-151.73 353.08,-148.65 353.38,-155.65"/>
</g>
<!-- Node8 -->
<g id="node8" class="node">
<title>Node8</title>
<g id="a_node8"><a xlink:href="structquala_1_1LBFGSStorage.html#a727afc7a58d2e44ae7add57e3fa77bc6" target="_top" xlink:title="Get the size of the s and y vectors in the buffer.">
<polygon fill="white" stroke="black" points="530,-57.5 530,-76.5 661,-76.5 661,-57.5 530,-57.5"/>
<text text-anchor="middle" x="595.5" y="-64.5" font-family="Helvetica,sans-Serif" font-size="10.00">quala::LBFGSStorage::n</text>
</a>
</g>
</g>
<!-- Node7&#45;&gt;Node8 -->
<g id="edge8" class="edge">
<title>Node7&#45;&gt;Node8</title>
<path fill="none" stroke="midnightblue" d="M448.75,-139.43C477.69,-125.05 532.57,-97.78 566.11,-81.11"/>
<polygon fill="midnightblue" stroke="midnightblue" points="567.97,-84.09 575.37,-76.51 564.86,-77.82 567.97,-84.09"/>
</g>
<!-- Node9&#45;&gt;Node10 -->
<g id="edge10" class="edge">
<title>Node9&#45;&gt;Node10</title>
<path fill="none" stroke="midnightblue" d="M156.2,-114.41C181.45,-107.53 214.78,-98.45 236.89,-92.43"/>
<polygon fill="midnightblue" stroke="midnightblue" points="238.03,-95.75 246.76,-89.74 236.19,-88.99 238.03,-95.75"/>
</g>
<!-- Node11 -->
<g id="node11" class="node">
<title>Node11</title>
<g id="a_node11"><a xlink:href="structquala_1_1LBFGSStorage.html#ac7c2ee7d2562303f555dd1f4c3fca8cd" target="_top" xlink:title=" ">
<polygon fill="white" stroke="black" points="363,-76.5 363,-95.5 494,-95.5 494,-76.5 363,-76.5"/>
<text text-anchor="middle" x="428.5" y="-83.5" font-family="Helvetica,sans-Serif" font-size="10.00">quala::LBFGSStorage::α</text>
</a>
</g>
</g>
<!-- Node10&#45;&gt;Node11 -->
<g id="edge11" class="edge">
<title>Node10&#45;&gt;Node11</title>
<path fill="none" stroke="midnightblue" d="M276,-86C292.94,-86 323.3,-86 352.42,-86"/>
<polygon fill="midnightblue" stroke="midnightblue" points="352.65,-89.5 362.65,-86 352.65,-82.5 352.65,-89.5"/>
</g>
<!-- Node11&#45;&gt;Node8 -->
<g id="edge12" class="edge">
<title>Node11&#45;&gt;Node8</title>
<path fill="none" stroke="midnightblue" d="M494.24,-78.55C502.67,-77.57 511.37,-76.57 519.95,-75.58"/>
<polygon fill="midnightblue" stroke="midnightblue" points="520.41,-79.05 529.95,-74.43 519.61,-72.1 520.41,-79.05"/>
</g>
<!-- Node13 -->
<g id="node13" class="node">
<title>Node13</title>
<g id="a_node13"><a xlink:href="structquala_1_1LBFGSStorage.html#aebac2ec4461761a48a7284152a8217f8" target="_top" xlink:title=" ">
<polygon fill="white" stroke="black" points="363,-38.5 363,-57.5 494,-57.5 494,-38.5 363,-38.5"/>
<text text-anchor="middle" x="428.5" y="-45.5" font-family="Helvetica,sans-Serif" font-size="10.00">quala::LBFGSStorage::y</text>
</a>
</g>
</g>
<!-- Node12&#45;&gt;Node13 -->
<g id="edge14" class="edge">
<title>Node12&#45;&gt;Node13</title>
<path fill="none" stroke="midnightblue" d="M134.57,-48C172.02,-48 278.97,-48 352.72,-48"/>
<polygon fill="midnightblue" stroke="midnightblue" points="352.89,-51.5 362.89,-48 352.89,-44.5 352.89,-51.5"/>
</g>
<!-- Node13&#45;&gt;Node8 -->
<g id="edge15" class="edge">
<title>Node13&#45;&gt;Node8</title>
<path fill="none" stroke="midnightblue" d="M494.24,-55.45C502.67,-56.43 511.37,-57.43 519.95,-58.42"/>
<polygon fill="midnightblue" stroke="midnightblue" points="519.61,-61.9 529.95,-59.57 520.41,-54.95 519.61,-61.9"/>
</g>
<!-- Node15 -->
<g id="node15" class="node">
<title>Node15</title>
<g id="a_node15"><a xlink:href="structquala_1_1LBFGSStorage.html#acade3dc51f7ca788be9b91908b2e73ab" target="_top" xlink:title=" ">
<polygon fill="white" stroke="black" points="196,-0.5 196,-19.5 327,-19.5 327,-0.5 196,-0.5"/>
<text text-anchor="middle" x="261.5" y="-7.5" font-family="Helvetica,sans-Serif" font-size="10.00">quala::LBFGSStorage::ρ</text>
</a>
</g>
</g>
<!-- Node14&#45;&gt;Node15 -->
<g id="edge18" class="edge">
<title>Node14&#45;&gt;Node15</title>
<path fill="none" stroke="midnightblue" d="M134.63,-10C146.89,-10 165.94,-10 185.54,-10"/>
<polygon fill="midnightblue" stroke="midnightblue" points="185.81,-13.5 195.81,-10 185.81,-6.5 185.81,-13.5"/>
</g>
<!-- Node15&#45;&gt;Node8 -->
<g id="edge19" class="edge">
<title>Node15&#45;&gt;Node8</title>
<path fill="none" stroke="midnightblue" d="M327.1,-10.49C373.94,-12 438.53,-16.5 494,-29 518.6,-34.54 545.24,-44.83 564.9,-53.3"/>
<polygon fill="midnightblue" stroke="midnightblue" points="563.67,-56.58 574.23,-57.41 566.49,-50.17 563.67,-56.58"/>
</g>
</g>
</svg>
