<?xml version="1.0" encoding="UTF-8" standalone="no"?>
<!DOCTYPE svg PUBLIC "-//W3C//DTD SVG 1.1//EN"
 "http://www.w3.org/Graphics/SVG/1.1/DTD/svg11.dtd">
<!-- Generated by graphviz version 2.43.0 (0)
 -->
<!-- Title: update Pages: 1 -->
<svg width="778pt" height="294pt"
 viewBox="0.00 0.00 778.00 294.00" xmlns="http://www.w3.org/2000/svg" xmlns:xlink="http://www.w3.org/1999/xlink">
<g id="graph0" class="graph" transform="scale(1 1) rotate(0) translate(4 290)">
<title>update</title>
<polygon fill="white" stroke="transparent" points="-4,4 -4,-290 774,-290 774,4 -4,4"/>
<!-- Node1 -->
<g id="node1" class="node">
<title>Node1</title>
<g id="a_node1"><a xlink:title="Update the inverse Hessian approximation using the new vectors xₖ₊₁ and pₖ₊₁.">
<polygon fill="#bfbfbf" stroke="black" points="0,-133.5 0,-152.5 50,-152.5 50,-133.5 0,-133.5"/>
<text text-anchor="middle" x="25" y="-140.5" font-family="Helvetica,sans-Serif" font-size="10.00">update</text>
</a>
</g>
</g>
<!-- Node2 -->
<g id="node2" class="node">
<title>Node2</title>
<g id="a_node2"><a xlink:href="classquala_1_1LBFGS.html#a15e4a3db39457cabe764a7737d24e73f" target="_top" xlink:title=" ">
<polygon fill="white" stroke="black" points="214.5,-266.5 214.5,-285.5 243.5,-285.5 243.5,-266.5 214.5,-266.5"/>
<text text-anchor="middle" x="229" y="-273.5" font-family="Helvetica,sans-Serif" font-size="10.00">s</text>
</a>
</g>
</g>
<!-- Node1&#45;&gt;Node2 -->
<g id="edge1" class="edge">
<title>Node1&#45;&gt;Node2</title>
<path fill="none" stroke="midnightblue" d="M40.53,-152.57C75.43,-175.55 164.19,-233.98 205.81,-261.39"/>
<polygon fill="midnightblue" stroke="midnightblue" points="204.13,-264.47 214.41,-267.05 207.98,-258.63 204.13,-264.47"/>
</g>
<!-- Node5 -->
<g id="node5" class="node">
<title>Node5</title>
<g id="a_node5"><a xlink:href="classquala_1_1LBFGS.html#aa54be34168109d2e4995711cbd5f5ad8" target="_top" xlink:title="Update the inverse Hessian approximation using the new vectors sₖ = xₖ₊₁ &#45; xₖ and yₖ = pₖ₊₁ &#45; pₖ.">
<polygon fill="white" stroke="black" points="86,-133.5 86,-152.5 153,-152.5 153,-133.5 86,-133.5"/>
<text text-anchor="middle" x="119.5" y="-140.5" font-family="Helvetica,sans-Serif" font-size="10.00">update_sy</text>
</a>
</g>
</g>
<!-- Node1&#45;&gt;Node5 -->
<g id="edge4" class="edge">
<title>Node1&#45;&gt;Node5</title>
<path fill="none" stroke="midnightblue" d="M50.3,-143C58.07,-143 66.92,-143 75.61,-143"/>
<polygon fill="midnightblue" stroke="midnightblue" points="75.66,-146.5 85.66,-143 75.66,-139.5 75.66,-146.5"/>
</g>
<!-- Node13 -->
<g id="node13" class="node">
<title>Node13</title>
<g id="a_node13"><a xlink:href="classquala_1_1LBFGS.html#aebac2ec4461761a48a7284152a8217f8" target="_top" xlink:title=" ">
<polygon fill="white" stroke="black" points="214.5,-0.5 214.5,-19.5 243.5,-19.5 243.5,-0.5 214.5,-0.5"/>
<text text-anchor="middle" x="229" y="-7.5" font-family="Helvetica,sans-Serif" font-size="10.00">y</text>
</a>
</g>
</g>
<!-- Node1&#45;&gt;Node13 -->
<g id="edge22" class="edge">
<title>Node1&#45;&gt;Node13</title>
<path fill="none" stroke="midnightblue" d="M40.53,-133.43C75.43,-110.45 164.19,-52.02 205.81,-24.61"/>
<polygon fill="midnightblue" stroke="midnightblue" points="207.98,-27.37 214.41,-18.95 204.13,-21.53 207.98,-27.37"/>
</g>
<!-- Node3 -->
<g id="node3" class="node">
<title>Node3</title>
<g id="a_node3"><a xlink:href="structquala_1_1LBFGSStorage.html#a15e4a3db39457cabe764a7737d24e73f" target="_top" xlink:title=" ">
<polygon fill="white" stroke="black" points="305.5,-231.5 305.5,-250.5 435.5,-250.5 435.5,-231.5 305.5,-231.5"/>
<text text-anchor="middle" x="370.5" y="-238.5" font-family="Helvetica,sans-Serif" font-size="10.00">quala::LBFGSStorage::s</text>
</a>
</g>
</g>
<!-- Node2&#45;&gt;Node3 -->
<g id="edge2" class="edge">
<title>Node2&#45;&gt;Node3</title>
<path fill="none" stroke="midnightblue" d="M243.63,-272.58C261.58,-268.08 294.09,-259.92 321.58,-253.02"/>
<polygon fill="midnightblue" stroke="midnightblue" points="322.59,-256.38 331.44,-250.55 320.89,-249.59 322.59,-256.38"/>
</g>
<!-- Node4 -->
<g id="node4" class="node">
<title>Node4</title>
<g id="a_node4"><a xlink:href="structquala_1_1LBFGSStorage.html#a727afc7a58d2e44ae7add57e3fa77bc6" target="_top" xlink:title="Get the size of the s and y vectors in the buffer.">
<polygon fill="white" stroke="black" points="639,-95.5 639,-114.5 770,-114.5 770,-95.5 639,-95.5"/>
<text text-anchor="middle" x="704.5" y="-102.5" font-family="Helvetica,sans-Serif" font-size="10.00">quala::LBFGSStorage::n</text>
</a>
</g>
</g>
<!-- Node3&#45;&gt;Node4 -->
<g id="edge3" class="edge">
<title>Node3&#45;&gt;Node4</title>
<path fill="none" stroke="midnightblue" d="M435.7,-248.4C484.25,-251.1 551.18,-248.42 603,-222 646.13,-200.01 678.47,-150.72 693.74,-123.66"/>
<polygon fill="midnightblue" stroke="midnightblue" points="696.87,-125.25 698.59,-114.79 690.72,-121.89 696.87,-125.25"/>
</g>
<!-- Node5&#45;&gt;Node2 -->
<g id="edge6" class="edge">
<title>Node5&#45;&gt;Node2</title>
<path fill="none" stroke="midnightblue" d="M124.75,-152.76C134.02,-173.17 157.72,-221.01 189,-252 193.82,-256.77 199.76,-261.03 205.53,-264.59"/>
<polygon fill="midnightblue" stroke="midnightblue" points="203.87,-267.67 214.29,-269.57 207.33,-261.58 203.87,-267.67"/>
</g>
<!-- Node5&#45;&gt;Node3 -->
<g id="edge5" class="edge">
<title>Node5&#45;&gt;Node3</title>
<path fill="none" stroke="midnightblue" d="M126,-152.71C136.07,-169.47 159.21,-203.52 189,-219 221.24,-235.75 260.97,-241.89 294.95,-243.57"/>
<polygon fill="midnightblue" stroke="midnightblue" points="295.17,-247.08 305.29,-243.95 295.43,-240.09 295.17,-247.08"/>
</g>
<!-- Node6 -->
<g id="node6" class="node">
<title>Node6</title>
<g id="a_node6"><a xlink:href="classquala_1_1LBFGS.html#a70926baed7362e4fcce66523bb8e2842" target="_top" xlink:title="Get the next index in the circular buffer of previous s and y vectors.">
<polygon fill="white" stroke="black" points="210,-190.5 210,-209.5 248,-209.5 248,-190.5 210,-190.5"/>
<text text-anchor="middle" x="229" y="-197.5" font-family="Helvetica,sans-Serif" font-size="10.00">succ</text>
</a>
</g>
</g>
<!-- Node5&#45;&gt;Node6 -->
<g id="edge7" class="edge">
<title>Node5&#45;&gt;Node6</title>
<path fill="none" stroke="midnightblue" d="M137.26,-152.62C151.04,-160.46 171.15,-171.71 189,-181 192.65,-182.9 196.53,-184.86 200.36,-186.76"/>
<polygon fill="midnightblue" stroke="midnightblue" points="199.13,-190.05 209.65,-191.31 202.2,-183.77 199.13,-190.05"/>
</g>
<!-- Node9 -->
<g id="node9" class="node">
<title>Node9</title>
<g id="a_node9"><a xlink:href="classquala_1_1LBFGS.html#a1109c880f1969f61532c94c19122e927" target="_top" xlink:title="Check if the new vectors s and y allow for a valid BFGS update that preserves the positive definitene...">
<polygon fill="white" stroke="black" points="189,-76.5 189,-95.5 269,-95.5 269,-76.5 189,-76.5"/>
<text text-anchor="middle" x="229" y="-83.5" font-family="Helvetica,sans-Serif" font-size="10.00">update_valid</text>
</a>
</g>
</g>
<!-- Node5&#45;&gt;Node9 -->
<g id="edge10" class="edge">
<title>Node5&#45;&gt;Node9</title>
<path fill="none" stroke="midnightblue" d="M138.74,-133.33C155.83,-124.27 181.59,-110.61 201.05,-100.29"/>
<polygon fill="midnightblue" stroke="midnightblue" points="202.84,-103.3 210.03,-95.53 199.56,-97.12 202.84,-103.3"/>
</g>
<!-- Node12 -->
<g id="node12" class="node">
<title>Node12</title>
<g id="a_node12"><a xlink:href="structquala_1_1LBFGSStorage.html#aebac2ec4461761a48a7284152a8217f8" target="_top" xlink:title=" ">
<polygon fill="white" stroke="black" points="305,-38.5 305,-57.5 436,-57.5 436,-38.5 305,-38.5"/>
<text text-anchor="middle" x="370.5" y="-45.5" font-family="Helvetica,sans-Serif" font-size="10.00">quala::LBFGSStorage::y</text>
</a>
</g>
</g>
<!-- Node5&#45;&gt;Node12 -->
<g id="edge14" class="edge">
<title>Node5&#45;&gt;Node12</title>
<path fill="none" stroke="midnightblue" d="M125.97,-133.24C136,-116.4 159.08,-82.24 189,-67 221.19,-50.61 260.75,-45.08 294.62,-43.99"/>
<polygon fill="midnightblue" stroke="midnightblue" points="295,-47.48 304.93,-43.78 294.86,-40.48 295,-47.48"/>
</g>
<!-- Node5&#45;&gt;Node13 -->
<g id="edge16" class="edge">
<title>Node5&#45;&gt;Node13</title>
<path fill="none" stroke="midnightblue" d="M125.83,-133.32C138.92,-109.73 172.8,-50.04 189,-34 193.82,-29.23 199.76,-24.97 205.53,-21.41"/>
<polygon fill="midnightblue" stroke="midnightblue" points="207.33,-24.42 214.29,-16.43 203.87,-18.33 207.33,-24.42"/>
</g>
<!-- Node14 -->
<g id="node14" class="node">
<title>Node14</title>
<g id="a_node14"><a xlink:href="structquala_1_1LBFGSStorage.html#acade3dc51f7ca788be9b91908b2e73ab" target="_top" xlink:title=" ">
<polygon fill="white" stroke="black" points="305,-114.5 305,-133.5 436,-133.5 436,-114.5 305,-114.5"/>
<text text-anchor="middle" x="370.5" y="-121.5" font-family="Helvetica,sans-Serif" font-size="10.00">quala::LBFGSStorage::ρ</text>
</a>
</g>
</g>
<!-- Node5&#45;&gt;Node14 -->
<g id="edge18" class="edge">
<title>Node5&#45;&gt;Node14</title>
<path fill="none" stroke="midnightblue" d="M153.05,-140.52C188.79,-137.79 247.37,-133.32 294.58,-129.72"/>
<polygon fill="midnightblue" stroke="midnightblue" points="295.07,-133.19 304.77,-128.94 294.54,-126.21 295.07,-133.19"/>
</g>
<!-- Node15 -->
<g id="node15" class="node">
<title>Node15</title>
<g id="a_node15"><a xlink:href="classquala_1_1LBFGS.html#acade3dc51f7ca788be9b91908b2e73ab" target="_top" xlink:title=" ">
<polygon fill="white" stroke="black" points="214.5,-152.5 214.5,-171.5 243.5,-171.5 243.5,-152.5 214.5,-152.5"/>
<text text-anchor="middle" x="229" y="-159.5" font-family="Helvetica,sans-Serif" font-size="10.00">ρ</text>
</a>
</g>
</g>
<!-- Node5&#45;&gt;Node15 -->
<g id="edge20" class="edge">
<title>Node5&#45;&gt;Node15</title>
<path fill="none" stroke="midnightblue" d="M153.05,-148.75C169.55,-151.67 189.24,-155.15 204.3,-157.81"/>
<polygon fill="midnightblue" stroke="midnightblue" points="203.87,-161.29 214.33,-159.58 205.09,-154.4 203.87,-161.29"/>
</g>
<!-- Node7 -->
<g id="node7" class="node">
<title>Node7</title>
<g id="a_node7"><a xlink:href="classquala_1_1LBFGS.html#a9cf7dcccbc3bc69a10833450ee79c623" target="_top" xlink:title="Get the number of previous vectors s and y stored in the buffer.">
<polygon fill="white" stroke="black" points="345.5,-188.5 345.5,-207.5 395.5,-207.5 395.5,-188.5 345.5,-188.5"/>
<text text-anchor="middle" x="370.5" y="-195.5" font-family="Helvetica,sans-Serif" font-size="10.00">history</text>
</a>
</g>
</g>
<!-- Node6&#45;&gt;Node7 -->
<g id="edge8" class="edge">
<title>Node6&#45;&gt;Node7</title>
<path fill="none" stroke="midnightblue" d="M248.24,-199.74C270.14,-199.42 307.37,-198.89 334.81,-198.5"/>
<polygon fill="midnightblue" stroke="midnightblue" points="335.21,-201.99 345.16,-198.35 335.11,-194.99 335.21,-201.99"/>
</g>
<!-- Node8 -->
<g id="node8" class="node">
<title>Node8</title>
<g id="a_node8"><a xlink:href="structquala_1_1LBFGSStorage.html#a9cf7dcccbc3bc69a10833450ee79c623" target="_top" xlink:title="Get the number of previous vectors s and y stored in the buffer.">
<polygon fill="white" stroke="black" points="478,-182 478,-212 597,-212 597,-182 478,-182"/>
<text text-anchor="start" x="486" y="-200" font-family="Helvetica,sans-Serif" font-size="10.00">quala::LBFGSStorage</text>
<text text-anchor="middle" x="537.5" y="-189" font-family="Helvetica,sans-Serif" font-size="10.00">::history</text>
</a>
</g>
</g>
<!-- Node7&#45;&gt;Node8 -->
<g id="edge9" class="edge">
<title>Node7&#45;&gt;Node8</title>
<path fill="none" stroke="midnightblue" d="M395.85,-197.85C414.84,-197.74 442.2,-197.57 467.75,-197.42"/>
<polygon fill="midnightblue" stroke="midnightblue" points="467.83,-200.92 477.8,-197.36 467.78,-193.92 467.83,-200.92"/>
</g>
<!-- Node10 -->
<g id="node10" class="node">
<title>Node10</title>
<g id="a_node10"><a xlink:href="classquala_1_1LBFGS.html#ac7c2ee7d2562303f555dd1f4c3fca8cd" target="_top" xlink:title=" ">
<polygon fill="white" stroke="black" points="356,-76.5 356,-95.5 385,-95.5 385,-76.5 356,-76.5"/>
<text text-anchor="middle" x="370.5" y="-83.5" font-family="Helvetica,sans-Serif" font-size="10.00">α</text>
</a>
</g>
</g>
<!-- Node9&#45;&gt;Node10 -->
<g id="edge11" class="edge">
<title>Node9&#45;&gt;Node10</title>
<path fill="none" stroke="midnightblue" d="M269.23,-86C293.82,-86 324.72,-86 345.67,-86"/>
<polygon fill="midnightblue" stroke="midnightblue" points="345.91,-89.5 355.91,-86 345.91,-82.5 345.91,-89.5"/>
</g>
<!-- Node11 -->
<g id="node11" class="node">
<title>Node11</title>
<g id="a_node11"><a xlink:href="structquala_1_1LBFGSStorage.html#ac7c2ee7d2562303f555dd1f4c3fca8cd" target="_top" xlink:title=" ">
<polygon fill="white" stroke="black" points="472,-76.5 472,-95.5 603,-95.5 603,-76.5 472,-76.5"/>
<text text-anchor="middle" x="537.5" y="-83.5" font-family="Helvetica,sans-Serif" font-size="10.00">quala::LBFGSStorage::α</text>
</a>
</g>
</g>
<!-- Node10&#45;&gt;Node11 -->
<g id="edge12" class="edge">
<title>Node10&#45;&gt;Node11</title>
<path fill="none" stroke="midnightblue" d="M385,-86C401.94,-86 432.3,-86 461.42,-86"/>
<polygon fill="midnightblue" stroke="midnightblue" points="461.65,-89.5 471.65,-86 461.65,-82.5 461.65,-89.5"/>
</g>
<!-- Node11&#45;&gt;Node4 -->
<g id="edge13" class="edge">
<title>Node11&#45;&gt;Node4</title>
<path fill="none" stroke="midnightblue" d="M603.24,-93.45C611.67,-94.43 620.37,-95.43 628.95,-96.42"/>
<polygon fill="midnightblue" stroke="midnightblue" points="628.61,-99.9 638.95,-97.57 629.41,-92.95 628.61,-99.9"/>
</g>
<!-- Node12&#45;&gt;Node4 -->
<g id="edge15" class="edge">
<title>Node12&#45;&gt;Node4</title>
<path fill="none" stroke="midnightblue" d="M436.1,-48.49C482.94,-50 547.53,-54.5 603,-67 627.6,-72.54 654.24,-82.83 673.9,-91.3"/>
<polygon fill="midnightblue" stroke="midnightblue" points="672.67,-94.58 683.23,-95.41 675.49,-88.17 672.67,-94.58"/>
</g>
<!-- Node13&#45;&gt;Node12 -->
<g id="edge17" class="edge">
<title>Node13&#45;&gt;Node12</title>
<path fill="none" stroke="midnightblue" d="M243.63,-13.71C262.19,-18.77 296.32,-28.07 324.36,-35.7"/>
<polygon fill="midnightblue" stroke="midnightblue" points="323.81,-39.18 334.38,-38.43 325.65,-32.43 323.81,-39.18"/>
</g>
<!-- Node14&#45;&gt;Node4 -->
<g id="edge19" class="edge">
<title>Node14&#45;&gt;Node4</title>
<path fill="none" stroke="midnightblue" d="M436.3,-120.29C491.49,-117.13 570.8,-112.59 628.68,-109.28"/>
<polygon fill="midnightblue" stroke="midnightblue" points="629.08,-112.76 638.86,-108.7 628.68,-105.78 629.08,-112.76"/>
</g>
<!-- Node15&#45;&gt;Node14 -->
<g id="edge21" class="edge">
<title>Node15&#45;&gt;Node14</title>
<path fill="none" stroke="midnightblue" d="M243.63,-158.29C262.19,-153.23 296.32,-143.93 324.36,-136.3"/>
<polygon fill="midnightblue" stroke="midnightblue" points="325.65,-139.57 334.38,-133.57 323.81,-132.82 325.65,-139.57"/>
</g>
</g>
</svg>
