<?xml version="1.0" encoding="UTF-8" standalone="no"?>
<!DOCTYPE svg PUBLIC "-//W3C//DTD SVG 1.1//EN"
 "http://www.w3.org/Graphics/SVG/1.1/DTD/svg11.dtd">
<!-- Generated by graphviz version 2.43.0 (0)
 -->
<!-- Title: begin Pages: 1 -->
<svg width="464pt" height="168pt"
 viewBox="0.00 0.00 464.00 167.50" xmlns="http://www.w3.org/2000/svg" xmlns:xlink="http://www.w3.org/1999/xlink">
<g id="graph0" class="graph" transform="scale(1 1) rotate(0) translate(4 163.5)">
<title>begin</title>
<polygon fill="white" stroke="transparent" points="-4,4 -4,-163.5 460,-163.5 460,4 -4,4"/>
<!-- Node1 -->
<g id="node1" class="node">
<title>Node1</title>
<g id="a_node1"><a xlink:title=" ">
<polygon fill="#bfbfbf" stroke="black" points="412,-66.5 412,-85.5 456,-85.5 456,-66.5 412,-66.5"/>
<text text-anchor="middle" x="434" y="-73.5" font-family="Helvetica,sans-Serif" font-size="10.00">begin</text>
</a>
</g>
</g>
<!-- Node2 -->
<g id="node2" class="node">
<title>Node2</title>
<g id="a_node2"><a xlink:href="classquala_1_1CircularRange.html#a39112ae08f6ffc7ee58c6aa79772e094" target="_top" xlink:title=" ">
<polygon fill="white" stroke="black" points="272.5,-131.5 272.5,-150.5 321.5,-150.5 321.5,-131.5 272.5,-131.5"/>
<text text-anchor="middle" x="297" y="-138.5" font-family="Helvetica,sans-Serif" font-size="10.00">cbegin</text>
</a>
</g>
</g>
<!-- Node1&#45;&gt;Node2 -->
<g id="edge1" class="edge">
<title>Node1&#45;&gt;Node2</title>
<path fill="none" stroke="midnightblue" d="M414.13,-91.96C403.48,-100.34 389.61,-110.24 376,-117 358.62,-125.64 337.5,-131.9 321.62,-135.86"/>
<polygon fill="midnightblue" stroke="midnightblue" points="416.35,-94.67 421.92,-85.66 411.95,-89.23 416.35,-94.67"/>
</g>
<!-- Node4 -->
<g id="node4" class="node">
<title>Node4</title>
<g id="a_node4"><a xlink:href="classquala_1_1CircularRange.html#abef9dfc7607c7e1a3854788ba56a4f34" target="_top" xlink:title=" ">
<polygon fill="white" stroke="black" points="275,-88.5 275,-107.5 319,-107.5 319,-88.5 275,-88.5"/>
<text text-anchor="middle" x="297" y="-95.5" font-family="Helvetica,sans-Serif" font-size="10.00">crend</text>
</a>
</g>
</g>
<!-- Node1&#45;&gt;Node4 -->
<g id="edge3" class="edge">
<title>Node1&#45;&gt;Node4</title>
<path fill="none" stroke="midnightblue" d="M401.73,-81.1C376.46,-85.21 341.57,-90.9 319.39,-94.51"/>
<polygon fill="midnightblue" stroke="midnightblue" points="402.6,-84.5 411.91,-79.44 401.47,-77.59 402.6,-84.5"/>
</g>
<!-- Node6 -->
<g id="node6" class="node">
<title>Node6</title>
<g id="a_node6"><a xlink:href="classquala_1_1ReverseCircularRange.html#a4da62c698565a7f1bab4a15a86b167e1" target="_top" xlink:title=" ">
<polygon fill="white" stroke="black" points="218,-39 218,-69 376,-69 376,-39 218,-39"/>
<text text-anchor="start" x="226" y="-57" font-family="Helvetica,sans-Serif" font-size="10.00">quala::ReverseCircularRange</text>
<text text-anchor="middle" x="297" y="-46" font-family="Helvetica,sans-Serif" font-size="10.00">::rbegin</text>
</a>
</g>
</g>
<!-- Node1&#45;&gt;Node6 -->
<g id="edge5" class="edge">
<title>Node1&#45;&gt;Node6</title>
<path fill="none" stroke="midnightblue" d="M401.81,-70.92C393.93,-69.63 385.12,-68.2 376.04,-66.72"/>
<polygon fill="midnightblue" stroke="midnightblue" points="401.47,-74.41 411.91,-72.56 402.6,-67.5 401.47,-74.41"/>
</g>
<!-- Node7 -->
<g id="node7" class="node">
<title>Node7</title>
<g id="a_node7"><a xlink:href="classquala_1_1CircularRange.html#ab3fe1cdacc9a53cc2d0cbe27599036c4" target="_top" xlink:title=" ">
<polygon fill="white" stroke="black" points="278,-0.5 278,-19.5 316,-19.5 316,-0.5 278,-0.5"/>
<text text-anchor="middle" x="297" y="-7.5" font-family="Helvetica,sans-Serif" font-size="10.00">rend</text>
</a>
</g>
</g>
<!-- Node1&#45;&gt;Node7 -->
<g id="edge6" class="edge">
<title>Node1&#45;&gt;Node7</title>
<path fill="none" stroke="midnightblue" d="M416.56,-59C405.88,-48.89 391.17,-36.6 376,-29 356.81,-19.39 332.48,-14.47 316.14,-12.07"/>
<polygon fill="midnightblue" stroke="midnightblue" points="414.29,-61.68 423.88,-66.19 419.2,-56.69 414.29,-61.68"/>
</g>
<!-- Node3 -->
<g id="node3" class="node">
<title>Node3</title>
<g id="a_node3"><a xlink:href="classquala_1_1ReverseCircularRange.html#a81f80a31923e85af56a7b1ae0712a33b" target="_top" xlink:title=" ">
<polygon fill="white" stroke="black" points="12,-129 12,-159 170,-159 170,-129 12,-129"/>
<text text-anchor="start" x="20" y="-147" font-family="Helvetica,sans-Serif" font-size="10.00">quala::ReverseCircularRange</text>
<text text-anchor="middle" x="91" y="-136" font-family="Helvetica,sans-Serif" font-size="10.00">::crbegin</text>
</a>
</g>
</g>
<!-- Node2&#45;&gt;Node3 -->
<g id="edge2" class="edge">
<title>Node2&#45;&gt;Node3</title>
<path fill="none" stroke="midnightblue" d="M262.12,-141.5C237.08,-141.87 201.94,-142.38 170.09,-142.85"/>
<polygon fill="midnightblue" stroke="midnightblue" points="262.25,-145 272.2,-141.35 262.15,-138 262.25,-145"/>
</g>
<!-- Node5 -->
<g id="node5" class="node">
<title>Node5</title>
<g id="a_node5"><a xlink:href="classquala_1_1ReverseCircularRange.html#a93791e61ab486b4022c389d634b4facc" target="_top" xlink:title=" ">
<polygon fill="white" stroke="black" points="12,-80 12,-110 170,-110 170,-80 12,-80"/>
<text text-anchor="start" x="20" y="-98" font-family="Helvetica,sans-Serif" font-size="10.00">quala::ReverseCircularRange</text>
<text text-anchor="middle" x="91" y="-87" font-family="Helvetica,sans-Serif" font-size="10.00">::cend</text>
</a>
</g>
</g>
<!-- Node4&#45;&gt;Node5 -->
<g id="edge4" class="edge">
<title>Node4&#45;&gt;Node5</title>
<path fill="none" stroke="midnightblue" d="M264.92,-97.54C239.82,-97.17 203.38,-96.64 170.41,-96.15"/>
<polygon fill="midnightblue" stroke="midnightblue" points="264.89,-101.04 274.94,-97.69 264.99,-94.04 264.89,-101.04"/>
</g>
<!-- Node8 -->
<g id="node8" class="node">
<title>Node8</title>
<g id="a_node8"><a xlink:href="classquala_1_1ReverseCircularRange.html#a68b688a51bd0cf6fb5bc2cba292209a8" target="_top" xlink:title=" ">
<polygon fill="white" stroke="black" points="0,-0.5 0,-19.5 182,-19.5 182,-0.5 0,-0.5"/>
<text text-anchor="middle" x="91" y="-7.5" font-family="Helvetica,sans-Serif" font-size="10.00">quala::ReverseCircularRange::end</text>
</a>
</g>
</g>
<!-- Node7&#45;&gt;Node8 -->
<g id="edge7" class="edge">
<title>Node7&#45;&gt;Node8</title>
<path fill="none" stroke="midnightblue" d="M267.81,-10C245.48,-10 213.01,-10 182.04,-10"/>
<polygon fill="midnightblue" stroke="midnightblue" points="267.9,-13.5 277.9,-10 267.9,-6.5 267.9,-13.5"/>
</g>
</g>
</svg>
