<?xml version="1.0" encoding="UTF-8" standalone="no"?>
<!DOCTYPE svg PUBLIC "-//W3C//DTD SVG 1.1//EN"
 "http://www.w3.org/Graphics/SVG/1.1/DTD/svg11.dtd">
<!-- Generated by graphviz version 2.43.0 (0)
 -->
<!-- Title: initialize Pages: 1 -->
<svg width="433pt" height="78pt"
 viewBox="0.00 0.00 433.00 77.50" xmlns="http://www.w3.org/2000/svg" xmlns:xlink="http://www.w3.org/1999/xlink">
<g id="graph0" class="graph" transform="scale(1 1) rotate(0) translate(4 73.5)">
<title>initialize</title>
<polygon fill="white" stroke="transparent" points="-4,4 -4,-73.5 429,-73.5 429,4 -4,4"/>
<!-- Node1 -->
<g id="node1" class="node">
<title>Node1</title>
<g id="a_node1"><a xlink:title="Call this function on the first iteration to initialize the accelerator.">
<polygon fill="#bfbfbf" stroke="black" points="0,-28 0,-47 59,-47 59,-28 0,-28"/>
<text text-anchor="middle" x="29.5" y="-35" font-family="Helvetica,sans-Serif" font-size="10.00">initialize</text>
</a>
</g>
</g>
<!-- Node2 -->
<g id="node2" class="node">
<title>Node2</title>
<g id="a_node2"><a xlink:href="classquala_1_1AndersonAccel.html#a727afc7a58d2e44ae7add57e3fa77bc6" target="_top" xlink:title="Get the problem dimension.">
<polygon fill="white" stroke="black" points="151,-50 151,-69 180,-69 180,-50 151,-50"/>
<text text-anchor="middle" x="165.5" y="-57" font-family="Helvetica,sans-Serif" font-size="10.00">n</text>
</a>
</g>
</g>
<!-- Node1&#45;&gt;Node2 -->
<g id="edge1" class="edge">
<title>Node1&#45;&gt;Node2</title>
<path fill="none" stroke="midnightblue" d="M59.25,-42.22C83.57,-46.21 118,-51.87 140.77,-55.6"/>
<polygon fill="midnightblue" stroke="midnightblue" points="140.49,-59.1 150.92,-57.27 141.62,-52.2 140.49,-59.1"/>
</g>
<!-- Node4 -->
<g id="node4" class="node">
<title>Node4</title>
<g id="a_node4"><a xlink:href="classquala_1_1LimitedMemoryQR.html#ad20897c5c8bd47f5d4005989bead0e55" target="_top" xlink:title="Reset all indices, clearing the Q and R matrices.">
<polygon fill="white" stroke="black" points="95,-0.5 95,-30.5 236,-30.5 236,-0.5 95,-0.5"/>
<text text-anchor="start" x="103" y="-18.5" font-family="Helvetica,sans-Serif" font-size="10.00">quala::LimitedMemoryQR</text>
<text text-anchor="middle" x="165.5" y="-7.5" font-family="Helvetica,sans-Serif" font-size="10.00">::reset</text>
</a>
</g>
</g>
<!-- Node1&#45;&gt;Node4 -->
<g id="edge3" class="edge">
<title>Node1&#45;&gt;Node4</title>
<path fill="none" stroke="midnightblue" d="M59.25,-32.78C66.98,-31.51 75.74,-30.07 84.83,-28.58"/>
<polygon fill="midnightblue" stroke="midnightblue" points="85.48,-32.02 94.78,-26.95 84.34,-25.11 85.48,-32.02"/>
</g>
<!-- Node3 -->
<g id="node3" class="node">
<title>Node3</title>
<g id="a_node3"><a xlink:href="classquala_1_1LimitedMemoryQR.html#a727afc7a58d2e44ae7add57e3fa77bc6" target="_top" xlink:title=" ">
<polygon fill="white" stroke="black" points="272,-50 272,-69 425,-69 425,-50 272,-50"/>
<text text-anchor="middle" x="348.5" y="-57" font-family="Helvetica,sans-Serif" font-size="10.00">quala::LimitedMemoryQR::n</text>
</a>
</g>
</g>
<!-- Node2&#45;&gt;Node3 -->
<g id="edge2" class="edge">
<title>Node2&#45;&gt;Node3</title>
<path fill="none" stroke="midnightblue" d="M180.1,-59.5C197.76,-59.5 230.06,-59.5 261.6,-59.5"/>
<polygon fill="midnightblue" stroke="midnightblue" points="261.8,-63 271.8,-59.5 261.8,-56 261.8,-63"/>
</g>
</g>
</svg>
