<?xml version="1.0" encoding="UTF-8" standalone="no"?>
<!DOCTYPE svg PUBLIC "-//W3C//DTD SVG 1.1//EN"
 "http://www.w3.org/Graphics/SVG/1.1/DTD/svg11.dtd">
<!-- Generated by graphviz version 2.43.0 (0)
 -->
<!-- Title: BroydenGood Pages: 1 -->
<svg width="240pt" height="468pt"
 viewBox="0.00 0.00 240.00 468.00" xmlns="http://www.w3.org/2000/svg" xmlns:xlink="http://www.w3.org/1999/xlink">
<g id="graph0" class="graph" transform="scale(1 1) rotate(0) translate(4 464)">
<title>BroydenGood</title>
<polygon fill="white" stroke="transparent" points="-4,4 -4,-464 236,-464 236,4 -4,4"/>
<!-- Node1 -->
<g id="node1" class="node">
<title>Node1</title>
<g id="a_node1"><a xlink:title="Broyden&#39;s “Good” method for solving systems of nonlinear equations .">
<polygon fill="#bfbfbf" stroke="black" points="55,-0.5 55,-266.5 164,-266.5 164,-0.5 55,-0.5"/>
<text text-anchor="middle" x="109.5" y="-254.5" font-family="Helvetica,sans-Serif" font-size="10.00">BroydenGood</text>
<polyline fill="none" stroke="black" points="55,-247.5 164,-247.5 "/>
<text text-anchor="start" x="63" y="-235.5" font-family="Helvetica,sans-Serif" font-size="10.00">&#45; idx</text>
<text text-anchor="start" x="63" y="-224.5" font-family="Helvetica,sans-Serif" font-size="10.00">&#45; full</text>
<polyline fill="none" stroke="black" points="55,-217.5 164,-217.5 "/>
<text text-anchor="start" x="63" y="-205.5" font-family="Helvetica,sans-Serif" font-size="10.00">+ BroydenGood()</text>
<text text-anchor="start" x="63" y="-194.5" font-family="Helvetica,sans-Serif" font-size="10.00">+ BroydenGood()</text>
<text text-anchor="start" x="63" y="-183.5" font-family="Helvetica,sans-Serif" font-size="10.00">+ update_sy()</text>
<text text-anchor="start" x="63" y="-172.5" font-family="Helvetica,sans-Serif" font-size="10.00">+ update()</text>
<text text-anchor="start" x="63" y="-161.5" font-family="Helvetica,sans-Serif" font-size="10.00">+ apply()</text>
<text text-anchor="start" x="63" y="-150.5" font-family="Helvetica,sans-Serif" font-size="10.00">+ reset()</text>
<text text-anchor="start" x="63" y="-139.5" font-family="Helvetica,sans-Serif" font-size="10.00">+ resize()</text>
<text text-anchor="start" x="63" y="-128.5" font-family="Helvetica,sans-Serif" font-size="10.00">+ get_params()</text>
<text text-anchor="start" x="63" y="-117.5" font-family="Helvetica,sans-Serif" font-size="10.00">+ n()</text>
<text text-anchor="start" x="63" y="-106.5" font-family="Helvetica,sans-Serif" font-size="10.00">+ history()</text>
<text text-anchor="start" x="63" y="-95.5" font-family="Helvetica,sans-Serif" font-size="10.00">+ succ()</text>
<text text-anchor="start" x="63" y="-84.5" font-family="Helvetica,sans-Serif" font-size="10.00">+ pred()</text>
<text text-anchor="start" x="63" y="-73.5" font-family="Helvetica,sans-Serif" font-size="10.00">+ current_history()</text>
<text text-anchor="start" x="63" y="-62.5" font-family="Helvetica,sans-Serif" font-size="10.00">+ s()</text>
<text text-anchor="start" x="63" y="-51.5" font-family="Helvetica,sans-Serif" font-size="10.00">+ s()</text>
<text text-anchor="start" x="63" y="-40.5" font-family="Helvetica,sans-Serif" font-size="10.00">+ s̃()</text>
<text text-anchor="start" x="63" y="-29.5" font-family="Helvetica,sans-Serif" font-size="10.00">+ s̃()</text>
<text text-anchor="start" x="63" y="-18.5" font-family="Helvetica,sans-Serif" font-size="10.00">+ foreach_fwd()</text>
<text text-anchor="start" x="63" y="-7.5" font-family="Helvetica,sans-Serif" font-size="10.00">+ foreach_rev()</text>
</a>
</g>
</g>
<!-- Node2 -->
<g id="node2" class="node">
<title>Node2</title>
<g id="a_node2"><a xlink:href="structquala_1_1BroydenStorage.html" target="_top" xlink:title="Layout:">
<polygon fill="white" stroke="black" points="0,-314.5 0,-459.5 95,-459.5 95,-314.5 0,-314.5"/>
<text text-anchor="middle" x="47.5" y="-447.5" font-family="Helvetica,sans-Serif" font-size="10.00">BroydenStorage</text>
<polyline fill="none" stroke="black" points="0,-440.5 95,-440.5 "/>
<text text-anchor="start" x="8" y="-428.5" font-family="Helvetica,sans-Serif" font-size="10.00">+ sto</text>
<polyline fill="none" stroke="black" points="0,-421.5 95,-421.5 "/>
<text text-anchor="start" x="8" y="-409.5" font-family="Helvetica,sans-Serif" font-size="10.00">+ resize()</text>
<text text-anchor="start" x="8" y="-398.5" font-family="Helvetica,sans-Serif" font-size="10.00">+ n()</text>
<text text-anchor="start" x="8" y="-387.5" font-family="Helvetica,sans-Serif" font-size="10.00">+ history()</text>
<text text-anchor="start" x="8" y="-376.5" font-family="Helvetica,sans-Serif" font-size="10.00">+ s()</text>
<text text-anchor="start" x="8" y="-365.5" font-family="Helvetica,sans-Serif" font-size="10.00">+ s()</text>
<text text-anchor="start" x="8" y="-354.5" font-family="Helvetica,sans-Serif" font-size="10.00">+ s̃()</text>
<text text-anchor="start" x="8" y="-343.5" font-family="Helvetica,sans-Serif" font-size="10.00">+ s̃()</text>
<text text-anchor="start" x="8" y="-332.5" font-family="Helvetica,sans-Serif" font-size="10.00">+ work()</text>
<text text-anchor="start" x="8" y="-321.5" font-family="Helvetica,sans-Serif" font-size="10.00">+ work()</text>
</a>
</g>
</g>
<!-- Node2&#45;&gt;Node1 -->
<g id="edge1" class="edge">
<title>Node2&#45;&gt;Node1</title>
<path fill="none" stroke="#404040" d="M65.18,-314.27C67.98,-302.93 70.95,-290.88 73.98,-278.58"/>
<polygon fill="none" stroke="#404040" points="74.03,-278.39 71.58,-271.61 76.9,-266.74 79.35,-273.52 74.03,-278.39"/>
<text text-anchor="middle" x="82.5" y="-288" font-family="Helvetica,sans-Serif" font-size="10.00"> &#45;sto</text>
</g>
<!-- Node3 -->
<g id="node3" class="node">
<title>Node3</title>
<g id="a_node3"><a xlink:href="namespacequala.html#structquala_1_1BroydenGoodParams" target="_top" xlink:title="Parameters for the BroydenGood class.">
<polygon fill="white" stroke="black" points="113,-342 113,-432 232,-432 232,-342 113,-342"/>
<text text-anchor="middle" x="172.5" y="-420" font-family="Helvetica,sans-Serif" font-size="10.00">BroydenGoodParams</text>
<polyline fill="none" stroke="black" points="113,-413 232,-413 "/>
<text text-anchor="start" x="121" y="-401" font-family="Helvetica,sans-Serif" font-size="10.00">+ memory</text>
<text text-anchor="start" x="121" y="-390" font-family="Helvetica,sans-Serif" font-size="10.00">+ min_div_abs</text>
<text text-anchor="start" x="121" y="-379" font-family="Helvetica,sans-Serif" font-size="10.00">+ force_pos_def</text>
<text text-anchor="start" x="121" y="-368" font-family="Helvetica,sans-Serif" font-size="10.00">+ restarted</text>
<polyline fill="none" stroke="black" points="113,-361 232,-361 "/>
<text text-anchor="middle" x="172.5" y="-349" font-family="Helvetica,sans-Serif" font-size="10.00"> </text>
</a>
</g>
</g>
<!-- Node3&#45;&gt;Node1 -->
<g id="edge2" class="edge">
<title>Node3&#45;&gt;Node1</title>
<path fill="none" stroke="#404040" d="M161.45,-341.9C156.9,-323.71 151.33,-301.49 145.56,-278.44"/>
<polygon fill="none" stroke="#404040" points="145.53,-278.34 140.19,-273.49 142.62,-266.7 147.95,-271.55 145.53,-278.34"/>
<text text-anchor="middle" x="169.5" y="-288" font-family="Helvetica,sans-Serif" font-size="10.00"> &#45;params</text>
</g>
</g>
</svg>
