<?xml version="1.0" encoding="UTF-8" standalone="no"?>
<!DOCTYPE svg PUBLIC "-//W3C//DTD SVG 1.1//EN"
 "http://www.w3.org/Graphics/SVG/1.1/DTD/svg11.dtd">
<!-- Generated by graphviz version 2.43.0 (0)
 -->
<!-- Title: cbegin Pages: 1 -->
<svg width="389pt" height="39pt"
 viewBox="0.00 0.00 389.00 39.00" xmlns="http://www.w3.org/2000/svg" xmlns:xlink="http://www.w3.org/1999/xlink">
<g id="graph0" class="graph" transform="scale(1 1) rotate(0) translate(4 35)">
<title>cbegin</title>
<polygon fill="white" stroke="transparent" points="-4,4 -4,-35 385,-35 385,4 -4,4"/>
<!-- Node1 -->
<g id="node1" class="node">
<title>Node1</title>
<g id="a_node1"><a xlink:title=" ">
<polygon fill="#bfbfbf" stroke="black" points="0,-6 0,-25 49,-25 49,-6 0,-6"/>
<text text-anchor="middle" x="24.5" y="-13" font-family="Helvetica,sans-Serif" font-size="10.00">cbegin</text>
</a>
</g>
</g>
<!-- Node2 -->
<g id="node2" class="node">
<title>Node2</title>
<g id="a_node2"><a xlink:href="classquala_1_1CircularRange.html#a81f80a31923e85af56a7b1ae0712a33b" target="_top" xlink:title=" ">
<polygon fill="white" stroke="black" points="85,-0.5 85,-30.5 203,-30.5 203,-0.5 85,-0.5"/>
<text text-anchor="start" x="93" y="-18.5" font-family="Helvetica,sans-Serif" font-size="10.00">quala::CircularRange</text>
<text text-anchor="middle" x="144" y="-7.5" font-family="Helvetica,sans-Serif" font-size="10.00">::crbegin</text>
</a>
</g>
</g>
<!-- Node1&#45;&gt;Node2 -->
<g id="edge1" class="edge">
<title>Node1&#45;&gt;Node2</title>
<path fill="none" stroke="midnightblue" d="M49.28,-15.5C56.78,-15.5 65.48,-15.5 74.5,-15.5"/>
<polygon fill="midnightblue" stroke="midnightblue" points="74.76,-19 84.76,-15.5 74.76,-12 74.76,-19"/>
</g>
<!-- Node3 -->
<g id="node3" class="node">
<title>Node3</title>
<g id="a_node3"><a xlink:href="classquala_1_1CircularRange.html#a68b688a51bd0cf6fb5bc2cba292209a8" target="_top" xlink:title=" ">
<polygon fill="white" stroke="black" points="239,-6 239,-25 381,-25 381,-6 239,-6"/>
<text text-anchor="middle" x="310" y="-13" font-family="Helvetica,sans-Serif" font-size="10.00">quala::CircularRange::end</text>
</a>
</g>
</g>
<!-- Node2&#45;&gt;Node3 -->
<g id="edge2" class="edge">
<title>Node2&#45;&gt;Node3</title>
<path fill="none" stroke="midnightblue" d="M203.28,-15.5C211.55,-15.5 220.18,-15.5 228.78,-15.5"/>
<polygon fill="midnightblue" stroke="midnightblue" points="228.83,-19 238.83,-15.5 228.83,-12 228.83,-19"/>
</g>
</g>
</svg>
