<?xml version="1.0" encoding="UTF-8" standalone="no"?>
<!DOCTYPE svg PUBLIC "-//W3C//DTD SVG 1.1//EN"
 "http://www.w3.org/Graphics/SVG/1.1/DTD/svg11.dtd">
<!-- Generated by graphviz version 2.43.0 (0)
 -->
<!-- Title: m Pages: 1 -->
<svg width="839pt" height="513pt"
 viewBox="0.00 0.00 839.00 513.11" xmlns="http://www.w3.org/2000/svg" xmlns:xlink="http://www.w3.org/1999/xlink">
<g id="graph0" class="graph" transform="scale(1 1) rotate(0) translate(4 509.11)">
<title>m</title>
<polygon fill="white" stroke="transparent" points="-4,4 -4,-509.11 835,-509.11 835,4 -4,4"/>
<!-- Node1 -->
<g id="node1" class="node">
<title>Node1</title>
<g id="a_node1"><a xlink:title=" ">
<polygon fill="#bfbfbf" stroke="black" points="802,-190.5 802,-209.5 831,-209.5 831,-190.5 802,-190.5"/>
<text text-anchor="middle" x="816.5" y="-197.5" font-family="Helvetica,sans-Serif" font-size="10.00">m</text>
</a>
</g>
</g>
<!-- Node2 -->
<g id="node2" class="node">
<title>Node2</title>
<g id="a_node2"><a xlink:href="classquala_1_1LimitedMemoryQR.html#a5e3077223e98c1e4e286e01503f220d5" target="_top" xlink:title="Add the given column to the right.">
<polygon fill="white" stroke="black" points="509,-437.5 509,-456.5 585,-456.5 585,-437.5 509,-437.5"/>
<text text-anchor="middle" x="547" y="-444.5" font-family="Helvetica,sans-Serif" font-size="10.00">add_column</text>
</a>
</g>
</g>
<!-- Node1&#45;&gt;Node2 -->
<g id="edge1" class="edge">
<title>Node1&#45;&gt;Node2</title>
<path fill="none" stroke="midnightblue" d="M813.25,-219.55C807.67,-264.64 791.75,-373.93 766,-399 717.4,-446.3 633.37,-451.36 585.07,-449.83"/>
<polygon fill="midnightblue" stroke="midnightblue" points="816.73,-219.91 814.45,-209.57 809.78,-219.08 816.73,-219.91"/>
</g>
<!-- Node3 -->
<g id="node3" class="node">
<title>Node3</title>
<g id="a_node3"><a xlink:href="namespacequala.html#adfa7dfa28551cd76de954d1e5e58385c" target="_top" xlink:title="Solve one step of Anderson acceleration to find a fixed point of a function g(x):">
<polygon fill="white" stroke="black" points="158,-394 158,-424 292,-424 292,-394 158,-394"/>
<text text-anchor="start" x="166" y="-412" font-family="Helvetica,sans-Serif" font-size="10.00">quala::minimize_update</text>
<text text-anchor="middle" x="225" y="-401" font-family="Helvetica,sans-Serif" font-size="10.00">_anderson</text>
</a>
</g>
</g>
<!-- Node1&#45;&gt;Node3 -->
<g id="edge6" class="edge">
<title>Node1&#45;&gt;Node3</title>
<path fill="none" stroke="midnightblue" d="M814.14,-219.84C810.21,-271.21 797.04,-406.7 766,-437 624.24,-575.34 349.32,-466.62 257.05,-424.12"/>
<polygon fill="midnightblue" stroke="midnightblue" points="817.64,-219.93 814.88,-209.71 810.66,-219.43 817.64,-219.93"/>
</g>
<!-- Node5 -->
<g id="node5" class="node">
<title>Node5</title>
<g id="a_node5"><a xlink:href="classquala_1_1AndersonAccel.html#a9cf7dcccbc3bc69a10833450ee79c623" target="_top" xlink:title="Get the maximum number of stored columns.">
<polygon fill="white" stroke="black" points="644,-141 644,-171 766,-171 766,-141 644,-141"/>
<text text-anchor="start" x="652" y="-159" font-family="Helvetica,sans-Serif" font-size="10.00">quala::AndersonAccel</text>
<text text-anchor="middle" x="705" y="-148" font-family="Helvetica,sans-Serif" font-size="10.00">::history</text>
</a>
</g>
</g>
<!-- Node1&#45;&gt;Node5 -->
<g id="edge4" class="edge">
<title>Node1&#45;&gt;Node5</title>
<path fill="none" stroke="midnightblue" d="M792.21,-190.64C778.12,-184.98 759.83,-177.63 743.72,-171.16"/>
<polygon fill="midnightblue" stroke="midnightblue" points="791.05,-193.95 801.63,-194.43 793.66,-187.45 791.05,-193.95"/>
</g>
<!-- Node6 -->
<g id="node6" class="node">
<title>Node6</title>
<g id="a_node6"><a xlink:href="classquala_1_1LimitedMemoryQR.html#a9cf7dcccbc3bc69a10833450ee79c623" target="_top" xlink:title=" ">
<polygon fill="white" stroke="black" points="680,-102.5 680,-121.5 730,-121.5 730,-102.5 680,-102.5"/>
<text text-anchor="middle" x="705" y="-109.5" font-family="Helvetica,sans-Serif" font-size="10.00">history</text>
</a>
</g>
</g>
<!-- Node1&#45;&gt;Node6 -->
<g id="edge5" class="edge">
<title>Node1&#45;&gt;Node6</title>
<path fill="none" stroke="midnightblue" d="M806.04,-181.12C797.5,-165.86 783.59,-144.87 766,-132 755.45,-124.28 741.75,-119.42 730.1,-116.42"/>
<polygon fill="midnightblue" stroke="midnightblue" points="803.07,-182.99 810.86,-190.17 809.25,-179.7 803.07,-182.99"/>
</g>
<!-- Node7 -->
<g id="node7" class="node">
<title>Node7</title>
<g id="a_node7"><a xlink:href="classquala_1_1LimitedMemoryQR.html#a5c8c5c98dc14e4c5e77345b6fe7a023a" target="_top" xlink:title="Get the previous index in the circular storage for R.">
<polygon fill="white" stroke="black" points="681.5,-64.5 681.5,-83.5 728.5,-83.5 728.5,-64.5 681.5,-64.5"/>
<text text-anchor="middle" x="705" y="-71.5" font-family="Helvetica,sans-Serif" font-size="10.00">r_pred</text>
</a>
</g>
</g>
<!-- Node1&#45;&gt;Node7 -->
<g id="edge7" class="edge">
<title>Node1&#45;&gt;Node7</title>
<path fill="none" stroke="midnightblue" d="M811.52,-180.43C805.65,-156.47 792.39,-116.24 766,-93 755.67,-83.9 740.97,-79.16 728.71,-76.68"/>
<polygon fill="midnightblue" stroke="midnightblue" points="808.17,-181.46 813.78,-190.45 815,-179.93 808.17,-181.46"/>
</g>
<!-- Node9 -->
<g id="node9" class="node">
<title>Node9</title>
<g id="a_node9"><a xlink:href="classquala_1_1LimitedMemoryQR.html#a9f68bead8c70041aacb90dd175150dc4" target="_top" xlink:title="Get the next index in the circular storage for R.">
<polygon fill="white" stroke="black" points="681.5,-370.5 681.5,-389.5 728.5,-389.5 728.5,-370.5 681.5,-370.5"/>
<text text-anchor="middle" x="705" y="-377.5" font-family="Helvetica,sans-Serif" font-size="10.00">r_succ</text>
</a>
</g>
</g>
<!-- Node1&#45;&gt;Node9 -->
<g id="edge9" class="edge">
<title>Node1&#45;&gt;Node9</title>
<path fill="none" stroke="midnightblue" d="M804.16,-218.64C781.09,-256.56 729.41,-341.52 711.92,-370.27"/>
<polygon fill="midnightblue" stroke="midnightblue" points="807.41,-220.04 809.61,-209.68 801.43,-216.4 807.41,-220.04"/>
</g>
<!-- Node12 -->
<g id="node12" class="node">
<title>Node12</title>
<g id="a_node12"><a xlink:href="classquala_1_1LimitedMemoryQR.html#ad15543203799d1dccb5a5e1c572e3f02" target="_top" xlink:title="Re&#45;allocate storage for a problem with a different size.">
<polygon fill="white" stroke="black" points="682,-25.5 682,-44.5 728,-44.5 728,-25.5 682,-25.5"/>
<text text-anchor="middle" x="705" y="-32.5" font-family="Helvetica,sans-Serif" font-size="10.00">resize</text>
</a>
</g>
</g>
<!-- Node1&#45;&gt;Node12 -->
<g id="edge14" class="edge">
<title>Node1&#45;&gt;Node12</title>
<path fill="none" stroke="midnightblue" d="M814.18,-180C811.06,-149.01 800.65,-89.4 766,-55 755.95,-45.02 740.79,-40.02 728.23,-37.51"/>
<polygon fill="midnightblue" stroke="midnightblue" points="810.72,-180.69 815.05,-190.36 817.7,-180.1 810.72,-180.69"/>
</g>
<!-- Node16 -->
<g id="node16" class="node">
<title>Node16</title>
<g id="a_node16"><a xlink:href="classquala_1_1LimitedMemoryQR.html#a0bf0ad441ec87440e4525e75de00d053" target="_top" xlink:title="Get iterators in the circular buffer.">
<polygon fill="white" stroke="black" points="676.5,-247.5 676.5,-266.5 733.5,-266.5 733.5,-247.5 676.5,-247.5"/>
<text text-anchor="middle" x="705" y="-254.5" font-family="Helvetica,sans-Serif" font-size="10.00">ring_iter</text>
</a>
</g>
</g>
<!-- Node1&#45;&gt;Node16 -->
<g id="edge18" class="edge">
<title>Node1&#45;&gt;Node16</title>
<path fill="none" stroke="midnightblue" d="M792.5,-211.97C772.29,-222.5 743.25,-237.61 724.5,-247.37"/>
<polygon fill="midnightblue" stroke="midnightblue" points="794.38,-214.94 801.63,-207.22 791.15,-208.73 794.38,-214.94"/>
</g>
<!-- Node20 -->
<g id="node20" class="node">
<title>Node20</title>
<g id="a_node20"><a xlink:href="classquala_1_1LimitedMemoryQR.html#a5f3732971788e558366a2b509a538206" target="_top" xlink:title="Solve the least squares problem AX = B.">
<polygon fill="white" stroke="black" points="39.5,-195.5 39.5,-214.5 82.5,-214.5 82.5,-195.5 39.5,-195.5"/>
<text text-anchor="middle" x="61" y="-202.5" font-family="Helvetica,sans-Serif" font-size="10.00">solve</text>
</a>
</g>
</g>
<!-- Node1&#45;&gt;Node20 -->
<g id="edge27" class="edge">
<title>Node1&#45;&gt;Node20</title>
<path fill="none" stroke="midnightblue" d="M791.35,-199.9C736.88,-199.7 600.29,-199.33 486,-200 331.04,-200.91 144.24,-203.71 82.74,-204.67"/>
<polygon fill="midnightblue" stroke="midnightblue" points="791.68,-203.4 801.69,-199.94 791.7,-196.4 791.68,-203.4"/>
</g>
<!-- Node2&#45;&gt;Node3 -->
<g id="edge2" class="edge">
<title>Node2&#45;&gt;Node3</title>
<path fill="none" stroke="midnightblue" d="M498.68,-444.21C454.42,-441.28 386.55,-435.98 328,-428 316.4,-426.42 304.11,-424.41 292.24,-422.31"/>
<polygon fill="midnightblue" stroke="midnightblue" points="498.64,-447.71 508.85,-444.87 499.1,-440.73 498.64,-447.71"/>
</g>
<!-- Node4 -->
<g id="node4" class="node">
<title>Node4</title>
<g id="a_node4"><a xlink:href="classquala_1_1AndersonAccel.html#a7cbecaa52700158ebe36c0d587791ed4" target="_top" xlink:title="Compute the accelerated iterate , given the function value at the current iterate &#160;and the correspond...">
<polygon fill="white" stroke="black" points="0,-394 0,-424 122,-424 122,-394 0,-394"/>
<text text-anchor="start" x="8" y="-412" font-family="Helvetica,sans-Serif" font-size="10.00">quala::AndersonAccel</text>
<text text-anchor="middle" x="61" y="-401" font-family="Helvetica,sans-Serif" font-size="10.00">::compute</text>
</a>
</g>
</g>
<!-- Node3&#45;&gt;Node4 -->
<g id="edge3" class="edge">
<title>Node3&#45;&gt;Node4</title>
<path fill="none" stroke="midnightblue" d="M147.61,-409C139.02,-409 130.36,-409 122.01,-409"/>
<polygon fill="midnightblue" stroke="midnightblue" points="147.64,-412.5 157.64,-409 147.64,-405.5 147.64,-412.5"/>
</g>
<!-- Node8 -->
<g id="node8" class="node">
<title>Node8</title>
<g id="a_node8"><a xlink:href="classquala_1_1LimitedMemoryQR.html#abe9cf16db2c29172997a6aa0ee68f75a" target="_top" xlink:title="Get the previous index in the circular buffer.">
<polygon fill="white" stroke="black" points="516,-66.5 516,-85.5 578,-85.5 578,-66.5 516,-66.5"/>
<text text-anchor="middle" x="547" y="-73.5" font-family="Helvetica,sans-Serif" font-size="10.00">ring_prev</text>
</a>
</g>
</g>
<!-- Node7&#45;&gt;Node8 -->
<g id="edge8" class="edge">
<title>Node7&#45;&gt;Node8</title>
<path fill="none" stroke="midnightblue" d="M671.04,-74.42C643.6,-74.77 604.85,-75.27 578.21,-75.61"/>
<polygon fill="midnightblue" stroke="midnightblue" points="671.36,-77.92 681.32,-74.29 671.27,-70.92 671.36,-77.92"/>
</g>
<!-- Node9&#45;&gt;Node2 -->
<g id="edge10" class="edge">
<title>Node9&#45;&gt;Node2</title>
<path fill="none" stroke="midnightblue" d="M673.87,-393.87C655.02,-402.46 630.19,-413.6 608,-423 596.43,-427.9 583.5,-433.11 572.61,-437.42"/>
<polygon fill="midnightblue" stroke="midnightblue" points="675.49,-396.98 683.13,-389.64 672.58,-390.61 675.49,-396.98"/>
</g>
<!-- Node10 -->
<g id="node10" class="node">
<title>Node10</title>
<g id="a_node10"><a xlink:href="classquala_1_1LimitedMemoryQR.html#a436c4dbbf0476354ca67a104bc005e55" target="_top" xlink:title="Remove the leftmost column.">
<polygon fill="white" stroke="black" points="341.5,-399.5 341.5,-418.5 436.5,-418.5 436.5,-399.5 341.5,-399.5"/>
<text text-anchor="middle" x="389" y="-406.5" font-family="Helvetica,sans-Serif" font-size="10.00">remove_column</text>
</a>
</g>
</g>
<!-- Node9&#45;&gt;Node10 -->
<g id="edge11" class="edge">
<title>Node9&#45;&gt;Node10</title>
<path fill="none" stroke="midnightblue" d="M671.12,-383.56C652.59,-385.54 629.01,-387.99 608,-390 549,-395.64 480.96,-401.46 436.8,-405.15"/>
<polygon fill="midnightblue" stroke="midnightblue" points="671.55,-387.04 681.12,-382.49 670.81,-380.08 671.55,-387.04"/>
</g>
<!-- Node11 -->
<g id="node11" class="node">
<title>Node11</title>
<g id="a_node11"><a xlink:href="classquala_1_1LimitedMemoryQR.html#ad24371ff0ab7c48c4fb9750d5d66cd0c" target="_top" xlink:title="Get the next index in the circular buffer.">
<polygon fill="white" stroke="black" points="516,-361.5 516,-380.5 578,-380.5 578,-361.5 516,-361.5"/>
<text text-anchor="middle" x="547" y="-368.5" font-family="Helvetica,sans-Serif" font-size="10.00">ring_next</text>
</a>
</g>
</g>
<!-- Node9&#45;&gt;Node11 -->
<g id="edge13" class="edge">
<title>Node9&#45;&gt;Node11</title>
<path fill="none" stroke="midnightblue" d="M671.04,-378.1C643.6,-376.52 604.85,-374.28 578.21,-372.74"/>
<polygon fill="midnightblue" stroke="midnightblue" points="671.13,-381.61 681.32,-378.69 671.53,-374.62 671.13,-381.61"/>
</g>
<!-- Node10&#45;&gt;Node3 -->
<g id="edge12" class="edge">
<title>Node10&#45;&gt;Node3</title>
<path fill="none" stroke="midnightblue" d="M330.83,-409C318.28,-409 304.89,-409 292.03,-409"/>
<polygon fill="midnightblue" stroke="midnightblue" points="331.14,-412.5 341.14,-409 331.14,-405.5 331.14,-412.5"/>
</g>
<!-- Node13 -->
<g id="node13" class="node">
<title>Node13</title>
<g id="a_node13"><a xlink:href="classquala_1_1AndersonAccel.html#abfe51417fbebd259808f86d27f1d7ec5" target="_top" xlink:title="Change the problem dimension.">
<polygon fill="white" stroke="black" points="486,-17 486,-47 608,-47 608,-17 486,-17"/>
<text text-anchor="start" x="494" y="-35" font-family="Helvetica,sans-Serif" font-size="10.00">quala::AndersonAccel</text>
<text text-anchor="middle" x="547" y="-24" font-family="Helvetica,sans-Serif" font-size="10.00">::resize</text>
</a>
</g>
</g>
<!-- Node12&#45;&gt;Node13 -->
<g id="edge15" class="edge">
<title>Node12&#45;&gt;Node13</title>
<path fill="none" stroke="midnightblue" d="M671.84,-34.38C653.5,-34.03 629.92,-33.58 608.26,-33.16"/>
<polygon fill="midnightblue" stroke="midnightblue" points="671.91,-37.88 681.98,-34.58 672.05,-30.88 671.91,-37.88"/>
</g>
<!-- Node14 -->
<g id="node14" class="node">
<title>Node14</title>
<g id="a_node14"><a xlink:href="classquala_1_1AndersonAccel.html#a1fcb04cfb2b1398b54d8242cc3b0fb34" target="_top" xlink:title=" ">
<polygon fill="white" stroke="black" points="328,-39 328,-69 450,-69 450,-39 328,-39"/>
<text text-anchor="start" x="336" y="-57" font-family="Helvetica,sans-Serif" font-size="10.00">quala::AndersonAccel</text>
<text text-anchor="middle" x="389" y="-46" font-family="Helvetica,sans-Serif" font-size="10.00">::AndersonAccel</text>
</a>
</g>
</g>
<!-- Node13&#45;&gt;Node14 -->
<g id="edge16" class="edge">
<title>Node13&#45;&gt;Node14</title>
<path fill="none" stroke="midnightblue" d="M475.74,-41.91C467.2,-43.11 458.53,-44.34 450.15,-45.52"/>
<polygon fill="midnightblue" stroke="midnightblue" points="476.27,-45.37 485.69,-40.51 475.3,-38.44 476.27,-45.37"/>
</g>
<!-- Node15 -->
<g id="node15" class="node">
<title>Node15</title>
<g id="a_node15"><a xlink:href="quala_8cpp.html#a12fb4e87da488d1fc7c6fa3e6a3adb90" target="_top" xlink:title=" ">
<polygon fill="white" stroke="black" points="332.5,-0.5 332.5,-19.5 445.5,-19.5 445.5,-0.5 332.5,-0.5"/>
<text text-anchor="middle" x="389" y="-7.5" font-family="Helvetica,sans-Serif" font-size="10.00">PYBIND11_MODULE</text>
</a>
</g>
</g>
<!-- Node13&#45;&gt;Node15 -->
<g id="edge17" class="edge">
<title>Node13&#45;&gt;Node15</title>
<path fill="none" stroke="midnightblue" d="M475.68,-22.08C465.58,-20.66 455.31,-19.21 445.56,-17.84"/>
<polygon fill="midnightblue" stroke="midnightblue" points="475.3,-25.56 485.69,-23.49 476.27,-18.63 475.3,-25.56"/>
</g>
<!-- Node16&#45;&gt;Node3 -->
<g id="edge19" class="edge">
<title>Node16&#45;&gt;Node3</title>
<path fill="none" stroke="midnightblue" d="M669.27,-270.16C651.1,-276.92 628.44,-285.15 608,-292 490.94,-331.24 351.98,-372.47 278.18,-393.96"/>
<polygon fill="midnightblue" stroke="midnightblue" points="670.72,-273.35 678.86,-266.57 668.27,-266.8 670.72,-273.35"/>
</g>
<!-- Node17 -->
<g id="node17" class="node">
<title>Node17</title>
<g id="a_node17"><a xlink:href="classquala_1_1LimitedMemoryQR.html#ae8160acf26958eb65aa5c0743dd2826d" target="_top" xlink:title="Get reverse iterators in the circular buffer.">
<polygon fill="white" stroke="black" points="497.5,-247.5 497.5,-266.5 596.5,-266.5 596.5,-247.5 497.5,-247.5"/>
<text text-anchor="middle" x="547" y="-254.5" font-family="Helvetica,sans-Serif" font-size="10.00">ring_reverse_iter</text>
</a>
</g>
</g>
<!-- Node16&#45;&gt;Node17 -->
<g id="edge20" class="edge">
<title>Node16&#45;&gt;Node17</title>
<path fill="none" stroke="midnightblue" d="M666.37,-257C645.44,-257 619.16,-257 596.69,-257"/>
<polygon fill="midnightblue" stroke="midnightblue" points="666.47,-260.5 676.47,-257 666.47,-253.5 666.47,-260.5"/>
</g>
<!-- Node18 -->
<g id="node18" class="node">
<title>Node18</title>
<g id="a_node18"><a xlink:href="classquala_1_1LimitedMemoryQR.html#a7a60dfe0a5f68bc1efec69e406a2b619" target="_top" xlink:title="Solve the least squares problem Ax = b.">
<polygon fill="white" stroke="black" points="358,-266.5 358,-285.5 420,-285.5 420,-266.5 358,-266.5"/>
<text text-anchor="middle" x="389" y="-273.5" font-family="Helvetica,sans-Serif" font-size="10.00">solve_col</text>
</a>
</g>
</g>
<!-- Node16&#45;&gt;Node18 -->
<g id="edge26" class="edge">
<title>Node16&#45;&gt;Node18</title>
<path fill="none" stroke="midnightblue" d="M666.57,-266.17C648.93,-270.04 627.51,-274.09 608,-276 541.14,-282.55 462.19,-280.02 420.06,-277.85"/>
<polygon fill="midnightblue" stroke="midnightblue" points="667.5,-269.55 676.49,-263.93 665.96,-262.72 667.5,-269.55"/>
</g>
<!-- Node21 -->
<g id="node21" class="node">
<title>Node21</title>
<g id="a_node21"><a xlink:href="classquala_1_1LimitedMemoryQR.html#adf11f99cb8b119423c86498dbaab9820" target="_top" xlink:title="Multiply the matrix R by a scalar.">
<polygon fill="white" stroke="black" points="520,-209.5 520,-228.5 574,-228.5 574,-209.5 520,-209.5"/>
<text text-anchor="middle" x="547" y="-216.5" font-family="Helvetica,sans-Serif" font-size="10.00">scale_R</text>
</a>
</g>
</g>
<!-- Node16&#45;&gt;Node21 -->
<g id="edge25" class="edge">
<title>Node16&#45;&gt;Node21</title>
<path fill="none" stroke="midnightblue" d="M666.46,-247.86C637.95,-240.91 599.48,-231.54 574.22,-225.39"/>
<polygon fill="midnightblue" stroke="midnightblue" points="665.93,-251.33 676.47,-250.29 667.58,-244.53 665.93,-251.33"/>
</g>
<!-- Node17&#45;&gt;Node18 -->
<g id="edge21" class="edge">
<title>Node17&#45;&gt;Node18</title>
<path fill="none" stroke="midnightblue" d="M487.53,-264.12C464.66,-266.91 439.4,-269.98 420.32,-272.31"/>
<polygon fill="midnightblue" stroke="midnightblue" points="487.99,-267.59 497.5,-262.91 487.15,-260.64 487.99,-267.59"/>
</g>
<!-- Node18&#45;&gt;Node3 -->
<g id="edge22" class="edge">
<title>Node18&#45;&gt;Node3</title>
<path fill="none" stroke="midnightblue" d="M365.36,-291.42C353.95,-299.38 340.02,-309.43 328,-319 296.59,-344.01 261.92,-375.49 242.17,-393.82"/>
<polygon fill="midnightblue" stroke="midnightblue" points="367.65,-294.09 373.88,-285.52 363.67,-288.33 367.65,-294.09"/>
</g>
<!-- Node19 -->
<g id="node19" class="node">
<title>Node19</title>
<g id="a_node19"><a xlink:href="classquala_1_1LimitedMemoryQR.html#a9ec3e86c6cbb239ba0642378b564af41" target="_top" xlink:title="Solve the least squares problem AX = B.">
<polygon fill="white" stroke="black" points="203.5,-242.5 203.5,-261.5 246.5,-261.5 246.5,-242.5 203.5,-242.5"/>
<text text-anchor="middle" x="225" y="-249.5" font-family="Helvetica,sans-Serif" font-size="10.00">solve</text>
</a>
</g>
</g>
<!-- Node18&#45;&gt;Node19 -->
<g id="edge23" class="edge">
<title>Node18&#45;&gt;Node19</title>
<path fill="none" stroke="midnightblue" d="M347.93,-270.06C315.84,-265.31 272.11,-258.83 246.68,-255.06"/>
<polygon fill="midnightblue" stroke="midnightblue" points="347.5,-273.54 357.91,-271.54 348.53,-266.61 347.5,-273.54"/>
</g>
<!-- Node19&#45;&gt;Node20 -->
<g id="edge24" class="edge">
<title>Node19&#45;&gt;Node20</title>
<path fill="none" stroke="midnightblue" d="M193.64,-243.19C161.21,-233.78 110.69,-219.13 82.61,-210.98"/>
<polygon fill="midnightblue" stroke="midnightblue" points="192.9,-246.62 203.48,-246.05 194.85,-239.9 192.9,-246.62"/>
</g>
</g>
</svg>
