<?xml version="1.0" encoding="UTF-8" standalone="no"?>
<!DOCTYPE svg PUBLIC "-//W3C//DTD SVG 1.1//EN"
 "http://www.w3.org/Graphics/SVG/1.1/DTD/svg11.dtd">
<!-- Generated by graphviz version 2.43.0 (0)
 -->
<!-- Title: update_sy Pages: 1 -->
<svg width="692pt" height="280pt"
 viewBox="0.00 0.00 692.00 280.19" xmlns="http://www.w3.org/2000/svg" xmlns:xlink="http://www.w3.org/1999/xlink">
<g id="graph0" class="graph" transform="scale(1 1) rotate(0) translate(4 276.19)">
<title>update_sy</title>
<polygon fill="white" stroke="transparent" points="-4,4 -4,-276.19 688,-276.19 688,4 -4,4"/>
<!-- Node1 -->
<g id="node1" class="node">
<title>Node1</title>
<g id="a_node1"><a xlink:title="Update the inverse Hessian approximation using the new vectors sₖ = xₖ₊₁ &#45; xₖ and yₖ = pₖ₊₁ &#45; pₖ.">
<polygon fill="#bfbfbf" stroke="black" points="0,-133.5 0,-152.5 67,-152.5 67,-133.5 0,-133.5"/>
<text text-anchor="middle" x="33.5" y="-140.5" font-family="Helvetica,sans-Serif" font-size="10.00">update_sy</text>
</a>
</g>
</g>
<!-- Node2 -->
<g id="node2" class="node">
<title>Node2</title>
<g id="a_node2"><a xlink:href="structquala_1_1LBFGSStorage.html#a15e4a3db39457cabe764a7737d24e73f" target="_top" xlink:title=" ">
<polygon fill="white" stroke="black" points="219.5,-234.5 219.5,-253.5 349.5,-253.5 349.5,-234.5 219.5,-234.5"/>
<text text-anchor="middle" x="284.5" y="-241.5" font-family="Helvetica,sans-Serif" font-size="10.00">quala::LBFGSStorage::s</text>
</a>
</g>
</g>
<!-- Node1&#45;&gt;Node2 -->
<g id="edge1" class="edge">
<title>Node1&#45;&gt;Node2</title>
<path fill="none" stroke="midnightblue" d="M36.85,-152.67C43.04,-175.76 62.2,-233.92 103,-257 148.81,-282.92 211.96,-269.35 250.14,-256.87"/>
<polygon fill="midnightblue" stroke="midnightblue" points="251.42,-260.13 259.75,-253.58 249.15,-253.51 251.42,-260.13"/>
</g>
<!-- Node4 -->
<g id="node4" class="node">
<title>Node4</title>
<g id="a_node4"><a xlink:href="classquala_1_1LBFGS.html#a15e4a3db39457cabe764a7737d24e73f" target="_top" xlink:title=" ">
<polygon fill="white" stroke="black" points="128.5,-228.5 128.5,-247.5 157.5,-247.5 157.5,-228.5 128.5,-228.5"/>
<text text-anchor="middle" x="143" y="-235.5" font-family="Helvetica,sans-Serif" font-size="10.00">s</text>
</a>
</g>
</g>
<!-- Node1&#45;&gt;Node4 -->
<g id="edge3" class="edge">
<title>Node1&#45;&gt;Node4</title>
<path fill="none" stroke="midnightblue" d="M41.51,-152.99C52.92,-168.68 76.89,-199.34 103,-219 107.81,-222.62 113.43,-225.84 118.87,-228.55"/>
<polygon fill="midnightblue" stroke="midnightblue" points="117.73,-231.87 128.28,-232.85 120.64,-225.51 117.73,-231.87"/>
</g>
<!-- Node5 -->
<g id="node5" class="node">
<title>Node5</title>
<g id="a_node5"><a xlink:href="classquala_1_1LBFGS.html#a70926baed7362e4fcce66523bb8e2842" target="_top" xlink:title="Get the next index in the circular buffer of previous s and y vectors.">
<polygon fill="white" stroke="black" points="124,-190.5 124,-209.5 162,-209.5 162,-190.5 124,-190.5"/>
<text text-anchor="middle" x="143" y="-197.5" font-family="Helvetica,sans-Serif" font-size="10.00">succ</text>
</a>
</g>
</g>
<!-- Node1&#45;&gt;Node5 -->
<g id="edge5" class="edge">
<title>Node1&#45;&gt;Node5</title>
<path fill="none" stroke="midnightblue" d="M51.26,-152.62C65.04,-160.46 85.15,-171.71 103,-181 106.65,-182.9 110.53,-184.86 114.36,-186.76"/>
<polygon fill="midnightblue" stroke="midnightblue" points="113.13,-190.05 123.65,-191.31 116.2,-183.77 113.13,-190.05"/>
</g>
<!-- Node8 -->
<g id="node8" class="node">
<title>Node8</title>
<g id="a_node8"><a xlink:href="classquala_1_1LBFGS.html#a1109c880f1969f61532c94c19122e927" target="_top" xlink:title="Check if the new vectors s and y allow for a valid BFGS update that preserves the positive definitene...">
<polygon fill="white" stroke="black" points="103,-152.5 103,-171.5 183,-171.5 183,-152.5 103,-152.5"/>
<text text-anchor="middle" x="143" y="-159.5" font-family="Helvetica,sans-Serif" font-size="10.00">update_valid</text>
</a>
</g>
</g>
<!-- Node1&#45;&gt;Node8 -->
<g id="edge8" class="edge">
<title>Node1&#45;&gt;Node8</title>
<path fill="none" stroke="midnightblue" d="M67.05,-148.75C75.13,-150.18 83.97,-151.74 92.67,-153.28"/>
<polygon fill="midnightblue" stroke="midnightblue" points="92.29,-156.77 102.74,-155.06 93.5,-149.87 92.29,-156.77"/>
</g>
<!-- Node11 -->
<g id="node11" class="node">
<title>Node11</title>
<g id="a_node11"><a xlink:href="structquala_1_1LBFGSStorage.html#aebac2ec4461761a48a7284152a8217f8" target="_top" xlink:title=" ">
<polygon fill="white" stroke="black" points="219,-108.5 219,-127.5 350,-127.5 350,-108.5 219,-108.5"/>
<text text-anchor="middle" x="284.5" y="-115.5" font-family="Helvetica,sans-Serif" font-size="10.00">quala::LBFGSStorage::y</text>
</a>
</g>
</g>
<!-- Node1&#45;&gt;Node11 -->
<g id="edge12" class="edge">
<title>Node1&#45;&gt;Node11</title>
<path fill="none" stroke="midnightblue" d="M67.05,-139.73C102.79,-136.14 161.37,-130.26 208.58,-125.52"/>
<polygon fill="midnightblue" stroke="midnightblue" points="209.17,-128.98 218.77,-124.5 208.47,-122.02 209.17,-128.98"/>
</g>
<!-- Node12 -->
<g id="node12" class="node">
<title>Node12</title>
<g id="a_node12"><a xlink:href="classquala_1_1LBFGS.html#aebac2ec4461761a48a7284152a8217f8" target="_top" xlink:title=" ">
<polygon fill="white" stroke="black" points="128.5,-76.5 128.5,-95.5 157.5,-95.5 157.5,-76.5 128.5,-76.5"/>
<text text-anchor="middle" x="143" y="-83.5" font-family="Helvetica,sans-Serif" font-size="10.00">y</text>
</a>
</g>
</g>
<!-- Node1&#45;&gt;Node12 -->
<g id="edge14" class="edge">
<title>Node1&#45;&gt;Node12</title>
<path fill="none" stroke="midnightblue" d="M52.74,-133.33C71.17,-123.56 99.68,-108.44 119.5,-97.93"/>
<polygon fill="midnightblue" stroke="midnightblue" points="121.26,-100.96 128.45,-93.18 117.98,-94.78 121.26,-100.96"/>
</g>
<!-- Node13 -->
<g id="node13" class="node">
<title>Node13</title>
<g id="a_node13"><a xlink:href="structquala_1_1LBFGSStorage.html#acade3dc51f7ca788be9b91908b2e73ab" target="_top" xlink:title=" ">
<polygon fill="white" stroke="black" points="219,-38.5 219,-57.5 350,-57.5 350,-38.5 219,-38.5"/>
<text text-anchor="middle" x="284.5" y="-45.5" font-family="Helvetica,sans-Serif" font-size="10.00">quala::LBFGSStorage::ρ</text>
</a>
</g>
</g>
<!-- Node1&#45;&gt;Node13 -->
<g id="edge16" class="edge">
<title>Node1&#45;&gt;Node13</title>
<path fill="none" stroke="midnightblue" d="M39.97,-133.24C50,-116.4 73.08,-82.24 103,-67 135.19,-50.61 174.75,-45.08 208.62,-43.99"/>
<polygon fill="midnightblue" stroke="midnightblue" points="209,-47.48 218.93,-43.78 208.86,-40.48 209,-47.48"/>
</g>
<!-- Node14 -->
<g id="node14" class="node">
<title>Node14</title>
<g id="a_node14"><a xlink:href="classquala_1_1LBFGS.html#acade3dc51f7ca788be9b91908b2e73ab" target="_top" xlink:title=" ">
<polygon fill="white" stroke="black" points="128.5,-0.5 128.5,-19.5 157.5,-19.5 157.5,-0.5 128.5,-0.5"/>
<text text-anchor="middle" x="143" y="-7.5" font-family="Helvetica,sans-Serif" font-size="10.00">ρ</text>
</a>
</g>
</g>
<!-- Node1&#45;&gt;Node14 -->
<g id="edge18" class="edge">
<title>Node1&#45;&gt;Node14</title>
<path fill="none" stroke="midnightblue" d="M38.75,-133.24C48.02,-112.83 71.72,-64.99 103,-34 107.82,-29.23 113.76,-24.97 119.53,-21.41"/>
<polygon fill="midnightblue" stroke="midnightblue" points="121.33,-24.42 128.29,-16.43 117.87,-18.33 121.33,-24.42"/>
</g>
<!-- Node3 -->
<g id="node3" class="node">
<title>Node3</title>
<g id="a_node3"><a xlink:href="structquala_1_1LBFGSStorage.html#a727afc7a58d2e44ae7add57e3fa77bc6" target="_top" xlink:title="Get the size of the s and y vectors in the buffer.">
<polygon fill="white" stroke="black" points="553,-127.5 553,-146.5 684,-146.5 684,-127.5 553,-127.5"/>
<text text-anchor="middle" x="618.5" y="-134.5" font-family="Helvetica,sans-Serif" font-size="10.00">quala::LBFGSStorage::n</text>
</a>
</g>
</g>
<!-- Node2&#45;&gt;Node3 -->
<g id="edge2" class="edge">
<title>Node2&#45;&gt;Node3</title>
<path fill="none" stroke="midnightblue" d="M349.71,-249.3C397.66,-250.79 463.8,-247.52 517,-225 553.6,-209.5 586.24,-175.31 603.82,-154.41"/>
<polygon fill="midnightblue" stroke="midnightblue" points="606.57,-156.56 610.19,-146.6 601.15,-152.13 606.57,-156.56"/>
</g>
<!-- Node4&#45;&gt;Node2 -->
<g id="edge4" class="edge">
<title>Node4&#45;&gt;Node2</title>
<path fill="none" stroke="midnightblue" d="M157.63,-238.59C170.06,-239.12 189.48,-239.96 209.38,-240.81"/>
<polygon fill="midnightblue" stroke="midnightblue" points="209.33,-244.31 219.47,-241.25 209.63,-237.32 209.33,-244.31"/>
</g>
<!-- Node6 -->
<g id="node6" class="node">
<title>Node6</title>
<g id="a_node6"><a xlink:href="classquala_1_1LBFGS.html#a9cf7dcccbc3bc69a10833450ee79c623" target="_top" xlink:title="Get the number of previous vectors s and y stored in the buffer.">
<polygon fill="white" stroke="black" points="259.5,-190.5 259.5,-209.5 309.5,-209.5 309.5,-190.5 259.5,-190.5"/>
<text text-anchor="middle" x="284.5" y="-197.5" font-family="Helvetica,sans-Serif" font-size="10.00">history</text>
</a>
</g>
</g>
<!-- Node5&#45;&gt;Node6 -->
<g id="edge6" class="edge">
<title>Node5&#45;&gt;Node6</title>
<path fill="none" stroke="midnightblue" d="M162.24,-200C184.14,-200 221.37,-200 248.81,-200"/>
<polygon fill="midnightblue" stroke="midnightblue" points="249.16,-203.5 259.16,-200 249.16,-196.5 249.16,-203.5"/>
</g>
<!-- Node7 -->
<g id="node7" class="node">
<title>Node7</title>
<g id="a_node7"><a xlink:href="structquala_1_1LBFGSStorage.html#a9cf7dcccbc3bc69a10833450ee79c623" target="_top" xlink:title="Get the number of previous vectors s and y stored in the buffer.">
<polygon fill="white" stroke="black" points="392,-185 392,-215 511,-215 511,-185 392,-185"/>
<text text-anchor="start" x="400" y="-203" font-family="Helvetica,sans-Serif" font-size="10.00">quala::LBFGSStorage</text>
<text text-anchor="middle" x="451.5" y="-192" font-family="Helvetica,sans-Serif" font-size="10.00">::history</text>
</a>
</g>
</g>
<!-- Node6&#45;&gt;Node7 -->
<g id="edge7" class="edge">
<title>Node6&#45;&gt;Node7</title>
<path fill="none" stroke="midnightblue" d="M309.85,-200C328.84,-200 356.2,-200 381.75,-200"/>
<polygon fill="midnightblue" stroke="midnightblue" points="381.8,-203.5 391.8,-200 381.8,-196.5 381.8,-203.5"/>
</g>
<!-- Node9 -->
<g id="node9" class="node">
<title>Node9</title>
<g id="a_node9"><a xlink:href="classquala_1_1LBFGS.html#ac7c2ee7d2562303f555dd1f4c3fca8cd" target="_top" xlink:title=" ">
<polygon fill="white" stroke="black" points="270,-149.5 270,-168.5 299,-168.5 299,-149.5 270,-149.5"/>
<text text-anchor="middle" x="284.5" y="-156.5" font-family="Helvetica,sans-Serif" font-size="10.00">α</text>
</a>
</g>
</g>
<!-- Node8&#45;&gt;Node9 -->
<g id="edge9" class="edge">
<title>Node8&#45;&gt;Node9</title>
<path fill="none" stroke="midnightblue" d="M183.23,-161.16C207.82,-160.63 238.72,-159.96 259.67,-159.51"/>
<polygon fill="midnightblue" stroke="midnightblue" points="259.98,-163.01 269.91,-159.29 259.83,-156.01 259.98,-163.01"/>
</g>
<!-- Node10 -->
<g id="node10" class="node">
<title>Node10</title>
<g id="a_node10"><a xlink:href="structquala_1_1LBFGSStorage.html#ac7c2ee7d2562303f555dd1f4c3fca8cd" target="_top" xlink:title=" ">
<polygon fill="white" stroke="black" points="386,-146.5 386,-165.5 517,-165.5 517,-146.5 386,-146.5"/>
<text text-anchor="middle" x="451.5" y="-153.5" font-family="Helvetica,sans-Serif" font-size="10.00">quala::LBFGSStorage::α</text>
</a>
</g>
</g>
<!-- Node9&#45;&gt;Node10 -->
<g id="edge10" class="edge">
<title>Node9&#45;&gt;Node10</title>
<path fill="none" stroke="midnightblue" d="M299,-158.75C315.94,-158.45 346.3,-157.89 375.42,-157.37"/>
<polygon fill="midnightblue" stroke="midnightblue" points="375.71,-160.86 385.65,-157.18 375.58,-153.86 375.71,-160.86"/>
</g>
<!-- Node10&#45;&gt;Node3 -->
<g id="edge11" class="edge">
<title>Node10&#45;&gt;Node3</title>
<path fill="none" stroke="midnightblue" d="M517.24,-148.55C525.67,-147.57 534.37,-146.57 542.95,-145.58"/>
<polygon fill="midnightblue" stroke="midnightblue" points="543.41,-149.05 552.95,-144.43 542.61,-142.1 543.41,-149.05"/>
</g>
<!-- Node11&#45;&gt;Node3 -->
<g id="edge13" class="edge">
<title>Node11&#45;&gt;Node3</title>
<path fill="none" stroke="midnightblue" d="M350.3,-121.71C405.49,-124.87 484.8,-129.41 542.68,-132.72"/>
<polygon fill="midnightblue" stroke="midnightblue" points="542.68,-136.22 552.86,-133.3 543.08,-129.24 542.68,-136.22"/>
</g>
<!-- Node12&#45;&gt;Node11 -->
<g id="edge15" class="edge">
<title>Node12&#45;&gt;Node11</title>
<path fill="none" stroke="midnightblue" d="M157.63,-89.13C174.77,-93.06 205.19,-100.04 231.83,-106.15"/>
<polygon fill="midnightblue" stroke="midnightblue" points="231.29,-109.62 241.82,-108.44 232.86,-102.79 231.29,-109.62"/>
</g>
<!-- Node13&#45;&gt;Node3 -->
<g id="edge17" class="edge">
<title>Node13&#45;&gt;Node3</title>
<path fill="none" stroke="midnightblue" d="M321.03,-57.52C381.73,-73.8 505.31,-106.92 572.15,-124.84"/>
<polygon fill="midnightblue" stroke="midnightblue" points="571.41,-128.27 581.98,-127.48 573.22,-121.51 571.41,-128.27"/>
</g>
<!-- Node14&#45;&gt;Node13 -->
<g id="edge19" class="edge">
<title>Node14&#45;&gt;Node13</title>
<path fill="none" stroke="midnightblue" d="M157.63,-13.71C176.19,-18.77 210.32,-28.07 238.36,-35.7"/>
<polygon fill="midnightblue" stroke="midnightblue" points="237.81,-39.18 248.38,-38.43 239.65,-32.43 237.81,-39.18"/>
</g>
</g>
</svg>
