<?xml version="1.0" encoding="UTF-8" standalone="no"?>
<!DOCTYPE svg PUBLIC "-//W3C//DTD SVG 1.1//EN"
 "http://www.w3.org/Graphics/SVG/1.1/DTD/svg11.dtd">
<!-- Generated by graphviz version 2.43.0 (0)
 -->
<!-- Title: ring_iter Pages: 1 -->
<svg width="626pt" height="148pt"
 viewBox="0.00 0.00 626.00 147.50" xmlns="http://www.w3.org/2000/svg" xmlns:xlink="http://www.w3.org/1999/xlink">
<g id="graph0" class="graph" transform="scale(1 1) rotate(0) translate(4 143.5)">
<title>ring_iter</title>
<polygon fill="white" stroke="transparent" points="-4,4 -4,-143.5 622,-143.5 622,4 -4,4"/>
<!-- Node1 -->
<g id="node1" class="node">
<title>Node1</title>
<g id="a_node1"><a xlink:title="Get iterators in the circular buffer.">
<polygon fill="#bfbfbf" stroke="black" points="561,-57.5 561,-76.5 618,-76.5 618,-57.5 561,-57.5"/>
<text text-anchor="middle" x="589.5" y="-64.5" font-family="Helvetica,sans-Serif" font-size="10.00">ring_iter</text>
</a>
</g>
</g>
<!-- Node2 -->
<g id="node2" class="node">
<title>Node2</title>
<g id="a_node2"><a xlink:href="namespacequala.html#adfa7dfa28551cd76de954d1e5e58385c" target="_top" xlink:title="Solve one step of Anderson acceleration to find a fixed point of a function g(x):">
<polygon fill="white" stroke="black" points="158,-109 158,-139 292,-139 292,-109 158,-109"/>
<text text-anchor="start" x="166" y="-127" font-family="Helvetica,sans-Serif" font-size="10.00">quala::minimize_update</text>
<text text-anchor="middle" x="225" y="-116" font-family="Helvetica,sans-Serif" font-size="10.00">_anderson</text>
</a>
</g>
</g>
<!-- Node1&#45;&gt;Node2 -->
<g id="edge1" class="edge">
<title>Node1&#45;&gt;Node2</title>
<path fill="none" stroke="midnightblue" d="M567.94,-82.75C556.06,-90.93 540.45,-100.2 525,-105 447.64,-129.05 353.74,-130.87 292.05,-128.6"/>
<polygon fill="midnightblue" stroke="midnightblue" points="570.15,-85.47 576.23,-76.79 566.07,-79.78 570.15,-85.47"/>
</g>
<!-- Node4 -->
<g id="node4" class="node">
<title>Node4</title>
<g id="a_node4"><a xlink:href="classquala_1_1LimitedMemoryQR.html#ae8160acf26958eb65aa5c0743dd2826d" target="_top" xlink:title="Get reverse iterators in the circular buffer.">
<polygon fill="white" stroke="black" points="426,-76.5 426,-95.5 525,-95.5 525,-76.5 426,-76.5"/>
<text text-anchor="middle" x="475.5" y="-83.5" font-family="Helvetica,sans-Serif" font-size="10.00">ring_reverse_iter</text>
</a>
</g>
</g>
<!-- Node1&#45;&gt;Node4 -->
<g id="edge3" class="edge">
<title>Node1&#45;&gt;Node4</title>
<path fill="none" stroke="midnightblue" d="M550.8,-73.4C542.6,-74.79 533.8,-76.28 525.24,-77.73"/>
<polygon fill="midnightblue" stroke="midnightblue" points="551.54,-76.82 560.81,-71.7 550.37,-69.92 551.54,-76.82"/>
</g>
<!-- Node5 -->
<g id="node5" class="node">
<title>Node5</title>
<g id="a_node5"><a xlink:href="classquala_1_1LimitedMemoryQR.html#a7a60dfe0a5f68bc1efec69e406a2b619" target="_top" xlink:title="Solve the least squares problem Ax = b.">
<polygon fill="white" stroke="black" points="328,-73.5 328,-92.5 390,-92.5 390,-73.5 328,-73.5"/>
<text text-anchor="middle" x="359" y="-80.5" font-family="Helvetica,sans-Serif" font-size="10.00">solve_col</text>
</a>
</g>
</g>
<!-- Node1&#45;&gt;Node5 -->
<g id="edge9" class="edge">
<title>Node1&#45;&gt;Node5</title>
<path fill="none" stroke="midnightblue" d="M550.65,-64.47C517.62,-62.86 468.47,-61.93 426,-67 414.18,-68.41 401.41,-71.2 390.28,-74.06"/>
<polygon fill="midnightblue" stroke="midnightblue" points="550.61,-67.97 560.78,-65.01 550.98,-60.98 550.61,-67.97"/>
</g>
<!-- Node8 -->
<g id="node8" class="node">
<title>Node8</title>
<g id="a_node8"><a xlink:href="classquala_1_1LimitedMemoryQR.html#adf11f99cb8b119423c86498dbaab9820" target="_top" xlink:title="Multiply the matrix R by a scalar.">
<polygon fill="white" stroke="black" points="448.5,-0.5 448.5,-19.5 502.5,-19.5 502.5,-0.5 448.5,-0.5"/>
<text text-anchor="middle" x="475.5" y="-7.5" font-family="Helvetica,sans-Serif" font-size="10.00">scale_R</text>
</a>
</g>
</g>
<!-- Node1&#45;&gt;Node8 -->
<g id="edge8" class="edge">
<title>Node1&#45;&gt;Node8</title>
<path fill="none" stroke="midnightblue" d="M561.31,-52.72C550.09,-46.87 536.95,-40.06 525,-34 515.62,-29.24 505.16,-24.05 496.37,-19.72"/>
<polygon fill="midnightblue" stroke="midnightblue" points="559.73,-55.84 570.21,-57.37 562.97,-49.64 559.73,-55.84"/>
</g>
<!-- Node3 -->
<g id="node3" class="node">
<title>Node3</title>
<g id="a_node3"><a xlink:href="classquala_1_1AndersonAccel.html#a7cbecaa52700158ebe36c0d587791ed4" target="_top" xlink:title="Compute the accelerated iterate , given the function value at the current iterate &#160;and the correspond...">
<polygon fill="white" stroke="black" points="0,-109 0,-139 122,-139 122,-109 0,-109"/>
<text text-anchor="start" x="8" y="-127" font-family="Helvetica,sans-Serif" font-size="10.00">quala::AndersonAccel</text>
<text text-anchor="middle" x="61" y="-116" font-family="Helvetica,sans-Serif" font-size="10.00">::compute</text>
</a>
</g>
</g>
<!-- Node2&#45;&gt;Node3 -->
<g id="edge2" class="edge">
<title>Node2&#45;&gt;Node3</title>
<path fill="none" stroke="midnightblue" d="M147.61,-124C139.02,-124 130.36,-124 122.01,-124"/>
<polygon fill="midnightblue" stroke="midnightblue" points="147.64,-127.5 157.64,-124 147.64,-120.5 147.64,-127.5"/>
</g>
<!-- Node4&#45;&gt;Node5 -->
<g id="edge4" class="edge">
<title>Node4&#45;&gt;Node5</title>
<path fill="none" stroke="midnightblue" d="M415.87,-84.46C406.92,-84.23 398.02,-84 390.04,-83.79"/>
<polygon fill="midnightblue" stroke="midnightblue" points="415.85,-87.96 425.94,-84.73 416.04,-80.97 415.85,-87.96"/>
</g>
<!-- Node5&#45;&gt;Node2 -->
<g id="edge5" class="edge">
<title>Node5&#45;&gt;Node2</title>
<path fill="none" stroke="midnightblue" d="M318.08,-95.4C304.36,-99.66 288.84,-104.48 274.51,-108.93"/>
<polygon fill="midnightblue" stroke="midnightblue" points="319.2,-98.72 327.72,-92.41 317.13,-92.03 319.2,-98.72"/>
</g>
<!-- Node6 -->
<g id="node6" class="node">
<title>Node6</title>
<g id="a_node6"><a xlink:href="classquala_1_1LimitedMemoryQR.html#a9ec3e86c6cbb239ba0642378b564af41" target="_top" xlink:title="Solve the least squares problem AX = B.">
<polygon fill="white" stroke="black" points="203.5,-70.5 203.5,-89.5 246.5,-89.5 246.5,-70.5 203.5,-70.5"/>
<text text-anchor="middle" x="225" y="-77.5" font-family="Helvetica,sans-Serif" font-size="10.00">solve</text>
</a>
</g>
</g>
<!-- Node5&#45;&gt;Node6 -->
<g id="edge6" class="edge">
<title>Node5&#45;&gt;Node6</title>
<path fill="none" stroke="midnightblue" d="M317.69,-82.08C294.23,-81.55 265.65,-80.9 246.69,-80.47"/>
<polygon fill="midnightblue" stroke="midnightblue" points="317.64,-85.58 327.72,-82.31 317.8,-78.59 317.64,-85.58"/>
</g>
<!-- Node7 -->
<g id="node7" class="node">
<title>Node7</title>
<g id="a_node7"><a xlink:href="classquala_1_1LimitedMemoryQR.html#a5f3732971788e558366a2b509a538206" target="_top" xlink:title="Solve the least squares problem AX = B.">
<polygon fill="white" stroke="black" points="39.5,-70.5 39.5,-89.5 82.5,-89.5 82.5,-70.5 39.5,-70.5"/>
<text text-anchor="middle" x="61" y="-77.5" font-family="Helvetica,sans-Serif" font-size="10.00">solve</text>
</a>
</g>
</g>
<!-- Node6&#45;&gt;Node7 -->
<g id="edge7" class="edge">
<title>Node6&#45;&gt;Node7</title>
<path fill="none" stroke="midnightblue" d="M193.22,-80C160.77,-80 110.57,-80 82.61,-80"/>
<polygon fill="midnightblue" stroke="midnightblue" points="193.48,-83.5 203.48,-80 193.48,-76.5 193.48,-83.5"/>
</g>
</g>
</svg>
