<?xml version="1.0" encoding="UTF-8" standalone="no"?>
<!DOCTYPE svg PUBLIC "-//W3C//DTD SVG 1.1//EN"
 "http://www.w3.org/Graphics/SVG/1.1/DTD/svg11.dtd">
<!-- Generated by graphviz version 2.43.0 (0)
 -->
<!-- Title: end Pages: 1 -->
<svg width="351pt" height="39pt"
 viewBox="0.00 0.00 351.00 39.00" xmlns="http://www.w3.org/2000/svg" xmlns:xlink="http://www.w3.org/1999/xlink">
<g id="graph0" class="graph" transform="scale(1 1) rotate(0) translate(4 35)">
<title>end</title>
<polygon fill="white" stroke="transparent" points="-4,4 -4,-35 347,-35 347,4 -4,4"/>
<!-- Node1 -->
<g id="node1" class="node">
<title>Node1</title>
<g id="a_node1"><a xlink:title=" ">
<polygon fill="#bfbfbf" stroke="black" points="0,-6 0,-25 35,-25 35,-6 0,-6"/>
<text text-anchor="middle" x="17.5" y="-13" font-family="Helvetica,sans-Serif" font-size="10.00">end</text>
</a>
</g>
</g>
<!-- Node2 -->
<g id="node2" class="node">
<title>Node2</title>
<g id="a_node2"><a xlink:href="classquala_1_1CircularRange.html#ab3fe1cdacc9a53cc2d0cbe27599036c4" target="_top" xlink:title=" ">
<polygon fill="white" stroke="black" points="71,-0.5 71,-30.5 189,-30.5 189,-0.5 71,-0.5"/>
<text text-anchor="start" x="79" y="-18.5" font-family="Helvetica,sans-Serif" font-size="10.00">quala::CircularRange</text>
<text text-anchor="middle" x="130" y="-7.5" font-family="Helvetica,sans-Serif" font-size="10.00">::rend</text>
</a>
</g>
</g>
<!-- Node1&#45;&gt;Node2 -->
<g id="edge1" class="edge">
<title>Node1&#45;&gt;Node2</title>
<path fill="none" stroke="midnightblue" d="M35.28,-15.5C42.38,-15.5 51.15,-15.5 60.46,-15.5"/>
<polygon fill="midnightblue" stroke="midnightblue" points="60.72,-19 70.72,-15.5 60.72,-12 60.72,-19"/>
</g>
<!-- Node3 -->
<g id="node3" class="node">
<title>Node3</title>
<g id="a_node3"><a xlink:href="classquala_1_1CircularRange.html#a0c62c15c8ed609e7e5e9518cf5f5c712" target="_top" xlink:title=" ">
<polygon fill="white" stroke="black" points="225,-0.5 225,-30.5 343,-30.5 343,-0.5 225,-0.5"/>
<text text-anchor="start" x="233" y="-18.5" font-family="Helvetica,sans-Serif" font-size="10.00">quala::CircularRange</text>
<text text-anchor="middle" x="284" y="-7.5" font-family="Helvetica,sans-Serif" font-size="10.00">::begin</text>
</a>
</g>
</g>
<!-- Node2&#45;&gt;Node3 -->
<g id="edge2" class="edge">
<title>Node2&#45;&gt;Node3</title>
<path fill="none" stroke="midnightblue" d="M189.33,-15.5C197.61,-15.5 206.17,-15.5 214.62,-15.5"/>
<polygon fill="midnightblue" stroke="midnightblue" points="214.82,-19 224.82,-15.5 214.82,-12 214.82,-19"/>
</g>
</g>
</svg>
