<?xml version="1.0" encoding="UTF-8" standalone="no"?>
<!DOCTYPE svg PUBLIC "-//W3C//DTD SVG 1.1//EN"
 "http://www.w3.org/Graphics/SVG/1.1/DTD/svg11.dtd">
<!-- Generated by graphviz version 2.43.0 (0)
 -->
<!-- Title: n Pages: 1 -->
<svg width="523pt" height="142pt"
 viewBox="0.00 0.00 523.00 142.00" xmlns="http://www.w3.org/2000/svg" xmlns:xlink="http://www.w3.org/1999/xlink">
<g id="graph0" class="graph" transform="scale(1 1) rotate(0) translate(4 138)">
<title>n</title>
<polygon fill="white" stroke="transparent" points="-4,4 -4,-138 519,-138 519,4 -4,4"/>
<!-- Node1 -->
<g id="node1" class="node">
<title>Node1</title>
<g id="a_node1"><a xlink:title=" ">
<polygon fill="#bfbfbf" stroke="black" points="486,-57.5 486,-76.5 515,-76.5 515,-57.5 486,-57.5"/>
<text text-anchor="middle" x="500.5" y="-64.5" font-family="Helvetica,sans-Serif" font-size="10.00">n</text>
</a>
</g>
</g>
<!-- Node2 -->
<g id="node2" class="node">
<title>Node2</title>
<g id="a_node2"><a xlink:href="classquala_1_1LimitedMemoryQR.html#a32367fb2ecbdf71d6071bddc4dc3ce5d" target="_top" xlink:title="Get the matrix Q such that Q times R is the original matrix.">
<polygon fill="white" stroke="black" points="360.5,-114.5 360.5,-133.5 405.5,-133.5 405.5,-114.5 360.5,-114.5"/>
<text text-anchor="middle" x="383" y="-121.5" font-family="Helvetica,sans-Serif" font-size="10.00">get_Q</text>
</a>
</g>
</g>
<!-- Node1&#45;&gt;Node2 -->
<g id="edge1" class="edge">
<title>Node1&#45;&gt;Node2</title>
<path fill="none" stroke="midnightblue" d="M481.51,-83.45C472.57,-90.9 461.29,-99.3 450,-105 435.95,-112.09 418.84,-116.92 405.56,-119.94"/>
<polygon fill="midnightblue" stroke="midnightblue" points="484.02,-85.9 489.28,-76.71 479.43,-80.61 484.02,-85.9"/>
</g>
<!-- Node3 -->
<g id="node3" class="node">
<title>Node3</title>
<g id="a_node3"><a xlink:href="classquala_1_1AndersonAccel.html#a727afc7a58d2e44ae7add57e3fa77bc6" target="_top" xlink:title="Get the problem dimension.">
<polygon fill="white" stroke="black" points="316,-76.5 316,-95.5 450,-95.5 450,-76.5 316,-76.5"/>
<text text-anchor="middle" x="383" y="-83.5" font-family="Helvetica,sans-Serif" font-size="10.00">quala::AndersonAccel::n</text>
</a>
</g>
</g>
<!-- Node1&#45;&gt;Node3 -->
<g id="edge2" class="edge">
<title>Node1&#45;&gt;Node3</title>
<path fill="none" stroke="midnightblue" d="M475.65,-70.92C465.8,-72.54 453.91,-74.5 442,-76.46"/>
<polygon fill="midnightblue" stroke="midnightblue" points="476.5,-74.33 485.8,-69.25 475.36,-67.42 476.5,-74.33"/>
</g>
<!-- Node8 -->
<g id="node8" class="node">
<title>Node8</title>
<g id="a_node8"><a xlink:href="classquala_1_1LimitedMemoryQR.html#ad15543203799d1dccb5a5e1c572e3f02" target="_top" xlink:title="Re&#45;allocate storage for a problem with a different size.">
<polygon fill="white" stroke="black" points="360,-38.5 360,-57.5 406,-57.5 406,-38.5 360,-38.5"/>
<text text-anchor="middle" x="383" y="-45.5" font-family="Helvetica,sans-Serif" font-size="10.00">resize</text>
</a>
</g>
</g>
<!-- Node1&#45;&gt;Node8 -->
<g id="edge8" class="edge">
<title>Node1&#45;&gt;Node8</title>
<path fill="none" stroke="midnightblue" d="M475.78,-63.1C455.44,-59.75 426.35,-54.97 406.4,-51.68"/>
<polygon fill="midnightblue" stroke="midnightblue" points="475.36,-66.58 485.8,-64.75 476.5,-59.67 475.36,-66.58"/>
</g>
<!-- Node9 -->
<g id="node9" class="node">
<title>Node9</title>
<g id="a_node9"><a xlink:href="classquala_1_1LimitedMemoryQR.html#a00483d13e65f3ad72dd440a5d4e7a03e" target="_top" xlink:title=" ">
<polygon fill="white" stroke="black" points="365,-0.5 365,-19.5 401,-19.5 401,-0.5 365,-0.5"/>
<text text-anchor="middle" x="383" y="-7.5" font-family="Helvetica,sans-Serif" font-size="10.00">size</text>
</a>
</g>
</g>
<!-- Node1&#45;&gt;Node9 -->
<g id="edge10" class="edge">
<title>Node1&#45;&gt;Node9</title>
<path fill="none" stroke="midnightblue" d="M481.51,-50.55C472.57,-43.1 461.29,-34.7 450,-29 434.35,-21.1 414.91,-16.01 401.2,-13.1"/>
<polygon fill="midnightblue" stroke="midnightblue" points="479.43,-53.39 489.28,-57.29 484.02,-48.1 479.43,-53.39"/>
</g>
<!-- Node4 -->
<g id="node4" class="node">
<title>Node4</title>
<g id="a_node4"><a xlink:href="classquala_1_1AndersonAccel.html#a1fcb04cfb2b1398b54d8242cc3b0fb34" target="_top" xlink:title=" ">
<polygon fill="white" stroke="black" points="0,-96 0,-126 122,-126 122,-96 0,-96"/>
<text text-anchor="start" x="8" y="-114" font-family="Helvetica,sans-Serif" font-size="10.00">quala::AndersonAccel</text>
<text text-anchor="middle" x="61" y="-103" font-family="Helvetica,sans-Serif" font-size="10.00">::AndersonAccel</text>
</a>
</g>
</g>
<!-- Node3&#45;&gt;Node4 -->
<g id="edge3" class="edge">
<title>Node3&#45;&gt;Node4</title>
<path fill="none" stroke="midnightblue" d="M337.86,-98.43C330.54,-100.57 323.05,-102.81 316,-105 299.89,-110 296.65,-114.3 280,-117 226.48,-125.69 212.2,-118.69 158,-117 146.4,-116.64 134.02,-116.03 122.15,-115.34"/>
<polygon fill="midnightblue" stroke="midnightblue" points="339.03,-101.74 347.66,-95.59 337.09,-95.01 339.03,-101.74"/>
</g>
<!-- Node5 -->
<g id="node5" class="node">
<title>Node5</title>
<g id="a_node5"><a xlink:href="classquala_1_1AndersonAccel.html#ab55e2bb8c6d8912c0d55ff4dc2b3b4a2" target="_top" xlink:title="Call this function on the first iteration to initialize the accelerator.">
<polygon fill="white" stroke="black" points="158,-77 158,-107 280,-107 280,-77 158,-77"/>
<text text-anchor="start" x="166" y="-95" font-family="Helvetica,sans-Serif" font-size="10.00">quala::AndersonAccel</text>
<text text-anchor="middle" x="219" y="-84" font-family="Helvetica,sans-Serif" font-size="10.00">::initialize</text>
</a>
</g>
</g>
<!-- Node3&#45;&gt;Node5 -->
<g id="edge4" class="edge">
<title>Node3&#45;&gt;Node5</title>
<path fill="none" stroke="midnightblue" d="M305.61,-88.83C297.02,-89.15 288.36,-89.47 280.01,-89.78"/>
<polygon fill="midnightblue" stroke="midnightblue" points="305.78,-92.33 315.64,-88.46 305.52,-85.33 305.78,-92.33"/>
</g>
<!-- Node6 -->
<g id="node6" class="node">
<title>Node6</title>
<g id="a_node6"><a xlink:href="classquala_1_1AndersonAccel.html#abfe51417fbebd259808f86d27f1d7ec5" target="_top" xlink:title="Change the problem dimension.">
<polygon fill="white" stroke="black" points="158,-28 158,-58 280,-58 280,-28 158,-28"/>
<text text-anchor="start" x="166" y="-46" font-family="Helvetica,sans-Serif" font-size="10.00">quala::AndersonAccel</text>
<text text-anchor="middle" x="219" y="-35" font-family="Helvetica,sans-Serif" font-size="10.00">::resize</text>
</a>
</g>
</g>
<!-- Node3&#45;&gt;Node6 -->
<g id="edge5" class="edge">
<title>Node3&#45;&gt;Node6</title>
<path fill="none" stroke="midnightblue" d="M336.36,-73.88C317.78,-68.95 296.1,-63.2 276.54,-58.01"/>
<polygon fill="midnightblue" stroke="midnightblue" points="335.48,-77.27 346.05,-76.46 337.28,-70.51 335.48,-77.27"/>
</g>
<!-- Node6&#45;&gt;Node4 -->
<g id="edge6" class="edge">
<title>Node6&#45;&gt;Node4</title>
<path fill="none" stroke="midnightblue" d="M170,-61.96C165.93,-63.64 161.89,-65.33 158,-67 136.43,-76.25 112.43,-87.25 93.82,-95.94"/>
<polygon fill="midnightblue" stroke="midnightblue" points="171.54,-65.11 179.47,-58.08 168.89,-58.63 171.54,-65.11"/>
</g>
<!-- Node7 -->
<g id="node7" class="node">
<title>Node7</title>
<g id="a_node7"><a xlink:href="quala_8cpp.html#a12fb4e87da488d1fc7c6fa3e6a3adb90" target="_top" xlink:title=" ">
<polygon fill="white" stroke="black" points="4.5,-33.5 4.5,-52.5 117.5,-52.5 117.5,-33.5 4.5,-33.5"/>
<text text-anchor="middle" x="61" y="-40.5" font-family="Helvetica,sans-Serif" font-size="10.00">PYBIND11_MODULE</text>
</a>
</g>
</g>
<!-- Node6&#45;&gt;Node7 -->
<g id="edge7" class="edge">
<title>Node6&#45;&gt;Node7</title>
<path fill="none" stroke="midnightblue" d="M147.68,-43C137.58,-43 127.31,-43 117.56,-43"/>
<polygon fill="midnightblue" stroke="midnightblue" points="147.69,-46.5 157.69,-43 147.69,-39.5 147.69,-46.5"/>
</g>
<!-- Node8&#45;&gt;Node6 -->
<g id="edge9" class="edge">
<title>Node8&#45;&gt;Node6</title>
<path fill="none" stroke="midnightblue" d="M349.76,-47.01C329.91,-46.39 303.82,-45.59 280.25,-44.86"/>
<polygon fill="midnightblue" stroke="midnightblue" points="349.71,-50.5 359.81,-47.32 349.93,-43.51 349.71,-50.5"/>
</g>
</g>
</svg>
