<?xml version="1.0" encoding="UTF-8" standalone="no"?>
<!DOCTYPE svg PUBLIC "-//W3C//DTD SVG 1.1//EN"
 "http://www.w3.org/Graphics/SVG/1.1/DTD/svg11.dtd">
<!-- Generated by graphviz version 2.43.0 (0)
 -->
<!-- Title: free Pages: 1 -->
<svg width="200pt" height="88pt"
 viewBox="0.00 0.00 200.00 88.00" xmlns="http://www.w3.org/2000/svg" xmlns:xlink="http://www.w3.org/1999/xlink">
<g id="graph0" class="graph" transform="scale(1 1) rotate(0) translate(4 84)">
<title>free</title>
<polygon fill="white" stroke="transparent" points="-4,4 -4,-84 196,-84 196,4 -4,4"/>
<!-- Node1 -->
<g id="node1" class="node">
<title>Node1</title>
<g id="a_node1"><a xlink:title=" ">
<polygon fill="#bfbfbf" stroke="black" points="156,-24.5 156,-43.5 192,-43.5 192,-24.5 156,-24.5"/>
<text text-anchor="middle" x="174" y="-31.5" font-family="Helvetica,sans-Serif" font-size="10.00">free</text>
</a>
</g>
</g>
<!-- Node2 -->
<g id="node2" class="node">
<title>Node2</title>
<g id="a_node2"><a xlink:href="structquala_1_1vec__allocator_1_1alloc__raii__wrapper.html#a18452e09f909587d1d3c035ca0d82095" target="_top" xlink:title=" ">
<polygon fill="white" stroke="black" points="0,-38.5 0,-79.5 120,-79.5 120,-38.5 0,-38.5"/>
<text text-anchor="start" x="8" y="-67.5" font-family="Helvetica,sans-Serif" font-size="10.00">quala::vec_allocator</text>
<text text-anchor="start" x="8" y="-56.5" font-family="Helvetica,sans-Serif" font-size="10.00">::alloc_raii_wrapper</text>
<text text-anchor="middle" x="60" y="-45.5" font-family="Helvetica,sans-Serif" font-size="10.00">::~alloc_raii_wrapper</text>
</a>
</g>
</g>
<!-- Node1&#45;&gt;Node2 -->
<g id="edge1" class="edge">
<title>Node1&#45;&gt;Node2</title>
<path fill="none" stroke="midnightblue" d="M145.97,-40.03C138.08,-41.79 129.13,-43.79 120.07,-45.81"/>
<polygon fill="midnightblue" stroke="midnightblue" points="146.99,-43.39 155.99,-37.8 145.47,-36.56 146.99,-43.39"/>
</g>
<!-- Node3 -->
<g id="node3" class="node">
<title>Node3</title>
<g id="a_node3"><a xlink:href="classquala_1_1vec__allocator.html#a821eae82738cb75c706967da497d3181" target="_top" xlink:title=" ">
<polygon fill="white" stroke="black" points="42,-0.5 42,-19.5 78,-19.5 78,-0.5 42,-0.5"/>
<text text-anchor="middle" x="60" y="-7.5" font-family="Helvetica,sans-Serif" font-size="10.00">free</text>
</a>
</g>
</g>
<!-- Node1&#45;&gt;Node3 -->
<g id="edge2" class="edge">
<title>Node1&#45;&gt;Node3</title>
<path fill="none" stroke="midnightblue" d="M146.04,-28.22C124.94,-23.7 96.24,-17.55 78.17,-13.68"/>
<polygon fill="midnightblue" stroke="midnightblue" points="145.48,-31.68 155.99,-30.35 146.94,-24.84 145.48,-31.68"/>
</g>
</g>
</svg>
