<?xml version="1.0" encoding="UTF-8" standalone="no"?>
<!DOCTYPE svg PUBLIC "-//W3C//DTD SVG 1.1//EN"
 "http://www.w3.org/Graphics/SVG/1.1/DTD/svg11.dtd">
<!-- Generated by graphviz version 2.43.0 (0)
 -->
<!-- Title: update_sy Pages: 1 -->
<svg width="526pt" height="250pt"
 viewBox="0.00 0.00 526.00 249.50" xmlns="http://www.w3.org/2000/svg" xmlns:xlink="http://www.w3.org/1999/xlink">
<g id="graph0" class="graph" transform="scale(1 1) rotate(0) translate(4 245.5)">
<title>update_sy</title>
<polygon fill="white" stroke="transparent" points="-4,4 -4,-245.5 522,-245.5 522,4 -4,4"/>
<!-- Node1 -->
<g id="node1" class="node">
<title>Node1</title>
<g id="a_node1"><a xlink:title="Update the inverse Jacobian approximation using the new vectors sₖ = xₖ₊₁ &#45; xₖ and yₖ = pₖ₊₁ &#45; pₖ.">
<polygon fill="#bfbfbf" stroke="black" points="0,-108 0,-127 67,-127 67,-108 0,-108"/>
<text text-anchor="middle" x="33.5" y="-115" font-family="Helvetica,sans-Serif" font-size="10.00">update_sy</text>
</a>
</g>
</g>
<!-- Node2 -->
<g id="node2" class="node">
<title>Node2</title>
<g id="a_node2"><a xlink:href="classquala_1_1BroydenGood.html#aa871b5290773b86e2e4919bbac258a04" target="_top" xlink:title="Iterate over the indices in the history buffer, oldest first.">
<polygon fill="white" stroke="black" points="103,-222 103,-241 179,-241 179,-222 103,-222"/>
<text text-anchor="middle" x="141" y="-229" font-family="Helvetica,sans-Serif" font-size="10.00">foreach_fwd</text>
</a>
</g>
</g>
<!-- Node1&#45;&gt;Node2 -->
<g id="edge1" class="edge">
<title>Node1&#45;&gt;Node2</title>
<path fill="none" stroke="midnightblue" d="M39.5,-127.28C49.42,-145.91 73.25,-186.91 103,-212.5 104.69,-213.95 106.51,-215.33 108.41,-216.63"/>
<polygon fill="midnightblue" stroke="midnightblue" points="106.65,-219.66 117.02,-221.84 110.27,-213.67 106.65,-219.66"/>
</g>
<!-- Node5 -->
<g id="node5" class="node">
<title>Node5</title>
<g id="a_node5"><a xlink:href="structquala_1_1BroydenStorage.html#a15e4a3db39457cabe764a7737d24e73f" target="_top" xlink:title=" ">
<polygon fill="white" stroke="black" points="215,-112 215,-131 354,-131 354,-112 215,-112"/>
<text text-anchor="middle" x="284.5" y="-119" font-family="Helvetica,sans-Serif" font-size="10.00">quala::BroydenStorage::s</text>
</a>
</g>
</g>
<!-- Node1&#45;&gt;Node5 -->
<g id="edge4" class="edge">
<title>Node1&#45;&gt;Node5</title>
<path fill="none" stroke="midnightblue" d="M62.14,-127C74.48,-130.77 89.3,-134.64 103,-136.5 143.98,-142.08 190.49,-137.97 226.04,-132.65"/>
<polygon fill="midnightblue" stroke="midnightblue" points="226.89,-136.06 236.23,-131.05 225.8,-129.14 226.89,-136.06"/>
</g>
<!-- Node6 -->
<g id="node6" class="node">
<title>Node6</title>
<g id="a_node6"><a xlink:href="classquala_1_1BroydenGood.html#a15e4a3db39457cabe764a7737d24e73f" target="_top" xlink:title=" ">
<polygon fill="white" stroke="black" points="126.5,-108 126.5,-127 155.5,-127 155.5,-108 126.5,-108"/>
<text text-anchor="middle" x="141" y="-115" font-family="Helvetica,sans-Serif" font-size="10.00">s</text>
</a>
</g>
</g>
<!-- Node1&#45;&gt;Node6 -->
<g id="edge5" class="edge">
<title>Node1&#45;&gt;Node6</title>
<path fill="none" stroke="midnightblue" d="M67.01,-117.5C82.94,-117.5 101.76,-117.5 116.3,-117.5"/>
<polygon fill="midnightblue" stroke="midnightblue" points="116.46,-121 126.46,-117.5 116.46,-114 116.46,-121"/>
</g>
<!-- Node7 -->
<g id="node7" class="node">
<title>Node7</title>
<g id="a_node7"><a xlink:href="classquala_1_1BroydenGood.html#a70926baed7362e4fcce66523bb8e2842" target="_top" xlink:title="Get the next index in the circular buffer of previous s and y vectors.">
<polygon fill="white" stroke="black" points="122,-184 122,-203 160,-203 160,-184 122,-184"/>
<text text-anchor="middle" x="141" y="-191" font-family="Helvetica,sans-Serif" font-size="10.00">succ</text>
</a>
</g>
</g>
<!-- Node1&#45;&gt;Node7 -->
<g id="edge7" class="edge">
<title>Node1&#45;&gt;Node7</title>
<path fill="none" stroke="midnightblue" d="M46.92,-127.37C60.49,-138.04 82.96,-155.42 103,-169.5 107.17,-172.43 111.66,-175.45 116.04,-178.33"/>
<polygon fill="midnightblue" stroke="midnightblue" points="114.41,-181.44 124.71,-183.94 118.22,-175.57 114.41,-181.44"/>
</g>
<!-- Node8 -->
<g id="node8" class="node">
<title>Node8</title>
<g id="a_node8"><a xlink:href="structquala_1_1BroydenStorage.html#a9f073bfaf44b883546d7483e3d16b149" target="_top" xlink:title=" ">
<polygon fill="white" stroke="black" points="215,-66 215,-85 354,-85 354,-66 215,-66"/>
<text text-anchor="middle" x="284.5" y="-73" font-family="Helvetica,sans-Serif" font-size="10.00">quala::BroydenStorage::s̃</text>
</a>
</g>
</g>
<!-- Node1&#45;&gt;Node8 -->
<g id="edge9" class="edge">
<title>Node1&#45;&gt;Node8</title>
<path fill="none" stroke="midnightblue" d="M65.3,-107.94C77.02,-104.57 90.54,-101.01 103,-98.5 136.11,-91.83 173.06,-86.72 204.85,-83.03"/>
<polygon fill="midnightblue" stroke="midnightblue" points="205.44,-86.49 214.98,-81.88 204.65,-79.53 205.44,-86.49"/>
</g>
<!-- Node9 -->
<g id="node9" class="node">
<title>Node9</title>
<g id="a_node9"><a xlink:href="classquala_1_1BroydenGood.html#a9f073bfaf44b883546d7483e3d16b149" target="_top" xlink:title=" ">
<polygon fill="white" stroke="black" points="126.5,-32 126.5,-51 155.5,-51 155.5,-32 126.5,-32"/>
<text text-anchor="middle" x="141" y="-39" font-family="Helvetica,sans-Serif" font-size="10.00">s̃</text>
</a>
</g>
</g>
<!-- Node1&#45;&gt;Node9 -->
<g id="edge10" class="edge">
<title>Node1&#45;&gt;Node9</title>
<path fill="none" stroke="midnightblue" d="M46.92,-107.63C60.49,-96.96 82.96,-79.58 103,-65.5 107.78,-62.14 112.99,-58.66 117.96,-55.42"/>
<polygon fill="midnightblue" stroke="midnightblue" points="119.97,-58.29 126.48,-49.93 116.18,-52.4 119.97,-58.29"/>
</g>
<!-- Node10 -->
<g id="node10" class="node">
<title>Node10</title>
<g id="a_node10"><a xlink:href="structquala_1_1BroydenStorage.html#a1f39e0321f095347878b8e231abaa2bb" target="_top" xlink:title=" ">
<polygon fill="white" stroke="black" points="220.5,-0.5 220.5,-30.5 348.5,-30.5 348.5,-0.5 220.5,-0.5"/>
<text text-anchor="start" x="228.5" y="-18.5" font-family="Helvetica,sans-Serif" font-size="10.00">quala::BroydenStorage</text>
<text text-anchor="middle" x="284.5" y="-7.5" font-family="Helvetica,sans-Serif" font-size="10.00">::work</text>
</a>
</g>
</g>
<!-- Node1&#45;&gt;Node10 -->
<g id="edge12" class="edge">
<title>Node1&#45;&gt;Node10</title>
<path fill="none" stroke="midnightblue" d="M38.11,-107.71C46.17,-87.49 67.7,-41.44 103,-22.5 135.32,-5.16 175.78,-2.2 210.2,-4.11"/>
<polygon fill="midnightblue" stroke="midnightblue" points="209.98,-7.6 220.2,-4.8 210.47,-0.62 209.98,-7.6"/>
</g>
<!-- Node3 -->
<g id="node3" class="node">
<title>Node3</title>
<g id="a_node3"><a xlink:href="classquala_1_1BroydenGood.html#a9cf7dcccbc3bc69a10833450ee79c623" target="_top" xlink:title="Get the number of previous vectors s and y stored in the buffer.">
<polygon fill="white" stroke="black" points="259.5,-184 259.5,-203 309.5,-203 309.5,-184 259.5,-184"/>
<text text-anchor="middle" x="284.5" y="-191" font-family="Helvetica,sans-Serif" font-size="10.00">history</text>
</a>
</g>
</g>
<!-- Node2&#45;&gt;Node3 -->
<g id="edge2" class="edge">
<title>Node2&#45;&gt;Node3</title>
<path fill="none" stroke="midnightblue" d="M177.71,-221.91C199.76,-215.99 227.89,-208.44 249.59,-202.61"/>
<polygon fill="midnightblue" stroke="midnightblue" points="250.63,-205.95 259.38,-199.98 248.81,-199.19 250.63,-205.95"/>
</g>
<!-- Node4 -->
<g id="node4" class="node">
<title>Node4</title>
<g id="a_node4"><a xlink:href="structquala_1_1BroydenStorage.html#a9cf7dcccbc3bc69a10833450ee79c623" target="_top" xlink:title="Get the number of previous vectors s and s̃ stored in the buffer.">
<polygon fill="white" stroke="black" points="390,-79.5 390,-109.5 518,-109.5 518,-79.5 390,-79.5"/>
<text text-anchor="start" x="398" y="-97.5" font-family="Helvetica,sans-Serif" font-size="10.00">quala::BroydenStorage</text>
<text text-anchor="middle" x="454" y="-86.5" font-family="Helvetica,sans-Serif" font-size="10.00">::history</text>
</a>
</g>
</g>
<!-- Node3&#45;&gt;Node4 -->
<g id="edge3" class="edge">
<title>Node3&#45;&gt;Node4</title>
<path fill="none" stroke="midnightblue" d="M301.87,-183.83C328.88,-167.86 383.36,-135.66 418.99,-114.6"/>
<polygon fill="midnightblue" stroke="midnightblue" points="420.79,-117.6 427.62,-109.5 417.23,-111.58 420.79,-117.6"/>
</g>
<!-- Node6&#45;&gt;Node5 -->
<g id="edge6" class="edge">
<title>Node6&#45;&gt;Node5</title>
<path fill="none" stroke="midnightblue" d="M155.57,-117.88C167.47,-118.22 185.81,-118.74 204.93,-119.28"/>
<polygon fill="midnightblue" stroke="midnightblue" points="204.87,-122.78 214.96,-119.56 205.06,-115.78 204.87,-122.78"/>
</g>
<!-- Node7&#45;&gt;Node3 -->
<g id="edge8" class="edge">
<title>Node7&#45;&gt;Node3</title>
<path fill="none" stroke="midnightblue" d="M160.21,-193.5C182.58,-193.5 221.01,-193.5 249.03,-193.5"/>
<polygon fill="midnightblue" stroke="midnightblue" points="249.2,-197 259.2,-193.5 249.2,-190 249.2,-197"/>
</g>
<!-- Node9&#45;&gt;Node8 -->
<g id="edge11" class="edge">
<title>Node9&#45;&gt;Node8</title>
<path fill="none" stroke="midnightblue" d="M155.57,-44.76C173.5,-49.07 206.05,-56.89 233.84,-63.57"/>
<polygon fill="midnightblue" stroke="midnightblue" points="233.28,-67.03 243.82,-65.97 234.92,-60.23 233.28,-67.03"/>
</g>
<!-- Node10&#45;&gt;Node4 -->
<g id="edge13" class="edge">
<title>Node10&#45;&gt;Node4</title>
<path fill="none" stroke="midnightblue" d="M317.4,-30.55C344.21,-43.19 382.7,-61.34 411.83,-75.08"/>
<polygon fill="midnightblue" stroke="midnightblue" points="410.4,-78.28 420.93,-79.38 413.38,-71.95 410.4,-78.28"/>
</g>
</g>
</svg>
