<?xml version="1.0" encoding="UTF-8" standalone="no"?>
<!DOCTYPE svg PUBLIC "-//W3C//DTD SVG 1.1//EN"
 "http://www.w3.org/Graphics/SVG/1.1/DTD/svg11.dtd">
<!-- Generated by graphviz version 2.43.0 (0)
 -->
<!-- Title: update Pages: 1 -->
<svg width="612pt" height="254pt"
 viewBox="0.00 0.00 612.00 253.50" xmlns="http://www.w3.org/2000/svg" xmlns:xlink="http://www.w3.org/1999/xlink">
<g id="graph0" class="graph" transform="scale(1 1) rotate(0) translate(4 249.5)">
<title>update</title>
<polygon fill="white" stroke="transparent" points="-4,4 -4,-249.5 608,-249.5 608,4 -4,4"/>
<!-- Node1 -->
<g id="node1" class="node">
<title>Node1</title>
<g id="a_node1"><a xlink:title="Update the inverse Jacobian approximation using the new vectors xₖ₊₁ and pₖ₊₁.">
<polygon fill="#bfbfbf" stroke="black" points="0,-150 0,-169 50,-169 50,-150 0,-150"/>
<text text-anchor="middle" x="25" y="-157" font-family="Helvetica,sans-Serif" font-size="10.00">update</text>
</a>
</g>
</g>
<!-- Node2 -->
<g id="node2" class="node">
<title>Node2</title>
<g id="a_node2"><a xlink:href="classquala_1_1BroydenGood.html#a15e4a3db39457cabe764a7737d24e73f" target="_top" xlink:title=" ">
<polygon fill="white" stroke="black" points="212.5,-226 212.5,-245 241.5,-245 241.5,-226 212.5,-226"/>
<text text-anchor="middle" x="227" y="-233" font-family="Helvetica,sans-Serif" font-size="10.00">s</text>
</a>
</g>
</g>
<!-- Node1&#45;&gt;Node2 -->
<g id="edge1" class="edge">
<title>Node1&#45;&gt;Node2</title>
<path fill="none" stroke="midnightblue" d="M50.12,-168.67C88.87,-183.39 164.48,-212.12 202.7,-226.65"/>
<polygon fill="midnightblue" stroke="midnightblue" points="201.83,-230.06 212.43,-230.34 204.32,-223.52 201.83,-230.06"/>
</g>
<!-- Node4 -->
<g id="node4" class="node">
<title>Node4</title>
<g id="a_node4"><a xlink:href="classquala_1_1BroydenGood.html#ad2320a49a7db3abb42d0c621a6a932bd" target="_top" xlink:title="Update the inverse Jacobian approximation using the new vectors sₖ = xₖ₊₁ &#45; xₖ and yₖ = pₖ₊₁ &#45; pₖ.">
<polygon fill="white" stroke="black" points="86,-131 86,-150 153,-150 153,-131 86,-131"/>
<text text-anchor="middle" x="119.5" y="-138" font-family="Helvetica,sans-Serif" font-size="10.00">update_sy</text>
</a>
</g>
</g>
<!-- Node1&#45;&gt;Node4 -->
<g id="edge3" class="edge">
<title>Node1&#45;&gt;Node4</title>
<path fill="none" stroke="midnightblue" d="M50.3,-154.51C58.07,-152.91 66.92,-151.09 75.61,-149.31"/>
<polygon fill="midnightblue" stroke="midnightblue" points="76.57,-152.69 85.66,-147.24 75.16,-145.83 76.57,-152.69"/>
</g>
<!-- Node3 -->
<g id="node3" class="node">
<title>Node3</title>
<g id="a_node3"><a xlink:href="structquala_1_1BroydenStorage.html#a15e4a3db39457cabe764a7737d24e73f" target="_top" xlink:title=" ">
<polygon fill="white" stroke="black" points="301,-207 301,-226 440,-226 440,-207 301,-207"/>
<text text-anchor="middle" x="370.5" y="-214" font-family="Helvetica,sans-Serif" font-size="10.00">quala::BroydenStorage::s</text>
</a>
</g>
</g>
<!-- Node2&#45;&gt;Node3 -->
<g id="edge2" class="edge">
<title>Node2&#45;&gt;Node3</title>
<path fill="none" stroke="midnightblue" d="M241.57,-233.68C253.47,-232.08 271.81,-229.62 290.93,-227.05"/>
<polygon fill="midnightblue" stroke="midnightblue" points="291.52,-230.5 300.96,-225.7 290.58,-223.57 291.52,-230.5"/>
</g>
<!-- Node4&#45;&gt;Node2 -->
<g id="edge8" class="edge">
<title>Node4&#45;&gt;Node2</title>
<path fill="none" stroke="midnightblue" d="M128.74,-150.37C141.01,-164.76 165.21,-191.89 189,-211.5 193.58,-215.27 198.78,-218.96 203.8,-222.27"/>
<polygon fill="midnightblue" stroke="midnightblue" points="202.15,-225.37 212.48,-227.75 205.89,-219.45 202.15,-225.37"/>
</g>
<!-- Node4&#45;&gt;Node3 -->
<g id="edge7" class="edge">
<title>Node4&#45;&gt;Node3</title>
<path fill="none" stroke="midnightblue" d="M134.85,-150.14C148.3,-158.76 169.25,-171.13 189,-178.5 221.35,-190.57 258.48,-199.21 290.61,-205.17"/>
<polygon fill="midnightblue" stroke="midnightblue" points="290.39,-208.69 300.86,-207.02 291.63,-201.8 290.39,-208.69"/>
</g>
<!-- Node5 -->
<g id="node5" class="node">
<title>Node5</title>
<g id="a_node5"><a xlink:href="classquala_1_1BroydenGood.html#aa871b5290773b86e2e4919bbac258a04" target="_top" xlink:title="Iterate over the indices in the history buffer, oldest first.">
<polygon fill="white" stroke="black" points="189,-150 189,-169 265,-169 265,-150 189,-150"/>
<text text-anchor="middle" x="227" y="-157" font-family="Helvetica,sans-Serif" font-size="10.00">foreach_fwd</text>
</a>
</g>
</g>
<!-- Node4&#45;&gt;Node5 -->
<g id="edge4" class="edge">
<title>Node4&#45;&gt;Node5</title>
<path fill="none" stroke="midnightblue" d="M153.01,-146.36C161.2,-147.83 170.14,-149.44 178.88,-151.01"/>
<polygon fill="midnightblue" stroke="midnightblue" points="178.52,-154.51 188.98,-152.83 179.76,-147.62 178.52,-154.51"/>
</g>
<!-- Node8 -->
<g id="node8" class="node">
<title>Node8</title>
<g id="a_node8"><a xlink:href="classquala_1_1BroydenGood.html#a70926baed7362e4fcce66523bb8e2842" target="_top" xlink:title="Get the next index in the circular buffer of previous s and y vectors.">
<polygon fill="white" stroke="black" points="208,-112 208,-131 246,-131 246,-112 208,-112"/>
<text text-anchor="middle" x="227" y="-119" font-family="Helvetica,sans-Serif" font-size="10.00">succ</text>
</a>
</g>
</g>
<!-- Node4&#45;&gt;Node8 -->
<g id="edge9" class="edge">
<title>Node4&#45;&gt;Node8</title>
<path fill="none" stroke="midnightblue" d="M153.01,-134.64C167.39,-132.06 184.13,-129.04 197.95,-126.55"/>
<polygon fill="midnightblue" stroke="midnightblue" points="198.64,-129.98 207.86,-124.77 197.4,-123.09 198.64,-129.98"/>
</g>
<!-- Node9 -->
<g id="node9" class="node">
<title>Node9</title>
<g id="a_node9"><a xlink:href="structquala_1_1BroydenStorage.html#a9f073bfaf44b883546d7483e3d16b149" target="_top" xlink:title=" ">
<polygon fill="white" stroke="black" points="301,-66 301,-85 440,-85 440,-66 301,-66"/>
<text text-anchor="middle" x="370.5" y="-73" font-family="Helvetica,sans-Serif" font-size="10.00">quala::BroydenStorage::s̃</text>
</a>
</g>
</g>
<!-- Node4&#45;&gt;Node9 -->
<g id="edge11" class="edge">
<title>Node4&#45;&gt;Node9</title>
<path fill="none" stroke="midnightblue" d="M134.24,-130.93C147.6,-122.1 168.78,-109.37 189,-102.5 221.35,-91.51 258.47,-84.99 290.61,-81.12"/>
<polygon fill="midnightblue" stroke="midnightblue" points="291.31,-84.56 300.85,-79.95 290.52,-77.61 291.31,-84.56"/>
</g>
<!-- Node10 -->
<g id="node10" class="node">
<title>Node10</title>
<g id="a_node10"><a xlink:href="classquala_1_1BroydenGood.html#a9f073bfaf44b883546d7483e3d16b149" target="_top" xlink:title=" ">
<polygon fill="white" stroke="black" points="212.5,-36 212.5,-55 241.5,-55 241.5,-36 212.5,-36"/>
<text text-anchor="middle" x="227" y="-43" font-family="Helvetica,sans-Serif" font-size="10.00">s̃</text>
</a>
</g>
</g>
<!-- Node4&#45;&gt;Node10 -->
<g id="edge12" class="edge">
<title>Node4&#45;&gt;Node10</title>
<path fill="none" stroke="midnightblue" d="M128.74,-130.63C141.01,-116.24 165.21,-89.11 189,-69.5 193.58,-65.73 198.78,-62.04 203.8,-58.73"/>
<polygon fill="midnightblue" stroke="midnightblue" points="205.89,-61.55 212.48,-53.25 202.15,-55.63 205.89,-61.55"/>
</g>
<!-- Node11 -->
<g id="node11" class="node">
<title>Node11</title>
<g id="a_node11"><a xlink:href="structquala_1_1BroydenStorage.html#a1f39e0321f095347878b8e231abaa2bb" target="_top" xlink:title=" ">
<polygon fill="white" stroke="black" points="306.5,-0.5 306.5,-30.5 434.5,-30.5 434.5,-0.5 306.5,-0.5"/>
<text text-anchor="start" x="314.5" y="-18.5" font-family="Helvetica,sans-Serif" font-size="10.00">quala::BroydenStorage</text>
<text text-anchor="middle" x="370.5" y="-7.5" font-family="Helvetica,sans-Serif" font-size="10.00">::work</text>
</a>
</g>
</g>
<!-- Node4&#45;&gt;Node11 -->
<g id="edge14" class="edge">
<title>Node4&#45;&gt;Node11</title>
<path fill="none" stroke="midnightblue" d="M122.94,-130.99C129.33,-108.25 148.93,-50.81 189,-26.5 220.64,-7.31 261.4,-3.46 296.19,-4.89"/>
<polygon fill="midnightblue" stroke="midnightblue" points="296.12,-8.39 306.3,-5.46 296.51,-1.4 296.12,-8.39"/>
</g>
<!-- Node6 -->
<g id="node6" class="node">
<title>Node6</title>
<g id="a_node6"><a xlink:href="classquala_1_1BroydenGood.html#a9cf7dcccbc3bc69a10833450ee79c623" target="_top" xlink:title="Get the number of previous vectors s and y stored in the buffer.">
<polygon fill="white" stroke="black" points="345.5,-112 345.5,-131 395.5,-131 395.5,-112 345.5,-112"/>
<text text-anchor="middle" x="370.5" y="-119" font-family="Helvetica,sans-Serif" font-size="10.00">history</text>
</a>
</g>
</g>
<!-- Node5&#45;&gt;Node6 -->
<g id="edge5" class="edge">
<title>Node5&#45;&gt;Node6</title>
<path fill="none" stroke="midnightblue" d="M263.71,-149.91C285.76,-143.99 313.89,-136.44 335.59,-130.61"/>
<polygon fill="midnightblue" stroke="midnightblue" points="336.63,-133.95 345.38,-127.98 334.81,-127.19 336.63,-133.95"/>
</g>
<!-- Node7 -->
<g id="node7" class="node">
<title>Node7</title>
<g id="a_node7"><a xlink:href="structquala_1_1BroydenStorage.html#a9cf7dcccbc3bc69a10833450ee79c623" target="_top" xlink:title="Get the number of previous vectors s and s̃ stored in the buffer.">
<polygon fill="white" stroke="black" points="476,-41.5 476,-71.5 604,-71.5 604,-41.5 476,-41.5"/>
<text text-anchor="start" x="484" y="-59.5" font-family="Helvetica,sans-Serif" font-size="10.00">quala::BroydenStorage</text>
<text text-anchor="middle" x="540" y="-48.5" font-family="Helvetica,sans-Serif" font-size="10.00">::history</text>
</a>
</g>
</g>
<!-- Node6&#45;&gt;Node7 -->
<g id="edge6" class="edge">
<title>Node6&#45;&gt;Node7</title>
<path fill="none" stroke="midnightblue" d="M395.86,-112.05C420.69,-102.41 459.87,-87.21 490.97,-75.14"/>
<polygon fill="midnightblue" stroke="midnightblue" points="492.28,-78.38 500.34,-71.5 489.75,-71.86 492.28,-78.38"/>
</g>
<!-- Node8&#45;&gt;Node6 -->
<g id="edge10" class="edge">
<title>Node8&#45;&gt;Node6</title>
<path fill="none" stroke="midnightblue" d="M246.21,-121.5C268.58,-121.5 307.01,-121.5 335.03,-121.5"/>
<polygon fill="midnightblue" stroke="midnightblue" points="335.2,-125 345.2,-121.5 335.2,-118 335.2,-125"/>
</g>
<!-- Node10&#45;&gt;Node9 -->
<g id="edge13" class="edge">
<title>Node10&#45;&gt;Node9</title>
<path fill="none" stroke="midnightblue" d="M241.57,-48.38C258.37,-51.94 288.04,-58.23 314.57,-63.85"/>
<polygon fill="midnightblue" stroke="midnightblue" points="314.05,-67.32 324.56,-65.97 315.5,-60.47 314.05,-67.32"/>
</g>
<!-- Node11&#45;&gt;Node7 -->
<g id="edge15" class="edge">
<title>Node11&#45;&gt;Node7</title>
<path fill="none" stroke="midnightblue" d="M432.92,-30.53C444.19,-33.29 456.03,-36.19 467.56,-39.01"/>
<polygon fill="midnightblue" stroke="midnightblue" points="467.04,-42.49 477.59,-41.47 468.71,-35.69 467.04,-42.49"/>
</g>
</g>
</svg>
