<?xml version="1.0" encoding="UTF-8" standalone="no"?>
<!DOCTYPE svg PUBLIC "-//W3C//DTD SVG 1.1//EN"
 "http://www.w3.org/Graphics/SVG/1.1/DTD/svg11.dtd">
<!-- Generated by graphviz version 2.43.0 (0)
 -->
<!-- Title: α Pages: 1 -->
<svg width="388pt" height="104pt"
 viewBox="0.00 0.00 388.00 104.00" xmlns="http://www.w3.org/2000/svg" xmlns:xlink="http://www.w3.org/1999/xlink">
<g id="graph0" class="graph" transform="scale(1 1) rotate(0) translate(4 100)">
<title>α</title>
<polygon fill="white" stroke="transparent" points="-4,4 -4,-100 384,-100 384,4 -4,4"/>
<!-- Node1 -->
<g id="node1" class="node">
<title>Node1</title>
<g id="a_node1"><a xlink:title=" ">
<polygon fill="#bfbfbf" stroke="black" points="351,-57.5 351,-76.5 380,-76.5 380,-57.5 351,-57.5"/>
<text text-anchor="middle" x="365.5" y="-64.5" font-family="Helvetica,sans-Serif" font-size="10.00">α</text>
</a>
</g>
</g>
<!-- Node2 -->
<g id="node2" class="node">
<title>Node2</title>
<g id="a_node2"><a xlink:href="classquala_1_1LBFGS.html#af3b5886c46c3f50fae33990afcc47f12" target="_top" xlink:title="Apply the inverse Hessian approximation to the given vector q.">
<polygon fill="white" stroke="black" points="253,-76.5 253,-95.5 297,-95.5 297,-76.5 253,-76.5"/>
<text text-anchor="middle" x="275" y="-83.5" font-family="Helvetica,sans-Serif" font-size="10.00">apply</text>
</a>
</g>
</g>
<!-- Node1&#45;&gt;Node2 -->
<g id="edge1" class="edge">
<title>Node1&#45;&gt;Node2</title>
<path fill="none" stroke="midnightblue" d="M340.66,-72.12C327.15,-75.02 310.38,-78.62 297.31,-81.42"/>
<polygon fill="midnightblue" stroke="midnightblue" points="341.63,-75.49 350.67,-69.97 340.16,-68.65 341.63,-75.49"/>
</g>
<!-- Node3 -->
<g id="node3" class="node">
<title>Node3</title>
<g id="a_node3"><a xlink:href="classquala_1_1LBFGS.html#a1109c880f1969f61532c94c19122e927" target="_top" xlink:title="Check if the new vectors s and y allow for a valid BFGS update that preserves the positive definitene...">
<polygon fill="white" stroke="black" points="235,-38.5 235,-57.5 315,-57.5 315,-38.5 235,-38.5"/>
<text text-anchor="middle" x="275" y="-45.5" font-family="Helvetica,sans-Serif" font-size="10.00">update_valid</text>
</a>
</g>
</g>
<!-- Node1&#45;&gt;Node3 -->
<g id="edge2" class="edge">
<title>Node1&#45;&gt;Node3</title>
<path fill="none" stroke="midnightblue" d="M340.8,-61.91C332.96,-60.23 324.02,-58.31 315.33,-56.44"/>
<polygon fill="midnightblue" stroke="midnightblue" points="340.16,-65.35 350.67,-64.03 341.63,-58.51 340.16,-65.35"/>
</g>
<!-- Node4 -->
<g id="node4" class="node">
<title>Node4</title>
<g id="a_node4"><a xlink:href="classquala_1_1LBFGS.html#a0e0ce3dda38d6f64657929adcf05e2c8" target="_top" xlink:title="Apply the inverse Hessian approximation to the given vector q, applying only the columns and rows of ...">
<polygon fill="white" stroke="black" points="120.5,-76.5 120.5,-95.5 164.5,-95.5 164.5,-76.5 120.5,-76.5"/>
<text text-anchor="middle" x="142.5" y="-83.5" font-family="Helvetica,sans-Serif" font-size="10.00">apply</text>
</a>
</g>
</g>
<!-- Node3&#45;&gt;Node4 -->
<g id="edge3" class="edge">
<title>Node3&#45;&gt;Node4</title>
<path fill="none" stroke="midnightblue" d="M231.43,-60.39C209.04,-66.92 182.57,-74.62 164.57,-79.87"/>
<polygon fill="midnightblue" stroke="midnightblue" points="232.45,-63.75 241.07,-57.59 230.49,-57.02 232.45,-63.75"/>
</g>
<!-- Node5 -->
<g id="node5" class="node">
<title>Node5</title>
<g id="a_node5"><a xlink:href="quala_8cpp.html#a12fb4e87da488d1fc7c6fa3e6a3adb90" target="_top" xlink:title=" ">
<polygon fill="white" stroke="black" points="86,-38.5 86,-57.5 199,-57.5 199,-38.5 86,-38.5"/>
<text text-anchor="middle" x="142.5" y="-45.5" font-family="Helvetica,sans-Serif" font-size="10.00">PYBIND11_MODULE</text>
</a>
</g>
</g>
<!-- Node3&#45;&gt;Node5 -->
<g id="edge4" class="edge">
<title>Node3&#45;&gt;Node5</title>
<path fill="none" stroke="midnightblue" d="M224.81,-48C216.39,-48 207.6,-48 199.03,-48"/>
<polygon fill="midnightblue" stroke="midnightblue" points="224.85,-51.5 234.85,-48 224.85,-44.5 224.85,-51.5"/>
</g>
<!-- Node6 -->
<g id="node6" class="node">
<title>Node6</title>
<g id="a_node6"><a xlink:href="classquala_1_1LBFGS.html#aa54be34168109d2e4995711cbd5f5ad8" target="_top" xlink:title="Update the inverse Hessian approximation using the new vectors sₖ = xₖ₊₁ &#45; xₖ and yₖ = pₖ₊₁ &#45; pₖ.">
<polygon fill="white" stroke="black" points="109,-0.5 109,-19.5 176,-19.5 176,-0.5 109,-0.5"/>
<text text-anchor="middle" x="142.5" y="-7.5" font-family="Helvetica,sans-Serif" font-size="10.00">update_sy</text>
</a>
</g>
</g>
<!-- Node3&#45;&gt;Node6 -->
<g id="edge5" class="edge">
<title>Node3&#45;&gt;Node6</title>
<path fill="none" stroke="midnightblue" d="M231.45,-35.61C213.58,-30.41 193.11,-24.45 176.42,-19.59"/>
<polygon fill="midnightblue" stroke="midnightblue" points="230.49,-38.98 241.07,-38.41 232.45,-32.25 230.49,-38.98"/>
</g>
<!-- Node7 -->
<g id="node7" class="node">
<title>Node7</title>
<g id="a_node7"><a xlink:href="classquala_1_1LBFGS.html#aa32c5f2c6818c5d54b9fcd1c019a4e1d" target="_top" xlink:title="Update the inverse Hessian approximation using the new vectors xₖ₊₁ and pₖ₊₁.">
<polygon fill="white" stroke="black" points="0,-0.5 0,-19.5 50,-19.5 50,-0.5 0,-0.5"/>
<text text-anchor="middle" x="25" y="-7.5" font-family="Helvetica,sans-Serif" font-size="10.00">update</text>
</a>
</g>
</g>
<!-- Node6&#45;&gt;Node7 -->
<g id="edge6" class="edge">
<title>Node6&#45;&gt;Node7</title>
<path fill="none" stroke="midnightblue" d="M98.29,-10C81.97,-10 64,-10 50.05,-10"/>
<polygon fill="midnightblue" stroke="midnightblue" points="98.71,-13.5 108.71,-10 98.71,-6.5 98.71,-13.5"/>
</g>
</g>
</svg>
