<?xml version="1.0" encoding="UTF-8" standalone="no"?>
<!DOCTYPE svg PUBLIC "-//W3C//DTD SVG 1.1//EN"
 "http://www.w3.org/Graphics/SVG/1.1/DTD/svg11.dtd">
<!-- Generated by graphviz version 2.43.0 (0)
 -->
<!-- Title: reset Pages: 1 -->
<svg width="523pt" height="129pt"
 viewBox="0.00 0.00 523.00 129.00" xmlns="http://www.w3.org/2000/svg" xmlns:xlink="http://www.w3.org/1999/xlink">
<g id="graph0" class="graph" transform="scale(1 1) rotate(0) translate(4 125)">
<title>reset</title>
<polygon fill="white" stroke="transparent" points="-4,4 -4,-125 519,-125 519,4 -4,4"/>
<!-- Node1 -->
<g id="node1" class="node">
<title>Node1</title>
<g id="a_node1"><a xlink:title="Reset all indices, clearing the Q and R matrices.">
<polygon fill="#bfbfbf" stroke="black" points="474,-52 474,-71 515,-71 515,-52 474,-52"/>
<text text-anchor="middle" x="494.5" y="-59" font-family="Helvetica,sans-Serif" font-size="10.00">reset</text>
</a>
</g>
</g>
<!-- Node2 -->
<g id="node2" class="node">
<title>Node2</title>
<g id="a_node2"><a xlink:href="classquala_1_1AndersonAccel.html#ab55e2bb8c6d8912c0d55ff4dc2b3b4a2" target="_top" xlink:title="Call this function on the first iteration to initialize the accelerator.">
<polygon fill="white" stroke="black" points="316,-90.5 316,-120.5 438,-120.5 438,-90.5 316,-90.5"/>
<text text-anchor="start" x="324" y="-108.5" font-family="Helvetica,sans-Serif" font-size="10.00">quala::AndersonAccel</text>
<text text-anchor="middle" x="377" y="-97.5" font-family="Helvetica,sans-Serif" font-size="10.00">::initialize</text>
</a>
</g>
</g>
<!-- Node1&#45;&gt;Node2 -->
<g id="edge1" class="edge">
<title>Node1&#45;&gt;Node2</title>
<path fill="none" stroke="midnightblue" d="M464.26,-72.64C450.18,-78 433.09,-84.51 417.84,-90.32"/>
<polygon fill="midnightblue" stroke="midnightblue" points="465.81,-75.79 473.91,-68.96 463.32,-69.25 465.81,-75.79"/>
</g>
<!-- Node3 -->
<g id="node3" class="node">
<title>Node3</title>
<g id="a_node3"><a xlink:href="classquala_1_1AndersonAccel.html#ad20897c5c8bd47f5d4005989bead0e55" target="_top" xlink:title="Reset the accelerator (but keep the last function value and residual, so calling initialize is not ne...">
<polygon fill="white" stroke="black" points="158,-49.5 158,-79.5 280,-79.5 280,-49.5 158,-49.5"/>
<text text-anchor="start" x="166" y="-67.5" font-family="Helvetica,sans-Serif" font-size="10.00">quala::AndersonAccel</text>
<text text-anchor="middle" x="219" y="-56.5" font-family="Helvetica,sans-Serif" font-size="10.00">::reset</text>
</a>
</g>
</g>
<!-- Node1&#45;&gt;Node3 -->
<g id="edge2" class="edge">
<title>Node1&#45;&gt;Node3</title>
<path fill="none" stroke="midnightblue" d="M463.82,-61.83C419.97,-62.31 336.94,-63.22 280.07,-63.84"/>
<polygon fill="midnightblue" stroke="midnightblue" points="463.87,-65.33 473.83,-61.72 463.79,-58.33 463.87,-65.33"/>
</g>
<!-- Node5 -->
<g id="node5" class="node">
<title>Node5</title>
<g id="a_node5"><a xlink:href="classquala_1_1LimitedMemoryQR.html#ad15543203799d1dccb5a5e1c572e3f02" target="_top" xlink:title="Re&#45;allocate storage for a problem with a different size.">
<polygon fill="white" stroke="black" points="354,-11 354,-30 400,-30 400,-11 354,-11"/>
<text text-anchor="middle" x="377" y="-18" font-family="Helvetica,sans-Serif" font-size="10.00">resize</text>
</a>
</g>
</g>
<!-- Node1&#45;&gt;Node5 -->
<g id="edge4" class="edge">
<title>Node1&#45;&gt;Node5</title>
<path fill="none" stroke="midnightblue" d="M464.37,-51.16C444.4,-44.07 418.32,-34.81 400.06,-28.33"/>
<polygon fill="midnightblue" stroke="midnightblue" points="463.31,-54.5 473.91,-54.54 465.65,-47.9 463.31,-54.5"/>
</g>
<!-- Node4 -->
<g id="node4" class="node">
<title>Node4</title>
<g id="a_node4"><a xlink:href="quala_8cpp.html#a12fb4e87da488d1fc7c6fa3e6a3adb90" target="_top" xlink:title=" ">
<polygon fill="white" stroke="black" points="4.5,-52 4.5,-71 117.5,-71 117.5,-52 4.5,-52"/>
<text text-anchor="middle" x="61" y="-59" font-family="Helvetica,sans-Serif" font-size="10.00">PYBIND11_MODULE</text>
</a>
</g>
</g>
<!-- Node3&#45;&gt;Node4 -->
<g id="edge3" class="edge">
<title>Node3&#45;&gt;Node4</title>
<path fill="none" stroke="midnightblue" d="M147.68,-63.15C137.58,-62.95 127.31,-62.76 117.56,-62.57"/>
<polygon fill="midnightblue" stroke="midnightblue" points="147.62,-66.65 157.69,-63.34 147.76,-59.65 147.62,-66.65"/>
</g>
<!-- Node6 -->
<g id="node6" class="node">
<title>Node6</title>
<g id="a_node6"><a xlink:href="classquala_1_1AndersonAccel.html#abfe51417fbebd259808f86d27f1d7ec5" target="_top" xlink:title="Change the problem dimension.">
<polygon fill="white" stroke="black" points="158,-0.5 158,-30.5 280,-30.5 280,-0.5 158,-0.5"/>
<text text-anchor="start" x="166" y="-18.5" font-family="Helvetica,sans-Serif" font-size="10.00">quala::AndersonAccel</text>
<text text-anchor="middle" x="219" y="-7.5" font-family="Helvetica,sans-Serif" font-size="10.00">::resize</text>
</a>
</g>
</g>
<!-- Node5&#45;&gt;Node6 -->
<g id="edge5" class="edge">
<title>Node5&#45;&gt;Node6</title>
<path fill="none" stroke="midnightblue" d="M343.84,-19.47C325.5,-18.88 301.92,-18.13 280.26,-17.43"/>
<polygon fill="midnightblue" stroke="midnightblue" points="343.87,-22.97 353.98,-19.79 344.1,-15.98 343.87,-22.97"/>
</g>
<!-- Node6&#45;&gt;Node4 -->
<g id="edge7" class="edge">
<title>Node6&#45;&gt;Node4</title>
<path fill="none" stroke="midnightblue" d="M157.25,-33.41C135.88,-39.71 112.7,-46.55 94.55,-51.9"/>
<polygon fill="midnightblue" stroke="midnightblue" points="158.32,-36.75 166.92,-30.56 156.34,-30.03 158.32,-36.75"/>
</g>
<!-- Node7 -->
<g id="node7" class="node">
<title>Node7</title>
<g id="a_node7"><a xlink:href="classquala_1_1AndersonAccel.html#a1fcb04cfb2b1398b54d8242cc3b0fb34" target="_top" xlink:title=" ">
<polygon fill="white" stroke="black" points="0,-0.5 0,-30.5 122,-30.5 122,-0.5 0,-0.5"/>
<text text-anchor="start" x="8" y="-18.5" font-family="Helvetica,sans-Serif" font-size="10.00">quala::AndersonAccel</text>
<text text-anchor="middle" x="61" y="-7.5" font-family="Helvetica,sans-Serif" font-size="10.00">::AndersonAccel</text>
</a>
</g>
</g>
<!-- Node6&#45;&gt;Node7 -->
<g id="edge6" class="edge">
<title>Node6&#45;&gt;Node7</title>
<path fill="none" stroke="midnightblue" d="M147.46,-15.5C139.01,-15.5 130.44,-15.5 122.15,-15.5"/>
<polygon fill="midnightblue" stroke="midnightblue" points="147.69,-19 157.69,-15.5 147.69,-12 147.69,-19"/>
</g>
</g>
</svg>
