<?xml version="1.0" encoding="UTF-8" standalone="no"?>
<!DOCTYPE svg PUBLIC "-//W3C//DTD SVG 1.1//EN"
 "http://www.w3.org/Graphics/SVG/1.1/DTD/svg11.dtd">
<!-- Generated by graphviz version 2.43.0 (0)
 -->
<!-- Title: minimize_update_anderson Pages: 1 -->
<svg width="884pt" height="324pt"
 viewBox="0.00 0.00 884.00 323.63" xmlns="http://www.w3.org/2000/svg" xmlns:xlink="http://www.w3.org/1999/xlink">
<g id="graph0" class="graph" transform="scale(1 1) rotate(0) translate(4 319.63)">
<title>minimize_update_anderson</title>
<polygon fill="white" stroke="transparent" points="-4,4 -4,-319.63 880,-319.63 880,4 -4,4"/>
<!-- Node1 -->
<g id="node1" class="node">
<title>Node1</title>
<g id="a_node1"><a xlink:title="Solve one step of Anderson acceleration to find a fixed point of a function g(x):">
<polygon fill="#bfbfbf" stroke="black" points="0,-143 0,-162 152,-162 152,-143 0,-143"/>
<text text-anchor="middle" x="76" y="-150" font-family="Helvetica,sans-Serif" font-size="10.00">minimize_update_anderson</text>
</a>
</g>
</g>
<!-- Node2 -->
<g id="node2" class="node">
<title>Node2</title>
<g id="a_node2"><a xlink:href="classquala_1_1LimitedMemoryQR.html#a5e3077223e98c1e4e286e01503f220d5" target="_top" xlink:title="Add the given column to the right.">
<polygon fill="white" stroke="black" points="188,-235.5 188,-265.5 329,-265.5 329,-235.5 188,-235.5"/>
<text text-anchor="start" x="196" y="-253.5" font-family="Helvetica,sans-Serif" font-size="10.00">quala::LimitedMemoryQR</text>
<text text-anchor="middle" x="258.5" y="-242.5" font-family="Helvetica,sans-Serif" font-size="10.00">::add_column</text>
</a>
</g>
</g>
<!-- Node1&#45;&gt;Node2 -->
<g id="edge1" class="edge">
<title>Node1&#45;&gt;Node2</title>
<path fill="none" stroke="midnightblue" d="M89.02,-162.03C108.74,-177.3 149.61,-207.47 188,-226.5 191.57,-228.27 195.29,-229.96 199.09,-231.57"/>
<polygon fill="midnightblue" stroke="midnightblue" points="198.04,-234.92 208.62,-235.4 200.64,-228.42 198.04,-234.92"/>
</g>
<!-- Node3 -->
<g id="node3" class="node">
<title>Node3</title>
<g id="a_node3"><a xlink:href="classquala_1_1LimitedMemoryQR.html#ac397ae83f5f4dd3d5cf9926f26acfb2d" target="_top" xlink:title=" ">
<polygon fill="white" stroke="black" points="719,-222 719,-241 876,-241 876,-222 719,-222"/>
<text text-anchor="middle" x="797.5" y="-229" font-family="Helvetica,sans-Serif" font-size="10.00">quala::LimitedMemoryQR::m</text>
</a>
</g>
</g>
<!-- Node1&#45;&gt;Node3 -->
<g id="edge5" class="edge">
<title>Node1&#45;&gt;Node3</title>
<path fill="none" stroke="midnightblue" d="M82.05,-162.35C95.35,-187.08 134.12,-251.55 188,-275.5 390.14,-365.36 667.48,-279.31 762.76,-244.57"/>
<polygon fill="midnightblue" stroke="midnightblue" points="764.02,-247.84 772.18,-241.08 761.59,-241.27 764.02,-247.84"/>
</g>
<!-- Node5 -->
<g id="node5" class="node">
<title>Node5</title>
<g id="a_node5"><a xlink:href="classquala_1_1LimitedMemoryQR.html#a24829df3eaf3f15bd3c677781348b14d" target="_top" xlink:title="Get the number of columns that are currently stored.">
<polygon fill="white" stroke="black" points="188,-186.5 188,-216.5 329,-216.5 329,-186.5 188,-186.5"/>
<text text-anchor="start" x="196" y="-204.5" font-family="Helvetica,sans-Serif" font-size="10.00">quala::LimitedMemoryQR</text>
<text text-anchor="middle" x="258.5" y="-193.5" font-family="Helvetica,sans-Serif" font-size="10.00">::num_columns</text>
</a>
</g>
</g>
<!-- Node1&#45;&gt;Node5 -->
<g id="edge6" class="edge">
<title>Node1&#45;&gt;Node5</title>
<path fill="none" stroke="midnightblue" d="M112.23,-162.06C134.98,-168.24 165.28,-176.46 192.32,-183.8"/>
<polygon fill="midnightblue" stroke="midnightblue" points="191.54,-187.22 202.11,-186.46 193.37,-180.47 191.54,-187.22"/>
</g>
<!-- Node6 -->
<g id="node6" class="node">
<title>Node6</title>
<g id="a_node6"><a xlink:href="classquala_1_1LimitedMemoryQR.html#a436c4dbbf0476354ca67a104bc005e55" target="_top" xlink:title="Remove the leftmost column.">
<polygon fill="white" stroke="black" points="188,-137.5 188,-167.5 329,-167.5 329,-137.5 188,-137.5"/>
<text text-anchor="start" x="196" y="-155.5" font-family="Helvetica,sans-Serif" font-size="10.00">quala::LimitedMemoryQR</text>
<text text-anchor="middle" x="258.5" y="-144.5" font-family="Helvetica,sans-Serif" font-size="10.00">::remove_column</text>
</a>
</g>
</g>
<!-- Node1&#45;&gt;Node6 -->
<g id="edge7" class="edge">
<title>Node1&#45;&gt;Node6</title>
<path fill="none" stroke="midnightblue" d="M152.24,-152.5C160.63,-152.5 169.2,-152.5 177.64,-152.5"/>
<polygon fill="midnightblue" stroke="midnightblue" points="177.86,-156 187.86,-152.5 177.86,-149 177.86,-156"/>
</g>
<!-- Node7 -->
<g id="node7" class="node">
<title>Node7</title>
<g id="a_node7"><a xlink:href="classquala_1_1LimitedMemoryQR.html#a0bf0ad441ec87440e4525e75de00d053" target="_top" xlink:title="Get iterators in the circular buffer.">
<polygon fill="white" stroke="black" points="542,-73.5 542,-103.5 683,-103.5 683,-73.5 542,-73.5"/>
<text text-anchor="start" x="550" y="-91.5" font-family="Helvetica,sans-Serif" font-size="10.00">quala::LimitedMemoryQR</text>
<text text-anchor="middle" x="612.5" y="-80.5" font-family="Helvetica,sans-Serif" font-size="10.00">::ring_iter</text>
</a>
</g>
</g>
<!-- Node1&#45;&gt;Node7 -->
<g id="edge9" class="edge">
<title>Node1&#45;&gt;Node7</title>
<path fill="none" stroke="midnightblue" d="M115.57,-142.98C136.83,-138.03 163.74,-132.25 188,-128.5 307.05,-110.07 446.33,-98.89 531.72,-93.2"/>
<polygon fill="midnightblue" stroke="midnightblue" points="532.12,-96.68 541.86,-92.53 531.66,-89.7 532.12,-96.68"/>
</g>
<!-- Node8 -->
<g id="node8" class="node">
<title>Node8</title>
<g id="a_node8"><a xlink:href="classquala_1_1LimitedMemoryQR.html#a8a153a1f58e5c5879095a4c3799b6f49" target="_top" xlink:title="Get the tail index of the circular buffer (points to one past the most recent element).">
<polygon fill="white" stroke="black" points="188,-49.5 188,-79.5 329,-79.5 329,-49.5 188,-49.5"/>
<text text-anchor="start" x="196" y="-67.5" font-family="Helvetica,sans-Serif" font-size="10.00">quala::LimitedMemoryQR</text>
<text text-anchor="middle" x="258.5" y="-56.5" font-family="Helvetica,sans-Serif" font-size="10.00">::ring_tail</text>
</a>
</g>
</g>
<!-- Node1&#45;&gt;Node8 -->
<g id="edge11" class="edge">
<title>Node1&#45;&gt;Node8</title>
<path fill="none" stroke="midnightblue" d="M94.48,-142.85C116.18,-131 154.43,-110.49 188,-94.5 195.68,-90.84 203.91,-87.12 211.93,-83.6"/>
<polygon fill="midnightblue" stroke="midnightblue" points="213.42,-86.76 221.2,-79.57 210.63,-80.34 213.42,-86.76"/>
</g>
<!-- Node9 -->
<g id="node9" class="node">
<title>Node9</title>
<g id="a_node9"><a xlink:href="classquala_1_1LimitedMemoryQR.html#a7a60dfe0a5f68bc1efec69e406a2b619" target="_top" xlink:title="Solve the least squares problem Ax = b.">
<polygon fill="white" stroke="black" points="188,-0.5 188,-30.5 329,-30.5 329,-0.5 188,-0.5"/>
<text text-anchor="start" x="196" y="-18.5" font-family="Helvetica,sans-Serif" font-size="10.00">quala::LimitedMemoryQR</text>
<text text-anchor="middle" x="258.5" y="-7.5" font-family="Helvetica,sans-Serif" font-size="10.00">::solve_col</text>
</a>
</g>
</g>
<!-- Node1&#45;&gt;Node9 -->
<g id="edge12" class="edge">
<title>Node1&#45;&gt;Node9</title>
<path fill="none" stroke="midnightblue" d="M83.94,-142.86C99.91,-121.32 141.5,-68.87 188,-39.5 190.48,-37.93 193.07,-36.46 195.74,-35.06"/>
<polygon fill="midnightblue" stroke="midnightblue" points="197.51,-38.1 205.04,-30.65 194.5,-31.78 197.51,-38.1"/>
</g>
<!-- Node2&#45;&gt;Node3 -->
<g id="edge2" class="edge">
<title>Node2&#45;&gt;Node3</title>
<path fill="none" stroke="midnightblue" d="M329.15,-248.04C426.34,-244.6 602.59,-238.36 708.67,-234.61"/>
<polygon fill="midnightblue" stroke="midnightblue" points="708.84,-238.1 718.71,-234.25 708.59,-231.11 708.84,-238.1"/>
</g>
<!-- Node4 -->
<g id="node4" class="node">
<title>Node4</title>
<g id="a_node4"><a xlink:href="classquala_1_1LimitedMemoryQR.html#a9f68bead8c70041aacb90dd175150dc4" target="_top" xlink:title="Get the next index in the circular storage for R.">
<polygon fill="white" stroke="black" points="365,-191.5 365,-221.5 506,-221.5 506,-191.5 365,-191.5"/>
<text text-anchor="start" x="373" y="-209.5" font-family="Helvetica,sans-Serif" font-size="10.00">quala::LimitedMemoryQR</text>
<text text-anchor="middle" x="435.5" y="-198.5" font-family="Helvetica,sans-Serif" font-size="10.00">::r_succ</text>
</a>
</g>
</g>
<!-- Node2&#45;&gt;Node4 -->
<g id="edge3" class="edge">
<title>Node2&#45;&gt;Node4</title>
<path fill="none" stroke="midnightblue" d="M319.24,-235.48C333.94,-231.78 349.81,-227.79 364.93,-223.99"/>
<polygon fill="midnightblue" stroke="midnightblue" points="365.89,-227.36 374.74,-221.53 364.19,-220.57 365.89,-227.36"/>
</g>
<!-- Node4&#45;&gt;Node3 -->
<g id="edge4" class="edge">
<title>Node4&#45;&gt;Node3</title>
<path fill="none" stroke="midnightblue" d="M506.34,-211.35C564.06,-215.36 646.33,-221.07 708.54,-225.39"/>
<polygon fill="midnightblue" stroke="midnightblue" points="708.52,-228.9 718.74,-226.1 709,-221.92 708.52,-228.9"/>
</g>
<!-- Node6&#45;&gt;Node4 -->
<g id="edge8" class="edge">
<title>Node6&#45;&gt;Node4</title>
<path fill="none" stroke="midnightblue" d="M308.25,-167.54C329.3,-174.04 354.11,-181.69 376.14,-188.49"/>
<polygon fill="midnightblue" stroke="midnightblue" points="375.12,-191.84 385.71,-191.45 377.19,-185.15 375.12,-191.84"/>
</g>
<!-- Node7&#45;&gt;Node3 -->
<g id="edge10" class="edge">
<title>Node7&#45;&gt;Node3</title>
<path fill="none" stroke="midnightblue" d="M632.74,-103.53C667.42,-130.64 740.14,-187.46 775.84,-215.36"/>
<polygon fill="midnightblue" stroke="midnightblue" points="774.04,-218.39 784.07,-221.79 778.35,-212.87 774.04,-218.39"/>
</g>
<!-- Node9&#45;&gt;Node7 -->
<g id="edge13" class="edge">
<title>Node9&#45;&gt;Node7</title>
<path fill="none" stroke="midnightblue" d="M315.46,-30.55C331.41,-34.65 348.85,-38.93 365,-42.5 420.46,-54.76 483.42,-66.47 531.82,-75.01"/>
<polygon fill="midnightblue" stroke="midnightblue" points="531.47,-78.5 541.92,-76.78 532.68,-71.6 531.47,-78.5"/>
</g>
<!-- Node10 -->
<g id="node10" class="node">
<title>Node10</title>
<g id="a_node10"><a xlink:href="classquala_1_1LimitedMemoryQR.html#ae8160acf26958eb65aa5c0743dd2826d" target="_top" xlink:title="Get reverse iterators in the circular buffer.">
<polygon fill="white" stroke="black" points="365,-3.5 365,-33.5 506,-33.5 506,-3.5 365,-3.5"/>
<text text-anchor="start" x="373" y="-21.5" font-family="Helvetica,sans-Serif" font-size="10.00">quala::LimitedMemoryQR</text>
<text text-anchor="middle" x="435.5" y="-10.5" font-family="Helvetica,sans-Serif" font-size="10.00">::ring_reverse_iter</text>
</a>
</g>
</g>
<!-- Node9&#45;&gt;Node10 -->
<g id="edge14" class="edge">
<title>Node9&#45;&gt;Node10</title>
<path fill="none" stroke="midnightblue" d="M329.17,-16.69C337.5,-16.84 346.06,-16.98 354.53,-17.13"/>
<polygon fill="midnightblue" stroke="midnightblue" points="354.73,-20.63 364.79,-17.3 354.85,-13.63 354.73,-20.63"/>
</g>
<!-- Node10&#45;&gt;Node7 -->
<g id="edge15" class="edge">
<title>Node10&#45;&gt;Node7</title>
<path fill="none" stroke="midnightblue" d="M474.04,-33.52C500.48,-44.09 536.07,-58.33 564.41,-69.66"/>
<polygon fill="midnightblue" stroke="midnightblue" points="563.13,-72.92 573.72,-73.39 565.73,-66.42 563.13,-72.92"/>
</g>
</g>
</svg>
