<?xml version="1.0" encoding="UTF-8" standalone="no"?>
<!DOCTYPE svg PUBLIC "-//W3C//DTD SVG 1.1//EN"
 "http://www.w3.org/Graphics/SVG/1.1/DTD/svg11.dtd">
<!-- Generated by graphviz version 2.43.0 (0)
 -->
<!-- Title: PYBIND11_MODULE Pages: 1 -->
<svg width="839pt" height="763pt"
 viewBox="0.00 0.00 839.00 762.50" xmlns="http://www.w3.org/2000/svg" xmlns:xlink="http://www.w3.org/1999/xlink">
<g id="graph0" class="graph" transform="scale(1 1) rotate(0) translate(4 758.5)">
<title>PYBIND11_MODULE</title>
<polygon fill="white" stroke="transparent" points="-4,4 -4,-758.5 835,-758.5 835,4 -4,4"/>
<!-- Node1 -->
<g id="node1" class="node">
<title>Node1</title>
<g id="a_node1"><a xlink:title=" ">
<polygon fill="#bfbfbf" stroke="black" points="0,-350.5 0,-369.5 113,-369.5 113,-350.5 0,-350.5"/>
<text text-anchor="middle" x="56.5" y="-357.5" font-family="Helvetica,sans-Serif" font-size="10.00">PYBIND11_MODULE</text>
</a>
</g>
</g>
<!-- Node2 -->
<g id="node2" class="node">
<title>Node2</title>
<g id="a_node2"><a xlink:href="classquala_1_1AndersonAccel.html#a3c6a2dbecc0d6f8cd90bef088c46b072" target="_top" xlink:title="Get the number of columns currently stored in the buffer.">
<polygon fill="white" stroke="black" points="160.5,-713 160.5,-743 282.5,-743 282.5,-713 160.5,-713"/>
<text text-anchor="start" x="168.5" y="-731" font-family="Helvetica,sans-Serif" font-size="10.00">quala::AndersonAccel</text>
<text text-anchor="middle" x="221.5" y="-720" font-family="Helvetica,sans-Serif" font-size="10.00">::current_history</text>
</a>
</g>
</g>
<!-- Node1&#45;&gt;Node2 -->
<g id="edge1" class="edge">
<title>Node1&#45;&gt;Node2</title>
<path fill="none" stroke="midnightblue" d="M57.42,-369.75C57.55,-412.98 63.51,-589.81 149,-693 153.79,-698.78 159.76,-703.68 166.21,-707.82"/>
<polygon fill="midnightblue" stroke="midnightblue" points="164.8,-711.05 175.21,-713 168.29,-704.98 164.8,-711.05"/>
</g>
<!-- Node4 -->
<g id="node4" class="node">
<title>Node4</title>
<g id="a_node4"><a xlink:href="classquala_1_1BroydenGood.html#a3c6a2dbecc0d6f8cd90bef088c46b072" target="_top" xlink:title="Get the number of previous s and y vectors currently stored in the buffer.">
<polygon fill="white" stroke="black" points="163.5,-653 163.5,-683 279.5,-683 279.5,-653 163.5,-653"/>
<text text-anchor="start" x="171.5" y="-671" font-family="Helvetica,sans-Serif" font-size="10.00">quala::BroydenGood</text>
<text text-anchor="middle" x="221.5" y="-660" font-family="Helvetica,sans-Serif" font-size="10.00">::current_history</text>
</a>
</g>
</g>
<!-- Node1&#45;&gt;Node4 -->
<g id="edge3" class="edge">
<title>Node1&#45;&gt;Node4</title>
<path fill="none" stroke="midnightblue" d="M58.59,-369.64C63.16,-406.31 83.68,-539.14 149,-622 157,-632.15 167.9,-640.74 178.77,-647.65"/>
<polygon fill="midnightblue" stroke="midnightblue" points="177.05,-650.7 187.43,-652.83 180.64,-644.69 177.05,-650.7"/>
</g>
<!-- Node7 -->
<g id="node7" class="node">
<title>Node7</title>
<g id="a_node7"><a xlink:href="classquala_1_1LBFGS.html#a3c6a2dbecc0d6f8cd90bef088c46b072" target="_top" xlink:title="Get the number of previous s and y vectors currently stored in the buffer.">
<polygon fill="white" stroke="black" points="160.5,-389 160.5,-419 282.5,-419 282.5,-389 160.5,-389"/>
<text text-anchor="start" x="168.5" y="-407" font-family="Helvetica,sans-Serif" font-size="10.00">quala::LBFGS::current</text>
<text text-anchor="middle" x="221.5" y="-396" font-family="Helvetica,sans-Serif" font-size="10.00">_history</text>
</a>
</g>
</g>
<!-- Node1&#45;&gt;Node7 -->
<g id="edge6" class="edge">
<title>Node1&#45;&gt;Node7</title>
<path fill="none" stroke="midnightblue" d="M92.87,-369.55C110.97,-374.43 133.61,-380.55 154.77,-386.26"/>
<polygon fill="midnightblue" stroke="midnightblue" points="154.12,-389.71 164.69,-388.93 155.95,-382.95 154.12,-389.71"/>
</g>
<!-- Node10 -->
<g id="node10" class="node">
<title>Node10</title>
<g id="a_node10"><a xlink:href="classquala_1_1AndersonAccel.html#a933e2462ce1049db54fed366cce62477" target="_top" xlink:title="Get the parameters.">
<polygon fill="white" stroke="black" points="160.5,-225 160.5,-255 282.5,-255 282.5,-225 160.5,-225"/>
<text text-anchor="start" x="168.5" y="-243" font-family="Helvetica,sans-Serif" font-size="10.00">quala::AndersonAccel</text>
<text text-anchor="middle" x="221.5" y="-232" font-family="Helvetica,sans-Serif" font-size="10.00">::get_params</text>
</a>
</g>
</g>
<!-- Node1&#45;&gt;Node10 -->
<g id="edge9" class="edge">
<title>Node1&#45;&gt;Node10</title>
<path fill="none" stroke="midnightblue" d="M65.12,-350.38C79.72,-332.48 113.38,-293.7 149,-270 154.8,-266.14 161.17,-262.62 167.65,-259.45"/>
<polygon fill="midnightblue" stroke="midnightblue" points="169.55,-262.43 177.17,-255.07 166.62,-256.07 169.55,-262.43"/>
</g>
<!-- Node11 -->
<g id="node11" class="node">
<title>Node11</title>
<g id="a_node11"><a xlink:href="classquala_1_1BroydenGood.html#a933e2462ce1049db54fed366cce62477" target="_top" xlink:title="Get the parameters.">
<polygon fill="white" stroke="black" points="163.5,-176 163.5,-206 279.5,-206 279.5,-176 163.5,-176"/>
<text text-anchor="start" x="171.5" y="-194" font-family="Helvetica,sans-Serif" font-size="10.00">quala::BroydenGood</text>
<text text-anchor="middle" x="221.5" y="-183" font-family="Helvetica,sans-Serif" font-size="10.00">::get_params</text>
</a>
</g>
</g>
<!-- Node1&#45;&gt;Node11 -->
<g id="edge10" class="edge">
<title>Node1&#45;&gt;Node11</title>
<path fill="none" stroke="midnightblue" d="M60.99,-350.38C70.79,-324.74 100.96,-254.1 149,-216 151.27,-214.2 153.68,-212.52 156.19,-210.97"/>
<polygon fill="midnightblue" stroke="midnightblue" points="157.95,-213.99 165.03,-206.1 154.58,-207.85 157.95,-213.99"/>
</g>
<!-- Node12 -->
<g id="node12" class="node">
<title>Node12</title>
<g id="a_node12"><a xlink:href="classquala_1_1LBFGS.html#a933e2462ce1049db54fed366cce62477" target="_top" xlink:title="Get the parameters.">
<polygon fill="white" stroke="black" points="149,-137.5 149,-156.5 294,-156.5 294,-137.5 149,-137.5"/>
<text text-anchor="middle" x="221.5" y="-144.5" font-family="Helvetica,sans-Serif" font-size="10.00">quala::LBFGS::get_params</text>
</a>
</g>
</g>
<!-- Node1&#45;&gt;Node12 -->
<g id="edge11" class="edge">
<title>Node1&#45;&gt;Node12</title>
<path fill="none" stroke="midnightblue" d="M59.18,-350.25C65.15,-318.65 88.33,-218.15 149,-167 151.56,-164.84 154.34,-162.91 157.27,-161.19"/>
<polygon fill="midnightblue" stroke="midnightblue" points="159.03,-164.23 166.41,-156.63 155.9,-157.96 159.03,-164.23"/>
</g>
<!-- Node13 -->
<g id="node13" class="node">
<title>Node13</title>
<g id="a_node13"><a xlink:href="classquala_1_1LBFGS.html#a727afc7a58d2e44ae7add57e3fa77bc6" target="_top" xlink:title="Get the size of the s and y vectors in the buffer.">
<polygon fill="white" stroke="black" points="354,-259.5 354,-278.5 447,-278.5 447,-259.5 354,-259.5"/>
<text text-anchor="middle" x="400.5" y="-266.5" font-family="Helvetica,sans-Serif" font-size="10.00">quala::LBFGS::n</text>
</a>
</g>
</g>
<!-- Node1&#45;&gt;Node13 -->
<g id="edge12" class="edge">
<title>Node1&#45;&gt;Node13</title>
<path fill="none" stroke="midnightblue" d="M69.08,-350.5C85.67,-337.44 117.66,-314.3 149,-303 213.25,-279.84 291.96,-272.27 343.8,-269.9"/>
<polygon fill="midnightblue" stroke="midnightblue" points="343.95,-273.4 353.8,-269.49 343.66,-266.4 343.95,-273.4"/>
</g>
<!-- Node15 -->
<g id="node15" class="node">
<title>Node15</title>
<g id="a_node15"><a xlink:href="classquala_1_1AndersonAccel.html#ad20897c5c8bd47f5d4005989bead0e55" target="_top" xlink:title="Reset the accelerator (but keep the last function value and residual, so calling initialize is not ne...">
<polygon fill="white" stroke="black" points="160.5,-88 160.5,-118 282.5,-118 282.5,-88 160.5,-88"/>
<text text-anchor="start" x="168.5" y="-106" font-family="Helvetica,sans-Serif" font-size="10.00">quala::AndersonAccel</text>
<text text-anchor="middle" x="221.5" y="-95" font-family="Helvetica,sans-Serif" font-size="10.00">::reset</text>
</a>
</g>
</g>
<!-- Node1&#45;&gt;Node15 -->
<g id="edge14" class="edge">
<title>Node1&#45;&gt;Node15</title>
<path fill="none" stroke="midnightblue" d="M58.51,-350.02C62.62,-314.54 81.27,-193.12 149,-128 150.49,-126.56 152.07,-125.21 153.72,-123.93"/>
<polygon fill="midnightblue" stroke="midnightblue" points="156.05,-126.59 162.49,-118.18 152.21,-120.74 156.05,-126.59"/>
</g>
<!-- Node18 -->
<g id="node18" class="node">
<title>Node18</title>
<g id="a_node18"><a xlink:href="classquala_1_1BroydenGood.html#ad20897c5c8bd47f5d4005989bead0e55" target="_top" xlink:title="Throw away the approximation and all previous vectors s and y.">
<polygon fill="white" stroke="black" points="342.5,-538 342.5,-568 458.5,-568 458.5,-538 342.5,-538"/>
<text text-anchor="start" x="350.5" y="-556" font-family="Helvetica,sans-Serif" font-size="10.00">quala::BroydenGood</text>
<text text-anchor="middle" x="400.5" y="-545" font-family="Helvetica,sans-Serif" font-size="10.00">::reset</text>
</a>
</g>
</g>
<!-- Node1&#45;&gt;Node18 -->
<g id="edge17" class="edge">
<title>Node1&#45;&gt;Node18</title>
<path fill="none" stroke="midnightblue" d="M59.51,-369.67C66.18,-399.14 90.63,-488.21 149,-527 202.88,-562.8 278.16,-565.91 332.1,-562.15"/>
<polygon fill="midnightblue" stroke="midnightblue" points="332.56,-565.62 342.26,-561.34 332.01,-558.64 332.56,-565.62"/>
</g>
<!-- Node19 -->
<g id="node19" class="node">
<title>Node19</title>
<g id="a_node19"><a xlink:href="classquala_1_1LBFGS.html#ad20897c5c8bd47f5d4005989bead0e55" target="_top" xlink:title="Throw away the approximation and all previous vectors s and y.">
<polygon fill="white" stroke="black" points="344.5,-347.5 344.5,-366.5 456.5,-366.5 456.5,-347.5 344.5,-347.5"/>
<text text-anchor="middle" x="400.5" y="-354.5" font-family="Helvetica,sans-Serif" font-size="10.00">quala::LBFGS::reset</text>
</a>
</g>
</g>
<!-- Node1&#45;&gt;Node19 -->
<g id="edge18" class="edge">
<title>Node1&#45;&gt;Node19</title>
<path fill="none" stroke="midnightblue" d="M113.21,-359.51C173.63,-358.98 270,-358.14 334,-357.57"/>
<polygon fill="midnightblue" stroke="midnightblue" points="334.41,-361.07 344.38,-357.48 334.35,-354.07 334.41,-361.07"/>
</g>
<!-- Node20 -->
<g id="node20" class="node">
<title>Node20</title>
<g id="a_node20"><a xlink:href="classquala_1_1AndersonAccel.html#abfe51417fbebd259808f86d27f1d7ec5" target="_top" xlink:title="Change the problem dimension.">
<polygon fill="white" stroke="black" points="160.5,-39 160.5,-69 282.5,-69 282.5,-39 160.5,-39"/>
<text text-anchor="start" x="168.5" y="-57" font-family="Helvetica,sans-Serif" font-size="10.00">quala::AndersonAccel</text>
<text text-anchor="middle" x="221.5" y="-46" font-family="Helvetica,sans-Serif" font-size="10.00">::resize</text>
</a>
</g>
</g>
<!-- Node1&#45;&gt;Node20 -->
<g id="edge19" class="edge">
<title>Node1&#45;&gt;Node20</title>
<path fill="none" stroke="midnightblue" d="M57.71,-350.49C59.08,-311.26 69.51,-160.22 149,-79 150.41,-77.56 151.92,-76.19 153.49,-74.91"/>
<polygon fill="midnightblue" stroke="midnightblue" points="155.64,-77.68 161.89,-69.13 151.67,-71.91 155.64,-77.68"/>
</g>
<!-- Node25 -->
<g id="node25" class="node">
<title>Node25</title>
<g id="a_node25"><a xlink:href="classquala_1_1BroydenGood.html#abfe51417fbebd259808f86d27f1d7ec5" target="_top" xlink:title="Re&#45;allocate storage for a problem with a different size.">
<polygon fill="white" stroke="black" points="163.5,-582 163.5,-612 279.5,-612 279.5,-582 163.5,-582"/>
<text text-anchor="start" x="171.5" y="-600" font-family="Helvetica,sans-Serif" font-size="10.00">quala::BroydenGood</text>
<text text-anchor="middle" x="221.5" y="-589" font-family="Helvetica,sans-Serif" font-size="10.00">::resize</text>
</a>
</g>
</g>
<!-- Node1&#45;&gt;Node25 -->
<g id="edge26" class="edge">
<title>Node1&#45;&gt;Node25</title>
<path fill="none" stroke="midnightblue" d="M59.23,-369.53C65.49,-401.42 89.78,-505.72 149,-565 153.54,-569.55 158.84,-573.5 164.47,-576.94"/>
<polygon fill="midnightblue" stroke="midnightblue" points="163.06,-580.16 173.51,-581.91 166.43,-574.02 163.06,-580.16"/>
</g>
<!-- Node29 -->
<g id="node29" class="node">
<title>Node29</title>
<g id="a_node29"><a xlink:href="classquala_1_1LBFGS.html#abfe51417fbebd259808f86d27f1d7ec5" target="_top" xlink:title="Re&#45;allocate storage for a problem with a different size.">
<polygon fill="white" stroke="black" points="163.5,-312.5 163.5,-331.5 279.5,-331.5 279.5,-312.5 163.5,-312.5"/>
<text text-anchor="middle" x="221.5" y="-319.5" font-family="Helvetica,sans-Serif" font-size="10.00">quala::LBFGS::resize</text>
</a>
</g>
</g>
<!-- Node1&#45;&gt;Node29 -->
<g id="edge33" class="edge">
<title>Node1&#45;&gt;Node29</title>
<path fill="none" stroke="midnightblue" d="M98.63,-350.41C120.24,-345.37 146.91,-339.16 169.79,-333.82"/>
<polygon fill="midnightblue" stroke="midnightblue" points="170.72,-337.2 179.66,-331.52 169.13,-330.38 170.72,-337.2"/>
</g>
<!-- Node31 -->
<g id="node31" class="node">
<title>Node31</title>
<g id="a_node31"><a xlink:href="classquala_1_1LBFGS.html#adeddc1e1eb8ce1c1bbaf931b6f9a5b9c" target="_top" xlink:title="Scale the stored y vectors by the given factor.">
<polygon fill="white" stroke="black" points="159.5,-438.5 159.5,-457.5 283.5,-457.5 283.5,-438.5 159.5,-438.5"/>
<text text-anchor="middle" x="221.5" y="-445.5" font-family="Helvetica,sans-Serif" font-size="10.00">quala::LBFGS::scale_y</text>
</a>
</g>
</g>
<!-- Node1&#45;&gt;Node31 -->
<g id="edge39" class="edge">
<title>Node1&#45;&gt;Node31</title>
<path fill="none" stroke="midnightblue" d="M67.33,-369.5C83.21,-384.34 116.08,-412.98 149,-429 153.91,-431.39 159.16,-433.51 164.5,-435.38"/>
<polygon fill="midnightblue" stroke="midnightblue" points="163.57,-438.76 174.16,-438.49 165.71,-432.1 163.57,-438.76"/>
</g>
<!-- Node36 -->
<g id="node36" class="node">
<title>Node36</title>
<g id="a_node36"><a xlink:href="classquala_1_1LBFGS.html#a1109c880f1969f61532c94c19122e927" target="_top" xlink:title="Check if the new vectors s and y allow for a valid BFGS update that preserves the positive definitene...">
<polygon fill="white" stroke="black" points="161,-487 161,-517 282,-517 282,-487 161,-487"/>
<text text-anchor="start" x="169" y="-505" font-family="Helvetica,sans-Serif" font-size="10.00">quala::LBFGS::update</text>
<text text-anchor="middle" x="221.5" y="-494" font-family="Helvetica,sans-Serif" font-size="10.00">_valid</text>
</a>
</g>
</g>
<!-- Node1&#45;&gt;Node36 -->
<g id="edge47" class="edge">
<title>Node1&#45;&gt;Node36</title>
<path fill="none" stroke="midnightblue" d="M63.78,-369.73C77.27,-390.04 110.94,-437.51 149,-467 156.38,-472.72 164.85,-477.86 173.31,-482.32"/>
<polygon fill="midnightblue" stroke="midnightblue" points="171.93,-485.55 182.44,-486.9 175.07,-479.29 171.93,-485.55"/>
</g>
<!-- Node3 -->
<g id="node3" class="node">
<title>Node3</title>
<g id="a_node3"><a xlink:href="classquala_1_1LimitedMemoryQR.html#a3c6a2dbecc0d6f8cd90bef088c46b072" target="_top" xlink:title="Get the number of columns currently stored in the buffer.">
<polygon fill="white" stroke="black" points="330,-724 330,-754 471,-754 471,-724 330,-724"/>
<text text-anchor="start" x="338" y="-742" font-family="Helvetica,sans-Serif" font-size="10.00">quala::LimitedMemoryQR</text>
<text text-anchor="middle" x="400.5" y="-731" font-family="Helvetica,sans-Serif" font-size="10.00">::current_history</text>
</a>
</g>
</g>
<!-- Node2&#45;&gt;Node3 -->
<g id="edge2" class="edge">
<title>Node2&#45;&gt;Node3</title>
<path fill="none" stroke="midnightblue" d="M282.92,-731.75C294.73,-732.49 307.29,-733.27 319.63,-734.04"/>
<polygon fill="midnightblue" stroke="midnightblue" points="319.71,-737.55 329.91,-734.68 320.15,-730.56 319.71,-737.55"/>
</g>
<!-- Node5 -->
<g id="node5" class="node">
<title>Node5</title>
<g id="a_node5"><a xlink:href="classquala_1_1BroydenGood.html#a9cf7dcccbc3bc69a10833450ee79c623" target="_top" xlink:title="Get the number of previous vectors s and y stored in the buffer.">
<polygon fill="white" stroke="black" points="342.5,-675 342.5,-705 458.5,-705 458.5,-675 342.5,-675"/>
<text text-anchor="start" x="350.5" y="-693" font-family="Helvetica,sans-Serif" font-size="10.00">quala::BroydenGood</text>
<text text-anchor="middle" x="400.5" y="-682" font-family="Helvetica,sans-Serif" font-size="10.00">::history</text>
</a>
</g>
</g>
<!-- Node4&#45;&gt;Node5 -->
<g id="edge4" class="edge">
<title>Node4&#45;&gt;Node5</title>
<path fill="none" stroke="midnightblue" d="M279.97,-675.14C296.67,-677.22 315.07,-679.51 332.32,-681.65"/>
<polygon fill="midnightblue" stroke="midnightblue" points="331.97,-685.13 342.32,-682.89 332.83,-678.19 331.97,-685.13"/>
</g>
<!-- Node6 -->
<g id="node6" class="node">
<title>Node6</title>
<g id="a_node6"><a xlink:href="structquala_1_1BroydenStorage.html#a9cf7dcccbc3bc69a10833450ee79c623" target="_top" xlink:title="Get the number of previous vectors s and s̃ stored in the buffer.">
<polygon fill="white" stroke="black" points="521.5,-662 521.5,-692 649.5,-692 649.5,-662 521.5,-662"/>
<text text-anchor="start" x="529.5" y="-680" font-family="Helvetica,sans-Serif" font-size="10.00">quala::BroydenStorage</text>
<text text-anchor="middle" x="585.5" y="-669" font-family="Helvetica,sans-Serif" font-size="10.00">::history</text>
</a>
</g>
</g>
<!-- Node5&#45;&gt;Node6 -->
<g id="edge5" class="edge">
<title>Node5&#45;&gt;Node6</title>
<path fill="none" stroke="midnightblue" d="M458.65,-685.94C475.31,-684.76 493.74,-683.45 511.24,-682.2"/>
<polygon fill="midnightblue" stroke="midnightblue" points="511.7,-685.68 521.42,-681.48 511.2,-678.7 511.7,-685.68"/>
</g>
<!-- Node8 -->
<g id="node8" class="node">
<title>Node8</title>
<g id="a_node8"><a xlink:href="classquala_1_1LBFGS.html#a9cf7dcccbc3bc69a10833450ee79c623" target="_top" xlink:title="Get the number of previous vectors s and y stored in the buffer.">
<polygon fill="white" stroke="black" points="340,-385.5 340,-404.5 461,-404.5 461,-385.5 340,-385.5"/>
<text text-anchor="middle" x="400.5" y="-392.5" font-family="Helvetica,sans-Serif" font-size="10.00">quala::LBFGS::history</text>
</a>
</g>
</g>
<!-- Node7&#45;&gt;Node8 -->
<g id="edge7" class="edge">
<title>Node7&#45;&gt;Node8</title>
<path fill="none" stroke="midnightblue" d="M282.92,-400.93C298.03,-400.16 314.37,-399.33 329.89,-398.54"/>
<polygon fill="midnightblue" stroke="midnightblue" points="330.14,-402.03 339.95,-398.03 329.79,-395.04 330.14,-402.03"/>
</g>
<!-- Node9 -->
<g id="node9" class="node">
<title>Node9</title>
<g id="a_node9"><a xlink:href="structquala_1_1LBFGSStorage.html#a9cf7dcccbc3bc69a10833450ee79c623" target="_top" xlink:title="Get the number of previous vectors s and y stored in the buffer.">
<polygon fill="white" stroke="black" points="526,-369 526,-399 645,-399 645,-369 526,-369"/>
<text text-anchor="start" x="534" y="-387" font-family="Helvetica,sans-Serif" font-size="10.00">quala::LBFGSStorage</text>
<text text-anchor="middle" x="585.5" y="-376" font-family="Helvetica,sans-Serif" font-size="10.00">::history</text>
</a>
</g>
</g>
<!-- Node8&#45;&gt;Node9 -->
<g id="edge8" class="edge">
<title>Node8&#45;&gt;Node9</title>
<path fill="none" stroke="midnightblue" d="M461.17,-391.41C478.6,-390.37 497.79,-389.21 515.74,-388.13"/>
<polygon fill="midnightblue" stroke="midnightblue" points="516.08,-391.62 525.85,-387.53 515.66,-384.63 516.08,-391.62"/>
</g>
<!-- Node14 -->
<g id="node14" class="node">
<title>Node14</title>
<g id="a_node14"><a xlink:href="structquala_1_1LBFGSStorage.html#a727afc7a58d2e44ae7add57e3fa77bc6" target="_top" xlink:title="Get the size of the s and y vectors in the buffer.">
<polygon fill="white" stroke="black" points="700,-423.5 700,-442.5 831,-442.5 831,-423.5 700,-423.5"/>
<text text-anchor="middle" x="765.5" y="-430.5" font-family="Helvetica,sans-Serif" font-size="10.00">quala::LBFGSStorage::n</text>
</a>
</g>
</g>
<!-- Node13&#45;&gt;Node14 -->
<g id="edge13" class="edge">
<title>Node13&#45;&gt;Node14</title>
<path fill="none" stroke="midnightblue" d="M447.31,-268.39C502.29,-269.59 595.61,-277.94 664,-317 705.45,-340.67 738.09,-388 753.97,-414.3"/>
<polygon fill="midnightblue" stroke="midnightblue" points="751.14,-416.4 759.21,-423.26 757.18,-412.86 751.14,-416.4"/>
</g>
<!-- Node16 -->
<g id="node16" class="node">
<title>Node16</title>
<g id="a_node16"><a xlink:href="classquala_1_1LimitedMemoryQR.html#ad20897c5c8bd47f5d4005989bead0e55" target="_top" xlink:title="Reset all indices, clearing the Q and R matrices.">
<polygon fill="white" stroke="black" points="515,-108 515,-138 656,-138 656,-108 515,-108"/>
<text text-anchor="start" x="523" y="-126" font-family="Helvetica,sans-Serif" font-size="10.00">quala::LimitedMemoryQR</text>
<text text-anchor="middle" x="585.5" y="-115" font-family="Helvetica,sans-Serif" font-size="10.00">::reset</text>
</a>
</g>
</g>
<!-- Node15&#45;&gt;Node16 -->
<g id="edge15" class="edge">
<title>Node15&#45;&gt;Node16</title>
<path fill="none" stroke="midnightblue" d="M276.21,-118.03C293.27,-122.11 312.3,-125.97 330,-128 388.22,-134.68 454.42,-133.1 504.7,-130.02"/>
<polygon fill="midnightblue" stroke="midnightblue" points="505.11,-133.5 514.86,-129.37 504.66,-126.52 505.11,-133.5"/>
</g>
<!-- Node17 -->
<g id="node17" class="node">
<title>Node17</title>
<g id="a_node17"><a xlink:href="classquala_1_1LimitedMemoryQR.html#a8a153a1f58e5c5879095a4c3799b6f49" target="_top" xlink:title="Get the tail index of the circular buffer (points to one past the most recent element).">
<polygon fill="white" stroke="black" points="330,-88 330,-118 471,-118 471,-88 330,-88"/>
<text text-anchor="start" x="338" y="-106" font-family="Helvetica,sans-Serif" font-size="10.00">quala::LimitedMemoryQR</text>
<text text-anchor="middle" x="400.5" y="-95" font-family="Helvetica,sans-Serif" font-size="10.00">::ring_tail</text>
</a>
</g>
</g>
<!-- Node15&#45;&gt;Node17 -->
<g id="edge16" class="edge">
<title>Node15&#45;&gt;Node17</title>
<path fill="none" stroke="midnightblue" d="M282.92,-103C294.73,-103 307.29,-103 319.63,-103"/>
<polygon fill="midnightblue" stroke="midnightblue" points="319.91,-106.5 329.91,-103 319.91,-99.5 319.91,-106.5"/>
</g>
<!-- Node21 -->
<g id="node21" class="node">
<title>Node21</title>
<g id="a_node21"><a xlink:href="classquala_1_1AndersonAccel.html#a727afc7a58d2e44ae7add57e3fa77bc6" target="_top" xlink:title="Get the problem dimension.">
<polygon fill="white" stroke="black" points="333.5,-0.5 333.5,-19.5 467.5,-19.5 467.5,-0.5 333.5,-0.5"/>
<text text-anchor="middle" x="400.5" y="-7.5" font-family="Helvetica,sans-Serif" font-size="10.00">quala::AndersonAccel::n</text>
</a>
</g>
</g>
<!-- Node20&#45;&gt;Node21 -->
<g id="edge20" class="edge">
<title>Node20&#45;&gt;Node21</title>
<path fill="none" stroke="midnightblue" d="M282.92,-38.98C305.31,-33.41 330.38,-27.18 351.51,-21.93"/>
<polygon fill="midnightblue" stroke="midnightblue" points="352.37,-25.32 361.23,-19.51 350.69,-18.53 352.37,-25.32"/>
</g>
<!-- Node23 -->
<g id="node23" class="node">
<title>Node23</title>
<g id="a_node23"><a xlink:href="classquala_1_1LimitedMemoryQR.html#ad15543203799d1dccb5a5e1c572e3f02" target="_top" xlink:title="Re&#45;allocate storage for a problem with a different size.">
<polygon fill="white" stroke="black" points="330,-39 330,-69 471,-69 471,-39 330,-39"/>
<text text-anchor="start" x="338" y="-57" font-family="Helvetica,sans-Serif" font-size="10.00">quala::LimitedMemoryQR</text>
<text text-anchor="middle" x="400.5" y="-46" font-family="Helvetica,sans-Serif" font-size="10.00">::resize</text>
</a>
</g>
</g>
<!-- Node20&#45;&gt;Node23 -->
<g id="edge22" class="edge">
<title>Node20&#45;&gt;Node23</title>
<path fill="none" stroke="midnightblue" d="M282.92,-54C294.73,-54 307.29,-54 319.63,-54"/>
<polygon fill="midnightblue" stroke="midnightblue" points="319.91,-57.5 329.91,-54 319.91,-50.5 319.91,-57.5"/>
</g>
<!-- Node22 -->
<g id="node22" class="node">
<title>Node22</title>
<g id="a_node22"><a xlink:href="classquala_1_1LimitedMemoryQR.html#a727afc7a58d2e44ae7add57e3fa77bc6" target="_top" xlink:title=" ">
<polygon fill="white" stroke="black" points="509,-3.5 509,-22.5 662,-22.5 662,-3.5 509,-3.5"/>
<text text-anchor="middle" x="585.5" y="-10.5" font-family="Helvetica,sans-Serif" font-size="10.00">quala::LimitedMemoryQR::n</text>
</a>
</g>
</g>
<!-- Node21&#45;&gt;Node22 -->
<g id="edge21" class="edge">
<title>Node21&#45;&gt;Node22</title>
<path fill="none" stroke="midnightblue" d="M467.57,-11.08C477.73,-11.25 488.35,-11.42 498.86,-11.6"/>
<polygon fill="midnightblue" stroke="midnightblue" points="498.84,-15.1 508.89,-11.76 498.95,-8.1 498.84,-15.1"/>
</g>
<!-- Node23&#45;&gt;Node16 -->
<g id="edge25" class="edge">
<title>Node23&#45;&gt;Node16</title>
<path fill="none" stroke="midnightblue" d="M443.83,-69.04C452.81,-72.28 462.23,-75.72 471,-79 492.79,-87.14 516.82,-96.42 537.15,-104.34"/>
<polygon fill="midnightblue" stroke="midnightblue" points="535.91,-107.62 546.5,-108 538.46,-101.1 535.91,-107.62"/>
</g>
<!-- Node23&#45;&gt;Node22 -->
<g id="edge24" class="edge">
<title>Node23&#45;&gt;Node22</title>
<path fill="none" stroke="midnightblue" d="M468.6,-38.97C489.45,-34.3 512.12,-29.22 531.84,-24.8"/>
<polygon fill="midnightblue" stroke="midnightblue" points="532.86,-28.16 541.85,-22.55 531.33,-21.33 532.86,-28.16"/>
</g>
<!-- Node24 -->
<g id="node24" class="node">
<title>Node24</title>
<g id="a_node24"><a xlink:href="classquala_1_1LimitedMemoryQR.html#ac397ae83f5f4dd3d5cf9926f26acfb2d" target="_top" xlink:title=" ">
<polygon fill="white" stroke="black" points="507,-44.5 507,-63.5 664,-63.5 664,-44.5 507,-44.5"/>
<text text-anchor="middle" x="585.5" y="-51.5" font-family="Helvetica,sans-Serif" font-size="10.00">quala::LimitedMemoryQR::m</text>
</a>
</g>
</g>
<!-- Node23&#45;&gt;Node24 -->
<g id="edge23" class="edge">
<title>Node23&#45;&gt;Node24</title>
<path fill="none" stroke="midnightblue" d="M471.21,-54C479.56,-54 488.16,-54 496.72,-54"/>
<polygon fill="midnightblue" stroke="midnightblue" points="496.74,-57.5 506.74,-54 496.74,-50.5 496.74,-57.5"/>
</g>
<!-- Node25&#45;&gt;Node18 -->
<g id="edge29" class="edge">
<title>Node25&#45;&gt;Node18</title>
<path fill="none" stroke="midnightblue" d="M279.97,-582.71C296.67,-578.56 315.07,-573.99 332.32,-569.7"/>
<polygon fill="midnightblue" stroke="midnightblue" points="333.46,-573.02 342.32,-567.21 331.77,-566.23 333.46,-573.02"/>
</g>
<!-- Node26 -->
<g id="node26" class="node">
<title>Node26</title>
<g id="a_node26"><a xlink:href="classquala_1_1BroydenGood.html#a727afc7a58d2e44ae7add57e3fa77bc6" target="_top" xlink:title="Get the size of the s and y vectors in the buffer.">
<polygon fill="white" stroke="black" points="336.5,-587.5 336.5,-606.5 464.5,-606.5 464.5,-587.5 336.5,-587.5"/>
<text text-anchor="middle" x="400.5" y="-594.5" font-family="Helvetica,sans-Serif" font-size="10.00">quala::BroydenGood::n</text>
</a>
</g>
</g>
<!-- Node25&#45;&gt;Node26 -->
<g id="edge27" class="edge">
<title>Node25&#45;&gt;Node26</title>
<path fill="none" stroke="midnightblue" d="M279.97,-597C294.71,-597 310.76,-597 326.18,-597"/>
<polygon fill="midnightblue" stroke="midnightblue" points="326.2,-600.5 336.2,-597 326.2,-593.5 326.2,-600.5"/>
</g>
<!-- Node28 -->
<g id="node28" class="node">
<title>Node28</title>
<g id="a_node28"><a xlink:href="structquala_1_1BroydenStorage.html#a48072fa680a2364d8ce96eb84a5d5689" target="_top" xlink:title="Re&#45;allocate storage for a problem with a different size.">
<polygon fill="white" stroke="black" points="336.5,-626 336.5,-656 464.5,-656 464.5,-626 336.5,-626"/>
<text text-anchor="start" x="344.5" y="-644" font-family="Helvetica,sans-Serif" font-size="10.00">quala::BroydenStorage</text>
<text text-anchor="middle" x="400.5" y="-633" font-family="Helvetica,sans-Serif" font-size="10.00">::resize</text>
</a>
</g>
</g>
<!-- Node25&#45;&gt;Node28 -->
<g id="edge30" class="edge">
<title>Node25&#45;&gt;Node28</title>
<path fill="none" stroke="midnightblue" d="M279.97,-611.29C295.6,-615.17 312.71,-619.43 328.98,-623.47"/>
<polygon fill="midnightblue" stroke="midnightblue" points="328.42,-626.94 338.97,-625.95 330.11,-620.14 328.42,-626.94"/>
</g>
<!-- Node27 -->
<g id="node27" class="node">
<title>Node27</title>
<g id="a_node27"><a xlink:href="structquala_1_1BroydenStorage.html#a727afc7a58d2e44ae7add57e3fa77bc6" target="_top" xlink:title="Get the size of the s and s̃ vectors in the buffer.">
<polygon fill="white" stroke="black" points="515.5,-599.5 515.5,-618.5 655.5,-618.5 655.5,-599.5 515.5,-599.5"/>
<text text-anchor="middle" x="585.5" y="-606.5" font-family="Helvetica,sans-Serif" font-size="10.00">quala::BroydenStorage::n</text>
</a>
</g>
</g>
<!-- Node26&#45;&gt;Node27 -->
<g id="edge28" class="edge">
<title>Node26&#45;&gt;Node27</title>
<path fill="none" stroke="midnightblue" d="M464.73,-601.15C477.74,-602 491.59,-602.91 505.09,-603.79"/>
<polygon fill="midnightblue" stroke="midnightblue" points="505.11,-607.3 515.32,-604.46 505.57,-600.32 505.11,-607.3"/>
</g>
<!-- Node28&#45;&gt;Node6 -->
<g id="edge31" class="edge">
<title>Node28&#45;&gt;Node6</title>
<path fill="none" stroke="midnightblue" d="M464.73,-653.44C479.73,-656.39 495.86,-659.56 511.26,-662.59"/>
<polygon fill="midnightblue" stroke="midnightblue" points="510.78,-666.06 521.26,-664.56 512.13,-659.2 510.78,-666.06"/>
</g>
<!-- Node28&#45;&gt;Node27 -->
<g id="edge32" class="edge">
<title>Node28&#45;&gt;Node27</title>
<path fill="none" stroke="midnightblue" d="M464.73,-629.94C482.61,-626.82 502.08,-623.41 520.02,-620.27"/>
<polygon fill="midnightblue" stroke="midnightblue" points="520.85,-623.68 530.1,-618.51 519.65,-616.79 520.85,-623.68"/>
</g>
<!-- Node29&#45;&gt;Node13 -->
<g id="edge34" class="edge">
<title>Node29&#45;&gt;Node13</title>
<path fill="none" stroke="midnightblue" d="M253.04,-312.47C274.53,-305.8 303.99,-296.73 330,-289 338.48,-286.48 347.56,-283.83 356.27,-281.31"/>
<polygon fill="midnightblue" stroke="midnightblue" points="357.24,-284.67 365.88,-278.54 355.3,-277.95 357.24,-284.67"/>
</g>
<!-- Node29&#45;&gt;Node19 -->
<g id="edge35" class="edge">
<title>Node29&#45;&gt;Node19</title>
<path fill="none" stroke="midnightblue" d="M270.87,-331.56C292.62,-335.87 318.48,-340.98 341.29,-345.49"/>
<polygon fill="midnightblue" stroke="midnightblue" points="340.7,-348.94 351.19,-347.45 342.06,-342.07 340.7,-348.94"/>
</g>
<!-- Node30 -->
<g id="node30" class="node">
<title>Node30</title>
<g id="a_node30"><a xlink:href="structquala_1_1LBFGSStorage.html#a48072fa680a2364d8ce96eb84a5d5689" target="_top" xlink:title="Re&#45;allocate storage for a problem with a different size.">
<polygon fill="white" stroke="black" points="341,-298 341,-328 460,-328 460,-298 341,-298"/>
<text text-anchor="start" x="349" y="-316" font-family="Helvetica,sans-Serif" font-size="10.00">quala::LBFGSStorage</text>
<text text-anchor="middle" x="400.5" y="-305" font-family="Helvetica,sans-Serif" font-size="10.00">::resize</text>
</a>
</g>
</g>
<!-- Node29&#45;&gt;Node30 -->
<g id="edge36" class="edge">
<title>Node29&#45;&gt;Node30</title>
<path fill="none" stroke="midnightblue" d="M279.97,-319.08C296.1,-318.26 313.81,-317.36 330.54,-316.51"/>
<polygon fill="midnightblue" stroke="midnightblue" points="331,-319.99 340.8,-315.98 330.64,-313 331,-319.99"/>
</g>
<!-- Node30&#45;&gt;Node9 -->
<g id="edge37" class="edge">
<title>Node30&#45;&gt;Node9</title>
<path fill="none" stroke="midnightblue" d="M444.23,-328.07C453.11,-331.28 462.38,-334.7 471,-338 493.46,-346.59 518.22,-356.56 538.88,-365.03"/>
<polygon fill="midnightblue" stroke="midnightblue" points="537.77,-368.36 548.35,-368.92 540.43,-361.88 537.77,-368.36"/>
</g>
<!-- Node30&#45;&gt;Node14 -->
<g id="edge38" class="edge">
<title>Node30&#45;&gt;Node14</title>
<path fill="none" stroke="midnightblue" d="M460.22,-315.98C514.88,-320.47 597.66,-331.74 664,-360 696.32,-373.77 728.2,-399.57 747.11,-416.52"/>
<polygon fill="midnightblue" stroke="midnightblue" points="744.88,-419.22 754.62,-423.39 749.61,-414.06 744.88,-419.22"/>
</g>
<!-- Node31&#45;&gt;Node8 -->
<g id="edge40" class="edge">
<title>Node31&#45;&gt;Node8</title>
<path fill="none" stroke="midnightblue" d="M262.12,-438.49C272.57,-435.71 283.78,-432.47 294,-429 310.41,-423.43 313.61,-419.63 330,-414 336.83,-411.65 344.12,-409.4 351.31,-407.31"/>
<polygon fill="midnightblue" stroke="midnightblue" points="352.32,-410.66 361,-404.58 350.42,-403.93 352.32,-410.66"/>
</g>
<!-- Node32 -->
<g id="node32" class="node">
<title>Node32</title>
<g id="a_node32"><a xlink:href="classquala_1_1LBFGS.html#aebac2ec4461761a48a7284152a8217f8" target="_top" xlink:title=" ">
<polygon fill="white" stroke="black" points="354,-461.5 354,-480.5 447,-480.5 447,-461.5 354,-461.5"/>
<text text-anchor="middle" x="400.5" y="-468.5" font-family="Helvetica,sans-Serif" font-size="10.00">quala::LBFGS::y</text>
</a>
</g>
</g>
<!-- Node31&#45;&gt;Node32 -->
<g id="edge41" class="edge">
<title>Node31&#45;&gt;Node32</title>
<path fill="none" stroke="midnightblue" d="M283.91,-455.98C303.38,-458.51 324.78,-461.29 343.82,-463.76"/>
<polygon fill="midnightblue" stroke="midnightblue" points="343.46,-467.25 353.83,-465.07 344.36,-460.31 343.46,-467.25"/>
</g>
<!-- Node34 -->
<g id="node34" class="node">
<title>Node34</title>
<g id="a_node34"><a xlink:href="classquala_1_1LBFGS.html#acade3dc51f7ca788be9b91908b2e73ab" target="_top" xlink:title=" ">
<polygon fill="white" stroke="black" points="354,-423.5 354,-442.5 447,-442.5 447,-423.5 354,-423.5"/>
<text text-anchor="middle" x="400.5" y="-430.5" font-family="Helvetica,sans-Serif" font-size="10.00">quala::LBFGS::ρ</text>
</a>
</g>
</g>
<!-- Node31&#45;&gt;Node34 -->
<g id="edge44" class="edge">
<title>Node31&#45;&gt;Node34</title>
<path fill="none" stroke="midnightblue" d="M283.91,-442.8C303.38,-441.15 324.78,-439.33 343.82,-437.72"/>
<polygon fill="midnightblue" stroke="midnightblue" points="344.16,-441.2 353.83,-436.87 343.57,-434.23 344.16,-441.2"/>
</g>
<!-- Node33 -->
<g id="node33" class="node">
<title>Node33</title>
<g id="a_node33"><a xlink:href="structquala_1_1LBFGSStorage.html#aebac2ec4461761a48a7284152a8217f8" target="_top" xlink:title=" ">
<polygon fill="white" stroke="black" points="520,-461.5 520,-480.5 651,-480.5 651,-461.5 520,-461.5"/>
<text text-anchor="middle" x="585.5" y="-468.5" font-family="Helvetica,sans-Serif" font-size="10.00">quala::LBFGSStorage::y</text>
</a>
</g>
</g>
<!-- Node32&#45;&gt;Node33 -->
<g id="edge42" class="edge">
<title>Node32&#45;&gt;Node33</title>
<path fill="none" stroke="midnightblue" d="M447.21,-471C466.04,-471 488.36,-471 509.47,-471"/>
<polygon fill="midnightblue" stroke="midnightblue" points="509.71,-474.5 519.71,-471 509.71,-467.5 509.71,-474.5"/>
</g>
<!-- Node33&#45;&gt;Node14 -->
<g id="edge43" class="edge">
<title>Node33&#45;&gt;Node14</title>
<path fill="none" stroke="midnightblue" d="M631.42,-461.41C655.33,-456.31 684.92,-449.99 710.12,-444.61"/>
<polygon fill="midnightblue" stroke="midnightblue" points="710.86,-448.03 719.91,-442.52 709.4,-441.19 710.86,-448.03"/>
</g>
<!-- Node35 -->
<g id="node35" class="node">
<title>Node35</title>
<g id="a_node35"><a xlink:href="structquala_1_1LBFGSStorage.html#acade3dc51f7ca788be9b91908b2e73ab" target="_top" xlink:title=" ">
<polygon fill="white" stroke="black" points="520,-423.5 520,-442.5 651,-442.5 651,-423.5 520,-423.5"/>
<text text-anchor="middle" x="585.5" y="-430.5" font-family="Helvetica,sans-Serif" font-size="10.00">quala::LBFGSStorage::ρ</text>
</a>
</g>
</g>
<!-- Node34&#45;&gt;Node35 -->
<g id="edge45" class="edge">
<title>Node34&#45;&gt;Node35</title>
<path fill="none" stroke="midnightblue" d="M447.21,-433C466.04,-433 488.36,-433 509.47,-433"/>
<polygon fill="midnightblue" stroke="midnightblue" points="509.71,-436.5 519.71,-433 509.71,-429.5 509.71,-436.5"/>
</g>
<!-- Node35&#45;&gt;Node14 -->
<g id="edge46" class="edge">
<title>Node35&#45;&gt;Node14</title>
<path fill="none" stroke="midnightblue" d="M651.01,-433C663.57,-433 676.84,-433 689.7,-433"/>
<polygon fill="midnightblue" stroke="midnightblue" points="689.91,-436.5 699.91,-433 689.91,-429.5 689.91,-436.5"/>
</g>
<!-- Node37 -->
<g id="node37" class="node">
<title>Node37</title>
<g id="a_node37"><a xlink:href="classquala_1_1LBFGS.html#ac7c2ee7d2562303f555dd1f4c3fca8cd" target="_top" xlink:title=" ">
<polygon fill="white" stroke="black" points="353.5,-499.5 353.5,-518.5 447.5,-518.5 447.5,-499.5 353.5,-499.5"/>
<text text-anchor="middle" x="400.5" y="-506.5" font-family="Helvetica,sans-Serif" font-size="10.00">quala::LBFGS::α</text>
</a>
</g>
</g>
<!-- Node36&#45;&gt;Node37 -->
<g id="edge48" class="edge">
<title>Node36&#45;&gt;Node37</title>
<path fill="none" stroke="midnightblue" d="M282.42,-504.37C302.06,-505.15 323.8,-506.01 343.17,-506.77"/>
<polygon fill="midnightblue" stroke="midnightblue" points="343.22,-510.28 353.35,-507.17 343.5,-503.28 343.22,-510.28"/>
</g>
<!-- Node38 -->
<g id="node38" class="node">
<title>Node38</title>
<g id="a_node38"><a xlink:href="structquala_1_1LBFGSStorage.html#ac7c2ee7d2562303f555dd1f4c3fca8cd" target="_top" xlink:title=" ">
<polygon fill="white" stroke="black" points="520,-499.5 520,-518.5 651,-518.5 651,-499.5 520,-499.5"/>
<text text-anchor="middle" x="585.5" y="-506.5" font-family="Helvetica,sans-Serif" font-size="10.00">quala::LBFGSStorage::α</text>
</a>
</g>
</g>
<!-- Node37&#45;&gt;Node38 -->
<g id="edge49" class="edge">
<title>Node37&#45;&gt;Node38</title>
<path fill="none" stroke="midnightblue" d="M447.68,-509C466.42,-509 488.56,-509 509.51,-509"/>
<polygon fill="midnightblue" stroke="midnightblue" points="509.68,-512.5 519.68,-509 509.68,-505.5 509.68,-512.5"/>
</g>
<!-- Node38&#45;&gt;Node14 -->
<g id="edge50" class="edge">
<title>Node38&#45;&gt;Node14</title>
<path fill="none" stroke="midnightblue" d="M634.28,-499.48C644.26,-496.88 654.6,-493.73 664,-490 692.16,-478.81 722.09,-460.98 741.88,-448.24"/>
<polygon fill="midnightblue" stroke="midnightblue" points="744.03,-451.02 750.48,-442.62 740.2,-445.16 744.03,-451.02"/>
</g>
</g>
</svg>
