<?xml version="1.0" encoding="UTF-8" standalone="no"?>
<!DOCTYPE svg PUBLIC "-//W3C//DTD SVG 1.1//EN"
 "http://www.w3.org/Graphics/SVG/1.1/DTD/svg11.dtd">
<!-- Generated by graphviz version 2.43.0 (0)
 -->
<!-- Title: α Pages: 1 -->
<svg width="654pt" height="110pt"
 viewBox="0.00 0.00 654.00 110.00" xmlns="http://www.w3.org/2000/svg" xmlns:xlink="http://www.w3.org/1999/xlink">
<g id="graph0" class="graph" transform="scale(1 1) rotate(0) translate(4 106)">
<title>α</title>
<polygon fill="white" stroke="transparent" points="-4,4 -4,-106 650,-106 650,4 -4,4"/>
<!-- Node1 -->
<g id="node1" class="node">
<title>Node1</title>
<g id="a_node1"><a xlink:title=" ">
<polygon fill="#bfbfbf" stroke="black" points="617,-60.5 617,-79.5 646,-79.5 646,-60.5 617,-60.5"/>
<text text-anchor="middle" x="631.5" y="-67.5" font-family="Helvetica,sans-Serif" font-size="10.00">α</text>
</a>
</g>
</g>
<!-- Node2 -->
<g id="node2" class="node">
<title>Node2</title>
<g id="a_node2"><a xlink:href="classquala_1_1LBFGS.html#ac7c2ee7d2562303f555dd1f4c3fca8cd" target="_top" xlink:title=" ">
<polygon fill="white" stroke="black" points="487,-60.5 487,-79.5 581,-79.5 581,-60.5 487,-60.5"/>
<text text-anchor="middle" x="534" y="-67.5" font-family="Helvetica,sans-Serif" font-size="10.00">quala::LBFGS::α</text>
</a>
</g>
</g>
<!-- Node1&#45;&gt;Node2 -->
<g id="edge1" class="edge">
<title>Node1&#45;&gt;Node2</title>
<path fill="none" stroke="midnightblue" d="M606.67,-70C598.87,-70 589.91,-70 581.03,-70"/>
<polygon fill="midnightblue" stroke="midnightblue" points="606.82,-73.5 616.82,-70 606.82,-66.5 606.82,-73.5"/>
</g>
<!-- Node3 -->
<g id="node3" class="node">
<title>Node3</title>
<g id="a_node3"><a xlink:href="classquala_1_1LBFGS.html#af3b5886c46c3f50fae33990afcc47f12" target="_top" xlink:title="Apply the inverse Hessian approximation to the given vector q.">
<polygon fill="white" stroke="black" points="333.5,-82.5 333.5,-101.5 447.5,-101.5 447.5,-82.5 333.5,-82.5"/>
<text text-anchor="middle" x="390.5" y="-89.5" font-family="Helvetica,sans-Serif" font-size="10.00">quala::LBFGS::apply</text>
</a>
</g>
</g>
<!-- Node2&#45;&gt;Node3 -->
<g id="edge2" class="edge">
<title>Node2&#45;&gt;Node3</title>
<path fill="none" stroke="midnightblue" d="M476.5,-78.78C466.97,-80.27 457.08,-81.8 447.56,-83.28"/>
<polygon fill="midnightblue" stroke="midnightblue" points="477.32,-82.2 486.67,-77.2 476.25,-75.28 477.32,-82.2"/>
</g>
<!-- Node4 -->
<g id="node4" class="node">
<title>Node4</title>
<g id="a_node4"><a xlink:href="classquala_1_1LBFGS.html#a1109c880f1969f61532c94c19122e927" target="_top" xlink:title="Check if the new vectors s and y allow for a valid BFGS update that preserves the positive definitene...">
<polygon fill="white" stroke="black" points="330,-33 330,-63 451,-63 451,-33 330,-33"/>
<text text-anchor="start" x="338" y="-51" font-family="Helvetica,sans-Serif" font-size="10.00">quala::LBFGS::update</text>
<text text-anchor="middle" x="390.5" y="-40" font-family="Helvetica,sans-Serif" font-size="10.00">_valid</text>
</a>
</g>
</g>
<!-- Node2&#45;&gt;Node4 -->
<g id="edge3" class="edge">
<title>Node2&#45;&gt;Node4</title>
<path fill="none" stroke="midnightblue" d="M476.61,-61.23C468.21,-59.93 459.54,-58.58 451.09,-57.26"/>
<polygon fill="midnightblue" stroke="midnightblue" points="476.25,-64.72 486.67,-62.8 477.32,-57.8 476.25,-64.72"/>
</g>
<!-- Node5 -->
<g id="node5" class="node">
<title>Node5</title>
<g id="a_node5"><a xlink:href="classquala_1_1LBFGS.html#a0e0ce3dda38d6f64657929adcf05e2c8" target="_top" xlink:title="Apply the inverse Hessian approximation to the given vector q, applying only the columns and rows of ...">
<polygon fill="white" stroke="black" points="168.5,-76.5 168.5,-95.5 282.5,-95.5 282.5,-76.5 168.5,-76.5"/>
<text text-anchor="middle" x="225.5" y="-83.5" font-family="Helvetica,sans-Serif" font-size="10.00">quala::LBFGS::apply</text>
</a>
</g>
</g>
<!-- Node4&#45;&gt;Node5 -->
<g id="edge4" class="edge">
<title>Node4&#45;&gt;Node5</title>
<path fill="none" stroke="midnightblue" d="M319.89,-64.23C302,-68.4 283.33,-72.75 267.43,-76.46"/>
<polygon fill="midnightblue" stroke="midnightblue" points="320.79,-67.61 329.73,-61.93 319.2,-60.8 320.79,-67.61"/>
</g>
<!-- Node6 -->
<g id="node6" class="node">
<title>Node6</title>
<g id="a_node6"><a xlink:href="quala_8cpp.html#a12fb4e87da488d1fc7c6fa3e6a3adb90" target="_top" xlink:title=" ">
<polygon fill="white" stroke="black" points="169,-38.5 169,-57.5 282,-57.5 282,-38.5 169,-38.5"/>
<text text-anchor="middle" x="225.5" y="-45.5" font-family="Helvetica,sans-Serif" font-size="10.00">PYBIND11_MODULE</text>
</a>
</g>
</g>
<!-- Node4&#45;&gt;Node6 -->
<g id="edge5" class="edge">
<title>Node4&#45;&gt;Node6</title>
<path fill="none" stroke="midnightblue" d="M319.4,-48C306.96,-48 294.17,-48 282.2,-48"/>
<polygon fill="midnightblue" stroke="midnightblue" points="319.73,-51.5 329.73,-48 319.73,-44.5 319.73,-51.5"/>
</g>
<!-- Node7 -->
<g id="node7" class="node">
<title>Node7</title>
<g id="a_node7"><a xlink:href="classquala_1_1LBFGS.html#aa54be34168109d2e4995711cbd5f5ad8" target="_top" xlink:title="Update the inverse Hessian approximation using the new vectors sₖ = xₖ₊₁ &#45; xₖ and yₖ = pₖ₊₁ &#45; pₖ.">
<polygon fill="white" stroke="black" points="157,-0.5 157,-19.5 294,-19.5 294,-0.5 157,-0.5"/>
<text text-anchor="middle" x="225.5" y="-7.5" font-family="Helvetica,sans-Serif" font-size="10.00">quala::LBFGS::update_sy</text>
</a>
</g>
</g>
<!-- Node4&#45;&gt;Node7 -->
<g id="edge6" class="edge">
<title>Node4&#45;&gt;Node7</title>
<path fill="none" stroke="midnightblue" d="M319.89,-31.77C302,-27.6 283.33,-23.25 267.43,-19.54"/>
<polygon fill="midnightblue" stroke="midnightblue" points="319.2,-35.2 329.73,-34.07 320.79,-28.39 319.2,-35.2"/>
</g>
<!-- Node8 -->
<g id="node8" class="node">
<title>Node8</title>
<g id="a_node8"><a xlink:href="classquala_1_1LBFGS.html#aa32c5f2c6818c5d54b9fcd1c019a4e1d" target="_top" xlink:title="Update the inverse Hessian approximation using the new vectors xₖ₊₁ and pₖ₊₁.">
<polygon fill="white" stroke="black" points="0,-0.5 0,-19.5 121,-19.5 121,-0.5 0,-0.5"/>
<text text-anchor="middle" x="60.5" y="-7.5" font-family="Helvetica,sans-Serif" font-size="10.00">quala::LBFGS::update</text>
</a>
</g>
</g>
<!-- Node7&#45;&gt;Node8 -->
<g id="edge7" class="edge">
<title>Node7&#45;&gt;Node8</title>
<path fill="none" stroke="midnightblue" d="M146.75,-10C138.17,-10 129.52,-10 121.2,-10"/>
<polygon fill="midnightblue" stroke="midnightblue" points="146.79,-13.5 156.79,-10 146.79,-6.5 146.79,-13.5"/>
</g>
</g>
</svg>
