<?xml version="1.0" encoding="UTF-8" standalone="no"?>
<!DOCTYPE svg PUBLIC "-//W3C//DTD SVG 1.1//EN"
 "http://www.w3.org/Graphics/SVG/1.1/DTD/svg11.dtd">
<!-- Generated by graphviz version 2.43.0 (0)
 -->
<!-- Title: resize Pages: 1 -->
<svg width="358pt" height="78pt"
 viewBox="0.00 0.00 358.00 77.50" xmlns="http://www.w3.org/2000/svg" xmlns:xlink="http://www.w3.org/1999/xlink">
<g id="graph0" class="graph" transform="scale(1 1) rotate(0) translate(4 73.5)">
<title>resize</title>
<polygon fill="white" stroke="transparent" points="-4,4 -4,-73.5 354,-73.5 354,4 -4,4"/>
<!-- Node1 -->
<g id="node1" class="node">
<title>Node1</title>
<g id="a_node1"><a xlink:title="Re&#45;allocate storage for a problem with a different size.">
<polygon fill="#bfbfbf" stroke="black" points="304,-22.5 304,-41.5 350,-41.5 350,-22.5 304,-22.5"/>
<text text-anchor="middle" x="327" y="-29.5" font-family="Helvetica,sans-Serif" font-size="10.00">resize</text>
</a>
</g>
</g>
<!-- Node2 -->
<g id="node2" class="node">
<title>Node2</title>
<g id="a_node2"><a xlink:href="classquala_1_1BroydenGood.html#abfe51417fbebd259808f86d27f1d7ec5" target="_top" xlink:title="Re&#45;allocate storage for a problem with a different size.">
<polygon fill="white" stroke="black" points="152,-17 152,-47 268,-47 268,-17 152,-17"/>
<text text-anchor="start" x="160" y="-35" font-family="Helvetica,sans-Serif" font-size="10.00">quala::BroydenGood</text>
<text text-anchor="middle" x="210" y="-24" font-family="Helvetica,sans-Serif" font-size="10.00">::resize</text>
</a>
</g>
</g>
<!-- Node1&#45;&gt;Node2 -->
<g id="edge1" class="edge">
<title>Node1&#45;&gt;Node2</title>
<path fill="none" stroke="midnightblue" d="M293.65,-32C285.77,-32 277.11,-32 268.46,-32"/>
<polygon fill="midnightblue" stroke="midnightblue" points="293.83,-35.5 303.83,-32 293.83,-28.5 293.83,-35.5"/>
</g>
<!-- Node3 -->
<g id="node3" class="node">
<title>Node3</title>
<g id="a_node3"><a xlink:href="classquala_1_1BroydenGood.html#af204bb3e018606122259767df4348cef" target="_top" xlink:title=" ">
<polygon fill="white" stroke="black" points="0,-39 0,-69 116,-69 116,-39 0,-39"/>
<text text-anchor="start" x="8" y="-57" font-family="Helvetica,sans-Serif" font-size="10.00">quala::BroydenGood</text>
<text text-anchor="middle" x="58" y="-46" font-family="Helvetica,sans-Serif" font-size="10.00">::BroydenGood</text>
</a>
</g>
</g>
<!-- Node2&#45;&gt;Node3 -->
<g id="edge2" class="edge">
<title>Node2&#45;&gt;Node3</title>
<path fill="none" stroke="midnightblue" d="M141.97,-41.83C133.46,-43.08 124.81,-44.35 116.47,-45.57"/>
<polygon fill="midnightblue" stroke="midnightblue" points="142.48,-45.29 151.86,-40.38 141.46,-38.37 142.48,-45.29"/>
</g>
<!-- Node4 -->
<g id="node4" class="node">
<title>Node4</title>
<g id="a_node4"><a xlink:href="quala_8cpp.html#a12fb4e87da488d1fc7c6fa3e6a3adb90" target="_top" xlink:title=" ">
<polygon fill="white" stroke="black" points="1.5,-0.5 1.5,-19.5 114.5,-19.5 114.5,-0.5 1.5,-0.5"/>
<text text-anchor="middle" x="58" y="-7.5" font-family="Helvetica,sans-Serif" font-size="10.00">PYBIND11_MODULE</text>
</a>
</g>
</g>
<!-- Node2&#45;&gt;Node4 -->
<g id="edge3" class="edge">
<title>Node2&#45;&gt;Node4</title>
<path fill="none" stroke="midnightblue" d="M141.83,-22.15C132.86,-20.83 123.74,-19.49 114.99,-18.21"/>
<polygon fill="midnightblue" stroke="midnightblue" points="141.46,-25.63 151.86,-23.62 142.48,-18.71 141.46,-25.63"/>
</g>
</g>
</svg>
