<?xml version="1.0" encoding="UTF-8" standalone="no"?>
<!DOCTYPE svg PUBLIC "-//W3C//DTD SVG 1.1//EN"
 "http://www.w3.org/Graphics/SVG/1.1/DTD/svg11.dtd">
<!-- Generated by graphviz version 2.43.0 (0)
 -->
<!-- Title: history Pages: 1 -->
<svg width="666pt" height="302pt"
 viewBox="0.00 0.00 666.00 301.73" xmlns="http://www.w3.org/2000/svg" xmlns:xlink="http://www.w3.org/1999/xlink">
<g id="graph0" class="graph" transform="scale(1 1) rotate(0) translate(4 297.73)">
<title>history</title>
<polygon fill="white" stroke="transparent" points="-4,4 -4,-297.73 662,-297.73 662,4 -4,4"/>
<!-- Node1 -->
<g id="node1" class="node">
<title>Node1</title>
<g id="a_node1"><a xlink:title="Get the number of previous vectors s and s̃ stored in the buffer.">
<polygon fill="#bfbfbf" stroke="black" points="608,-153 608,-172 658,-172 658,-153 608,-153"/>
<text text-anchor="middle" x="633" y="-160" font-family="Helvetica,sans-Serif" font-size="10.00">history</text>
</a>
</g>
</g>
<!-- Node2 -->
<g id="node2" class="node">
<title>Node2</title>
<g id="a_node2"><a xlink:href="classquala_1_1BroydenGood.html#a9cf7dcccbc3bc69a10833450ee79c623" target="_top" xlink:title="Get the number of previous vectors s and y stored in the buffer.">
<polygon fill="white" stroke="black" points="456,-147.5 456,-177.5 572,-177.5 572,-147.5 456,-147.5"/>
<text text-anchor="start" x="464" y="-165.5" font-family="Helvetica,sans-Serif" font-size="10.00">quala::BroydenGood</text>
<text text-anchor="middle" x="514" y="-154.5" font-family="Helvetica,sans-Serif" font-size="10.00">::history</text>
</a>
</g>
</g>
<!-- Node1&#45;&gt;Node2 -->
<g id="edge1" class="edge">
<title>Node1&#45;&gt;Node2</title>
<path fill="none" stroke="midnightblue" d="M597.65,-162.5C589.59,-162.5 580.79,-162.5 572.03,-162.5"/>
<polygon fill="midnightblue" stroke="midnightblue" points="597.76,-166 607.76,-162.5 597.76,-159 597.76,-166"/>
</g>
<!-- Node12 -->
<g id="node12" class="node">
<title>Node12</title>
<g id="a_node12"><a xlink:href="structquala_1_1BroydenStorage.html#a48072fa680a2364d8ce96eb84a5d5689" target="_top" xlink:title="Re&#45;allocate storage for a problem with a different size.">
<polygon fill="white" stroke="black" points="491,-58 491,-77 537,-77 537,-58 491,-58"/>
<text text-anchor="middle" x="514" y="-65" font-family="Helvetica,sans-Serif" font-size="10.00">resize</text>
</a>
</g>
</g>
<!-- Node1&#45;&gt;Node12 -->
<g id="edge12" class="edge">
<title>Node1&#45;&gt;Node12</title>
<path fill="none" stroke="midnightblue" d="M611.99,-146.26C587.51,-126.37 546.84,-93.35 526.84,-77.11"/>
<polygon fill="midnightblue" stroke="midnightblue" points="609.95,-149.1 619.92,-152.69 614.36,-143.67 609.95,-149.1"/>
</g>
<!-- Node15 -->
<g id="node15" class="node">
<title>Node15</title>
<g id="a_node15"><a xlink:href="structquala_1_1BroydenStorage.html#a1f39e0321f095347878b8e231abaa2bb" target="_top" xlink:title=" ">
<polygon fill="white" stroke="black" points="493.5,-246 493.5,-265 534.5,-265 534.5,-246 493.5,-246"/>
<text text-anchor="middle" x="514" y="-253" font-family="Helvetica,sans-Serif" font-size="10.00">work</text>
</a>
</g>
</g>
<!-- Node1&#45;&gt;Node15 -->
<g id="edge16" class="edge">
<title>Node1&#45;&gt;Node15</title>
<path fill="none" stroke="midnightblue" d="M612.04,-178.37C587.7,-197.72 547.32,-229.81 527.19,-245.81"/>
<polygon fill="midnightblue" stroke="midnightblue" points="614.27,-181.06 619.92,-172.1 609.91,-175.58 614.27,-181.06"/>
</g>
<!-- Node3 -->
<g id="node3" class="node">
<title>Node3</title>
<g id="a_node3"><a xlink:href="classquala_1_1BroydenGood.html#a3c6a2dbecc0d6f8cd90bef088c46b072" target="_top" xlink:title="Get the number of previous s and y vectors currently stored in the buffer.">
<polygon fill="white" stroke="black" points="304,-49.5 304,-79.5 420,-79.5 420,-49.5 304,-49.5"/>
<text text-anchor="start" x="312" y="-67.5" font-family="Helvetica,sans-Serif" font-size="10.00">quala::BroydenGood</text>
<text text-anchor="middle" x="362" y="-56.5" font-family="Helvetica,sans-Serif" font-size="10.00">::current_history</text>
</a>
</g>
</g>
<!-- Node2&#45;&gt;Node3 -->
<g id="edge2" class="edge">
<title>Node2&#45;&gt;Node3</title>
<path fill="none" stroke="midnightblue" d="M489.17,-140.51C471.14,-124.64 445.24,-103.47 420,-88.5 414.55,-85.27 408.59,-82.25 402.63,-79.52"/>
<polygon fill="midnightblue" stroke="midnightblue" points="487.09,-143.34 496.88,-147.39 491.75,-138.12 487.09,-143.34"/>
</g>
<!-- Node5 -->
<g id="node5" class="node">
<title>Node5</title>
<g id="a_node5"><a xlink:href="classquala_1_1BroydenGood.html#aa871b5290773b86e2e4919bbac258a04" target="_top" xlink:title="Iterate over the indices in the history buffer, oldest first.">
<polygon fill="white" stroke="black" points="304,-147.5 304,-177.5 420,-177.5 420,-147.5 304,-147.5"/>
<text text-anchor="start" x="312" y="-165.5" font-family="Helvetica,sans-Serif" font-size="10.00">quala::BroydenGood</text>
<text text-anchor="middle" x="362" y="-154.5" font-family="Helvetica,sans-Serif" font-size="10.00">::foreach_fwd</text>
</a>
</g>
</g>
<!-- Node2&#45;&gt;Node5 -->
<g id="edge4" class="edge">
<title>Node2&#45;&gt;Node5</title>
<path fill="none" stroke="midnightblue" d="M445.69,-162.5C437.27,-162.5 428.72,-162.5 420.47,-162.5"/>
<polygon fill="midnightblue" stroke="midnightblue" points="445.86,-166 455.86,-162.5 445.86,-159 445.86,-166"/>
</g>
<!-- Node9 -->
<g id="node9" class="node">
<title>Node9</title>
<g id="a_node9"><a xlink:href="classquala_1_1BroydenGood.html#a0804b751cf2035a35f24762474f62cbf" target="_top" xlink:title="Iterate over the indices in the history buffer, newest first.">
<polygon fill="white" stroke="black" points="304,-98.5 304,-128.5 420,-128.5 420,-98.5 304,-98.5"/>
<text text-anchor="start" x="312" y="-116.5" font-family="Helvetica,sans-Serif" font-size="10.00">quala::BroydenGood</text>
<text text-anchor="middle" x="362" y="-105.5" font-family="Helvetica,sans-Serif" font-size="10.00">::foreach_rev</text>
</a>
</g>
</g>
<!-- Node2&#45;&gt;Node9 -->
<g id="edge8" class="edge">
<title>Node2&#45;&gt;Node9</title>
<path fill="none" stroke="midnightblue" d="M457.1,-144.24C441.28,-139.07 424.25,-133.51 409.08,-128.55"/>
<polygon fill="midnightblue" stroke="midnightblue" points="456.18,-147.62 466.77,-147.4 458.35,-140.97 456.18,-147.62"/>
</g>
<!-- Node10 -->
<g id="node10" class="node">
<title>Node10</title>
<g id="a_node10"><a xlink:href="classquala_1_1BroydenGood.html#a71f7f5e949a948d578ae6f145e4c4914" target="_top" xlink:title="Get the previous index in the circular buffer of s and y vectors.">
<polygon fill="white" stroke="black" points="304,-245.5 304,-275.5 420,-275.5 420,-245.5 304,-245.5"/>
<text text-anchor="start" x="312" y="-263.5" font-family="Helvetica,sans-Serif" font-size="10.00">quala::BroydenGood</text>
<text text-anchor="middle" x="362" y="-252.5" font-family="Helvetica,sans-Serif" font-size="10.00">::pred</text>
</a>
</g>
</g>
<!-- Node2&#45;&gt;Node10 -->
<g id="edge9" class="edge">
<title>Node2&#45;&gt;Node10</title>
<path fill="none" stroke="midnightblue" d="M488.73,-184.34C470.65,-199.9 444.89,-220.6 420,-235.5 414.07,-239.05 407.54,-242.39 401.08,-245.4"/>
<polygon fill="midnightblue" stroke="midnightblue" points="491.23,-186.81 496.46,-177.6 486.63,-181.53 491.23,-186.81"/>
</g>
<!-- Node11 -->
<g id="node11" class="node">
<title>Node11</title>
<g id="a_node11"><a xlink:href="classquala_1_1BroydenGood.html#a70926baed7362e4fcce66523bb8e2842" target="_top" xlink:title="Get the next index in the circular buffer of previous s and y vectors.">
<polygon fill="white" stroke="black" points="304,-196.5 304,-226.5 420,-226.5 420,-196.5 304,-196.5"/>
<text text-anchor="start" x="312" y="-214.5" font-family="Helvetica,sans-Serif" font-size="10.00">quala::BroydenGood</text>
<text text-anchor="middle" x="362" y="-203.5" font-family="Helvetica,sans-Serif" font-size="10.00">::succ</text>
</a>
</g>
</g>
<!-- Node2&#45;&gt;Node11 -->
<g id="edge10" class="edge">
<title>Node2&#45;&gt;Node11</title>
<path fill="none" stroke="midnightblue" d="M457.1,-180.76C441.28,-185.93 424.25,-191.49 409.08,-196.45"/>
<polygon fill="midnightblue" stroke="midnightblue" points="458.35,-184.03 466.77,-177.6 456.18,-177.38 458.35,-184.03"/>
</g>
<!-- Node4 -->
<g id="node4" class="node">
<title>Node4</title>
<g id="a_node4"><a xlink:href="quala_8cpp.html#a12fb4e87da488d1fc7c6fa3e6a3adb90" target="_top" xlink:title=" ">
<polygon fill="white" stroke="black" points="153.5,-53 153.5,-72 266.5,-72 266.5,-53 153.5,-53"/>
<text text-anchor="middle" x="210" y="-60" font-family="Helvetica,sans-Serif" font-size="10.00">PYBIND11_MODULE</text>
</a>
</g>
</g>
<!-- Node3&#45;&gt;Node4 -->
<g id="edge3" class="edge">
<title>Node3&#45;&gt;Node4</title>
<path fill="none" stroke="midnightblue" d="M293.83,-63.6C284.86,-63.48 275.74,-63.36 266.99,-63.25"/>
<polygon fill="midnightblue" stroke="midnightblue" points="293.82,-67.1 303.86,-63.74 293.91,-60.11 293.82,-67.1"/>
</g>
<!-- Node6 -->
<g id="node6" class="node">
<title>Node6</title>
<g id="a_node6"><a xlink:href="classquala_1_1BroydenGood.html#a4b68ea86da3de0ae00aa1d865156833a" target="_top" xlink:title="Apply the inverse Jacobian approximation to the given vector q, i.e.">
<polygon fill="white" stroke="black" points="152,-147.5 152,-177.5 268,-177.5 268,-147.5 152,-147.5"/>
<text text-anchor="start" x="160" y="-165.5" font-family="Helvetica,sans-Serif" font-size="10.00">quala::BroydenGood</text>
<text text-anchor="middle" x="210" y="-154.5" font-family="Helvetica,sans-Serif" font-size="10.00">::apply</text>
</a>
</g>
</g>
<!-- Node5&#45;&gt;Node6 -->
<g id="edge5" class="edge">
<title>Node5&#45;&gt;Node6</title>
<path fill="none" stroke="midnightblue" d="M293.69,-162.5C285.27,-162.5 276.72,-162.5 268.47,-162.5"/>
<polygon fill="midnightblue" stroke="midnightblue" points="293.86,-166 303.86,-162.5 293.86,-159 293.86,-166"/>
</g>
<!-- Node7 -->
<g id="node7" class="node">
<title>Node7</title>
<g id="a_node7"><a xlink:href="classquala_1_1BroydenGood.html#ad2320a49a7db3abb42d0c621a6a932bd" target="_top" xlink:title="Update the inverse Jacobian approximation using the new vectors sₖ = xₖ₊₁ &#45; xₖ and yₖ = pₖ₊₁ &#45; pₖ.">
<polygon fill="white" stroke="black" points="152,-196.5 152,-226.5 268,-226.5 268,-196.5 152,-196.5"/>
<text text-anchor="start" x="160" y="-214.5" font-family="Helvetica,sans-Serif" font-size="10.00">quala::BroydenGood</text>
<text text-anchor="middle" x="210" y="-203.5" font-family="Helvetica,sans-Serif" font-size="10.00">::update_sy</text>
</a>
</g>
</g>
<!-- Node5&#45;&gt;Node7 -->
<g id="edge6" class="edge">
<title>Node5&#45;&gt;Node7</title>
<path fill="none" stroke="midnightblue" d="M305.1,-180.76C289.28,-185.93 272.25,-191.49 257.08,-196.45"/>
<polygon fill="midnightblue" stroke="midnightblue" points="306.35,-184.03 314.77,-177.6 304.18,-177.38 306.35,-184.03"/>
</g>
<!-- Node8 -->
<g id="node8" class="node">
<title>Node8</title>
<g id="a_node8"><a xlink:href="classquala_1_1BroydenGood.html#a1380d11b100437c5d8d8fc21be5ea7b6" target="_top" xlink:title="Update the inverse Jacobian approximation using the new vectors xₖ₊₁ and pₖ₊₁.">
<polygon fill="white" stroke="black" points="0,-196.5 0,-226.5 116,-226.5 116,-196.5 0,-196.5"/>
<text text-anchor="start" x="8" y="-214.5" font-family="Helvetica,sans-Serif" font-size="10.00">quala::BroydenGood</text>
<text text-anchor="middle" x="58" y="-203.5" font-family="Helvetica,sans-Serif" font-size="10.00">::update</text>
</a>
</g>
</g>
<!-- Node7&#45;&gt;Node8 -->
<g id="edge7" class="edge">
<title>Node7&#45;&gt;Node8</title>
<path fill="none" stroke="midnightblue" d="M141.69,-211.5C133.27,-211.5 124.72,-211.5 116.47,-211.5"/>
<polygon fill="midnightblue" stroke="midnightblue" points="141.86,-215 151.86,-211.5 141.86,-208 141.86,-215"/>
</g>
<!-- Node11&#45;&gt;Node7 -->
<g id="edge11" class="edge">
<title>Node11&#45;&gt;Node7</title>
<path fill="none" stroke="midnightblue" d="M293.69,-211.5C285.27,-211.5 276.72,-211.5 268.47,-211.5"/>
<polygon fill="midnightblue" stroke="midnightblue" points="293.86,-215 303.86,-211.5 293.86,-208 293.86,-215"/>
</g>
<!-- Node13 -->
<g id="node13" class="node">
<title>Node13</title>
<g id="a_node13"><a xlink:href="classquala_1_1BroydenGood.html#abfe51417fbebd259808f86d27f1d7ec5" target="_top" xlink:title="Re&#45;allocate storage for a problem with a different size.">
<polygon fill="white" stroke="black" points="304,-0.5 304,-30.5 420,-30.5 420,-0.5 304,-0.5"/>
<text text-anchor="start" x="312" y="-18.5" font-family="Helvetica,sans-Serif" font-size="10.00">quala::BroydenGood</text>
<text text-anchor="middle" x="362" y="-7.5" font-family="Helvetica,sans-Serif" font-size="10.00">::resize</text>
</a>
</g>
</g>
<!-- Node12&#45;&gt;Node13 -->
<g id="edge13" class="edge">
<title>Node12&#45;&gt;Node13</title>
<path fill="none" stroke="midnightblue" d="M481.42,-56.55C459.61,-48.99 430.32,-38.84 406.34,-30.52"/>
<polygon fill="midnightblue" stroke="midnightblue" points="480.27,-59.86 490.87,-59.83 482.57,-53.24 480.27,-59.86"/>
</g>
<!-- Node13&#45;&gt;Node4 -->
<g id="edge15" class="edge">
<title>Node13&#45;&gt;Node4</title>
<path fill="none" stroke="midnightblue" d="M303.58,-33.49C282.43,-40.12 259.3,-47.36 241.46,-52.96"/>
<polygon fill="midnightblue" stroke="midnightblue" points="304.63,-36.83 313.13,-30.5 302.54,-30.15 304.63,-36.83"/>
</g>
<!-- Node14 -->
<g id="node14" class="node">
<title>Node14</title>
<g id="a_node14"><a xlink:href="classquala_1_1BroydenGood.html#af204bb3e018606122259767df4348cef" target="_top" xlink:title=" ">
<polygon fill="white" stroke="black" points="152,-0.5 152,-30.5 268,-30.5 268,-0.5 152,-0.5"/>
<text text-anchor="start" x="160" y="-18.5" font-family="Helvetica,sans-Serif" font-size="10.00">quala::BroydenGood</text>
<text text-anchor="middle" x="210" y="-7.5" font-family="Helvetica,sans-Serif" font-size="10.00">::BroydenGood</text>
</a>
</g>
</g>
<!-- Node13&#45;&gt;Node14 -->
<g id="edge14" class="edge">
<title>Node13&#45;&gt;Node14</title>
<path fill="none" stroke="midnightblue" d="M293.69,-15.5C285.27,-15.5 276.72,-15.5 268.47,-15.5"/>
<polygon fill="midnightblue" stroke="midnightblue" points="293.86,-19 303.86,-15.5 293.86,-12 293.86,-19"/>
</g>
<!-- Node15&#45;&gt;Node7 -->
<g id="edge17" class="edge">
<title>Node15&#45;&gt;Node7</title>
<path fill="none" stroke="midnightblue" d="M483.99,-267.79C442.86,-283.38 365.73,-305.83 304,-284.5 270.83,-273.04 240.48,-244.32 223.98,-226.51"/>
<polygon fill="midnightblue" stroke="midnightblue" points="485.37,-271.01 493.4,-264.1 482.81,-264.49 485.37,-271.01"/>
</g>
</g>
</svg>
