<?xml version="1.0" encoding="UTF-8" standalone="no"?>
<!DOCTYPE svg PUBLIC "-//W3C//DTD SVG 1.1//EN"
 "http://www.w3.org/Graphics/SVG/1.1/DTD/svg11.dtd">
<!-- Generated by graphviz version 2.43.0 (0)
 -->
<!-- Title: vec.hpp Pages: 1 -->
<svg width="356pt" height="308pt"
 viewBox="0.00 0.00 355.50 308.00" xmlns="http://www.w3.org/2000/svg" xmlns:xlink="http://www.w3.org/1999/xlink">
<g id="graph0" class="graph" transform="scale(1 1) rotate(0) translate(4 304)">
<title>vec.hpp</title>
<polygon fill="white" stroke="transparent" points="-4,4 -4,-304 351.5,-304 351.5,4 -4,4"/>
<!-- Node1 -->
<g id="node1" class="node">
<title>Node1</title>
<g id="a_node1"><a xlink:title=" ">
<polygon fill="#bfbfbf" stroke="black" points="97,-280.5 97,-299.5 152,-299.5 152,-280.5 97,-280.5"/>
<text text-anchor="middle" x="124.5" y="-287.5" font-family="Helvetica,sans-Serif" font-size="10.00">vec.hpp</text>
</a>
</g>
</g>
<!-- Node2 -->
<g id="node2" class="node">
<title>Node2</title>
<g id="a_node2"><a xlink:href="alloc_8hpp.html" target="_top" xlink:title=" ">
<polygon fill="white" stroke="black" points="6,-224.5 6,-243.5 67,-243.5 67,-224.5 6,-224.5"/>
<text text-anchor="middle" x="36.5" y="-231.5" font-family="Helvetica,sans-Serif" font-size="10.00">alloc.hpp</text>
</a>
</g>
</g>
<!-- Node1&#45;&gt;Node2 -->
<g id="edge1" class="edge">
<title>Node1&#45;&gt;Node2</title>
<path fill="none" stroke="midnightblue" d="M101.52,-274.9C85.39,-265 64.32,-252.07 50.6,-243.65"/>
<polygon fill="midnightblue" stroke="midnightblue" points="100.01,-278.08 110.36,-280.32 103.67,-272.11 100.01,-278.08"/>
</g>
<!-- Node3 -->
<g id="node3" class="node">
<title>Node3</title>
<g id="a_node3"><a xlink:href="broyden-good_8hpp.html" target="_top" xlink:title=" ">
<polygon fill="white" stroke="black" points="0,-168.5 0,-187.5 105,-187.5 105,-168.5 0,-168.5"/>
<text text-anchor="middle" x="52.5" y="-175.5" font-family="Helvetica,sans-Serif" font-size="10.00">broyden&#45;good.hpp</text>
</a>
</g>
</g>
<!-- Node1&#45;&gt;Node3 -->
<g id="edge2" class="edge">
<title>Node1&#45;&gt;Node3</title>
<path fill="none" stroke="midnightblue" d="M113.34,-271.96C97.74,-248.12 69.98,-205.71 58.12,-187.59"/>
<polygon fill="midnightblue" stroke="midnightblue" points="110.45,-273.92 118.85,-280.37 116.3,-270.08 110.45,-273.92"/>
</g>
<!-- Node6 -->
<g id="node6" class="node">
<title>Node6</title>
<g id="a_node6"><a xlink:href="decl_2lbfgs_8hpp.html" target="_top" xlink:title=" ">
<polygon fill="white" stroke="black" points="123.5,-224.5 123.5,-243.5 185.5,-243.5 185.5,-224.5 123.5,-224.5"/>
<text text-anchor="middle" x="154.5" y="-231.5" font-family="Helvetica,sans-Serif" font-size="10.00">lbfgs.hpp</text>
</a>
</g>
</g>
<!-- Node1&#45;&gt;Node6 -->
<g id="edge5" class="edge">
<title>Node1&#45;&gt;Node6</title>
<path fill="none" stroke="midnightblue" d="M134.35,-271.27C139.47,-262.05 145.52,-251.17 149.64,-243.75"/>
<polygon fill="midnightblue" stroke="midnightblue" points="131.25,-269.64 129.45,-280.08 137.37,-273.04 131.25,-269.64"/>
</g>
<!-- Node9 -->
<g id="node9" class="node">
<title>Node9</title>
<g id="a_node9"><a xlink:href="limited-memory-qr_8hpp.html" target="_top" xlink:title=" ">
<polygon fill="white" stroke="black" points="206.5,-224.5 206.5,-243.5 336.5,-243.5 336.5,-224.5 206.5,-224.5"/>
<text text-anchor="middle" x="271.5" y="-231.5" font-family="Helvetica,sans-Serif" font-size="10.00">limited&#45;memory&#45;qr.hpp</text>
</a>
</g>
</g>
<!-- Node1&#45;&gt;Node9 -->
<g id="edge9" class="edge">
<title>Node1&#45;&gt;Node9</title>
<path fill="none" stroke="midnightblue" d="M157.42,-276.91C185.06,-266.75 223.84,-252.51 248.32,-243.52"/>
<polygon fill="midnightblue" stroke="midnightblue" points="155.97,-273.71 147.79,-280.44 158.39,-280.28 155.97,-273.71"/>
</g>
<!-- Node4 -->
<g id="node4" class="node">
<title>Node4</title>
<g id="a_node4"><a xlink:href="kwargs-to-struct_8hpp.html" target="_top" xlink:title="This file defines mappings from Python dicts (kwargs) to simple parameter structs.">
<polygon fill="white" stroke="black" points="34.5,-56.5 34.5,-75.5 152.5,-75.5 152.5,-56.5 34.5,-56.5"/>
<text text-anchor="middle" x="93.5" y="-63.5" font-family="Helvetica,sans-Serif" font-size="10.00">kwargs&#45;to&#45;struct.hpp</text>
</a>
</g>
</g>
<!-- Node3&#45;&gt;Node4 -->
<g id="edge3" class="edge">
<title>Node3&#45;&gt;Node4</title>
<path fill="none" stroke="midnightblue" d="M59.21,-159C68.16,-135 83.63,-93.47 90.3,-75.59"/>
<polygon fill="midnightblue" stroke="midnightblue" points="55.93,-157.78 55.72,-168.37 62.49,-160.22 55.93,-157.78"/>
</g>
<!-- Node5 -->
<g id="node5" class="node">
<title>Node5</title>
<g id="a_node5"><a xlink:href="quala_8cpp.html" target="_top" xlink:title="This file defines all Python bindings.">
<polygon fill="white" stroke="black" points="61.5,-0.5 61.5,-19.5 125.5,-19.5 125.5,-0.5 61.5,-0.5"/>
<text text-anchor="middle" x="93.5" y="-7.5" font-family="Helvetica,sans-Serif" font-size="10.00">quala.cpp</text>
</a>
</g>
</g>
<!-- Node4&#45;&gt;Node5 -->
<g id="edge4" class="edge">
<title>Node4&#45;&gt;Node5</title>
<path fill="none" stroke="midnightblue" d="M93.5,-45.8C93.5,-36.91 93.5,-26.78 93.5,-19.75"/>
<polygon fill="midnightblue" stroke="midnightblue" points="90,-46.08 93.5,-56.08 97,-46.08 90,-46.08"/>
</g>
<!-- Node7 -->
<g id="node7" class="node">
<title>Node7</title>
<g id="a_node7"><a xlink:href="lbfgs_8hpp.html" target="_top" xlink:title=" ">
<polygon fill="white" stroke="black" points="123.5,-168.5 123.5,-187.5 185.5,-187.5 185.5,-168.5 123.5,-168.5"/>
<text text-anchor="middle" x="154.5" y="-175.5" font-family="Helvetica,sans-Serif" font-size="10.00">lbfgs.hpp</text>
</a>
</g>
</g>
<!-- Node6&#45;&gt;Node7 -->
<g id="edge6" class="edge">
<title>Node6&#45;&gt;Node7</title>
<path fill="none" stroke="midnightblue" d="M154.5,-213.8C154.5,-204.91 154.5,-194.78 154.5,-187.75"/>
<polygon fill="midnightblue" stroke="midnightblue" points="151,-214.08 154.5,-224.08 158,-214.08 151,-214.08"/>
</g>
<!-- Node7&#45;&gt;Node4 -->
<g id="edge7" class="edge">
<title>Node7&#45;&gt;Node4</title>
<path fill="none" stroke="midnightblue" d="M136.53,-161.47C128.19,-153.41 118.75,-142.98 112.5,-132 102.03,-113.61 96.89,-88.95 94.76,-75.92"/>
<polygon fill="midnightblue" stroke="midnightblue" points="134.33,-164.2 144.06,-168.4 139.07,-159.05 134.33,-164.2"/>
</g>
<!-- Node8 -->
<g id="node8" class="node">
<title>Node8</title>
<g id="a_node8"><a xlink:href="lbfgs_8cpp.html" target="_top" xlink:title=" ">
<polygon fill="white" stroke="black" points="122,-112.5 122,-131.5 183,-131.5 183,-112.5 122,-112.5"/>
<text text-anchor="middle" x="152.5" y="-119.5" font-family="Helvetica,sans-Serif" font-size="10.00">lbfgs.cpp</text>
</a>
</g>
</g>
<!-- Node7&#45;&gt;Node8 -->
<g id="edge8" class="edge">
<title>Node7&#45;&gt;Node8</title>
<path fill="none" stroke="midnightblue" d="M153.79,-157.8C153.46,-148.91 153.08,-138.78 152.82,-131.75"/>
<polygon fill="midnightblue" stroke="midnightblue" points="150.3,-158.22 154.17,-168.08 157.3,-157.96 150.3,-158.22"/>
</g>
<!-- Node10 -->
<g id="node10" class="node">
<title>Node10</title>
<g id="a_node10"><a xlink:href="anderson-helpers_8hpp.html" target="_top" xlink:title=" ">
<polygon fill="white" stroke="black" points="211.5,-168.5 211.5,-187.5 333.5,-187.5 333.5,-168.5 211.5,-168.5"/>
<text text-anchor="middle" x="272.5" y="-175.5" font-family="Helvetica,sans-Serif" font-size="10.00">anderson&#45;helpers.hpp</text>
</a>
</g>
</g>
<!-- Node9&#45;&gt;Node10 -->
<g id="edge10" class="edge">
<title>Node9&#45;&gt;Node10</title>
<path fill="none" stroke="midnightblue" d="M271.86,-213.8C272.02,-204.91 272.21,-194.78 272.34,-187.75"/>
<polygon fill="midnightblue" stroke="midnightblue" points="268.35,-214.02 271.67,-224.08 275.35,-214.15 268.35,-214.02"/>
</g>
<!-- Node11 -->
<g id="node11" class="node">
<title>Node11</title>
<g id="a_node11"><a xlink:href="anderson-acceleration_8hpp.html" target="_top" xlink:title=" ">
<polygon fill="white" stroke="black" points="201.5,-112.5 201.5,-131.5 347.5,-131.5 347.5,-112.5 201.5,-112.5"/>
<text text-anchor="middle" x="274.5" y="-119.5" font-family="Helvetica,sans-Serif" font-size="10.00">anderson&#45;acceleration.hpp</text>
</a>
</g>
</g>
<!-- Node10&#45;&gt;Node11 -->
<g id="edge11" class="edge">
<title>Node10&#45;&gt;Node11</title>
<path fill="none" stroke="midnightblue" d="M273.21,-157.8C273.54,-148.91 273.92,-138.78 274.18,-131.75"/>
<polygon fill="midnightblue" stroke="midnightblue" points="269.7,-157.96 272.83,-168.08 276.7,-158.22 269.7,-157.96"/>
</g>
<!-- Node11&#45;&gt;Node4 -->
<g id="edge12" class="edge">
<title>Node11&#45;&gt;Node4</title>
<path fill="none" stroke="midnightblue" d="M236.18,-109.57C202.04,-99.38 152.84,-84.7 122.05,-75.52"/>
<polygon fill="midnightblue" stroke="midnightblue" points="235.24,-112.94 245.82,-112.44 237.24,-106.23 235.24,-112.94"/>
</g>
</g>
</svg>
