<?xml version="1.0" encoding="UTF-8" standalone="no"?>
<!DOCTYPE svg PUBLIC "-//W3C//DTD SVG 1.1//EN"
 "http://www.w3.org/Graphics/SVG/1.1/DTD/svg11.dtd">
<!-- Generated by graphviz version 2.43.0 (0)
 -->
<!-- Title: ring_iter Pages: 1 -->
<svg width="626pt" height="147pt"
 viewBox="0.00 0.00 626.00 146.50" xmlns="http://www.w3.org/2000/svg" xmlns:xlink="http://www.w3.org/1999/xlink">
<g id="graph0" class="graph" transform="scale(1 1) rotate(0) translate(4 142.5)">
<title>ring_iter</title>
<!-- Node1 -->
<g id="node1" class="node">
<title>Node1</title>
<g id="a_node1"><a xlink:title="Get iterators in the circular buffer.">
<polygon fill="#999999" stroke="#666666" points="618,-76 561,-76 561,-57 618,-57 618,-76"/>
<text text-anchor="middle" x="589.5" y="-64" font-family="Helvetica,sans-Serif" font-size="10.00">ring_iter</text>
</a>
</g>
</g>
<!-- Node2 -->
<g id="node2" class="node">
<title>Node2</title>
<g id="a_node2"><a xlink:href="namespacequala.html#a6c177816e8d54a88f83d46bd040851e7" target="_top" xlink:title="Solve one step of Anderson acceleration to find a fixed point of a function g(x):">
<polygon fill="white" stroke="#666666" points="292,-138.5 158,-138.5 158,-108.5 292,-108.5 292,-138.5"/>
<text text-anchor="start" x="166" y="-126.5" font-family="Helvetica,sans-Serif" font-size="10.00">quala::minimize_update</text>
<text text-anchor="middle" x="225" y="-115.5" font-family="Helvetica,sans-Serif" font-size="10.00">_anderson</text>
</a>
</g>
</g>
<!-- Node1&#45;&gt;Node2 -->
<g id="edge1" class="edge">
<title>Node1&#45;&gt;Node2</title>
<path fill="none" stroke="#63b8ff" d="M567.87,-81.81C555.97,-89.77 540.36,-98.8 525,-103.5 447.52,-127.23 353.64,-129.49 292,-127.62"/>
<polygon fill="#63b8ff" stroke="#63b8ff" points="569.98,-84.61 576.18,-76.02 565.98,-78.86 569.98,-84.61"/>
</g>
<!-- Node4 -->
<g id="node4" class="node">
<title>Node4</title>
<g id="a_node4"><a xlink:href="classquala_1_1LimitedMemoryQR.html#ae8160acf26958eb65aa5c0743dd2826d" target="_top" xlink:title="Get reverse iterators in the circular buffer.">
<polygon fill="white" stroke="#666666" points="525,-95 426,-95 426,-76 525,-76 525,-95"/>
<text text-anchor="middle" x="475.5" y="-83" font-family="Helvetica,sans-Serif" font-size="10.00">ring_reverse_iter</text>
</a>
</g>
</g>
<!-- Node1&#45;&gt;Node4 -->
<g id="edge3" class="edge">
<title>Node1&#45;&gt;Node4</title>
<path fill="none" stroke="#63b8ff" d="M550.8,-72.9C542.6,-74.29 533.8,-75.78 525.24,-77.23"/>
<polygon fill="#63b8ff" stroke="#63b8ff" points="551.54,-76.32 560.81,-71.2 550.37,-69.42 551.54,-76.32"/>
</g>
<!-- Node5 -->
<g id="node5" class="node">
<title>Node5</title>
<g id="a_node5"><a xlink:href="classquala_1_1LimitedMemoryQR.html#a7a60dfe0a5f68bc1efec69e406a2b619" target="_top" xlink:title="Solve the least squares problem Ax = b.">
<polygon fill="white" stroke="#666666" points="390,-92 328,-92 328,-73 390,-73 390,-92"/>
<text text-anchor="middle" x="359" y="-80" font-family="Helvetica,sans-Serif" font-size="10.00">solve_col</text>
</a>
</g>
</g>
<!-- Node1&#45;&gt;Node5 -->
<g id="edge9" class="edge">
<title>Node1&#45;&gt;Node5</title>
<path fill="none" stroke="#63b8ff" d="M550.65,-63.97C517.62,-62.36 468.47,-61.43 426,-66.5 414.18,-67.91 401.41,-70.7 390.28,-73.56"/>
<polygon fill="#63b8ff" stroke="#63b8ff" points="550.61,-67.47 560.78,-64.51 550.98,-60.48 550.61,-67.47"/>
</g>
<!-- Node8 -->
<g id="node8" class="node">
<title>Node8</title>
<g id="a_node8"><a xlink:href="classquala_1_1LimitedMemoryQR.html#adf11f99cb8b119423c86498dbaab9820" target="_top" xlink:title="Multiply the matrix R by a scalar.">
<polygon fill="white" stroke="#666666" points="502.5,-19 448.5,-19 448.5,0 502.5,0 502.5,-19"/>
<text text-anchor="middle" x="475.5" y="-7" font-family="Helvetica,sans-Serif" font-size="10.00">scale_R</text>
</a>
</g>
</g>
<!-- Node1&#45;&gt;Node8 -->
<g id="edge8" class="edge">
<title>Node1&#45;&gt;Node8</title>
<path fill="none" stroke="#63b8ff" d="M561.31,-52.22C550.09,-46.37 536.95,-39.56 525,-33.5 515.62,-28.74 505.16,-23.55 496.37,-19.22"/>
<polygon fill="#63b8ff" stroke="#63b8ff" points="559.73,-55.34 570.21,-56.87 562.97,-49.14 559.73,-55.34"/>
</g>
<!-- Node3 -->
<g id="node3" class="node">
<title>Node3</title>
<g id="a_node3"><a xlink:href="classquala_1_1AndersonAccel.html#a7cbecaa52700158ebe36c0d587791ed4" target="_top" xlink:title="Compute the accelerated iterate , given the function value at the current iterate &#160;and the correspond...">
<polygon fill="white" stroke="#666666" points="122,-138.5 0,-138.5 0,-108.5 122,-108.5 122,-138.5"/>
<text text-anchor="start" x="8" y="-126.5" font-family="Helvetica,sans-Serif" font-size="10.00">quala::AndersonAccel</text>
<text text-anchor="middle" x="61" y="-115.5" font-family="Helvetica,sans-Serif" font-size="10.00">::compute</text>
</a>
</g>
</g>
<!-- Node2&#45;&gt;Node3 -->
<g id="edge2" class="edge">
<title>Node2&#45;&gt;Node3</title>
<path fill="none" stroke="#63b8ff" d="M147.61,-123.5C139.02,-123.5 130.36,-123.5 122.01,-123.5"/>
<polygon fill="#63b8ff" stroke="#63b8ff" points="147.64,-127 157.64,-123.5 147.64,-120 147.64,-127"/>
</g>
<!-- Node4&#45;&gt;Node5 -->
<g id="edge4" class="edge">
<title>Node4&#45;&gt;Node5</title>
<path fill="none" stroke="#63b8ff" d="M415.87,-83.96C406.92,-83.73 398.02,-83.5 390.04,-83.29"/>
<polygon fill="#63b8ff" stroke="#63b8ff" points="415.85,-87.46 425.94,-84.23 416.04,-80.47 415.85,-87.46"/>
</g>
<!-- Node5&#45;&gt;Node2 -->
<g id="edge5" class="edge">
<title>Node5&#45;&gt;Node2</title>
<path fill="none" stroke="#63b8ff" d="M318.08,-94.9C304.36,-99.16 288.84,-103.98 274.51,-108.43"/>
<polygon fill="#63b8ff" stroke="#63b8ff" points="319.2,-98.22 327.72,-91.91 317.13,-91.53 319.2,-98.22"/>
</g>
<!-- Node6 -->
<g id="node6" class="node">
<title>Node6</title>
<g id="a_node6"><a xlink:href="classquala_1_1LimitedMemoryQR.html#a9ec3e86c6cbb239ba0642378b564af41" target="_top" xlink:title="Solve the least squares problem AX = B.">
<polygon fill="white" stroke="#666666" points="246.5,-90 203.5,-90 203.5,-71 246.5,-71 246.5,-90"/>
<text text-anchor="middle" x="225" y="-78" font-family="Helvetica,sans-Serif" font-size="10.00">solve</text>
</a>
</g>
</g>
<!-- Node5&#45;&gt;Node6 -->
<g id="edge6" class="edge">
<title>Node5&#45;&gt;Node6</title>
<path fill="none" stroke="#63b8ff" d="M317.69,-81.89C294.23,-81.53 265.65,-81.1 246.69,-80.81"/>
<polygon fill="#63b8ff" stroke="#63b8ff" points="317.66,-85.39 327.72,-82.04 317.77,-78.39 317.66,-85.39"/>
</g>
<!-- Node7 -->
<g id="node7" class="node">
<title>Node7</title>
<g id="a_node7"><a xlink:href="classquala_1_1LimitedMemoryQR.html#a5f3732971788e558366a2b509a538206" target="_top" xlink:title="Solve the least squares problem AX = B.">
<polygon fill="white" stroke="#666666" points="82.5,-90 39.5,-90 39.5,-71 82.5,-71 82.5,-90"/>
<text text-anchor="middle" x="61" y="-78" font-family="Helvetica,sans-Serif" font-size="10.00">solve</text>
</a>
</g>
</g>
<!-- Node6&#45;&gt;Node7 -->
<g id="edge7" class="edge">
<title>Node6&#45;&gt;Node7</title>
<path fill="none" stroke="#63b8ff" d="M193.22,-80.5C160.77,-80.5 110.57,-80.5 82.61,-80.5"/>
<polygon fill="#63b8ff" stroke="#63b8ff" points="193.48,-84 203.48,-80.5 193.48,-77 193.48,-84"/>
</g>
</g>
</svg>
