<?xml version="1.0" encoding="UTF-8" standalone="no"?>
<!DOCTYPE svg PUBLIC "-//W3C//DTD SVG 1.1//EN"
 "http://www.w3.org/Graphics/SVG/1.1/DTD/svg11.dtd">
<!-- Generated by graphviz version 2.43.0 (0)
 -->
<!-- Title: add_column Pages: 1 -->
<svg width="232pt" height="46pt"
 viewBox="0.00 0.00 232.00 46.00" xmlns="http://www.w3.org/2000/svg" xmlns:xlink="http://www.w3.org/1999/xlink">
<g id="graph0" class="graph" transform="scale(1 1) rotate(0) translate(4 42)">
<title>add_column</title>
<!-- Node1 -->
<g id="node1" class="node">
<title>Node1</title>
<g id="a_node1"><a xlink:title="Add the given column to the right.">
<polygon fill="#999999" stroke="#666666" points="76,-38 0,-38 0,-19 76,-19 76,-38"/>
<text text-anchor="middle" x="38" y="-26" font-family="Helvetica,sans-Serif" font-size="10.00">add_column</text>
</a>
</g>
</g>
<!-- Node2 -->
<g id="node2" class="node">
<title>Node2</title>
<g id="a_node2"><a xlink:href="classquala_1_1LimitedMemoryQR.html#ac397ae83f5f4dd3d5cf9926f26acfb2d" target="_top" xlink:title=" ">
<polygon fill="white" stroke="#666666" points="224,-38 195,-38 195,-19 224,-19 224,-38"/>
<text text-anchor="middle" x="209.5" y="-26" font-family="Helvetica,sans-Serif" font-size="10.00">m</text>
</a>
</g>
</g>
<!-- Node1&#45;&gt;Node2 -->
<g id="edge1" class="edge">
<title>Node1&#45;&gt;Node2</title>
<path fill="none" stroke="#63b8ff" d="M76.2,-28.5C109.23,-28.5 156.52,-28.5 184.71,-28.5"/>
<polygon fill="#63b8ff" stroke="#63b8ff" points="184.84,-32 194.84,-28.5 184.84,-25 184.84,-32"/>
</g>
<!-- Node3 -->
<g id="node3" class="node">
<title>Node3</title>
<g id="a_node3"><a xlink:href="classquala_1_1LimitedMemoryQR.html#a9f68bead8c70041aacb90dd175150dc4" target="_top" xlink:title="Get the next index in the circular storage for R.">
<polygon fill="white" stroke="#666666" points="159,-19 112,-19 112,0 159,0 159,-19"/>
<text text-anchor="middle" x="135.5" y="-7" font-family="Helvetica,sans-Serif" font-size="10.00">r_succ</text>
</a>
</g>
</g>
<!-- Node1&#45;&gt;Node3 -->
<g id="edge2" class="edge">
<title>Node1&#45;&gt;Node3</title>
<path fill="none" stroke="#63b8ff" d="M76.2,-21.1C84.67,-19.41 93.6,-17.64 101.86,-15.99"/>
<polygon fill="#63b8ff" stroke="#63b8ff" points="102.76,-19.38 111.88,-14 101.39,-12.52 102.76,-19.38"/>
</g>
<!-- Node3&#45;&gt;Node2 -->
<g id="edge3" class="edge">
<title>Node3&#45;&gt;Node2</title>
<path fill="none" stroke="#63b8ff" d="M159.28,-15.51C167.51,-17.68 176.8,-20.14 185.08,-22.32"/>
<polygon fill="#63b8ff" stroke="#63b8ff" points="184.31,-25.74 194.87,-24.9 186.1,-18.97 184.31,-25.74"/>
</g>
</g>
</svg>
