<?xml version="1.0" encoding="UTF-8" standalone="no"?>
<!DOCTYPE svg PUBLIC "-//W3C//DTD SVG 1.1//EN"
 "http://www.w3.org/Graphics/SVG/1.1/DTD/svg11.dtd">
<!-- Generated by graphviz version 2.43.0 (0)
 -->
<!-- Title: LBFGS Pages: 1 -->
<svg width="460pt" height="113pt"
 viewBox="0.00 0.00 460.00 112.50" xmlns="http://www.w3.org/2000/svg" xmlns:xlink="http://www.w3.org/1999/xlink">
<g id="graph0" class="graph" transform="scale(1 1) rotate(0) translate(4 108.5)">
<title>LBFGS</title>
<!-- Node1 -->
<g id="node1" class="node">
<title>Node1</title>
<g id="a_node1"><a xlink:title=" ">
<polygon fill="#999999" stroke="#666666" points="48,-85.5 0,-85.5 0,-66.5 48,-66.5 48,-85.5"/>
<text text-anchor="middle" x="24" y="-73.5" font-family="Helvetica,sans-Serif" font-size="10.00">LBFGS</text>
</a>
</g>
</g>
<!-- Node2 -->
<g id="node2" class="node">
<title>Node2</title>
<g id="a_node2"><a xlink:href="classquala_1_1LBFGS.html#a727afc7a58d2e44ae7add57e3fa77bc6" target="_top" xlink:title="Get the size of the s and y vectors in the buffer.">
<polygon fill="white" stroke="#666666" points="240,-104.5 211,-104.5 211,-85.5 240,-85.5 240,-104.5"/>
<text text-anchor="middle" x="225.5" y="-92.5" font-family="Helvetica,sans-Serif" font-size="10.00">n</text>
</a>
</g>
</g>
<!-- Node1&#45;&gt;Node2 -->
<g id="edge1" class="edge">
<title>Node1&#45;&gt;Node2</title>
<path fill="none" stroke="#63b8ff" d="M48.28,-78.22C86.44,-81.85 161.95,-89.04 200.55,-92.72"/>
<polygon fill="#63b8ff" stroke="#63b8ff" points="200.54,-96.23 210.83,-93.7 201.21,-89.27 200.54,-96.23"/>
</g>
<!-- Node4 -->
<g id="node4" class="node">
<title>Node4</title>
<g id="a_node4"><a xlink:href="classquala_1_1LBFGS.html#abfe51417fbebd259808f86d27f1d7ec5" target="_top" xlink:title="Re&#45;allocate storage for a problem with a different size.">
<polygon fill="white" stroke="#666666" points="130,-66.5 84,-66.5 84,-47.5 130,-47.5 130,-66.5"/>
<text text-anchor="middle" x="107" y="-54.5" font-family="Helvetica,sans-Serif" font-size="10.00">resize</text>
</a>
</g>
</g>
<!-- Node1&#45;&gt;Node4 -->
<g id="edge3" class="edge">
<title>Node1&#45;&gt;Node4</title>
<path fill="none" stroke="#63b8ff" d="M48.43,-70.5C56.33,-68.65 65.3,-66.55 73.77,-64.56"/>
<polygon fill="#63b8ff" stroke="#63b8ff" points="74.8,-67.91 83.74,-62.22 73.2,-61.1 74.8,-67.91"/>
</g>
<!-- Node3 -->
<g id="node3" class="node">
<title>Node3</title>
<g id="a_node3"><a xlink:href="structquala_1_1LBFGSStorage.html#a727afc7a58d2e44ae7add57e3fa77bc6" target="_top" xlink:title="Get the size of the s and y vectors in the buffer.">
<polygon fill="white" stroke="#666666" points="452,-85.5 321,-85.5 321,-66.5 452,-66.5 452,-85.5"/>
<text text-anchor="middle" x="386.5" y="-73.5" font-family="Helvetica,sans-Serif" font-size="10.00">quala::LBFGSStorage::n</text>
</a>
</g>
</g>
<!-- Node2&#45;&gt;Node3 -->
<g id="edge2" class="edge">
<title>Node2&#45;&gt;Node3</title>
<path fill="none" stroke="#63b8ff" d="M240.06,-93.38C255.97,-91.48 283.63,-88.17 310.58,-84.95"/>
<polygon fill="#63b8ff" stroke="#63b8ff" points="311.34,-88.39 320.85,-83.73 310.51,-81.44 311.34,-88.39"/>
</g>
<!-- Node4&#45;&gt;Node2 -->
<g id="edge4" class="edge">
<title>Node4&#45;&gt;Node2</title>
<path fill="none" stroke="#63b8ff" d="M130.25,-64.87C141.02,-68.63 154.15,-73.14 166,-77 177.52,-80.76 190.38,-84.74 201.1,-88"/>
<polygon fill="#63b8ff" stroke="#63b8ff" points="200.4,-91.44 210.98,-90.98 202.42,-84.74 200.4,-91.44"/>
</g>
<!-- Node5 -->
<g id="node5" class="node">
<title>Node5</title>
<g id="a_node5"><a xlink:href="classquala_1_1LBFGS.html#ad20897c5c8bd47f5d4005989bead0e55" target="_top" xlink:title="Throw away the approximation and all previous vectors s and y.">
<polygon fill="white" stroke="#666666" points="246,-67.5 205,-67.5 205,-48.5 246,-48.5 246,-67.5"/>
<text text-anchor="middle" x="225.5" y="-55.5" font-family="Helvetica,sans-Serif" font-size="10.00">reset</text>
</a>
</g>
</g>
<!-- Node4&#45;&gt;Node5 -->
<g id="edge5" class="edge">
<title>Node4&#45;&gt;Node5</title>
<path fill="none" stroke="#63b8ff" d="M130.19,-57.19C148.43,-57.35 174.45,-57.57 194.55,-57.74"/>
<polygon fill="#63b8ff" stroke="#63b8ff" points="194.69,-61.24 204.72,-57.83 194.75,-54.24 194.69,-61.24"/>
</g>
<!-- Node6 -->
<g id="node6" class="node">
<title>Node6</title>
<g id="a_node6"><a xlink:href="structquala_1_1LBFGSStorage.html#a48072fa680a2364d8ce96eb84a5d5689" target="_top" xlink:title="Re&#45;allocate storage for a problem with a different size.">
<polygon fill="white" stroke="#666666" points="285,-30 166,-30 166,0 285,0 285,-30"/>
<text text-anchor="start" x="174" y="-18" font-family="Helvetica,sans-Serif" font-size="10.00">quala::LBFGSStorage</text>
<text text-anchor="middle" x="225.5" y="-7" font-family="Helvetica,sans-Serif" font-size="10.00">::resize</text>
</a>
</g>
</g>
<!-- Node4&#45;&gt;Node6 -->
<g id="edge6" class="edge">
<title>Node4&#45;&gt;Node6</title>
<path fill="none" stroke="#63b8ff" d="M130.19,-49C142.32,-44.63 157.89,-39.01 172.87,-33.61"/>
<polygon fill="#63b8ff" stroke="#63b8ff" points="174.36,-36.8 182.58,-30.11 171.99,-30.21 174.36,-36.8"/>
</g>
<!-- Node6&#45;&gt;Node3 -->
<g id="edge8" class="edge">
<title>Node6&#45;&gt;Node3</title>
<path fill="none" stroke="#63b8ff" d="M265.8,-30.08C291.94,-40.11 325.96,-53.16 351.04,-62.78"/>
<polygon fill="#63b8ff" stroke="#63b8ff" points="349.93,-66.1 360.52,-66.42 352.43,-59.57 349.93,-66.1"/>
</g>
<!-- Node7 -->
<g id="node7" class="node">
<title>Node7</title>
<g id="a_node7"><a xlink:href="structquala_1_1LBFGSStorage.html#a9cf7dcccbc3bc69a10833450ee79c623" target="_top" xlink:title="Get the number of previous vectors s and y stored in the buffer.">
<polygon fill="white" stroke="#666666" points="446,-30 327,-30 327,0 446,0 446,-30"/>
<text text-anchor="start" x="335" y="-18" font-family="Helvetica,sans-Serif" font-size="10.00">quala::LBFGSStorage</text>
<text text-anchor="middle" x="386.5" y="-7" font-family="Helvetica,sans-Serif" font-size="10.00">::history</text>
</a>
</g>
</g>
<!-- Node6&#45;&gt;Node7 -->
<g id="edge7" class="edge">
<title>Node6&#45;&gt;Node7</title>
<path fill="none" stroke="#63b8ff" d="M285.25,-15C295.58,-15 306.4,-15 316.97,-15"/>
<polygon fill="#63b8ff" stroke="#63b8ff" points="316.99,-18.5 326.99,-15 316.99,-11.5 316.99,-18.5"/>
</g>
</g>
</svg>
