<?xml version="1.0" encoding="UTF-8" standalone="no"?>
<!DOCTYPE svg PUBLIC "-//W3C//DTD SVG 1.1//EN"
 "http://www.w3.org/Graphics/SVG/1.1/DTD/svg11.dtd">
<!-- Generated by graphviz version 2.43.0 (0)
 -->
<!-- Title: update_sy Pages: 1 -->
<svg width="526pt" height="251pt"
 viewBox="0.00 0.00 526.00 250.50" xmlns="http://www.w3.org/2000/svg" xmlns:xlink="http://www.w3.org/1999/xlink">
<g id="graph0" class="graph" transform="scale(1 1) rotate(0) translate(4 246.5)">
<title>update_sy</title>
<!-- Node1 -->
<g id="node1" class="node">
<title>Node1</title>
<g id="a_node1"><a xlink:title="Update the inverse Jacobian approximation using the new vectors sₖ = xₖ₊₁ &#45; xₖ and yₖ = pₖ₊₁ &#45; pₖ.">
<polygon fill="#999999" stroke="#666666" points="67,-129.5 0,-129.5 0,-110.5 67,-110.5 67,-129.5"/>
<text text-anchor="middle" x="33.5" y="-117.5" font-family="Helvetica,sans-Serif" font-size="10.00">update_sy</text>
</a>
</g>
</g>
<!-- Node2 -->
<g id="node2" class="node">
<title>Node2</title>
<g id="a_node2"><a xlink:href="classquala_1_1BroydenGood.html#aa871b5290773b86e2e4919bbac258a04" target="_top" xlink:title="Iterate over the indices in the history buffer, oldest first.">
<polygon fill="white" stroke="#666666" points="179,-242.5 103,-242.5 103,-223.5 179,-223.5 179,-242.5"/>
<text text-anchor="middle" x="141" y="-230.5" font-family="Helvetica,sans-Serif" font-size="10.00">foreach_fwd</text>
</a>
</g>
</g>
<!-- Node1&#45;&gt;Node2 -->
<g id="edge1" class="edge">
<title>Node1&#45;&gt;Node2</title>
<path fill="none" stroke="#63b8ff" d="M39.3,-129.55C49.04,-148.14 72.81,-189.6 103,-215 104.32,-216.11 105.71,-217.16 107.16,-218.17"/>
<polygon fill="#63b8ff" stroke="#63b8ff" points="105.47,-221.24 115.85,-223.4 109.08,-215.24 105.47,-221.24"/>
</g>
<!-- Node5 -->
<g id="node5" class="node">
<title>Node5</title>
<g id="a_node5"><a xlink:href="structquala_1_1BroydenStorage.html#a15e4a3db39457cabe764a7737d24e73f" target="_top" xlink:title=" ">
<polygon fill="white" stroke="#666666" points="354,-148.5 215,-148.5 215,-129.5 354,-129.5 354,-148.5"/>
<text text-anchor="middle" x="284.5" y="-136.5" font-family="Helvetica,sans-Serif" font-size="10.00">quala::BroydenStorage::s</text>
</a>
</g>
</g>
<!-- Node1&#45;&gt;Node5 -->
<g id="edge4" class="edge">
<title>Node1&#45;&gt;Node5</title>
<path fill="none" stroke="#63b8ff" d="M62.14,-129.5C74.48,-133.27 89.3,-137.14 103,-139 136.06,-143.5 172.85,-144.26 204.54,-143.61"/>
<polygon fill="#63b8ff" stroke="#63b8ff" points="204.73,-147.1 214.64,-143.35 204.55,-140.1 204.73,-147.1"/>
</g>
<!-- Node6 -->
<g id="node6" class="node">
<title>Node6</title>
<g id="a_node6"><a xlink:href="structquala_1_1BroydenStorage.html#a9f073bfaf44b883546d7483e3d16b149" target="_top" xlink:title=" ">
<polygon fill="white" stroke="#666666" points="354,-75.5 215,-75.5 215,-56.5 354,-56.5 354,-75.5"/>
<text text-anchor="middle" x="284.5" y="-63.5" font-family="Helvetica,sans-Serif" font-size="10.00">quala::BroydenStorage::s̃</text>
</a>
</g>
</g>
<!-- Node1&#45;&gt;Node6 -->
<g id="edge5" class="edge">
<title>Node1&#45;&gt;Node6</title>
<path fill="none" stroke="#63b8ff" d="M67.15,-110.99C78.47,-107.98 91.26,-104.71 103,-102 142.11,-92.97 186.29,-84.14 221.15,-77.48"/>
<polygon fill="#63b8ff" stroke="#63b8ff" points="222.02,-80.88 231.19,-75.57 220.71,-74 222.02,-80.88"/>
</g>
<!-- Node7 -->
<g id="node7" class="node">
<title>Node7</title>
<g id="a_node7"><a xlink:href="classquala_1_1BroydenGood.html#a15e4a3db39457cabe764a7737d24e73f" target="_top" xlink:title=" ">
<polygon fill="white" stroke="#666666" points="155.5,-129.5 126.5,-129.5 126.5,-110.5 155.5,-110.5 155.5,-129.5"/>
<text text-anchor="middle" x="141" y="-117.5" font-family="Helvetica,sans-Serif" font-size="10.00">s</text>
</a>
</g>
</g>
<!-- Node1&#45;&gt;Node7 -->
<g id="edge6" class="edge">
<title>Node1&#45;&gt;Node7</title>
<path fill="none" stroke="#63b8ff" d="M67.01,-120C82.94,-120 101.76,-120 116.3,-120"/>
<polygon fill="#63b8ff" stroke="#63b8ff" points="116.46,-123.5 126.46,-120 116.46,-116.5 116.46,-123.5"/>
</g>
<!-- Node8 -->
<g id="node8" class="node">
<title>Node8</title>
<g id="a_node8"><a xlink:href="classquala_1_1BroydenGood.html#a9f073bfaf44b883546d7483e3d16b149" target="_top" xlink:title=" ">
<polygon fill="white" stroke="#666666" points="155.5,-53.5 126.5,-53.5 126.5,-34.5 155.5,-34.5 155.5,-53.5"/>
<text text-anchor="middle" x="141" y="-41.5" font-family="Helvetica,sans-Serif" font-size="10.00">s̃</text>
</a>
</g>
</g>
<!-- Node1&#45;&gt;Node8 -->
<g id="edge8" class="edge">
<title>Node1&#45;&gt;Node8</title>
<path fill="none" stroke="#63b8ff" d="M46.92,-110.13C60.49,-99.46 82.96,-82.08 103,-68 107.78,-64.64 112.99,-61.16 117.96,-57.92"/>
<polygon fill="#63b8ff" stroke="#63b8ff" points="119.97,-60.79 126.48,-52.43 116.18,-54.9 119.97,-60.79"/>
</g>
<!-- Node9 -->
<g id="node9" class="node">
<title>Node9</title>
<g id="a_node9"><a xlink:href="classquala_1_1BroydenGood.html#a70926baed7362e4fcce66523bb8e2842" target="_top" xlink:title="Get the next index in the circular buffer of previous s and y vectors.">
<polygon fill="white" stroke="#666666" points="160,-205.5 122,-205.5 122,-186.5 160,-186.5 160,-205.5"/>
<text text-anchor="middle" x="141" y="-193.5" font-family="Helvetica,sans-Serif" font-size="10.00">succ</text>
</a>
</g>
</g>
<!-- Node1&#45;&gt;Node9 -->
<g id="edge10" class="edge">
<title>Node1&#45;&gt;Node9</title>
<path fill="none" stroke="#63b8ff" d="M46.92,-129.87C60.49,-140.54 82.96,-157.92 103,-172 107.17,-174.93 111.66,-177.95 116.04,-180.83"/>
<polygon fill="#63b8ff" stroke="#63b8ff" points="114.41,-183.94 124.71,-186.44 118.22,-178.07 114.41,-183.94"/>
</g>
<!-- Node10 -->
<g id="node10" class="node">
<title>Node10</title>
<g id="a_node10"><a xlink:href="structquala_1_1BroydenStorage.html#a1f39e0321f095347878b8e231abaa2bb" target="_top" xlink:title=" ">
<polygon fill="white" stroke="#666666" points="348.5,-30 220.5,-30 220.5,0 348.5,0 348.5,-30"/>
<text text-anchor="start" x="228.5" y="-18" font-family="Helvetica,sans-Serif" font-size="10.00">quala::BroydenStorage</text>
<text text-anchor="middle" x="284.5" y="-7" font-family="Helvetica,sans-Serif" font-size="10.00">::work</text>
</a>
</g>
</g>
<!-- Node1&#45;&gt;Node10 -->
<g id="edge12" class="edge">
<title>Node1&#45;&gt;Node10</title>
<path fill="none" stroke="#63b8ff" d="M38.14,-110.25C46.24,-90.12 67.86,-44.23 103,-25 135.2,-7.38 175.65,-3.77 210.1,-5.05"/>
<polygon fill="#63b8ff" stroke="#63b8ff" points="209.94,-8.55 220.11,-5.56 210.3,-1.56 209.94,-8.55"/>
</g>
<!-- Node3 -->
<g id="node3" class="node">
<title>Node3</title>
<g id="a_node3"><a xlink:href="classquala_1_1BroydenGood.html#a9cf7dcccbc3bc69a10833450ee79c623" target="_top" xlink:title="Get the number of previous vectors s and y stored in the buffer.">
<polygon fill="white" stroke="#666666" points="309.5,-205.5 259.5,-205.5 259.5,-186.5 309.5,-186.5 309.5,-205.5"/>
<text text-anchor="middle" x="284.5" y="-193.5" font-family="Helvetica,sans-Serif" font-size="10.00">history</text>
</a>
</g>
</g>
<!-- Node2&#45;&gt;Node3 -->
<g id="edge2" class="edge">
<title>Node2&#45;&gt;Node3</title>
<path fill="none" stroke="#63b8ff" d="M178.44,-223.47C200.35,-217.74 228.06,-210.5 249.52,-204.89"/>
<polygon fill="#63b8ff" stroke="#63b8ff" points="250.41,-208.27 259.2,-202.35 248.64,-201.5 250.41,-208.27"/>
</g>
<!-- Node4 -->
<g id="node4" class="node">
<title>Node4</title>
<g id="a_node4"><a xlink:href="structquala_1_1BroydenStorage.html#a9cf7dcccbc3bc69a10833450ee79c623" target="_top" xlink:title="Get the number of previous vectors s and s̃ stored in the buffer.">
<polygon fill="white" stroke="#666666" points="518,-116 390,-116 390,-86 518,-86 518,-116"/>
<text text-anchor="start" x="398" y="-104" font-family="Helvetica,sans-Serif" font-size="10.00">quala::BroydenStorage</text>
<text text-anchor="middle" x="454" y="-93" font-family="Helvetica,sans-Serif" font-size="10.00">::history</text>
</a>
</g>
</g>
<!-- Node3&#45;&gt;Node4 -->
<g id="edge3" class="edge">
<title>Node3&#45;&gt;Node4</title>
<path fill="none" stroke="#63b8ff" d="M303,-186.39C316.87,-178.76 336.71,-167.77 354,-158 375.37,-145.92 399.21,-132.2 418.14,-121.25"/>
<polygon fill="#63b8ff" stroke="#63b8ff" points="420.11,-124.16 427.01,-116.11 416.6,-118.1 420.11,-124.16"/>
</g>
<!-- Node7&#45;&gt;Node5 -->
<g id="edge7" class="edge">
<title>Node7&#45;&gt;Node5</title>
<path fill="none" stroke="#63b8ff" d="M155.57,-121.82C167.47,-123.42 185.81,-125.88 204.93,-128.45"/>
<polygon fill="#63b8ff" stroke="#63b8ff" points="204.58,-131.93 214.96,-129.8 205.52,-125 204.58,-131.93"/>
</g>
<!-- Node8&#45;&gt;Node6 -->
<g id="edge9" class="edge">
<title>Node8&#45;&gt;Node6</title>
<path fill="none" stroke="#63b8ff" d="M155.57,-46.11C169,-48.2 190.66,-51.57 212.36,-54.94"/>
<polygon fill="#63b8ff" stroke="#63b8ff" points="211.89,-58.41 222.31,-56.49 212.97,-51.49 211.89,-58.41"/>
</g>
<!-- Node9&#45;&gt;Node3 -->
<g id="edge11" class="edge">
<title>Node9&#45;&gt;Node3</title>
<path fill="none" stroke="#63b8ff" d="M160.21,-196C182.58,-196 221.01,-196 249.03,-196"/>
<polygon fill="#63b8ff" stroke="#63b8ff" points="249.2,-199.5 259.2,-196 249.2,-192.5 249.2,-199.5"/>
</g>
<!-- Node10&#45;&gt;Node4 -->
<g id="edge13" class="edge">
<title>Node10&#45;&gt;Node4</title>
<path fill="none" stroke="#63b8ff" d="M318.8,-30.05C330.05,-35.27 342.64,-41.25 354,-47 375.32,-57.78 398.81,-70.55 417.56,-80.97"/>
<polygon fill="#63b8ff" stroke="#63b8ff" points="415.91,-84.06 426.35,-85.88 419.32,-77.95 415.91,-84.06"/>
</g>
</g>
</svg>
