<?xml version="1.0" encoding="UTF-8" standalone="no"?>
<!DOCTYPE svg PUBLIC "-//W3C//DTD SVG 1.1//EN"
 "http://www.w3.org/Graphics/SVG/1.1/DTD/svg11.dtd">
<!-- Generated by graphviz version 2.43.0 (0)
 -->
<!-- Title: n Pages: 1 -->
<svg width="268pt" height="64pt"
 viewBox="0.00 0.00 268.00 64.00" xmlns="http://www.w3.org/2000/svg" xmlns:xlink="http://www.w3.org/1999/xlink">
<g id="graph0" class="graph" transform="scale(1 1) rotate(0) translate(4 60)">
<title>n</title>
<!-- Node1 -->
<g id="node1" class="node">
<title>Node1</title>
<g id="a_node1"><a xlink:title="Get the size of the s and y vectors in the buffer.">
<polygon fill="#999999" stroke="#666666" points="260,-38 231,-38 231,-19 260,-19 260,-38"/>
<text text-anchor="middle" x="245.5" y="-26" font-family="Helvetica,sans-Serif" font-size="10.00">n</text>
</a>
</g>
</g>
<!-- Node2 -->
<g id="node2" class="node">
<title>Node2</title>
<g id="a_node2"><a xlink:href="classquala_1_1LBFGS.html#a728dfcb0d540fc7da341b3352dbe1582" target="_top" xlink:title=" ">
<polygon fill="white" stroke="#666666" points="80.5,-56 32.5,-56 32.5,-37 80.5,-37 80.5,-56"/>
<text text-anchor="middle" x="56.5" y="-44" font-family="Helvetica,sans-Serif" font-size="10.00">LBFGS</text>
</a>
</g>
</g>
<!-- Node1&#45;&gt;Node2 -->
<g id="edge1" class="edge">
<title>Node1&#45;&gt;Node2</title>
<path fill="none" stroke="#63b8ff" d="M221.37,-39.39C213.22,-42.68 203.88,-45.85 195,-47.5 155.33,-54.85 108.11,-52.06 80.6,-49.32"/>
<polygon fill="#63b8ff" stroke="#63b8ff" points="222.8,-42.58 230.61,-35.41 220.04,-36.15 222.8,-42.58"/>
</g>
<!-- Node3 -->
<g id="node3" class="node">
<title>Node3</title>
<g id="a_node3"><a xlink:href="quala_8py_8cpp.html#a12fb4e87da488d1fc7c6fa3e6a3adb90" target="_top" xlink:title=" ">
<polygon fill="white" stroke="#666666" points="113,-19 0,-19 0,0 113,0 113,-19"/>
<text text-anchor="middle" x="56.5" y="-7" font-family="Helvetica,sans-Serif" font-size="10.00">PYBIND11_MODULE</text>
</a>
</g>
</g>
<!-- Node1&#45;&gt;Node3 -->
<g id="edge2" class="edge">
<title>Node1&#45;&gt;Node3</title>
<path fill="none" stroke="#63b8ff" d="M221.37,-17.61C213.22,-14.32 203.88,-11.15 195,-9.5 168.36,-4.56 138.31,-4 113.12,-4.91"/>
<polygon fill="#63b8ff" stroke="#63b8ff" points="220.04,-20.85 230.61,-21.59 222.8,-14.42 220.04,-20.85"/>
</g>
<!-- Node4 -->
<g id="node4" class="node">
<title>Node4</title>
<g id="a_node4"><a xlink:href="classquala_1_1LBFGS.html#abfe51417fbebd259808f86d27f1d7ec5" target="_top" xlink:title="Re&#45;allocate storage for a problem with a different size.">
<polygon fill="white" stroke="#666666" points="195,-38 149,-38 149,-19 195,-19 195,-38"/>
<text text-anchor="middle" x="172" y="-26" font-family="Helvetica,sans-Serif" font-size="10.00">resize</text>
</a>
</g>
</g>
<!-- Node1&#45;&gt;Node4 -->
<g id="edge3" class="edge">
<title>Node1&#45;&gt;Node4</title>
<path fill="none" stroke="#63b8ff" d="M220.63,-28.5C212.42,-28.5 203.26,-28.5 195.18,-28.5"/>
<polygon fill="#63b8ff" stroke="#63b8ff" points="220.71,-32 230.71,-28.5 220.71,-25 220.71,-32"/>
</g>
<!-- Node4&#45;&gt;Node2 -->
<g id="edge4" class="edge">
<title>Node4&#45;&gt;Node2</title>
<path fill="none" stroke="#63b8ff" d="M138.81,-33.61C120.32,-36.54 97.52,-40.15 80.77,-42.81"/>
<polygon fill="#63b8ff" stroke="#63b8ff" points="139.52,-37.04 148.85,-32.01 138.42,-30.12 139.52,-37.04"/>
</g>
<!-- Node4&#45;&gt;Node3 -->
<g id="edge5" class="edge">
<title>Node4&#45;&gt;Node3</title>
<path fill="none" stroke="#63b8ff" d="M138.8,-23.11C130.74,-21.76 121.86,-20.27 113.02,-18.79"/>
<polygon fill="#63b8ff" stroke="#63b8ff" points="138.41,-26.59 148.85,-24.79 139.56,-19.69 138.41,-26.59"/>
</g>
</g>
</svg>
