<?xml version="1.0" encoding="UTF-8" standalone="no"?>
<!DOCTYPE svg PUBLIC "-//W3C//DTD SVG 1.1//EN"
 "http://www.w3.org/Graphics/SVG/1.1/DTD/svg11.dtd">
<!-- Generated by graphviz version 2.43.0 (0)
 -->
<!-- Title: cend Pages: 1 -->
<svg width="356pt" height="38pt"
 viewBox="0.00 0.00 356.00 38.00" xmlns="http://www.w3.org/2000/svg" xmlns:xlink="http://www.w3.org/1999/xlink">
<g id="graph0" class="graph" transform="scale(1 1) rotate(0) translate(4 34)">
<title>cend</title>
<!-- Node1 -->
<g id="node1" class="node">
<title>Node1</title>
<g id="a_node1"><a xlink:title=" ">
<polygon fill="#999999" stroke="#666666" points="40,-24.5 0,-24.5 0,-5.5 40,-5.5 40,-24.5"/>
<text text-anchor="middle" x="20" y="-12.5" font-family="Helvetica,sans-Serif" font-size="10.00">cend</text>
</a>
</g>
</g>
<!-- Node2 -->
<g id="node2" class="node">
<title>Node2</title>
<g id="a_node2"><a xlink:href="classquala_1_1CircularRange.html#abef9dfc7607c7e1a3854788ba56a4f34" target="_top" xlink:title=" ">
<polygon fill="white" stroke="#666666" points="194,-30 76,-30 76,0 194,0 194,-30"/>
<text text-anchor="start" x="84" y="-18" font-family="Helvetica,sans-Serif" font-size="10.00">quala::CircularRange</text>
<text text-anchor="middle" x="135" y="-7" font-family="Helvetica,sans-Serif" font-size="10.00">::crend</text>
</a>
</g>
</g>
<!-- Node1&#45;&gt;Node2 -->
<g id="edge1" class="edge">
<title>Node1&#45;&gt;Node2</title>
<path fill="none" stroke="#63b8ff" d="M40.17,-15C47.48,-15 56.29,-15 65.55,-15"/>
<polygon fill="#63b8ff" stroke="#63b8ff" points="65.73,-18.5 75.73,-15 65.73,-11.5 65.73,-18.5"/>
</g>
<!-- Node3 -->
<g id="node3" class="node">
<title>Node3</title>
<g id="a_node3"><a xlink:href="classquala_1_1CircularRange.html#a0c62c15c8ed609e7e5e9518cf5f5c712" target="_top" xlink:title=" ">
<polygon fill="white" stroke="#666666" points="348,-30 230,-30 230,0 348,0 348,-30"/>
<text text-anchor="start" x="238" y="-18" font-family="Helvetica,sans-Serif" font-size="10.00">quala::CircularRange</text>
<text text-anchor="middle" x="289" y="-7" font-family="Helvetica,sans-Serif" font-size="10.00">::begin</text>
</a>
</g>
</g>
<!-- Node2&#45;&gt;Node3 -->
<g id="edge2" class="edge">
<title>Node2&#45;&gt;Node3</title>
<path fill="none" stroke="#63b8ff" d="M194.33,-15C202.61,-15 211.17,-15 219.62,-15"/>
<polygon fill="#63b8ff" stroke="#63b8ff" points="219.82,-18.5 229.82,-15 219.82,-11.5 219.82,-18.5"/>
</g>
</g>
</svg>
