<?xml version="1.0" encoding="UTF-8" standalone="no"?>
<!DOCTYPE svg PUBLIC "-//W3C//DTD SVG 1.1//EN"
 "http://www.w3.org/Graphics/SVG/1.1/DTD/svg11.dtd">
<!-- Generated by graphviz version 2.43.0 (0)
 -->
<!-- Title: update_sy Pages: 1 -->
<svg width="692pt" height="277pt"
 viewBox="0.00 0.00 692.00 276.84" xmlns="http://www.w3.org/2000/svg" xmlns:xlink="http://www.w3.org/1999/xlink">
<g id="graph0" class="graph" transform="scale(1 1) rotate(0) translate(4 272.84)">
<title>update_sy</title>
<!-- Node1 -->
<g id="node1" class="node">
<title>Node1</title>
<g id="a_node1"><a xlink:title="Update the inverse Hessian approximation using the new vectors sₖ = xₖ₊₁ &#45; xₖ and yₖ = pₖ₊₁ &#45; pₖ.">
<polygon fill="#999999" stroke="#666666" points="67,-151 0,-151 0,-132 67,-132 67,-151"/>
<text text-anchor="middle" x="33.5" y="-139" font-family="Helvetica,sans-Serif" font-size="10.00">update_sy</text>
</a>
</g>
</g>
<!-- Node2 -->
<g id="node2" class="node">
<title>Node2</title>
<g id="a_node2"><a xlink:href="structquala_1_1LBFGSStorage.html#acade3dc51f7ca788be9b91908b2e73ab" target="_top" xlink:title=" ">
<polygon fill="white" stroke="#666666" points="350,-246 219,-246 219,-227 350,-227 350,-246"/>
<text text-anchor="middle" x="284.5" y="-234" font-family="Helvetica,sans-Serif" font-size="10.00">quala::LBFGSStorage::ρ</text>
</a>
</g>
</g>
<!-- Node1&#45;&gt;Node2 -->
<g id="edge1" class="edge">
<title>Node1&#45;&gt;Node2</title>
<path fill="none" stroke="#63b8ff" d="M36.87,-151.09C43.13,-173.98 62.42,-231.65 103,-254.5 150.1,-281.03 215.2,-263.89 252.97,-249.71"/>
<polygon fill="#63b8ff" stroke="#63b8ff" points="254.38,-252.92 262.41,-246.02 251.83,-246.4 254.38,-252.92"/>
</g>
<!-- Node4 -->
<g id="node4" class="node">
<title>Node4</title>
<g id="a_node4"><a xlink:href="classquala_1_1LBFGS.html#a70926baed7362e4fcce66523bb8e2842" target="_top" xlink:title="Get the next index in the circular buffer of previous s and y vectors.">
<polygon fill="white" stroke="#666666" points="162,-208 124,-208 124,-189 162,-189 162,-208"/>
<text text-anchor="middle" x="143" y="-196" font-family="Helvetica,sans-Serif" font-size="10.00">succ</text>
</a>
</g>
</g>
<!-- Node1&#45;&gt;Node4 -->
<g id="edge3" class="edge">
<title>Node1&#45;&gt;Node4</title>
<path fill="none" stroke="#63b8ff" d="M52.74,-151.17C69.83,-160.23 95.59,-173.89 115.05,-184.21"/>
<polygon fill="#63b8ff" stroke="#63b8ff" points="113.56,-187.38 124.03,-188.97 116.84,-181.2 113.56,-187.38"/>
</g>
<!-- Node7 -->
<g id="node7" class="node">
<title>Node7</title>
<g id="a_node7"><a xlink:href="structquala_1_1LBFGSStorage.html#aebac2ec4461761a48a7284152a8217f8" target="_top" xlink:title=" ">
<polygon fill="white" stroke="#666666" points="350,-132 219,-132 219,-113 350,-113 350,-132"/>
<text text-anchor="middle" x="284.5" y="-120" font-family="Helvetica,sans-Serif" font-size="10.00">quala::LBFGSStorage::y</text>
</a>
</g>
</g>
<!-- Node1&#45;&gt;Node7 -->
<g id="edge6" class="edge">
<title>Node1&#45;&gt;Node7</title>
<path fill="none" stroke="#63b8ff" d="M67.02,-142.87C97.16,-143.76 143.21,-144.17 183,-140.5 198.2,-139.1 214.55,-136.6 229.55,-133.91"/>
<polygon fill="#63b8ff" stroke="#63b8ff" points="230.5,-137.29 239.69,-132.02 229.22,-130.41 230.5,-137.29"/>
</g>
<!-- Node8 -->
<g id="node8" class="node">
<title>Node8</title>
<g id="a_node8"><a xlink:href="classquala_1_1LBFGS.html#acade3dc51f7ca788be9b91908b2e73ab" target="_top" xlink:title=" ">
<polygon fill="white" stroke="#666666" points="157.5,-245 128.5,-245 128.5,-226 157.5,-226 157.5,-245"/>
<text text-anchor="middle" x="143" y="-233" font-family="Helvetica,sans-Serif" font-size="10.00">ρ</text>
</a>
</g>
</g>
<!-- Node1&#45;&gt;Node8 -->
<g id="edge8" class="edge">
<title>Node1&#45;&gt;Node8</title>
<path fill="none" stroke="#63b8ff" d="M41.1,-151.04C52.29,-166.66 76.4,-197.91 103,-217.5 107.8,-221.04 113.41,-224.12 118.86,-226.69"/>
<polygon fill="#63b8ff" stroke="#63b8ff" points="117.7,-230 128.26,-230.75 120.47,-223.57 117.7,-230"/>
</g>
<!-- Node9 -->
<g id="node9" class="node">
<title>Node9</title>
<g id="a_node9"><a xlink:href="structquala_1_1LBFGSStorage.html#a15e4a3db39457cabe764a7737d24e73f" target="_top" xlink:title=" ">
<polygon fill="white" stroke="#666666" points="349.5,-94 219.5,-94 219.5,-75 349.5,-75 349.5,-94"/>
<text text-anchor="middle" x="284.5" y="-82" font-family="Helvetica,sans-Serif" font-size="10.00">quala::LBFGSStorage::s</text>
</a>
</g>
</g>
<!-- Node1&#45;&gt;Node9 -->
<g id="edge10" class="edge">
<title>Node1&#45;&gt;Node9</title>
<path fill="none" stroke="#63b8ff" d="M47.92,-131.9C61.22,-122.93 82.51,-109.97 103,-103.5 136.9,-92.8 175.98,-87.84 209.09,-85.64"/>
<polygon fill="#63b8ff" stroke="#63b8ff" points="209.39,-89.13 219.16,-85.04 208.97,-82.14 209.39,-89.13"/>
</g>
<!-- Node10 -->
<g id="node10" class="node">
<title>Node10</title>
<g id="a_node10"><a xlink:href="classquala_1_1LBFGS.html#a15e4a3db39457cabe764a7737d24e73f" target="_top" xlink:title=" ">
<polygon fill="white" stroke="#666666" points="157.5,-56 128.5,-56 128.5,-37 157.5,-37 157.5,-56"/>
<text text-anchor="middle" x="143" y="-44" font-family="Helvetica,sans-Serif" font-size="10.00">s</text>
</a>
</g>
</g>
<!-- Node1&#45;&gt;Node10 -->
<g id="edge12" class="edge">
<title>Node1&#45;&gt;Node10</title>
<path fill="none" stroke="#63b8ff" d="M42.68,-131.55C54.87,-117.08 78.98,-89.83 103,-70.5 108.08,-66.41 113.91,-62.48 119.48,-59.03"/>
<polygon fill="#63b8ff" stroke="#63b8ff" points="121.63,-61.82 128.45,-53.72 118.06,-55.8 121.63,-61.82"/>
</g>
<!-- Node11 -->
<g id="node11" class="node">
<title>Node11</title>
<g id="a_node11"><a xlink:href="classquala_1_1LBFGS.html#a1109c880f1969f61532c94c19122e927" target="_top" xlink:title="Check if the new vectors s and y allow for a valid BFGS update that preserves the positive definitene...">
<polygon fill="white" stroke="#666666" points="183,-19 103,-19 103,0 183,0 183,-19"/>
<text text-anchor="middle" x="143" y="-7" font-family="Helvetica,sans-Serif" font-size="10.00">update_valid</text>
</a>
</g>
</g>
<!-- Node1&#45;&gt;Node11 -->
<g id="edge14" class="edge">
<title>Node1&#45;&gt;Node11</title>
<path fill="none" stroke="#63b8ff" d="M37.96,-131.95C46.15,-110.57 68.62,-58.33 103,-27.5 104.15,-26.47 105.36,-25.49 106.62,-24.56"/>
<polygon fill="#63b8ff" stroke="#63b8ff" points="108.82,-27.32 115.49,-19.1 105.15,-21.36 108.82,-27.32"/>
</g>
<!-- Node14 -->
<g id="node14" class="node">
<title>Node14</title>
<g id="a_node14"><a xlink:href="classquala_1_1LBFGS.html#aebac2ec4461761a48a7284152a8217f8" target="_top" xlink:title=" ">
<polygon fill="white" stroke="#666666" points="157.5,-132 128.5,-132 128.5,-113 157.5,-113 157.5,-132"/>
<text text-anchor="middle" x="143" y="-120" font-family="Helvetica,sans-Serif" font-size="10.00">y</text>
</a>
</g>
</g>
<!-- Node1&#45;&gt;Node14 -->
<g id="edge18" class="edge">
<title>Node1&#45;&gt;Node14</title>
<path fill="none" stroke="#63b8ff" d="M67.05,-135.75C83.55,-132.83 103.24,-129.35 118.3,-126.69"/>
<polygon fill="#63b8ff" stroke="#63b8ff" points="119.09,-130.1 128.33,-124.92 117.87,-123.21 119.09,-130.1"/>
</g>
<!-- Node3 -->
<g id="node3" class="node">
<title>Node3</title>
<g id="a_node3"><a xlink:href="structquala_1_1LBFGSStorage.html#a727afc7a58d2e44ae7add57e3fa77bc6" target="_top" xlink:title="Get the size of the s and y vectors in the buffer.">
<polygon fill="white" stroke="#666666" points="684,-113 553,-113 553,-94 684,-94 684,-113"/>
<text text-anchor="middle" x="618.5" y="-101" font-family="Helvetica,sans-Serif" font-size="10.00">quala::LBFGSStorage::n</text>
</a>
</g>
</g>
<!-- Node2&#45;&gt;Node3 -->
<g id="edge2" class="edge">
<title>Node2&#45;&gt;Node3</title>
<path fill="none" stroke="#63b8ff" d="M350.11,-243.74C398.57,-246.29 465.19,-243.5 517,-217.5 559.45,-196.2 591.89,-148.49 607.41,-122.04"/>
<polygon fill="#63b8ff" stroke="#63b8ff" points="610.62,-123.47 612.52,-113.05 604.54,-120.02 610.62,-123.47"/>
</g>
<!-- Node5 -->
<g id="node5" class="node">
<title>Node5</title>
<g id="a_node5"><a xlink:href="classquala_1_1LBFGS.html#a9cf7dcccbc3bc69a10833450ee79c623" target="_top" xlink:title="Get the number of previous vectors s and y stored in the buffer.">
<polygon fill="white" stroke="#666666" points="309.5,-206 259.5,-206 259.5,-187 309.5,-187 309.5,-206"/>
<text text-anchor="middle" x="284.5" y="-194" font-family="Helvetica,sans-Serif" font-size="10.00">history</text>
</a>
</g>
</g>
<!-- Node4&#45;&gt;Node5 -->
<g id="edge4" class="edge">
<title>Node4&#45;&gt;Node5</title>
<path fill="none" stroke="#63b8ff" d="M162.24,-198.24C184.14,-197.92 221.37,-197.39 248.81,-197"/>
<polygon fill="#63b8ff" stroke="#63b8ff" points="249.21,-200.49 259.16,-196.85 249.11,-193.49 249.21,-200.49"/>
</g>
<!-- Node6 -->
<g id="node6" class="node">
<title>Node6</title>
<g id="a_node6"><a xlink:href="structquala_1_1LBFGSStorage.html#a9cf7dcccbc3bc69a10833450ee79c623" target="_top" xlink:title="Get the number of previous vectors s and y stored in the buffer.">
<polygon fill="white" stroke="#666666" points="511,-208.5 392,-208.5 392,-178.5 511,-178.5 511,-208.5"/>
<text text-anchor="start" x="400" y="-196.5" font-family="Helvetica,sans-Serif" font-size="10.00">quala::LBFGSStorage</text>
<text text-anchor="middle" x="451.5" y="-185.5" font-family="Helvetica,sans-Serif" font-size="10.00">::history</text>
</a>
</g>
</g>
<!-- Node5&#45;&gt;Node6 -->
<g id="edge5" class="edge">
<title>Node5&#45;&gt;Node6</title>
<path fill="none" stroke="#63b8ff" d="M309.85,-196.06C328.84,-195.71 356.2,-195.21 381.75,-194.75"/>
<polygon fill="#63b8ff" stroke="#63b8ff" points="381.87,-198.25 391.8,-194.57 381.74,-191.25 381.87,-198.25"/>
</g>
<!-- Node7&#45;&gt;Node3 -->
<g id="edge7" class="edge">
<title>Node7&#45;&gt;Node3</title>
<path fill="none" stroke="#63b8ff" d="M350.3,-118.79C405.49,-115.63 484.8,-111.09 542.68,-107.78"/>
<polygon fill="#63b8ff" stroke="#63b8ff" points="543.08,-111.26 552.86,-107.2 542.68,-104.28 543.08,-111.26"/>
</g>
<!-- Node8&#45;&gt;Node2 -->
<g id="edge9" class="edge">
<title>Node8&#45;&gt;Node2</title>
<path fill="none" stroke="#63b8ff" d="M157.63,-235.6C169.89,-235.69 188.94,-235.82 208.54,-235.96"/>
<polygon fill="#63b8ff" stroke="#63b8ff" points="208.79,-239.46 218.81,-236.04 208.84,-232.46 208.79,-239.46"/>
</g>
<!-- Node9&#45;&gt;Node3 -->
<g id="edge11" class="edge">
<title>Node9&#45;&gt;Node3</title>
<path fill="none" stroke="#63b8ff" d="M349.51,-88.16C404.71,-91.32 484.46,-95.89 542.6,-99.21"/>
<polygon fill="#63b8ff" stroke="#63b8ff" points="542.65,-102.72 552.83,-99.8 543.05,-95.73 542.65,-102.72"/>
</g>
<!-- Node10&#45;&gt;Node9 -->
<g id="edge13" class="edge">
<title>Node10&#45;&gt;Node9</title>
<path fill="none" stroke="#63b8ff" d="M157.63,-50.21C176.19,-55.27 210.32,-64.57 238.36,-72.2"/>
<polygon fill="#63b8ff" stroke="#63b8ff" points="237.81,-75.68 248.38,-74.93 239.65,-68.93 237.81,-75.68"/>
</g>
<!-- Node12 -->
<g id="node12" class="node">
<title>Node12</title>
<g id="a_node12"><a xlink:href="classquala_1_1LBFGS.html#ac7c2ee7d2562303f555dd1f4c3fca8cd" target="_top" xlink:title=" ">
<polygon fill="white" stroke="#666666" points="299,-29 270,-29 270,-10 299,-10 299,-29"/>
<text text-anchor="middle" x="284.5" y="-17" font-family="Helvetica,sans-Serif" font-size="10.00">α</text>
</a>
</g>
</g>
<!-- Node11&#45;&gt;Node12 -->
<g id="edge15" class="edge">
<title>Node11&#45;&gt;Node12</title>
<path fill="none" stroke="#63b8ff" d="M183.23,-12.31C207.82,-14.08 238.72,-16.29 259.67,-17.79"/>
<polygon fill="#63b8ff" stroke="#63b8ff" points="259.68,-21.3 269.91,-18.53 260.18,-14.32 259.68,-21.3"/>
</g>
<!-- Node13 -->
<g id="node13" class="node">
<title>Node13</title>
<g id="a_node13"><a xlink:href="structquala_1_1LBFGSStorage.html#ac7c2ee7d2562303f555dd1f4c3fca8cd" target="_top" xlink:title=" ">
<polygon fill="white" stroke="#666666" points="517,-47 386,-47 386,-28 517,-28 517,-47"/>
<text text-anchor="middle" x="451.5" y="-35" font-family="Helvetica,sans-Serif" font-size="10.00">quala::LBFGSStorage::α</text>
</a>
</g>
</g>
<!-- Node12&#45;&gt;Node13 -->
<g id="edge16" class="edge">
<title>Node12&#45;&gt;Node13</title>
<path fill="none" stroke="#63b8ff" d="M299,-20.97C315.94,-22.82 346.3,-26.13 375.42,-29.31"/>
<polygon fill="#63b8ff" stroke="#63b8ff" points="375.33,-32.82 385.65,-30.43 376.09,-25.86 375.33,-32.82"/>
</g>
<!-- Node13&#45;&gt;Node3 -->
<g id="edge17" class="edge">
<title>Node13&#45;&gt;Node3</title>
<path fill="none" stroke="#63b8ff" d="M476.49,-47.1C504.92,-58.47 552.45,-77.48 584.38,-90.25"/>
<polygon fill="#63b8ff" stroke="#63b8ff" points="583.16,-93.53 593.75,-94 585.76,-87.03 583.16,-93.53"/>
</g>
<!-- Node14&#45;&gt;Node7 -->
<g id="edge19" class="edge">
<title>Node14&#45;&gt;Node7</title>
<path fill="none" stroke="#63b8ff" d="M157.63,-122.5C169.89,-122.5 188.94,-122.5 208.54,-122.5"/>
<polygon fill="#63b8ff" stroke="#63b8ff" points="208.81,-126 218.81,-122.5 208.81,-119 208.81,-126"/>
</g>
</g>
</svg>
