<?xml version="1.0" encoding="UTF-8" standalone="no"?>
<!DOCTYPE svg PUBLIC "-//W3C//DTD SVG 1.1//EN"
 "http://www.w3.org/Graphics/SVG/1.1/DTD/svg11.dtd">
<!-- Generated by graphviz version 2.43.0 (0)
 -->
<!-- Title: r_succ Pages: 1 -->
<svg width="514pt" height="101pt"
 viewBox="0.00 0.00 514.00 101.00" xmlns="http://www.w3.org/2000/svg" xmlns:xlink="http://www.w3.org/1999/xlink">
<g id="graph0" class="graph" transform="scale(1 1) rotate(0) translate(4 97)">
<title>r_succ</title>
<!-- Node1 -->
<g id="node1" class="node">
<title>Node1</title>
<g id="a_node1"><a xlink:title="Get the next index in the circular storage for R.">
<polygon fill="#999999" stroke="#666666" points="506,-56 459,-56 459,-37 506,-37 506,-56"/>
<text text-anchor="middle" x="482.5" y="-44" font-family="Helvetica,sans-Serif" font-size="10.00">r_succ</text>
</a>
</g>
</g>
<!-- Node2 -->
<g id="node2" class="node">
<title>Node2</title>
<g id="a_node2"><a xlink:href="classquala_1_1LimitedMemoryQR.html#a5e3077223e98c1e4e286e01503f220d5" target="_top" xlink:title="Add the given column to the right.">
<polygon fill="white" stroke="#666666" points="413.5,-93 337.5,-93 337.5,-74 413.5,-74 413.5,-93"/>
<text text-anchor="middle" x="375.5" y="-81" font-family="Helvetica,sans-Serif" font-size="10.00">add_column</text>
</a>
</g>
</g>
<!-- Node1&#45;&gt;Node2 -->
<g id="edge1" class="edge">
<title>Node1&#45;&gt;Node2</title>
<path fill="none" stroke="#63b8ff" d="M449.36,-57.83C434.8,-62.96 417.77,-68.96 403.84,-73.87"/>
<polygon fill="#63b8ff" stroke="#63b8ff" points="450.71,-61.06 458.97,-54.44 448.38,-54.46 450.71,-61.06"/>
</g>
<!-- Node5 -->
<g id="node5" class="node">
<title>Node5</title>
<g id="a_node5"><a xlink:href="classquala_1_1LimitedMemoryQR.html#a436c4dbbf0476354ca67a104bc005e55" target="_top" xlink:title="Remove the leftmost column.">
<polygon fill="white" stroke="#666666" points="423,-56 328,-56 328,-37 423,-37 423,-56"/>
<text text-anchor="middle" x="375.5" y="-44" font-family="Helvetica,sans-Serif" font-size="10.00">remove_column</text>
</a>
</g>
</g>
<!-- Node1&#45;&gt;Node5 -->
<g id="edge4" class="edge">
<title>Node1&#45;&gt;Node5</title>
<path fill="none" stroke="#63b8ff" d="M448.8,-46.5C440.68,-46.5 431.82,-46.5 423.16,-46.5"/>
<polygon fill="#63b8ff" stroke="#63b8ff" points="448.97,-50 458.97,-46.5 448.97,-43 448.97,-50"/>
</g>
<!-- Node6 -->
<g id="node6" class="node">
<title>Node6</title>
<g id="a_node6"><a xlink:href="classquala_1_1LimitedMemoryQR.html#ad24371ff0ab7c48c4fb9750d5d66cd0c" target="_top" xlink:title="Get the next index in the circular buffer.">
<polygon fill="white" stroke="#666666" points="406.5,-19 344.5,-19 344.5,0 406.5,0 406.5,-19"/>
<text text-anchor="middle" x="375.5" y="-7" font-family="Helvetica,sans-Serif" font-size="10.00">ring_next</text>
</a>
</g>
</g>
<!-- Node1&#45;&gt;Node6 -->
<g id="edge6" class="edge">
<title>Node1&#45;&gt;Node6</title>
<path fill="none" stroke="#63b8ff" d="M449.36,-35.17C434.8,-30.04 417.77,-24.04 403.84,-19.13"/>
<polygon fill="#63b8ff" stroke="#63b8ff" points="448.38,-38.54 458.97,-38.56 450.71,-31.94 448.38,-38.54"/>
</g>
<!-- Node3 -->
<g id="node3" class="node">
<title>Node3</title>
<g id="a_node3"><a xlink:href="namespacequala.html#a6c177816e8d54a88f83d46bd040851e7" target="_top" xlink:title="Solve one step of Anderson acceleration to find a fixed point of a function g(x):">
<polygon fill="white" stroke="#666666" points="292,-79.5 158,-79.5 158,-49.5 292,-49.5 292,-79.5"/>
<text text-anchor="start" x="166" y="-67.5" font-family="Helvetica,sans-Serif" font-size="10.00">quala::minimize_update</text>
<text text-anchor="middle" x="225" y="-56.5" font-family="Helvetica,sans-Serif" font-size="10.00">_anderson</text>
</a>
</g>
</g>
<!-- Node2&#45;&gt;Node3 -->
<g id="edge2" class="edge">
<title>Node2&#45;&gt;Node3</title>
<path fill="none" stroke="#63b8ff" d="M327.4,-77.47C316.18,-76.04 303.99,-74.48 292.08,-72.95"/>
<polygon fill="#63b8ff" stroke="#63b8ff" points="327.05,-80.96 337.41,-78.75 327.94,-74.01 327.05,-80.96"/>
</g>
<!-- Node4 -->
<g id="node4" class="node">
<title>Node4</title>
<g id="a_node4"><a xlink:href="classquala_1_1AndersonAccel.html#a7cbecaa52700158ebe36c0d587791ed4" target="_top" xlink:title="Compute the accelerated iterate , given the function value at the current iterate &#160;and the correspond...">
<polygon fill="white" stroke="#666666" points="122,-79.5 0,-79.5 0,-49.5 122,-49.5 122,-79.5"/>
<text text-anchor="start" x="8" y="-67.5" font-family="Helvetica,sans-Serif" font-size="10.00">quala::AndersonAccel</text>
<text text-anchor="middle" x="61" y="-56.5" font-family="Helvetica,sans-Serif" font-size="10.00">::compute</text>
</a>
</g>
</g>
<!-- Node3&#45;&gt;Node4 -->
<g id="edge3" class="edge">
<title>Node3&#45;&gt;Node4</title>
<path fill="none" stroke="#63b8ff" d="M147.61,-64.5C139.02,-64.5 130.36,-64.5 122.01,-64.5"/>
<polygon fill="#63b8ff" stroke="#63b8ff" points="147.64,-68 157.64,-64.5 147.64,-61 147.64,-68"/>
</g>
<!-- Node5&#45;&gt;Node3 -->
<g id="edge5" class="edge">
<title>Node5&#45;&gt;Node3</title>
<path fill="none" stroke="#63b8ff" d="M317.89,-53.36C309.51,-54.38 300.82,-55.43 292.27,-56.47"/>
<polygon fill="#63b8ff" stroke="#63b8ff" points="318.41,-56.82 327.92,-52.15 317.57,-49.87 318.41,-56.82"/>
</g>
</g>
</svg>
