<?xml version="1.0" encoding="UTF-8" standalone="no"?>
<!DOCTYPE svg PUBLIC "-//W3C//DTD SVG 1.1//EN"
 "http://www.w3.org/Graphics/SVG/1.1/DTD/svg11.dtd">
<!-- Generated by graphviz version 2.43.0 (0)
 -->
<!-- Title: resize Pages: 1 -->
<svg width="424pt" height="117pt"
 viewBox="0.00 0.00 424.00 116.50" xmlns="http://www.w3.org/2000/svg" xmlns:xlink="http://www.w3.org/1999/xlink">
<g id="graph0" class="graph" transform="scale(1 1) rotate(0) translate(4 112.5)">
<title>resize</title>
<!-- Node1 -->
<g id="node1" class="node">
<title>Node1</title>
<g id="a_node1"><a xlink:title="Change the problem dimension.">
<polygon fill="#999999" stroke="#666666" points="46,-86.5 0,-86.5 0,-67.5 46,-67.5 46,-86.5"/>
<text text-anchor="middle" x="23" y="-74.5" font-family="Helvetica,sans-Serif" font-size="10.00">resize</text>
</a>
</g>
</g>
<!-- Node2 -->
<g id="node2" class="node">
<title>Node2</title>
<g id="a_node2"><a xlink:href="classquala_1_1AndersonAccel.html#a727afc7a58d2e44ae7add57e3fa77bc6" target="_top" xlink:title="Get the problem dimension.">
<polygon fill="white" stroke="#666666" points="167,-108.5 138,-108.5 138,-89.5 167,-89.5 167,-108.5"/>
<text text-anchor="middle" x="152.5" y="-96.5" font-family="Helvetica,sans-Serif" font-size="10.00">n</text>
</a>
</g>
</g>
<!-- Node1&#45;&gt;Node2 -->
<g id="edge1" class="edge">
<title>Node1&#45;&gt;Node2</title>
<path fill="none" stroke="#63b8ff" d="M46.21,-80.83C69,-84.76 104.33,-90.86 127.69,-94.89"/>
<polygon fill="#63b8ff" stroke="#63b8ff" points="127.34,-98.38 137.79,-96.63 128.53,-91.48 127.34,-98.38"/>
</g>
<!-- Node4 -->
<g id="node4" class="node">
<title>Node4</title>
<g id="a_node4"><a xlink:href="classquala_1_1LimitedMemoryQR.html#ad15543203799d1dccb5a5e1c572e3f02" target="_top" xlink:title="Re&#45;allocate storage for a problem with a different size.">
<polygon fill="white" stroke="#666666" points="223,-71 82,-71 82,-41 223,-41 223,-71"/>
<text text-anchor="start" x="90" y="-59" font-family="Helvetica,sans-Serif" font-size="10.00">quala::LimitedMemoryQR</text>
<text text-anchor="middle" x="152.5" y="-48" font-family="Helvetica,sans-Serif" font-size="10.00">::resize</text>
</a>
</g>
</g>
<!-- Node1&#45;&gt;Node4 -->
<g id="edge3" class="edge">
<title>Node1&#45;&gt;Node4</title>
<path fill="none" stroke="#63b8ff" d="M46.21,-73.34C53.73,-72.1 62.61,-70.64 71.98,-69.1"/>
<polygon fill="#63b8ff" stroke="#63b8ff" points="72.59,-72.54 81.89,-67.47 71.45,-65.64 72.59,-72.54"/>
</g>
<!-- Node3 -->
<g id="node3" class="node">
<title>Node3</title>
<g id="a_node3"><a xlink:href="classquala_1_1LimitedMemoryQR.html#a727afc7a58d2e44ae7add57e3fa77bc6" target="_top" xlink:title=" ">
<polygon fill="white" stroke="#666666" points="414,-107.5 261,-107.5 261,-88.5 414,-88.5 414,-107.5"/>
<text text-anchor="middle" x="337.5" y="-95.5" font-family="Helvetica,sans-Serif" font-size="10.00">quala::LimitedMemoryQR::n</text>
</a>
</g>
</g>
<!-- Node2&#45;&gt;Node3 -->
<g id="edge2" class="edge">
<title>Node2&#45;&gt;Node3</title>
<path fill="none" stroke="#63b8ff" d="M167.25,-98.92C185.26,-98.83 218.31,-98.65 250.46,-98.47"/>
<polygon fill="#63b8ff" stroke="#63b8ff" points="250.86,-101.97 260.85,-98.41 250.83,-94.97 250.86,-101.97"/>
</g>
<!-- Node4&#45;&gt;Node3 -->
<g id="edge5" class="edge">
<title>Node4&#45;&gt;Node3</title>
<path fill="none" stroke="#63b8ff" d="M219.05,-71.04C240.82,-76.04 264.73,-81.53 285.26,-86.24"/>
<polygon fill="#63b8ff" stroke="#63b8ff" points="284.51,-89.66 295.04,-88.48 286.07,-82.84 284.51,-89.66"/>
</g>
<!-- Node5 -->
<g id="node5" class="node">
<title>Node5</title>
<g id="a_node5"><a xlink:href="classquala_1_1LimitedMemoryQR.html#ac397ae83f5f4dd3d5cf9926f26acfb2d" target="_top" xlink:title=" ">
<polygon fill="white" stroke="#666666" points="416,-67.5 259,-67.5 259,-48.5 416,-48.5 416,-67.5"/>
<text text-anchor="middle" x="337.5" y="-55.5" font-family="Helvetica,sans-Serif" font-size="10.00">quala::LimitedMemoryQR::m</text>
</a>
</g>
</g>
<!-- Node4&#45;&gt;Node5 -->
<g id="edge4" class="edge">
<title>Node4&#45;&gt;Node5</title>
<path fill="none" stroke="#63b8ff" d="M223.21,-56.76C231.56,-56.85 240.16,-56.95 248.72,-57.04"/>
<polygon fill="#63b8ff" stroke="#63b8ff" points="248.7,-60.54 258.74,-57.15 248.78,-53.54 248.7,-60.54"/>
</g>
<!-- Node6 -->
<g id="node6" class="node">
<title>Node6</title>
<g id="a_node6"><a xlink:href="classquala_1_1LimitedMemoryQR.html#ad20897c5c8bd47f5d4005989bead0e55" target="_top" xlink:title="Reset all indices, clearing the Q and R matrices.">
<polygon fill="white" stroke="#666666" points="408,-30 267,-30 267,0 408,0 408,-30"/>
<text text-anchor="start" x="275" y="-18" font-family="Helvetica,sans-Serif" font-size="10.00">quala::LimitedMemoryQR</text>
<text text-anchor="middle" x="337.5" y="-7" font-family="Helvetica,sans-Serif" font-size="10.00">::reset</text>
</a>
</g>
</g>
<!-- Node4&#45;&gt;Node6 -->
<g id="edge6" class="edge">
<title>Node4&#45;&gt;Node6</title>
<path fill="none" stroke="#63b8ff" d="M220.6,-40.97C233.28,-38.12 246.64,-35.13 259.59,-32.23"/>
<polygon fill="#63b8ff" stroke="#63b8ff" points="260.41,-35.63 269.4,-30.03 258.88,-28.8 260.41,-35.63"/>
</g>
</g>
</svg>
