<?xml version="1.0" encoding="UTF-8" standalone="no"?>
<!DOCTYPE svg PUBLIC "-//W3C//DTD SVG 1.1//EN"
 "http://www.w3.org/Graphics/SVG/1.1/DTD/svg11.dtd">
<!-- Generated by graphviz version 2.43.0 (0)
 -->
<!-- Title: current_history Pages: 1 -->
<svg width="405pt" height="38pt"
 viewBox="0.00 0.00 405.00 38.00" xmlns="http://www.w3.org/2000/svg" xmlns:xlink="http://www.w3.org/1999/xlink">
<g id="graph0" class="graph" transform="scale(1 1) rotate(0) translate(4 34)">
<title>current_history</title>
<!-- Node1 -->
<g id="node1" class="node">
<title>Node1</title>
<g id="a_node1"><a xlink:title="Get the number of columns currently stored in the buffer.">
<polygon fill="#999999" stroke="#666666" points="397,-24.5 307,-24.5 307,-5.5 397,-5.5 397,-24.5"/>
<text text-anchor="middle" x="352" y="-12.5" font-family="Helvetica,sans-Serif" font-size="10.00">current_history</text>
</a>
</g>
</g>
<!-- Node2 -->
<g id="node2" class="node">
<title>Node2</title>
<g id="a_node2"><a xlink:href="classquala_1_1AndersonAccel.html#a3c6a2dbecc0d6f8cd90bef088c46b072" target="_top" xlink:title="Get the number of columns currently stored in the buffer.">
<polygon fill="white" stroke="#666666" points="271,-30 149,-30 149,0 271,0 271,-30"/>
<text text-anchor="start" x="157" y="-18" font-family="Helvetica,sans-Serif" font-size="10.00">quala::AndersonAccel</text>
<text text-anchor="middle" x="210" y="-7" font-family="Helvetica,sans-Serif" font-size="10.00">::current_history</text>
</a>
</g>
</g>
<!-- Node1&#45;&gt;Node2 -->
<g id="edge1" class="edge">
<title>Node1&#45;&gt;Node2</title>
<path fill="none" stroke="#63b8ff" d="M296.68,-15C288.31,-15 279.62,-15 271.13,-15"/>
<polygon fill="#63b8ff" stroke="#63b8ff" points="296.7,-18.5 306.7,-15 296.7,-11.5 296.7,-18.5"/>
</g>
<!-- Node3 -->
<g id="node3" class="node">
<title>Node3</title>
<g id="a_node3"><a xlink:href="quala_8py_8cpp.html#a12fb4e87da488d1fc7c6fa3e6a3adb90" target="_top" xlink:title=" ">
<polygon fill="white" stroke="#666666" points="113,-24.5 0,-24.5 0,-5.5 113,-5.5 113,-24.5"/>
<text text-anchor="middle" x="56.5" y="-12.5" font-family="Helvetica,sans-Serif" font-size="10.00">PYBIND11_MODULE</text>
</a>
</g>
</g>
<!-- Node2&#45;&gt;Node3 -->
<g id="edge2" class="edge">
<title>Node2&#45;&gt;Node3</title>
<path fill="none" stroke="#63b8ff" d="M138.43,-15C129.96,-15 121.4,-15 113.18,-15"/>
<polygon fill="#63b8ff" stroke="#63b8ff" points="138.69,-18.5 148.69,-15 138.69,-11.5 138.69,-18.5"/>
</g>
</g>
</svg>
