<?xml version="1.0" encoding="UTF-8" standalone="no"?>
<!DOCTYPE svg PUBLIC "-//W3C//DTD SVG 1.1//EN"
 "http://www.w3.org/Graphics/SVG/1.1/DTD/svg11.dtd">
<!-- Generated by graphviz version 2.43.0 (0)
 -->
<!-- Title: pred Pages: 1 -->
<svg width="275pt" height="27pt"
 viewBox="0.00 0.00 275.00 27.00" xmlns="http://www.w3.org/2000/svg" xmlns:xlink="http://www.w3.org/1999/xlink">
<g id="graph0" class="graph" transform="scale(1 1) rotate(0) translate(4 23)">
<title>pred</title>
<!-- Node1 -->
<g id="node1" class="node">
<title>Node1</title>
<g id="a_node1"><a xlink:title="Get the previous index in the circular buffer of s and y vectors.">
<polygon fill="#999999" stroke="#666666" points="267,-19 229,-19 229,0 267,0 267,-19"/>
<text text-anchor="middle" x="248" y="-7" font-family="Helvetica,sans-Serif" font-size="10.00">pred</text>
</a>
</g>
</g>
<!-- Node2 -->
<g id="node2" class="node">
<title>Node2</title>
<g id="a_node2"><a xlink:href="classquala_1_1LBFGS.html#a9ae2b583badddda6ec2917bb565688c3" target="_top" xlink:title="Apply the inverse Hessian approximation to the given vector q.">
<polygon fill="white" stroke="#666666" points="193,-19 149,-19 149,0 193,0 193,-19"/>
<text text-anchor="middle" x="171" y="-7" font-family="Helvetica,sans-Serif" font-size="10.00">apply</text>
</a>
</g>
</g>
<!-- Node1&#45;&gt;Node2 -->
<g id="edge1" class="edge">
<title>Node1&#45;&gt;Node2</title>
<path fill="none" stroke="#63b8ff" d="M218.64,-9.5C210.19,-9.5 201.08,-9.5 193.18,-9.5"/>
<polygon fill="#63b8ff" stroke="#63b8ff" points="218.84,-13 228.84,-9.5 218.84,-6 218.84,-13"/>
</g>
<!-- Node3 -->
<g id="node3" class="node">
<title>Node3</title>
<g id="a_node3"><a xlink:href="quala_8py_8cpp.html#a12fb4e87da488d1fc7c6fa3e6a3adb90" target="_top" xlink:title=" ">
<polygon fill="white" stroke="#666666" points="113,-19 0,-19 0,0 113,0 113,-19"/>
<text text-anchor="middle" x="56.5" y="-7" font-family="Helvetica,sans-Serif" font-size="10.00">PYBIND11_MODULE</text>
</a>
</g>
</g>
<!-- Node2&#45;&gt;Node3 -->
<g id="edge2" class="edge">
<title>Node2&#45;&gt;Node3</title>
<path fill="none" stroke="#63b8ff" d="M138.62,-9.5C130.7,-9.5 121.95,-9.5 113.21,-9.5"/>
<polygon fill="#63b8ff" stroke="#63b8ff" points="138.84,-13 148.84,-9.5 138.84,-6 138.84,-13"/>
</g>
</g>
</svg>
