<?xml version="1.0" encoding="UTF-8" standalone="no"?>
<!DOCTYPE svg PUBLIC "-//W3C//DTD SVG 1.1//EN"
 "http://www.w3.org/Graphics/SVG/1.1/DTD/svg11.dtd">
<!-- Generated by graphviz version 2.43.0 (0)
 -->
<!-- Title: history Pages: 1 -->
<svg width="548pt" height="210pt"
 viewBox="0.00 0.00 548.00 210.15" xmlns="http://www.w3.org/2000/svg" xmlns:xlink="http://www.w3.org/1999/xlink">
<g id="graph0" class="graph" transform="scale(1 1) rotate(0) translate(4 206.15)">
<title>history</title>
<!-- Node1 -->
<g id="node1" class="node">
<title>Node1</title>
<g id="a_node1"><a xlink:title="Get the number of previous vectors s and y stored in the buffer.">
<polygon fill="#999999" stroke="#666666" points="540,-114 490,-114 490,-95 540,-95 540,-114"/>
<text text-anchor="middle" x="515" y="-102" font-family="Helvetica,sans-Serif" font-size="10.00">history</text>
</a>
</g>
</g>
<!-- Node2 -->
<g id="node2" class="node">
<title>Node2</title>
<g id="a_node2"><a xlink:href="classquala_1_1LBFGS.html#a3c6a2dbecc0d6f8cd90bef088c46b072" target="_top" xlink:title="Get the number of previous s and y vectors currently stored in the buffer.">
<polygon fill="white" stroke="#666666" points="239,-190 149,-190 149,-171 239,-171 239,-190"/>
<text text-anchor="middle" x="194" y="-178" font-family="Helvetica,sans-Serif" font-size="10.00">current_history</text>
</a>
</g>
</g>
<!-- Node1&#45;&gt;Node2 -->
<g id="edge1" class="edge">
<title>Node1&#45;&gt;Node2</title>
<path fill="none" stroke="#63b8ff" d="M505.21,-123.23C495.52,-141.4 478.07,-167.87 454,-179.5 382.13,-214.21 285.41,-201.27 232.85,-190.07"/>
<polygon fill="#63b8ff" stroke="#63b8ff" points="508.41,-124.64 509.78,-114.14 502.16,-121.5 508.41,-124.64"/>
</g>
<!-- Node4 -->
<g id="node4" class="node">
<title>Node4</title>
<g id="a_node4"><a xlink:href="classquala_1_1LBFGS.html#aa871b5290773b86e2e4919bbac258a04" target="_top" xlink:title="Iterate over the indices in the history buffer, oldest first.">
<polygon fill="white" stroke="#666666" points="454,-170 378,-170 378,-151 454,-151 454,-170"/>
<text text-anchor="middle" x="416" y="-158" font-family="Helvetica,sans-Serif" font-size="10.00">foreach_fwd</text>
</a>
</g>
</g>
<!-- Node1&#45;&gt;Node4 -->
<g id="edge3" class="edge">
<title>Node1&#45;&gt;Node4</title>
<path fill="none" stroke="#63b8ff" d="M491.34,-119.69C480.26,-126.91 466.62,-135.46 454,-142.5 448.76,-145.42 442.97,-148.36 437.57,-151"/>
<polygon fill="#63b8ff" stroke="#63b8ff" points="493.54,-122.44 499.97,-114.02 489.69,-116.59 493.54,-122.44"/>
</g>
<!-- Node6 -->
<g id="node6" class="node">
<title>Node6</title>
<g id="a_node6"><a xlink:href="classquala_1_1LBFGS.html#a0804b751cf2035a35f24762474f62cbf" target="_top" xlink:title="Iterate over the indices in the history buffer, newest first.">
<polygon fill="white" stroke="#666666" points="453,-133 379,-133 379,-114 453,-114 453,-133"/>
<text text-anchor="middle" x="416" y="-121" font-family="Helvetica,sans-Serif" font-size="10.00">foreach_rev</text>
</a>
</g>
</g>
<!-- Node1&#45;&gt;Node6 -->
<g id="edge6" class="edge">
<title>Node1&#45;&gt;Node6</title>
<path fill="none" stroke="#63b8ff" d="M479.51,-111.26C470.98,-112.93 461.82,-114.72 453.21,-116.41"/>
<polygon fill="#63b8ff" stroke="#63b8ff" points="480.38,-114.65 489.52,-109.29 479.04,-107.78 480.38,-114.65"/>
</g>
<!-- Node7 -->
<g id="node7" class="node">
<title>Node7</title>
<g id="a_node7"><a xlink:href="classquala_1_1LBFGS.html#a71f7f5e949a948d578ae6f145e4c4914" target="_top" xlink:title="Get the previous index in the circular buffer of s and y vectors.">
<polygon fill="white" stroke="#666666" points="435,-96 397,-96 397,-77 435,-77 435,-96"/>
<text text-anchor="middle" x="416" y="-84" font-family="Helvetica,sans-Serif" font-size="10.00">pred</text>
</a>
</g>
</g>
<!-- Node1&#45;&gt;Node7 -->
<g id="edge8" class="edge">
<title>Node1&#45;&gt;Node7</title>
<path fill="none" stroke="#63b8ff" d="M479.52,-98.1C464.49,-95.31 447.51,-92.16 435.04,-89.85"/>
<polygon fill="#63b8ff" stroke="#63b8ff" points="479.05,-101.57 489.52,-99.96 480.33,-94.69 479.05,-101.57"/>
</g>
<!-- Node8 -->
<g id="node8" class="node">
<title>Node8</title>
<g id="a_node8"><a xlink:href="classquala_1_1LBFGS.html#adeddc1e1eb8ce1c1bbaf931b6f9a5b9c" target="_top" xlink:title="Scale the stored y vectors by the given factor.">
<polygon fill="white" stroke="#666666" points="335,-76 282,-76 282,-57 335,-57 335,-76"/>
<text text-anchor="middle" x="308.5" y="-64" font-family="Helvetica,sans-Serif" font-size="10.00">scale_y</text>
</a>
</g>
</g>
<!-- Node1&#45;&gt;Node8 -->
<g id="edge10" class="edge">
<title>Node1&#45;&gt;Node8</title>
<path fill="none" stroke="#63b8ff" d="M493.91,-88.77C482.81,-81.07 468.38,-72.59 454,-68.5 413.7,-57.04 364.49,-59.68 335.14,-62.9"/>
<polygon fill="#63b8ff" stroke="#63b8ff" points="491.89,-91.63 502.03,-94.69 496,-85.97 491.89,-91.63"/>
</g>
<!-- Node9 -->
<g id="node9" class="node">
<title>Node9</title>
<g id="a_node9"><a xlink:href="classquala_1_1LBFGS.html#a70926baed7362e4fcce66523bb8e2842" target="_top" xlink:title="Get the next index in the circular buffer of previous s and y vectors.">
<polygon fill="white" stroke="#666666" points="435,-20 397,-20 397,-1 435,-1 435,-20"/>
<text text-anchor="middle" x="416" y="-8" font-family="Helvetica,sans-Serif" font-size="10.00">succ</text>
</a>
</g>
</g>
<!-- Node1&#45;&gt;Node9 -->
<g id="edge12" class="edge">
<title>Node1&#45;&gt;Node9</title>
<path fill="none" stroke="#63b8ff" d="M500.74,-86.29C489.34,-71.36 471.96,-50.21 454,-34.5 447.89,-29.16 440.5,-24.12 433.93,-20.06"/>
<polygon fill="#63b8ff" stroke="#63b8ff" points="498.22,-88.76 507.01,-94.67 503.82,-84.57 498.22,-88.76"/>
</g>
<!-- Node3 -->
<g id="node3" class="node">
<title>Node3</title>
<g id="a_node3"><a xlink:href="quala_8py_8cpp.html#a12fb4e87da488d1fc7c6fa3e6a3adb90" target="_top" xlink:title=" ">
<polygon fill="white" stroke="#666666" points="113,-95 0,-95 0,-76 113,-76 113,-95"/>
<text text-anchor="middle" x="56.5" y="-83" font-family="Helvetica,sans-Serif" font-size="10.00">PYBIND11_MODULE</text>
</a>
</g>
</g>
<!-- Node2&#45;&gt;Node3 -->
<g id="edge2" class="edge">
<title>Node2&#45;&gt;Node3</title>
<path fill="none" stroke="#63b8ff" d="M170.85,-164.97C142.64,-145.19 94.73,-111.61 71.27,-95.16"/>
<polygon fill="#63b8ff" stroke="#63b8ff" points="169.06,-167.99 179.26,-170.87 173.08,-162.26 169.06,-167.99"/>
</g>
<!-- Node5 -->
<g id="node5" class="node">
<title>Node5</title>
<g id="a_node5"><a xlink:href="classquala_1_1LBFGS.html#a9ae2b583badddda6ec2917bb565688c3" target="_top" xlink:title="Apply the inverse Hessian approximation to the given vector q.">
<polygon fill="white" stroke="#666666" points="330.5,-133 286.5,-133 286.5,-114 330.5,-114 330.5,-133"/>
<text text-anchor="middle" x="308.5" y="-121" font-family="Helvetica,sans-Serif" font-size="10.00">apply</text>
</a>
</g>
</g>
<!-- Node4&#45;&gt;Node5 -->
<g id="edge4" class="edge">
<title>Node4&#45;&gt;Node5</title>
<path fill="none" stroke="#63b8ff" d="M378.24,-147.61C362.3,-142.02 344.21,-135.67 330.58,-130.89"/>
<polygon fill="#63b8ff" stroke="#63b8ff" points="377.24,-150.96 387.83,-150.97 379.55,-144.36 377.24,-150.96"/>
</g>
<!-- Node5&#45;&gt;Node3 -->
<g id="edge5" class="edge">
<title>Node5&#45;&gt;Node3</title>
<path fill="none" stroke="#63b8ff" d="M276.28,-118.75C235.5,-112.56 163.39,-101.6 113.15,-93.96"/>
<polygon fill="#63b8ff" stroke="#63b8ff" points="275.77,-122.22 286.19,-120.26 276.82,-115.3 275.77,-122.22"/>
</g>
<!-- Node6&#45;&gt;Node5 -->
<g id="edge7" class="edge">
<title>Node6&#45;&gt;Node5</title>
<path fill="none" stroke="#63b8ff" d="M368.94,-123.5C355.57,-123.5 341.62,-123.5 330.59,-123.5"/>
<polygon fill="#63b8ff" stroke="#63b8ff" points="368.99,-127 378.99,-123.5 368.99,-120 368.99,-127"/>
</g>
<!-- Node7&#45;&gt;Node5 -->
<g id="edge9" class="edge">
<title>Node7&#45;&gt;Node5</title>
<path fill="none" stroke="#63b8ff" d="M386.84,-96.38C369.15,-102.58 346.71,-110.45 330.56,-116.11"/>
<polygon fill="#63b8ff" stroke="#63b8ff" points="388.35,-99.56 396.62,-92.94 386.03,-92.95 388.35,-99.56"/>
</g>
<!-- Node8&#45;&gt;Node3 -->
<g id="edge11" class="edge">
<title>Node8&#45;&gt;Node3</title>
<path fill="none" stroke="#63b8ff" d="M271.51,-69.24C230.04,-72.39 161.42,-77.6 113.08,-81.28"/>
<polygon fill="#63b8ff" stroke="#63b8ff" points="271.98,-72.71 281.69,-68.46 271.45,-65.73 271.98,-72.71"/>
</g>
<!-- Node10 -->
<g id="node10" class="node">
<title>Node10</title>
<g id="a_node10"><a xlink:href="classquala_1_1LBFGS.html#af150290995e6bee28f5a0f057ed511c8" target="_top" xlink:title="Update the inverse Hessian approximation using the new vectors sₖ = xₖ₊₁ &#45; xₖ and yₖ = pₖ₊₁ &#45; pₖ.">
<polygon fill="white" stroke="#666666" points="342,-20 275,-20 275,-1 342,-1 342,-20"/>
<text text-anchor="middle" x="308.5" y="-8" font-family="Helvetica,sans-Serif" font-size="10.00">update_sy</text>
</a>
</g>
</g>
<!-- Node9&#45;&gt;Node10 -->
<g id="edge13" class="edge">
<title>Node9&#45;&gt;Node10</title>
<path fill="none" stroke="#63b8ff" d="M386.35,-10.5C372.69,-10.5 356.29,-10.5 342.15,-10.5"/>
<polygon fill="#63b8ff" stroke="#63b8ff" points="386.62,-14 396.62,-10.5 386.62,-7 386.62,-14"/>
</g>
<!-- Node10&#45;&gt;Node3 -->
<g id="edge14" class="edge">
<title>Node10&#45;&gt;Node3</title>
<path fill="none" stroke="#63b8ff" d="M265.79,-23.01C216.06,-37.93 134.07,-62.53 89.23,-75.98"/>
<polygon fill="#63b8ff" stroke="#63b8ff" points="267.01,-26.3 275.58,-20.07 265,-19.6 267.01,-26.3"/>
</g>
<!-- Node11 -->
<g id="node11" class="node">
<title>Node11</title>
<g id="a_node11"><a xlink:href="classquala_1_1LBFGS.html#ae34a8e5e432c990eb8af2f95bcbc04bd" target="_top" xlink:title="Update the inverse Hessian approximation using the new vectors xₖ₊₁ and pₖ₊₁.">
<polygon fill="white" stroke="#666666" points="219,-19 169,-19 169,0 219,0 219,-19"/>
<text text-anchor="middle" x="194" y="-7" font-family="Helvetica,sans-Serif" font-size="10.00">update</text>
</a>
</g>
</g>
<!-- Node10&#45;&gt;Node11 -->
<g id="edge15" class="edge">
<title>Node10&#45;&gt;Node11</title>
<path fill="none" stroke="#63b8ff" d="M264.61,-10.12C249.25,-9.98 232.48,-9.83 219.24,-9.72"/>
<polygon fill="#63b8ff" stroke="#63b8ff" points="264.93,-13.62 274.96,-10.21 264.99,-6.62 264.93,-13.62"/>
</g>
<!-- Node11&#45;&gt;Node3 -->
<g id="edge16" class="edge">
<title>Node11&#45;&gt;Node3</title>
<path fill="none" stroke="#63b8ff" d="M166.21,-24.02C160.52,-27.13 154.55,-30.41 149,-33.5 122.82,-48.08 92.63,-65.32 74.31,-75.83"/>
<polygon fill="#63b8ff" stroke="#63b8ff" points="168.3,-26.86 175.4,-19.01 164.95,-20.72 168.3,-26.86"/>
</g>
</g>
</svg>
