<?xml version="1.0" encoding="UTF-8" standalone="no"?>
<!DOCTYPE svg PUBLIC "-//W3C//DTD SVG 1.1//EN"
 "http://www.w3.org/Graphics/SVG/1.1/DTD/svg11.dtd">
<!-- Generated by graphviz version 2.43.0 (0)
 -->
<!-- Title: s̃ Pages: 1 -->
<svg width="226pt" height="64pt"
 viewBox="0.00 0.00 226.00 64.00" xmlns="http://www.w3.org/2000/svg" xmlns:xlink="http://www.w3.org/1999/xlink">
<g id="graph0" class="graph" transform="scale(1 1) rotate(0) translate(4 60)">
<title>s̃</title>
<!-- Node1 -->
<g id="node1" class="node">
<title>Node1</title>
<g id="a_node1"><a xlink:title=" ">
<polygon fill="#999999" stroke="#666666" points="218,-37 189,-37 189,-18 218,-18 218,-37"/>
<text text-anchor="middle" x="203.5" y="-25" font-family="Helvetica,sans-Serif" font-size="10.00">s̃</text>
</a>
</g>
</g>
<!-- Node2 -->
<g id="node2" class="node">
<title>Node2</title>
<g id="a_node2"><a xlink:href="classquala_1_1BroydenGood.html#af3b5886c46c3f50fae33990afcc47f12" target="_top" xlink:title="Apply the inverse Jacobian approximation to the given vector q, i.e.">
<polygon fill="white" stroke="#666666" points="141.5,-56 97.5,-56 97.5,-37 141.5,-37 141.5,-56"/>
<text text-anchor="middle" x="119.5" y="-44" font-family="Helvetica,sans-Serif" font-size="10.00">apply</text>
</a>
</g>
</g>
<!-- Node1&#45;&gt;Node2 -->
<g id="edge1" class="edge">
<title>Node1&#45;&gt;Node2</title>
<path fill="none" stroke="#63b8ff" d="M178.99,-32.95C167.26,-35.67 153.17,-38.93 141.77,-41.57"/>
<polygon fill="#63b8ff" stroke="#63b8ff" points="180.01,-36.3 188.96,-30.64 178.43,-29.49 180.01,-36.3"/>
</g>
<!-- Node3 -->
<g id="node3" class="node">
<title>Node3</title>
<g id="a_node3"><a xlink:href="classquala_1_1BroydenGood.html#ad2320a49a7db3abb42d0c621a6a932bd" target="_top" xlink:title="Update the inverse Jacobian approximation using the new vectors sₖ = xₖ₊₁ &#45; xₖ and yₖ = pₖ₊₁ &#45; pₖ.">
<polygon fill="white" stroke="#666666" points="153,-19 86,-19 86,0 153,0 153,-19"/>
<text text-anchor="middle" x="119.5" y="-7" font-family="Helvetica,sans-Serif" font-size="10.00">update_sy</text>
</a>
</g>
</g>
<!-- Node1&#45;&gt;Node3 -->
<g id="edge2" class="edge">
<title>Node1&#45;&gt;Node3</title>
<path fill="none" stroke="#63b8ff" d="M179.14,-22.37C171.06,-20.6 161.86,-18.58 153.18,-16.67"/>
<polygon fill="#63b8ff" stroke="#63b8ff" points="178.44,-25.8 188.96,-24.53 179.94,-18.96 178.44,-25.8"/>
</g>
<!-- Node4 -->
<g id="node4" class="node">
<title>Node4</title>
<g id="a_node4"><a xlink:href="classquala_1_1BroydenGood.html#a306b71b9ba3fa871a4cad408f946b5a7" target="_top" xlink:title="Update the inverse Jacobian approximation using the new vectors xₖ₊₁ and pₖ₊₁.">
<polygon fill="white" stroke="#666666" points="50,-19 0,-19 0,0 50,0 50,-19"/>
<text text-anchor="middle" x="25" y="-7" font-family="Helvetica,sans-Serif" font-size="10.00">update</text>
</a>
</g>
</g>
<!-- Node3&#45;&gt;Node4 -->
<g id="edge3" class="edge">
<title>Node3&#45;&gt;Node4</title>
<path fill="none" stroke="#63b8ff" d="M75.74,-9.5C66.96,-9.5 58.02,-9.5 50.18,-9.5"/>
<polygon fill="#63b8ff" stroke="#63b8ff" points="75.89,-13 85.89,-9.5 75.89,-6 75.89,-13"/>
</g>
</g>
</svg>
