<?xml version="1.0" encoding="UTF-8" standalone="no"?>
<!DOCTYPE svg PUBLIC "-//W3C//DTD SVG 1.1//EN"
 "http://www.w3.org/Graphics/SVG/1.1/DTD/svg11.dtd">
<!-- Generated by graphviz version 2.43.0 (0)
 -->
<!-- Title: α Pages: 1 -->
<svg width="491pt" height="179pt"
 viewBox="0.00 0.00 491.00 179.00" xmlns="http://www.w3.org/2000/svg" xmlns:xlink="http://www.w3.org/1999/xlink">
<g id="graph0" class="graph" transform="scale(1 1) rotate(0) translate(4 175)">
<title>α</title>
<!-- Node1 -->
<g id="node1" class="node">
<title>Node1</title>
<g id="a_node1"><a xlink:title=" ">
<polygon fill="#999999" stroke="#666666" points="483,-133 454,-133 454,-114 483,-114 483,-133"/>
<text text-anchor="middle" x="468.5" y="-121" font-family="Helvetica,sans-Serif" font-size="10.00">α</text>
</a>
</g>
</g>
<!-- Node2 -->
<g id="node2" class="node">
<title>Node2</title>
<g id="a_node2"><a xlink:href="classquala_1_1LBFGS.html#a9ae2b583badddda6ec2917bb565688c3" target="_top" xlink:title="Apply the inverse Hessian approximation to the given vector q.">
<polygon fill="white" stroke="#666666" points="196,-171 152,-171 152,-152 196,-152 196,-171"/>
<text text-anchor="middle" x="174" y="-159" font-family="Helvetica,sans-Serif" font-size="10.00">apply</text>
</a>
</g>
</g>
<!-- Node1&#45;&gt;Node2 -->
<g id="edge1" class="edge">
<title>Node1&#45;&gt;Node2</title>
<path fill="none" stroke="#63b8ff" d="M444.14,-131.02C435.95,-133.42 426.64,-135.87 418,-137.5 336.98,-152.83 238.8,-158.72 196.31,-160.66"/>
<polygon fill="#63b8ff" stroke="#63b8ff" points="445.24,-134.35 453.79,-128.09 443.2,-127.65 445.24,-134.35"/>
</g>
<!-- Node3 -->
<g id="node3" class="node">
<title>Node3</title>
<g id="a_node3"><a xlink:href="quala_8py_8cpp.html#a12fb4e87da488d1fc7c6fa3e6a3adb90" target="_top" xlink:title=" ">
<polygon fill="white" stroke="#666666" points="113,-95 0,-95 0,-76 113,-76 113,-95"/>
<text text-anchor="middle" x="56.5" y="-83" font-family="Helvetica,sans-Serif" font-size="10.00">PYBIND11_MODULE</text>
</a>
</g>
</g>
<!-- Node1&#45;&gt;Node3 -->
<g id="edge3" class="edge">
<title>Node1&#45;&gt;Node3</title>
<path fill="none" stroke="#63b8ff" d="M443.61,-121.29C379.77,-115.37 203.87,-99.07 113.18,-90.66"/>
<polygon fill="#63b8ff" stroke="#63b8ff" points="443.58,-124.8 453.86,-122.24 444.22,-117.83 443.58,-124.8"/>
</g>
<!-- Node4 -->
<g id="node4" class="node">
<title>Node4</title>
<g id="a_node4"><a xlink:href="classquala_1_1LBFGS.html#a1109c880f1969f61532c94c19122e927" target="_top" xlink:title="Check if the new vectors s and y allow for a valid BFGS update that preserves the positive definitene...">
<polygon fill="white" stroke="#666666" points="418,-76 338,-76 338,-57 418,-57 418,-76"/>
<text text-anchor="middle" x="378" y="-64" font-family="Helvetica,sans-Serif" font-size="10.00">update_valid</text>
</a>
</g>
</g>
<!-- Node1&#45;&gt;Node4 -->
<g id="edge4" class="edge">
<title>Node1&#45;&gt;Node4</title>
<path fill="none" stroke="#63b8ff" d="M444.92,-108.95C428.9,-98.64 407.87,-85.09 393.91,-76.1"/>
<polygon fill="#63b8ff" stroke="#63b8ff" points="443.37,-112.12 453.67,-114.59 447.16,-106.24 443.37,-112.12"/>
</g>
<!-- Node2&#45;&gt;Node3 -->
<g id="edge2" class="edge">
<title>Node2&#45;&gt;Node3</title>
<path fill="none" stroke="#63b8ff" d="M149.81,-146.24C126.58,-130.96 91.56,-107.91 72.01,-95.05"/>
<polygon fill="#63b8ff" stroke="#63b8ff" points="148.09,-149.3 158.37,-151.87 151.94,-143.45 148.09,-149.3"/>
</g>
<!-- Node4&#45;&gt;Node3 -->
<g id="edge6" class="edge">
<title>Node4&#45;&gt;Node3</title>
<path fill="none" stroke="#63b8ff" d="M327.81,-69.43C269.83,-72.87 173.74,-78.59 113.11,-82.19"/>
<polygon fill="#63b8ff" stroke="#63b8ff" points="328.05,-72.92 337.82,-68.83 327.63,-65.93 328.05,-72.92"/>
</g>
<!-- Node5 -->
<g id="node5" class="node">
<title>Node5</title>
<g id="a_node5"><a xlink:href="classquala_1_1LBFGS.html#a0e0ce3dda38d6f64657929adcf05e2c8" target="_top" xlink:title="Apply the inverse Hessian approximation to the given vector q, applying only the columns and rows of ...">
<polygon fill="white" stroke="#666666" points="290.5,-57 246.5,-57 246.5,-38 290.5,-38 290.5,-57"/>
<text text-anchor="middle" x="268.5" y="-45" font-family="Helvetica,sans-Serif" font-size="10.00">apply</text>
</a>
</g>
</g>
<!-- Node4&#45;&gt;Node5 -->
<g id="edge5" class="edge">
<title>Node4&#45;&gt;Node5</title>
<path fill="none" stroke="#63b8ff" d="M327.98,-57.84C314.85,-55.52 301.35,-53.13 290.63,-51.23"/>
<polygon fill="#63b8ff" stroke="#63b8ff" points="327.43,-61.29 337.89,-59.59 328.65,-54.4 327.43,-61.29"/>
</g>
<!-- Node6 -->
<g id="node6" class="node">
<title>Node6</title>
<g id="a_node6"><a xlink:href="classquala_1_1LBFGS.html#af150290995e6bee28f5a0f057ed511c8" target="_top" xlink:title="Update the inverse Hessian approximation using the new vectors sₖ = xₖ₊₁ &#45; xₖ and yₖ = pₖ₊₁ &#45; pₖ.">
<polygon fill="white" stroke="#666666" points="302,-20 235,-20 235,-1 302,-1 302,-20"/>
<text text-anchor="middle" x="268.5" y="-8" font-family="Helvetica,sans-Serif" font-size="10.00">update_sy</text>
</a>
</g>
</g>
<!-- Node4&#45;&gt;Node6 -->
<g id="edge7" class="edge">
<title>Node4&#45;&gt;Node6</title>
<path fill="none" stroke="#63b8ff" d="M349.35,-52.1C330.08,-42.06 304.9,-28.94 288.01,-20.14"/>
<polygon fill="#63b8ff" stroke="#63b8ff" points="347.79,-55.23 358.27,-56.75 351.02,-49.02 347.79,-55.23"/>
</g>
<!-- Node6&#45;&gt;Node3 -->
<g id="edge8" class="edge">
<title>Node6&#45;&gt;Node3</title>
<path fill="none" stroke="#63b8ff" d="M230.95,-23.56C189.14,-38.48 121.69,-62.57 84.42,-75.89"/>
<polygon fill="#63b8ff" stroke="#63b8ff" points="232.24,-26.81 240.48,-20.15 229.88,-20.22 232.24,-26.81"/>
</g>
<!-- Node7 -->
<g id="node7" class="node">
<title>Node7</title>
<g id="a_node7"><a xlink:href="classquala_1_1LBFGS.html#ae34a8e5e432c990eb8af2f95bcbc04bd" target="_top" xlink:title="Update the inverse Hessian approximation using the new vectors xₖ₊₁ and pₖ₊₁.">
<polygon fill="white" stroke="#666666" points="199,-19 149,-19 149,0 199,0 199,-19"/>
<text text-anchor="middle" x="174" y="-7" font-family="Helvetica,sans-Serif" font-size="10.00">update</text>
</a>
</g>
</g>
<!-- Node6&#45;&gt;Node7 -->
<g id="edge9" class="edge">
<title>Node6&#45;&gt;Node7</title>
<path fill="none" stroke="#63b8ff" d="M224.74,-10.04C215.96,-9.94 207.02,-9.85 199.18,-9.76"/>
<polygon fill="#63b8ff" stroke="#63b8ff" points="224.85,-13.54 234.89,-10.15 224.93,-6.54 224.85,-13.54"/>
</g>
<!-- Node7&#45;&gt;Node3 -->
<g id="edge10" class="edge">
<title>Node7&#45;&gt;Node3</title>
<path fill="none" stroke="#63b8ff" d="M149.81,-24.76C126.58,-40.04 91.56,-63.09 72.01,-75.95"/>
<polygon fill="#63b8ff" stroke="#63b8ff" points="151.94,-27.55 158.37,-19.13 148.09,-21.7 151.94,-27.55"/>
</g>
</g>
</svg>
