<?xml version="1.0" encoding="UTF-8" standalone="no"?>
<!DOCTYPE svg PUBLIC "-//W3C//DTD SVG 1.1//EN"
 "http://www.w3.org/Graphics/SVG/1.1/DTD/svg11.dtd">
<!-- Generated by graphviz version 2.43.0 (0)
 -->
<!-- Title: s Pages: 1 -->
<svg width="226pt" height="103pt"
 viewBox="0.00 0.00 226.00 103.00" xmlns="http://www.w3.org/2000/svg" xmlns:xlink="http://www.w3.org/1999/xlink">
<g id="graph0" class="graph" transform="scale(1 1) rotate(0) translate(4 99)">
<title>s</title>
<!-- Node1 -->
<g id="node1" class="node">
<title>Node1</title>
<g id="a_node1"><a xlink:title=" ">
<polygon fill="#999999" stroke="#666666" points="218,-57 189,-57 189,-38 218,-38 218,-57"/>
<text text-anchor="middle" x="203.5" y="-45" font-family="Helvetica,sans-Serif" font-size="10.00">s</text>
</a>
</g>
</g>
<!-- Node2 -->
<g id="node2" class="node">
<title>Node2</title>
<g id="a_node2"><a xlink:href="classquala_1_1BroydenGood.html#af3b5886c46c3f50fae33990afcc47f12" target="_top" xlink:title="Apply the inverse Jacobian approximation to the given vector q, i.e.">
<polygon fill="white" stroke="#666666" points="141.5,-95 97.5,-95 97.5,-76 141.5,-76 141.5,-95"/>
<text text-anchor="middle" x="119.5" y="-83" font-family="Helvetica,sans-Serif" font-size="10.00">apply</text>
</a>
</g>
</g>
<!-- Node1&#45;&gt;Node2 -->
<g id="edge1" class="edge">
<title>Node1&#45;&gt;Node2</title>
<path fill="none" stroke="#63b8ff" d="M179.56,-58.13C167.5,-63.72 152.84,-70.51 141.14,-75.94"/>
<polygon fill="#63b8ff" stroke="#63b8ff" points="181.36,-61.16 188.96,-53.77 178.41,-54.8 181.36,-61.16"/>
</g>
<!-- Node3 -->
<g id="node3" class="node">
<title>Node3</title>
<g id="a_node3"><a xlink:href="classquala_1_1BroydenGood.html#a306b71b9ba3fa871a4cad408f946b5a7" target="_top" xlink:title="Update the inverse Jacobian approximation using the new vectors xₖ₊₁ and pₖ₊₁.">
<polygon fill="white" stroke="#666666" points="50,-38 0,-38 0,-19 50,-19 50,-38"/>
<text text-anchor="middle" x="25" y="-26" font-family="Helvetica,sans-Serif" font-size="10.00">update</text>
</a>
</g>
</g>
<!-- Node1&#45;&gt;Node3 -->
<g id="edge2" class="edge">
<title>Node1&#45;&gt;Node3</title>
<path fill="none" stroke="#63b8ff" d="M178.66,-44.93C144.99,-41.31 83.85,-34.73 50.06,-31.09"/>
<polygon fill="#63b8ff" stroke="#63b8ff" points="178.63,-48.45 188.94,-46.04 179.38,-41.49 178.63,-48.45"/>
</g>
<!-- Node4 -->
<g id="node4" class="node">
<title>Node4</title>
<g id="a_node4"><a xlink:href="classquala_1_1BroydenGood.html#ad2320a49a7db3abb42d0c621a6a932bd" target="_top" xlink:title="Update the inverse Jacobian approximation using the new vectors sₖ = xₖ₊₁ &#45; xₖ and yₖ = pₖ₊₁ &#45; pₖ.">
<polygon fill="white" stroke="#666666" points="153,-19 86,-19 86,0 153,0 153,-19"/>
<text text-anchor="middle" x="119.5" y="-7" font-family="Helvetica,sans-Serif" font-size="10.00">update_sy</text>
</a>
</g>
</g>
<!-- Node1&#45;&gt;Node4 -->
<g id="edge3" class="edge">
<title>Node1&#45;&gt;Node4</title>
<path fill="none" stroke="#63b8ff" d="M179.56,-36.87C167.5,-31.28 152.84,-24.49 141.14,-19.06"/>
<polygon fill="#63b8ff" stroke="#63b8ff" points="178.41,-40.2 188.96,-41.23 181.36,-33.84 178.41,-40.2"/>
</g>
<!-- Node4&#45;&gt;Node3 -->
<g id="edge4" class="edge">
<title>Node4&#45;&gt;Node3</title>
<path fill="none" stroke="#63b8ff" d="M76.03,-18.22C67.16,-20.05 58.1,-21.91 50.18,-23.53"/>
<polygon fill="#63b8ff" stroke="#63b8ff" points="76.8,-21.64 85.89,-16.2 75.39,-14.78 76.8,-21.64"/>
</g>
</g>
</svg>
