<?xml version="1.0" encoding="UTF-8" standalone="no"?>
<!DOCTYPE svg PUBLIC "-//W3C//DTD SVG 1.1//EN"
 "http://www.w3.org/Graphics/SVG/1.1/DTD/svg11.dtd">
<!-- Generated by graphviz version 2.43.0 (0)
 -->
<!-- Title: apply Pages: 1 -->
<svg width="498pt" height="249pt"
 viewBox="0.00 0.00 498.00 249.00" xmlns="http://www.w3.org/2000/svg" xmlns:xlink="http://www.w3.org/1999/xlink">
<g id="graph0" class="graph" transform="scale(1 1) rotate(0) translate(4 245)">
<title>apply</title>
<!-- Node1 -->
<g id="node1" class="node">
<title>Node1</title>
<g id="a_node1"><a xlink:title="Apply the inverse Hessian approximation to the given vector q.">
<polygon fill="#999999" stroke="#666666" points="44,-130 0,-130 0,-111 44,-111 44,-130"/>
<text text-anchor="middle" x="22" y="-118" font-family="Helvetica,sans-Serif" font-size="10.00">apply</text>
</a>
</g>
</g>
<!-- Node2 -->
<g id="node2" class="node">
<title>Node2</title>
<g id="a_node2"><a xlink:href="classquala_1_1LBFGS.html#aa871b5290773b86e2e4919bbac258a04" target="_top" xlink:title="Iterate over the indices in the history buffer, oldest first.">
<polygon fill="white" stroke="#666666" points="156,-241 80,-241 80,-222 156,-222 156,-241"/>
<text text-anchor="middle" x="118" y="-229" font-family="Helvetica,sans-Serif" font-size="10.00">foreach_fwd</text>
</a>
</g>
</g>
<!-- Node1&#45;&gt;Node2 -->
<g id="edge1" class="edge">
<title>Node1&#45;&gt;Node2</title>
<path fill="none" stroke="#63b8ff" d="M26.74,-130.16C34.28,-148.55 52.93,-188.94 80,-213.5 81.12,-214.52 82.32,-215.49 83.56,-216.42"/>
<polygon fill="#63b8ff" stroke="#63b8ff" points="81.94,-219.54 92.27,-221.92 85.67,-213.62 81.94,-219.54"/>
</g>
<!-- Node5 -->
<g id="node5" class="node">
<title>Node5</title>
<g id="a_node5"><a xlink:href="classquala_1_1LBFGS.html#a15e4a3db39457cabe764a7737d24e73f" target="_top" xlink:title=" ">
<polygon fill="white" stroke="#666666" points="132.5,-130 103.5,-130 103.5,-111 132.5,-111 132.5,-130"/>
<text text-anchor="middle" x="118" y="-118" font-family="Helvetica,sans-Serif" font-size="10.00">s</text>
</a>
</g>
</g>
<!-- Node1&#45;&gt;Node5 -->
<g id="edge4" class="edge">
<title>Node1&#45;&gt;Node5</title>
<path fill="none" stroke="#63b8ff" d="M44.33,-120.5C58.89,-120.5 78.19,-120.5 93.24,-120.5"/>
<polygon fill="#63b8ff" stroke="#63b8ff" points="93.32,-124 103.32,-120.5 93.32,-117 93.32,-124"/>
</g>
<!-- Node8 -->
<g id="node8" class="node">
<title>Node8</title>
<g id="a_node8"><a xlink:href="classquala_1_1LBFGS.html#ac7c2ee7d2562303f555dd1f4c3fca8cd" target="_top" xlink:title=" ">
<polygon fill="white" stroke="#666666" points="132.5,-93 103.5,-93 103.5,-74 132.5,-74 132.5,-93"/>
<text text-anchor="middle" x="118" y="-81" font-family="Helvetica,sans-Serif" font-size="10.00">α</text>
</a>
</g>
</g>
<!-- Node1&#45;&gt;Node8 -->
<g id="edge7" class="edge">
<title>Node1&#45;&gt;Node8</title>
<path fill="none" stroke="#63b8ff" d="M44.33,-112.1C59.03,-106.32 78.56,-98.63 93.67,-92.68"/>
<polygon fill="#63b8ff" stroke="#63b8ff" points="95.29,-95.81 103.32,-88.89 92.73,-89.29 95.29,-95.81"/>
</g>
<!-- Node10 -->
<g id="node10" class="node">
<title>Node10</title>
<g id="a_node10"><a xlink:href="classquala_1_1LBFGS.html#a0804b751cf2035a35f24762474f62cbf" target="_top" xlink:title="Iterate over the indices in the history buffer, newest first.">
<polygon fill="white" stroke="#666666" points="155,-204 81,-204 81,-185 155,-185 155,-204"/>
<text text-anchor="middle" x="118" y="-192" font-family="Helvetica,sans-Serif" font-size="10.00">foreach_rev</text>
</a>
</g>
</g>
<!-- Node1&#45;&gt;Node10 -->
<g id="edge10" class="edge">
<title>Node1&#45;&gt;Node10</title>
<path fill="none" stroke="#63b8ff" d="M31.09,-130.19C41.48,-142.19 60.51,-162.74 80,-176.5 81.66,-177.67 83.41,-178.81 85.21,-179.9"/>
<polygon fill="#63b8ff" stroke="#63b8ff" points="83.98,-183.21 94.43,-184.96 87.35,-177.08 83.98,-183.21"/>
</g>
<!-- Node11 -->
<g id="node11" class="node">
<title>Node11</title>
<g id="a_node11"><a xlink:href="classquala_1_1LBFGS.html#a71f7f5e949a948d578ae6f145e4c4914" target="_top" xlink:title="Get the previous index in the circular buffer of s and y vectors.">
<polygon fill="white" stroke="#666666" points="137,-167 99,-167 99,-148 137,-148 137,-167"/>
<text text-anchor="middle" x="118" y="-155" font-family="Helvetica,sans-Serif" font-size="10.00">pred</text>
</a>
</g>
</g>
<!-- Node1&#45;&gt;Node11 -->
<g id="edge12" class="edge">
<title>Node1&#45;&gt;Node11</title>
<path fill="none" stroke="#63b8ff" d="M44.33,-128.9C57.71,-134.16 75.09,-141 89.5,-146.68"/>
<polygon fill="#63b8ff" stroke="#63b8ff" points="88.33,-149.98 98.92,-150.38 90.89,-143.46 88.33,-149.98"/>
</g>
<!-- Node12 -->
<g id="node12" class="node">
<title>Node12</title>
<g id="a_node12"><a xlink:href="classquala_1_1LBFGS.html#aebac2ec4461761a48a7284152a8217f8" target="_top" xlink:title=" ">
<polygon fill="white" stroke="#666666" points="132.5,-56 103.5,-56 103.5,-37 132.5,-37 132.5,-56"/>
<text text-anchor="middle" x="118" y="-44" font-family="Helvetica,sans-Serif" font-size="10.00">y</text>
</a>
</g>
</g>
<!-- Node1&#45;&gt;Node12 -->
<g id="edge14" class="edge">
<title>Node1&#45;&gt;Node12</title>
<path fill="none" stroke="#63b8ff" d="M31.54,-110.65C42.09,-98.89 60.99,-79.1 80,-65.5 84.44,-62.33 89.48,-59.37 94.38,-56.78"/>
<polygon fill="#63b8ff" stroke="#63b8ff" points="96.04,-59.87 103.44,-52.29 92.93,-53.59 96.04,-59.87"/>
</g>
<!-- Node14 -->
<g id="node14" class="node">
<title>Node14</title>
<g id="a_node14"><a xlink:href="classquala_1_1LBFGS.html#acade3dc51f7ca788be9b91908b2e73ab" target="_top" xlink:title=" ">
<polygon fill="white" stroke="#666666" points="132.5,-19 103.5,-19 103.5,0 132.5,0 132.5,-19"/>
<text text-anchor="middle" x="118" y="-7" font-family="Helvetica,sans-Serif" font-size="10.00">ρ</text>
</a>
</g>
</g>
<!-- Node1&#45;&gt;Node14 -->
<g id="edge17" class="edge">
<title>Node1&#45;&gt;Node14</title>
<path fill="none" stroke="#63b8ff" d="M26.74,-110.84C34.28,-92.45 52.93,-52.06 80,-27.5 84.06,-23.81 89.02,-20.72 93.96,-18.19"/>
<polygon fill="#63b8ff" stroke="#63b8ff" points="95.54,-21.32 103.22,-14.03 92.67,-14.94 95.54,-21.32"/>
</g>
<!-- Node3 -->
<g id="node3" class="node">
<title>Node3</title>
<g id="a_node3"><a xlink:href="classquala_1_1LBFGS.html#a9cf7dcccbc3bc69a10833450ee79c623" target="_top" xlink:title="Get the number of previous vectors s and y stored in the buffer.">
<polygon fill="white" stroke="#666666" points="282.5,-204 232.5,-204 232.5,-185 282.5,-185 282.5,-204"/>
<text text-anchor="middle" x="257.5" y="-192" font-family="Helvetica,sans-Serif" font-size="10.00">history</text>
</a>
</g>
</g>
<!-- Node2&#45;&gt;Node3 -->
<g id="edge2" class="edge">
<title>Node2&#45;&gt;Node3</title>
<path fill="none" stroke="#63b8ff" d="M154.41,-221.97C175.47,-216.3 202.04,-209.15 222.79,-203.57"/>
<polygon fill="#63b8ff" stroke="#63b8ff" points="223.72,-206.95 232.47,-200.97 221.9,-200.19 223.72,-206.95"/>
</g>
<!-- Node4 -->
<g id="node4" class="node">
<title>Node4</title>
<g id="a_node4"><a xlink:href="structquala_1_1LBFGSStorage.html#a9cf7dcccbc3bc69a10833450ee79c623" target="_top" xlink:title="Get the number of previous vectors s and y stored in the buffer.">
<polygon fill="white" stroke="#666666" points="484,-209.5 365,-209.5 365,-179.5 484,-179.5 484,-209.5"/>
<text text-anchor="start" x="373" y="-197.5" font-family="Helvetica,sans-Serif" font-size="10.00">quala::LBFGSStorage</text>
<text text-anchor="middle" x="424.5" y="-186.5" font-family="Helvetica,sans-Serif" font-size="10.00">::history</text>
</a>
</g>
</g>
<!-- Node3&#45;&gt;Node4 -->
<g id="edge3" class="edge">
<title>Node3&#45;&gt;Node4</title>
<path fill="none" stroke="#63b8ff" d="M282.85,-194.5C301.84,-194.5 329.2,-194.5 354.75,-194.5"/>
<polygon fill="#63b8ff" stroke="#63b8ff" points="354.8,-198 364.8,-194.5 354.8,-191 354.8,-198"/>
</g>
<!-- Node6 -->
<g id="node6" class="node">
<title>Node6</title>
<g id="a_node6"><a xlink:href="structquala_1_1LBFGSStorage.html#a15e4a3db39457cabe764a7737d24e73f" target="_top" xlink:title=" ">
<polygon fill="white" stroke="#666666" points="322.5,-130 192.5,-130 192.5,-111 322.5,-111 322.5,-130"/>
<text text-anchor="middle" x="257.5" y="-118" font-family="Helvetica,sans-Serif" font-size="10.00">quala::LBFGSStorage::s</text>
</a>
</g>
</g>
<!-- Node5&#45;&gt;Node6 -->
<g id="edge5" class="edge">
<title>Node5&#45;&gt;Node6</title>
<path fill="none" stroke="#63b8ff" d="M132.69,-120.5C144.72,-120.5 163.24,-120.5 182.33,-120.5"/>
<polygon fill="#63b8ff" stroke="#63b8ff" points="182.33,-124 192.33,-120.5 182.33,-117 182.33,-124"/>
</g>
<!-- Node7 -->
<g id="node7" class="node">
<title>Node7</title>
<g id="a_node7"><a xlink:href="structquala_1_1LBFGSStorage.html#a727afc7a58d2e44ae7add57e3fa77bc6" target="_top" xlink:title="Get the size of the s and y vectors in the buffer.">
<polygon fill="white" stroke="#666666" points="490,-75 359,-75 359,-56 490,-56 490,-75"/>
<text text-anchor="middle" x="424.5" y="-63" font-family="Helvetica,sans-Serif" font-size="10.00">quala::LBFGSStorage::n</text>
</a>
</g>
</g>
<!-- Node6&#45;&gt;Node7 -->
<g id="edge6" class="edge">
<title>Node6&#45;&gt;Node7</title>
<path fill="none" stroke="#63b8ff" d="M294.81,-110.92C304.05,-108.33 313.93,-105.43 323,-102.5 345.45,-95.25 370.33,-86.1 389.72,-78.71"/>
<polygon fill="#63b8ff" stroke="#63b8ff" points="391.24,-81.88 399.32,-75.03 388.73,-75.34 391.24,-81.88"/>
</g>
<!-- Node9 -->
<g id="node9" class="node">
<title>Node9</title>
<g id="a_node9"><a xlink:href="structquala_1_1LBFGSStorage.html#ac7c2ee7d2562303f555dd1f4c3fca8cd" target="_top" xlink:title=" ">
<polygon fill="white" stroke="#666666" points="323,-93 192,-93 192,-74 323,-74 323,-93"/>
<text text-anchor="middle" x="257.5" y="-81" font-family="Helvetica,sans-Serif" font-size="10.00">quala::LBFGSStorage::α</text>
</a>
</g>
</g>
<!-- Node8&#45;&gt;Node9 -->
<g id="edge8" class="edge">
<title>Node8&#45;&gt;Node9</title>
<path fill="none" stroke="#63b8ff" d="M132.69,-83.5C144.55,-83.5 162.72,-83.5 181.52,-83.5"/>
<polygon fill="#63b8ff" stroke="#63b8ff" points="181.68,-87 191.68,-83.5 181.68,-80 181.68,-87"/>
</g>
<!-- Node9&#45;&gt;Node7 -->
<g id="edge9" class="edge">
<title>Node9&#45;&gt;Node7</title>
<path fill="none" stroke="#63b8ff" d="M323.24,-76.44C331.67,-75.52 340.37,-74.57 348.95,-73.63"/>
<polygon fill="#63b8ff" stroke="#63b8ff" points="349.39,-77.11 358.95,-72.54 348.63,-70.15 349.39,-77.11"/>
</g>
<!-- Node10&#45;&gt;Node3 -->
<g id="edge11" class="edge">
<title>Node10&#45;&gt;Node3</title>
<path fill="none" stroke="#63b8ff" d="M155.13,-194.5C175.86,-194.5 201.75,-194.5 222.17,-194.5"/>
<polygon fill="#63b8ff" stroke="#63b8ff" points="222.3,-198 232.3,-194.5 222.3,-191 222.3,-198"/>
</g>
<!-- Node11&#45;&gt;Node3 -->
<g id="edge13" class="edge">
<title>Node11&#45;&gt;Node3</title>
<path fill="none" stroke="#63b8ff" d="M137.26,-162.41C158.89,-168.24 195.4,-178.06 222.33,-185.31"/>
<polygon fill="#63b8ff" stroke="#63b8ff" points="221.57,-188.72 232.13,-187.94 223.38,-181.96 221.57,-188.72"/>
</g>
<!-- Node13 -->
<g id="node13" class="node">
<title>Node13</title>
<g id="a_node13"><a xlink:href="structquala_1_1LBFGSStorage.html#aebac2ec4461761a48a7284152a8217f8" target="_top" xlink:title=" ">
<polygon fill="white" stroke="#666666" points="323,-56 192,-56 192,-37 323,-37 323,-56"/>
<text text-anchor="middle" x="257.5" y="-44" font-family="Helvetica,sans-Serif" font-size="10.00">quala::LBFGSStorage::y</text>
</a>
</g>
</g>
<!-- Node12&#45;&gt;Node13 -->
<g id="edge15" class="edge">
<title>Node12&#45;&gt;Node13</title>
<path fill="none" stroke="#63b8ff" d="M132.69,-46.5C144.55,-46.5 162.72,-46.5 181.52,-46.5"/>
<polygon fill="#63b8ff" stroke="#63b8ff" points="181.68,-50 191.68,-46.5 181.68,-43 181.68,-50"/>
</g>
<!-- Node13&#45;&gt;Node7 -->
<g id="edge16" class="edge">
<title>Node13&#45;&gt;Node7</title>
<path fill="none" stroke="#63b8ff" d="M323.24,-53.95C331.67,-54.93 340.37,-55.93 348.95,-56.92"/>
<polygon fill="#63b8ff" stroke="#63b8ff" points="348.61,-60.4 358.95,-58.07 349.41,-53.45 348.61,-60.4"/>
</g>
<!-- Node15 -->
<g id="node15" class="node">
<title>Node15</title>
<g id="a_node15"><a xlink:href="structquala_1_1LBFGSStorage.html#acade3dc51f7ca788be9b91908b2e73ab" target="_top" xlink:title=" ">
<polygon fill="white" stroke="#666666" points="323,-19 192,-19 192,0 323,0 323,-19"/>
<text text-anchor="middle" x="257.5" y="-7" font-family="Helvetica,sans-Serif" font-size="10.00">quala::LBFGSStorage::ρ</text>
</a>
</g>
</g>
<!-- Node14&#45;&gt;Node15 -->
<g id="edge18" class="edge">
<title>Node14&#45;&gt;Node15</title>
<path fill="none" stroke="#63b8ff" d="M132.69,-9.5C144.55,-9.5 162.72,-9.5 181.52,-9.5"/>
<polygon fill="#63b8ff" stroke="#63b8ff" points="181.68,-13 191.68,-9.5 181.68,-6 181.68,-13"/>
</g>
<!-- Node15&#45;&gt;Node7 -->
<g id="edge19" class="edge">
<title>Node15&#45;&gt;Node7</title>
<path fill="none" stroke="#63b8ff" d="M294.83,-19.03C304.07,-21.62 313.94,-24.53 323,-27.5 345.9,-35.01 371.27,-44.61 390.8,-52.29"/>
<polygon fill="#63b8ff" stroke="#63b8ff" points="389.57,-55.57 400.16,-55.99 392.15,-49.06 389.57,-55.57"/>
</g>
</g>
</svg>
