<?xml version="1.0" encoding="UTF-8" standalone="no"?>
<!DOCTYPE svg PUBLIC "-//W3C//DTD SVG 1.1//EN"
 "http://www.w3.org/Graphics/SVG/1.1/DTD/svg11.dtd">
<!-- Generated by graphviz version 2.43.0 (0)
 -->
<!-- Title: apply Pages: 1 -->
<svg width="503pt" height="107pt"
 viewBox="0.00 0.00 503.00 106.50" xmlns="http://www.w3.org/2000/svg" xmlns:xlink="http://www.w3.org/1999/xlink">
<g id="graph0" class="graph" transform="scale(1 1) rotate(0) translate(4 102.5)">
<title>apply</title>
<!-- Node1 -->
<g id="node1" class="node">
<title>Node1</title>
<g id="a_node1"><a xlink:title="Apply the inverse Jacobian approximation to the given vector q, i.e.">
<polygon fill="#999999" stroke="#666666" points="44,-56 0,-56 0,-37 44,-37 44,-56"/>
<text text-anchor="middle" x="22" y="-44" font-family="Helvetica,sans-Serif" font-size="10.00">apply</text>
</a>
</g>
</g>
<!-- Node2 -->
<g id="node2" class="node">
<title>Node2</title>
<g id="a_node2"><a xlink:href="classquala_1_1BroydenGood.html#aa871b5290773b86e2e4919bbac258a04" target="_top" xlink:title="Iterate over the indices in the history buffer, oldest first.">
<polygon fill="white" stroke="#666666" points="156,-93 80,-93 80,-74 156,-74 156,-93"/>
<text text-anchor="middle" x="118" y="-81" font-family="Helvetica,sans-Serif" font-size="10.00">foreach_fwd</text>
</a>
</g>
</g>
<!-- Node1&#45;&gt;Node2 -->
<g id="edge1" class="edge">
<title>Node1&#45;&gt;Node2</title>
<path fill="none" stroke="#63b8ff" d="M44.33,-54.9C55.81,-59.42 70.24,-65.1 83.21,-70.2"/>
<polygon fill="#63b8ff" stroke="#63b8ff" points="82.18,-73.56 92.77,-73.96 84.75,-67.04 82.18,-73.56"/>
</g>
<!-- Node5 -->
<g id="node5" class="node">
<title>Node5</title>
<g id="a_node5"><a xlink:href="classquala_1_1BroydenGood.html#a15e4a3db39457cabe764a7737d24e73f" target="_top" xlink:title=" ">
<polygon fill="white" stroke="#666666" points="132.5,-56 103.5,-56 103.5,-37 132.5,-37 132.5,-56"/>
<text text-anchor="middle" x="118" y="-44" font-family="Helvetica,sans-Serif" font-size="10.00">s</text>
</a>
</g>
</g>
<!-- Node1&#45;&gt;Node5 -->
<g id="edge4" class="edge">
<title>Node1&#45;&gt;Node5</title>
<path fill="none" stroke="#63b8ff" d="M44.33,-46.5C58.89,-46.5 78.19,-46.5 93.24,-46.5"/>
<polygon fill="#63b8ff" stroke="#63b8ff" points="93.32,-50 103.32,-46.5 93.32,-43 93.32,-50"/>
</g>
<!-- Node7 -->
<g id="node7" class="node">
<title>Node7</title>
<g id="a_node7"><a xlink:href="classquala_1_1BroydenGood.html#a9f073bfaf44b883546d7483e3d16b149" target="_top" xlink:title=" ">
<polygon fill="white" stroke="#666666" points="132.5,-19 103.5,-19 103.5,0 132.5,0 132.5,-19"/>
<text text-anchor="middle" x="118" y="-7" font-family="Helvetica,sans-Serif" font-size="10.00">s̃</text>
</a>
</g>
</g>
<!-- Node1&#45;&gt;Node7 -->
<g id="edge6" class="edge">
<title>Node1&#45;&gt;Node7</title>
<path fill="none" stroke="#63b8ff" d="M44.33,-38.1C59.03,-32.32 78.56,-24.63 93.67,-18.68"/>
<polygon fill="#63b8ff" stroke="#63b8ff" points="95.29,-21.81 103.32,-14.89 92.73,-15.29 95.29,-21.81"/>
</g>
<!-- Node3 -->
<g id="node3" class="node">
<title>Node3</title>
<g id="a_node3"><a xlink:href="classquala_1_1BroydenGood.html#a9cf7dcccbc3bc69a10833450ee79c623" target="_top" xlink:title="Get the number of previous vectors s and y stored in the buffer.">
<polygon fill="white" stroke="#666666" points="286.5,-93 236.5,-93 236.5,-74 286.5,-74 286.5,-93"/>
<text text-anchor="middle" x="261.5" y="-81" font-family="Helvetica,sans-Serif" font-size="10.00">history</text>
</a>
</g>
</g>
<!-- Node2&#45;&gt;Node3 -->
<g id="edge2" class="edge">
<title>Node2&#45;&gt;Node3</title>
<path fill="none" stroke="#63b8ff" d="M156.18,-83.5C177.89,-83.5 205.1,-83.5 226.29,-83.5"/>
<polygon fill="#63b8ff" stroke="#63b8ff" points="226.45,-87 236.45,-83.5 226.45,-80 226.45,-87"/>
</g>
<!-- Node4 -->
<g id="node4" class="node">
<title>Node4</title>
<g id="a_node4"><a xlink:href="structquala_1_1BroydenStorage.html#a9cf7dcccbc3bc69a10833450ee79c623" target="_top" xlink:title="Get the number of previous vectors s and s̃ stored in the buffer.">
<polygon fill="white" stroke="#666666" points="495,-98.5 367,-98.5 367,-68.5 495,-68.5 495,-98.5"/>
<text text-anchor="start" x="375" y="-86.5" font-family="Helvetica,sans-Serif" font-size="10.00">quala::BroydenStorage</text>
<text text-anchor="middle" x="431" y="-75.5" font-family="Helvetica,sans-Serif" font-size="10.00">::history</text>
</a>
</g>
</g>
<!-- Node3&#45;&gt;Node4 -->
<g id="edge3" class="edge">
<title>Node3&#45;&gt;Node4</title>
<path fill="none" stroke="#63b8ff" d="M286.86,-83.5C305.28,-83.5 331.6,-83.5 356.66,-83.5"/>
<polygon fill="#63b8ff" stroke="#63b8ff" points="356.92,-87 366.92,-83.5 356.92,-80 356.92,-87"/>
</g>
<!-- Node6 -->
<g id="node6" class="node">
<title>Node6</title>
<g id="a_node6"><a xlink:href="structquala_1_1BroydenStorage.html#a15e4a3db39457cabe764a7737d24e73f" target="_top" xlink:title=" ">
<polygon fill="white" stroke="#666666" points="331,-56 192,-56 192,-37 331,-37 331,-56"/>
<text text-anchor="middle" x="261.5" y="-44" font-family="Helvetica,sans-Serif" font-size="10.00">quala::BroydenStorage::s</text>
</a>
</g>
</g>
<!-- Node5&#45;&gt;Node6 -->
<g id="edge5" class="edge">
<title>Node5&#45;&gt;Node6</title>
<path fill="none" stroke="#63b8ff" d="M132.57,-46.5C144.47,-46.5 162.81,-46.5 181.93,-46.5"/>
<polygon fill="#63b8ff" stroke="#63b8ff" points="181.96,-50 191.96,-46.5 181.96,-43 181.96,-50"/>
</g>
<!-- Node8 -->
<g id="node8" class="node">
<title>Node8</title>
<g id="a_node8"><a xlink:href="structquala_1_1BroydenStorage.html#a9f073bfaf44b883546d7483e3d16b149" target="_top" xlink:title=" ">
<polygon fill="white" stroke="#666666" points="331,-19 192,-19 192,0 331,0 331,-19"/>
<text text-anchor="middle" x="261.5" y="-7" font-family="Helvetica,sans-Serif" font-size="10.00">quala::BroydenStorage::s̃</text>
</a>
</g>
</g>
<!-- Node7&#45;&gt;Node8 -->
<g id="edge7" class="edge">
<title>Node7&#45;&gt;Node8</title>
<path fill="none" stroke="#63b8ff" d="M132.57,-9.5C144.47,-9.5 162.81,-9.5 181.93,-9.5"/>
<polygon fill="#63b8ff" stroke="#63b8ff" points="181.96,-13 191.96,-9.5 181.96,-6 181.96,-13"/>
</g>
</g>
</svg>
