<?xml version="1.0" encoding="UTF-8" standalone="no"?>
<!DOCTYPE svg PUBLIC "-//W3C//DTD SVG 1.1//EN"
 "http://www.w3.org/Graphics/SVG/1.1/DTD/svg11.dtd">
<!-- Generated by graphviz version 2.43.0 (0)
 -->
<!-- Title: num_columns Pages: 1 -->
<svg width="421pt" height="76pt"
 viewBox="0.00 0.00 421.00 75.50" xmlns="http://www.w3.org/2000/svg" xmlns:xlink="http://www.w3.org/1999/xlink">
<g id="graph0" class="graph" transform="scale(1 1) rotate(0) translate(4 71.5)">
<title>num_columns</title>
<!-- Node1 -->
<g id="node1" class="node">
<title>Node1</title>
<g id="a_node1"><a xlink:title="Get the number of columns that are currently stored.">
<polygon fill="#999999" stroke="#666666" points="413,-40 328,-40 328,-21 413,-21 413,-40"/>
<text text-anchor="middle" x="370.5" y="-28" font-family="Helvetica,sans-Serif" font-size="10.00">num_columns</text>
</a>
</g>
</g>
<!-- Node2 -->
<g id="node2" class="node">
<title>Node2</title>
<g id="a_node2"><a xlink:href="namespacequala.html#a6c177816e8d54a88f83d46bd040851e7" target="_top" xlink:title="Solve one step of Anderson acceleration to find a fixed point of a function g(x):">
<polygon fill="white" stroke="#666666" points="292,-67.5 158,-67.5 158,-37.5 292,-37.5 292,-67.5"/>
<text text-anchor="start" x="166" y="-55.5" font-family="Helvetica,sans-Serif" font-size="10.00">quala::minimize_update</text>
<text text-anchor="middle" x="225" y="-44.5" font-family="Helvetica,sans-Serif" font-size="10.00">_anderson</text>
</a>
</g>
</g>
<!-- Node1&#45;&gt;Node2 -->
<g id="edge1" class="edge">
<title>Node1&#45;&gt;Node2</title>
<path fill="none" stroke="#63b8ff" d="M317.96,-38.4C309.54,-39.69 300.72,-41.04 292.01,-42.38"/>
<polygon fill="#63b8ff" stroke="#63b8ff" points="318.64,-41.84 327.99,-36.86 317.58,-34.92 318.64,-41.84"/>
</g>
<!-- Node4 -->
<g id="node4" class="node">
<title>Node4</title>
<g id="a_node4"><a xlink:href="classquala_1_1LimitedMemoryQR.html#a9ec3e86c6cbb239ba0642378b564af41" target="_top" xlink:title="Solve the least squares problem AX = B.">
<polygon fill="white" stroke="#666666" points="246.5,-19 203.5,-19 203.5,0 246.5,0 246.5,-19"/>
<text text-anchor="middle" x="225" y="-7" font-family="Helvetica,sans-Serif" font-size="10.00">solve</text>
</a>
</g>
</g>
<!-- Node1&#45;&gt;Node4 -->
<g id="edge3" class="edge">
<title>Node1&#45;&gt;Node4</title>
<path fill="none" stroke="#63b8ff" d="M318.05,-22.97C293.41,-19.37 265.31,-15.25 246.7,-12.53"/>
<polygon fill="#63b8ff" stroke="#63b8ff" points="317.59,-26.44 327.99,-24.43 318.61,-19.51 317.59,-26.44"/>
</g>
<!-- Node3 -->
<g id="node3" class="node">
<title>Node3</title>
<g id="a_node3"><a xlink:href="classquala_1_1AndersonAccel.html#a7cbecaa52700158ebe36c0d587791ed4" target="_top" xlink:title="Compute the accelerated iterate , given the function value at the current iterate &#160;and the correspond...">
<polygon fill="white" stroke="#666666" points="122,-67.5 0,-67.5 0,-37.5 122,-37.5 122,-67.5"/>
<text text-anchor="start" x="8" y="-55.5" font-family="Helvetica,sans-Serif" font-size="10.00">quala::AndersonAccel</text>
<text text-anchor="middle" x="61" y="-44.5" font-family="Helvetica,sans-Serif" font-size="10.00">::compute</text>
</a>
</g>
</g>
<!-- Node2&#45;&gt;Node3 -->
<g id="edge2" class="edge">
<title>Node2&#45;&gt;Node3</title>
<path fill="none" stroke="#63b8ff" d="M147.61,-52.5C139.02,-52.5 130.36,-52.5 122.01,-52.5"/>
<polygon fill="#63b8ff" stroke="#63b8ff" points="147.64,-56 157.64,-52.5 147.64,-49 147.64,-56"/>
</g>
<!-- Node5 -->
<g id="node5" class="node">
<title>Node5</title>
<g id="a_node5"><a xlink:href="classquala_1_1LimitedMemoryQR.html#a5f3732971788e558366a2b509a538206" target="_top" xlink:title="Solve the least squares problem AX = B.">
<polygon fill="white" stroke="#666666" points="82.5,-19 39.5,-19 39.5,0 82.5,0 82.5,-19"/>
<text text-anchor="middle" x="61" y="-7" font-family="Helvetica,sans-Serif" font-size="10.00">solve</text>
</a>
</g>
</g>
<!-- Node4&#45;&gt;Node5 -->
<g id="edge4" class="edge">
<title>Node4&#45;&gt;Node5</title>
<path fill="none" stroke="#63b8ff" d="M193.22,-9.5C160.77,-9.5 110.57,-9.5 82.61,-9.5"/>
<polygon fill="#63b8ff" stroke="#63b8ff" points="193.48,-13 203.48,-9.5 193.48,-6 193.48,-13"/>
</g>
</g>
</svg>
