<?xml version="1.0" encoding="UTF-8" standalone="no"?>
<!DOCTYPE svg PUBLIC "-//W3C//DTD SVG 1.1//EN"
 "http://www.w3.org/Graphics/SVG/1.1/DTD/svg11.dtd">
<!-- Generated by graphviz version 2.43.0 (0)
 -->
<!-- Title: scale_y Pages: 1 -->
<svg width="481pt" height="113pt"
 viewBox="0.00 0.00 481.00 112.50" xmlns="http://www.w3.org/2000/svg" xmlns:xlink="http://www.w3.org/1999/xlink">
<g id="graph0" class="graph" transform="scale(1 1) rotate(0) translate(4 108.5)">
<title>scale_y</title>
<!-- Node1 -->
<g id="node1" class="node">
<title>Node1</title>
<g id="a_node1"><a xlink:title="Scale the stored y vectors by the given factor.">
<polygon fill="#999999" stroke="#666666" points="53,-56 0,-56 0,-37 53,-37 53,-56"/>
<text text-anchor="middle" x="26.5" y="-44" font-family="Helvetica,sans-Serif" font-size="10.00">scale_y</text>
</a>
</g>
</g>
<!-- Node2 -->
<g id="node2" class="node">
<title>Node2</title>
<g id="a_node2"><a xlink:href="classquala_1_1LBFGS.html#a9cf7dcccbc3bc69a10833450ee79c623" target="_top" xlink:title="Get the number of previous vectors s and y stored in the buffer.">
<polygon fill="white" stroke="#666666" points="139,-96 89,-96 89,-77 139,-77 139,-96"/>
<text text-anchor="middle" x="114" y="-84" font-family="Helvetica,sans-Serif" font-size="10.00">history</text>
</a>
</g>
</g>
<!-- Node1&#45;&gt;Node2 -->
<g id="edge1" class="edge">
<title>Node1&#45;&gt;Node2</title>
<path fill="none" stroke="#63b8ff" d="M48.2,-56.18C58.7,-61.1 71.65,-67.15 83.2,-72.56"/>
<polygon fill="#63b8ff" stroke="#63b8ff" points="81.95,-75.84 92.49,-76.91 84.92,-69.5 81.95,-75.84"/>
</g>
<!-- Node4 -->
<g id="node4" class="node">
<title>Node4</title>
<g id="a_node4"><a xlink:href="classquala_1_1LBFGS.html#aebac2ec4461761a48a7284152a8217f8" target="_top" xlink:title=" ">
<polygon fill="white" stroke="#666666" points="128.5,-56 99.5,-56 99.5,-37 128.5,-37 128.5,-56"/>
<text text-anchor="middle" x="114" y="-44" font-family="Helvetica,sans-Serif" font-size="10.00">y</text>
</a>
</g>
</g>
<!-- Node1&#45;&gt;Node4 -->
<g id="edge3" class="edge">
<title>Node1&#45;&gt;Node4</title>
<path fill="none" stroke="#63b8ff" d="M53.15,-46.5C64.52,-46.5 77.81,-46.5 88.97,-46.5"/>
<polygon fill="#63b8ff" stroke="#63b8ff" points="89.28,-50 99.28,-46.5 89.28,-43 89.28,-50"/>
</g>
<!-- Node7 -->
<g id="node7" class="node">
<title>Node7</title>
<g id="a_node7"><a xlink:href="classquala_1_1LBFGS.html#acade3dc51f7ca788be9b91908b2e73ab" target="_top" xlink:title=" ">
<polygon fill="white" stroke="#666666" points="128.5,-19 99.5,-19 99.5,0 128.5,0 128.5,-19"/>
<text text-anchor="middle" x="114" y="-7" font-family="Helvetica,sans-Serif" font-size="10.00">ρ</text>
</a>
</g>
</g>
<!-- Node1&#45;&gt;Node7 -->
<g id="edge6" class="edge">
<title>Node1&#45;&gt;Node7</title>
<path fill="none" stroke="#63b8ff" d="M49.52,-36.97C61.93,-31.6 77.43,-24.89 90,-19.45"/>
<polygon fill="#63b8ff" stroke="#63b8ff" points="91.55,-22.59 99.34,-15.41 88.77,-16.17 91.55,-22.59"/>
</g>
<!-- Node3 -->
<g id="node3" class="node">
<title>Node3</title>
<g id="a_node3"><a xlink:href="structquala_1_1LBFGSStorage.html#a9cf7dcccbc3bc69a10833450ee79c623" target="_top" xlink:title="Get the number of previous vectors s and y stored in the buffer.">
<polygon fill="white" stroke="#666666" points="300,-104.5 181,-104.5 181,-74.5 300,-74.5 300,-104.5"/>
<text text-anchor="start" x="189" y="-92.5" font-family="Helvetica,sans-Serif" font-size="10.00">quala::LBFGSStorage</text>
<text text-anchor="middle" x="240.5" y="-81.5" font-family="Helvetica,sans-Serif" font-size="10.00">::history</text>
</a>
</g>
</g>
<!-- Node2&#45;&gt;Node3 -->
<g id="edge2" class="edge">
<title>Node2&#45;&gt;Node3</title>
<path fill="none" stroke="#63b8ff" d="M139,-87.08C148.3,-87.3 159.44,-87.57 170.88,-87.85"/>
<polygon fill="#63b8ff" stroke="#63b8ff" points="170.88,-91.35 180.96,-88.09 171.05,-84.35 170.88,-91.35"/>
</g>
<!-- Node5 -->
<g id="node5" class="node">
<title>Node5</title>
<g id="a_node5"><a xlink:href="structquala_1_1LBFGSStorage.html#aebac2ec4461761a48a7284152a8217f8" target="_top" xlink:title=" ">
<polygon fill="white" stroke="#666666" points="306,-56 175,-56 175,-37 306,-37 306,-56"/>
<text text-anchor="middle" x="240.5" y="-44" font-family="Helvetica,sans-Serif" font-size="10.00">quala::LBFGSStorage::y</text>
</a>
</g>
</g>
<!-- Node4&#45;&gt;Node5 -->
<g id="edge4" class="edge">
<title>Node4&#45;&gt;Node5</title>
<path fill="none" stroke="#63b8ff" d="M128.8,-46.5C138.02,-46.5 150.95,-46.5 164.74,-46.5"/>
<polygon fill="#63b8ff" stroke="#63b8ff" points="164.89,-50 174.89,-46.5 164.89,-43 164.89,-50"/>
</g>
<!-- Node6 -->
<g id="node6" class="node">
<title>Node6</title>
<g id="a_node6"><a xlink:href="structquala_1_1LBFGSStorage.html#a727afc7a58d2e44ae7add57e3fa77bc6" target="_top" xlink:title="Get the size of the s and y vectors in the buffer.">
<polygon fill="white" stroke="#666666" points="473,-37 342,-37 342,-18 473,-18 473,-37"/>
<text text-anchor="middle" x="407.5" y="-25" font-family="Helvetica,sans-Serif" font-size="10.00">quala::LBFGSStorage::n</text>
</a>
</g>
</g>
<!-- Node5&#45;&gt;Node6 -->
<g id="edge5" class="edge">
<title>Node5&#45;&gt;Node6</title>
<path fill="none" stroke="#63b8ff" d="M306.24,-39.05C314.67,-38.07 323.37,-37.07 331.95,-36.08"/>
<polygon fill="#63b8ff" stroke="#63b8ff" points="332.41,-39.55 341.95,-34.93 331.61,-32.6 332.41,-39.55"/>
</g>
<!-- Node8 -->
<g id="node8" class="node">
<title>Node8</title>
<g id="a_node8"><a xlink:href="structquala_1_1LBFGSStorage.html#acade3dc51f7ca788be9b91908b2e73ab" target="_top" xlink:title=" ">
<polygon fill="white" stroke="#666666" points="306,-19 175,-19 175,0 306,0 306,-19"/>
<text text-anchor="middle" x="240.5" y="-7" font-family="Helvetica,sans-Serif" font-size="10.00">quala::LBFGSStorage::ρ</text>
</a>
</g>
</g>
<!-- Node7&#45;&gt;Node8 -->
<g id="edge7" class="edge">
<title>Node7&#45;&gt;Node8</title>
<path fill="none" stroke="#63b8ff" d="M128.8,-9.5C138.02,-9.5 150.95,-9.5 164.74,-9.5"/>
<polygon fill="#63b8ff" stroke="#63b8ff" points="164.89,-13 174.89,-9.5 164.89,-6 164.89,-13"/>
</g>
<!-- Node8&#45;&gt;Node6 -->
<g id="edge8" class="edge">
<title>Node8&#45;&gt;Node6</title>
<path fill="none" stroke="#63b8ff" d="M306.24,-16.56C314.67,-17.48 323.37,-18.43 331.95,-19.37"/>
<polygon fill="#63b8ff" stroke="#63b8ff" points="331.63,-22.85 341.95,-20.46 332.39,-15.89 331.63,-22.85"/>
</g>
</g>
</svg>
