<?xml version="1.0" encoding="UTF-8" standalone="no"?>
<!DOCTYPE svg PUBLIC "-//W3C//DTD SVG 1.1//EN"
 "http://www.w3.org/Graphics/SVG/1.1/DTD/svg11.dtd">
<!-- Generated by graphviz version 2.43.0 (0)
 -->
<!-- Title: apply Pages: 1 -->
<svg width="669pt" height="236pt"
 viewBox="0.00 0.00 669.00 235.83" xmlns="http://www.w3.org/2000/svg" xmlns:xlink="http://www.w3.org/1999/xlink">
<g id="graph0" class="graph" transform="scale(1 1) rotate(0) translate(4 231.83)">
<title>apply</title>
<!-- Node1 -->
<g id="node1" class="node">
<title>Node1</title>
<g id="a_node1"><a xlink:title="Apply the inverse Hessian approximation to the given vector q, applying only the columns and rows of ...">
<polygon fill="#999999" stroke="#666666" points="44,-130 0,-130 0,-111 44,-111 44,-130"/>
<text text-anchor="middle" x="22" y="-118" font-family="Helvetica,sans-Serif" font-size="10.00">apply</text>
</a>
</g>
</g>
<!-- Node2 -->
<g id="node2" class="node">
<title>Node2</title>
<g id="a_node2"><a xlink:href="classquala_1_1LBFGS.html#ac7c2ee7d2562303f555dd1f4c3fca8cd" target="_top" xlink:title=" ">
<polygon fill="white" stroke="#666666" points="276,-204 247,-204 247,-185 276,-185 276,-204"/>
<text text-anchor="middle" x="261.5" y="-192" font-family="Helvetica,sans-Serif" font-size="10.00">α</text>
</a>
</g>
</g>
<!-- Node1&#45;&gt;Node2 -->
<g id="edge1" class="edge">
<title>Node1&#45;&gt;Node2</title>
<path fill="none" stroke="#63b8ff" d="M25.5,-130.14C31.24,-150.03 47.45,-195.27 80,-213.5 130.3,-241.66 200.88,-219.87 237.08,-205.14"/>
<polygon fill="#63b8ff" stroke="#63b8ff" points="238.9,-208.17 246.74,-201.04 236.17,-201.73 238.9,-208.17"/>
</g>
<!-- Node5 -->
<g id="node5" class="node">
<title>Node5</title>
<g id="a_node5"><a xlink:href="classquala_1_1LBFGS.html#aa871b5290773b86e2e4919bbac258a04" target="_top" xlink:title="Iterate over the indices in the history buffer, oldest first.">
<polygon fill="white" stroke="#666666" points="158,-167 82,-167 82,-148 158,-148 158,-167"/>
<text text-anchor="middle" x="120" y="-155" font-family="Helvetica,sans-Serif" font-size="10.00">foreach_fwd</text>
</a>
</g>
</g>
<!-- Node1&#45;&gt;Node5 -->
<g id="edge4" class="edge">
<title>Node1&#45;&gt;Node5</title>
<path fill="none" stroke="#63b8ff" d="M44.31,-128.71C56.13,-133.27 71.12,-139.05 84.57,-144.23"/>
<polygon fill="#63b8ff" stroke="#63b8ff" points="83.43,-147.54 94.02,-147.87 85.94,-141.01 83.43,-147.54"/>
</g>
<!-- Node8 -->
<g id="node8" class="node">
<title>Node8</title>
<g id="a_node8"><a xlink:href="classquala_1_1LBFGS.html#a0804b751cf2035a35f24762474f62cbf" target="_top" xlink:title="Iterate over the indices in the history buffer, newest first.">
<polygon fill="white" stroke="#666666" points="157,-130 83,-130 83,-111 157,-111 157,-130"/>
<text text-anchor="middle" x="120" y="-118" font-family="Helvetica,sans-Serif" font-size="10.00">foreach_rev</text>
</a>
</g>
</g>
<!-- Node1&#45;&gt;Node8 -->
<g id="edge7" class="edge">
<title>Node1&#45;&gt;Node8</title>
<path fill="none" stroke="#63b8ff" d="M44.31,-120.5C52.67,-120.5 62.62,-120.5 72.48,-120.5"/>
<polygon fill="#63b8ff" stroke="#63b8ff" points="72.66,-124 82.66,-120.5 72.66,-117 72.66,-124"/>
</g>
<!-- Node9 -->
<g id="node9" class="node">
<title>Node9</title>
<g id="a_node9"><a xlink:href="classquala_1_1LBFGS.html#a15e4a3db39457cabe764a7737d24e73f" target="_top" xlink:title=" ">
<polygon fill="white" stroke="#666666" points="134.5,-93 105.5,-93 105.5,-74 134.5,-74 134.5,-93"/>
<text text-anchor="middle" x="120" y="-81" font-family="Helvetica,sans-Serif" font-size="10.00">s</text>
</a>
</g>
</g>
<!-- Node1&#45;&gt;Node9 -->
<g id="edge9" class="edge">
<title>Node1&#45;&gt;Node9</title>
<path fill="none" stroke="#63b8ff" d="M44.31,-112.29C59.62,-106.39 80.25,-98.43 95.95,-92.38"/>
<polygon fill="#63b8ff" stroke="#63b8ff" points="97.38,-95.58 105.45,-88.72 94.86,-89.05 97.38,-95.58"/>
</g>
<!-- Node11 -->
<g id="node11" class="node">
<title>Node11</title>
<g id="a_node11"><a xlink:href="classquala_1_1LBFGS.html#a1109c880f1969f61532c94c19122e927" target="_top" xlink:title="Check if the new vectors s and y allow for a valid BFGS update that preserves the positive definitene...">
<polygon fill="white" stroke="#666666" points="160,-204 80,-204 80,-185 160,-185 160,-204"/>
<text text-anchor="middle" x="120" y="-192" font-family="Helvetica,sans-Serif" font-size="10.00">update_valid</text>
</a>
</g>
</g>
<!-- Node1&#45;&gt;Node11 -->
<g id="edge12" class="edge">
<title>Node1&#45;&gt;Node11</title>
<path fill="none" stroke="#63b8ff" d="M31.04,-130.25C41.39,-142.32 60.37,-162.94 80,-176.5 81.84,-177.77 83.79,-179 85.8,-180.16"/>
<polygon fill="#63b8ff" stroke="#63b8ff" points="84.3,-183.33 94.78,-184.9 87.56,-177.14 84.3,-183.33"/>
</g>
<!-- Node12 -->
<g id="node12" class="node">
<title>Node12</title>
<g id="a_node12"><a xlink:href="classquala_1_1LBFGS.html#aebac2ec4461761a48a7284152a8217f8" target="_top" xlink:title=" ">
<polygon fill="white" stroke="#666666" points="134.5,-56 105.5,-56 105.5,-37 134.5,-37 134.5,-56"/>
<text text-anchor="middle" x="120" y="-44" font-family="Helvetica,sans-Serif" font-size="10.00">y</text>
</a>
</g>
</g>
<!-- Node1&#45;&gt;Node12 -->
<g id="edge14" class="edge">
<title>Node1&#45;&gt;Node12</title>
<path fill="none" stroke="#63b8ff" d="M31.04,-110.75C41.39,-98.68 60.37,-78.06 80,-64.5 84.91,-61.11 90.56,-58.08 96.01,-55.52"/>
<polygon fill="#63b8ff" stroke="#63b8ff" points="97.62,-58.63 105.39,-51.43 94.82,-52.21 97.62,-58.63"/>
</g>
<!-- Node14 -->
<g id="node14" class="node">
<title>Node14</title>
<g id="a_node14"><a xlink:href="classquala_1_1LBFGS.html#acade3dc51f7ca788be9b91908b2e73ab" target="_top" xlink:title=" ">
<polygon fill="white" stroke="#666666" points="134.5,-19 105.5,-19 105.5,0 134.5,0 134.5,-19"/>
<text text-anchor="middle" x="120" y="-7" font-family="Helvetica,sans-Serif" font-size="10.00">ρ</text>
</a>
</g>
</g>
<!-- Node1&#45;&gt;Node14 -->
<g id="edge17" class="edge">
<title>Node1&#45;&gt;Node14</title>
<path fill="none" stroke="#63b8ff" d="M26.69,-110.79C34.16,-92.31 52.68,-51.78 80,-27.5 84.53,-23.47 90.11,-20.19 95.62,-17.58"/>
<polygon fill="#63b8ff" stroke="#63b8ff" points="97.32,-20.67 105.22,-13.61 94.64,-14.2 97.32,-20.67"/>
</g>
<!-- Node3 -->
<g id="node3" class="node">
<title>Node3</title>
<g id="a_node3"><a xlink:href="structquala_1_1LBFGSStorage.html#ac7c2ee7d2562303f555dd1f4c3fca8cd" target="_top" xlink:title=" ">
<polygon fill="white" stroke="#666666" points="494,-198 363,-198 363,-179 494,-179 494,-198"/>
<text text-anchor="middle" x="428.5" y="-186" font-family="Helvetica,sans-Serif" font-size="10.00">quala::LBFGSStorage::α</text>
</a>
</g>
</g>
<!-- Node2&#45;&gt;Node3 -->
<g id="edge2" class="edge">
<title>Node2&#45;&gt;Node3</title>
<path fill="none" stroke="#63b8ff" d="M276,-194.01C292.94,-193.39 323.3,-192.29 352.42,-191.23"/>
<polygon fill="#63b8ff" stroke="#63b8ff" points="352.78,-194.72 362.65,-190.86 352.53,-187.72 352.78,-194.72"/>
</g>
<!-- Node4 -->
<g id="node4" class="node">
<title>Node4</title>
<g id="a_node4"><a xlink:href="structquala_1_1LBFGSStorage.html#a727afc7a58d2e44ae7add57e3fa77bc6" target="_top" xlink:title="Get the size of the s and y vectors in the buffer.">
<polygon fill="white" stroke="#666666" points="661,-76 530,-76 530,-57 661,-57 661,-76"/>
<text text-anchor="middle" x="595.5" y="-64" font-family="Helvetica,sans-Serif" font-size="10.00">quala::LBFGSStorage::n</text>
</a>
</g>
</g>
<!-- Node3&#45;&gt;Node4 -->
<g id="edge3" class="edge">
<title>Node3&#45;&gt;Node4</title>
<path fill="none" stroke="#63b8ff" d="M454.64,-178.93C466.98,-173.71 481.77,-166.66 494,-158.5 527.21,-136.35 560.3,-103.42 579.01,-83.56"/>
<polygon fill="#63b8ff" stroke="#63b8ff" points="581.64,-85.86 585.88,-76.15 576.51,-81.1 581.64,-85.86"/>
</g>
<!-- Node6 -->
<g id="node6" class="node">
<title>Node6</title>
<g id="a_node6"><a xlink:href="classquala_1_1LBFGS.html#a9cf7dcccbc3bc69a10833450ee79c623" target="_top" xlink:title="Get the number of previous vectors s and y stored in the buffer.">
<polygon fill="white" stroke="#666666" points="286.5,-144 236.5,-144 236.5,-125 286.5,-125 286.5,-144"/>
<text text-anchor="middle" x="261.5" y="-132" font-family="Helvetica,sans-Serif" font-size="10.00">history</text>
</a>
</g>
</g>
<!-- Node5&#45;&gt;Node6 -->
<g id="edge5" class="edge">
<title>Node5&#45;&gt;Node6</title>
<path fill="none" stroke="#63b8ff" d="M158.02,-151.4C179.29,-147.89 205.8,-143.52 226.54,-140.1"/>
<polygon fill="#63b8ff" stroke="#63b8ff" points="227.2,-143.54 236.5,-138.46 226.06,-136.63 227.2,-143.54"/>
</g>
<!-- Node7 -->
<g id="node7" class="node">
<title>Node7</title>
<g id="a_node7"><a xlink:href="structquala_1_1LBFGSStorage.html#a9cf7dcccbc3bc69a10833450ee79c623" target="_top" xlink:title="Get the number of previous vectors s and y stored in the buffer.">
<polygon fill="white" stroke="#666666" points="488,-149.5 369,-149.5 369,-119.5 488,-119.5 488,-149.5"/>
<text text-anchor="start" x="377" y="-137.5" font-family="Helvetica,sans-Serif" font-size="10.00">quala::LBFGSStorage</text>
<text text-anchor="middle" x="428.5" y="-126.5" font-family="Helvetica,sans-Serif" font-size="10.00">::history</text>
</a>
</g>
</g>
<!-- Node6&#45;&gt;Node7 -->
<g id="edge6" class="edge">
<title>Node6&#45;&gt;Node7</title>
<path fill="none" stroke="#63b8ff" d="M286.85,-134.5C305.84,-134.5 333.2,-134.5 358.75,-134.5"/>
<polygon fill="#63b8ff" stroke="#63b8ff" points="358.8,-138 368.8,-134.5 358.8,-131 358.8,-138"/>
</g>
<!-- Node8&#45;&gt;Node6 -->
<g id="edge8" class="edge">
<title>Node8&#45;&gt;Node6</title>
<path fill="none" stroke="#63b8ff" d="M157.29,-124.14C178.56,-126.28 205.27,-128.96 226.19,-131.06"/>
<polygon fill="#63b8ff" stroke="#63b8ff" points="225.94,-134.55 236.24,-132.07 226.64,-127.58 225.94,-134.55"/>
</g>
<!-- Node10 -->
<g id="node10" class="node">
<title>Node10</title>
<g id="a_node10"><a xlink:href="structquala_1_1LBFGSStorage.html#a15e4a3db39457cabe764a7737d24e73f" target="_top" xlink:title=" ">
<polygon fill="white" stroke="#666666" points="493.5,-95 363.5,-95 363.5,-76 493.5,-76 493.5,-95"/>
<text text-anchor="middle" x="428.5" y="-83" font-family="Helvetica,sans-Serif" font-size="10.00">quala::LBFGSStorage::s</text>
</a>
</g>
</g>
<!-- Node9&#45;&gt;Node10 -->
<g id="edge10" class="edge">
<title>Node9&#45;&gt;Node10</title>
<path fill="none" stroke="#63b8ff" d="M134.57,-83.59C172.08,-83.83 279.29,-84.53 353.04,-85.01"/>
<polygon fill="#63b8ff" stroke="#63b8ff" points="353.2,-88.52 363.22,-85.08 353.24,-81.52 353.2,-88.52"/>
</g>
<!-- Node10&#45;&gt;Node4 -->
<g id="edge11" class="edge">
<title>Node10&#45;&gt;Node4</title>
<path fill="none" stroke="#63b8ff" d="M493.77,-78.1C502.29,-77.12 511.08,-76.11 519.76,-75.11"/>
<polygon fill="#63b8ff" stroke="#63b8ff" points="520.33,-78.56 529.87,-73.94 519.53,-71.61 520.33,-78.56"/>
</g>
<!-- Node11&#45;&gt;Node2 -->
<g id="edge13" class="edge">
<title>Node11&#45;&gt;Node2</title>
<path fill="none" stroke="#63b8ff" d="M160.23,-194.5C184.82,-194.5 215.72,-194.5 236.67,-194.5"/>
<polygon fill="#63b8ff" stroke="#63b8ff" points="236.91,-198 246.91,-194.5 236.91,-191 236.91,-198"/>
</g>
<!-- Node13 -->
<g id="node13" class="node">
<title>Node13</title>
<g id="a_node13"><a xlink:href="structquala_1_1LBFGSStorage.html#aebac2ec4461761a48a7284152a8217f8" target="_top" xlink:title=" ">
<polygon fill="white" stroke="#666666" points="494,-58 363,-58 363,-39 494,-39 494,-58"/>
<text text-anchor="middle" x="428.5" y="-46" font-family="Helvetica,sans-Serif" font-size="10.00">quala::LBFGSStorage::y</text>
</a>
</g>
</g>
<!-- Node12&#45;&gt;Node13 -->
<g id="edge15" class="edge">
<title>Node12&#45;&gt;Node13</title>
<path fill="none" stroke="#63b8ff" d="M134.57,-46.59C172.02,-46.83 278.97,-47.53 352.72,-48.01"/>
<polygon fill="#63b8ff" stroke="#63b8ff" points="352.87,-51.51 362.89,-48.08 352.92,-44.51 352.87,-51.51"/>
</g>
<!-- Node13&#45;&gt;Node4 -->
<g id="edge16" class="edge">
<title>Node13&#45;&gt;Node4</title>
<path fill="none" stroke="#63b8ff" d="M494.24,-55.56C502.67,-56.48 511.37,-57.43 519.95,-58.37"/>
<polygon fill="#63b8ff" stroke="#63b8ff" points="519.63,-61.85 529.95,-59.46 520.39,-54.89 519.63,-61.85"/>
</g>
<!-- Node15 -->
<g id="node15" class="node">
<title>Node15</title>
<g id="a_node15"><a xlink:href="structquala_1_1LBFGSStorage.html#acade3dc51f7ca788be9b91908b2e73ab" target="_top" xlink:title=" ">
<polygon fill="white" stroke="#666666" points="327,-19 196,-19 196,0 327,0 327,-19"/>
<text text-anchor="middle" x="261.5" y="-7" font-family="Helvetica,sans-Serif" font-size="10.00">quala::LBFGSStorage::ρ</text>
</a>
</g>
</g>
<!-- Node14&#45;&gt;Node15 -->
<g id="edge18" class="edge">
<title>Node14&#45;&gt;Node15</title>
<path fill="none" stroke="#63b8ff" d="M134.63,-9.5C146.89,-9.5 165.94,-9.5 185.54,-9.5"/>
<polygon fill="#63b8ff" stroke="#63b8ff" points="185.81,-13 195.81,-9.5 185.81,-6 185.81,-13"/>
</g>
<!-- Node15&#45;&gt;Node4 -->
<g id="edge19" class="edge">
<title>Node15&#45;&gt;Node4</title>
<path fill="none" stroke="#63b8ff" d="M327.07,-10.48C373.89,-12.31 438.48,-17.12 494,-29.5 518.22,-34.9 544.5,-44.73 564.11,-52.9"/>
<polygon fill="#63b8ff" stroke="#63b8ff" points="562.86,-56.17 573.43,-56.86 565.6,-49.73 562.86,-56.17"/>
</g>
</g>
</svg>
