<?xml version="1.0" encoding="UTF-8" standalone="no"?>
<!DOCTYPE svg PUBLIC "-//W3C//DTD SVG 1.1//EN"
 "http://www.w3.org/Graphics/SVG/1.1/DTD/svg11.dtd">
<!-- Generated by graphviz version 2.43.0 (0)
 -->
<!-- Title: resize Pages: 1 -->
<svg width="376pt" height="113pt"
 viewBox="0.00 0.00 376.00 112.50" xmlns="http://www.w3.org/2000/svg" xmlns:xlink="http://www.w3.org/1999/xlink">
<g id="graph0" class="graph" transform="scale(1 1) rotate(0) translate(4 108.5)">
<title>resize</title>
<!-- Node1 -->
<g id="node1" class="node">
<title>Node1</title>
<g id="a_node1"><a xlink:title="Re&#45;allocate storage for a problem with a different size.">
<polygon fill="#999999" stroke="#666666" points="46,-67.5 0,-67.5 0,-48.5 46,-48.5 46,-67.5"/>
<text text-anchor="middle" x="23" y="-55.5" font-family="Helvetica,sans-Serif" font-size="10.00">resize</text>
</a>
</g>
</g>
<!-- Node2 -->
<g id="node2" class="node">
<title>Node2</title>
<g id="a_node2"><a xlink:href="classquala_1_1LBFGS.html#a727afc7a58d2e44ae7add57e3fa77bc6" target="_top" xlink:title="Get the size of the s and y vectors in the buffer.">
<polygon fill="white" stroke="#666666" points="156,-104.5 127,-104.5 127,-85.5 156,-85.5 156,-104.5"/>
<text text-anchor="middle" x="141.5" y="-92.5" font-family="Helvetica,sans-Serif" font-size="10.00">n</text>
</a>
</g>
</g>
<!-- Node1&#45;&gt;Node2 -->
<g id="edge1" class="edge">
<title>Node1&#45;&gt;Node2</title>
<path fill="none" stroke="#63b8ff" d="M46,-65.31C56.83,-68.88 70.08,-73.22 82,-77 93.39,-80.62 106.07,-84.53 116.7,-87.78"/>
<polygon fill="#63b8ff" stroke="#63b8ff" points="115.94,-91.21 126.53,-90.78 117.98,-84.52 115.94,-91.21"/>
</g>
<!-- Node4 -->
<g id="node4" class="node">
<title>Node4</title>
<g id="a_node4"><a xlink:href="classquala_1_1LBFGS.html#ad20897c5c8bd47f5d4005989bead0e55" target="_top" xlink:title="Throw away the approximation and all previous vectors s and y.">
<polygon fill="white" stroke="#666666" points="162,-67.5 121,-67.5 121,-48.5 162,-48.5 162,-67.5"/>
<text text-anchor="middle" x="141.5" y="-55.5" font-family="Helvetica,sans-Serif" font-size="10.00">reset</text>
</a>
</g>
</g>
<!-- Node1&#45;&gt;Node4 -->
<g id="edge3" class="edge">
<title>Node1&#45;&gt;Node4</title>
<path fill="none" stroke="#63b8ff" d="M46.19,-58C64.43,-58 90.45,-58 110.55,-58"/>
<polygon fill="#63b8ff" stroke="#63b8ff" points="110.72,-61.5 120.72,-58 110.72,-54.5 110.72,-61.5"/>
</g>
<!-- Node5 -->
<g id="node5" class="node">
<title>Node5</title>
<g id="a_node5"><a xlink:href="structquala_1_1LBFGSStorage.html#a48072fa680a2364d8ce96eb84a5d5689" target="_top" xlink:title="Re&#45;allocate storage for a problem with a different size.">
<polygon fill="white" stroke="#666666" points="201,-30 82,-30 82,0 201,0 201,-30"/>
<text text-anchor="start" x="90" y="-18" font-family="Helvetica,sans-Serif" font-size="10.00">quala::LBFGSStorage</text>
<text text-anchor="middle" x="141.5" y="-7" font-family="Helvetica,sans-Serif" font-size="10.00">::resize</text>
</a>
</g>
</g>
<!-- Node1&#45;&gt;Node5 -->
<g id="edge4" class="edge">
<title>Node1&#45;&gt;Node5</title>
<path fill="none" stroke="#63b8ff" d="M46.19,-49.81C58.65,-45.21 74.75,-39.27 90.11,-33.6"/>
<polygon fill="#63b8ff" stroke="#63b8ff" points="91.36,-36.87 99.53,-30.12 88.94,-30.3 91.36,-36.87"/>
</g>
<!-- Node3 -->
<g id="node3" class="node">
<title>Node3</title>
<g id="a_node3"><a xlink:href="structquala_1_1LBFGSStorage.html#a727afc7a58d2e44ae7add57e3fa77bc6" target="_top" xlink:title="Get the size of the s and y vectors in the buffer.">
<polygon fill="white" stroke="#666666" points="368,-85.5 237,-85.5 237,-66.5 368,-66.5 368,-85.5"/>
<text text-anchor="middle" x="302.5" y="-73.5" font-family="Helvetica,sans-Serif" font-size="10.00">quala::LBFGSStorage::n</text>
</a>
</g>
</g>
<!-- Node2&#45;&gt;Node3 -->
<g id="edge2" class="edge">
<title>Node2&#45;&gt;Node3</title>
<path fill="none" stroke="#63b8ff" d="M156.06,-93.38C171.97,-91.48 199.63,-88.17 226.58,-84.95"/>
<polygon fill="#63b8ff" stroke="#63b8ff" points="227.34,-88.39 236.85,-83.73 226.51,-81.44 227.34,-88.39"/>
</g>
<!-- Node5&#45;&gt;Node3 -->
<g id="edge6" class="edge">
<title>Node5&#45;&gt;Node3</title>
<path fill="none" stroke="#63b8ff" d="M181.8,-30.08C207.94,-40.11 241.96,-53.16 267.04,-62.78"/>
<polygon fill="#63b8ff" stroke="#63b8ff" points="265.93,-66.1 276.52,-66.42 268.43,-59.57 265.93,-66.1"/>
</g>
<!-- Node6 -->
<g id="node6" class="node">
<title>Node6</title>
<g id="a_node6"><a xlink:href="structquala_1_1LBFGSStorage.html#a9cf7dcccbc3bc69a10833450ee79c623" target="_top" xlink:title="Get the number of previous vectors s and y stored in the buffer.">
<polygon fill="white" stroke="#666666" points="362,-30 243,-30 243,0 362,0 362,-30"/>
<text text-anchor="start" x="251" y="-18" font-family="Helvetica,sans-Serif" font-size="10.00">quala::LBFGSStorage</text>
<text text-anchor="middle" x="302.5" y="-7" font-family="Helvetica,sans-Serif" font-size="10.00">::history</text>
</a>
</g>
</g>
<!-- Node5&#45;&gt;Node6 -->
<g id="edge5" class="edge">
<title>Node5&#45;&gt;Node6</title>
<path fill="none" stroke="#63b8ff" d="M201.25,-15C211.58,-15 222.4,-15 232.97,-15"/>
<polygon fill="#63b8ff" stroke="#63b8ff" points="232.99,-18.5 242.99,-15 232.99,-11.5 232.99,-18.5"/>
</g>
</g>
</svg>
