<?xml version="1.0" encoding="UTF-8" standalone="no"?>
<!DOCTYPE svg PUBLIC "-//W3C//DTD SVG 1.1//EN"
 "http://www.w3.org/Graphics/SVG/1.1/DTD/svg11.dtd">
<!-- Generated by graphviz version 2.43.0 (0)
 -->
<!-- Title: end Pages: 1 -->
<svg width="431pt" height="166pt"
 viewBox="0.00 0.00 431.00 166.00" xmlns="http://www.w3.org/2000/svg" xmlns:xlink="http://www.w3.org/1999/xlink">
<g id="graph0" class="graph" transform="scale(1 1) rotate(0) translate(4 162)">
<title>end</title>
<!-- Node1 -->
<g id="node1" class="node">
<title>Node1</title>
<g id="a_node1"><a xlink:title=" ">
<polygon fill="#999999" stroke="#666666" points="423,-85.5 388,-85.5 388,-66.5 423,-66.5 423,-85.5"/>
<text text-anchor="middle" x="405.5" y="-73.5" font-family="Helvetica,sans-Serif" font-size="10.00">end</text>
</a>
</g>
</g>
<!-- Node2 -->
<g id="node2" class="node">
<title>Node2</title>
<g id="a_node2"><a xlink:href="classquala_1_1CircularRange.html#a93791e61ab486b4022c389d634b4facc" target="_top" xlink:title=" ">
<polygon fill="white" stroke="#666666" points="293,-146.5 253,-146.5 253,-127.5 293,-127.5 293,-146.5"/>
<text text-anchor="middle" x="273" y="-134.5" font-family="Helvetica,sans-Serif" font-size="10.00">cend</text>
</a>
</g>
</g>
<!-- Node1&#45;&gt;Node2 -->
<g id="edge1" class="edge">
<title>Node1&#45;&gt;Node2</title>
<path fill="none" stroke="#63b8ff" d="M385.55,-92.14C375.98,-99.63 363.91,-108.15 352,-114 332.99,-123.34 309.48,-129.63 293.27,-133.24"/>
<polygon fill="#63b8ff" stroke="#63b8ff" points="387.98,-94.67 393.54,-85.65 383.57,-89.23 387.98,-94.67"/>
</g>
<!-- Node4 -->
<g id="node4" class="node">
<title>Node4</title>
<g id="a_node4"><a xlink:href="classquala_1_1CircularRange.html#a81f80a31923e85af56a7b1ae0712a33b" target="_top" xlink:title=" ">
<polygon fill="white" stroke="#666666" points="299.5,-104.5 246.5,-104.5 246.5,-85.5 299.5,-85.5 299.5,-104.5"/>
<text text-anchor="middle" x="273" y="-92.5" font-family="Helvetica,sans-Serif" font-size="10.00">crbegin</text>
</a>
</g>
</g>
<!-- Node1&#45;&gt;Node4 -->
<g id="edge3" class="edge">
<title>Node1&#45;&gt;Node4</title>
<path fill="none" stroke="#63b8ff" d="M377.95,-79.86C355.14,-83.19 322.43,-87.95 299.83,-91.24"/>
<polygon fill="#63b8ff" stroke="#63b8ff" points="378.58,-83.31 387.97,-78.41 377.57,-76.38 378.58,-83.31"/>
</g>
<!-- Node6 -->
<g id="node6" class="node">
<title>Node6</title>
<g id="a_node6"><a xlink:href="classquala_1_1CircularRange.html#a4da62c698565a7f1bab4a15a86b167e1" target="_top" xlink:title=" ">
<polygon fill="white" stroke="#666666" points="296.5,-67.5 249.5,-67.5 249.5,-48.5 296.5,-48.5 296.5,-67.5"/>
<text text-anchor="middle" x="273" y="-55.5" font-family="Helvetica,sans-Serif" font-size="10.00">rbegin</text>
</a>
</g>
</g>
<!-- Node1&#45;&gt;Node6 -->
<g id="edge5" class="edge">
<title>Node1&#45;&gt;Node6</title>
<path fill="none" stroke="#63b8ff" d="M377.81,-72.32C353.85,-69.01 319.09,-64.22 296.51,-61.1"/>
<polygon fill="#63b8ff" stroke="#63b8ff" points="377.59,-75.82 387.97,-73.72 378.54,-68.89 377.59,-75.82"/>
</g>
<!-- Node8 -->
<g id="node8" class="node">
<title>Node8</title>
<g id="a_node8"><a xlink:href="classquala_1_1ReverseCircularRange.html#ab3fe1cdacc9a53cc2d0cbe27599036c4" target="_top" xlink:title=" ">
<polygon fill="white" stroke="#666666" points="352,-30 194,-30 194,0 352,0 352,-30"/>
<text text-anchor="start" x="202" y="-18" font-family="Helvetica,sans-Serif" font-size="10.00">quala::ReverseCircularRange</text>
<text text-anchor="middle" x="273" y="-7" font-family="Helvetica,sans-Serif" font-size="10.00">::rend</text>
</a>
</g>
</g>
<!-- Node1&#45;&gt;Node8 -->
<g id="edge7" class="edge">
<title>Node1&#45;&gt;Node8</title>
<path fill="none" stroke="#63b8ff" d="M385.08,-60.09C375.56,-52.88 363.65,-44.72 352,-39 345.26,-35.69 337.97,-32.72 330.64,-30.1"/>
<polygon fill="#63b8ff" stroke="#63b8ff" points="383.05,-62.94 393.08,-66.34 387.35,-57.42 383.05,-62.94"/>
</g>
<!-- Node3 -->
<g id="node3" class="node">
<title>Node3</title>
<g id="a_node3"><a xlink:href="classquala_1_1ReverseCircularRange.html#abef9dfc7607c7e1a3854788ba56a4f34" target="_top" xlink:title=" ">
<polygon fill="white" stroke="#666666" points="158,-158 0,-158 0,-128 158,-128 158,-158"/>
<text text-anchor="start" x="8" y="-146" font-family="Helvetica,sans-Serif" font-size="10.00">quala::ReverseCircularRange</text>
<text text-anchor="middle" x="79" y="-135" font-family="Helvetica,sans-Serif" font-size="10.00">::crend</text>
</a>
</g>
</g>
<!-- Node2&#45;&gt;Node3 -->
<g id="edge2" class="edge">
<title>Node2&#45;&gt;Node3</title>
<path fill="none" stroke="#63b8ff" d="M242.69,-137.92C220.22,-138.62 188.13,-139.62 158.38,-140.55"/>
<polygon fill="#63b8ff" stroke="#63b8ff" points="243,-141.41 252.89,-137.6 242.78,-134.41 243,-141.41"/>
</g>
<!-- Node5 -->
<g id="node5" class="node">
<title>Node5</title>
<g id="a_node5"><a xlink:href="classquala_1_1ReverseCircularRange.html#a39112ae08f6ffc7ee58c6aa79772e094" target="_top" xlink:title=" ">
<polygon fill="white" stroke="#666666" points="158,-110 0,-110 0,-80 158,-80 158,-110"/>
<text text-anchor="start" x="8" y="-98" font-family="Helvetica,sans-Serif" font-size="10.00">quala::ReverseCircularRange</text>
<text text-anchor="middle" x="79" y="-87" font-family="Helvetica,sans-Serif" font-size="10.00">::cbegin</text>
</a>
</g>
</g>
<!-- Node4&#45;&gt;Node5 -->
<g id="edge4" class="edge">
<title>Node4&#45;&gt;Node5</title>
<path fill="none" stroke="#63b8ff" d="M235.92,-95C213.96,-95 185.03,-95 158.06,-95"/>
<polygon fill="#63b8ff" stroke="#63b8ff" points="236.11,-98.5 246.11,-95 236.11,-91.5 236.11,-98.5"/>
</g>
<!-- Node7 -->
<g id="node7" class="node">
<title>Node7</title>
<g id="a_node7"><a xlink:href="classquala_1_1ReverseCircularRange.html#a0c62c15c8ed609e7e5e9518cf5f5c712" target="_top" xlink:title=" ">
<polygon fill="white" stroke="#666666" points="158,-62 0,-62 0,-32 158,-32 158,-62"/>
<text text-anchor="start" x="8" y="-50" font-family="Helvetica,sans-Serif" font-size="10.00">quala::ReverseCircularRange</text>
<text text-anchor="middle" x="79" y="-39" font-family="Helvetica,sans-Serif" font-size="10.00">::begin</text>
</a>
</g>
</g>
<!-- Node6&#45;&gt;Node7 -->
<g id="edge6" class="edge">
<title>Node6&#45;&gt;Node7</title>
<path fill="none" stroke="#63b8ff" d="M239.01,-56.11C216.81,-54.84 186.56,-53.11 158.4,-51.49"/>
<polygon fill="#63b8ff" stroke="#63b8ff" points="239.04,-59.62 249.22,-56.69 239.44,-52.63 239.04,-59.62"/>
</g>
</g>
</svg>
