<?xml version="1.0" encoding="UTF-8" standalone="no"?>
<!DOCTYPE svg PUBLIC "-//W3C//DTD SVG 1.1//EN"
 "http://www.w3.org/Graphics/SVG/1.1/DTD/svg11.dtd">
<!-- Generated by graphviz version 2.43.0 (0)
 -->
<!-- Title: update Pages: 1 -->
<svg width="778pt" height="291pt"
 viewBox="0.00 0.00 778.00 291.00" xmlns="http://www.w3.org/2000/svg" xmlns:xlink="http://www.w3.org/1999/xlink">
<g id="graph0" class="graph" transform="scale(1 1) rotate(0) translate(4 287)">
<title>update</title>
<!-- Node1 -->
<g id="node1" class="node">
<title>Node1</title>
<g id="a_node1"><a xlink:title="Update the inverse Hessian approximation using the new vectors xₖ₊₁ and pₖ₊₁.">
<polygon fill="#999999" stroke="#666666" points="50,-151 0,-151 0,-132 50,-132 50,-151"/>
<text text-anchor="middle" x="25" y="-139" font-family="Helvetica,sans-Serif" font-size="10.00">update</text>
</a>
</g>
</g>
<!-- Node2 -->
<g id="node2" class="node">
<title>Node2</title>
<g id="a_node2"><a xlink:href="classquala_1_1LBFGS.html#a15e4a3db39457cabe764a7737d24e73f" target="_top" xlink:title=" ">
<polygon fill="white" stroke="#666666" points="243.5,-283 214.5,-283 214.5,-264 243.5,-264 243.5,-283"/>
<text text-anchor="middle" x="229" y="-271" font-family="Helvetica,sans-Serif" font-size="10.00">s</text>
</a>
</g>
</g>
<!-- Node1&#45;&gt;Node2 -->
<g id="edge1" class="edge">
<title>Node1&#45;&gt;Node2</title>
<path fill="none" stroke="#63b8ff" d="M40.85,-151.21C76.01,-174.18 164.45,-231.97 205.91,-259.06"/>
<polygon fill="#63b8ff" stroke="#63b8ff" points="204.18,-262.12 214.47,-264.66 208.01,-256.26 204.18,-262.12"/>
</g>
<!-- Node5 -->
<g id="node5" class="node">
<title>Node5</title>
<g id="a_node5"><a xlink:href="classquala_1_1LBFGS.html#af150290995e6bee28f5a0f057ed511c8" target="_top" xlink:title="Update the inverse Hessian approximation using the new vectors sₖ = xₖ₊₁ &#45; xₖ and yₖ = pₖ₊₁ &#45; pₖ.">
<polygon fill="white" stroke="#666666" points="153,-151 86,-151 86,-132 153,-132 153,-151"/>
<text text-anchor="middle" x="119.5" y="-139" font-family="Helvetica,sans-Serif" font-size="10.00">update_sy</text>
</a>
</g>
</g>
<!-- Node1&#45;&gt;Node5 -->
<g id="edge4" class="edge">
<title>Node1&#45;&gt;Node5</title>
<path fill="none" stroke="#63b8ff" d="M50.3,-141.5C58.07,-141.5 66.92,-141.5 75.61,-141.5"/>
<polygon fill="#63b8ff" stroke="#63b8ff" points="75.66,-145 85.66,-141.5 75.66,-138 75.66,-145"/>
</g>
<!-- Node15 -->
<g id="node15" class="node">
<title>Node15</title>
<g id="a_node15"><a xlink:href="classquala_1_1LBFGS.html#aebac2ec4461761a48a7284152a8217f8" target="_top" xlink:title=" ">
<polygon fill="white" stroke="#666666" points="243.5,-19 214.5,-19 214.5,0 243.5,0 243.5,-19"/>
<text text-anchor="middle" x="229" y="-7" font-family="Helvetica,sans-Serif" font-size="10.00">y</text>
</a>
</g>
</g>
<!-- Node1&#45;&gt;Node15 -->
<g id="edge22" class="edge">
<title>Node1&#45;&gt;Node15</title>
<path fill="none" stroke="#63b8ff" d="M38.18,-131.84C64.63,-111.13 129.71,-61.55 189,-27.5 194.09,-24.58 199.74,-21.75 205.12,-19.23"/>
<polygon fill="#63b8ff" stroke="#63b8ff" points="206.66,-22.38 214.35,-15.09 203.79,-15.99 206.66,-22.38"/>
</g>
<!-- Node3 -->
<g id="node3" class="node">
<title>Node3</title>
<g id="a_node3"><a xlink:href="structquala_1_1LBFGSStorage.html#a15e4a3db39457cabe764a7737d24e73f" target="_top" xlink:title=" ">
<polygon fill="white" stroke="#666666" points="435.5,-245 305.5,-245 305.5,-226 435.5,-226 435.5,-245"/>
<text text-anchor="middle" x="370.5" y="-233" font-family="Helvetica,sans-Serif" font-size="10.00">quala::LBFGSStorage::s</text>
</a>
</g>
</g>
<!-- Node2&#45;&gt;Node3 -->
<g id="edge2" class="edge">
<title>Node2&#45;&gt;Node3</title>
<path fill="none" stroke="#63b8ff" d="M243.63,-269.79C262.19,-264.73 296.32,-255.43 324.36,-247.8"/>
<polygon fill="#63b8ff" stroke="#63b8ff" points="325.65,-251.07 334.38,-245.07 323.81,-244.32 325.65,-251.07"/>
</g>
<!-- Node4 -->
<g id="node4" class="node">
<title>Node4</title>
<g id="a_node4"><a xlink:href="structquala_1_1LBFGSStorage.html#a727afc7a58d2e44ae7add57e3fa77bc6" target="_top" xlink:title="Get the size of the s and y vectors in the buffer.">
<polygon fill="white" stroke="#666666" points="770,-188 639,-188 639,-169 770,-169 770,-188"/>
<text text-anchor="middle" x="704.5" y="-176" font-family="Helvetica,sans-Serif" font-size="10.00">quala::LBFGSStorage::n</text>
</a>
</g>
</g>
<!-- Node3&#45;&gt;Node4 -->
<g id="edge3" class="edge">
<title>Node3&#45;&gt;Node4</title>
<path fill="none" stroke="#63b8ff" d="M435.57,-234.53C482.44,-232.73 547.29,-227.93 603,-215.5 627.22,-210.1 653.5,-200.27 673.11,-192.1"/>
<polygon fill="#63b8ff" stroke="#63b8ff" points="674.6,-195.27 682.43,-188.14 671.86,-188.83 674.6,-195.27"/>
</g>
<!-- Node5&#45;&gt;Node2 -->
<g id="edge15" class="edge">
<title>Node5&#45;&gt;Node2</title>
<path fill="none" stroke="#63b8ff" d="M124.78,-151.17C134.08,-171.39 157.86,-218.78 189,-249.5 193.83,-254.26 199.77,-258.52 205.55,-262.07"/>
<polygon fill="#63b8ff" stroke="#63b8ff" points="203.88,-265.15 214.3,-267.06 207.34,-259.07 203.88,-265.15"/>
</g>
<!-- Node5&#45;&gt;Node3 -->
<g id="edge14" class="edge">
<title>Node5&#45;&gt;Node3</title>
<path fill="none" stroke="#63b8ff" d="M126.21,-151.25C136.45,-167.72 159.61,-200.68 189,-215.5 221.4,-231.84 261.15,-237.53 295.09,-238.85"/>
<polygon fill="#63b8ff" stroke="#63b8ff" points="295.34,-242.35 305.43,-239.12 295.52,-235.36 295.34,-242.35"/>
</g>
<!-- Node6 -->
<g id="node6" class="node">
<title>Node6</title>
<g id="a_node6"><a xlink:href="structquala_1_1LBFGSStorage.html#acade3dc51f7ca788be9b91908b2e73ab" target="_top" xlink:title=" ">
<polygon fill="white" stroke="#666666" points="436,-169 305,-169 305,-150 436,-150 436,-169"/>
<text text-anchor="middle" x="370.5" y="-157" font-family="Helvetica,sans-Serif" font-size="10.00">quala::LBFGSStorage::ρ</text>
</a>
</g>
</g>
<!-- Node5&#45;&gt;Node6 -->
<g id="edge5" class="edge">
<title>Node5&#45;&gt;Node6</title>
<path fill="none" stroke="#63b8ff" d="M153.02,-139.85C183.15,-138.71 229.2,-137.96 269,-141.5 284.21,-142.85 300.56,-145.33 315.56,-148.03"/>
<polygon fill="#63b8ff" stroke="#63b8ff" points="315.23,-151.52 325.7,-149.92 316.51,-144.64 315.23,-151.52"/>
</g>
<!-- Node7 -->
<g id="node7" class="node">
<title>Node7</title>
<g id="a_node7"><a xlink:href="classquala_1_1LBFGS.html#a70926baed7362e4fcce66523bb8e2842" target="_top" xlink:title="Get the next index in the circular buffer of previous s and y vectors.">
<polygon fill="white" stroke="#666666" points="248,-56 210,-56 210,-37 248,-37 248,-56"/>
<text text-anchor="middle" x="229" y="-44" font-family="Helvetica,sans-Serif" font-size="10.00">succ</text>
</a>
</g>
</g>
<!-- Node5&#45;&gt;Node7 -->
<g id="edge7" class="edge">
<title>Node5&#45;&gt;Node7</title>
<path fill="none" stroke="#63b8ff" d="M128.68,-131.55C140.87,-117.08 164.98,-89.83 189,-70.5 192.9,-67.36 197.24,-64.32 201.56,-61.51"/>
<polygon fill="#63b8ff" stroke="#63b8ff" points="203.62,-64.36 210.28,-56.12 199.94,-58.4 203.62,-64.36"/>
</g>
<!-- Node10 -->
<g id="node10" class="node">
<title>Node10</title>
<g id="a_node10"><a xlink:href="structquala_1_1LBFGSStorage.html#aebac2ec4461761a48a7284152a8217f8" target="_top" xlink:title=" ">
<polygon fill="white" stroke="#666666" points="436,-94 305,-94 305,-75 436,-75 436,-94"/>
<text text-anchor="middle" x="370.5" y="-82" font-family="Helvetica,sans-Serif" font-size="10.00">quala::LBFGSStorage::y</text>
</a>
</g>
</g>
<!-- Node5&#45;&gt;Node10 -->
<g id="edge10" class="edge">
<title>Node5&#45;&gt;Node10</title>
<path fill="none" stroke="#63b8ff" d="M153.05,-134.05C194.98,-124.45 268.36,-107.65 317.92,-96.31"/>
<polygon fill="#63b8ff" stroke="#63b8ff" points="318.84,-99.69 327.81,-94.04 317.28,-92.86 318.84,-99.69"/>
</g>
<!-- Node11 -->
<g id="node11" class="node">
<title>Node11</title>
<g id="a_node11"><a xlink:href="classquala_1_1LBFGS.html#acade3dc51f7ca788be9b91908b2e73ab" target="_top" xlink:title=" ">
<polygon fill="white" stroke="#666666" points="243.5,-170 214.5,-170 214.5,-151 243.5,-151 243.5,-170"/>
<text text-anchor="middle" x="229" y="-158" font-family="Helvetica,sans-Serif" font-size="10.00">ρ</text>
</a>
</g>
</g>
<!-- Node5&#45;&gt;Node11 -->
<g id="edge12" class="edge">
<title>Node5&#45;&gt;Node11</title>
<path fill="none" stroke="#63b8ff" d="M153.05,-147.25C169.55,-150.17 189.24,-153.65 204.3,-156.31"/>
<polygon fill="#63b8ff" stroke="#63b8ff" points="203.87,-159.79 214.33,-158.08 205.09,-152.9 203.87,-159.79"/>
</g>
<!-- Node12 -->
<g id="node12" class="node">
<title>Node12</title>
<g id="a_node12"><a xlink:href="classquala_1_1LBFGS.html#a1109c880f1969f61532c94c19122e927" target="_top" xlink:title="Check if the new vectors s and y allow for a valid BFGS update that preserves the positive definitene...">
<polygon fill="white" stroke="#666666" points="269,-207 189,-207 189,-188 269,-188 269,-207"/>
<text text-anchor="middle" x="229" y="-195" font-family="Helvetica,sans-Serif" font-size="10.00">update_valid</text>
</a>
</g>
</g>
<!-- Node5&#45;&gt;Node12 -->
<g id="edge16" class="edge">
<title>Node5&#45;&gt;Node12</title>
<path fill="none" stroke="#63b8ff" d="M137.85,-151.13C151.63,-158.72 171.44,-169.49 189,-178.5 192.18,-180.13 195.52,-181.81 198.85,-183.46"/>
<polygon fill="#63b8ff" stroke="#63b8ff" points="197.56,-186.73 208.08,-187.99 200.64,-180.45 197.56,-186.73"/>
</g>
<!-- Node5&#45;&gt;Node15 -->
<g id="edge20" class="edge">
<title>Node5&#45;&gt;Node15</title>
<path fill="none" stroke="#63b8ff" d="M125.88,-131.82C140.43,-105.76 180.06,-35.52 189,-27.5 193.51,-23.45 199.09,-20.16 204.6,-17.56"/>
<polygon fill="#63b8ff" stroke="#63b8ff" points="206.3,-20.64 214.2,-13.59 203.62,-14.17 206.3,-20.64"/>
</g>
<!-- Node6&#45;&gt;Node4 -->
<g id="edge6" class="edge">
<title>Node6&#45;&gt;Node4</title>
<path fill="none" stroke="#63b8ff" d="M436.3,-163.21C491.49,-166.37 570.8,-170.91 628.68,-174.22"/>
<polygon fill="#63b8ff" stroke="#63b8ff" points="628.68,-177.72 638.86,-174.8 629.08,-170.74 628.68,-177.72"/>
</g>
<!-- Node8 -->
<g id="node8" class="node">
<title>Node8</title>
<g id="a_node8"><a xlink:href="classquala_1_1LBFGS.html#a9cf7dcccbc3bc69a10833450ee79c623" target="_top" xlink:title="Get the number of previous vectors s and y stored in the buffer.">
<polygon fill="white" stroke="#666666" points="395.5,-56 345.5,-56 345.5,-37 395.5,-37 395.5,-56"/>
<text text-anchor="middle" x="370.5" y="-44" font-family="Helvetica,sans-Serif" font-size="10.00">history</text>
</a>
</g>
</g>
<!-- Node7&#45;&gt;Node8 -->
<g id="edge8" class="edge">
<title>Node7&#45;&gt;Node8</title>
<path fill="none" stroke="#63b8ff" d="M248.24,-46.5C270.14,-46.5 307.37,-46.5 334.81,-46.5"/>
<polygon fill="#63b8ff" stroke="#63b8ff" points="335.16,-50 345.16,-46.5 335.16,-43 335.16,-50"/>
</g>
<!-- Node9 -->
<g id="node9" class="node">
<title>Node9</title>
<g id="a_node9"><a xlink:href="structquala_1_1LBFGSStorage.html#a9cf7dcccbc3bc69a10833450ee79c623" target="_top" xlink:title="Get the number of previous vectors s and y stored in the buffer.">
<polygon fill="white" stroke="#666666" points="597,-61.5 478,-61.5 478,-31.5 597,-31.5 597,-61.5"/>
<text text-anchor="start" x="486" y="-49.5" font-family="Helvetica,sans-Serif" font-size="10.00">quala::LBFGSStorage</text>
<text text-anchor="middle" x="537.5" y="-38.5" font-family="Helvetica,sans-Serif" font-size="10.00">::history</text>
</a>
</g>
</g>
<!-- Node8&#45;&gt;Node9 -->
<g id="edge9" class="edge">
<title>Node8&#45;&gt;Node9</title>
<path fill="none" stroke="#63b8ff" d="M395.85,-46.5C414.84,-46.5 442.2,-46.5 467.75,-46.5"/>
<polygon fill="#63b8ff" stroke="#63b8ff" points="467.8,-50 477.8,-46.5 467.8,-43 467.8,-50"/>
</g>
<!-- Node10&#45;&gt;Node4 -->
<g id="edge11" class="edge">
<title>Node10&#45;&gt;Node4</title>
<path fill="none" stroke="#63b8ff" d="M405.16,-94.03C465.69,-111.17 592.82,-147.16 659.91,-166.16"/>
<polygon fill="#63b8ff" stroke="#63b8ff" points="659.17,-169.59 669.75,-168.94 661.08,-162.85 659.17,-169.59"/>
</g>
<!-- Node11&#45;&gt;Node6 -->
<g id="edge13" class="edge">
<title>Node11&#45;&gt;Node6</title>
<path fill="none" stroke="#63b8ff" d="M243.63,-160.4C255.89,-160.31 274.94,-160.18 294.54,-160.04"/>
<polygon fill="#63b8ff" stroke="#63b8ff" points="294.84,-163.54 304.81,-159.96 294.79,-156.54 294.84,-163.54"/>
</g>
<!-- Node13 -->
<g id="node13" class="node">
<title>Node13</title>
<g id="a_node13"><a xlink:href="classquala_1_1LBFGS.html#ac7c2ee7d2562303f555dd1f4c3fca8cd" target="_top" xlink:title=" ">
<polygon fill="white" stroke="#666666" points="385,-207 356,-207 356,-188 385,-188 385,-207"/>
<text text-anchor="middle" x="370.5" y="-195" font-family="Helvetica,sans-Serif" font-size="10.00">α</text>
</a>
</g>
</g>
<!-- Node12&#45;&gt;Node13 -->
<g id="edge17" class="edge">
<title>Node12&#45;&gt;Node13</title>
<path fill="none" stroke="#63b8ff" d="M269.23,-197.5C293.82,-197.5 324.72,-197.5 345.67,-197.5"/>
<polygon fill="#63b8ff" stroke="#63b8ff" points="345.91,-201 355.91,-197.5 345.91,-194 345.91,-201"/>
</g>
<!-- Node14 -->
<g id="node14" class="node">
<title>Node14</title>
<g id="a_node14"><a xlink:href="structquala_1_1LBFGSStorage.html#ac7c2ee7d2562303f555dd1f4c3fca8cd" target="_top" xlink:title=" ">
<polygon fill="white" stroke="#666666" points="603,-207 472,-207 472,-188 603,-188 603,-207"/>
<text text-anchor="middle" x="537.5" y="-195" font-family="Helvetica,sans-Serif" font-size="10.00">quala::LBFGSStorage::α</text>
</a>
</g>
</g>
<!-- Node13&#45;&gt;Node14 -->
<g id="edge18" class="edge">
<title>Node13&#45;&gt;Node14</title>
<path fill="none" stroke="#63b8ff" d="M385,-197.5C401.94,-197.5 432.3,-197.5 461.42,-197.5"/>
<polygon fill="#63b8ff" stroke="#63b8ff" points="461.65,-201 471.65,-197.5 461.65,-194 461.65,-201"/>
</g>
<!-- Node14&#45;&gt;Node4 -->
<g id="edge19" class="edge">
<title>Node14&#45;&gt;Node4</title>
<path fill="none" stroke="#63b8ff" d="M603.24,-190.05C611.67,-189.07 620.37,-188.07 628.95,-187.08"/>
<polygon fill="#63b8ff" stroke="#63b8ff" points="629.41,-190.55 638.95,-185.93 628.61,-183.6 629.41,-190.55"/>
</g>
<!-- Node15&#45;&gt;Node10 -->
<g id="edge21" class="edge">
<title>Node15&#45;&gt;Node10</title>
<path fill="none" stroke="#63b8ff" d="M243.66,-14.37C251.46,-17.49 261.21,-21.99 269,-27.5 287.73,-40.75 285.44,-52.51 305,-64.5 309.15,-67.05 313.66,-69.29 318.29,-71.27"/>
<polygon fill="#63b8ff" stroke="#63b8ff" points="317.32,-74.65 327.91,-74.96 319.83,-68.11 317.32,-74.65"/>
</g>
</g>
</svg>
