<?xml version="1.0" encoding="UTF-8" standalone="no"?>
<!DOCTYPE svg PUBLIC "-//W3C//DTD SVG 1.1//EN"
 "http://www.w3.org/Graphics/SVG/1.1/DTD/svg11.dtd">
<!-- Generated by graphviz version 2.43.0 (0)
 -->
<!-- Title: compute Pages: 1 -->
<svg width="961pt" height="319pt"
 viewBox="0.00 0.00 961.00 318.55" xmlns="http://www.w3.org/2000/svg" xmlns:xlink="http://www.w3.org/1999/xlink">
<g id="graph0" class="graph" transform="scale(1 1) rotate(0) translate(4 314.55)">
<title>compute</title>
<!-- Node1 -->
<g id="node1" class="node">
<title>Node1</title>
<g id="a_node1"><a xlink:title="Compute the accelerated iterate , given the function value at the current iterate &#160;and the correspond...">
<polygon fill="#999999" stroke="#666666" points="59,-158.5 0,-158.5 0,-139.5 59,-139.5 59,-158.5"/>
<text text-anchor="middle" x="29.5" y="-146.5" font-family="Helvetica,sans-Serif" font-size="10.00">compute</text>
</a>
</g>
</g>
<!-- Node2 -->
<g id="node2" class="node">
<title>Node2</title>
<g id="a_node2"><a xlink:href="namespacequala.html#a6c177816e8d54a88f83d46bd040851e7" target="_top" xlink:title="Solve one step of Anderson acceleration to find a fixed point of a function g(x):">
<polygon fill="white" stroke="#666666" points="229,-164 95,-164 95,-134 229,-134 229,-164"/>
<text text-anchor="start" x="103" y="-152" font-family="Helvetica,sans-Serif" font-size="10.00">quala::minimize_update</text>
<text text-anchor="middle" x="162" y="-141" font-family="Helvetica,sans-Serif" font-size="10.00">_anderson</text>
</a>
</g>
</g>
<!-- Node1&#45;&gt;Node2 -->
<g id="edge1" class="edge">
<title>Node1&#45;&gt;Node2</title>
<path fill="none" stroke="#63b8ff" d="M59.14,-149C66.96,-149 75.83,-149 84.98,-149"/>
<polygon fill="#63b8ff" stroke="#63b8ff" points="84.99,-152.5 94.99,-149 84.99,-145.5 84.99,-152.5"/>
</g>
<!-- Node3 -->
<g id="node3" class="node">
<title>Node3</title>
<g id="a_node3"><a xlink:href="classquala_1_1LimitedMemoryQR.html#a5e3077223e98c1e4e286e01503f220d5" target="_top" xlink:title="Add the given column to the right.">
<polygon fill="white" stroke="#666666" points="406,-260 265,-260 265,-230 406,-230 406,-260"/>
<text text-anchor="start" x="273" y="-248" font-family="Helvetica,sans-Serif" font-size="10.00">quala::LimitedMemoryQR</text>
<text text-anchor="middle" x="335.5" y="-237" font-family="Helvetica,sans-Serif" font-size="10.00">::add_column</text>
</a>
</g>
</g>
<!-- Node2&#45;&gt;Node3 -->
<g id="edge2" class="edge">
<title>Node2&#45;&gt;Node3</title>
<path fill="none" stroke="#63b8ff" d="M181.15,-164.22C200.8,-180.1 233.56,-204.89 265,-221 268.48,-222.78 272.12,-224.48 275.84,-226.09"/>
<polygon fill="#63b8ff" stroke="#63b8ff" points="274.59,-229.37 285.17,-229.91 277.24,-222.89 274.59,-229.37"/>
</g>
<!-- Node4 -->
<g id="node4" class="node">
<title>Node4</title>
<g id="a_node4"><a xlink:href="classquala_1_1LimitedMemoryQR.html#ac397ae83f5f4dd3d5cf9926f26acfb2d" target="_top" xlink:title=" ">
<polygon fill="white" stroke="#666666" points="953,-233.5 796,-233.5 796,-214.5 953,-214.5 953,-233.5"/>
<text text-anchor="middle" x="874.5" y="-221.5" font-family="Helvetica,sans-Serif" font-size="10.00">quala::LimitedMemoryQR::m</text>
</a>
</g>
</g>
<!-- Node2&#45;&gt;Node4 -->
<g id="edge6" class="edge">
<title>Node2&#45;&gt;Node4</title>
<path fill="none" stroke="#63b8ff" d="M170.22,-164.04C184.15,-191.07 217.6,-247.08 265,-269 466.51,-362.19 745.92,-272.63 840.61,-237.09"/>
<polygon fill="#63b8ff" stroke="#63b8ff" points="841.86,-240.36 849.96,-233.53 839.37,-233.82 841.86,-240.36"/>
</g>
<!-- Node6 -->
<g id="node6" class="node">
<title>Node6</title>
<g id="a_node6"><a xlink:href="classquala_1_1LimitedMemoryQR.html#a24829df3eaf3f15bd3c677781348b14d" target="_top" xlink:title="Get the number of columns that are currently stored.">
<polygon fill="white" stroke="#666666" points="406,-212 265,-212 265,-182 406,-182 406,-212"/>
<text text-anchor="start" x="273" y="-200" font-family="Helvetica,sans-Serif" font-size="10.00">quala::LimitedMemoryQR</text>
<text text-anchor="middle" x="335.5" y="-189" font-family="Helvetica,sans-Serif" font-size="10.00">::num_columns</text>
</a>
</g>
</g>
<!-- Node2&#45;&gt;Node6 -->
<g id="edge7" class="edge">
<title>Node2&#45;&gt;Node6</title>
<path fill="none" stroke="#63b8ff" d="M216.79,-164.06C234.03,-168.88 253.28,-174.27 271.14,-179.27"/>
<polygon fill="#63b8ff" stroke="#63b8ff" points="270.32,-182.67 280.9,-182 272.21,-175.93 270.32,-182.67"/>
</g>
<!-- Node7 -->
<g id="node7" class="node">
<title>Node7</title>
<g id="a_node7"><a xlink:href="classquala_1_1LimitedMemoryQR.html#a436c4dbbf0476354ca67a104bc005e55" target="_top" xlink:title="Remove the leftmost column.">
<polygon fill="white" stroke="#666666" points="406,-164 265,-164 265,-134 406,-134 406,-164"/>
<text text-anchor="start" x="273" y="-152" font-family="Helvetica,sans-Serif" font-size="10.00">quala::LimitedMemoryQR</text>
<text text-anchor="middle" x="335.5" y="-141" font-family="Helvetica,sans-Serif" font-size="10.00">::remove_column</text>
</a>
</g>
</g>
<!-- Node2&#45;&gt;Node7 -->
<g id="edge8" class="edge">
<title>Node2&#45;&gt;Node7</title>
<path fill="none" stroke="#63b8ff" d="M229.31,-149C237.71,-149 246.37,-149 254.95,-149"/>
<polygon fill="#63b8ff" stroke="#63b8ff" points="254.96,-152.5 264.96,-149 254.96,-145.5 254.96,-152.5"/>
</g>
<!-- Node8 -->
<g id="node8" class="node">
<title>Node8</title>
<g id="a_node8"><a xlink:href="classquala_1_1LimitedMemoryQR.html#a0bf0ad441ec87440e4525e75de00d053" target="_top" xlink:title="Get iterators in the circular buffer.">
<polygon fill="white" stroke="#666666" points="760,-101 619,-101 619,-71 760,-71 760,-101"/>
<text text-anchor="start" x="627" y="-89" font-family="Helvetica,sans-Serif" font-size="10.00">quala::LimitedMemoryQR</text>
<text text-anchor="middle" x="689.5" y="-78" font-family="Helvetica,sans-Serif" font-size="10.00">::ring_iter</text>
</a>
</g>
</g>
<!-- Node2&#45;&gt;Node8 -->
<g id="edge10" class="edge">
<title>Node2&#45;&gt;Node8</title>
<path fill="none" stroke="#63b8ff" d="M220.71,-133.95C235.1,-130.6 250.55,-127.35 265,-125 383.87,-105.64 523.2,-95.12 608.65,-90.03"/>
<polygon fill="#63b8ff" stroke="#63b8ff" points="609.02,-93.51 618.8,-89.44 608.61,-86.53 609.02,-93.51"/>
</g>
<!-- Node9 -->
<g id="node9" class="node">
<title>Node9</title>
<g id="a_node9"><a xlink:href="classquala_1_1LimitedMemoryQR.html#a8a153a1f58e5c5879095a4c3799b6f49" target="_top" xlink:title="Get the tail index of the circular buffer (points to one past the most recent element).">
<polygon fill="white" stroke="#666666" points="406,-78 265,-78 265,-48 406,-48 406,-78"/>
<text text-anchor="start" x="273" y="-66" font-family="Helvetica,sans-Serif" font-size="10.00">quala::LimitedMemoryQR</text>
<text text-anchor="middle" x="335.5" y="-55" font-family="Helvetica,sans-Serif" font-size="10.00">::ring_tail</text>
</a>
</g>
</g>
<!-- Node2&#45;&gt;Node9 -->
<g id="edge12" class="edge">
<title>Node2&#45;&gt;Node9</title>
<path fill="none" stroke="#63b8ff" d="M188.14,-133.89C208.53,-121.9 238.18,-105.04 265,-92 272.03,-88.58 279.56,-85.18 286.98,-81.97"/>
<polygon fill="#63b8ff" stroke="#63b8ff" points="288.44,-85.16 296.28,-78.03 285.7,-78.72 288.44,-85.16"/>
</g>
<!-- Node10 -->
<g id="node10" class="node">
<title>Node10</title>
<g id="a_node10"><a xlink:href="classquala_1_1LimitedMemoryQR.html#a7a60dfe0a5f68bc1efec69e406a2b619" target="_top" xlink:title="Solve the least squares problem Ax = b.">
<polygon fill="white" stroke="#666666" points="406,-30 265,-30 265,0 406,0 406,-30"/>
<text text-anchor="start" x="273" y="-18" font-family="Helvetica,sans-Serif" font-size="10.00">quala::LimitedMemoryQR</text>
<text text-anchor="middle" x="335.5" y="-7" font-family="Helvetica,sans-Serif" font-size="10.00">::solve_col</text>
</a>
</g>
</g>
<!-- Node2&#45;&gt;Node10 -->
<g id="edge13" class="edge">
<title>Node2&#45;&gt;Node10</title>
<path fill="none" stroke="#63b8ff" d="M173.41,-133.62C190.11,-110.06 225.08,-65.03 265,-39 267.41,-37.43 269.93,-35.95 272.52,-34.56"/>
<polygon fill="#63b8ff" stroke="#63b8ff" points="274.12,-37.68 281.58,-30.16 271.05,-31.38 274.12,-37.68"/>
</g>
<!-- Node3&#45;&gt;Node4 -->
<g id="edge3" class="edge">
<title>Node3&#45;&gt;Node4</title>
<path fill="none" stroke="#63b8ff" d="M406.15,-242.28C503.34,-238.48 679.59,-231.58 785.67,-227.43"/>
<polygon fill="#63b8ff" stroke="#63b8ff" points="785.85,-230.93 795.71,-227.04 785.58,-223.94 785.85,-230.93"/>
</g>
<!-- Node5 -->
<g id="node5" class="node">
<title>Node5</title>
<g id="a_node5"><a xlink:href="classquala_1_1LimitedMemoryQR.html#a9f68bead8c70041aacb90dd175150dc4" target="_top" xlink:title="Get the next index in the circular storage for R.">
<polygon fill="white" stroke="#666666" points="583,-217 442,-217 442,-187 583,-187 583,-217"/>
<text text-anchor="start" x="450" y="-205" font-family="Helvetica,sans-Serif" font-size="10.00">quala::LimitedMemoryQR</text>
<text text-anchor="middle" x="512.5" y="-194" font-family="Helvetica,sans-Serif" font-size="10.00">::r_succ</text>
</a>
</g>
</g>
<!-- Node3&#45;&gt;Node5 -->
<g id="edge4" class="edge">
<title>Node3&#45;&gt;Node5</title>
<path fill="none" stroke="#63b8ff" d="M397.71,-229.96C411.56,-226.56 426.38,-222.91 440.6,-219.42"/>
<polygon fill="#63b8ff" stroke="#63b8ff" points="441.45,-222.82 450.33,-217.03 439.78,-216.02 441.45,-222.82"/>
</g>
<!-- Node5&#45;&gt;Node4 -->
<g id="edge5" class="edge">
<title>Node5&#45;&gt;Node4</title>
<path fill="none" stroke="#63b8ff" d="M583.34,-206.27C641.06,-209.8 723.33,-214.82 785.54,-218.62"/>
<polygon fill="#63b8ff" stroke="#63b8ff" points="785.54,-222.13 795.74,-219.25 785.97,-215.14 785.54,-222.13"/>
</g>
<!-- Node7&#45;&gt;Node5 -->
<g id="edge9" class="edge">
<title>Node7&#45;&gt;Node5</title>
<path fill="none" stroke="#63b8ff" d="M386.18,-164.05C406.69,-170.26 430.62,-177.51 452.05,-183.99"/>
<polygon fill="#63b8ff" stroke="#63b8ff" points="451.11,-187.37 461.7,-186.92 453.14,-180.67 451.11,-187.37"/>
</g>
<!-- Node8&#45;&gt;Node4 -->
<g id="edge11" class="edge">
<title>Node8&#45;&gt;Node4</title>
<path fill="none" stroke="#63b8ff" d="M710.43,-101.03C745.28,-127.31 816.93,-181.34 852.5,-208.17"/>
<polygon fill="#63b8ff" stroke="#63b8ff" points="850.64,-211.14 860.73,-214.37 854.85,-205.55 850.64,-211.14"/>
</g>
<!-- Node10&#45;&gt;Node8 -->
<g id="edge14" class="edge">
<title>Node10&#45;&gt;Node8</title>
<path fill="none" stroke="#63b8ff" d="M392.16,-30.07C408.19,-34.18 425.74,-38.47 442,-42 497.43,-54.02 560.38,-65.22 608.8,-73.31"/>
<polygon fill="#63b8ff" stroke="#63b8ff" points="608.46,-76.8 618.9,-74.99 609.61,-69.9 608.46,-76.8"/>
</g>
<!-- Node11 -->
<g id="node11" class="node">
<title>Node11</title>
<g id="a_node11"><a xlink:href="classquala_1_1LimitedMemoryQR.html#ae8160acf26958eb65aa5c0743dd2826d" target="_top" xlink:title="Get reverse iterators in the circular buffer.">
<polygon fill="white" stroke="#666666" points="583,-33 442,-33 442,-3 583,-3 583,-33"/>
<text text-anchor="start" x="450" y="-21" font-family="Helvetica,sans-Serif" font-size="10.00">quala::LimitedMemoryQR</text>
<text text-anchor="middle" x="512.5" y="-10" font-family="Helvetica,sans-Serif" font-size="10.00">::ring_reverse_iter</text>
</a>
</g>
</g>
<!-- Node10&#45;&gt;Node11 -->
<g id="edge15" class="edge">
<title>Node10&#45;&gt;Node11</title>
<path fill="none" stroke="#63b8ff" d="M406.17,-16.19C414.5,-16.34 423.06,-16.48 431.53,-16.63"/>
<polygon fill="#63b8ff" stroke="#63b8ff" points="431.73,-20.13 441.79,-16.8 431.85,-13.13 431.73,-20.13"/>
</g>
<!-- Node11&#45;&gt;Node8 -->
<g id="edge16" class="edge">
<title>Node11&#45;&gt;Node8</title>
<path fill="none" stroke="#63b8ff" d="M552.34,-33.09C578.28,-43.17 612.59,-56.5 640.28,-67.26"/>
<polygon fill="#63b8ff" stroke="#63b8ff" points="639.18,-70.59 649.77,-70.95 641.72,-64.07 639.18,-70.59"/>
</g>
</g>
</svg>
