<?xml version="1.0" encoding="UTF-8" standalone="no"?>
<!DOCTYPE svg PUBLIC "-//W3C//DTD SVG 1.1//EN"
 "http://www.w3.org/Graphics/SVG/1.1/DTD/svg11.dtd">
<!-- Generated by graphviz version 2.43.0 (0)
 -->
<!-- Title: AndersonAccel Pages: 1 -->
<svg width="549pt" height="117pt"
 viewBox="0.00 0.00 549.00 116.50" xmlns="http://www.w3.org/2000/svg" xmlns:xlink="http://www.w3.org/1999/xlink">
<g id="graph0" class="graph" transform="scale(1 1) rotate(0) translate(4 112.5)">
<title>AndersonAccel</title>
<!-- Node1 -->
<g id="node1" class="node">
<title>Node1</title>
<g id="a_node1"><a xlink:title=" ">
<polygon fill="#999999" stroke="#666666" points="89,-89.5 0,-89.5 0,-70.5 89,-70.5 89,-89.5"/>
<text text-anchor="middle" x="44.5" y="-77.5" font-family="Helvetica,sans-Serif" font-size="10.00">AndersonAccel</text>
</a>
</g>
</g>
<!-- Node2 -->
<g id="node2" class="node">
<title>Node2</title>
<g id="a_node2"><a xlink:href="classquala_1_1AndersonAccel.html#a727afc7a58d2e44ae7add57e3fa77bc6" target="_top" xlink:title="Get the problem dimension.">
<polygon fill="white" stroke="#666666" points="292,-108.5 263,-108.5 263,-89.5 292,-89.5 292,-108.5"/>
<text text-anchor="middle" x="277.5" y="-96.5" font-family="Helvetica,sans-Serif" font-size="10.00">n</text>
</a>
</g>
</g>
<!-- Node1&#45;&gt;Node2 -->
<g id="edge1" class="edge">
<title>Node1&#45;&gt;Node2</title>
<path fill="none" stroke="#63b8ff" d="M89.22,-83.6C137.67,-87.58 214.05,-93.86 252.58,-97.03"/>
<polygon fill="#63b8ff" stroke="#63b8ff" points="252.56,-100.54 262.82,-97.87 253.14,-93.57 252.56,-100.54"/>
</g>
<!-- Node4 -->
<g id="node4" class="node">
<title>Node4</title>
<g id="a_node4"><a xlink:href="classquala_1_1AndersonAccel.html#abfe51417fbebd259808f86d27f1d7ec5" target="_top" xlink:title="Change the problem dimension.">
<polygon fill="white" stroke="#666666" points="171,-70.5 125,-70.5 125,-51.5 171,-51.5 171,-70.5"/>
<text text-anchor="middle" x="148" y="-58.5" font-family="Helvetica,sans-Serif" font-size="10.00">resize</text>
</a>
</g>
</g>
<!-- Node1&#45;&gt;Node4 -->
<g id="edge3" class="edge">
<title>Node1&#45;&gt;Node4</title>
<path fill="none" stroke="#63b8ff" d="M89.13,-71.83C97.82,-70.21 106.8,-68.53 115.01,-66.99"/>
<polygon fill="#63b8ff" stroke="#63b8ff" points="115.74,-70.41 124.92,-65.13 114.45,-63.53 115.74,-70.41"/>
</g>
<!-- Node3 -->
<g id="node3" class="node">
<title>Node3</title>
<g id="a_node3"><a xlink:href="classquala_1_1LimitedMemoryQR.html#a727afc7a58d2e44ae7add57e3fa77bc6" target="_top" xlink:title=" ">
<polygon fill="white" stroke="#666666" points="539,-107.5 386,-107.5 386,-88.5 539,-88.5 539,-107.5"/>
<text text-anchor="middle" x="462.5" y="-95.5" font-family="Helvetica,sans-Serif" font-size="10.00">quala::LimitedMemoryQR::n</text>
</a>
</g>
</g>
<!-- Node2&#45;&gt;Node3 -->
<g id="edge2" class="edge">
<title>Node2&#45;&gt;Node3</title>
<path fill="none" stroke="#63b8ff" d="M292.25,-98.92C310.26,-98.83 343.31,-98.65 375.46,-98.47"/>
<polygon fill="#63b8ff" stroke="#63b8ff" points="375.86,-101.97 385.85,-98.41 375.83,-94.97 375.86,-101.97"/>
</g>
<!-- Node4&#45;&gt;Node2 -->
<g id="edge4" class="edge">
<title>Node4&#45;&gt;Node2</title>
<path fill="none" stroke="#63b8ff" d="M171.23,-68.57C181.99,-72.16 195.13,-76.43 207,-80 222.22,-84.57 239.45,-89.28 252.95,-92.87"/>
<polygon fill="#63b8ff" stroke="#63b8ff" points="252.3,-96.32 262.86,-95.49 254.08,-89.55 252.3,-96.32"/>
</g>
<!-- Node5 -->
<g id="node5" class="node">
<title>Node5</title>
<g id="a_node5"><a xlink:href="classquala_1_1LimitedMemoryQR.html#ad15543203799d1dccb5a5e1c572e3f02" target="_top" xlink:title="Re&#45;allocate storage for a problem with a different size.">
<polygon fill="white" stroke="#666666" points="348,-71 207,-71 207,-41 348,-41 348,-71"/>
<text text-anchor="start" x="215" y="-59" font-family="Helvetica,sans-Serif" font-size="10.00">quala::LimitedMemoryQR</text>
<text text-anchor="middle" x="277.5" y="-48" font-family="Helvetica,sans-Serif" font-size="10.00">::resize</text>
</a>
</g>
</g>
<!-- Node4&#45;&gt;Node5 -->
<g id="edge5" class="edge">
<title>Node4&#45;&gt;Node5</title>
<path fill="none" stroke="#63b8ff" d="M171.21,-60.13C178.65,-59.84 187.43,-59.49 196.69,-59.13"/>
<polygon fill="#63b8ff" stroke="#63b8ff" points="197.03,-62.62 206.89,-58.73 196.76,-55.62 197.03,-62.62"/>
</g>
<!-- Node5&#45;&gt;Node3 -->
<g id="edge7" class="edge">
<title>Node5&#45;&gt;Node3</title>
<path fill="none" stroke="#63b8ff" d="M344.05,-71.04C365.82,-76.04 389.73,-81.53 410.26,-86.24"/>
<polygon fill="#63b8ff" stroke="#63b8ff" points="409.51,-89.66 420.04,-88.48 411.07,-82.84 409.51,-89.66"/>
</g>
<!-- Node6 -->
<g id="node6" class="node">
<title>Node6</title>
<g id="a_node6"><a xlink:href="classquala_1_1LimitedMemoryQR.html#ac397ae83f5f4dd3d5cf9926f26acfb2d" target="_top" xlink:title=" ">
<polygon fill="white" stroke="#666666" points="541,-67.5 384,-67.5 384,-48.5 541,-48.5 541,-67.5"/>
<text text-anchor="middle" x="462.5" y="-55.5" font-family="Helvetica,sans-Serif" font-size="10.00">quala::LimitedMemoryQR::m</text>
</a>
</g>
</g>
<!-- Node5&#45;&gt;Node6 -->
<g id="edge6" class="edge">
<title>Node5&#45;&gt;Node6</title>
<path fill="none" stroke="#63b8ff" d="M348.21,-56.76C356.56,-56.85 365.16,-56.95 373.72,-57.04"/>
<polygon fill="#63b8ff" stroke="#63b8ff" points="373.7,-60.54 383.74,-57.15 373.78,-53.54 373.7,-60.54"/>
</g>
<!-- Node7 -->
<g id="node7" class="node">
<title>Node7</title>
<g id="a_node7"><a xlink:href="classquala_1_1LimitedMemoryQR.html#ad20897c5c8bd47f5d4005989bead0e55" target="_top" xlink:title="Reset all indices, clearing the Q and R matrices.">
<polygon fill="white" stroke="#666666" points="533,-30 392,-30 392,0 533,0 533,-30"/>
<text text-anchor="start" x="400" y="-18" font-family="Helvetica,sans-Serif" font-size="10.00">quala::LimitedMemoryQR</text>
<text text-anchor="middle" x="462.5" y="-7" font-family="Helvetica,sans-Serif" font-size="10.00">::reset</text>
</a>
</g>
</g>
<!-- Node5&#45;&gt;Node7 -->
<g id="edge8" class="edge">
<title>Node5&#45;&gt;Node7</title>
<path fill="none" stroke="#63b8ff" d="M345.6,-40.97C358.28,-38.12 371.64,-35.13 384.59,-32.23"/>
<polygon fill="#63b8ff" stroke="#63b8ff" points="385.41,-35.63 394.4,-30.03 383.88,-28.8 385.41,-35.63"/>
</g>
</g>
</svg>
