<?xml version="1.0" encoding="UTF-8" standalone="no"?>
<!DOCTYPE svg PUBLIC "-//W3C//DTD SVG 1.1//EN"
 "http://www.w3.org/Graphics/SVG/1.1/DTD/svg11.dtd">
<!-- Generated by graphviz version 2.43.0 (0)
 -->
<!-- Title: begin Pages: 1 -->
<svg width="464pt" height="164pt"
 viewBox="0.00 0.00 464.00 163.50" xmlns="http://www.w3.org/2000/svg" xmlns:xlink="http://www.w3.org/1999/xlink">
<g id="graph0" class="graph" transform="scale(1 1) rotate(0) translate(4 159.5)">
<title>begin</title>
<!-- Node1 -->
<g id="node1" class="node">
<title>Node1</title>
<g id="a_node1"><a xlink:title=" ">
<polygon fill="#999999" stroke="#666666" points="456,-83 412,-83 412,-64 456,-64 456,-83"/>
<text text-anchor="middle" x="434" y="-71" font-family="Helvetica,sans-Serif" font-size="10.00">begin</text>
</a>
</g>
</g>
<!-- Node2 -->
<g id="node2" class="node">
<title>Node2</title>
<g id="a_node2"><a xlink:href="classquala_1_1CircularRange.html#a39112ae08f6ffc7ee58c6aa79772e094" target="_top" xlink:title=" ">
<polygon fill="white" stroke="#666666" points="321.5,-147 272.5,-147 272.5,-128 321.5,-128 321.5,-147"/>
<text text-anchor="middle" x="297" y="-135" font-family="Helvetica,sans-Serif" font-size="10.00">cbegin</text>
</a>
</g>
</g>
<!-- Node1&#45;&gt;Node2 -->
<g id="edge1" class="edge">
<title>Node1&#45;&gt;Node2</title>
<path fill="none" stroke="#63b8ff" d="M414.17,-89.52C403.52,-97.92 389.65,-107.82 376,-114.5 358.63,-123 337.51,-128.99 321.63,-132.72"/>
<polygon fill="#63b8ff" stroke="#63b8ff" points="416.39,-92.23 421.94,-83.2 411.97,-86.8 416.39,-92.23"/>
</g>
<!-- Node4 -->
<g id="node4" class="node">
<title>Node4</title>
<g id="a_node4"><a xlink:href="classquala_1_1CircularRange.html#abef9dfc7607c7e1a3854788ba56a4f34" target="_top" xlink:title=" ">
<polygon fill="white" stroke="#666666" points="319,-105 275,-105 275,-86 319,-86 319,-105"/>
<text text-anchor="middle" x="297" y="-93" font-family="Helvetica,sans-Serif" font-size="10.00">crend</text>
</a>
</g>
</g>
<!-- Node1&#45;&gt;Node4 -->
<g id="edge3" class="edge">
<title>Node1&#45;&gt;Node4</title>
<path fill="none" stroke="#63b8ff" d="M401.73,-78.6C376.46,-82.71 341.57,-88.4 319.39,-92.01"/>
<polygon fill="#63b8ff" stroke="#63b8ff" points="402.6,-82 411.91,-76.94 401.47,-75.09 402.6,-82"/>
</g>
<!-- Node6 -->
<g id="node6" class="node">
<title>Node6</title>
<g id="a_node6"><a xlink:href="classquala_1_1ReverseCircularRange.html#a4da62c698565a7f1bab4a15a86b167e1" target="_top" xlink:title=" ">
<polygon fill="white" stroke="#666666" points="376,-67.5 218,-67.5 218,-37.5 376,-37.5 376,-67.5"/>
<text text-anchor="start" x="226" y="-55.5" font-family="Helvetica,sans-Serif" font-size="10.00">quala::ReverseCircularRange</text>
<text text-anchor="middle" x="297" y="-44.5" font-family="Helvetica,sans-Serif" font-size="10.00">::rbegin</text>
</a>
</g>
</g>
<!-- Node1&#45;&gt;Node6 -->
<g id="edge5" class="edge">
<title>Node1&#45;&gt;Node6</title>
<path fill="none" stroke="#63b8ff" d="M401.81,-68.65C393.93,-67.42 385.12,-66.05 376.04,-64.64"/>
<polygon fill="#63b8ff" stroke="#63b8ff" points="401.49,-72.14 411.91,-70.22 402.56,-65.22 401.49,-72.14"/>
</g>
<!-- Node7 -->
<g id="node7" class="node">
<title>Node7</title>
<g id="a_node7"><a xlink:href="classquala_1_1CircularRange.html#ab3fe1cdacc9a53cc2d0cbe27599036c4" target="_top" xlink:title=" ">
<polygon fill="white" stroke="#666666" points="316,-19 278,-19 278,0 316,0 316,-19"/>
<text text-anchor="middle" x="297" y="-7" font-family="Helvetica,sans-Serif" font-size="10.00">rend</text>
</a>
</g>
</g>
<!-- Node1&#45;&gt;Node7 -->
<g id="edge6" class="edge">
<title>Node1&#45;&gt;Node7</title>
<path fill="none" stroke="#63b8ff" d="M416.04,-56.9C405.35,-47.3 390.81,-35.72 376,-28.5 356.71,-19.09 332.4,-14.13 316.09,-11.67"/>
<polygon fill="#63b8ff" stroke="#63b8ff" points="413.7,-59.5 423.41,-63.75 418.47,-54.38 413.7,-59.5"/>
</g>
<!-- Node3 -->
<g id="node3" class="node">
<title>Node3</title>
<g id="a_node3"><a xlink:href="classquala_1_1ReverseCircularRange.html#a81f80a31923e85af56a7b1ae0712a33b" target="_top" xlink:title=" ">
<polygon fill="white" stroke="#666666" points="170,-155.5 12,-155.5 12,-125.5 170,-125.5 170,-155.5"/>
<text text-anchor="start" x="20" y="-143.5" font-family="Helvetica,sans-Serif" font-size="10.00">quala::ReverseCircularRange</text>
<text text-anchor="middle" x="91" y="-132.5" font-family="Helvetica,sans-Serif" font-size="10.00">::crbegin</text>
</a>
</g>
</g>
<!-- Node2&#45;&gt;Node3 -->
<g id="edge2" class="edge">
<title>Node2&#45;&gt;Node3</title>
<path fill="none" stroke="#63b8ff" d="M262.12,-138C237.08,-138.37 201.94,-138.88 170.09,-139.35"/>
<polygon fill="#63b8ff" stroke="#63b8ff" points="262.25,-141.5 272.2,-137.85 262.15,-134.5 262.25,-141.5"/>
</g>
<!-- Node5 -->
<g id="node5" class="node">
<title>Node5</title>
<g id="a_node5"><a xlink:href="classquala_1_1ReverseCircularRange.html#a93791e61ab486b4022c389d634b4facc" target="_top" xlink:title=" ">
<polygon fill="white" stroke="#666666" points="170,-107.5 12,-107.5 12,-77.5 170,-77.5 170,-107.5"/>
<text text-anchor="start" x="20" y="-95.5" font-family="Helvetica,sans-Serif" font-size="10.00">quala::ReverseCircularRange</text>
<text text-anchor="middle" x="91" y="-84.5" font-family="Helvetica,sans-Serif" font-size="10.00">::cend</text>
</a>
</g>
</g>
<!-- Node4&#45;&gt;Node5 -->
<g id="edge4" class="edge">
<title>Node4&#45;&gt;Node5</title>
<path fill="none" stroke="#63b8ff" d="M264.92,-95.04C239.82,-94.67 203.38,-94.14 170.41,-93.65"/>
<polygon fill="#63b8ff" stroke="#63b8ff" points="264.89,-98.54 274.94,-95.19 264.99,-91.54 264.89,-98.54"/>
</g>
<!-- Node8 -->
<g id="node8" class="node">
<title>Node8</title>
<g id="a_node8"><a xlink:href="classquala_1_1ReverseCircularRange.html#a68b688a51bd0cf6fb5bc2cba292209a8" target="_top" xlink:title=" ">
<polygon fill="white" stroke="#666666" points="182,-19 0,-19 0,0 182,0 182,-19"/>
<text text-anchor="middle" x="91" y="-7" font-family="Helvetica,sans-Serif" font-size="10.00">quala::ReverseCircularRange::end</text>
</a>
</g>
</g>
<!-- Node7&#45;&gt;Node8 -->
<g id="edge7" class="edge">
<title>Node7&#45;&gt;Node8</title>
<path fill="none" stroke="#63b8ff" d="M267.81,-9.5C245.48,-9.5 213.01,-9.5 182.04,-9.5"/>
<polygon fill="#63b8ff" stroke="#63b8ff" points="267.9,-13 277.9,-9.5 267.9,-6 267.9,-13"/>
</g>
</g>
</svg>
