<?xml version="1.0" encoding="UTF-8" standalone="no"?>
<!DOCTYPE svg PUBLIC "-//W3C//DTD SVG 1.1//EN"
 "http://www.w3.org/Graphics/SVG/1.1/DTD/svg11.dtd">
<!-- Generated by graphviz version 2.43.0 (0)
 -->
<!-- Title: kwargs&#45;to&#45;struct.hpp Pages: 1 -->
<svg width="1057pt" height="324pt"
 viewBox="0.00 0.00 1057.00 324.00" xmlns="http://www.w3.org/2000/svg" xmlns:xlink="http://www.w3.org/1999/xlink">
<g id="graph0" class="graph" transform="scale(1 1) rotate(0) translate(4 320)">
<title>kwargs&#45;to&#45;struct.hpp</title>
<!-- Node1 -->
<g id="node1" class="node">
<title>Node1</title>
<g id="a_node1"><a xlink:title="This file defines mappings from Python dicts (kwargs) to simple parameter structs.">
<polygon fill="#999999" stroke="#666666" points="407.5,-316 289.5,-316 289.5,-297 407.5,-297 407.5,-316"/>
<text text-anchor="middle" x="348.5" y="-304" font-family="Helvetica,sans-Serif" font-size="10.00">kwargs&#45;to&#45;struct.hpp</text>
</a>
</g>
</g>
<!-- Node2 -->
<g id="node2" class="node">
<title>Node2</title>
<g id="a_node2"><a xlink:title=" ">
<polygon fill="#e0e0e0" stroke="#999999" points="65,-261 0,-261 0,-242 65,-242 65,-261"/>
<text text-anchor="middle" x="32.5" y="-249" font-family="Helvetica,sans-Serif" font-size="10.00">functional</text>
</a>
</g>
</g>
<!-- Node1&#45;&gt;Node2 -->
<g id="edge1" class="edge">
<title>Node1&#45;&gt;Node2</title>
<path fill="none" stroke="#63b8ff" d="M291.98,-296.97C238.67,-288.78 156.27,-275.75 74.95,-261.02"/>
<polygon fill="#63b8ff" stroke="#63b8ff" points="75.5,-257.56 65.04,-259.21 74.25,-264.45 75.5,-257.56"/>
</g>
<!-- Node3 -->
<g id="node3" class="node">
<title>Node3</title>
<g id="a_node3"><a xlink:title=" ">
<polygon fill="#e0e0e0" stroke="#999999" points="121.5,-261 83.5,-261 83.5,-242 121.5,-242 121.5,-261"/>
<text text-anchor="middle" x="102.5" y="-249" font-family="Helvetica,sans-Serif" font-size="10.00">map</text>
</a>
</g>
</g>
<!-- Node1&#45;&gt;Node3 -->
<g id="edge2" class="edge">
<title>Node1&#45;&gt;Node3</title>
<path fill="none" stroke="#63b8ff" d="M300.15,-296.97C257.94,-289.22 194.88,-276.93 131.48,-261.06"/>
<polygon fill="#63b8ff" stroke="#63b8ff" points="132.27,-257.65 121.71,-258.59 130.55,-264.44 132.27,-257.65"/>
</g>
<!-- Node4 -->
<g id="node4" class="node">
<title>Node4</title>
<g id="a_node4"><a xlink:title=" ">
<polygon fill="#e0e0e0" stroke="#999999" points="191,-261 140,-261 140,-242 191,-242 191,-261"/>
<text text-anchor="middle" x="165.5" y="-249" font-family="Helvetica,sans-Serif" font-size="10.00">variant</text>
</a>
</g>
</g>
<!-- Node1&#45;&gt;Node4 -->
<g id="edge3" class="edge">
<title>Node1&#45;&gt;Node4</title>
<path fill="none" stroke="#63b8ff" d="M319.1,-296.98C286.91,-287.66 235.32,-272.72 200.93,-262.76"/>
<polygon fill="#63b8ff" stroke="#63b8ff" points="201.86,-259.39 191.28,-259.97 199.91,-266.11 201.86,-259.39"/>
</g>
<!-- Node5 -->
<g id="node5" class="node">
<title>Node5</title>
<g id="a_node5"><a xlink:title=" ">
<polygon fill="#e0e0e0" stroke="#999999" points="344,-261 209,-261 209,-242 344,-242 344,-261"/>
<text text-anchor="middle" x="276.5" y="-249" font-family="Helvetica,sans-Serif" font-size="10.00">pybind11/detail/typeid.h</text>
</a>
</g>
</g>
<!-- Node1&#45;&gt;Node5 -->
<g id="edge4" class="edge">
<title>Node1&#45;&gt;Node5</title>
<path fill="none" stroke="#63b8ff" d="M336.93,-296.98C326.08,-289 309.62,-276.88 296.62,-267.31"/>
<polygon fill="#63b8ff" stroke="#63b8ff" points="298.41,-264.28 288.28,-261.17 294.26,-269.92 298.41,-264.28"/>
</g>
<!-- Node6 -->
<g id="node6" class="node">
<title>Node6</title>
<g id="a_node6"><a xlink:title=" ">
<polygon fill="#e0e0e0" stroke="#999999" points="481,-261 362,-261 362,-242 481,-242 481,-261"/>
<text text-anchor="middle" x="421.5" y="-249" font-family="Helvetica,sans-Serif" font-size="10.00">pybind11/pybind11.h</text>
</a>
</g>
</g>
<!-- Node1&#45;&gt;Node6 -->
<g id="edge5" class="edge">
<title>Node1&#45;&gt;Node6</title>
<path fill="none" stroke="#63b8ff" d="M360.23,-296.98C371.23,-289 387.92,-276.88 401.1,-267.31"/>
<polygon fill="#63b8ff" stroke="#63b8ff" points="403.52,-269.88 409.56,-261.17 399.41,-264.21 403.52,-269.88"/>
</g>
<!-- Node7 -->
<g id="node7" class="node">
<title>Node7</title>
<g id="a_node7"><a xlink:href="lbfgs_8hpp.html" target="_top" xlink:title=" ">
<polygon fill="white" stroke="#666666" points="785.5,-261 693.5,-261 693.5,-242 785.5,-242 785.5,-261"/>
<text text-anchor="middle" x="739.5" y="-249" font-family="Helvetica,sans-Serif" font-size="10.00">quala/lbfgs.hpp</text>
</a>
</g>
</g>
<!-- Node1&#45;&gt;Node7 -->
<g id="edge6" class="edge">
<title>Node1&#45;&gt;Node7</title>
<path fill="none" stroke="#63b8ff" d="M407.73,-298.05C472.8,-289.78 580.66,-275.8 683.38,-261.14"/>
<polygon fill="#63b8ff" stroke="#63b8ff" points="683.89,-264.6 693.3,-259.71 682.9,-257.67 683.89,-264.6"/>
</g>
<!-- Node14 -->
<g id="node14" class="node">
<title>Node14</title>
<g id="a_node14"><a xlink:href="anderson-acceleration_8hpp.html" target="_top" xlink:title=" ">
<polygon fill="white" stroke="#666666" points="675.5,-261 499.5,-261 499.5,-242 675.5,-242 675.5,-261"/>
<text text-anchor="middle" x="587.5" y="-249" font-family="Helvetica,sans-Serif" font-size="10.00">quala/anderson&#45;acceleration.hpp</text>
</a>
</g>
</g>
<!-- Node1&#45;&gt;Node14 -->
<g id="edge13" class="edge">
<title>Node1&#45;&gt;Node14</title>
<path fill="none" stroke="#63b8ff" d="M386.9,-296.98C428.24,-287.82 494.1,-273.21 538.99,-263.26"/>
<polygon fill="#63b8ff" stroke="#63b8ff" points="539.79,-266.66 548.8,-261.08 538.28,-259.83 539.79,-266.66"/>
</g>
<!-- Node23 -->
<g id="node23" class="node">
<title>Node23</title>
<g id="a_node23"><a xlink:href="broyden-good_8hpp.html" target="_top" xlink:title=" ">
<polygon fill="white" stroke="#666666" points="1049,-134.5 914,-134.5 914,-115.5 1049,-115.5 1049,-134.5"/>
<text text-anchor="middle" x="981.5" y="-122.5" font-family="Helvetica,sans-Serif" font-size="10.00">quala/broyden&#45;good.hpp</text>
</a>
</g>
</g>
<!-- Node1&#45;&gt;Node23 -->
<g id="edge26" class="edge">
<title>Node1&#45;&gt;Node23</title>
<path fill="none" stroke="#63b8ff" d="M407.54,-303.41C512.06,-299.09 725.19,-287.27 794.5,-261 866.37,-233.75 935.6,-171.47 965.74,-142.01"/>
<polygon fill="#63b8ff" stroke="#63b8ff" points="968.54,-144.15 973.17,-134.62 963.61,-139.19 968.54,-144.15"/>
</g>
<!-- Node8 -->
<g id="node8" class="node">
<title>Node8</title>
<g id="a_node8"><a xlink:href="decl_2lbfgs_8hpp.html" target="_top" xlink:title=" ">
<polygon fill="white" stroke="#666666" points="847,-200.5 732,-200.5 732,-181.5 847,-181.5 847,-200.5"/>
<text text-anchor="middle" x="789.5" y="-188.5" font-family="Helvetica,sans-Serif" font-size="10.00">quala/decl/lbfgs.hpp</text>
</a>
</g>
</g>
<!-- Node7&#45;&gt;Node8 -->
<g id="edge7" class="edge">
<title>Node7&#45;&gt;Node8</title>
<path fill="none" stroke="#63b8ff" d="M746.88,-241.87C754.41,-233.05 766.29,-219.16 775.59,-208.27"/>
<polygon fill="#63b8ff" stroke="#63b8ff" points="778.26,-210.54 782.09,-200.67 772.93,-206 778.26,-210.54"/>
</g>
<!-- Node12 -->
<g id="node12" class="node">
<title>Node12</title>
<g id="a_node12"><a xlink:title=" ">
<polygon fill="#e0e0e0" stroke="#999999" points="665,-200.5 600,-200.5 600,-181.5 665,-181.5 665,-200.5"/>
<text text-anchor="middle" x="632.5" y="-188.5" font-family="Helvetica,sans-Serif" font-size="10.00">stdexcept</text>
</a>
</g>
</g>
<!-- Node7&#45;&gt;Node12 -->
<g id="edge11" class="edge">
<title>Node7&#45;&gt;Node12</title>
<path fill="none" stroke="#63b8ff" d="M723.71,-241.87C706.17,-232.28 677.62,-216.67 657.13,-205.47"/>
<polygon fill="#63b8ff" stroke="#63b8ff" points="658.81,-202.39 648.35,-200.67 655.45,-208.54 658.81,-202.39"/>
</g>
<!-- Node13 -->
<g id="node13" class="node">
<title>Node13</title>
<g id="a_node13"><a xlink:title=" ">
<polygon fill="#e0e0e0" stroke="#999999" points="728,-74 659,-74 659,-55 728,-55 728,-74"/>
<text text-anchor="middle" x="693.5" y="-62" font-family="Helvetica,sans-Serif" font-size="10.00">type_traits</text>
</a>
</g>
</g>
<!-- Node7&#45;&gt;Node13 -->
<g id="edge12" class="edge">
<title>Node7&#45;&gt;Node13</title>
<path fill="none" stroke="#63b8ff" d="M735.69,-241.78C731.92,-232.91 726.21,-218.7 722.5,-206 709.97,-163.12 700.76,-111.35 696.37,-84.2"/>
<polygon fill="#63b8ff" stroke="#63b8ff" points="699.81,-83.5 694.79,-74.17 692.89,-84.59 699.81,-83.5"/>
</g>
<!-- Node9 -->
<g id="node9" class="node">
<title>Node9</title>
<g id="a_node9"><a xlink:href="lbfgs-fwd_8hpp.html" target="_top" xlink:title=" ">
<polygon fill="white" stroke="#666666" points="857.5,-134.5 721.5,-134.5 721.5,-115.5 857.5,-115.5 857.5,-134.5"/>
<text text-anchor="middle" x="789.5" y="-122.5" font-family="Helvetica,sans-Serif" font-size="10.00">quala/decl/lbfgs&#45;fwd.hpp</text>
</a>
</g>
</g>
<!-- Node8&#45;&gt;Node9 -->
<g id="edge8" class="edge">
<title>Node8&#45;&gt;Node9</title>
<path fill="none" stroke="#63b8ff" d="M789.5,-181.37C789.5,-172.16 789.5,-157.29 789.5,-145.27"/>
<polygon fill="#63b8ff" stroke="#63b8ff" points="793,-144.91 789.5,-134.91 786,-144.91 793,-144.91"/>
</g>
<!-- Node10 -->
<g id="node10" class="node">
<title>Node10</title>
<g id="a_node10"><a xlink:href="vec_8hpp.html" target="_top" xlink:title=" ">
<polygon fill="white" stroke="#666666" points="937.5,-74 833.5,-74 833.5,-55 937.5,-55 937.5,-74"/>
<text text-anchor="middle" x="885.5" y="-62" font-family="Helvetica,sans-Serif" font-size="10.00">quala/util/vec.hpp</text>
</a>
</g>
</g>
<!-- Node8&#45;&gt;Node10 -->
<g id="edge9" class="edge">
<title>Node8&#45;&gt;Node10</title>
<path fill="none" stroke="#63b8ff" d="M811,-181.37C828.52,-173.25 852.56,-159.43 866.5,-140 878.27,-123.59 882.76,-100.56 884.47,-84.46"/>
<polygon fill="#63b8ff" stroke="#63b8ff" points="887.99,-84.41 885.29,-74.16 881.01,-83.85 887.99,-84.41"/>
</g>
<!-- Node11 -->
<g id="node11" class="node">
<title>Node11</title>
<g id="a_node11"><a xlink:title=" ">
<polygon fill="#e0e0e0" stroke="#999999" points="920,-19 851,-19 851,0 920,0 920,-19"/>
<text text-anchor="middle" x="885.5" y="-7" font-family="Helvetica,sans-Serif" font-size="10.00">Eigen/Core</text>
</a>
</g>
</g>
<!-- Node10&#45;&gt;Node11 -->
<g id="edge10" class="edge">
<title>Node10&#45;&gt;Node11</title>
<path fill="none" stroke="#63b8ff" d="M885.5,-54.75C885.5,-47.8 885.5,-37.85 885.5,-29.13"/>
<polygon fill="#63b8ff" stroke="#63b8ff" points="889,-29.09 885.5,-19.09 882,-29.09 889,-29.09"/>
</g>
<!-- Node14&#45;&gt;Node12 -->
<g id="edge25" class="edge">
<title>Node14&#45;&gt;Node12</title>
<path fill="none" stroke="#63b8ff" d="M594.14,-241.87C600.79,-233.23 611.19,-219.7 619.49,-208.92"/>
<polygon fill="#63b8ff" stroke="#63b8ff" points="622.51,-210.73 625.83,-200.67 616.96,-206.46 622.51,-210.73"/>
</g>
<!-- Node15 -->
<g id="node15" class="node">
<title>Node15</title>
<g id="a_node15"><a xlink:href="anderson-helpers_8hpp.html" target="_top" xlink:title=" ">
<polygon fill="white" stroke="#666666" points="581.5,-206 459.5,-206 459.5,-176 581.5,-176 581.5,-206"/>
<text text-anchor="start" x="467.5" y="-194" font-family="Helvetica,sans-Serif" font-size="10.00">quala/detail/anderson</text>
<text text-anchor="middle" x="520.5" y="-183" font-family="Helvetica,sans-Serif" font-size="10.00">&#45;helpers.hpp</text>
</a>
</g>
</g>
<!-- Node14&#45;&gt;Node15 -->
<g id="edge14" class="edge">
<title>Node14&#45;&gt;Node15</title>
<path fill="none" stroke="#63b8ff" d="M577.61,-241.87C568.86,-234.22 555.73,-222.76 544.26,-212.75"/>
<polygon fill="#63b8ff" stroke="#63b8ff" points="546.5,-210.06 536.67,-206.11 541.9,-215.33 546.5,-210.06"/>
</g>
<!-- Node16 -->
<g id="node16" class="node">
<title>Node16</title>
<g id="a_node16"><a xlink:href="limited-memory-qr_8hpp.html" target="_top" xlink:title=" ">
<polygon fill="white" stroke="#666666" points="617.5,-140 505.5,-140 505.5,-110 617.5,-110 617.5,-140"/>
<text text-anchor="start" x="513.5" y="-128" font-family="Helvetica,sans-Serif" font-size="10.00">quala/detail/limited</text>
<text text-anchor="middle" x="561.5" y="-117" font-family="Helvetica,sans-Serif" font-size="10.00">&#45;memory&#45;qr.hpp</text>
</a>
</g>
</g>
<!-- Node15&#45;&gt;Node16 -->
<g id="edge15" class="edge">
<title>Node15&#45;&gt;Node16</title>
<path fill="none" stroke="#63b8ff" d="M529.6,-175.8C534.7,-167.84 541.17,-157.74 546.95,-148.71"/>
<polygon fill="#63b8ff" stroke="#63b8ff" points="549.98,-150.47 552.43,-140.16 544.08,-146.7 549.98,-150.47"/>
</g>
<!-- Node16&#45;&gt;Node10 -->
<g id="edge23" class="edge">
<title>Node16&#45;&gt;Node10</title>
<path fill="none" stroke="#63b8ff" d="M617.57,-113.88C676.55,-103.23 768.9,-86.55 828.3,-75.83"/>
<polygon fill="#63b8ff" stroke="#63b8ff" points="829.05,-79.25 838.27,-74.03 827.81,-72.36 829.05,-79.25"/>
</g>
<!-- Node16&#45;&gt;Node13 -->
<g id="edge24" class="edge">
<title>Node16&#45;&gt;Node13</title>
<path fill="none" stroke="#63b8ff" d="M593.12,-109.99C614.85,-100.36 643.47,-87.67 664.59,-78.31"/>
<polygon fill="#63b8ff" stroke="#63b8ff" points="666.28,-81.39 674.01,-74.14 663.45,-74.99 666.28,-81.39"/>
</g>
<!-- Node17 -->
<g id="node17" class="node">
<title>Node17</title>
<g id="a_node17"><a xlink:title=" ">
<polygon fill="#e0e0e0" stroke="#999999" points="640.5,-74 564.5,-74 564.5,-55 640.5,-55 640.5,-74"/>
<text text-anchor="middle" x="602.5" y="-62" font-family="Helvetica,sans-Serif" font-size="10.00">Eigen/Jacobi</text>
</a>
</g>
</g>
<!-- Node16&#45;&gt;Node17 -->
<g id="edge16" class="edge">
<title>Node16&#45;&gt;Node17</title>
<path fill="none" stroke="#63b8ff" d="M571.42,-109.84C577.19,-101.61 584.5,-91.18 590.58,-82.51"/>
<polygon fill="#63b8ff" stroke="#63b8ff" points="593.48,-84.46 596.36,-74.27 587.75,-80.45 593.48,-84.46"/>
</g>
<!-- Node18 -->
<g id="node18" class="node">
<title>Node18</title>
<g id="a_node18"><a xlink:title=" ">
<polygon fill="#e0e0e0" stroke="#999999" points="411,-19 358,-19 358,0 411,0 411,-19"/>
<text text-anchor="middle" x="384.5" y="-7" font-family="Helvetica,sans-Serif" font-size="10.00">cstddef</text>
</a>
</g>
</g>
<!-- Node16&#45;&gt;Node18 -->
<g id="edge17" class="edge">
<title>Node16&#45;&gt;Node18</title>
<path fill="none" stroke="#63b8ff" d="M505.34,-119.29C471.63,-113.61 430.24,-101.17 403.5,-74 391.78,-62.09 387.24,-43.27 385.51,-29.2"/>
<polygon fill="#63b8ff" stroke="#63b8ff" points="388.99,-28.82 384.64,-19.16 382.02,-29.43 388.99,-28.82"/>
</g>
<!-- Node19 -->
<g id="node19" class="node">
<title>Node19</title>
<g id="a_node19"><a xlink:href="ringbuffer_8hpp.html" target="_top" xlink:title=" ">
<polygon fill="white" stroke="#666666" points="546,-74 413,-74 413,-55 546,-55 546,-74"/>
<text text-anchor="middle" x="479.5" y="-62" font-family="Helvetica,sans-Serif" font-size="10.00">quala/util/ringbuffer.hpp</text>
</a>
</g>
</g>
<!-- Node16&#45;&gt;Node19 -->
<g id="edge18" class="edge">
<title>Node16&#45;&gt;Node19</title>
<path fill="none" stroke="#63b8ff" d="M541.65,-109.84C529.02,-100.83 512.7,-89.18 499.95,-80.09"/>
<polygon fill="#63b8ff" stroke="#63b8ff" points="501.96,-77.22 491.79,-74.27 497.9,-82.92 501.96,-77.22"/>
</g>
<!-- Node19&#45;&gt;Node18 -->
<g id="edge20" class="edge">
<title>Node19&#45;&gt;Node18</title>
<path fill="none" stroke="#63b8ff" d="M464.24,-54.98C449.37,-46.69 426.52,-33.94 409.08,-24.22"/>
<polygon fill="#63b8ff" stroke="#63b8ff" points="410.48,-20.99 400.04,-19.17 407.07,-27.1 410.48,-20.99"/>
</g>
<!-- Node20 -->
<g id="node20" class="node">
<title>Node20</title>
<g id="a_node20"><a xlink:title=" ">
<polygon fill="#e0e0e0" stroke="#999999" points="629.5,-19 565.5,-19 565.5,0 629.5,0 629.5,-19"/>
<text text-anchor="middle" x="597.5" y="-7" font-family="Helvetica,sans-Serif" font-size="10.00">algorithm</text>
</a>
</g>
</g>
<!-- Node19&#45;&gt;Node20 -->
<g id="edge19" class="edge">
<title>Node19&#45;&gt;Node20</title>
<path fill="none" stroke="#63b8ff" d="M498.46,-54.98C517.53,-46.42 547.16,-33.11 569.05,-23.28"/>
<polygon fill="#63b8ff" stroke="#63b8ff" points="570.51,-26.46 578.2,-19.17 567.64,-20.07 570.51,-26.46"/>
</g>
<!-- Node21 -->
<g id="node21" class="node">
<title>Node21</title>
<g id="a_node21"><a xlink:title=" ">
<polygon fill="#e0e0e0" stroke="#999999" points="482,-19 429,-19 429,0 482,0 482,-19"/>
<text text-anchor="middle" x="455.5" y="-7" font-family="Helvetica,sans-Serif" font-size="10.00">iterator</text>
</a>
</g>
</g>
<!-- Node19&#45;&gt;Node21 -->
<g id="edge21" class="edge">
<title>Node19&#45;&gt;Node21</title>
<path fill="none" stroke="#63b8ff" d="M475.54,-54.75C472.29,-47.57 467.58,-37.18 463.55,-28.27"/>
<polygon fill="#63b8ff" stroke="#63b8ff" points="466.7,-26.75 459.39,-19.09 460.33,-29.64 466.7,-26.75"/>
</g>
<!-- Node22 -->
<g id="node22" class="node">
<title>Node22</title>
<g id="a_node22"><a xlink:title=" ">
<polygon fill="#e0e0e0" stroke="#999999" points="547,-19 500,-19 500,0 547,0 547,-19"/>
<text text-anchor="middle" x="523.5" y="-7" font-family="Helvetica,sans-Serif" font-size="10.00">vector</text>
</a>
</g>
</g>
<!-- Node19&#45;&gt;Node22 -->
<g id="edge22" class="edge">
<title>Node19&#45;&gt;Node22</title>
<path fill="none" stroke="#63b8ff" d="M486.77,-54.75C493.04,-47.18 502.29,-36.05 509.93,-26.84"/>
<polygon fill="#63b8ff" stroke="#63b8ff" points="512.67,-29.02 516.37,-19.09 507.29,-24.55 512.67,-29.02"/>
</g>
<!-- Node23&#45;&gt;Node10 -->
<g id="edge27" class="edge">
<title>Node23&#45;&gt;Node10</title>
<path fill="none" stroke="#63b8ff" d="M967.33,-115.37C951.81,-105.91 926.67,-90.59 908.35,-79.42"/>
<polygon fill="#63b8ff" stroke="#63b8ff" points="910.08,-76.38 899.72,-74.17 906.44,-82.36 910.08,-76.38"/>
</g>
</g>
</svg>
