<?xml version="1.0" encoding="UTF-8" standalone="no"?>
<!DOCTYPE svg PUBLIC "-//W3C//DTD SVG 1.1//EN"
 "http://www.w3.org/Graphics/SVG/1.1/DTD/svg11.dtd">
<!-- Generated by graphviz version 2.43.0 (0)
 -->
<!-- Title: minimize_update_anderson Pages: 1 -->
<svg width="884pt" height="316pt"
 viewBox="0.00 0.00 884.00 316.29" xmlns="http://www.w3.org/2000/svg" xmlns:xlink="http://www.w3.org/1999/xlink">
<g id="graph0" class="graph" transform="scale(1 1) rotate(0) translate(4 312.29)">
<title>minimize_update_anderson</title>
<!-- Node1 -->
<g id="node1" class="node">
<title>Node1</title>
<g id="a_node1"><a xlink:title="Solve one step of Anderson acceleration to find a fixed point of a function g(x):">
<polygon fill="#999999" stroke="#666666" points="152,-158.5 0,-158.5 0,-139.5 152,-139.5 152,-158.5"/>
<text text-anchor="middle" x="76" y="-146.5" font-family="Helvetica,sans-Serif" font-size="10.00">minimize_update_anderson</text>
</a>
</g>
</g>
<!-- Node2 -->
<g id="node2" class="node">
<title>Node2</title>
<g id="a_node2"><a xlink:href="classquala_1_1LimitedMemoryQR.html#a5e3077223e98c1e4e286e01503f220d5" target="_top" xlink:title="Add the given column to the right.">
<polygon fill="white" stroke="#666666" points="329,-260 188,-260 188,-230 329,-230 329,-260"/>
<text text-anchor="start" x="196" y="-248" font-family="Helvetica,sans-Serif" font-size="10.00">quala::LimitedMemoryQR</text>
<text text-anchor="middle" x="258.5" y="-237" font-family="Helvetica,sans-Serif" font-size="10.00">::add_column</text>
</a>
</g>
</g>
<!-- Node1&#45;&gt;Node2 -->
<g id="edge1" class="edge">
<title>Node1&#45;&gt;Node2</title>
<path fill="none" stroke="#63b8ff" d="M89.71,-158.73C109.73,-173.69 150.22,-202.57 188,-221 191.74,-222.83 195.66,-224.58 199.65,-226.24"/>
<polygon fill="#63b8ff" stroke="#63b8ff" points="198.44,-229.53 209.03,-229.96 201.02,-223.02 198.44,-229.53"/>
</g>
<!-- Node3 -->
<g id="node3" class="node">
<title>Node3</title>
<g id="a_node3"><a xlink:href="classquala_1_1LimitedMemoryQR.html#ac397ae83f5f4dd3d5cf9926f26acfb2d" target="_top" xlink:title=" ">
<polygon fill="white" stroke="#666666" points="876,-233.5 719,-233.5 719,-214.5 876,-214.5 876,-233.5"/>
<text text-anchor="middle" x="797.5" y="-221.5" font-family="Helvetica,sans-Serif" font-size="10.00">quala::LimitedMemoryQR::m</text>
</a>
</g>
</g>
<!-- Node1&#45;&gt;Node3 -->
<g id="edge5" class="edge">
<title>Node1&#45;&gt;Node3</title>
<path fill="none" stroke="#63b8ff" d="M82.11,-158.62C95.58,-182.76 134.69,-245.69 188,-269 390.72,-357.63 667.69,-271.69 762.82,-237.03"/>
<polygon fill="#63b8ff" stroke="#63b8ff" points="764.06,-240.31 772.22,-233.56 761.63,-233.74 764.06,-240.31"/>
</g>
<!-- Node5 -->
<g id="node5" class="node">
<title>Node5</title>
<g id="a_node5"><a xlink:href="classquala_1_1LimitedMemoryQR.html#a24829df3eaf3f15bd3c677781348b14d" target="_top" xlink:title="Get the number of columns that are currently stored.">
<polygon fill="white" stroke="#666666" points="329,-212 188,-212 188,-182 329,-182 329,-212"/>
<text text-anchor="start" x="196" y="-200" font-family="Helvetica,sans-Serif" font-size="10.00">quala::LimitedMemoryQR</text>
<text text-anchor="middle" x="258.5" y="-189" font-family="Helvetica,sans-Serif" font-size="10.00">::num_columns</text>
</a>
</g>
</g>
<!-- Node1&#45;&gt;Node5 -->
<g id="edge6" class="edge">
<title>Node1&#45;&gt;Node5</title>
<path fill="none" stroke="#63b8ff" d="M113.09,-158.6C135.35,-164.52 164.59,-172.29 190.92,-179.3"/>
<polygon fill="#63b8ff" stroke="#63b8ff" points="190.29,-182.75 200.86,-181.94 192.09,-175.98 190.29,-182.75"/>
</g>
<!-- Node6 -->
<g id="node6" class="node">
<title>Node6</title>
<g id="a_node6"><a xlink:href="classquala_1_1LimitedMemoryQR.html#a436c4dbbf0476354ca67a104bc005e55" target="_top" xlink:title="Remove the leftmost column.">
<polygon fill="white" stroke="#666666" points="329,-164 188,-164 188,-134 329,-134 329,-164"/>
<text text-anchor="start" x="196" y="-152" font-family="Helvetica,sans-Serif" font-size="10.00">quala::LimitedMemoryQR</text>
<text text-anchor="middle" x="258.5" y="-141" font-family="Helvetica,sans-Serif" font-size="10.00">::remove_column</text>
</a>
</g>
</g>
<!-- Node1&#45;&gt;Node6 -->
<g id="edge7" class="edge">
<title>Node1&#45;&gt;Node6</title>
<path fill="none" stroke="#63b8ff" d="M152.24,-149C160.63,-149 169.2,-149 177.64,-149"/>
<polygon fill="#63b8ff" stroke="#63b8ff" points="177.86,-152.5 187.86,-149 177.86,-145.5 177.86,-152.5"/>
</g>
<!-- Node7 -->
<g id="node7" class="node">
<title>Node7</title>
<g id="a_node7"><a xlink:href="classquala_1_1LimitedMemoryQR.html#a0bf0ad441ec87440e4525e75de00d053" target="_top" xlink:title="Get iterators in the circular buffer.">
<polygon fill="white" stroke="#666666" points="683,-101 542,-101 542,-71 683,-71 683,-101"/>
<text text-anchor="start" x="550" y="-89" font-family="Helvetica,sans-Serif" font-size="10.00">quala::LimitedMemoryQR</text>
<text text-anchor="middle" x="612.5" y="-78" font-family="Helvetica,sans-Serif" font-size="10.00">::ring_iter</text>
</a>
</g>
</g>
<!-- Node1&#45;&gt;Node7 -->
<g id="edge9" class="edge">
<title>Node1&#45;&gt;Node7</title>
<path fill="none" stroke="#63b8ff" d="M115.57,-139.46C136.82,-134.5 163.74,-128.73 188,-125 307.04,-106.72 446.32,-95.9 531.72,-90.46"/>
<polygon fill="#63b8ff" stroke="#63b8ff" points="532.1,-93.94 541.86,-89.82 531.66,-86.95 532.1,-93.94"/>
</g>
<!-- Node8 -->
<g id="node8" class="node">
<title>Node8</title>
<g id="a_node8"><a xlink:href="classquala_1_1LimitedMemoryQR.html#a8a153a1f58e5c5879095a4c3799b6f49" target="_top" xlink:title="Get the tail index of the circular buffer (points to one past the most recent element).">
<polygon fill="white" stroke="#666666" points="329,-78 188,-78 188,-48 329,-48 329,-78"/>
<text text-anchor="start" x="196" y="-66" font-family="Helvetica,sans-Serif" font-size="10.00">quala::LimitedMemoryQR</text>
<text text-anchor="middle" x="258.5" y="-55" font-family="Helvetica,sans-Serif" font-size="10.00">::ring_tail</text>
</a>
</g>
</g>
<!-- Node1&#45;&gt;Node8 -->
<g id="edge11" class="edge">
<title>Node1&#45;&gt;Node8</title>
<path fill="none" stroke="#63b8ff" d="M94.47,-139.48C116.16,-127.8 154.4,-107.61 188,-92 195.17,-88.67 202.83,-85.29 210.35,-82.08"/>
<polygon fill="#63b8ff" stroke="#63b8ff" points="211.9,-85.23 219.75,-78.11 209.18,-78.78 211.9,-85.23"/>
</g>
<!-- Node9 -->
<g id="node9" class="node">
<title>Node9</title>
<g id="a_node9"><a xlink:href="classquala_1_1LimitedMemoryQR.html#a7a60dfe0a5f68bc1efec69e406a2b619" target="_top" xlink:title="Solve the least squares problem Ax = b.">
<polygon fill="white" stroke="#666666" points="329,-30 188,-30 188,0 329,0 329,-30"/>
<text text-anchor="start" x="196" y="-18" font-family="Helvetica,sans-Serif" font-size="10.00">quala::LimitedMemoryQR</text>
<text text-anchor="middle" x="258.5" y="-7" font-family="Helvetica,sans-Serif" font-size="10.00">::solve_col</text>
</a>
</g>
</g>
<!-- Node1&#45;&gt;Node9 -->
<g id="edge12" class="edge">
<title>Node1&#45;&gt;Node9</title>
<path fill="none" stroke="#63b8ff" d="M84.24,-139.31C100.51,-118.17 142.16,-67.53 188,-39 190.62,-37.37 193.37,-35.83 196.2,-34.38"/>
<polygon fill="#63b8ff" stroke="#63b8ff" points="197.87,-37.46 205.44,-30.06 194.9,-31.12 197.87,-37.46"/>
</g>
<!-- Node2&#45;&gt;Node3 -->
<g id="edge2" class="edge">
<title>Node2&#45;&gt;Node3</title>
<path fill="none" stroke="#63b8ff" d="M329.15,-242.28C426.34,-238.48 602.59,-231.58 708.67,-227.43"/>
<polygon fill="#63b8ff" stroke="#63b8ff" points="708.85,-230.93 718.71,-227.04 708.58,-223.94 708.85,-230.93"/>
</g>
<!-- Node4 -->
<g id="node4" class="node">
<title>Node4</title>
<g id="a_node4"><a xlink:href="classquala_1_1LimitedMemoryQR.html#a9f68bead8c70041aacb90dd175150dc4" target="_top" xlink:title="Get the next index in the circular storage for R.">
<polygon fill="white" stroke="#666666" points="506,-217 365,-217 365,-187 506,-187 506,-217"/>
<text text-anchor="start" x="373" y="-205" font-family="Helvetica,sans-Serif" font-size="10.00">quala::LimitedMemoryQR</text>
<text text-anchor="middle" x="435.5" y="-194" font-family="Helvetica,sans-Serif" font-size="10.00">::r_succ</text>
</a>
</g>
</g>
<!-- Node2&#45;&gt;Node4 -->
<g id="edge3" class="edge">
<title>Node2&#45;&gt;Node4</title>
<path fill="none" stroke="#63b8ff" d="M320.71,-229.96C334.56,-226.56 349.38,-222.91 363.6,-219.42"/>
<polygon fill="#63b8ff" stroke="#63b8ff" points="364.45,-222.82 373.33,-217.03 362.78,-216.02 364.45,-222.82"/>
</g>
<!-- Node4&#45;&gt;Node3 -->
<g id="edge4" class="edge">
<title>Node4&#45;&gt;Node3</title>
<path fill="none" stroke="#63b8ff" d="M506.34,-206.27C564.06,-209.8 646.33,-214.82 708.54,-218.62"/>
<polygon fill="#63b8ff" stroke="#63b8ff" points="708.54,-222.13 718.74,-219.25 708.97,-215.14 708.54,-222.13"/>
</g>
<!-- Node6&#45;&gt;Node4 -->
<g id="edge8" class="edge">
<title>Node6&#45;&gt;Node4</title>
<path fill="none" stroke="#63b8ff" d="M309.18,-164.05C329.69,-170.26 353.62,-177.51 375.05,-183.99"/>
<polygon fill="#63b8ff" stroke="#63b8ff" points="374.11,-187.37 384.7,-186.92 376.14,-180.67 374.11,-187.37"/>
</g>
<!-- Node7&#45;&gt;Node3 -->
<g id="edge10" class="edge">
<title>Node7&#45;&gt;Node3</title>
<path fill="none" stroke="#63b8ff" d="M633.43,-101.03C668.28,-127.31 739.93,-181.34 775.5,-208.17"/>
<polygon fill="#63b8ff" stroke="#63b8ff" points="773.64,-211.14 783.73,-214.37 777.85,-205.55 773.64,-211.14"/>
</g>
<!-- Node9&#45;&gt;Node7 -->
<g id="edge13" class="edge">
<title>Node9&#45;&gt;Node7</title>
<path fill="none" stroke="#63b8ff" d="M315.16,-30.07C331.19,-34.18 348.74,-38.47 365,-42 420.43,-54.02 483.38,-65.22 531.8,-73.31"/>
<polygon fill="#63b8ff" stroke="#63b8ff" points="531.46,-76.8 541.9,-74.99 532.61,-69.9 531.46,-76.8"/>
</g>
<!-- Node10 -->
<g id="node10" class="node">
<title>Node10</title>
<g id="a_node10"><a xlink:href="classquala_1_1LimitedMemoryQR.html#ae8160acf26958eb65aa5c0743dd2826d" target="_top" xlink:title="Get reverse iterators in the circular buffer.">
<polygon fill="white" stroke="#666666" points="506,-33 365,-33 365,-3 506,-3 506,-33"/>
<text text-anchor="start" x="373" y="-21" font-family="Helvetica,sans-Serif" font-size="10.00">quala::LimitedMemoryQR</text>
<text text-anchor="middle" x="435.5" y="-10" font-family="Helvetica,sans-Serif" font-size="10.00">::ring_reverse_iter</text>
</a>
</g>
</g>
<!-- Node9&#45;&gt;Node10 -->
<g id="edge14" class="edge">
<title>Node9&#45;&gt;Node10</title>
<path fill="none" stroke="#63b8ff" d="M329.17,-16.19C337.5,-16.34 346.06,-16.48 354.53,-16.63"/>
<polygon fill="#63b8ff" stroke="#63b8ff" points="354.73,-20.13 364.79,-16.8 354.85,-13.13 354.73,-20.13"/>
</g>
<!-- Node10&#45;&gt;Node7 -->
<g id="edge15" class="edge">
<title>Node10&#45;&gt;Node7</title>
<path fill="none" stroke="#63b8ff" d="M475.34,-33.09C501.28,-43.17 535.59,-56.5 563.28,-67.26"/>
<polygon fill="#63b8ff" stroke="#63b8ff" points="562.18,-70.59 572.77,-70.95 564.72,-64.07 562.18,-70.59"/>
</g>
</g>
</svg>
