<?xml version="1.0" encoding="UTF-8" standalone="no"?>
<!DOCTYPE svg PUBLIC "-//W3C//DTD SVG 1.1//EN"
 "http://www.w3.org/Graphics/SVG/1.1/DTD/svg11.dtd">
<!-- Generated by graphviz version 2.43.0 (0)
 -->
<!-- Title: quala.py.cpp Pages: 1 -->
<svg width="1791pt" height="379pt"
 viewBox="0.00 0.00 1790.50 379.00" xmlns="http://www.w3.org/2000/svg" xmlns:xlink="http://www.w3.org/1999/xlink">
<g id="graph0" class="graph" transform="scale(1 1) rotate(0) translate(4 375)">
<title>quala.py.cpp</title>
<!-- Node1 -->
<g id="node1" class="node">
<title>Node1</title>
<g id="a_node1"><a xlink:title="This file defines all Python bindings.">
<polygon fill="#999999" stroke="#666666" points="1128.5,-371 1051.5,-371 1051.5,-352 1128.5,-352 1128.5,-371"/>
<text text-anchor="middle" x="1090" y="-359" font-family="Helvetica,sans-Serif" font-size="10.00">quala.py.cpp</text>
</a>
</g>
</g>
<!-- Node2 -->
<g id="node2" class="node">
<title>Node2</title>
<g id="a_node2"><a xlink:title=" ">
<polygon fill="#e0e0e0" stroke="#999999" points="90,-316 0,-316 0,-297 90,-297 90,-316"/>
<text text-anchor="middle" x="45" y="-304" font-family="Helvetica,sans-Serif" font-size="10.00">pybind11/attr.h</text>
</a>
</g>
</g>
<!-- Node1&#45;&gt;Node2 -->
<g id="edge1" class="edge">
<title>Node1&#45;&gt;Node2</title>
<path fill="none" stroke="#63b8ff" d="M1051.17,-360.31C919.25,-359.32 476.15,-353.34 100.02,-315.97"/>
<polygon fill="#63b8ff" stroke="#63b8ff" points="100.33,-312.49 90.03,-314.97 99.63,-319.45 100.33,-312.49"/>
</g>
<!-- Node3 -->
<g id="node3" class="node">
<title>Node3</title>
<g id="a_node3"><a xlink:title=" ">
<polygon fill="#e0e0e0" stroke="#999999" points="202,-316 108,-316 108,-297 202,-297 202,-316"/>
<text text-anchor="middle" x="155" y="-304" font-family="Helvetica,sans-Serif" font-size="10.00">pybind11/cast.h</text>
</a>
</g>
</g>
<!-- Node1&#45;&gt;Node3 -->
<g id="edge2" class="edge">
<title>Node1&#45;&gt;Node3</title>
<path fill="none" stroke="#63b8ff" d="M1051.34,-359.92C929.55,-357.81 542.86,-348.88 212.27,-316.01"/>
<polygon fill="#63b8ff" stroke="#63b8ff" points="212.31,-312.5 202.01,-314.98 211.61,-319.47 212.31,-312.5"/>
</g>
<!-- Node4 -->
<g id="node4" class="node">
<title>Node4</title>
<g id="a_node4"><a xlink:title=" ">
<polygon fill="#e0e0e0" stroke="#999999" points="327.5,-316 220.5,-316 220.5,-297 327.5,-297 327.5,-316"/>
<text text-anchor="middle" x="274" y="-304" font-family="Helvetica,sans-Serif" font-size="10.00">pybind11/chrono.h</text>
</a>
</g>
</g>
<!-- Node1&#45;&gt;Node4 -->
<g id="edge3" class="edge">
<title>Node1&#45;&gt;Node4</title>
<path fill="none" stroke="#63b8ff" d="M1051.47,-359.28C941.65,-355.57 617.46,-343.08 338.08,-316.13"/>
<polygon fill="#63b8ff" stroke="#63b8ff" points="338.03,-312.61 327.74,-315.13 337.35,-319.58 338.03,-312.61"/>
</g>
<!-- Node5 -->
<g id="node5" class="node">
<title>Node5</title>
<g id="a_node5"><a xlink:title=" ">
<polygon fill="#e0e0e0" stroke="#999999" points="492.5,-316 345.5,-316 345.5,-297 492.5,-297 492.5,-316"/>
<text text-anchor="middle" x="419" y="-304" font-family="Helvetica,sans-Serif" font-size="10.00">pybind11/detail/common.h</text>
</a>
</g>
</g>
<!-- Node1&#45;&gt;Node5 -->
<g id="edge4" class="edge">
<title>Node1&#45;&gt;Node5</title>
<path fill="none" stroke="#63b8ff" d="M1051.38,-357.96C958.69,-351.77 716.08,-335.11 502.88,-316.15"/>
<polygon fill="#63b8ff" stroke="#63b8ff" points="503.02,-312.65 492.75,-315.24 502.4,-319.62 503.02,-312.65"/>
</g>
<!-- Node6 -->
<g id="node6" class="node">
<title>Node6</title>
<g id="a_node6"><a xlink:title=" ">
<polygon fill="#e0e0e0" stroke="#999999" points="611.5,-316 510.5,-316 510.5,-297 611.5,-297 611.5,-316"/>
<text text-anchor="middle" x="561" y="-304" font-family="Helvetica,sans-Serif" font-size="10.00">pybind11/eigen.h</text>
</a>
</g>
</g>
<!-- Node1&#45;&gt;Node6 -->
<g id="edge5" class="edge">
<title>Node1&#45;&gt;Node6</title>
<path fill="none" stroke="#63b8ff" d="M1051.33,-357.44C972.68,-351.08 788.17,-335.5 622.12,-316.08"/>
<polygon fill="#63b8ff" stroke="#63b8ff" points="622.06,-312.55 611.72,-314.85 621.24,-319.5 622.06,-312.55"/>
</g>
<!-- Node7 -->
<g id="node7" class="node">
<title>Node7</title>
<g id="a_node7"><a xlink:title=" ">
<polygon fill="#e0e0e0" stroke="#999999" points="752,-316 630,-316 630,-297 752,-297 752,-316"/>
<text text-anchor="middle" x="691" y="-304" font-family="Helvetica,sans-Serif" font-size="10.00">pybind11/functional.h</text>
</a>
</g>
</g>
<!-- Node1&#45;&gt;Node7 -->
<g id="edge6" class="edge">
<title>Node1&#45;&gt;Node7</title>
<path fill="none" stroke="#63b8ff" d="M1051.38,-355.37C984.66,-346.51 846.87,-328.2 762.33,-316.97"/>
<polygon fill="#63b8ff" stroke="#63b8ff" points="762.67,-313.49 752.29,-315.64 761.74,-320.43 762.67,-313.49"/>
</g>
<!-- Node8 -->
<g id="node8" class="node">
<title>Node8</title>
<g id="a_node8"><a xlink:title=" ">
<polygon fill="#e0e0e0" stroke="#999999" points="887.5,-316 770.5,-316 770.5,-297 887.5,-297 887.5,-316"/>
<text text-anchor="middle" x="829" y="-304" font-family="Helvetica,sans-Serif" font-size="10.00">pybind11/iostream.h</text>
</a>
</g>
</g>
<!-- Node1&#45;&gt;Node8 -->
<g id="edge7" class="edge">
<title>Node1&#45;&gt;Node8</title>
<path fill="none" stroke="#63b8ff" d="M1051.49,-352.68C1006.38,-343.52 931.45,-328.3 881.16,-318.09"/>
<polygon fill="#63b8ff" stroke="#63b8ff" points="881.63,-314.62 871.13,-316.06 880.24,-321.48 881.63,-314.62"/>
</g>
<!-- Node9 -->
<g id="node9" class="node">
<title>Node9</title>
<g id="a_node9"><a xlink:title=" ">
<polygon fill="#e0e0e0" stroke="#999999" points="550.5,-261 431.5,-261 431.5,-242 550.5,-242 550.5,-261"/>
<text text-anchor="middle" x="491" y="-249" font-family="Helvetica,sans-Serif" font-size="10.00">pybind11/pybind11.h</text>
</a>
</g>
</g>
<!-- Node1&#45;&gt;Node9 -->
<g id="edge8" class="edge">
<title>Node1&#45;&gt;Node9</title>
<path fill="none" stroke="#63b8ff" d="M1053.71,-351.98C1021.92,-344.08 974.73,-331.25 935,-316 917,-309.09 914.53,-302.34 896,-297 753.82,-255.99 712.06,-277.44 565,-261 563.7,-260.85 562.38,-260.71 561.06,-260.56"/>
<polygon fill="#63b8ff" stroke="#63b8ff" points="561.1,-257.04 550.77,-259.4 560.32,-264 561.1,-257.04"/>
</g>
<!-- Node10 -->
<g id="node10" class="node">
<title>Node10</title>
<g id="a_node10"><a xlink:title=" ">
<polygon fill="#e0e0e0" stroke="#999999" points="1269.5,-316 1156.5,-316 1156.5,-297 1269.5,-297 1269.5,-316"/>
<text text-anchor="middle" x="1213" y="-304" font-family="Helvetica,sans-Serif" font-size="10.00">pybind11/pytypes.h</text>
</a>
</g>
</g>
<!-- Node1&#45;&gt;Node10 -->
<g id="edge9" class="edge">
<title>Node1&#45;&gt;Node10</title>
<path fill="none" stroke="#63b8ff" d="M1109.76,-351.98C1129.73,-343.38 1160.8,-329.99 1183.65,-320.15"/>
<polygon fill="#63b8ff" stroke="#63b8ff" points="1185.08,-323.34 1192.88,-316.17 1182.31,-316.91 1185.08,-323.34"/>
</g>
<!-- Node11 -->
<g id="node11" class="node">
<title>Node11</title>
<g id="a_node11"><a xlink:title=" ">
<polygon fill="#e0e0e0" stroke="#999999" points="1374,-316 1288,-316 1288,-297 1374,-297 1374,-316"/>
<text text-anchor="middle" x="1331" y="-304" font-family="Helvetica,sans-Serif" font-size="10.00">pybind11/stl.h</text>
</a>
</g>
</g>
<!-- Node1&#45;&gt;Node11 -->
<g id="edge10" class="edge">
<title>Node1&#45;&gt;Node11</title>
<path fill="none" stroke="#63b8ff" d="M1128.72,-351.98C1170.41,-342.82 1236.82,-328.21 1282.09,-318.26"/>
<polygon fill="#63b8ff" stroke="#63b8ff" points="1282.96,-321.65 1291.98,-316.08 1281.46,-314.81 1282.96,-321.65"/>
</g>
<!-- Node12 -->
<g id="node12" class="node">
<title>Node12</title>
<g id="a_node12"><a xlink:title=" ">
<polygon fill="#e0e0e0" stroke="#999999" points="1450,-316 1392,-316 1392,-297 1450,-297 1450,-316"/>
<text text-anchor="middle" x="1421" y="-304" font-family="Helvetica,sans-Serif" font-size="10.00">memory</text>
</a>
</g>
</g>
<!-- Node1&#45;&gt;Node12 -->
<g id="edge11" class="edge">
<title>Node1&#45;&gt;Node12</title>
<path fill="none" stroke="#63b8ff" d="M1128.54,-355.51C1182.83,-348.3 1285.14,-334.01 1382.04,-316.07"/>
<polygon fill="#63b8ff" stroke="#63b8ff" points="1382.81,-319.48 1392,-314.2 1381.52,-312.6 1382.81,-319.48"/>
</g>
<!-- Node13 -->
<g id="node13" class="node">
<title>Node13</title>
<g id="a_node13"><a xlink:title=" ">
<polygon fill="#e0e0e0" stroke="#999999" points="1524,-316 1468,-316 1468,-297 1524,-297 1524,-316"/>
<text text-anchor="middle" x="1496" y="-304" font-family="Helvetica,sans-Serif" font-size="10.00">optional</text>
</a>
</g>
</g>
<!-- Node1&#45;&gt;Node13 -->
<g id="edge12" class="edge">
<title>Node1&#45;&gt;Node13</title>
<path fill="none" stroke="#63b8ff" d="M1128.71,-357.19C1194.35,-351.29 1331.84,-337.64 1457.59,-316.08"/>
<polygon fill="#63b8ff" stroke="#63b8ff" points="1458.53,-319.47 1467.78,-314.31 1457.33,-312.57 1458.53,-319.47"/>
</g>
<!-- Node14 -->
<g id="node14" class="node">
<title>Node14</title>
<g id="a_node14"><a xlink:title=" ">
<polygon fill="#e0e0e0" stroke="#999999" points="1598,-316 1542,-316 1542,-297 1598,-297 1598,-316"/>
<text text-anchor="middle" x="1570" y="-304" font-family="Helvetica,sans-Serif" font-size="10.00">sstream</text>
</a>
</g>
</g>
<!-- Node1&#45;&gt;Node14 -->
<g id="edge13" class="edge">
<title>Node1&#45;&gt;Node14</title>
<path fill="none" stroke="#63b8ff" d="M1128.73,-358.25C1204.34,-353.51 1377.02,-340.95 1531.63,-316.02"/>
<polygon fill="#63b8ff" stroke="#63b8ff" points="1532.49,-319.43 1541.79,-314.37 1531.36,-312.52 1532.49,-319.43"/>
</g>
<!-- Node15 -->
<g id="node15" class="node">
<title>Node15</title>
<g id="a_node15"><a xlink:title=" ">
<polygon fill="#e0e0e0" stroke="#999999" points="1123.5,-200.5 1058.5,-200.5 1058.5,-181.5 1123.5,-181.5 1123.5,-200.5"/>
<text text-anchor="middle" x="1091" y="-188.5" font-family="Helvetica,sans-Serif" font-size="10.00">stdexcept</text>
</a>
</g>
</g>
<!-- Node1&#45;&gt;Node15 -->
<g id="edge14" class="edge">
<title>Node1&#45;&gt;Node15</title>
<path fill="none" stroke="#63b8ff" d="M1090.05,-351.91C1090.21,-325.89 1090.67,-247.47 1090.89,-211.01"/>
<polygon fill="#63b8ff" stroke="#63b8ff" points="1094.39,-210.79 1090.95,-200.77 1087.39,-210.75 1094.39,-210.79"/>
</g>
<!-- Node16 -->
<g id="node16" class="node">
<title>Node16</title>
<g id="a_node16"><a xlink:title=" ">
<polygon fill="#e0e0e0" stroke="#999999" points="1660,-316 1616,-316 1616,-297 1660,-297 1660,-316"/>
<text text-anchor="middle" x="1638" y="-304" font-family="Helvetica,sans-Serif" font-size="10.00">string</text>
</a>
</g>
</g>
<!-- Node1&#45;&gt;Node16 -->
<g id="edge15" class="edge">
<title>Node1&#45;&gt;Node16</title>
<path fill="none" stroke="#63b8ff" d="M1128.58,-359.57C1213.37,-357.02 1422.34,-347.94 1605.67,-315.91"/>
<polygon fill="#63b8ff" stroke="#63b8ff" points="1606.53,-319.31 1615.76,-314.12 1605.3,-312.42 1606.53,-319.31"/>
</g>
<!-- Node17 -->
<g id="node17" class="node">
<title>Node17</title>
<g id="a_node17"><a xlink:title=" ">
<polygon fill="#e0e0e0" stroke="#999999" points="1719.5,-316 1678.5,-316 1678.5,-297 1719.5,-297 1719.5,-316"/>
<text text-anchor="middle" x="1699" y="-304" font-family="Helvetica,sans-Serif" font-size="10.00">tuple</text>
</a>
</g>
</g>
<!-- Node1&#45;&gt;Node17 -->
<g id="edge16" class="edge">
<title>Node1&#45;&gt;Node17</title>
<path fill="none" stroke="#63b8ff" d="M1128.61,-360.18C1220.64,-358.86 1460.13,-352.09 1668.57,-315.66"/>
<polygon fill="#63b8ff" stroke="#63b8ff" points="1669.23,-319.09 1678.47,-313.9 1668.01,-312.2 1669.23,-319.09"/>
</g>
<!-- Node18 -->
<g id="node18" class="node">
<title>Node18</title>
<g id="a_node18"><a xlink:title=" ">
<polygon fill="#e0e0e0" stroke="#999999" points="1162.5,-74 1093.5,-74 1093.5,-55 1162.5,-55 1162.5,-74"/>
<text text-anchor="middle" x="1128" y="-62" font-family="Helvetica,sans-Serif" font-size="10.00">type_traits</text>
</a>
</g>
</g>
<!-- Node1&#45;&gt;Node18 -->
<g id="edge17" class="edge">
<title>Node1&#45;&gt;Node18</title>
<path fill="none" stroke="#63b8ff" d="M1095.26,-352C1104.27,-338.19 1124.03,-311.03 1148,-297 1209.04,-261.28 1259.01,-316.38 1303,-261 1360.02,-189.22 1219.26,-109.49 1156.43,-78.66"/>
<polygon fill="#63b8ff" stroke="#63b8ff" points="1157.58,-75.33 1147.06,-74.14 1154.54,-81.64 1157.58,-75.33"/>
</g>
<!-- Node19 -->
<g id="node19" class="node">
<title>Node19</title>
<g id="a_node19"><a xlink:title=" ">
<polygon fill="#e0e0e0" stroke="#999999" points="1782.5,-316 1737.5,-316 1737.5,-297 1782.5,-297 1782.5,-316"/>
<text text-anchor="middle" x="1760" y="-304" font-family="Helvetica,sans-Serif" font-size="10.00">utility</text>
</a>
</g>
</g>
<!-- Node1&#45;&gt;Node19 -->
<g id="edge18" class="edge">
<title>Node1&#45;&gt;Node19</title>
<path fill="none" stroke="#63b8ff" d="M1128.85,-360.46C1227.61,-359.8 1496.23,-354.45 1727.49,-315.93"/>
<polygon fill="#63b8ff" stroke="#63b8ff" points="1728.15,-319.36 1737.43,-314.24 1726.99,-312.46 1728.15,-319.36"/>
</g>
<!-- Node20 -->
<g id="node20" class="node">
<title>Node20</title>
<g id="a_node20"><a xlink:href="kwargs-to-struct_8hpp.html" target="_top" xlink:title="This file defines mappings from Python dicts (kwargs) to simple parameter structs.">
<polygon fill="white" stroke="#666666" points="1062,-316 944,-316 944,-297 1062,-297 1062,-316"/>
<text text-anchor="middle" x="1003" y="-304" font-family="Helvetica,sans-Serif" font-size="10.00">kwargs&#45;to&#45;struct.hpp</text>
</a>
</g>
</g>
<!-- Node1&#45;&gt;Node20 -->
<g id="edge19" class="edge">
<title>Node1&#45;&gt;Node20</title>
<path fill="none" stroke="#63b8ff" d="M1076.02,-351.98C1062.53,-343.77 1041.87,-331.18 1025.96,-321.49"/>
<polygon fill="#63b8ff" stroke="#63b8ff" points="1027.59,-318.38 1017.23,-316.17 1023.95,-324.36 1027.59,-318.38"/>
</g>
<!-- Node20&#45;&gt;Node9 -->
<g id="edge24" class="edge">
<title>Node20&#45;&gt;Node9</title>
<path fill="none" stroke="#63b8ff" d="M943.65,-298.5C939.03,-297.98 934.44,-297.48 930,-297 767.92,-279.57 727.09,-278.3 565,-261 563.7,-260.86 562.38,-260.72 561.06,-260.58"/>
<polygon fill="#63b8ff" stroke="#63b8ff" points="561.09,-257.06 550.77,-259.45 560.32,-264.02 561.09,-257.06"/>
</g>
<!-- Node21 -->
<g id="node21" class="node">
<title>Node21</title>
<g id="a_node21"><a xlink:title=" ">
<polygon fill="#e0e0e0" stroke="#999999" points="1061.5,-261 996.5,-261 996.5,-242 1061.5,-242 1061.5,-261"/>
<text text-anchor="middle" x="1029" y="-249" font-family="Helvetica,sans-Serif" font-size="10.00">functional</text>
</a>
</g>
</g>
<!-- Node20&#45;&gt;Node21 -->
<g id="edge20" class="edge">
<title>Node20&#45;&gt;Node21</title>
<path fill="none" stroke="#63b8ff" d="M1007.29,-296.75C1010.81,-289.57 1015.91,-279.18 1020.28,-270.27"/>
<polygon fill="#63b8ff" stroke="#63b8ff" points="1023.52,-271.61 1024.79,-261.09 1017.24,-268.53 1023.52,-271.61"/>
</g>
<!-- Node22 -->
<g id="node22" class="node">
<title>Node22</title>
<g id="a_node22"><a xlink:title=" ">
<polygon fill="#e0e0e0" stroke="#999999" points="645,-261 607,-261 607,-242 645,-242 645,-261"/>
<text text-anchor="middle" x="626" y="-249" font-family="Helvetica,sans-Serif" font-size="10.00">map</text>
</a>
</g>
</g>
<!-- Node20&#45;&gt;Node22 -->
<g id="edge21" class="edge">
<title>Node20&#45;&gt;Node22</title>
<path fill="none" stroke="#63b8ff" d="M943.73,-298.49C858.24,-288.31 705.78,-269.84 655.08,-260.73"/>
<polygon fill="#63b8ff" stroke="#63b8ff" points="655.66,-257.28 645.17,-258.78 654.31,-264.15 655.66,-257.28"/>
</g>
<!-- Node23 -->
<g id="node23" class="node">
<title>Node23</title>
<g id="a_node23"><a xlink:title=" ">
<polygon fill="#e0e0e0" stroke="#999999" points="714.5,-261 663.5,-261 663.5,-242 714.5,-242 714.5,-261"/>
<text text-anchor="middle" x="689" y="-249" font-family="Helvetica,sans-Serif" font-size="10.00">variant</text>
</a>
</g>
</g>
<!-- Node20&#45;&gt;Node23 -->
<g id="edge22" class="edge">
<title>Node20&#45;&gt;Node23</title>
<path fill="none" stroke="#63b8ff" d="M943.73,-297.61C889.1,-290 805.56,-277.48 724.44,-261.15"/>
<polygon fill="#63b8ff" stroke="#63b8ff" points="725.06,-257.71 714.57,-259.15 723.67,-264.57 725.06,-257.71"/>
</g>
<!-- Node24 -->
<g id="node24" class="node">
<title>Node24</title>
<g id="a_node24"><a xlink:title=" ">
<polygon fill="#e0e0e0" stroke="#999999" points="867.5,-261 732.5,-261 732.5,-242 867.5,-242 867.5,-261"/>
<text text-anchor="middle" x="800" y="-249" font-family="Helvetica,sans-Serif" font-size="10.00">pybind11/detail/typeid.h</text>
</a>
</g>
</g>
<!-- Node20&#45;&gt;Node24 -->
<g id="edge23" class="edge">
<title>Node20&#45;&gt;Node24</title>
<path fill="none" stroke="#63b8ff" d="M970.38,-296.98C935.71,-287.93 880.74,-273.58 842.65,-263.64"/>
<polygon fill="#63b8ff" stroke="#63b8ff" points="843.43,-260.22 832.87,-261.08 841.66,-266.99 843.43,-260.22"/>
</g>
<!-- Node25 -->
<g id="node25" class="node">
<title>Node25</title>
<g id="a_node25"><a xlink:href="lbfgs_8hpp.html" target="_top" xlink:title=" ">
<polygon fill="white" stroke="#666666" points="978,-261 886,-261 886,-242 978,-242 978,-261"/>
<text text-anchor="middle" x="932" y="-249" font-family="Helvetica,sans-Serif" font-size="10.00">quala/lbfgs.hpp</text>
</a>
</g>
</g>
<!-- Node20&#45;&gt;Node25 -->
<g id="edge25" class="edge">
<title>Node20&#45;&gt;Node25</title>
<path fill="none" stroke="#63b8ff" d="M991.59,-296.98C980.89,-289 964.66,-276.88 951.84,-267.31"/>
<polygon fill="#63b8ff" stroke="#63b8ff" points="953.72,-264.35 943.61,-261.17 949.53,-269.96 953.72,-264.35"/>
</g>
<!-- Node30 -->
<g id="node30" class="node">
<title>Node30</title>
<g id="a_node30"><a xlink:href="anderson-acceleration_8hpp.html" target="_top" xlink:title=" ">
<polygon fill="white" stroke="#666666" points="1294,-261 1118,-261 1118,-242 1294,-242 1294,-261"/>
<text text-anchor="middle" x="1206" y="-249" font-family="Helvetica,sans-Serif" font-size="10.00">quala/anderson&#45;acceleration.hpp</text>
</a>
</g>
</g>
<!-- Node20&#45;&gt;Node30 -->
<g id="edge32" class="edge">
<title>Node20&#45;&gt;Node30</title>
<path fill="none" stroke="#63b8ff" d="M1035.62,-296.98C1070.29,-287.93 1125.26,-273.58 1163.35,-263.64"/>
<polygon fill="#63b8ff" stroke="#63b8ff" points="1164.34,-266.99 1173.13,-261.08 1162.57,-260.22 1164.34,-266.99"/>
</g>
<!-- Node39 -->
<g id="node39" class="node">
<title>Node39</title>
<g id="a_node39"><a xlink:href="broyden-good_8hpp.html" target="_top" xlink:title=" ">
<polygon fill="white" stroke="#666666" points="663.5,-134.5 528.5,-134.5 528.5,-115.5 663.5,-115.5 663.5,-134.5"/>
<text text-anchor="middle" x="596" y="-122.5" font-family="Helvetica,sans-Serif" font-size="10.00">quala/broyden&#45;good.hpp</text>
</a>
</g>
</g>
<!-- Node20&#45;&gt;Node39 -->
<g id="edge45" class="edge">
<title>Node20&#45;&gt;Node39</title>
<path fill="none" stroke="#63b8ff" d="M943.63,-298.65C938.68,-298.09 933.76,-297.53 929,-297 855.47,-288.78 647.82,-315.71 598,-261 568.89,-229.03 580.69,-173.06 589.56,-144.26"/>
<polygon fill="#63b8ff" stroke="#63b8ff" points="592.92,-145.25 592.72,-134.66 586.27,-143.06 592.92,-145.25"/>
</g>
<!-- Node25&#45;&gt;Node15 -->
<g id="edge30" class="edge">
<title>Node25&#45;&gt;Node15</title>
<path fill="none" stroke="#63b8ff" d="M955.12,-241.99C982.32,-231.99 1027.67,-215.3 1058.42,-203.99"/>
<polygon fill="#63b8ff" stroke="#63b8ff" points="1059.68,-207.25 1067.85,-200.52 1057.26,-200.68 1059.68,-207.25"/>
</g>
<!-- Node25&#45;&gt;Node18 -->
<g id="edge31" class="edge">
<title>Node25&#45;&gt;Node18</title>
<path fill="none" stroke="#63b8ff" d="M941.19,-241.83C971.92,-212.82 1071.39,-118.93 1111.25,-81.31"/>
<polygon fill="#63b8ff" stroke="#63b8ff" points="1113.73,-83.78 1118.6,-74.37 1108.93,-78.69 1113.73,-83.78"/>
</g>
<!-- Node26 -->
<g id="node26" class="node">
<title>Node26</title>
<g id="a_node26"><a xlink:href="decl_2lbfgs_8hpp.html" target="_top" xlink:title=" ">
<polygon fill="white" stroke="#666666" points="861.5,-200.5 746.5,-200.5 746.5,-181.5 861.5,-181.5 861.5,-200.5"/>
<text text-anchor="middle" x="804" y="-188.5" font-family="Helvetica,sans-Serif" font-size="10.00">quala/decl/lbfgs.hpp</text>
</a>
</g>
</g>
<!-- Node25&#45;&gt;Node26 -->
<g id="edge26" class="edge">
<title>Node25&#45;&gt;Node26</title>
<path fill="none" stroke="#63b8ff" d="M913.39,-241.99C891.96,-232.2 856.56,-216.02 831.85,-204.73"/>
<polygon fill="#63b8ff" stroke="#63b8ff" points="833.18,-201.49 822.63,-200.52 830.28,-207.86 833.18,-201.49"/>
</g>
<!-- Node27 -->
<g id="node27" class="node">
<title>Node27</title>
<g id="a_node27"><a xlink:href="lbfgs-fwd_8hpp.html" target="_top" xlink:title=" ">
<polygon fill="white" stroke="#666666" points="872,-134.5 736,-134.5 736,-115.5 872,-115.5 872,-134.5"/>
<text text-anchor="middle" x="804" y="-122.5" font-family="Helvetica,sans-Serif" font-size="10.00">quala/decl/lbfgs&#45;fwd.hpp</text>
</a>
</g>
</g>
<!-- Node26&#45;&gt;Node27 -->
<g id="edge27" class="edge">
<title>Node26&#45;&gt;Node27</title>
<path fill="none" stroke="#63b8ff" d="M804,-181.37C804,-172.16 804,-157.29 804,-145.27"/>
<polygon fill="#63b8ff" stroke="#63b8ff" points="807.5,-144.91 804,-134.91 800.5,-144.91 807.5,-144.91"/>
</g>
<!-- Node28 -->
<g id="node28" class="node">
<title>Node28</title>
<g id="a_node28"><a xlink:href="vec_8hpp.html" target="_top" xlink:title=" ">
<polygon fill="white" stroke="#666666" points="760,-74 656,-74 656,-55 760,-55 760,-74"/>
<text text-anchor="middle" x="708" y="-62" font-family="Helvetica,sans-Serif" font-size="10.00">quala/util/vec.hpp</text>
</a>
</g>
</g>
<!-- Node26&#45;&gt;Node28 -->
<g id="edge28" class="edge">
<title>Node26&#45;&gt;Node28</title>
<path fill="none" stroke="#63b8ff" d="M782.5,-181.37C764.98,-173.25 740.94,-159.43 727,-140 715.23,-123.59 710.74,-100.56 709.03,-84.46"/>
<polygon fill="#63b8ff" stroke="#63b8ff" points="712.49,-83.85 708.21,-74.16 705.51,-84.41 712.49,-83.85"/>
</g>
<!-- Node29 -->
<g id="node29" class="node">
<title>Node29</title>
<g id="a_node29"><a xlink:title=" ">
<polygon fill="#e0e0e0" stroke="#999999" points="742.5,-19 673.5,-19 673.5,0 742.5,0 742.5,-19"/>
<text text-anchor="middle" x="708" y="-7" font-family="Helvetica,sans-Serif" font-size="10.00">Eigen/Core</text>
</a>
</g>
</g>
<!-- Node28&#45;&gt;Node29 -->
<g id="edge29" class="edge">
<title>Node28&#45;&gt;Node29</title>
<path fill="none" stroke="#63b8ff" d="M708,-54.75C708,-47.8 708,-37.85 708,-29.13"/>
<polygon fill="#63b8ff" stroke="#63b8ff" points="711.5,-29.09 708,-19.09 704.5,-29.09 711.5,-29.09"/>
</g>
<!-- Node30&#45;&gt;Node15 -->
<g id="edge44" class="edge">
<title>Node30&#45;&gt;Node15</title>
<path fill="none" stroke="#63b8ff" d="M1189.03,-241.87C1170.09,-232.23 1139.21,-216.53 1117.17,-205.31"/>
<polygon fill="#63b8ff" stroke="#63b8ff" points="1118.54,-202.08 1108.04,-200.67 1115.36,-208.32 1118.54,-202.08"/>
</g>
<!-- Node31 -->
<g id="node31" class="node">
<title>Node31</title>
<g id="a_node31"><a xlink:href="anderson-helpers_8hpp.html" target="_top" xlink:title=" ">
<polygon fill="white" stroke="#666666" points="1265,-206 1143,-206 1143,-176 1265,-176 1265,-206"/>
<text text-anchor="start" x="1151" y="-194" font-family="Helvetica,sans-Serif" font-size="10.00">quala/detail/anderson</text>
<text text-anchor="middle" x="1204" y="-183" font-family="Helvetica,sans-Serif" font-size="10.00">&#45;helpers.hpp</text>
</a>
</g>
</g>
<!-- Node30&#45;&gt;Node31 -->
<g id="edge33" class="edge">
<title>Node30&#45;&gt;Node31</title>
<path fill="none" stroke="#63b8ff" d="M1205.7,-241.87C1205.47,-235.11 1205.14,-225.35 1204.83,-216.26"/>
<polygon fill="#63b8ff" stroke="#63b8ff" points="1208.32,-215.99 1204.48,-206.11 1201.33,-216.23 1208.32,-215.99"/>
</g>
<!-- Node32 -->
<g id="node32" class="node">
<title>Node32</title>
<g id="a_node32"><a xlink:href="limited-memory-qr_8hpp.html" target="_top" xlink:title=" ">
<polygon fill="white" stroke="#666666" points="1002,-140 890,-140 890,-110 1002,-110 1002,-140"/>
<text text-anchor="start" x="898" y="-128" font-family="Helvetica,sans-Serif" font-size="10.00">quala/detail/limited</text>
<text text-anchor="middle" x="946" y="-117" font-family="Helvetica,sans-Serif" font-size="10.00">&#45;memory&#45;qr.hpp</text>
</a>
</g>
</g>
<!-- Node31&#45;&gt;Node32 -->
<g id="edge34" class="edge">
<title>Node31&#45;&gt;Node32</title>
<path fill="none" stroke="#63b8ff" d="M1147.38,-175.95C1107.42,-166.04 1053.76,-152.73 1011.88,-142.34"/>
<polygon fill="#63b8ff" stroke="#63b8ff" points="1012.59,-138.91 1002.04,-139.9 1010.91,-145.71 1012.59,-138.91"/>
</g>
<!-- Node32&#45;&gt;Node18 -->
<g id="edge43" class="edge">
<title>Node32&#45;&gt;Node18</title>
<path fill="none" stroke="#63b8ff" d="M989.59,-109.99C1020.73,-99.98 1062.14,-86.67 1091.53,-77.22"/>
<polygon fill="#63b8ff" stroke="#63b8ff" points="1092.94,-80.45 1101.39,-74.05 1090.8,-73.78 1092.94,-80.45"/>
</g>
<!-- Node32&#45;&gt;Node28 -->
<g id="edge42" class="edge">
<title>Node32&#45;&gt;Node28</title>
<path fill="none" stroke="#63b8ff" d="M889.9,-110.21C848.02,-99.92 791.54,-86.03 752.69,-76.49"/>
<polygon fill="#63b8ff" stroke="#63b8ff" points="753.27,-73.02 742.72,-74.03 751.6,-79.82 753.27,-73.02"/>
</g>
<!-- Node33 -->
<g id="node33" class="node">
<title>Node33</title>
<g id="a_node33"><a xlink:title=" ">
<polygon fill="#e0e0e0" stroke="#999999" points="1075,-74 999,-74 999,-55 1075,-55 1075,-74"/>
<text text-anchor="middle" x="1037" y="-62" font-family="Helvetica,sans-Serif" font-size="10.00">Eigen/Jacobi</text>
</a>
</g>
</g>
<!-- Node32&#45;&gt;Node33 -->
<g id="edge35" class="edge">
<title>Node32&#45;&gt;Node33</title>
<path fill="none" stroke="#63b8ff" d="M968.03,-109.84C982.27,-100.68 1000.73,-88.82 1014.97,-79.66"/>
<polygon fill="#63b8ff" stroke="#63b8ff" points="1017.11,-82.45 1023.63,-74.09 1013.33,-76.56 1017.11,-82.45"/>
</g>
<!-- Node34 -->
<g id="node34" class="node">
<title>Node34</title>
<g id="a_node34"><a xlink:title=" ">
<polygon fill="#e0e0e0" stroke="#999999" points="845.5,-19 792.5,-19 792.5,0 845.5,0 845.5,-19"/>
<text text-anchor="middle" x="819" y="-7" font-family="Helvetica,sans-Serif" font-size="10.00">cstddef</text>
</a>
</g>
</g>
<!-- Node32&#45;&gt;Node34 -->
<g id="edge36" class="edge">
<title>Node32&#45;&gt;Node34</title>
<path fill="none" stroke="#63b8ff" d="M893.82,-109.99C873.92,-102.29 852.55,-90.79 838,-74 827.29,-61.63 822.61,-43.42 820.57,-29.66"/>
<polygon fill="#63b8ff" stroke="#63b8ff" points="824.01,-28.92 819.41,-19.38 817.06,-29.71 824.01,-28.92"/>
</g>
<!-- Node35 -->
<g id="node35" class="node">
<title>Node35</title>
<g id="a_node35"><a xlink:href="ringbuffer_8hpp.html" target="_top" xlink:title=" ">
<polygon fill="white" stroke="#666666" points="980.5,-74 847.5,-74 847.5,-55 980.5,-55 980.5,-74"/>
<text text-anchor="middle" x="914" y="-62" font-family="Helvetica,sans-Serif" font-size="10.00">quala/util/ringbuffer.hpp</text>
</a>
</g>
</g>
<!-- Node32&#45;&gt;Node35 -->
<g id="edge37" class="edge">
<title>Node32&#45;&gt;Node35</title>
<path fill="none" stroke="#63b8ff" d="M938.25,-109.84C933.85,-101.78 928.29,-91.62 923.6,-83.06"/>
<polygon fill="#63b8ff" stroke="#63b8ff" points="926.66,-81.36 918.8,-74.27 920.52,-84.72 926.66,-81.36"/>
</g>
<!-- Node35&#45;&gt;Node34 -->
<g id="edge39" class="edge">
<title>Node35&#45;&gt;Node34</title>
<path fill="none" stroke="#63b8ff" d="M898.74,-54.98C883.87,-46.69 861.02,-33.94 843.58,-24.22"/>
<polygon fill="#63b8ff" stroke="#63b8ff" points="844.98,-20.99 834.54,-19.17 841.57,-27.1 844.98,-20.99"/>
</g>
<!-- Node36 -->
<g id="node36" class="node">
<title>Node36</title>
<g id="a_node36"><a xlink:title=" ">
<polygon fill="#e0e0e0" stroke="#999999" points="928,-19 864,-19 864,0 928,0 928,-19"/>
<text text-anchor="middle" x="896" y="-7" font-family="Helvetica,sans-Serif" font-size="10.00">algorithm</text>
</a>
</g>
</g>
<!-- Node35&#45;&gt;Node36 -->
<g id="edge38" class="edge">
<title>Node35&#45;&gt;Node36</title>
<path fill="none" stroke="#63b8ff" d="M911.03,-54.75C908.64,-47.72 905.21,-37.62 902.23,-28.84"/>
<polygon fill="#63b8ff" stroke="#63b8ff" points="905.45,-27.43 898.92,-19.09 898.82,-29.68 905.45,-27.43"/>
</g>
<!-- Node37 -->
<g id="node37" class="node">
<title>Node37</title>
<g id="a_node37"><a xlink:title=" ">
<polygon fill="#e0e0e0" stroke="#999999" points="999.5,-19 946.5,-19 946.5,0 999.5,0 999.5,-19"/>
<text text-anchor="middle" x="973" y="-7" font-family="Helvetica,sans-Serif" font-size="10.00">iterator</text>
</a>
</g>
</g>
<!-- Node35&#45;&gt;Node37 -->
<g id="edge40" class="edge">
<title>Node35&#45;&gt;Node37</title>
<path fill="none" stroke="#63b8ff" d="M923.48,-54.98C932.2,-47.15 945.34,-35.34 955.9,-25.86"/>
<polygon fill="#63b8ff" stroke="#63b8ff" points="958.25,-28.46 963.35,-19.17 953.57,-23.25 958.25,-28.46"/>
</g>
<!-- Node38 -->
<g id="node38" class="node">
<title>Node38</title>
<g id="a_node38"><a xlink:title=" ">
<polygon fill="#e0e0e0" stroke="#999999" points="1064.5,-19 1017.5,-19 1017.5,0 1064.5,0 1064.5,-19"/>
<text text-anchor="middle" x="1041" y="-7" font-family="Helvetica,sans-Serif" font-size="10.00">vector</text>
</a>
</g>
</g>
<!-- Node35&#45;&gt;Node38 -->
<g id="edge41" class="edge">
<title>Node35&#45;&gt;Node38</title>
<path fill="none" stroke="#63b8ff" d="M934.4,-54.98C955.02,-46.38 987.11,-32.99 1010.69,-23.15"/>
<polygon fill="#63b8ff" stroke="#63b8ff" points="1012.34,-26.25 1020.22,-19.17 1009.65,-19.79 1012.34,-26.25"/>
</g>
<!-- Node39&#45;&gt;Node28 -->
<g id="edge46" class="edge">
<title>Node39&#45;&gt;Node28</title>
<path fill="none" stroke="#63b8ff" d="M612.53,-115.37C630.97,-105.73 661.04,-90.03 682.51,-78.81"/>
<polygon fill="#63b8ff" stroke="#63b8ff" points="684.16,-81.9 691.41,-74.17 680.92,-75.69 684.16,-81.9"/>
</g>
</g>
</svg>
