<?xml version="1.0" encoding="UTF-8" standalone="no"?>
<!DOCTYPE svg PUBLIC "-//W3C//DTD SVG 1.1//EN"
 "http://www.w3.org/Graphics/SVG/1.1/DTD/svg11.dtd">
<!-- Generated by graphviz version 2.43.0 (0)
 -->
<!-- Title: n Pages: 1 -->
<svg width="505pt" height="81pt"
 viewBox="0.00 0.00 505.00 81.00" xmlns="http://www.w3.org/2000/svg" xmlns:xlink="http://www.w3.org/1999/xlink">
<g id="graph0" class="graph" transform="scale(1 1) rotate(0) translate(4 77)">
<title>n</title>
<!-- Node1 -->
<g id="node1" class="node">
<title>Node1</title>
<g id="a_node1"><a xlink:title="Get the size of the s and s̃ vectors in the buffer.">
<polygon fill="#999999" stroke="#666666" points="497,-42.5 468,-42.5 468,-23.5 497,-23.5 497,-42.5"/>
<text text-anchor="middle" x="482.5" y="-30.5" font-family="Helvetica,sans-Serif" font-size="10.00">n</text>
</a>
</g>
</g>
<!-- Node2 -->
<g id="node2" class="node">
<title>Node2</title>
<g id="a_node2"><a xlink:href="classquala_1_1BroydenGood.html#a727afc7a58d2e44ae7add57e3fa77bc6" target="_top" xlink:title="Get the size of the s and y vectors in the buffer.">
<polygon fill="white" stroke="#666666" points="432,-61.5 304,-61.5 304,-42.5 432,-42.5 432,-61.5"/>
<text text-anchor="middle" x="368" y="-49.5" font-family="Helvetica,sans-Serif" font-size="10.00">quala::BroydenGood::n</text>
</a>
</g>
</g>
<!-- Node1&#45;&gt;Node2 -->
<g id="edge1" class="edge">
<title>Node1&#45;&gt;Node2</title>
<path fill="none" stroke="#63b8ff" d="M457.83,-37C448.28,-38.61 436.81,-40.55 425.33,-42.49"/>
<polygon fill="#63b8ff" stroke="#63b8ff" points="458.43,-40.45 467.71,-35.33 457.26,-33.54 458.43,-40.45"/>
</g>
<!-- Node6 -->
<g id="node6" class="node">
<title>Node6</title>
<g id="a_node6"><a xlink:href="structquala_1_1BroydenStorage.html#a48072fa680a2364d8ce96eb84a5d5689" target="_top" xlink:title="Re&#45;allocate storage for a problem with a different size.">
<polygon fill="white" stroke="#666666" points="391,-24.5 345,-24.5 345,-5.5 391,-5.5 391,-24.5"/>
<text text-anchor="middle" x="368" y="-12.5" font-family="Helvetica,sans-Serif" font-size="10.00">resize</text>
</a>
</g>
</g>
<!-- Node1&#45;&gt;Node6 -->
<g id="edge6" class="edge">
<title>Node1&#45;&gt;Node6</title>
<path fill="none" stroke="#63b8ff" d="M457.7,-29.19C438,-26.04 410.24,-21.6 391.04,-18.53"/>
<polygon fill="#63b8ff" stroke="#63b8ff" points="457.28,-32.67 467.71,-30.79 458.38,-25.76 457.28,-32.67"/>
</g>
<!-- Node3 -->
<g id="node3" class="node">
<title>Node3</title>
<g id="a_node3"><a xlink:href="classquala_1_1BroydenGood.html#af204bb3e018606122259767df4348cef" target="_top" xlink:title=" ">
<polygon fill="white" stroke="#666666" points="116,-73 0,-73 0,-43 116,-43 116,-73"/>
<text text-anchor="start" x="8" y="-61" font-family="Helvetica,sans-Serif" font-size="10.00">quala::BroydenGood</text>
<text text-anchor="middle" x="58" y="-50" font-family="Helvetica,sans-Serif" font-size="10.00">::BroydenGood</text>
</a>
</g>
</g>
<!-- Node2&#45;&gt;Node3 -->
<g id="edge2" class="edge">
<title>Node2&#45;&gt;Node3</title>
<path fill="none" stroke="#63b8ff" d="M293.65,-53.43C239.23,-54.49 166.09,-55.91 116.02,-56.89"/>
<polygon fill="#63b8ff" stroke="#63b8ff" points="294,-56.92 303.93,-53.23 293.86,-49.92 294,-56.92"/>
</g>
<!-- Node4 -->
<g id="node4" class="node">
<title>Node4</title>
<g id="a_node4"><a xlink:href="classquala_1_1BroydenGood.html#abfe51417fbebd259808f86d27f1d7ec5" target="_top" xlink:title="Re&#45;allocate storage for a problem with a different size.">
<polygon fill="white" stroke="#666666" points="268,-30 152,-30 152,0 268,0 268,-30"/>
<text text-anchor="start" x="160" y="-18" font-family="Helvetica,sans-Serif" font-size="10.00">quala::BroydenGood</text>
<text text-anchor="middle" x="210" y="-7" font-family="Helvetica,sans-Serif" font-size="10.00">::resize</text>
</a>
</g>
</g>
<!-- Node2&#45;&gt;Node4 -->
<g id="edge3" class="edge">
<title>Node2&#45;&gt;Node4</title>
<path fill="none" stroke="#63b8ff" d="M316.88,-40.11C301.33,-36.42 284.08,-32.33 268.09,-28.54"/>
<polygon fill="#63b8ff" stroke="#63b8ff" points="316.29,-43.57 326.83,-42.47 317.9,-36.76 316.29,-43.57"/>
</g>
<!-- Node4&#45;&gt;Node3 -->
<g id="edge4" class="edge">
<title>Node4&#45;&gt;Node3</title>
<path fill="none" stroke="#63b8ff" d="M146.79,-32.83C135.04,-36.2 122.85,-39.7 111.43,-42.97"/>
<polygon fill="#63b8ff" stroke="#63b8ff" points="147.89,-36.16 156.54,-30.04 145.96,-29.43 147.89,-36.16"/>
</g>
<!-- Node5 -->
<g id="node5" class="node">
<title>Node5</title>
<g id="a_node5"><a xlink:href="quala_8py_8cpp.html#a12fb4e87da488d1fc7c6fa3e6a3adb90" target="_top" xlink:title=" ">
<polygon fill="white" stroke="#666666" points="114.5,-24.5 1.5,-24.5 1.5,-5.5 114.5,-5.5 114.5,-24.5"/>
<text text-anchor="middle" x="58" y="-12.5" font-family="Helvetica,sans-Serif" font-size="10.00">PYBIND11_MODULE</text>
</a>
</g>
</g>
<!-- Node4&#45;&gt;Node5 -->
<g id="edge5" class="edge">
<title>Node4&#45;&gt;Node5</title>
<path fill="none" stroke="#63b8ff" d="M141.83,-15C132.86,-15 123.74,-15 114.99,-15"/>
<polygon fill="#63b8ff" stroke="#63b8ff" points="141.86,-18.5 151.86,-15 141.86,-11.5 141.86,-18.5"/>
</g>
<!-- Node6&#45;&gt;Node4 -->
<g id="edge7" class="edge">
<title>Node6&#45;&gt;Node4</title>
<path fill="none" stroke="#63b8ff" d="M334.95,-15C315.73,-15 290.72,-15 268.21,-15"/>
<polygon fill="#63b8ff" stroke="#63b8ff" points="334.98,-18.5 344.98,-15 334.98,-11.5 334.98,-18.5"/>
</g>
</g>
</svg>
