<?xml version="1.0" encoding="UTF-8" standalone="no"?>
<!DOCTYPE svg PUBLIC "-//W3C//DTD SVG 1.1//EN"
 "http://www.w3.org/Graphics/SVG/1.1/DTD/svg11.dtd">
<!-- Generated by graphviz version 2.43.0 (0)
 -->
<!-- Title: n Pages: 1 -->
<svg width="954pt" height="493pt"
 viewBox="0.00 0.00 954.00 493.26" xmlns="http://www.w3.org/2000/svg" xmlns:xlink="http://www.w3.org/1999/xlink">
<g id="graph0" class="graph" transform="scale(1 1) rotate(0) translate(4 489.26)">
<title>n</title>
<!-- Node1 -->
<g id="node1" class="node">
<title>Node1</title>
<g id="a_node1"><a xlink:title="Get the size of the s and y vectors in the buffer.">
<polygon fill="#999999" stroke="#666666" points="946,-294.76 917,-294.76 917,-275.76 946,-275.76 946,-294.76"/>
<text text-anchor="middle" x="931.5" y="-282.76" font-family="Helvetica,sans-Serif" font-size="10.00">n</text>
</a>
</g>
</g>
<!-- Node2 -->
<g id="node2" class="node">
<title>Node2</title>
<g id="a_node2"><a xlink:href="classquala_1_1LBFGS.html#a727afc7a58d2e44ae7add57e3fa77bc6" target="_top" xlink:title="Get the size of the s and y vectors in the buffer.">
<polygon fill="white" stroke="#666666" points="881,-437.76 788,-437.76 788,-418.76 881,-418.76 881,-437.76"/>
<text text-anchor="middle" x="834.5" y="-425.76" font-family="Helvetica,sans-Serif" font-size="10.00">quala::LBFGS::n</text>
</a>
</g>
</g>
<!-- Node1&#45;&gt;Node2 -->
<g id="edge1" class="edge">
<title>Node1&#45;&gt;Node2</title>
<path fill="none" stroke="#63b8ff" d="M923.94,-304.45C915.95,-326.15 901,-361.89 881,-388.26 871.98,-400.16 858.96,-411.17 849.16,-418.61"/>
<polygon fill="#63b8ff" stroke="#63b8ff" points="927.34,-305.36 927.39,-294.77 920.74,-303.01 927.34,-305.36"/>
</g>
<!-- Node6 -->
<g id="node6" class="node">
<title>Node6</title>
<g id="a_node6"><a xlink:href="structquala_1_1LBFGSStorage.html#a48072fa680a2364d8ce96eb84a5d5689" target="_top" xlink:title="Re&#45;allocate storage for a problem with a different size.">
<polygon fill="white" stroke="#666666" points="857.5,-378.76 811.5,-378.76 811.5,-359.76 857.5,-359.76 857.5,-378.76"/>
<text text-anchor="middle" x="834.5" y="-366.76" font-family="Helvetica,sans-Serif" font-size="10.00">resize</text>
</a>
</g>
</g>
<!-- Node1&#45;&gt;Node6 -->
<g id="edge7" class="edge">
<title>Node1&#45;&gt;Node6</title>
<path fill="none" stroke="#63b8ff" d="M911.94,-301.67C892.37,-318.97 862.23,-345.62 846.27,-359.74"/>
<polygon fill="#63b8ff" stroke="#63b8ff" points="914.43,-304.14 919.6,-294.9 909.79,-298.9 914.43,-304.14"/>
</g>
<!-- Node7 -->
<g id="node7" class="node">
<title>Node7</title>
<g id="a_node7"><a xlink:href="structquala_1_1LBFGSStorage.html#ac7c2ee7d2562303f555dd1f4c3fca8cd" target="_top" xlink:title=" ">
<polygon fill="white" stroke="#666666" points="849,-297.76 820,-297.76 820,-278.76 849,-278.76 849,-297.76"/>
<text text-anchor="middle" x="834.5" y="-285.76" font-family="Helvetica,sans-Serif" font-size="10.00">α</text>
</a>
</g>
</g>
<!-- Node1&#45;&gt;Node7 -->
<g id="edge9" class="edge">
<title>Node1&#45;&gt;Node7</title>
<path fill="none" stroke="#63b8ff" d="M906.76,-286.01C888.57,-286.58 864.1,-287.36 849.09,-287.83"/>
<polygon fill="#63b8ff" stroke="#63b8ff" points="907,-289.5 916.89,-285.69 906.78,-282.51 907,-289.5"/>
</g>
<!-- Node14 -->
<g id="node14" class="node">
<title>Node14</title>
<g id="a_node14"><a xlink:href="structquala_1_1LBFGSStorage.html#acade3dc51f7ca788be9b91908b2e73ab" target="_top" xlink:title=" ">
<polygon fill="white" stroke="#666666" points="708.5,-228.76 679.5,-228.76 679.5,-209.76 708.5,-209.76 708.5,-228.76"/>
<text text-anchor="middle" x="694" y="-216.76" font-family="Helvetica,sans-Serif" font-size="10.00">ρ</text>
</a>
</g>
</g>
<!-- Node1&#45;&gt;Node14 -->
<g id="edge21" class="edge">
<title>Node1&#45;&gt;Node14</title>
<path fill="none" stroke="#63b8ff" d="M907.02,-277.4C898.81,-274.73 889.53,-271.78 881,-269.26 816.87,-250.29 739.42,-230.44 708.6,-222.67"/>
<polygon fill="#63b8ff" stroke="#63b8ff" points="906.1,-280.79 916.69,-280.59 908.29,-274.14 906.1,-280.79"/>
</g>
<!-- Node17 -->
<g id="node17" class="node">
<title>Node17</title>
<g id="a_node17"><a xlink:href="structquala_1_1LBFGSStorage.html#a15e4a3db39457cabe764a7737d24e73f" target="_top" xlink:title=" ">
<polygon fill="white" stroke="#666666" points="708.5,-77.76 679.5,-77.76 679.5,-58.76 708.5,-58.76 708.5,-77.76"/>
<text text-anchor="middle" x="694" y="-65.76" font-family="Helvetica,sans-Serif" font-size="10.00">s</text>
</a>
</g>
</g>
<!-- Node1&#45;&gt;Node17 -->
<g id="edge29" class="edge">
<title>Node1&#45;&gt;Node17</title>
<path fill="none" stroke="#63b8ff" d="M922.41,-266.44C913.93,-248.14 899.29,-220.27 881,-200.26 826.77,-140.93 741.59,-92.69 708.64,-75.26"/>
<polygon fill="#63b8ff" stroke="#63b8ff" points="919.3,-268.04 926.58,-275.74 925.68,-265.18 919.3,-268.04"/>
</g>
<!-- Node19 -->
<g id="node19" class="node">
<title>Node19</title>
<g id="a_node19"><a xlink:href="structquala_1_1LBFGSStorage.html#aebac2ec4461761a48a7284152a8217f8" target="_top" xlink:title=" ">
<polygon fill="white" stroke="#666666" points="708.5,-191.76 679.5,-191.76 679.5,-172.76 708.5,-172.76 708.5,-191.76"/>
<text text-anchor="middle" x="694" y="-179.76" font-family="Helvetica,sans-Serif" font-size="10.00">y</text>
</a>
</g>
</g>
<!-- Node1&#45;&gt;Node19 -->
<g id="edge36" class="edge">
<title>Node1&#45;&gt;Node19</title>
<path fill="none" stroke="#63b8ff" d="M915.45,-268.33C906.3,-258.92 893.91,-247.65 881,-240.26 822,-206.48 740.98,-189.99 708.9,-184.46"/>
<polygon fill="#63b8ff" stroke="#63b8ff" points="912.93,-270.76 922.32,-275.67 918.04,-265.98 912.93,-270.76"/>
</g>
<!-- Node3 -->
<g id="node3" class="node">
<title>Node3</title>
<g id="a_node3"><a xlink:href="classquala_1_1LBFGS.html#a728dfcb0d540fc7da341b3352dbe1582" target="_top" xlink:title=" ">
<polygon fill="white" stroke="#666666" points="599,-456.76 480,-456.76 480,-437.76 599,-437.76 599,-456.76"/>
<text text-anchor="middle" x="539.5" y="-444.76" font-family="Helvetica,sans-Serif" font-size="10.00">quala::LBFGS::LBFGS</text>
</a>
</g>
</g>
<!-- Node2&#45;&gt;Node3 -->
<g id="edge2" class="edge">
<title>Node2&#45;&gt;Node3</title>
<path fill="none" stroke="#63b8ff" d="M777.51,-431.89C726.37,-435.21 651.03,-440.09 599.09,-443.46"/>
<polygon fill="#63b8ff" stroke="#63b8ff" points="777.97,-435.37 787.72,-431.23 777.51,-428.38 777.97,-435.37"/>
</g>
<!-- Node4 -->
<g id="node4" class="node">
<title>Node4</title>
<g id="a_node4"><a xlink:href="quala_8py_8cpp.html#a12fb4e87da488d1fc7c6fa3e6a3adb90" target="_top" xlink:title=" ">
<polygon fill="white" stroke="#666666" points="113,-228.76 0,-228.76 0,-209.76 113,-209.76 113,-228.76"/>
<text text-anchor="middle" x="56.5" y="-216.76" font-family="Helvetica,sans-Serif" font-size="10.00">PYBIND11_MODULE</text>
</a>
</g>
</g>
<!-- Node2&#45;&gt;Node4 -->
<g id="edge3" class="edge">
<title>Node2&#45;&gt;Node4</title>
<path fill="none" stroke="#63b8ff" d="M794.54,-440.8C738.83,-457.58 632.95,-485.26 540.5,-485.26 540.5,-485.26 540.5,-485.26 373.5,-485.26 261.19,-485.26 231.18,-445.81 149,-369.26 102.8,-326.22 71.49,-254.71 61.2,-228.91"/>
<polygon fill="#63b8ff" stroke="#63b8ff" points="795.8,-444.07 804.34,-437.8 793.75,-437.38 795.8,-444.07"/>
</g>
<!-- Node5 -->
<g id="node5" class="node">
<title>Node5</title>
<g id="a_node5"><a xlink:href="classquala_1_1LBFGS.html#abfe51417fbebd259808f86d27f1d7ec5" target="_top" xlink:title="Re&#45;allocate storage for a problem with a different size.">
<polygon fill="white" stroke="#666666" points="752,-418.76 636,-418.76 636,-399.76 752,-399.76 752,-418.76"/>
<text text-anchor="middle" x="694" y="-406.76" font-family="Helvetica,sans-Serif" font-size="10.00">quala::LBFGS::resize</text>
</a>
</g>
</g>
<!-- Node2&#45;&gt;Node5 -->
<g id="edge4" class="edge">
<title>Node2&#45;&gt;Node5</title>
<path fill="none" stroke="#63b8ff" d="M777.72,-420.61C769.35,-419.46 760.7,-418.27 752.3,-417.12"/>
<polygon fill="#63b8ff" stroke="#63b8ff" points="777.38,-424.09 787.77,-421.99 778.33,-417.16 777.38,-424.09"/>
</g>
<!-- Node5&#45;&gt;Node3 -->
<g id="edge5" class="edge">
<title>Node5&#45;&gt;Node3</title>
<path fill="none" stroke="#63b8ff" d="M644.68,-421.3C623.38,-426.61 598.7,-432.76 578.71,-437.74"/>
<polygon fill="#63b8ff" stroke="#63b8ff" points="645.66,-424.66 654.52,-418.85 643.97,-417.87 645.66,-424.66"/>
</g>
<!-- Node5&#45;&gt;Node4 -->
<g id="edge6" class="edge">
<title>Node5&#45;&gt;Node4</title>
<path fill="none" stroke="#63b8ff" d="M625.55,-415.88C516.39,-423.18 298.23,-423.27 149,-328.26 107.32,-301.72 74.92,-250.12 62.74,-228.82"/>
<polygon fill="#63b8ff" stroke="#63b8ff" points="626.04,-419.36 635.76,-415.16 625.54,-412.38 626.04,-419.36"/>
</g>
<!-- Node6&#45;&gt;Node5 -->
<g id="edge8" class="edge">
<title>Node6&#45;&gt;Node5</title>
<path fill="none" stroke="#63b8ff" d="M801.38,-378.54C779.37,-384.89 750.26,-393.3 728.05,-399.71"/>
<polygon fill="#63b8ff" stroke="#63b8ff" points="802.61,-381.82 811.25,-375.69 800.67,-375.1 802.61,-381.82"/>
</g>
<!-- Node8 -->
<g id="node8" class="node">
<title>Node8</title>
<g id="a_node8"><a xlink:href="classquala_1_1LBFGS.html#ac7c2ee7d2562303f555dd1f4c3fca8cd" target="_top" xlink:title=" ">
<polygon fill="white" stroke="#666666" points="741,-299.76 647,-299.76 647,-280.76 741,-280.76 741,-299.76"/>
<text text-anchor="middle" x="694" y="-287.76" font-family="Helvetica,sans-Serif" font-size="10.00">quala::LBFGS::α</text>
</a>
</g>
</g>
<!-- Node7&#45;&gt;Node8 -->
<g id="edge10" class="edge">
<title>Node7&#45;&gt;Node8</title>
<path fill="none" stroke="#63b8ff" d="M809.94,-288.6C791.17,-288.87 764.32,-289.26 741.29,-289.59"/>
<polygon fill="#63b8ff" stroke="#63b8ff" points="810.02,-292.1 819.97,-288.46 809.92,-285.1 810.02,-292.1"/>
</g>
<!-- Node8&#45;&gt;Node4 -->
<g id="edge13" class="edge">
<title>Node8&#45;&gt;Node4</title>
<path fill="none" stroke="#63b8ff" d="M661.06,-303.52C594.53,-329.35 436.42,-381.46 306,-352.26 206.2,-329.92 103.72,-255.41 69.46,-228.8"/>
<polygon fill="#63b8ff" stroke="#63b8ff" points="662.55,-306.69 670.57,-299.76 659.98,-300.18 662.55,-306.69"/>
</g>
<!-- Node9 -->
<g id="node9" class="node">
<title>Node9</title>
<g id="a_node9"><a xlink:href="classquala_1_1LBFGS.html#a9ae2b583badddda6ec2917bb565688c3" target="_top" xlink:title="Apply the inverse Hessian approximation to the given vector q.">
<polygon fill="white" stroke="#666666" points="431.5,-228.76 317.5,-228.76 317.5,-209.76 431.5,-209.76 431.5,-228.76"/>
<text text-anchor="middle" x="374.5" y="-216.76" font-family="Helvetica,sans-Serif" font-size="10.00">quala::LBFGS::apply</text>
</a>
</g>
</g>
<!-- Node8&#45;&gt;Node9 -->
<g id="edge11" class="edge">
<title>Node8&#45;&gt;Node9</title>
<path fill="none" stroke="#63b8ff" d="M640.49,-278.52C578.19,-264.59 475.54,-241.63 417.99,-228.76"/>
<polygon fill="#63b8ff" stroke="#63b8ff" points="639.99,-281.99 650.51,-280.76 641.51,-275.16 639.99,-281.99"/>
</g>
<!-- Node10 -->
<g id="node10" class="node">
<title>Node10</title>
<g id="a_node10"><a xlink:href="classquala_1_1LBFGS.html#a1109c880f1969f61532c94c19122e927" target="_top" xlink:title="Check if the new vectors s and y allow for a valid BFGS update that preserves the positive definitene...">
<polygon fill="white" stroke="#666666" points="600,-315.26 479,-315.26 479,-285.26 600,-285.26 600,-315.26"/>
<text text-anchor="start" x="487" y="-303.26" font-family="Helvetica,sans-Serif" font-size="10.00">quala::LBFGS::update</text>
<text text-anchor="middle" x="539.5" y="-292.26" font-family="Helvetica,sans-Serif" font-size="10.00">_valid</text>
</a>
</g>
</g>
<!-- Node8&#45;&gt;Node10 -->
<g id="edge14" class="edge">
<title>Node8&#45;&gt;Node10</title>
<path fill="none" stroke="#63b8ff" d="M636.58,-293.96C624.67,-294.74 612.07,-295.57 600.05,-296.35"/>
<polygon fill="#63b8ff" stroke="#63b8ff" points="637.08,-297.43 646.83,-293.29 636.62,-290.45 637.08,-297.43"/>
</g>
<!-- Node9&#45;&gt;Node4 -->
<g id="edge12" class="edge">
<title>Node9&#45;&gt;Node4</title>
<path fill="none" stroke="#63b8ff" d="M307.28,-219.26C249.73,-219.26 167.3,-219.26 113.11,-219.26"/>
<polygon fill="#63b8ff" stroke="#63b8ff" points="307.37,-222.76 317.37,-219.26 307.37,-215.76 307.37,-222.76"/>
</g>
<!-- Node10&#45;&gt;Node4 -->
<g id="edge16" class="edge">
<title>Node10&#45;&gt;Node4</title>
<path fill="none" stroke="#63b8ff" d="M468.44,-296.35C389.82,-290.88 258.88,-278.5 149,-252.26 124.69,-246.46 97.91,-236.33 79.63,-228.83"/>
<polygon fill="#63b8ff" stroke="#63b8ff" points="468.49,-299.86 478.71,-297.05 468.97,-292.88 468.49,-299.86"/>
</g>
<!-- Node11 -->
<g id="node11" class="node">
<title>Node11</title>
<g id="a_node11"><a xlink:href="classquala_1_1LBFGS.html#a0e0ce3dda38d6f64657929adcf05e2c8" target="_top" xlink:title="Apply the inverse Hessian approximation to the given vector q, applying only the columns and rows of ...">
<polygon fill="white" stroke="#666666" points="431.5,-342.76 317.5,-342.76 317.5,-323.76 431.5,-323.76 431.5,-342.76"/>
<text text-anchor="middle" x="374.5" y="-330.76" font-family="Helvetica,sans-Serif" font-size="10.00">quala::LBFGS::apply</text>
</a>
</g>
</g>
<!-- Node10&#45;&gt;Node11 -->
<g id="edge15" class="edge">
<title>Node10&#45;&gt;Node11</title>
<path fill="none" stroke="#63b8ff" d="M468.61,-314.41C453.04,-317.56 436.89,-320.83 422.5,-323.74"/>
<polygon fill="#63b8ff" stroke="#63b8ff" points="469.62,-317.78 478.73,-312.36 468.23,-310.91 469.62,-317.78"/>
</g>
<!-- Node12 -->
<g id="node12" class="node">
<title>Node12</title>
<g id="a_node12"><a xlink:href="classquala_1_1LBFGS.html#af150290995e6bee28f5a0f057ed511c8" target="_top" xlink:title="Update the inverse Hessian approximation using the new vectors sₖ = xₖ₊₁ &#45; xₖ and yₖ = pₖ₊₁ &#45; pₖ.">
<polygon fill="white" stroke="#666666" points="443,-77.76 306,-77.76 306,-58.76 443,-58.76 443,-77.76"/>
<text text-anchor="middle" x="374.5" y="-65.76" font-family="Helvetica,sans-Serif" font-size="10.00">quala::LBFGS::update_sy</text>
</a>
</g>
</g>
<!-- Node10&#45;&gt;Node12 -->
<g id="edge17" class="edge">
<title>Node10&#45;&gt;Node12</title>
<path fill="none" stroke="#63b8ff" d="M514.35,-278.08C502.74,-266.62 489.17,-251.98 479,-237.26 458.2,-207.17 461.66,-194.72 443,-163.26 423.6,-130.54 396.29,-94.64 383.15,-77.88"/>
<polygon fill="#63b8ff" stroke="#63b8ff" points="512.01,-280.69 521.64,-285.12 516.87,-275.66 512.01,-280.69"/>
</g>
<!-- Node12&#45;&gt;Node4 -->
<g id="edge18" class="edge">
<title>Node12&#45;&gt;Node4</title>
<path fill="none" stroke="#63b8ff" d="M317.65,-80.03C260.96,-92.57 177.58,-112.85 149,-129.26 111.71,-150.67 78.64,-190.95 64.62,-209.48"/>
<polygon fill="#63b8ff" stroke="#63b8ff" points="318.54,-83.41 327.56,-77.85 317.04,-76.58 318.54,-83.41"/>
</g>
<!-- Node13 -->
<g id="node13" class="node">
<title>Node13</title>
<g id="a_node13"><a xlink:href="classquala_1_1LBFGS.html#ae34a8e5e432c990eb8af2f95bcbc04bd" target="_top" xlink:title="Update the inverse Hessian approximation using the new vectors xₖ₊₁ and pₖ₊₁.">
<polygon fill="white" stroke="#666666" points="270,-76.76 149,-76.76 149,-57.76 270,-57.76 270,-76.76"/>
<text text-anchor="middle" x="209.5" y="-64.76" font-family="Helvetica,sans-Serif" font-size="10.00">quala::LBFGS::update</text>
</a>
</g>
</g>
<!-- Node12&#45;&gt;Node13 -->
<g id="edge19" class="edge">
<title>Node12&#45;&gt;Node13</title>
<path fill="none" stroke="#63b8ff" d="M295.75,-67.78C287.17,-67.73 278.52,-67.68 270.2,-67.63"/>
<polygon fill="#63b8ff" stroke="#63b8ff" points="295.77,-71.28 305.79,-67.84 295.81,-64.28 295.77,-71.28"/>
</g>
<!-- Node13&#45;&gt;Node4 -->
<g id="edge20" class="edge">
<title>Node13&#45;&gt;Node4</title>
<path fill="none" stroke="#63b8ff" d="M165.81,-80.99C159.86,-83.88 154.05,-87.28 149,-91.26 105.43,-125.55 73.42,-185.95 62.04,-209.48"/>
<polygon fill="#63b8ff" stroke="#63b8ff" points="167.46,-84.09 175.21,-76.87 164.65,-77.68 167.46,-84.09"/>
</g>
<!-- Node14&#45;&gt;Node12 -->
<g id="edge22" class="edge">
<title>Node14&#45;&gt;Node12</title>
<path fill="none" stroke="#63b8ff" d="M669.14,-214.04C658.48,-211.04 646.07,-206.58 636,-200.26 616.57,-188.06 619.54,-175.29 600,-163.26 552,-133.72 526.61,-155.43 479,-125.26 459.07,-112.63 463.2,-98.45 443,-86.26 437.39,-82.88 431.15,-80.12 424.78,-77.87"/>
<polygon fill="#63b8ff" stroke="#63b8ff" points="668.52,-217.49 679.07,-216.57 670.25,-210.71 668.52,-217.49"/>
</g>
<!-- Node15 -->
<g id="node15" class="node">
<title>Node15</title>
<g id="a_node15"><a xlink:href="classquala_1_1LBFGS.html#acade3dc51f7ca788be9b91908b2e73ab" target="_top" xlink:title=" ">
<polygon fill="white" stroke="#666666" points="586,-228.76 493,-228.76 493,-209.76 586,-209.76 586,-228.76"/>
<text text-anchor="middle" x="539.5" y="-216.76" font-family="Helvetica,sans-Serif" font-size="10.00">quala::LBFGS::ρ</text>
</a>
</g>
</g>
<!-- Node14&#45;&gt;Node15 -->
<g id="edge23" class="edge">
<title>Node14&#45;&gt;Node15</title>
<path fill="none" stroke="#63b8ff" d="M669.34,-219.26C647.24,-219.26 613.65,-219.26 586.31,-219.26"/>
<polygon fill="#63b8ff" stroke="#63b8ff" points="669.47,-222.76 679.47,-219.26 669.47,-215.76 669.47,-222.76"/>
</g>
<!-- Node15&#45;&gt;Node4 -->
<g id="edge25" class="edge">
<title>Node15&#45;&gt;Node4</title>
<path fill="none" stroke="#63b8ff" d="M486.85,-230.81C472.71,-233.48 457.33,-235.92 443,-237.26 312.89,-249.41 279.17,-244.83 149,-233.26 137.15,-232.21 124.51,-230.59 112.52,-228.83"/>
<polygon fill="#63b8ff" stroke="#63b8ff" points="487.76,-234.2 496.9,-228.84 486.41,-227.33 487.76,-234.2"/>
</g>
<!-- Node15&#45;&gt;Node9 -->
<g id="edge24" class="edge">
<title>Node15&#45;&gt;Node9</title>
<path fill="none" stroke="#63b8ff" d="M482.65,-219.26C466.2,-219.26 448.19,-219.26 431.72,-219.26"/>
<polygon fill="#63b8ff" stroke="#63b8ff" points="482.66,-222.76 492.66,-219.26 482.66,-215.76 482.66,-222.76"/>
</g>
<!-- Node15&#45;&gt;Node12 -->
<g id="edge28" class="edge">
<title>Node15&#45;&gt;Node12</title>
<path fill="none" stroke="#63b8ff" d="M488.09,-205.62C484.91,-204.02 481.85,-202.24 479,-200.26 453.89,-182.81 400.33,-105.16 381.89,-77.82"/>
<polygon fill="#63b8ff" stroke="#63b8ff" points="486.73,-208.84 497.29,-209.67 489.55,-202.44 486.73,-208.84"/>
</g>
<!-- Node16 -->
<g id="node16" class="node">
<title>Node16</title>
<g id="a_node16"><a xlink:href="classquala_1_1LBFGS.html#adeddc1e1eb8ce1c1bbaf931b6f9a5b9c" target="_top" xlink:title="Scale the stored y vectors by the given factor.">
<polygon fill="white" stroke="#666666" points="436.5,-191.76 312.5,-191.76 312.5,-172.76 436.5,-172.76 436.5,-191.76"/>
<text text-anchor="middle" x="374.5" y="-179.76" font-family="Helvetica,sans-Serif" font-size="10.00">quala::LBFGS::scale_y</text>
</a>
</g>
</g>
<!-- Node15&#45;&gt;Node16 -->
<g id="edge26" class="edge">
<title>Node15&#45;&gt;Node16</title>
<path fill="none" stroke="#63b8ff" d="M486.57,-207.47C464.31,-202.42 438.66,-196.6 417.62,-191.82"/>
<polygon fill="#63b8ff" stroke="#63b8ff" points="486,-210.93 496.52,-209.73 487.55,-204.1 486,-210.93"/>
</g>
<!-- Node16&#45;&gt;Node4 -->
<g id="edge27" class="edge">
<title>Node16&#45;&gt;Node4</title>
<path fill="none" stroke="#63b8ff" d="M302.13,-190.62C244.89,-197.32 165.67,-206.59 113.08,-212.75"/>
<polygon fill="#63b8ff" stroke="#63b8ff" points="302.67,-194.08 312.2,-189.44 301.86,-187.12 302.67,-194.08"/>
</g>
<!-- Node17&#45;&gt;Node12 -->
<g id="edge35" class="edge">
<title>Node17&#45;&gt;Node12</title>
<path fill="none" stroke="#63b8ff" d="M669.16,-68.26C621.73,-68.26 513.98,-68.26 443.03,-68.26"/>
<polygon fill="#63b8ff" stroke="#63b8ff" points="669.36,-71.76 679.36,-68.26 669.36,-64.76 669.36,-71.76"/>
</g>
<!-- Node18 -->
<g id="node18" class="node">
<title>Node18</title>
<g id="a_node18"><a xlink:href="classquala_1_1LBFGS.html#a15e4a3db39457cabe764a7737d24e73f" target="_top" xlink:title=" ">
<polygon fill="white" stroke="#666666" points="585.5,-39.76 493.5,-39.76 493.5,-20.76 585.5,-20.76 585.5,-39.76"/>
<text text-anchor="middle" x="539.5" y="-27.76" font-family="Helvetica,sans-Serif" font-size="10.00">quala::LBFGS::s</text>
</a>
</g>
</g>
<!-- Node17&#45;&gt;Node18 -->
<g id="edge30" class="edge">
<title>Node17&#45;&gt;Node18</title>
<path fill="none" stroke="#63b8ff" d="M669.74,-62.46C645.57,-56.44 607.35,-46.92 578.73,-39.79"/>
<polygon fill="#63b8ff" stroke="#63b8ff" points="668.92,-65.87 679.47,-64.89 670.61,-59.07 668.92,-65.87"/>
</g>
<!-- Node18&#45;&gt;Node4 -->
<g id="edge32" class="edge">
<title>Node18&#45;&gt;Node4</title>
<path fill="none" stroke="#63b8ff" d="M493.1,-18.41C415.32,-0.92 254.74,22.62 149,-48.26 89.71,-88 65.87,-179.19 59.43,-209.36"/>
<polygon fill="#63b8ff" stroke="#63b8ff" points="492.53,-21.87 503.06,-20.72 494.11,-15.05 492.53,-21.87"/>
</g>
<!-- Node18&#45;&gt;Node9 -->
<g id="edge31" class="edge">
<title>Node18&#45;&gt;Node9</title>
<path fill="none" stroke="#63b8ff" d="M533.02,-49.72C522.03,-85.15 493.87,-160.23 443,-200.26 438.02,-204.17 432.29,-207.28 426.3,-209.75"/>
<polygon fill="#63b8ff" stroke="#63b8ff" points="536.39,-50.66 535.89,-40.08 529.68,-48.67 536.39,-50.66"/>
</g>
<!-- Node18&#45;&gt;Node12 -->
<g id="edge34" class="edge">
<title>Node18&#45;&gt;Node12</title>
<path fill="none" stroke="#63b8ff" d="M487.47,-42.16C464.56,-47.5 437.9,-53.71 416.34,-58.74"/>
<polygon fill="#63b8ff" stroke="#63b8ff" points="488.42,-45.53 497.37,-39.85 486.83,-38.71 488.42,-45.53"/>
</g>
<!-- Node18&#45;&gt;Node13 -->
<g id="edge33" class="edge">
<title>Node18&#45;&gt;Node13</title>
<path fill="none" stroke="#63b8ff" d="M483.33,-33.14C436.11,-35.99 366.39,-41.12 306,-49.26 289.61,-51.47 271.78,-54.62 256,-57.68"/>
<polygon fill="#63b8ff" stroke="#63b8ff" points="483.57,-36.63 493.34,-32.55 483.15,-29.64 483.57,-36.63"/>
</g>
<!-- Node19&#45;&gt;Node12 -->
<g id="edge37" class="edge">
<title>Node19&#45;&gt;Node12</title>
<path fill="none" stroke="#63b8ff" d="M670.83,-167.86C652.45,-156.41 625.32,-140.66 600,-130.26 540.71,-105.92 468.78,-87.95 422.59,-77.8"/>
<polygon fill="#63b8ff" stroke="#63b8ff" points="669.02,-170.85 679.35,-173.24 672.76,-164.94 669.02,-170.85"/>
</g>
<!-- Node20 -->
<g id="node20" class="node">
<title>Node20</title>
<g id="a_node20"><a xlink:href="classquala_1_1LBFGS.html#aebac2ec4461761a48a7284152a8217f8" target="_top" xlink:title=" ">
<polygon fill="white" stroke="#666666" points="586,-191.76 493,-191.76 493,-172.76 586,-172.76 586,-191.76"/>
<text text-anchor="middle" x="539.5" y="-179.76" font-family="Helvetica,sans-Serif" font-size="10.00">quala::LBFGS::y</text>
</a>
</g>
</g>
<!-- Node19&#45;&gt;Node20 -->
<g id="edge38" class="edge">
<title>Node19&#45;&gt;Node20</title>
<path fill="none" stroke="#63b8ff" d="M669.34,-182.26C647.24,-182.26 613.65,-182.26 586.31,-182.26"/>
<polygon fill="#63b8ff" stroke="#63b8ff" points="669.47,-185.76 679.47,-182.26 669.47,-178.76 669.47,-185.76"/>
</g>
<!-- Node20&#45;&gt;Node4 -->
<g id="edge40" class="edge">
<title>Node20&#45;&gt;Node4</title>
<path fill="none" stroke="#63b8ff" d="M489.7,-170.63C474.8,-167.6 458.31,-164.77 443,-163.26 312.33,-150.39 276.7,-161.71 149,-192.26 128.06,-197.27 104.79,-204.15 86.96,-209.72"/>
<polygon fill="#63b8ff" stroke="#63b8ff" points="489.22,-174.11 499.73,-172.75 490.67,-167.26 489.22,-174.11"/>
</g>
<!-- Node20&#45;&gt;Node9 -->
<g id="edge39" class="edge">
<title>Node20&#45;&gt;Node9</title>
<path fill="none" stroke="#63b8ff" d="M486.57,-194.05C464.31,-199.1 438.66,-204.92 417.62,-209.7"/>
<polygon fill="#63b8ff" stroke="#63b8ff" points="487.55,-197.42 496.52,-191.79 486,-190.59 487.55,-197.42"/>
</g>
<!-- Node20&#45;&gt;Node12 -->
<g id="edge43" class="edge">
<title>Node20&#45;&gt;Node12</title>
<path fill="none" stroke="#63b8ff" d="M494.16,-168.45C488.7,-165.62 483.48,-162.25 479,-158.26 454.04,-136.04 468.41,-113.95 443,-92.26 435.62,-85.96 426.47,-81.27 417.32,-77.8"/>
<polygon fill="#63b8ff" stroke="#63b8ff" points="492.93,-171.74 503.48,-172.74 495.86,-165.38 492.93,-171.74"/>
</g>
<!-- Node20&#45;&gt;Node13 -->
<g id="edge42" class="edge">
<title>Node20&#45;&gt;Node13</title>
<path fill="none" stroke="#63b8ff" d="M500.44,-168.75C493.15,-165.65 485.7,-162.12 479,-158.26 461.43,-148.15 461.14,-139.31 443,-130.26 409.88,-113.74 311.42,-89.94 253.8,-76.83"/>
<polygon fill="#63b8ff" stroke="#63b8ff" points="499.62,-172.19 510.2,-172.69 502.24,-165.7 499.62,-172.19"/>
</g>
<!-- Node20&#45;&gt;Node16 -->
<g id="edge41" class="edge">
<title>Node20&#45;&gt;Node16</title>
<path fill="none" stroke="#63b8ff" d="M482.61,-182.26C467.75,-182.26 451.63,-182.26 436.51,-182.26"/>
<polygon fill="#63b8ff" stroke="#63b8ff" points="482.66,-185.76 492.66,-182.26 482.66,-178.76 482.66,-185.76"/>
</g>
</g>
</svg>
