<?xml version="1.0" encoding="UTF-8" standalone="no"?>
<!DOCTYPE svg PUBLIC "-//W3C//DTD SVG 1.1//EN"
 "http://www.w3.org/Graphics/SVG/1.1/DTD/svg11.dtd">
<!-- Generated by graphviz version 2.43.0 (0)
 -->
<!-- Title: LBFGSParams Pages: 1 -->
<svg width="112pt" height="192pt"
 viewBox="0.00 0.00 112.00 192.00" xmlns="http://www.w3.org/2000/svg" xmlns:xlink="http://www.w3.org/1999/xlink">
<g id="graph0" class="graph" transform="scale(1 1) rotate(0) translate(4 188)">
<title>LBFGSParams</title>
<!-- Node1 -->
<g id="node1" class="node">
<title>Node1</title>
<g id="a_node1"><a xlink:title="Parameters for the LBFGS class.">
<polygon fill="#999999" stroke="#666666" points="100,-74 4,-74 4,0 100,0 100,-74"/>
<text text-anchor="middle" x="52" y="-62" font-family="Helvetica,sans-Serif" font-size="10.00">{LBFGSParams</text>
<text text-anchor="start" x="12" y="-51" font-family="Helvetica,sans-Serif" font-size="10.00">|+ memory</text>
<text text-anchor="start" x="12" y="-40" font-family="Helvetica,sans-Serif" font-size="10.00">+ min_div_fac</text>
<text text-anchor="start" x="12" y="-29" font-family="Helvetica,sans-Serif" font-size="10.00">+ min_abs_s</text>
<text text-anchor="start" x="12" y="-18" font-family="Helvetica,sans-Serif" font-size="10.00">+ force_pos_def</text>
<text text-anchor="middle" x="52" y="-7" font-family="Helvetica,sans-Serif" font-size="10.00">|}</text>
</a>
</g>
</g>
<!-- Node2 -->
<g id="node2" class="node">
<title>Node2</title>
<g id="a_node2"><a xlink:href="structquala_1_1LBFGSParams_1_1CBFGSParams.html" target="_top" xlink:title="Cautious BFGS update.">
<polygon fill="white" stroke="#666666" points="104,-184 0,-184 0,-121 104,-121 104,-184"/>
<text text-anchor="middle" x="52" y="-172" font-family="Helvetica,sans-Serif" font-size="10.00">{CBFGSParams</text>
<text text-anchor="start" x="8" y="-161" font-family="Helvetica,sans-Serif" font-size="10.00">|+ α</text>
<text text-anchor="start" x="8" y="-150" font-family="Helvetica,sans-Serif" font-size="10.00">+ ϵ</text>
<text text-anchor="start" x="8" y="-139" font-family="Helvetica,sans-Serif" font-size="10.00">|+ operator bool()</text>
<text text-anchor="middle" x="52" y="-128" font-family="Helvetica,sans-Serif" font-size="10.00">}</text>
</a>
</g>
</g>
<!-- Node2&#45;&gt;Node1 -->
<g id="edge1" class="edge">
<title>Node2&#45;&gt;Node1</title>
<path fill="none" stroke="#404040" d="M52,-120.79C52,-110.27 52,-98.24 52,-86.67"/>
<polygon fill="none" stroke="#404040" points="52,-86.38 48,-80.38 52,-74.38 56,-80.38 52,-86.38"/>
<text text-anchor="middle" x="71" y="-95" font-family="Helvetica,sans-Serif" font-size="10.00"> +cbfgs</text>
</g>
</g>
</svg>
