<?xml version="1.0" encoding="UTF-8" standalone="no"?>
<!DOCTYPE svg PUBLIC "-//W3C//DTD SVG 1.1//EN"
 "http://www.w3.org/Graphics/SVG/1.1/DTD/svg11.dtd">
<!-- Generated by graphviz version 2.43.0 (0)
 -->
<!-- Title: resize Pages: 1 -->
<svg width="361pt" height="64pt"
 viewBox="0.00 0.00 361.00 64.00" xmlns="http://www.w3.org/2000/svg" xmlns:xlink="http://www.w3.org/1999/xlink">
<g id="graph0" class="graph" transform="scale(1 1) rotate(0) translate(4 60)">
<title>resize</title>
<!-- Node1 -->
<g id="node1" class="node">
<title>Node1</title>
<g id="a_node1"><a xlink:title="Re&#45;allocate storage for a problem with a different size.">
<polygon fill="#999999" stroke="#666666" points="353,-37 307,-37 307,-18 353,-18 353,-37"/>
<text text-anchor="middle" x="330" y="-25" font-family="Helvetica,sans-Serif" font-size="10.00">resize</text>
</a>
</g>
</g>
<!-- Node2 -->
<g id="node2" class="node">
<title>Node2</title>
<g id="a_node2"><a xlink:href="classquala_1_1LBFGS.html#abfe51417fbebd259808f86d27f1d7ec5" target="_top" xlink:title="Re&#45;allocate storage for a problem with a different size.">
<polygon fill="white" stroke="#666666" points="271,-37 155,-37 155,-18 271,-18 271,-37"/>
<text text-anchor="middle" x="213" y="-25" font-family="Helvetica,sans-Serif" font-size="10.00">quala::LBFGS::resize</text>
</a>
</g>
</g>
<!-- Node1&#45;&gt;Node2 -->
<g id="edge1" class="edge">
<title>Node1&#45;&gt;Node2</title>
<path fill="none" stroke="#63b8ff" d="M296.65,-27.5C288.77,-27.5 280.11,-27.5 271.46,-27.5"/>
<polygon fill="#63b8ff" stroke="#63b8ff" points="296.83,-31 306.83,-27.5 296.83,-24 296.83,-31"/>
</g>
<!-- Node3 -->
<g id="node3" class="node">
<title>Node3</title>
<g id="a_node3"><a xlink:href="classquala_1_1LBFGS.html#a728dfcb0d540fc7da341b3352dbe1582" target="_top" xlink:title=" ">
<polygon fill="white" stroke="#666666" points="119,-56 0,-56 0,-37 119,-37 119,-56"/>
<text text-anchor="middle" x="59.5" y="-44" font-family="Helvetica,sans-Serif" font-size="10.00">quala::LBFGS::LBFGS</text>
</a>
</g>
</g>
<!-- Node2&#45;&gt;Node3 -->
<g id="edge2" class="edge">
<title>Node2&#45;&gt;Node3</title>
<path fill="none" stroke="#63b8ff" d="M144.78,-35.93C136.22,-37 127.52,-38.09 119.12,-39.15"/>
<polygon fill="#63b8ff" stroke="#63b8ff" points="145.24,-39.4 154.72,-34.68 144.37,-32.45 145.24,-39.4"/>
</g>
<!-- Node4 -->
<g id="node4" class="node">
<title>Node4</title>
<g id="a_node4"><a xlink:href="quala_8py_8cpp.html#a12fb4e87da488d1fc7c6fa3e6a3adb90" target="_top" xlink:title=" ">
<polygon fill="white" stroke="#666666" points="116,-19 3,-19 3,0 116,0 116,-19"/>
<text text-anchor="middle" x="59.5" y="-7" font-family="Helvetica,sans-Serif" font-size="10.00">PYBIND11_MODULE</text>
</a>
</g>
</g>
<!-- Node2&#45;&gt;Node4 -->
<g id="edge3" class="edge">
<title>Node2&#45;&gt;Node4</title>
<path fill="none" stroke="#63b8ff" d="M144.52,-19.48C135.02,-18.35 125.34,-17.2 116.1,-16.11"/>
<polygon fill="#63b8ff" stroke="#63b8ff" points="144.38,-22.99 154.72,-20.69 145.21,-16.04 144.38,-22.99"/>
</g>
</g>
</svg>
