<?xml version="1.0" encoding="UTF-8" standalone="no"?>
<!DOCTYPE svg PUBLIC "-//W3C//DTD SVG 1.1//EN"
 "http://www.w3.org/Graphics/SVG/1.1/DTD/svg11.dtd">
<!-- Generated by graphviz version 2.43.0 (0)
 -->
<!-- Title: ρ Pages: 1 -->
<svg width="645pt" height="160pt"
 viewBox="0.00 0.00 645.00 159.64" xmlns="http://www.w3.org/2000/svg" xmlns:xlink="http://www.w3.org/1999/xlink">
<g id="graph0" class="graph" transform="scale(1 1) rotate(0) translate(4 155.64)">
<title>ρ</title>
<!-- Node1 -->
<g id="node1" class="node">
<title>Node1</title>
<g id="a_node1"><a xlink:title=" ">
<polygon fill="#999999" stroke="#666666" points="637,-114 608,-114 608,-95 637,-95 637,-114"/>
<text text-anchor="middle" x="622.5" y="-102" font-family="Helvetica,sans-Serif" font-size="10.00">ρ</text>
</a>
</g>
</g>
<!-- Node2 -->
<g id="node2" class="node">
<title>Node2</title>
<g id="a_node2"><a xlink:href="classquala_1_1LBFGS.html#af150290995e6bee28f5a0f057ed511c8" target="_top" xlink:title="Update the inverse Hessian approximation using the new vectors sₖ = xₖ₊₁ &#45; xₖ and yₖ = pₖ₊₁ &#45; pₖ.">
<polygon fill="white" stroke="#666666" points="443,-133 306,-133 306,-114 443,-114 443,-133"/>
<text text-anchor="middle" x="374.5" y="-121" font-family="Helvetica,sans-Serif" font-size="10.00">quala::LBFGS::update_sy</text>
</a>
</g>
</g>
<!-- Node1&#45;&gt;Node2 -->
<g id="edge1" class="edge">
<title>Node1&#45;&gt;Node2</title>
<path fill="none" stroke="#63b8ff" d="M597.63,-106.34C562.25,-109.08 494.54,-114.31 443.13,-118.28"/>
<polygon fill="#63b8ff" stroke="#63b8ff" points="598.22,-109.81 607.92,-105.55 597.68,-102.83 598.22,-109.81"/>
</g>
<!-- Node5 -->
<g id="node5" class="node">
<title>Node5</title>
<g id="a_node5"><a xlink:href="classquala_1_1LBFGS.html#acade3dc51f7ca788be9b91908b2e73ab" target="_top" xlink:title=" ">
<polygon fill="white" stroke="#666666" points="572,-95 479,-95 479,-76 572,-76 572,-95"/>
<text text-anchor="middle" x="525.5" y="-83" font-family="Helvetica,sans-Serif" font-size="10.00">quala::LBFGS::ρ</text>
</a>
</g>
</g>
<!-- Node1&#45;&gt;Node5 -->
<g id="edge5" class="edge">
<title>Node1&#45;&gt;Node5</title>
<path fill="none" stroke="#63b8ff" d="M598.07,-99.81C590.24,-98.25 581.22,-96.44 572.29,-94.66"/>
<polygon fill="#63b8ff" stroke="#63b8ff" points="597.4,-103.25 607.89,-101.78 598.77,-96.38 597.4,-103.25"/>
</g>
<!-- Node3 -->
<g id="node3" class="node">
<title>Node3</title>
<g id="a_node3"><a xlink:href="quala_8py_8cpp.html#a12fb4e87da488d1fc7c6fa3e6a3adb90" target="_top" xlink:title=" ">
<polygon fill="white" stroke="#666666" points="113,-95 0,-95 0,-76 113,-76 113,-95"/>
<text text-anchor="middle" x="56.5" y="-83" font-family="Helvetica,sans-Serif" font-size="10.00">PYBIND11_MODULE</text>
</a>
</g>
</g>
<!-- Node2&#45;&gt;Node3 -->
<g id="edge2" class="edge">
<title>Node2&#45;&gt;Node3</title>
<path fill="none" stroke="#63b8ff" d="M332.49,-135.62C286.82,-147.15 211.23,-160.3 149,-142.5 116.61,-133.24 84.53,-108.82 68.34,-95.14"/>
<polygon fill="#63b8ff" stroke="#63b8ff" points="333.53,-138.97 342.32,-133.05 331.76,-132.19 333.53,-138.97"/>
</g>
<!-- Node4 -->
<g id="node4" class="node">
<title>Node4</title>
<g id="a_node4"><a xlink:href="classquala_1_1LBFGS.html#ae34a8e5e432c990eb8af2f95bcbc04bd" target="_top" xlink:title="Update the inverse Hessian approximation using the new vectors xₖ₊₁ and pₖ₊₁.">
<polygon fill="white" stroke="#666666" points="270,-133 149,-133 149,-114 270,-114 270,-133"/>
<text text-anchor="middle" x="209.5" y="-121" font-family="Helvetica,sans-Serif" font-size="10.00">quala::LBFGS::update</text>
</a>
</g>
</g>
<!-- Node2&#45;&gt;Node4 -->
<g id="edge3" class="edge">
<title>Node2&#45;&gt;Node4</title>
<path fill="none" stroke="#63b8ff" d="M295.75,-123.5C287.17,-123.5 278.52,-123.5 270.2,-123.5"/>
<polygon fill="#63b8ff" stroke="#63b8ff" points="295.79,-127 305.79,-123.5 295.79,-120 295.79,-127"/>
</g>
<!-- Node4&#45;&gt;Node3 -->
<g id="edge4" class="edge">
<title>Node4&#45;&gt;Node3</title>
<path fill="none" stroke="#63b8ff" d="M160.66,-111.46C139.56,-106.15 115.12,-100 95.33,-95.02"/>
<polygon fill="#63b8ff" stroke="#63b8ff" points="159.84,-114.86 170.4,-113.91 161.55,-108.08 159.84,-114.86"/>
</g>
<!-- Node5&#45;&gt;Node2 -->
<g id="edge11" class="edge">
<title>Node5&#45;&gt;Node2</title>
<path fill="none" stroke="#63b8ff" d="M477.01,-97.61C456.26,-102.9 432.27,-109.02 412.83,-113.98"/>
<polygon fill="#63b8ff" stroke="#63b8ff" points="478.08,-100.95 486.9,-95.09 476.35,-94.17 478.08,-100.95"/>
</g>
<!-- Node5&#45;&gt;Node3 -->
<g id="edge8" class="edge">
<title>Node5&#45;&gt;Node3</title>
<path fill="none" stroke="#63b8ff" d="M468.6,-85.5C378.63,-85.5 202.72,-85.5 113,-85.5"/>
<polygon fill="#63b8ff" stroke="#63b8ff" points="468.87,-89 478.87,-85.5 468.87,-82 468.87,-89"/>
</g>
<!-- Node6 -->
<g id="node6" class="node">
<title>Node6</title>
<g id="a_node6"><a xlink:href="classquala_1_1LBFGS.html#a9ae2b583badddda6ec2917bb565688c3" target="_top" xlink:title="Apply the inverse Hessian approximation to the given vector q.">
<polygon fill="white" stroke="#666666" points="266.5,-57 152.5,-57 152.5,-38 266.5,-38 266.5,-57"/>
<text text-anchor="middle" x="209.5" y="-45" font-family="Helvetica,sans-Serif" font-size="10.00">quala::LBFGS::apply</text>
</a>
</g>
</g>
<!-- Node5&#45;&gt;Node6 -->
<g id="edge6" class="edge">
<title>Node5&#45;&gt;Node6</title>
<path fill="none" stroke="#63b8ff" d="M468.87,-75.43C460.23,-74.01 451.38,-72.65 443,-71.5 382.9,-63.25 313.7,-56.45 266.53,-52.22"/>
<polygon fill="#63b8ff" stroke="#63b8ff" points="468.45,-78.91 478.89,-77.11 469.61,-72.01 468.45,-78.91"/>
</g>
<!-- Node7 -->
<g id="node7" class="node">
<title>Node7</title>
<g id="a_node7"><a xlink:href="classquala_1_1LBFGS.html#adeddc1e1eb8ce1c1bbaf931b6f9a5b9c" target="_top" xlink:title="Scale the stored y vectors by the given factor.">
<polygon fill="white" stroke="#666666" points="436.5,-19 312.5,-19 312.5,0 436.5,0 436.5,-19"/>
<text text-anchor="middle" x="374.5" y="-7" font-family="Helvetica,sans-Serif" font-size="10.00">quala::LBFGS::scale_y</text>
</a>
</g>
</g>
<!-- Node5&#45;&gt;Node7 -->
<g id="edge9" class="edge">
<title>Node5&#45;&gt;Node7</title>
<path fill="none" stroke="#63b8ff" d="M502.9,-69.81C486.91,-58.67 464.3,-43.92 443,-33.5 431.6,-27.93 418.57,-22.99 407.02,-19.06"/>
<polygon fill="#63b8ff" stroke="#63b8ff" points="501.3,-72.96 511.49,-75.88 505.35,-67.25 501.3,-72.96"/>
</g>
<!-- Node6&#45;&gt;Node3 -->
<g id="edge7" class="edge">
<title>Node6&#45;&gt;Node3</title>
<path fill="none" stroke="#63b8ff" d="M160.66,-59.54C139.56,-64.85 115.12,-71 95.33,-75.98"/>
<polygon fill="#63b8ff" stroke="#63b8ff" points="161.55,-62.92 170.4,-57.09 159.84,-56.14 161.55,-62.92"/>
</g>
<!-- Node7&#45;&gt;Node3 -->
<g id="edge10" class="edge">
<title>Node7&#45;&gt;Node3</title>
<path fill="none" stroke="#63b8ff" d="M302.15,-7.08C257.15,-7.6 198.42,-12.08 149,-28.5 117.21,-39.06 85.14,-62.72 68.73,-76"/>
<polygon fill="#63b8ff" stroke="#63b8ff" points="302.42,-10.58 312.4,-7.03 302.38,-3.58 302.42,-10.58"/>
</g>
</g>
</svg>
