<?xml version="1.0" encoding="UTF-8" standalone="no"?>
<!DOCTYPE svg PUBLIC "-//W3C//DTD SVG 1.1//EN"
 "http://www.w3.org/Graphics/SVG/1.1/DTD/svg11.dtd">
<!-- Generated by graphviz version 2.43.0 (0)
 -->
<!-- Title: s Pages: 1 -->
<svg width="504pt" height="124pt"
 viewBox="0.00 0.00 504.00 124.00" xmlns="http://www.w3.org/2000/svg" xmlns:xlink="http://www.w3.org/1999/xlink">
<g id="graph0" class="graph" transform="scale(1 1) rotate(0) translate(4 120)">
<title>s</title>
<!-- Node1 -->
<g id="node1" class="node">
<title>Node1</title>
<g id="a_node1"><a xlink:title=" ">
<polygon fill="#999999" stroke="#666666" points="496,-45.5 467,-45.5 467,-26.5 496,-26.5 496,-45.5"/>
<text text-anchor="middle" x="481.5" y="-33.5" font-family="Helvetica,sans-Serif" font-size="10.00">s</text>
</a>
</g>
</g>
<!-- Node2 -->
<g id="node2" class="node">
<title>Node2</title>
<g id="a_node2"><a xlink:href="classquala_1_1BroydenGood.html#a15e4a3db39457cabe764a7737d24e73f" target="_top" xlink:title=" ">
<polygon fill="white" stroke="#666666" points="431,-65.5 304,-65.5 304,-46.5 431,-46.5 431,-65.5"/>
<text text-anchor="middle" x="367.5" y="-53.5" font-family="Helvetica,sans-Serif" font-size="10.00">quala::BroydenGood::s</text>
</a>
</g>
</g>
<!-- Node1&#45;&gt;Node2 -->
<g id="edge1" class="edge">
<title>Node1&#45;&gt;Node2</title>
<path fill="none" stroke="#63b8ff" d="M456.62,-40.26C446.38,-42.09 433.99,-44.31 421.76,-46.49"/>
<polygon fill="#63b8ff" stroke="#63b8ff" points="457.54,-43.66 466.77,-38.45 456.31,-36.76 457.54,-43.66"/>
</g>
<!-- Node5 -->
<g id="node5" class="node">
<title>Node5</title>
<g id="a_node5"><a xlink:href="classquala_1_1BroydenGood.html#ad2320a49a7db3abb42d0c621a6a932bd" target="_top" xlink:title="Update the inverse Jacobian approximation using the new vectors sₖ = xₖ₊₁ &#45; xₖ and yₖ = pₖ₊₁ &#45; pₖ.">
<polygon fill="white" stroke="#666666" points="268,-30 152,-30 152,0 268,0 268,-30"/>
<text text-anchor="start" x="160" y="-18" font-family="Helvetica,sans-Serif" font-size="10.00">quala::BroydenGood</text>
<text text-anchor="middle" x="210" y="-7" font-family="Helvetica,sans-Serif" font-size="10.00">::update_sy</text>
</a>
</g>
</g>
<!-- Node1&#45;&gt;Node5 -->
<g id="edge6" class="edge">
<title>Node1&#45;&gt;Node5</title>
<path fill="none" stroke="#63b8ff" d="M456.68,-34.14C414.74,-30.88 326.61,-24.01 268.11,-19.45"/>
<polygon fill="#63b8ff" stroke="#63b8ff" points="456.52,-37.64 466.76,-34.93 457.07,-30.66 456.52,-37.64"/>
</g>
<!-- Node3 -->
<g id="node3" class="node">
<title>Node3</title>
<g id="a_node3"><a xlink:href="classquala_1_1BroydenGood.html#af3b5886c46c3f50fae33990afcc47f12" target="_top" xlink:title="Apply the inverse Jacobian approximation to the given vector q, i.e.">
<polygon fill="white" stroke="#666666" points="268,-116 152,-116 152,-86 268,-86 268,-116"/>
<text text-anchor="start" x="160" y="-104" font-family="Helvetica,sans-Serif" font-size="10.00">quala::BroydenGood</text>
<text text-anchor="middle" x="210" y="-93" font-family="Helvetica,sans-Serif" font-size="10.00">::apply</text>
</a>
</g>
</g>
<!-- Node2&#45;&gt;Node3 -->
<g id="edge2" class="edge">
<title>Node2&#45;&gt;Node3</title>
<path fill="none" stroke="#63b8ff" d="M323.75,-68.37C304.93,-73.82 282.66,-80.26 262.9,-85.98"/>
<polygon fill="#63b8ff" stroke="#63b8ff" points="324.89,-71.69 333.52,-65.54 322.94,-64.96 324.89,-71.69"/>
</g>
<!-- Node4 -->
<g id="node4" class="node">
<title>Node4</title>
<g id="a_node4"><a xlink:href="classquala_1_1BroydenGood.html#a306b71b9ba3fa871a4cad408f946b5a7" target="_top" xlink:title="Update the inverse Jacobian approximation using the new vectors xₖ₊₁ and pₖ₊₁.">
<polygon fill="white" stroke="#666666" points="116,-51 0,-51 0,-21 116,-21 116,-51"/>
<text text-anchor="start" x="8" y="-39" font-family="Helvetica,sans-Serif" font-size="10.00">quala::BroydenGood</text>
<text text-anchor="middle" x="58" y="-28" font-family="Helvetica,sans-Serif" font-size="10.00">::update</text>
</a>
</g>
</g>
<!-- Node2&#45;&gt;Node4 -->
<g id="edge3" class="edge">
<title>Node2&#45;&gt;Node4</title>
<path fill="none" stroke="#63b8ff" d="M293.65,-51.26C239.33,-47.73 166.17,-42.97 116.07,-39.71"/>
<polygon fill="#63b8ff" stroke="#63b8ff" points="293.7,-54.77 303.9,-51.93 294.15,-47.79 293.7,-54.77"/>
</g>
<!-- Node2&#45;&gt;Node5 -->
<g id="edge4" class="edge">
<title>Node2&#45;&gt;Node5</title>
<path fill="none" stroke="#63b8ff" d="M320.54,-43.88C304.13,-39.55 285.43,-34.62 268.18,-30.08"/>
<polygon fill="#63b8ff" stroke="#63b8ff" points="319.87,-47.33 330.43,-46.49 321.66,-40.56 319.87,-47.33"/>
</g>
<!-- Node5&#45;&gt;Node4 -->
<g id="edge5" class="edge">
<title>Node5&#45;&gt;Node4</title>
<path fill="none" stroke="#63b8ff" d="M141.69,-24.42C133.27,-25.6 124.72,-26.8 116.47,-27.95"/>
<polygon fill="#63b8ff" stroke="#63b8ff" points="142.45,-27.85 151.86,-23 141.47,-20.92 142.45,-27.85"/>
</g>
</g>
</svg>
