<?xml version="1.0" encoding="UTF-8" standalone="no"?>
<!DOCTYPE svg PUBLIC "-//W3C//DTD SVG 1.1//EN"
 "http://www.w3.org/Graphics/SVG/1.1/DTD/svg11.dtd">
<!-- Generated by graphviz version 2.43.0 (0)
 -->
<!-- Title: s Pages: 1 -->
<svg width="644pt" height="141pt"
 viewBox="0.00 0.00 644.00 141.00" xmlns="http://www.w3.org/2000/svg" xmlns:xlink="http://www.w3.org/1999/xlink">
<g id="graph0" class="graph" transform="scale(1 1) rotate(0) translate(4 137)">
<title>s</title>
<!-- Node1 -->
<g id="node1" class="node">
<title>Node1</title>
<g id="a_node1"><a xlink:title=" ">
<polygon fill="#999999" stroke="#666666" points="636,-38 607,-38 607,-19 636,-19 636,-38"/>
<text text-anchor="middle" x="621.5" y="-26" font-family="Helvetica,sans-Serif" font-size="10.00">s</text>
</a>
</g>
</g>
<!-- Node2 -->
<g id="node2" class="node">
<title>Node2</title>
<g id="a_node2"><a xlink:href="classquala_1_1LBFGS.html#a15e4a3db39457cabe764a7737d24e73f" target="_top" xlink:title=" ">
<polygon fill="white" stroke="#666666" points="571,-57 479,-57 479,-38 571,-38 571,-57"/>
<text text-anchor="middle" x="525" y="-45" font-family="Helvetica,sans-Serif" font-size="10.00">quala::LBFGS::s</text>
</a>
</g>
</g>
<!-- Node1&#45;&gt;Node2 -->
<g id="edge1" class="edge">
<title>Node1&#45;&gt;Node2</title>
<path fill="none" stroke="#63b8ff" d="M597.07,-33.21C589.19,-34.8 580.11,-36.62 571.12,-38.43"/>
<polygon fill="#63b8ff" stroke="#63b8ff" points="597.85,-36.62 606.96,-31.22 596.47,-29.76 597.85,-36.62"/>
</g>
<!-- Node6 -->
<g id="node6" class="node">
<title>Node6</title>
<g id="a_node6"><a xlink:href="classquala_1_1LBFGS.html#af150290995e6bee28f5a0f057ed511c8" target="_top" xlink:title="Update the inverse Hessian approximation using the new vectors sₖ = xₖ₊₁ &#45; xₖ and yₖ = pₖ₊₁ &#45; pₖ.">
<polygon fill="white" stroke="#666666" points="443,-19 306,-19 306,0 443,0 443,-19"/>
<text text-anchor="middle" x="374.5" y="-7" font-family="Helvetica,sans-Serif" font-size="10.00">quala::LBFGS::update_sy</text>
</a>
</g>
</g>
<!-- Node1&#45;&gt;Node6 -->
<g id="edge10" class="edge">
<title>Node1&#45;&gt;Node6</title>
<path fill="none" stroke="#63b8ff" d="M596.75,-26.66C561.58,-23.93 494.31,-18.71 443.13,-14.75"/>
<polygon fill="#63b8ff" stroke="#63b8ff" points="596.74,-30.17 606.98,-27.45 597.28,-23.19 596.74,-30.17"/>
</g>
<!-- Node3 -->
<g id="node3" class="node">
<title>Node3</title>
<g id="a_node3"><a xlink:href="classquala_1_1LBFGS.html#a9ae2b583badddda6ec2917bb565688c3" target="_top" xlink:title="Apply the inverse Hessian approximation to the given vector q.">
<polygon fill="white" stroke="#666666" points="266.5,-133 152.5,-133 152.5,-114 266.5,-114 266.5,-133"/>
<text text-anchor="middle" x="209.5" y="-121" font-family="Helvetica,sans-Serif" font-size="10.00">quala::LBFGS::apply</text>
</a>
</g>
</g>
<!-- Node2&#45;&gt;Node3 -->
<g id="edge2" class="edge">
<title>Node2&#45;&gt;Node3</title>
<path fill="none" stroke="#63b8ff" d="M505,-63.38C489.39,-75.48 466.16,-91.39 443,-99.5 385.17,-119.75 314.67,-124.46 266.57,-124.92"/>
<polygon fill="#63b8ff" stroke="#63b8ff" points="507.21,-66.1 512.84,-57.13 502.84,-60.63 507.21,-66.1"/>
</g>
<!-- Node4 -->
<g id="node4" class="node">
<title>Node4</title>
<g id="a_node4"><a xlink:href="quala_8py_8cpp.html#a12fb4e87da488d1fc7c6fa3e6a3adb90" target="_top" xlink:title=" ">
<polygon fill="white" stroke="#666666" points="113,-76 0,-76 0,-57 113,-57 113,-76"/>
<text text-anchor="middle" x="56.5" y="-64" font-family="Helvetica,sans-Serif" font-size="10.00">PYBIND11_MODULE</text>
</a>
</g>
</g>
<!-- Node2&#45;&gt;Node4 -->
<g id="edge4" class="edge">
<title>Node2&#45;&gt;Node4</title>
<path fill="none" stroke="#63b8ff" d="M468.78,-58.12C460.18,-59.46 451.37,-60.66 443,-61.5 326.12,-73.23 188.32,-71.23 113.21,-68.81"/>
<polygon fill="#63b8ff" stroke="#63b8ff" points="469.44,-61.56 478.75,-56.49 468.31,-54.65 469.44,-61.56"/>
</g>
<!-- Node5 -->
<g id="node5" class="node">
<title>Node5</title>
<g id="a_node5"><a xlink:href="classquala_1_1LBFGS.html#ae34a8e5e432c990eb8af2f95bcbc04bd" target="_top" xlink:title="Update the inverse Hessian approximation using the new vectors xₖ₊₁ and pₖ₊₁.">
<polygon fill="white" stroke="#666666" points="270,-57 149,-57 149,-38 270,-38 270,-57"/>
<text text-anchor="middle" x="209.5" y="-45" font-family="Helvetica,sans-Serif" font-size="10.00">quala::LBFGS::update</text>
</a>
</g>
</g>
<!-- Node2&#45;&gt;Node5 -->
<g id="edge5" class="edge">
<title>Node2&#45;&gt;Node5</title>
<path fill="none" stroke="#63b8ff" d="M468.72,-47.5C413.04,-47.5 327.42,-47.5 270.22,-47.5"/>
<polygon fill="#63b8ff" stroke="#63b8ff" points="468.75,-51 478.75,-47.5 468.75,-44 468.75,-51"/>
</g>
<!-- Node2&#45;&gt;Node6 -->
<g id="edge7" class="edge">
<title>Node2&#45;&gt;Node6</title>
<path fill="none" stroke="#63b8ff" d="M476.67,-35.39C455.99,-30.1 432.08,-23.98 412.7,-19.02"/>
<polygon fill="#63b8ff" stroke="#63b8ff" points="475.97,-38.82 486.53,-37.91 477.71,-32.04 475.97,-38.82"/>
</g>
<!-- Node3&#45;&gt;Node4 -->
<g id="edge3" class="edge">
<title>Node3&#45;&gt;Node4</title>
<path fill="none" stroke="#63b8ff" d="M173.52,-110.3C145.8,-99.83 107.71,-85.45 82.86,-76.07"/>
<polygon fill="#63b8ff" stroke="#63b8ff" points="172.63,-113.7 183.23,-113.96 175.11,-107.15 172.63,-113.7"/>
</g>
<!-- Node5&#45;&gt;Node4 -->
<g id="edge6" class="edge">
<title>Node5&#45;&gt;Node4</title>
<path fill="none" stroke="#63b8ff" d="M138.84,-56.26C130.28,-57.34 121.62,-58.43 113.3,-59.48"/>
<polygon fill="#63b8ff" stroke="#63b8ff" points="139.34,-59.73 148.82,-55.01 138.46,-52.79 139.34,-59.73"/>
</g>
<!-- Node6&#45;&gt;Node4 -->
<g id="edge8" class="edge">
<title>Node6&#45;&gt;Node4</title>
<path fill="none" stroke="#63b8ff" d="M295.57,-10.2C251.93,-12.05 196.85,-16.84 149,-28.5 122.6,-34.93 93.93,-47.9 75.85,-56.89"/>
<polygon fill="#63b8ff" stroke="#63b8ff" points="295.97,-13.69 305.83,-9.81 295.7,-6.69 295.97,-13.69"/>
</g>
<!-- Node6&#45;&gt;Node5 -->
<g id="edge9" class="edge">
<title>Node6&#45;&gt;Node5</title>
<path fill="none" stroke="#63b8ff" d="M322.47,-21.4C299.56,-26.74 272.9,-32.95 251.34,-37.98"/>
<polygon fill="#63b8ff" stroke="#63b8ff" points="323.42,-24.77 332.37,-19.09 321.83,-17.95 323.42,-24.77"/>
</g>
</g>
</svg>
