<?xml version="1.0" encoding="UTF-8" standalone="no"?>
<!DOCTYPE svg PUBLIC "-//W3C//DTD SVG 1.1//EN"
 "http://www.w3.org/Graphics/SVG/1.1/DTD/svg11.dtd">
<!-- Generated by graphviz version 2.43.0 (0)
 -->
<!-- Title: α Pages: 1 -->
<svg width="803pt" height="179pt"
 viewBox="0.00 0.00 803.00 179.00" xmlns="http://www.w3.org/2000/svg" xmlns:xlink="http://www.w3.org/1999/xlink">
<g id="graph0" class="graph" transform="scale(1 1) rotate(0) translate(4 175)">
<title>α</title>
<!-- Node1 -->
<g id="node1" class="node">
<title>Node1</title>
<g id="a_node1"><a xlink:title=" ">
<polygon fill="#999999" stroke="#666666" points="795,-133 766,-133 766,-114 795,-114 795,-133"/>
<text text-anchor="middle" x="780.5" y="-121" font-family="Helvetica,sans-Serif" font-size="10.00">α</text>
</a>
</g>
</g>
<!-- Node2 -->
<g id="node2" class="node">
<title>Node2</title>
<g id="a_node2"><a xlink:href="classquala_1_1LBFGS.html#ac7c2ee7d2562303f555dd1f4c3fca8cd" target="_top" xlink:title=" ">
<polygon fill="white" stroke="#666666" points="730,-133 636,-133 636,-114 730,-114 730,-133"/>
<text text-anchor="middle" x="683" y="-121" font-family="Helvetica,sans-Serif" font-size="10.00">quala::LBFGS::α</text>
</a>
</g>
</g>
<!-- Node1&#45;&gt;Node2 -->
<g id="edge1" class="edge">
<title>Node1&#45;&gt;Node2</title>
<path fill="none" stroke="#63b8ff" d="M755.67,-123.5C747.87,-123.5 738.91,-123.5 730.03,-123.5"/>
<polygon fill="#63b8ff" stroke="#63b8ff" points="755.82,-127 765.82,-123.5 755.82,-120 755.82,-127"/>
</g>
<!-- Node3 -->
<g id="node3" class="node">
<title>Node3</title>
<g id="a_node3"><a xlink:href="classquala_1_1LBFGS.html#a9ae2b583badddda6ec2917bb565688c3" target="_top" xlink:title="Apply the inverse Hessian approximation to the given vector q.">
<polygon fill="white" stroke="#666666" points="266.5,-171 152.5,-171 152.5,-152 266.5,-152 266.5,-171"/>
<text text-anchor="middle" x="209.5" y="-159" font-family="Helvetica,sans-Serif" font-size="10.00">quala::LBFGS::apply</text>
</a>
</g>
</g>
<!-- Node2&#45;&gt;Node3 -->
<g id="edge2" class="edge">
<title>Node2&#45;&gt;Node3</title>
<path fill="none" stroke="#63b8ff" d="M625.75,-133.92C617.15,-135.28 608.35,-136.53 600,-137.5 481.89,-151.18 342.66,-157.38 266.78,-159.93"/>
<polygon fill="#63b8ff" stroke="#63b8ff" points="626.42,-137.36 635.72,-132.3 625.29,-130.45 626.42,-137.36"/>
</g>
<!-- Node4 -->
<g id="node4" class="node">
<title>Node4</title>
<g id="a_node4"><a xlink:href="quala_8py_8cpp.html#a12fb4e87da488d1fc7c6fa3e6a3adb90" target="_top" xlink:title=" ">
<polygon fill="white" stroke="#666666" points="113,-95 0,-95 0,-76 113,-76 113,-95"/>
<text text-anchor="middle" x="56.5" y="-83" font-family="Helvetica,sans-Serif" font-size="10.00">PYBIND11_MODULE</text>
</a>
</g>
</g>
<!-- Node2&#45;&gt;Node4 -->
<g id="edge4" class="edge">
<title>Node2&#45;&gt;Node4</title>
<path fill="none" stroke="#63b8ff" d="M625.8,-120.91C528.57,-116.3 322.7,-105.98 149,-93.5 137.39,-92.67 124.96,-91.66 113.12,-90.64"/>
<polygon fill="#63b8ff" stroke="#63b8ff" points="625.83,-124.42 635.98,-121.39 626.16,-117.42 625.83,-124.42"/>
</g>
<!-- Node5 -->
<g id="node5" class="node">
<title>Node5</title>
<g id="a_node5"><a xlink:href="classquala_1_1LBFGS.html#a1109c880f1969f61532c94c19122e927" target="_top" xlink:title="Check if the new vectors s and y allow for a valid BFGS update that preserves the positive definitene...">
<polygon fill="white" stroke="#666666" points="600,-79.5 479,-79.5 479,-49.5 600,-49.5 600,-79.5"/>
<text text-anchor="start" x="487" y="-67.5" font-family="Helvetica,sans-Serif" font-size="10.00">quala::LBFGS::update</text>
<text text-anchor="middle" x="539.5" y="-56.5" font-family="Helvetica,sans-Serif" font-size="10.00">_valid</text>
</a>
</g>
</g>
<!-- Node2&#45;&gt;Node5 -->
<g id="edge5" class="edge">
<title>Node2&#45;&gt;Node5</title>
<path fill="none" stroke="#63b8ff" d="M649.48,-109.94C627.7,-100.86 599.02,-88.9 576.54,-79.53"/>
<polygon fill="#63b8ff" stroke="#63b8ff" points="648.37,-113.27 658.95,-113.89 651.07,-106.81 648.37,-113.27"/>
</g>
<!-- Node3&#45;&gt;Node4 -->
<g id="edge3" class="edge">
<title>Node3&#45;&gt;Node4</title>
<path fill="none" stroke="#63b8ff" d="M173.17,-148.15C165.13,-144.87 156.7,-141.22 149,-137.5 121.53,-124.23 90.96,-106.14 73.03,-95.17"/>
<polygon fill="#63b8ff" stroke="#63b8ff" points="172.11,-151.5 182.69,-151.96 174.71,-145 172.11,-151.5"/>
</g>
<!-- Node5&#45;&gt;Node4 -->
<g id="edge7" class="edge">
<title>Node5&#45;&gt;Node4</title>
<path fill="none" stroke="#63b8ff" d="M468.35,-67.56C372.19,-71.76 201.36,-79.22 113.35,-83.06"/>
<polygon fill="#63b8ff" stroke="#63b8ff" points="468.72,-71.05 478.55,-67.12 468.41,-64.06 468.72,-71.05"/>
</g>
<!-- Node6 -->
<g id="node6" class="node">
<title>Node6</title>
<g id="a_node6"><a xlink:href="classquala_1_1LBFGS.html#a0e0ce3dda38d6f64657929adcf05e2c8" target="_top" xlink:title="Apply the inverse Hessian approximation to the given vector q, applying only the columns and rows of ...">
<polygon fill="white" stroke="#666666" points="431.5,-57 317.5,-57 317.5,-38 431.5,-38 431.5,-57"/>
<text text-anchor="middle" x="374.5" y="-45" font-family="Helvetica,sans-Serif" font-size="10.00">quala::LBFGS::apply</text>
</a>
</g>
</g>
<!-- Node5&#45;&gt;Node6 -->
<g id="edge6" class="edge">
<title>Node5&#45;&gt;Node6</title>
<path fill="none" stroke="#63b8ff" d="M468.52,-57.2C456.23,-55.92 443.59,-54.6 431.74,-53.37"/>
<polygon fill="#63b8ff" stroke="#63b8ff" points="468.42,-60.71 478.73,-58.27 469.15,-53.75 468.42,-60.71"/>
</g>
<!-- Node7 -->
<g id="node7" class="node">
<title>Node7</title>
<g id="a_node7"><a xlink:href="classquala_1_1LBFGS.html#af150290995e6bee28f5a0f057ed511c8" target="_top" xlink:title="Update the inverse Hessian approximation using the new vectors sₖ = xₖ₊₁ &#45; xₖ and yₖ = pₖ₊₁ &#45; pₖ.">
<polygon fill="white" stroke="#666666" points="443,-20 306,-20 306,-1 443,-1 443,-20"/>
<text text-anchor="middle" x="374.5" y="-8" font-family="Helvetica,sans-Serif" font-size="10.00">quala::LBFGS::update_sy</text>
</a>
</g>
</g>
<!-- Node5&#45;&gt;Node7 -->
<g id="edge8" class="edge">
<title>Node5&#45;&gt;Node7</title>
<path fill="none" stroke="#63b8ff" d="M491.83,-45.84C476.4,-39.96 459.07,-33.66 443,-28.5 433.65,-25.5 423.45,-22.59 413.89,-20.03"/>
<polygon fill="#63b8ff" stroke="#63b8ff" points="490.57,-49.11 501.16,-49.43 493.08,-42.57 490.57,-49.11"/>
</g>
<!-- Node7&#45;&gt;Node4 -->
<g id="edge9" class="edge">
<title>Node7&#45;&gt;Node4</title>
<path fill="none" stroke="#63b8ff" d="M323.12,-22.46C260.53,-37.31 155,-62.36 97.6,-75.98"/>
<polygon fill="#63b8ff" stroke="#63b8ff" points="324.24,-25.79 333.16,-20.07 322.62,-18.98 324.24,-25.79"/>
</g>
<!-- Node8 -->
<g id="node8" class="node">
<title>Node8</title>
<g id="a_node8"><a xlink:href="classquala_1_1LBFGS.html#ae34a8e5e432c990eb8af2f95bcbc04bd" target="_top" xlink:title="Update the inverse Hessian approximation using the new vectors xₖ₊₁ and pₖ₊₁.">
<polygon fill="white" stroke="#666666" points="270,-19 149,-19 149,0 270,0 270,-19"/>
<text text-anchor="middle" x="209.5" y="-7" font-family="Helvetica,sans-Serif" font-size="10.00">quala::LBFGS::update</text>
</a>
</g>
</g>
<!-- Node7&#45;&gt;Node8 -->
<g id="edge10" class="edge">
<title>Node7&#45;&gt;Node8</title>
<path fill="none" stroke="#63b8ff" d="M295.75,-10.02C287.17,-9.97 278.52,-9.92 270.2,-9.87"/>
<polygon fill="#63b8ff" stroke="#63b8ff" points="295.77,-13.52 305.79,-10.08 295.81,-6.52 295.77,-13.52"/>
</g>
<!-- Node8&#45;&gt;Node4 -->
<g id="edge11" class="edge">
<title>Node8&#45;&gt;Node4</title>
<path fill="none" stroke="#63b8ff" d="M173.17,-22.85C165.13,-26.13 156.7,-29.78 149,-33.5 121.53,-46.77 90.96,-64.86 73.03,-75.83"/>
<polygon fill="#63b8ff" stroke="#63b8ff" points="174.71,-26 182.69,-19.04 172.11,-19.5 174.71,-26"/>
</g>
</g>
</svg>
