<?xml version="1.0" encoding="UTF-8" standalone="no"?>
<!DOCTYPE svg PUBLIC "-//W3C//DTD SVG 1.1//EN"
 "http://www.w3.org/Graphics/SVG/1.1/DTD/svg11.dtd">
<!-- Generated by graphviz version 2.43.0 (0)
 -->
<!-- Title: alloc.hpp Pages: 1 -->
<svg width="454pt" height="140pt"
 viewBox="0.00 0.00 453.50 140.00" xmlns="http://www.w3.org/2000/svg" xmlns:xlink="http://www.w3.org/1999/xlink">
<g id="graph0" class="graph" transform="scale(1 1) rotate(0) translate(4 136)">
<title>alloc.hpp</title>
<polygon fill="white" stroke="transparent" points="-4,4 -4,-136 449.5,-136 449.5,4 -4,4"/>
<!-- Node1 -->
<g id="node1" class="node">
<title>Node1</title>
<g id="a_node1"><a xlink:title=" ">
<polygon fill="#bfbfbf" stroke="black" points="232.5,-112.5 232.5,-131.5 293.5,-131.5 293.5,-112.5 232.5,-112.5"/>
<text text-anchor="middle" x="263" y="-119.5" font-family="Helvetica,sans-Serif" font-size="10.00">alloc.hpp</text>
</a>
</g>
</g>
<!-- Node2 -->
<g id="node2" class="node">
<title>Node2</title>
<g id="a_node2"><a xlink:href="vec_8hpp.html" target="_top" xlink:title=" ">
<polygon fill="white" stroke="black" points="0,-56.5 0,-75.5 104,-75.5 104,-56.5 0,-56.5"/>
<text text-anchor="middle" x="52" y="-63.5" font-family="Helvetica,sans-Serif" font-size="10.00">quala/util/vec.hpp</text>
</a>
</g>
</g>
<!-- Node1&#45;&gt;Node2 -->
<g id="edge1" class="edge">
<title>Node1&#45;&gt;Node2</title>
<path fill="none" stroke="midnightblue" d="M232.32,-113.15C196.28,-103.93 136.25,-88.56 95.44,-78.12"/>
<polygon fill="midnightblue" stroke="midnightblue" points="96.06,-74.66 85.51,-75.58 94.33,-81.45 96.06,-74.66"/>
</g>
<!-- Node4 -->
<g id="node4" class="node">
<title>Node4</title>
<g id="a_node4"><a xlink:title=" ">
<polygon fill="white" stroke="#bfbfbf" points="122,-56.5 122,-75.5 186,-75.5 186,-56.5 122,-56.5"/>
<text text-anchor="middle" x="154" y="-63.5" font-family="Helvetica,sans-Serif" font-size="10.00">algorithm</text>
</a>
</g>
</g>
<!-- Node1&#45;&gt;Node4 -->
<g id="edge3" class="edge">
<title>Node1&#45;&gt;Node4</title>
<path fill="none" stroke="midnightblue" d="M245.49,-112.32C227.93,-103.62 200.67,-90.12 180.47,-80.11"/>
<polygon fill="midnightblue" stroke="midnightblue" points="181.98,-76.96 171.47,-75.65 178.88,-83.23 181.98,-76.96"/>
</g>
<!-- Node5 -->
<g id="node5" class="node">
<title>Node5</title>
<g id="a_node5"><a xlink:title=" ">
<polygon fill="white" stroke="#bfbfbf" points="204,-56.5 204,-75.5 256,-75.5 256,-56.5 204,-56.5"/>
<text text-anchor="middle" x="230" y="-63.5" font-family="Helvetica,sans-Serif" font-size="10.00">cassert</text>
</a>
</g>
</g>
<!-- Node1&#45;&gt;Node5 -->
<g id="edge4" class="edge">
<title>Node1&#45;&gt;Node5</title>
<path fill="none" stroke="midnightblue" d="M257.55,-112.08C252.99,-104.61 246.33,-93.72 240.71,-84.52"/>
<polygon fill="midnightblue" stroke="midnightblue" points="243.55,-82.46 235.35,-75.75 237.58,-86.11 243.55,-82.46"/>
</g>
<!-- Node6 -->
<g id="node6" class="node">
<title>Node6</title>
<g id="a_node6"><a xlink:title=" ">
<polygon fill="white" stroke="#bfbfbf" points="274.5,-56.5 274.5,-75.5 317.5,-75.5 317.5,-56.5 274.5,-56.5"/>
<text text-anchor="middle" x="296" y="-63.5" font-family="Helvetica,sans-Serif" font-size="10.00">stack</text>
</a>
</g>
</g>
<!-- Node1&#45;&gt;Node6 -->
<g id="edge5" class="edge">
<title>Node1&#45;&gt;Node6</title>
<path fill="none" stroke="midnightblue" d="M268.45,-112.08C273.01,-104.61 279.67,-93.72 285.29,-84.52"/>
<polygon fill="midnightblue" stroke="midnightblue" points="288.42,-86.11 290.65,-75.75 282.45,-82.46 288.42,-86.11"/>
</g>
<!-- Node7 -->
<g id="node7" class="node">
<title>Node7</title>
<g id="a_node7"><a xlink:title=" ">
<polygon fill="white" stroke="#bfbfbf" points="335.5,-56.5 335.5,-75.5 380.5,-75.5 380.5,-56.5 335.5,-56.5"/>
<text text-anchor="middle" x="358" y="-63.5" font-family="Helvetica,sans-Serif" font-size="10.00">utility</text>
</a>
</g>
</g>
<!-- Node1&#45;&gt;Node7 -->
<g id="edge6" class="edge">
<title>Node1&#45;&gt;Node7</title>
<path fill="none" stroke="midnightblue" d="M278.26,-112.32C293.22,-103.82 316.25,-90.73 333.73,-80.8"/>
<polygon fill="midnightblue" stroke="midnightblue" points="335.81,-83.64 342.77,-75.65 332.35,-77.55 335.81,-83.64"/>
</g>
<!-- Node8 -->
<g id="node8" class="node">
<title>Node8</title>
<g id="a_node8"><a xlink:title=" ">
<polygon fill="white" stroke="#bfbfbf" points="398.5,-56.5 398.5,-75.5 445.5,-75.5 445.5,-56.5 398.5,-56.5"/>
<text text-anchor="middle" x="422" y="-63.5" font-family="Helvetica,sans-Serif" font-size="10.00">vector</text>
</a>
</g>
</g>
<!-- Node1&#45;&gt;Node8 -->
<g id="edge7" class="edge">
<title>Node1&#45;&gt;Node8</title>
<path fill="none" stroke="midnightblue" d="M288.19,-112.44C315.41,-103.2 358.91,-88.43 388.88,-78.25"/>
<polygon fill="midnightblue" stroke="midnightblue" points="390.14,-81.52 398.48,-74.99 387.88,-74.89 390.14,-81.52"/>
</g>
<!-- Node3 -->
<g id="node3" class="node">
<title>Node3</title>
<g id="a_node3"><a xlink:title=" ">
<polygon fill="white" stroke="#bfbfbf" points="17.5,-0.5 17.5,-19.5 86.5,-19.5 86.5,-0.5 17.5,-0.5"/>
<text text-anchor="middle" x="52" y="-7.5" font-family="Helvetica,sans-Serif" font-size="10.00">Eigen/Core</text>
</a>
</g>
</g>
<!-- Node2&#45;&gt;Node3 -->
<g id="edge2" class="edge">
<title>Node2&#45;&gt;Node3</title>
<path fill="none" stroke="midnightblue" d="M52,-56.08C52,-49.01 52,-38.86 52,-29.99"/>
<polygon fill="midnightblue" stroke="midnightblue" points="55.5,-29.75 52,-19.75 48.5,-29.75 55.5,-29.75"/>
</g>
</g>
</svg>
