<?xml version="1.0" encoding="UTF-8" standalone="no"?>
<!DOCTYPE svg PUBLIC "-//W3C//DTD SVG 1.1//EN"
 "http://www.w3.org/Graphics/SVG/1.1/DTD/svg11.dtd">
<!-- Generated by graphviz version 2.43.0 (0)
 -->
<!-- Title: LBFGS Pages: 1 -->
<svg width="106pt" height="529pt"
 viewBox="0.00 0.00 106.00 529.00" xmlns="http://www.w3.org/2000/svg" xmlns:xlink="http://www.w3.org/1999/xlink">
<g id="graph0" class="graph" transform="scale(1 1) rotate(0) translate(4 525)">
<title>LBFGS</title>
<polygon fill="white" stroke="transparent" points="-4,4 -4,-525 102,-525 102,4 -4,4"/>
<!-- Node1 -->
<g id="node1" class="node">
<title>Node1</title>
<g id="a_node1"><a xlink:title="Limited memory Broyden–Fletcher–Goldfarb–Shanno (L&#45;BFGS) algorithm.">
<polygon fill="#bfbfbf" stroke="black" points="0,-0.5 0,-299.5 98,-299.5 98,-0.5 0,-0.5"/>
<text text-anchor="middle" x="49" y="-287.5" font-family="Helvetica,sans-Serif" font-size="10.00">LBFGS</text>
<polyline fill="none" stroke="black" points="0,-280.5 98,-280.5 "/>
<text text-anchor="start" x="8" y="-268.5" font-family="Helvetica,sans-Serif" font-size="10.00">&#45; sto</text>
<text text-anchor="start" x="8" y="-257.5" font-family="Helvetica,sans-Serif" font-size="10.00">&#45; idx</text>
<text text-anchor="start" x="8" y="-246.5" font-family="Helvetica,sans-Serif" font-size="10.00">&#45; full</text>
<polyline fill="none" stroke="black" points="0,-239.5 98,-239.5 "/>
<text text-anchor="start" x="8" y="-227.5" font-family="Helvetica,sans-Serif" font-size="10.00">+ LBFGS()</text>
<text text-anchor="start" x="8" y="-216.5" font-family="Helvetica,sans-Serif" font-size="10.00">+ LBFGS()</text>
<text text-anchor="start" x="8" y="-205.5" font-family="Helvetica,sans-Serif" font-size="10.00">+ update()</text>
<text text-anchor="start" x="8" y="-194.5" font-family="Helvetica,sans-Serif" font-size="10.00">+ apply()</text>
<text text-anchor="start" x="8" y="-183.5" font-family="Helvetica,sans-Serif" font-size="10.00">+ apply()</text>
<text text-anchor="start" x="8" y="-172.5" font-family="Helvetica,sans-Serif" font-size="10.00">+ reset()</text>
<text text-anchor="start" x="8" y="-161.5" font-family="Helvetica,sans-Serif" font-size="10.00">+ resize()</text>
<text text-anchor="start" x="8" y="-150.5" font-family="Helvetica,sans-Serif" font-size="10.00">+ scale_y()</text>
<text text-anchor="start" x="8" y="-139.5" font-family="Helvetica,sans-Serif" font-size="10.00">+ get_params()</text>
<text text-anchor="start" x="8" y="-128.5" font-family="Helvetica,sans-Serif" font-size="10.00">+ n()</text>
<text text-anchor="start" x="8" y="-117.5" font-family="Helvetica,sans-Serif" font-size="10.00">+ history()</text>
<text text-anchor="start" x="8" y="-106.5" font-family="Helvetica,sans-Serif" font-size="10.00">+ succ()</text>
<text text-anchor="start" x="8" y="-95.5" font-family="Helvetica,sans-Serif" font-size="10.00">+ s()</text>
<text text-anchor="start" x="8" y="-84.5" font-family="Helvetica,sans-Serif" font-size="10.00">+ s()</text>
<text text-anchor="start" x="8" y="-73.5" font-family="Helvetica,sans-Serif" font-size="10.00">+ y()</text>
<text text-anchor="start" x="8" y="-62.5" font-family="Helvetica,sans-Serif" font-size="10.00">+ y()</text>
<text text-anchor="start" x="8" y="-51.5" font-family="Helvetica,sans-Serif" font-size="10.00">+ ρ()</text>
<text text-anchor="start" x="8" y="-40.5" font-family="Helvetica,sans-Serif" font-size="10.00">+ ρ()</text>
<text text-anchor="start" x="8" y="-29.5" font-family="Helvetica,sans-Serif" font-size="10.00">+ α()</text>
<text text-anchor="start" x="8" y="-18.5" font-family="Helvetica,sans-Serif" font-size="10.00">+ α()</text>
<text text-anchor="start" x="8" y="-7.5" font-family="Helvetica,sans-Serif" font-size="10.00">+ update_valid()</text>
</a>
</g>
</g>
<!-- Node2 -->
<g id="node2" class="node">
<title>Node2</title>
<g id="a_node2"><a xlink:href="namespacequala.html#structquala_1_1LBFGSParams" target="_top" xlink:title="Parameters for the LBFGS class.">
<polygon fill="white" stroke="black" points="7,-347.5 7,-404.5 91,-404.5 91,-347.5 7,-347.5"/>
<text text-anchor="middle" x="49" y="-392.5" font-family="Helvetica,sans-Serif" font-size="10.00">LBFGSParams</text>
<polyline fill="none" stroke="black" points="7,-385.5 91,-385.5 "/>
<text text-anchor="start" x="15" y="-373.5" font-family="Helvetica,sans-Serif" font-size="10.00">+ memory</text>
<polyline fill="none" stroke="black" points="7,-366.5 91,-366.5 "/>
<text text-anchor="middle" x="49" y="-354.5" font-family="Helvetica,sans-Serif" font-size="10.00"> </text>
</a>
</g>
</g>
<!-- Node2&#45;&gt;Node1 -->
<g id="edge1" class="edge">
<title>Node2&#45;&gt;Node1</title>
<path fill="none" stroke="#404040" d="M49,-347.08C49,-337.21 49,-325.27 49,-312.23"/>
<polygon fill="none" stroke="#404040" points="49,-311.96 45,-305.96 49,-299.96 53,-305.96 49,-311.96"/>
<text text-anchor="middle" x="71" y="-321" font-family="Helvetica,sans-Serif" font-size="10.00"> &#45;params</text>
</g>
<!-- Node3 -->
<g id="node3" class="node">
<title>Node3</title>
<g id="a_node3"><a xlink:href="namespacequala.html#structquala_1_1LBFGSParams_1_1CBFGSParams" target="_top" xlink:title=" ">
<polygon fill="white" stroke="black" points="6,-452.5 6,-520.5 92,-520.5 92,-452.5 6,-452.5"/>
<text text-anchor="middle" x="49" y="-508.5" font-family="Helvetica,sans-Serif" font-size="10.00">CBFGSParams</text>
<polyline fill="none" stroke="black" points="6,-501.5 92,-501.5 "/>
<text text-anchor="start" x="14" y="-489.5" font-family="Helvetica,sans-Serif" font-size="10.00">+ α</text>
<text text-anchor="start" x="14" y="-478.5" font-family="Helvetica,sans-Serif" font-size="10.00">+ ϵ</text>
<polyline fill="none" stroke="black" points="6,-471.5 92,-471.5 "/>
<text text-anchor="middle" x="49" y="-459.5" font-family="Helvetica,sans-Serif" font-size="10.00"> </text>
</a>
</g>
</g>
<!-- Node3&#45;&gt;Node2 -->
<g id="edge2" class="edge">
<title>Node3&#45;&gt;Node2</title>
<path fill="none" stroke="#404040" d="M49,-452.36C49,-441.19 49,-428.61 49,-416.97"/>
<polygon fill="none" stroke="#404040" points="49,-416.83 45,-410.83 49,-404.83 53,-410.83 49,-416.83"/>
<text text-anchor="middle" x="68" y="-426" font-family="Helvetica,sans-Serif" font-size="10.00"> +cbfgs</text>
</g>
</g>
</svg>
