<?xml version="1.0" encoding="UTF-8" standalone="no"?>
<!DOCTYPE svg PUBLIC "-//W3C//DTD SVG 1.1//EN"
 "http://www.w3.org/Graphics/SVG/1.1/DTD/svg11.dtd">
<!-- Generated by graphviz version 2.43.0 (0)
 -->
<!-- Title: reset Pages: 1 -->
<svg width="226pt" height="88pt"
 viewBox="0.00 0.00 226.00 88.00" xmlns="http://www.w3.org/2000/svg" xmlns:xlink="http://www.w3.org/1999/xlink">
<g id="graph0" class="graph" transform="scale(1 1) rotate(0) translate(4 84)">
<title>reset</title>
<polygon fill="white" stroke="transparent" points="-4,4 -4,-84 222,-84 222,4 -4,4"/>
<!-- Node1 -->
<g id="node1" class="node">
<title>Node1</title>
<g id="a_node1"><a xlink:title="Reset the accelerator (but keep the last function value and residual, so calling initialize is not ne...">
<polygon fill="#bfbfbf" stroke="black" points="0,-30 0,-49 41,-49 41,-30 0,-30"/>
<text text-anchor="middle" x="20.5" y="-37" font-family="Helvetica,sans-Serif" font-size="10.00">reset</text>
</a>
</g>
</g>
<!-- Node2 -->
<g id="node2" class="node">
<title>Node2</title>
<g id="a_node2"><a xlink:href="classquala_1_1LimitedMemoryQR.html#ad20897c5c8bd47f5d4005989bead0e55" target="_top" xlink:title="Reset all indices, clearing the Q and R matrices.">
<polygon fill="white" stroke="black" points="77,-49.5 77,-79.5 218,-79.5 218,-49.5 77,-49.5"/>
<text text-anchor="start" x="85" y="-67.5" font-family="Helvetica,sans-Serif" font-size="10.00">quala::LimitedMemoryQR</text>
<text text-anchor="middle" x="147.5" y="-56.5" font-family="Helvetica,sans-Serif" font-size="10.00">::reset</text>
</a>
</g>
</g>
<!-- Node1&#45;&gt;Node2 -->
<g id="edge1" class="edge">
<title>Node1&#45;&gt;Node2</title>
<path fill="none" stroke="midnightblue" d="M41.03,-43.41C48.42,-44.88 57.36,-46.67 66.88,-48.58"/>
<polygon fill="midnightblue" stroke="midnightblue" points="66.47,-52.06 76.96,-50.59 67.84,-45.2 66.47,-52.06"/>
</g>
<!-- Node3 -->
<g id="node3" class="node">
<title>Node3</title>
<g id="a_node3"><a xlink:href="classquala_1_1LimitedMemoryQR.html#a8a153a1f58e5c5879095a4c3799b6f49" target="_top" xlink:title="Get the tail index of the circular buffer (points to one past the most recent element).">
<polygon fill="white" stroke="black" points="77,-0.5 77,-30.5 218,-30.5 218,-0.5 77,-0.5"/>
<text text-anchor="start" x="85" y="-18.5" font-family="Helvetica,sans-Serif" font-size="10.00">quala::LimitedMemoryQR</text>
<text text-anchor="middle" x="147.5" y="-7.5" font-family="Helvetica,sans-Serif" font-size="10.00">::ring_tail</text>
</a>
</g>
</g>
<!-- Node1&#45;&gt;Node3 -->
<g id="edge2" class="edge">
<title>Node1&#45;&gt;Node3</title>
<path fill="none" stroke="midnightblue" d="M41.03,-35.75C48.42,-34.33 57.36,-32.61 66.88,-30.79"/>
<polygon fill="midnightblue" stroke="midnightblue" points="67.8,-34.17 76.96,-28.85 66.48,-27.3 67.8,-34.17"/>
</g>
</g>
</svg>
