<?xml version="1.0" encoding="UTF-8" standalone="no"?>
<!DOCTYPE svg PUBLIC "-//W3C//DTD SVG 1.1//EN"
 "http://www.w3.org/Graphics/SVG/1.1/DTD/svg11.dtd">
<!-- Generated by graphviz version 2.43.0 (0)
 -->
<!-- Title: alloc Pages: 1 -->
<svg width="199pt" height="50pt"
 viewBox="0.00 0.00 199.00 50.00" xmlns="http://www.w3.org/2000/svg" xmlns:xlink="http://www.w3.org/1999/xlink">
<g id="graph0" class="graph" transform="scale(1 1) rotate(0) translate(4 46)">
<title>alloc</title>
<polygon fill="white" stroke="transparent" points="-4,4 -4,-46 195,-46 195,4 -4,4"/>
<!-- Node1 -->
<g id="node1" class="node">
<title>Node1</title>
<g id="a_node1"><a xlink:title=" ">
<polygon fill="#bfbfbf" stroke="black" points="151,-11.5 151,-30.5 191,-30.5 191,-11.5 151,-11.5"/>
<text text-anchor="middle" x="171" y="-18.5" font-family="Helvetica,sans-Serif" font-size="10.00">alloc</text>
</a>
</g>
</g>
<!-- Node2 -->
<g id="node2" class="node">
<title>Node2</title>
<g id="a_node2"><a xlink:href="structquala_1_1vec__allocator_1_1alloc__raii__wrapper.html#ad58f1519bb6849387ca83524d2714167" target="_top" xlink:title=" ">
<polygon fill="white" stroke="black" points="0,-0.5 0,-41.5 115,-41.5 115,-0.5 0,-0.5"/>
<text text-anchor="start" x="8" y="-29.5" font-family="Helvetica,sans-Serif" font-size="10.00">quala::vec_allocator</text>
<text text-anchor="start" x="8" y="-18.5" font-family="Helvetica,sans-Serif" font-size="10.00">::alloc_raii_wrapper</text>
<text text-anchor="middle" x="57.5" y="-7.5" font-family="Helvetica,sans-Serif" font-size="10.00">::operator=</text>
</a>
</g>
</g>
<!-- Node1&#45;&gt;Node2 -->
<g id="edge1" class="edge">
<title>Node1&#45;&gt;Node2</title>
<path fill="none" stroke="midnightblue" d="M140.76,-21C132.89,-21 124.11,-21 115.29,-21"/>
<polygon fill="midnightblue" stroke="midnightblue" points="140.83,-24.5 150.83,-21 140.83,-17.5 140.83,-24.5"/>
</g>
</g>
</svg>
