<?xml version="1.0" encoding="UTF-8" standalone="no"?>
<!DOCTYPE svg PUBLIC "-//W3C//DTD SVG 1.1//EN"
 "http://www.w3.org/Graphics/SVG/1.1/DTD/svg11.dtd">
<!-- Generated by graphviz version 2.43.0 (0)
 -->
<!-- Title: n Pages: 1 -->
<svg width="470pt" height="332pt"
 viewBox="0.00 0.00 470.00 332.00" xmlns="http://www.w3.org/2000/svg" xmlns:xlink="http://www.w3.org/1999/xlink">
<g id="graph0" class="graph" transform="scale(1 1) rotate(0) translate(4 328)">
<title>n</title>
<polygon fill="white" stroke="transparent" points="-4,4 -4,-328 466,-328 466,4 -4,4"/>
<!-- Node1 -->
<g id="node1" class="node">
<title>Node1</title>
<g id="a_node1"><a xlink:title="Get the size of the s and y vectors in the buffer.">
<polygon fill="#bfbfbf" stroke="black" points="433,-190.5 433,-209.5 462,-209.5 462,-190.5 433,-190.5"/>
<text text-anchor="middle" x="447.5" y="-197.5" font-family="Helvetica,sans-Serif" font-size="10.00">n</text>
</a>
</g>
</g>
<!-- Node2 -->
<g id="node2" class="node">
<title>Node2</title>
<g id="a_node2"><a xlink:href="classquala_1_1LBFGS.html#a728dfcb0d540fc7da341b3352dbe1582" target="_top" xlink:title=" ">
<polygon fill="white" stroke="black" points="251,-304.5 251,-323.5 299,-323.5 299,-304.5 251,-304.5"/>
<text text-anchor="middle" x="275" y="-311.5" font-family="Helvetica,sans-Serif" font-size="10.00">LBFGS</text>
</a>
</g>
</g>
<!-- Node1&#45;&gt;Node2 -->
<g id="edge1" class="edge">
<title>Node1&#45;&gt;Node2</title>
<path fill="none" stroke="midnightblue" d="M441.93,-219.63C435.71,-241.69 422.32,-276.8 397,-295 368.16,-315.72 325.46,-317.49 299.25,-316.22"/>
<polygon fill="midnightblue" stroke="midnightblue" points="445.38,-220.26 444.5,-209.7 438.6,-218.51 445.38,-220.26"/>
</g>
<!-- Node3 -->
<g id="node3" class="node">
<title>Node3</title>
<g id="a_node3"><a xlink:href="quala_8cpp.html#a12fb4e87da488d1fc7c6fa3e6a3adb90" target="_top" xlink:title=" ">
<polygon fill="white" stroke="black" points="0,-152.5 0,-171.5 113,-171.5 113,-152.5 0,-152.5"/>
<text text-anchor="middle" x="56.5" y="-159.5" font-family="Helvetica,sans-Serif" font-size="10.00">PYBIND11_MODULE</text>
</a>
</g>
</g>
<!-- Node1&#45;&gt;Node3 -->
<g id="edge2" class="edge">
<title>Node1&#45;&gt;Node3</title>
<path fill="none" stroke="midnightblue" d="M423.37,-210.89C415.22,-214.18 405.88,-217.35 397,-219 376.9,-222.73 371.35,-220.96 351,-219 257.74,-210.03 150.08,-185.37 94.69,-171.61"/>
<polygon fill="midnightblue" stroke="midnightblue" points="424.8,-214.08 432.61,-206.91 422.04,-207.65 424.8,-214.08"/>
</g>
<!-- Node4 -->
<g id="node4" class="node">
<title>Node4</title>
<g id="a_node4"><a xlink:href="classquala_1_1LBFGS.html#abfe51417fbebd259808f86d27f1d7ec5" target="_top" xlink:title="Re&#45;allocate storage for a problem with a different size.">
<polygon fill="white" stroke="black" points="351,-266.5 351,-285.5 397,-285.5 397,-266.5 351,-266.5"/>
<text text-anchor="middle" x="374" y="-273.5" font-family="Helvetica,sans-Serif" font-size="10.00">resize</text>
</a>
</g>
</g>
<!-- Node1&#45;&gt;Node4 -->
<g id="edge3" class="edge">
<title>Node1&#45;&gt;Node4</title>
<path fill="none" stroke="midnightblue" d="M430.24,-217.29C416,-232.42 395.82,-253.87 384.21,-266.21"/>
<polygon fill="midnightblue" stroke="midnightblue" points="433.14,-219.31 437.44,-209.63 428.04,-214.51 433.14,-219.31"/>
</g>
<!-- Node5 -->
<g id="node5" class="node">
<title>Node5</title>
<g id="a_node5"><a xlink:href="classquala_1_1LBFGS.html#a15e4a3db39457cabe764a7737d24e73f" target="_top" xlink:title=" ">
<polygon fill="white" stroke="black" points="359.5,-190.5 359.5,-209.5 388.5,-209.5 388.5,-190.5 359.5,-190.5"/>
<text text-anchor="middle" x="374" y="-197.5" font-family="Helvetica,sans-Serif" font-size="10.00">s</text>
</a>
</g>
</g>
<!-- Node1&#45;&gt;Node5 -->
<g id="edge6" class="edge">
<title>Node1&#45;&gt;Node5</title>
<path fill="none" stroke="midnightblue" d="M422.63,-200C411.37,-200 398.33,-200 388.74,-200"/>
<polygon fill="midnightblue" stroke="midnightblue" points="422.71,-203.5 432.71,-200 422.71,-196.5 422.71,-203.5"/>
</g>
<!-- Node8 -->
<g id="node8" class="node">
<title>Node8</title>
<g id="a_node8"><a xlink:href="classquala_1_1LBFGS.html#aebac2ec4461761a48a7284152a8217f8" target="_top" xlink:title=" ">
<polygon fill="white" stroke="black" points="359.5,-152.5 359.5,-171.5 388.5,-171.5 388.5,-152.5 359.5,-152.5"/>
<text text-anchor="middle" x="374" y="-159.5" font-family="Helvetica,sans-Serif" font-size="10.00">y</text>
</a>
</g>
</g>
<!-- Node1&#45;&gt;Node8 -->
<g id="edge10" class="edge">
<title>Node1&#45;&gt;Node8</title>
<path fill="none" stroke="midnightblue" d="M423.67,-187.87C412.18,-181.76 398.62,-174.56 388.74,-169.3"/>
<polygon fill="midnightblue" stroke="midnightblue" points="422.24,-191.07 432.71,-192.67 425.53,-184.89 422.24,-191.07"/>
</g>
<!-- Node10 -->
<g id="node10" class="node">
<title>Node10</title>
<g id="a_node10"><a xlink:href="classquala_1_1LBFGS.html#ac7c2ee7d2562303f555dd1f4c3fca8cd" target="_top" xlink:title=" ">
<polygon fill="white" stroke="black" points="359.5,-76.5 359.5,-95.5 388.5,-95.5 388.5,-76.5 359.5,-76.5"/>
<text text-anchor="middle" x="374" y="-83.5" font-family="Helvetica,sans-Serif" font-size="10.00">α</text>
</a>
</g>
</g>
<!-- Node1&#45;&gt;Node10 -->
<g id="edge15" class="edge">
<title>Node1&#45;&gt;Node10</title>
<path fill="none" stroke="midnightblue" d="M439.17,-181.09C430.83,-160.98 415.87,-128.85 397,-105 394.37,-101.68 391.1,-98.49 387.89,-95.7"/>
<polygon fill="midnightblue" stroke="midnightblue" points="435.94,-182.44 442.92,-190.41 442.43,-179.82 435.94,-182.44"/>
</g>
<!-- Node12 -->
<g id="node12" class="node">
<title>Node12</title>
<g id="a_node12"><a xlink:href="classquala_1_1LBFGS.html#acade3dc51f7ca788be9b91908b2e73ab" target="_top" xlink:title=" ">
<polygon fill="white" stroke="black" points="359.5,-114.5 359.5,-133.5 388.5,-133.5 388.5,-114.5 359.5,-114.5"/>
<text text-anchor="middle" x="374" y="-121.5" font-family="Helvetica,sans-Serif" font-size="10.00">ρ</text>
</a>
</g>
</g>
<!-- Node1&#45;&gt;Node12 -->
<g id="edge20" class="edge">
<title>Node1&#45;&gt;Node12</title>
<path fill="none" stroke="midnightblue" d="M432.27,-182.33C422.7,-170.77 409.57,-155.54 397,-143 393.86,-139.86 390.27,-136.64 386.93,-133.76"/>
<polygon fill="midnightblue" stroke="midnightblue" points="429.8,-184.83 438.84,-190.35 435.21,-180.39 429.8,-184.83"/>
</g>
<!-- Node4&#45;&gt;Node2 -->
<g id="edge4" class="edge">
<title>Node4&#45;&gt;Node2</title>
<path fill="none" stroke="midnightblue" d="M341.43,-288.37C327.71,-293.74 311.91,-299.93 299.28,-304.88"/>
<polygon fill="midnightblue" stroke="midnightblue" points="342.95,-291.53 350.99,-284.62 340.4,-285.01 342.95,-291.53"/>
</g>
<!-- Node4&#45;&gt;Node3 -->
<g id="edge5" class="edge">
<title>Node4&#45;&gt;Node3</title>
<path fill="none" stroke="midnightblue" d="M340.62,-278.98C295.41,-281.75 211.84,-281.73 149,-252 109.72,-233.42 77.19,-190.92 63.92,-171.73"/>
<polygon fill="midnightblue" stroke="midnightblue" points="341,-282.46 350.73,-278.27 340.51,-275.48 341,-282.46"/>
</g>
<!-- Node6 -->
<g id="node6" class="node">
<title>Node6</title>
<g id="a_node6"><a xlink:href="classquala_1_1LBFGS.html#a33d8dd6fd12e1394c9637610086dae4c" target="_top" xlink:title="Apply the inverse Hessian approximation to the given vector q.">
<polygon fill="white" stroke="black" points="253,-76.5 253,-95.5 297,-95.5 297,-76.5 253,-76.5"/>
<text text-anchor="middle" x="275" y="-83.5" font-family="Helvetica,sans-Serif" font-size="10.00">apply</text>
</a>
</g>
</g>
<!-- Node5&#45;&gt;Node6 -->
<g id="edge7" class="edge">
<title>Node5&#45;&gt;Node6</title>
<path fill="none" stroke="midnightblue" d="M352.78,-183.19C352.16,-182.47 351.56,-181.74 351,-181 328.37,-151.26 341.28,-131.57 315,-105 310.02,-99.97 303.44,-96.07 297.11,-93.15"/>
<polygon fill="midnightblue" stroke="midnightblue" points="350.46,-185.82 360.03,-190.36 355.38,-180.84 350.46,-185.82"/>
</g>
<!-- Node7 -->
<g id="node7" class="node">
<title>Node7</title>
<g id="a_node7"><a xlink:href="classquala_1_1LBFGS.html#a4db75f8c280c32a05a44bb83769befb1" target="_top" xlink:title="Update the inverse Hessian approximation using the new vectors xₖ₊₁ and pₖ₊₁.">
<polygon fill="white" stroke="black" points="149,-114.5 149,-133.5 199,-133.5 199,-114.5 149,-114.5"/>
<text text-anchor="middle" x="174" y="-121.5" font-family="Helvetica,sans-Serif" font-size="10.00">update</text>
</a>
</g>
</g>
<!-- Node5&#45;&gt;Node7 -->
<g id="edge8" class="edge">
<title>Node5&#45;&gt;Node7</title>
<path fill="none" stroke="midnightblue" d="M349.09,-195.96C320.95,-190.67 273.2,-180.02 235,-163 217.3,-155.11 198.89,-142.36 187.21,-133.59"/>
<polygon fill="midnightblue" stroke="midnightblue" points="348.73,-199.45 359.2,-197.78 349.98,-192.56 348.73,-199.45"/>
</g>
<!-- Node7&#45;&gt;Node3 -->
<g id="edge9" class="edge">
<title>Node7&#45;&gt;Node3</title>
<path fill="none" stroke="midnightblue" d="M138.91,-135.22C122.28,-140.69 102.49,-147.2 86.59,-152.43"/>
<polygon fill="midnightblue" stroke="midnightblue" points="140.38,-138.42 148.79,-131.97 138.19,-131.77 140.38,-138.42"/>
</g>
<!-- Node8&#45;&gt;Node6 -->
<g id="edge11" class="edge">
<title>Node8&#45;&gt;Node6</title>
<path fill="none" stroke="midnightblue" d="M353.47,-145.32C352.63,-144.54 351.8,-143.77 351,-143 334.18,-126.93 333.76,-118.76 315,-105 309.53,-100.99 303.09,-97.45 297.03,-94.55"/>
<polygon fill="midnightblue" stroke="midnightblue" points="351.36,-148.13 361.16,-152.15 356.01,-142.89 351.36,-148.13"/>
</g>
<!-- Node8&#45;&gt;Node7 -->
<g id="edge14" class="edge">
<title>Node8&#45;&gt;Node7</title>
<path fill="none" stroke="midnightblue" d="M348.84,-159.93C321.12,-157.26 274.4,-151.88 235,-143 223.06,-140.31 210.09,-136.34 199.26,-132.72"/>
<polygon fill="midnightblue" stroke="midnightblue" points="348.87,-163.45 359.15,-160.88 349.51,-156.47 348.87,-163.45"/>
</g>
<!-- Node9 -->
<g id="node9" class="node">
<title>Node9</title>
<g id="a_node9"><a xlink:href="classquala_1_1LBFGS.html#adeddc1e1eb8ce1c1bbaf931b6f9a5b9c" target="_top" xlink:title="Scale the stored y vectors by the given factor.">
<polygon fill="white" stroke="black" points="248.5,-114.5 248.5,-133.5 301.5,-133.5 301.5,-114.5 248.5,-114.5"/>
<text text-anchor="middle" x="275" y="-121.5" font-family="Helvetica,sans-Serif" font-size="10.00">scale_y</text>
</a>
</g>
</g>
<!-- Node8&#45;&gt;Node9 -->
<g id="edge12" class="edge">
<title>Node8&#45;&gt;Node9</title>
<path fill="none" stroke="midnightblue" d="M349.59,-152.83C334.7,-147 315.45,-139.45 300.37,-133.55"/>
<polygon fill="midnightblue" stroke="midnightblue" points="348.51,-156.17 359.1,-156.56 351.07,-149.65 348.51,-156.17"/>
</g>
<!-- Node9&#45;&gt;Node3 -->
<g id="edge13" class="edge">
<title>Node9&#45;&gt;Node3</title>
<path fill="none" stroke="midnightblue" d="M238.49,-133.88C226.07,-137.1 211.98,-140.49 199,-143 170.89,-148.43 139.34,-152.83 113.18,-156.02"/>
<polygon fill="midnightblue" stroke="midnightblue" points="239.71,-137.18 248.48,-131.24 237.91,-130.42 239.71,-137.18"/>
</g>
<!-- Node10&#45;&gt;Node6 -->
<g id="edge16" class="edge">
<title>Node10&#45;&gt;Node6</title>
<path fill="none" stroke="midnightblue" d="M348.95,-86C333.01,-86 312.3,-86 297.02,-86"/>
<polygon fill="midnightblue" stroke="midnightblue" points="349.1,-89.5 359.1,-86 349.1,-82.5 349.1,-89.5"/>
</g>
<!-- Node11 -->
<g id="node11" class="node">
<title>Node11</title>
<g id="a_node11"><a xlink:href="classquala_1_1LBFGS.html#aaf9c6519c7a7d7ab977113f33c88e2e3" target="_top" xlink:title="Check if the new vectors s and y allow for a valid BFGS update that preserves the positive definitene...">
<polygon fill="white" stroke="black" points="235,-0.5 235,-19.5 315,-19.5 315,-0.5 235,-0.5"/>
<text text-anchor="middle" x="275" y="-7.5" font-family="Helvetica,sans-Serif" font-size="10.00">update_valid</text>
</a>
</g>
</g>
<!-- Node10&#45;&gt;Node11 -->
<g id="edge17" class="edge">
<title>Node10&#45;&gt;Node11</title>
<path fill="none" stroke="midnightblue" d="M355.83,-69.11C344.64,-58.49 329.48,-44.81 315,-34 308.12,-28.86 300.1,-23.79 293.13,-19.64"/>
<polygon fill="midnightblue" stroke="midnightblue" points="353.57,-71.8 363.2,-76.22 358.43,-66.76 353.57,-71.8"/>
</g>
<!-- Node11&#45;&gt;Node3 -->
<g id="edge18" class="edge">
<title>Node11&#45;&gt;Node3</title>
<path fill="none" stroke="midnightblue" d="M252.07,-25.4C207.48,-56.7 107.41,-126.96 71.04,-152.5"/>
<polygon fill="midnightblue" stroke="midnightblue" points="254.28,-28.12 260.46,-19.51 250.26,-22.39 254.28,-28.12"/>
</g>
<!-- Node11&#45;&gt;Node7 -->
<g id="edge19" class="edge">
<title>Node11&#45;&gt;Node7</title>
<path fill="none" stroke="midnightblue" d="M246.02,-25.14C242.11,-27.84 238.31,-30.81 235,-34 221.62,-46.9 193.04,-93.69 180.78,-114.22"/>
<polygon fill="midnightblue" stroke="midnightblue" points="248,-28.03 254.58,-19.73 244.26,-22.12 248,-28.03"/>
</g>
<!-- Node12&#45;&gt;Node6 -->
<g id="edge21" class="edge">
<title>Node12&#45;&gt;Node6</title>
<path fill="none" stroke="midnightblue" d="M349.41,-114.76C333.41,-108.49 312.44,-100.28 297.02,-94.23"/>
<polygon fill="midnightblue" stroke="midnightblue" points="348.51,-118.17 359.1,-118.56 351.07,-111.65 348.51,-118.17"/>
</g>
<!-- Node12&#45;&gt;Node7 -->
<g id="edge23" class="edge">
<title>Node12&#45;&gt;Node7</title>
<path fill="none" stroke="midnightblue" d="M353.47,-107.32C352.63,-106.54 351.8,-105.77 351,-105 334.18,-88.93 336.37,-76.19 315,-67 282.34,-52.95 268.02,-53.82 235,-67 210.98,-76.59 191.08,-100.87 181.37,-114.45"/>
<polygon fill="midnightblue" stroke="midnightblue" points="351.36,-110.13 361.16,-114.15 356.01,-104.89 351.36,-110.13"/>
</g>
<!-- Node12&#45;&gt;Node9 -->
<g id="edge22" class="edge">
<title>Node12&#45;&gt;Node9</title>
<path fill="none" stroke="midnightblue" d="M348.96,-124C334.54,-124 316.2,-124 301.52,-124"/>
<polygon fill="midnightblue" stroke="midnightblue" points="349.1,-127.5 359.1,-124 349.1,-120.5 349.1,-127.5"/>
</g>
</g>
</svg>
