<?xml version="1.0" encoding="UTF-8" standalone="no"?>
<!DOCTYPE svg PUBLIC "-//W3C//DTD SVG 1.1//EN"
 "http://www.w3.org/Graphics/SVG/1.1/DTD/svg11.dtd">
<!-- Generated by graphviz version 2.43.0 (0)
 -->
<!-- Title: m Pages: 1 -->
<svg width="774pt" height="423pt"
 viewBox="0.00 0.00 774.00 422.97" xmlns="http://www.w3.org/2000/svg" xmlns:xlink="http://www.w3.org/1999/xlink">
<g id="graph0" class="graph" transform="scale(1 1) rotate(0) translate(4 418.97)">
<title>m</title>
<polygon fill="white" stroke="transparent" points="-4,4 -4,-418.97 770,-418.97 770,4 -4,4"/>
<!-- Node1 -->
<g id="node1" class="node">
<title>Node1</title>
<g id="a_node1"><a xlink:title=" ">
<polygon fill="#bfbfbf" stroke="black" points="737,-163.5 737,-182.5 766,-182.5 766,-163.5 737,-163.5"/>
<text text-anchor="middle" x="751.5" y="-170.5" font-family="Helvetica,sans-Serif" font-size="10.00">m</text>
</a>
</g>
</g>
<!-- Node2 -->
<g id="node2" class="node">
<title>Node2</title>
<g id="a_node2"><a xlink:href="classquala_1_1LimitedMemoryQR.html#a5e3077223e98c1e4e286e01503f220d5" target="_top" xlink:title="Add the given column to the right.">
<polygon fill="white" stroke="black" points="509,-373.5 509,-392.5 585,-392.5 585,-373.5 509,-373.5"/>
<text text-anchor="middle" x="547" y="-380.5" font-family="Helvetica,sans-Serif" font-size="10.00">add_column</text>
</a>
</g>
</g>
<!-- Node1&#45;&gt;Node2 -->
<g id="edge1" class="edge">
<title>Node1&#45;&gt;Node2</title>
<path fill="none" stroke="midnightblue" d="M750.12,-192.99C748.37,-226.89 739.92,-295.79 701,-335 670.21,-366.02 619.64,-377.05 585.13,-380.93"/>
<polygon fill="midnightblue" stroke="midnightblue" points="753.63,-192.69 750.49,-182.57 746.64,-192.43 753.63,-192.69"/>
</g>
<!-- Node3 -->
<g id="node3" class="node">
<title>Node3</title>
<g id="a_node3"><a xlink:href="namespacequala.html#adfa7dfa28551cd76de954d1e5e58385c" target="_top" xlink:title="Solve one step of Anderson acceleration to find a fixed point of a function g(x):">
<polygon fill="white" stroke="black" points="158,-330 158,-360 292,-360 292,-330 158,-330"/>
<text text-anchor="start" x="166" y="-348" font-family="Helvetica,sans-Serif" font-size="10.00">quala::minimize_update</text>
<text text-anchor="middle" x="225" y="-337" font-family="Helvetica,sans-Serif" font-size="10.00">_anderson</text>
</a>
</g>
</g>
<!-- Node1&#45;&gt;Node3 -->
<g id="edge5" class="edge">
<title>Node1&#45;&gt;Node3</title>
<path fill="none" stroke="midnightblue" d="M750.96,-193.09C750.75,-231.31 744.93,-315.14 701,-365 671.59,-398.38 651.69,-393.63 608,-402 485.53,-425.47 449.15,-413.56 328,-384 304.42,-378.25 278.92,-368.5 259.32,-360.19"/>
<polygon fill="midnightblue" stroke="midnightblue" points="754.46,-192.75 750.88,-182.77 747.46,-192.8 754.46,-192.75"/>
</g>
<!-- Node5 -->
<g id="node5" class="node">
<title>Node5</title>
<g id="a_node5"><a xlink:href="classquala_1_1LimitedMemoryQR.html#a9cf7dcccbc3bc69a10833450ee79c623" target="_top" xlink:title=" ">
<polygon fill="white" stroke="black" points="647.5,-106.5 647.5,-125.5 697.5,-125.5 697.5,-106.5 647.5,-106.5"/>
<text text-anchor="middle" x="672.5" y="-113.5" font-family="Helvetica,sans-Serif" font-size="10.00">history</text>
</a>
</g>
</g>
<!-- Node1&#45;&gt;Node5 -->
<g id="edge4" class="edge">
<title>Node1&#45;&gt;Node5</title>
<path fill="none" stroke="midnightblue" d="M729.04,-157.12C715.33,-146.96 697.99,-134.13 686.37,-125.53"/>
<polygon fill="midnightblue" stroke="midnightblue" points="727.32,-160.19 737.44,-163.33 731.48,-154.57 727.32,-160.19"/>
</g>
<!-- Node6 -->
<g id="node6" class="node">
<title>Node6</title>
<g id="a_node6"><a xlink:href="classquala_1_1LimitedMemoryQR.html#a5c8c5c98dc14e4c5e77345b6fe7a023a" target="_top" xlink:title="Get the previous index in the circular storage for R.">
<polygon fill="white" stroke="black" points="649,-68.5 649,-87.5 696,-87.5 696,-68.5 649,-68.5"/>
<text text-anchor="middle" x="672.5" y="-75.5" font-family="Helvetica,sans-Serif" font-size="10.00">r_pred</text>
</a>
</g>
</g>
<!-- Node1&#45;&gt;Node6 -->
<g id="edge6" class="edge">
<title>Node1&#45;&gt;Node6</title>
<path fill="none" stroke="midnightblue" d="M740.96,-154.18C732.08,-137.85 717.73,-114.2 701,-97 697.68,-93.59 693.67,-90.41 689.74,-87.67"/>
<polygon fill="midnightblue" stroke="midnightblue" points="737.99,-156.06 745.75,-163.27 744.19,-152.8 737.99,-156.06"/>
</g>
<!-- Node8 -->
<g id="node8" class="node">
<title>Node8</title>
<g id="a_node8"><a xlink:href="classquala_1_1LimitedMemoryQR.html#a9f68bead8c70041aacb90dd175150dc4" target="_top" xlink:title="Get the next index in the circular storage for R.">
<polygon fill="white" stroke="black" points="649,-306.5 649,-325.5 696,-325.5 696,-306.5 649,-306.5"/>
<text text-anchor="middle" x="672.5" y="-313.5" font-family="Helvetica,sans-Serif" font-size="10.00">r_succ</text>
</a>
</g>
</g>
<!-- Node1&#45;&gt;Node8 -->
<g id="edge8" class="edge">
<title>Node1&#45;&gt;Node8</title>
<path fill="none" stroke="midnightblue" d="M740.41,-191.73C723.79,-222.61 691.21,-283.11 678.63,-306.48"/>
<polygon fill="midnightblue" stroke="midnightblue" points="743.55,-193.29 745.21,-182.83 737.38,-189.97 743.55,-193.29"/>
</g>
<!-- Node11 -->
<g id="node11" class="node">
<title>Node11</title>
<g id="a_node11"><a xlink:href="classquala_1_1LimitedMemoryQR.html#ad15543203799d1dccb5a5e1c572e3f02" target="_top" xlink:title="Re&#45;allocate storage for a problem with a different size.">
<polygon fill="white" stroke="black" points="649.5,-27.5 649.5,-46.5 695.5,-46.5 695.5,-27.5 649.5,-27.5"/>
<text text-anchor="middle" x="672.5" y="-34.5" font-family="Helvetica,sans-Serif" font-size="10.00">resize</text>
</a>
</g>
</g>
<!-- Node1&#45;&gt;Node11 -->
<g id="edge13" class="edge">
<title>Node1&#45;&gt;Node11</title>
<path fill="none" stroke="midnightblue" d="M745.25,-153.63C738.09,-129.67 723.51,-88.43 701,-59 697.43,-54.34 692.68,-50.08 688.12,-46.58"/>
<polygon fill="midnightblue" stroke="midnightblue" points="741.91,-154.67 748.03,-163.32 748.64,-152.75 741.91,-154.67"/>
</g>
<!-- Node15 -->
<g id="node15" class="node">
<title>Node15</title>
<g id="a_node15"><a xlink:href="classquala_1_1LimitedMemoryQR.html#a0bf0ad441ec87440e4525e75de00d053" target="_top" xlink:title="Get iterators in the circular buffer.">
<polygon fill="white" stroke="black" points="644,-183.5 644,-202.5 701,-202.5 701,-183.5 644,-183.5"/>
<text text-anchor="middle" x="672.5" y="-190.5" font-family="Helvetica,sans-Serif" font-size="10.00">ring_iter</text>
</a>
</g>
</g>
<!-- Node1&#45;&gt;Node15 -->
<g id="edge17" class="edge">
<title>Node1&#45;&gt;Node15</title>
<path fill="none" stroke="midnightblue" d="M726.82,-179.15C718.72,-181.26 709.57,-183.63 701.18,-185.81"/>
<polygon fill="midnightblue" stroke="midnightblue" points="727.94,-182.48 736.73,-176.58 726.18,-175.7 727.94,-182.48"/>
</g>
<!-- Node19 -->
<g id="node19" class="node">
<title>Node19</title>
<g id="a_node19"><a xlink:href="classquala_1_1LimitedMemoryQR.html#a5f3732971788e558366a2b509a538206" target="_top" xlink:title="Solve the least squares problem AX = B.">
<polygon fill="white" stroke="black" points="39.5,-131.5 39.5,-150.5 82.5,-150.5 82.5,-131.5 39.5,-131.5"/>
<text text-anchor="middle" x="61" y="-138.5" font-family="Helvetica,sans-Serif" font-size="10.00">solve</text>
</a>
</g>
</g>
<!-- Node1&#45;&gt;Node19 -->
<g id="edge26" class="edge">
<title>Node1&#45;&gt;Node19</title>
<path fill="none" stroke="midnightblue" d="M727.34,-165.04C699.43,-155.91 650.94,-141.48 608,-136 404.89,-110.06 155.82,-131.45 82.95,-138.77"/>
<polygon fill="midnightblue" stroke="midnightblue" points="726.38,-168.41 736.97,-168.25 728.59,-161.77 726.38,-168.41"/>
</g>
<!-- Node2&#45;&gt;Node3 -->
<g id="edge2" class="edge">
<title>Node2&#45;&gt;Node3</title>
<path fill="none" stroke="midnightblue" d="M498.68,-380.21C454.42,-377.28 386.55,-371.98 328,-364 316.4,-362.42 304.11,-360.41 292.24,-358.31"/>
<polygon fill="midnightblue" stroke="midnightblue" points="498.64,-383.71 508.85,-380.87 499.1,-376.73 498.64,-383.71"/>
</g>
<!-- Node4 -->
<g id="node4" class="node">
<title>Node4</title>
<g id="a_node4"><a xlink:href="classquala_1_1AndersonAccel.html#a7cbecaa52700158ebe36c0d587791ed4" target="_top" xlink:title="Compute the accelerated iterate , given the function value at the current iterate &#160;and the correspond...">
<polygon fill="white" stroke="black" points="0,-330 0,-360 122,-360 122,-330 0,-330"/>
<text text-anchor="start" x="8" y="-348" font-family="Helvetica,sans-Serif" font-size="10.00">quala::AndersonAccel</text>
<text text-anchor="middle" x="61" y="-337" font-family="Helvetica,sans-Serif" font-size="10.00">::compute</text>
</a>
</g>
</g>
<!-- Node3&#45;&gt;Node4 -->
<g id="edge3" class="edge">
<title>Node3&#45;&gt;Node4</title>
<path fill="none" stroke="midnightblue" d="M147.61,-345C139.02,-345 130.36,-345 122.01,-345"/>
<polygon fill="midnightblue" stroke="midnightblue" points="147.64,-348.5 157.64,-345 147.64,-341.5 147.64,-348.5"/>
</g>
<!-- Node7 -->
<g id="node7" class="node">
<title>Node7</title>
<g id="a_node7"><a xlink:href="classquala_1_1LimitedMemoryQR.html#abe9cf16db2c29172997a6aa0ee68f75a" target="_top" xlink:title="Get the previous index in the circular buffer.">
<polygon fill="white" stroke="black" points="516,-69.5 516,-88.5 578,-88.5 578,-69.5 516,-69.5"/>
<text text-anchor="middle" x="547" y="-76.5" font-family="Helvetica,sans-Serif" font-size="10.00">ring_prev</text>
</a>
</g>
</g>
<!-- Node6&#45;&gt;Node7 -->
<g id="edge7" class="edge">
<title>Node6&#45;&gt;Node7</title>
<path fill="none" stroke="midnightblue" d="M638.71,-78.27C620.01,-78.42 596.72,-78.61 578.42,-78.75"/>
<polygon fill="midnightblue" stroke="midnightblue" points="638.88,-81.76 648.85,-78.18 638.82,-74.76 638.88,-81.76"/>
</g>
<!-- Node8&#45;&gt;Node2 -->
<g id="edge9" class="edge">
<title>Node8&#45;&gt;Node2</title>
<path fill="none" stroke="midnightblue" d="M650.8,-331.69C638.72,-340.41 622.95,-351.07 608,-359 597.69,-364.47 585.86,-369.46 575.44,-373.45"/>
<polygon fill="midnightblue" stroke="midnightblue" points="652.89,-334.49 658.88,-325.74 648.75,-328.85 652.89,-334.49"/>
</g>
<!-- Node9 -->
<g id="node9" class="node">
<title>Node9</title>
<g id="a_node9"><a xlink:href="classquala_1_1LimitedMemoryQR.html#a436c4dbbf0476354ca67a104bc005e55" target="_top" xlink:title="Remove the leftmost column.">
<polygon fill="white" stroke="black" points="341.5,-335.5 341.5,-354.5 436.5,-354.5 436.5,-335.5 341.5,-335.5"/>
<text text-anchor="middle" x="389" y="-342.5" font-family="Helvetica,sans-Serif" font-size="10.00">remove_column</text>
</a>
</g>
</g>
<!-- Node8&#45;&gt;Node9 -->
<g id="edge10" class="edge">
<title>Node8&#45;&gt;Node9</title>
<path fill="none" stroke="midnightblue" d="M639.02,-321.56C629.09,-323.14 618.11,-324.76 608,-326 549.17,-333.19 481.09,-338.67 436.88,-341.86"/>
<polygon fill="midnightblue" stroke="midnightblue" points="639.62,-325.01 648.92,-319.94 638.49,-318.1 639.62,-325.01"/>
</g>
<!-- Node10 -->
<g id="node10" class="node">
<title>Node10</title>
<g id="a_node10"><a xlink:href="classquala_1_1LimitedMemoryQR.html#ad24371ff0ab7c48c4fb9750d5d66cd0c" target="_top" xlink:title="Get the next index in the circular buffer.">
<polygon fill="white" stroke="black" points="516,-297.5 516,-316.5 578,-316.5 578,-297.5 516,-297.5"/>
<text text-anchor="middle" x="547" y="-304.5" font-family="Helvetica,sans-Serif" font-size="10.00">ring_next</text>
</a>
</g>
</g>
<!-- Node8&#45;&gt;Node10 -->
<g id="edge12" class="edge">
<title>Node8&#45;&gt;Node10</title>
<path fill="none" stroke="midnightblue" d="M638.71,-313.61C620.01,-312.25 596.72,-310.55 578.42,-309.22"/>
<polygon fill="midnightblue" stroke="midnightblue" points="638.62,-317.11 648.85,-314.35 639.13,-310.13 638.62,-317.11"/>
</g>
<!-- Node9&#45;&gt;Node3 -->
<g id="edge11" class="edge">
<title>Node9&#45;&gt;Node3</title>
<path fill="none" stroke="midnightblue" d="M330.83,-345C318.28,-345 304.89,-345 292.03,-345"/>
<polygon fill="midnightblue" stroke="midnightblue" points="331.14,-348.5 341.14,-345 331.14,-341.5 331.14,-348.5"/>
</g>
<!-- Node12 -->
<g id="node12" class="node">
<title>Node12</title>
<g id="a_node12"><a xlink:href="classquala_1_1AndersonAccel.html#abfe51417fbebd259808f86d27f1d7ec5" target="_top" xlink:title="Change the problem dimension.">
<polygon fill="white" stroke="black" points="486,-20 486,-50 608,-50 608,-20 486,-20"/>
<text text-anchor="start" x="494" y="-38" font-family="Helvetica,sans-Serif" font-size="10.00">quala::AndersonAccel</text>
<text text-anchor="middle" x="547" y="-27" font-family="Helvetica,sans-Serif" font-size="10.00">::resize</text>
</a>
</g>
</g>
<!-- Node11&#45;&gt;Node12 -->
<g id="edge14" class="edge">
<title>Node11&#45;&gt;Node12</title>
<path fill="none" stroke="midnightblue" d="M639.2,-36.48C629.61,-36.32 618.79,-36.15 608.04,-35.97"/>
<polygon fill="midnightblue" stroke="midnightblue" points="639.37,-39.98 649.42,-36.64 639.48,-32.98 639.37,-39.98"/>
</g>
<!-- Node13 -->
<g id="node13" class="node">
<title>Node13</title>
<g id="a_node13"><a xlink:href="classquala_1_1AndersonAccel.html#a1fcb04cfb2b1398b54d8242cc3b0fb34" target="_top" xlink:title=" ">
<polygon fill="white" stroke="black" points="328,-39 328,-69 450,-69 450,-39 328,-39"/>
<text text-anchor="start" x="336" y="-57" font-family="Helvetica,sans-Serif" font-size="10.00">quala::AndersonAccel</text>
<text text-anchor="middle" x="389" y="-46" font-family="Helvetica,sans-Serif" font-size="10.00">::AndersonAccel</text>
</a>
</g>
</g>
<!-- Node12&#45;&gt;Node13 -->
<g id="edge15" class="edge">
<title>Node12&#45;&gt;Node13</title>
<path fill="none" stroke="midnightblue" d="M475.74,-43.56C467.2,-44.6 458.53,-45.65 450.15,-46.67"/>
<polygon fill="midnightblue" stroke="midnightblue" points="476.18,-47.03 485.69,-42.35 475.34,-40.08 476.18,-47.03"/>
</g>
<!-- Node14 -->
<g id="node14" class="node">
<title>Node14</title>
<g id="a_node14"><a xlink:href="quala_8cpp.html#a12fb4e87da488d1fc7c6fa3e6a3adb90" target="_top" xlink:title=" ">
<polygon fill="white" stroke="black" points="332.5,-0.5 332.5,-19.5 445.5,-19.5 445.5,-0.5 332.5,-0.5"/>
<text text-anchor="middle" x="389" y="-7.5" font-family="Helvetica,sans-Serif" font-size="10.00">PYBIND11_MODULE</text>
</a>
</g>
</g>
<!-- Node12&#45;&gt;Node14 -->
<g id="edge16" class="edge">
<title>Node12&#45;&gt;Node14</title>
<path fill="none" stroke="midnightblue" d="M475.68,-23.73C465.58,-22.11 455.31,-20.47 445.56,-18.9"/>
<polygon fill="midnightblue" stroke="midnightblue" points="475.26,-27.21 485.69,-25.33 476.37,-20.3 475.26,-27.21"/>
</g>
<!-- Node15&#45;&gt;Node3 -->
<g id="edge18" class="edge">
<title>Node15&#45;&gt;Node3</title>
<path fill="none" stroke="midnightblue" d="M648.12,-207.9C636.4,-214.95 621.78,-223.09 608,-229 500.2,-275.25 367.97,-311.05 290.73,-330"/>
<polygon fill="midnightblue" stroke="midnightblue" points="650.15,-210.76 656.84,-202.55 646.49,-204.8 650.15,-210.76"/>
</g>
<!-- Node16 -->
<g id="node16" class="node">
<title>Node16</title>
<g id="a_node16"><a xlink:href="classquala_1_1LimitedMemoryQR.html#ae8160acf26958eb65aa5c0743dd2826d" target="_top" xlink:title="Get reverse iterators in the circular buffer.">
<polygon fill="white" stroke="black" points="497.5,-183.5 497.5,-202.5 596.5,-202.5 596.5,-183.5 497.5,-183.5"/>
<text text-anchor="middle" x="547" y="-190.5" font-family="Helvetica,sans-Serif" font-size="10.00">ring_reverse_iter</text>
</a>
</g>
</g>
<!-- Node15&#45;&gt;Node16 -->
<g id="edge19" class="edge">
<title>Node15&#45;&gt;Node16</title>
<path fill="none" stroke="midnightblue" d="M633.6,-193C622.04,-193 609.17,-193 596.98,-193"/>
<polygon fill="midnightblue" stroke="midnightblue" points="633.78,-196.5 643.78,-193 633.78,-189.5 633.78,-196.5"/>
</g>
<!-- Node17 -->
<g id="node17" class="node">
<title>Node17</title>
<g id="a_node17"><a xlink:href="classquala_1_1LimitedMemoryQR.html#a7a60dfe0a5f68bc1efec69e406a2b619" target="_top" xlink:title="Solve the least squares problem Ax = b.">
<polygon fill="white" stroke="black" points="358,-202.5 358,-221.5 420,-221.5 420,-202.5 358,-202.5"/>
<text text-anchor="middle" x="389" y="-209.5" font-family="Helvetica,sans-Serif" font-size="10.00">solve_col</text>
</a>
</g>
</g>
<!-- Node15&#45;&gt;Node17 -->
<g id="edge25" class="edge">
<title>Node15&#45;&gt;Node17</title>
<path fill="none" stroke="midnightblue" d="M635.86,-205.64C626.88,-208.27 617.18,-210.66 608,-212 541.53,-221.73 462.43,-217.97 420.17,-214.75"/>
<polygon fill="midnightblue" stroke="midnightblue" points="637.12,-208.91 645.63,-202.6 635.04,-202.23 637.12,-208.91"/>
</g>
<!-- Node20 -->
<g id="node20" class="node">
<title>Node20</title>
<g id="a_node20"><a xlink:href="classquala_1_1LimitedMemoryQR.html#adf11f99cb8b119423c86498dbaab9820" target="_top" xlink:title="Multiply the matrix R by a scalar.">
<polygon fill="white" stroke="black" points="520,-145.5 520,-164.5 574,-164.5 574,-145.5 520,-145.5"/>
<text text-anchor="middle" x="547" y="-152.5" font-family="Helvetica,sans-Serif" font-size="10.00">scale_R</text>
</a>
</g>
</g>
<!-- Node15&#45;&gt;Node20 -->
<g id="edge24" class="edge">
<title>Node15&#45;&gt;Node20</title>
<path fill="none" stroke="midnightblue" d="M634.09,-181.49C614.81,-175.56 591.75,-168.46 574.35,-163.11"/>
<polygon fill="midnightblue" stroke="midnightblue" points="633.2,-184.88 643.78,-184.47 635.26,-178.19 633.2,-184.88"/>
</g>
<!-- Node16&#45;&gt;Node17 -->
<g id="edge20" class="edge">
<title>Node16&#45;&gt;Node17</title>
<path fill="none" stroke="midnightblue" d="M487.53,-200.12C464.66,-202.91 439.4,-205.98 420.32,-208.31"/>
<polygon fill="midnightblue" stroke="midnightblue" points="487.99,-203.59 497.5,-198.91 487.15,-196.64 487.99,-203.59"/>
</g>
<!-- Node17&#45;&gt;Node3 -->
<g id="edge21" class="edge">
<title>Node17&#45;&gt;Node3</title>
<path fill="none" stroke="midnightblue" d="M365.36,-227.42C353.95,-235.38 340.02,-245.43 328,-255 296.59,-280.01 261.92,-311.49 242.17,-329.82"/>
<polygon fill="midnightblue" stroke="midnightblue" points="367.65,-230.09 373.88,-221.52 363.67,-224.33 367.65,-230.09"/>
</g>
<!-- Node18 -->
<g id="node18" class="node">
<title>Node18</title>
<g id="a_node18"><a xlink:href="classquala_1_1LimitedMemoryQR.html#a9ec3e86c6cbb239ba0642378b564af41" target="_top" xlink:title="Solve the least squares problem AX = B.">
<polygon fill="white" stroke="black" points="203.5,-178.5 203.5,-197.5 246.5,-197.5 246.5,-178.5 203.5,-178.5"/>
<text text-anchor="middle" x="225" y="-185.5" font-family="Helvetica,sans-Serif" font-size="10.00">solve</text>
</a>
</g>
</g>
<!-- Node17&#45;&gt;Node18 -->
<g id="edge22" class="edge">
<title>Node17&#45;&gt;Node18</title>
<path fill="none" stroke="midnightblue" d="M347.93,-206.06C315.84,-201.31 272.11,-194.83 246.68,-191.06"/>
<polygon fill="midnightblue" stroke="midnightblue" points="347.5,-209.54 357.91,-207.54 348.53,-202.61 347.5,-209.54"/>
</g>
<!-- Node18&#45;&gt;Node19 -->
<g id="edge23" class="edge">
<title>Node18&#45;&gt;Node19</title>
<path fill="none" stroke="midnightblue" d="M193.64,-179.19C161.21,-169.78 110.69,-155.13 82.61,-146.98"/>
<polygon fill="midnightblue" stroke="midnightblue" points="192.9,-182.62 203.48,-182.05 194.85,-175.9 192.9,-182.62"/>
</g>
</g>
</svg>
