<?xml version="1.0" encoding="UTF-8" standalone="no"?>
<!DOCTYPE svg PUBLIC "-//W3C//DTD SVG 1.1//EN"
 "http://www.w3.org/Graphics/SVG/1.1/DTD/svg11.dtd">
<!-- Generated by graphviz version 2.43.0 (0)
 -->
<!-- Title: resize Pages: 1 -->
<svg width="203pt" height="66pt"
 viewBox="0.00 0.00 203.00 66.00" xmlns="http://www.w3.org/2000/svg" xmlns:xlink="http://www.w3.org/1999/xlink">
<g id="graph0" class="graph" transform="scale(1 1) rotate(0) translate(4 62)">
<title>resize</title>
<polygon fill="white" stroke="transparent" points="-4,4 -4,-62 199,-62 199,4 -4,4"/>
<!-- Node1 -->
<g id="node1" class="node">
<title>Node1</title>
<g id="a_node1"><a xlink:title="Change the problem dimension.">
<polygon fill="#bfbfbf" stroke="black" points="149,-19.5 149,-38.5 195,-38.5 195,-19.5 149,-19.5"/>
<text text-anchor="middle" x="172" y="-26.5" font-family="Helvetica,sans-Serif" font-size="10.00">resize</text>
</a>
</g>
</g>
<!-- Node2 -->
<g id="node2" class="node">
<title>Node2</title>
<g id="a_node2"><a xlink:href="classquala_1_1AndersonAccel.html#a1fcb04cfb2b1398b54d8242cc3b0fb34" target="_top" xlink:title=" ">
<polygon fill="white" stroke="black" points="12,-38.5 12,-57.5 101,-57.5 101,-38.5 12,-38.5"/>
<text text-anchor="middle" x="56.5" y="-45.5" font-family="Helvetica,sans-Serif" font-size="10.00">AndersonAccel</text>
</a>
</g>
</g>
<!-- Node1&#45;&gt;Node2 -->
<g id="edge1" class="edge">
<title>Node1&#45;&gt;Node2</title>
<path fill="none" stroke="midnightblue" d="M138.69,-34.41C127.04,-36.36 113.68,-38.6 101.21,-40.68"/>
<polygon fill="midnightblue" stroke="midnightblue" points="139.56,-37.81 148.85,-32.71 138.41,-30.91 139.56,-37.81"/>
</g>
<!-- Node3 -->
<g id="node3" class="node">
<title>Node3</title>
<g id="a_node3"><a xlink:href="quala_8cpp.html#a12fb4e87da488d1fc7c6fa3e6a3adb90" target="_top" xlink:title=" ">
<polygon fill="white" stroke="black" points="0,-0.5 0,-19.5 113,-19.5 113,-0.5 0,-0.5"/>
<text text-anchor="middle" x="56.5" y="-7.5" font-family="Helvetica,sans-Serif" font-size="10.00">PYBIND11_MODULE</text>
</a>
</g>
</g>
<!-- Node1&#45;&gt;Node3 -->
<g id="edge2" class="edge">
<title>Node1&#45;&gt;Node3</title>
<path fill="none" stroke="midnightblue" d="M138.8,-23.61C130.74,-22.26 121.86,-20.77 113.02,-19.29"/>
<polygon fill="midnightblue" stroke="midnightblue" points="138.41,-27.09 148.85,-25.29 139.56,-20.19 138.41,-27.09"/>
</g>
</g>
</svg>
