<?xml version="1.0" encoding="UTF-8" standalone="no"?>
<!DOCTYPE svg PUBLIC "-//W3C//DTD SVG 1.1//EN"
 "http://www.w3.org/Graphics/SVG/1.1/DTD/svg11.dtd">
<!-- Generated by graphviz version 2.43.0 (0)
 -->
<!-- Title: num_columns Pages: 1 -->
<svg width="421pt" height="78pt"
 viewBox="0.00 0.00 421.00 77.50" xmlns="http://www.w3.org/2000/svg" xmlns:xlink="http://www.w3.org/1999/xlink">
<g id="graph0" class="graph" transform="scale(1 1) rotate(0) translate(4 73.5)">
<title>num_columns</title>
<polygon fill="white" stroke="transparent" points="-4,4 -4,-73.5 417,-73.5 417,4 -4,4"/>
<!-- Node1 -->
<g id="node1" class="node">
<title>Node1</title>
<g id="a_node1"><a xlink:title="Get the number of columns that are currently stored.">
<polygon fill="#bfbfbf" stroke="black" points="328,-22.5 328,-41.5 413,-41.5 413,-22.5 328,-22.5"/>
<text text-anchor="middle" x="370.5" y="-29.5" font-family="Helvetica,sans-Serif" font-size="10.00">num_columns</text>
</a>
</g>
</g>
<!-- Node2 -->
<g id="node2" class="node">
<title>Node2</title>
<g id="a_node2"><a xlink:href="namespacequala.html#adfa7dfa28551cd76de954d1e5e58385c" target="_top" xlink:title="Solve one step of Anderson acceleration to find a fixed point of a function g(x):">
<polygon fill="white" stroke="black" points="158,-39 158,-69 292,-69 292,-39 158,-39"/>
<text text-anchor="start" x="166" y="-57" font-family="Helvetica,sans-Serif" font-size="10.00">quala::minimize_update</text>
<text text-anchor="middle" x="225" y="-46" font-family="Helvetica,sans-Serif" font-size="10.00">_anderson</text>
</a>
</g>
</g>
<!-- Node1&#45;&gt;Node2 -->
<g id="edge1" class="edge">
<title>Node1&#45;&gt;Node2</title>
<path fill="none" stroke="midnightblue" d="M317.96,-39.9C309.54,-41.19 300.72,-42.54 292.01,-43.88"/>
<polygon fill="midnightblue" stroke="midnightblue" points="318.64,-43.34 327.99,-38.36 317.58,-36.42 318.64,-43.34"/>
</g>
<!-- Node4 -->
<g id="node4" class="node">
<title>Node4</title>
<g id="a_node4"><a xlink:href="classquala_1_1LimitedMemoryQR.html#a9ec3e86c6cbb239ba0642378b564af41" target="_top" xlink:title="Solve the least squares problem AX = B.">
<polygon fill="white" stroke="black" points="203.5,-0.5 203.5,-19.5 246.5,-19.5 246.5,-0.5 203.5,-0.5"/>
<text text-anchor="middle" x="225" y="-7.5" font-family="Helvetica,sans-Serif" font-size="10.00">solve</text>
</a>
</g>
</g>
<!-- Node1&#45;&gt;Node4 -->
<g id="edge3" class="edge">
<title>Node1&#45;&gt;Node4</title>
<path fill="none" stroke="midnightblue" d="M318.05,-24.11C293.41,-20.34 265.31,-16.03 246.7,-13.17"/>
<polygon fill="midnightblue" stroke="midnightblue" points="317.58,-27.58 327.99,-25.64 318.64,-20.66 317.58,-27.58"/>
</g>
<!-- Node3 -->
<g id="node3" class="node">
<title>Node3</title>
<g id="a_node3"><a xlink:href="classquala_1_1AndersonAccel.html#a7cbecaa52700158ebe36c0d587791ed4" target="_top" xlink:title="Compute the accelerated iterate , given the function value at the current iterate &#160;and the correspond...">
<polygon fill="white" stroke="black" points="0,-39 0,-69 122,-69 122,-39 0,-39"/>
<text text-anchor="start" x="8" y="-57" font-family="Helvetica,sans-Serif" font-size="10.00">quala::AndersonAccel</text>
<text text-anchor="middle" x="61" y="-46" font-family="Helvetica,sans-Serif" font-size="10.00">::compute</text>
</a>
</g>
</g>
<!-- Node2&#45;&gt;Node3 -->
<g id="edge2" class="edge">
<title>Node2&#45;&gt;Node3</title>
<path fill="none" stroke="midnightblue" d="M147.61,-54C139.02,-54 130.36,-54 122.01,-54"/>
<polygon fill="midnightblue" stroke="midnightblue" points="147.64,-57.5 157.64,-54 147.64,-50.5 147.64,-57.5"/>
</g>
<!-- Node5 -->
<g id="node5" class="node">
<title>Node5</title>
<g id="a_node5"><a xlink:href="classquala_1_1LimitedMemoryQR.html#a5f3732971788e558366a2b509a538206" target="_top" xlink:title="Solve the least squares problem AX = B.">
<polygon fill="white" stroke="black" points="39.5,-0.5 39.5,-19.5 82.5,-19.5 82.5,-0.5 39.5,-0.5"/>
<text text-anchor="middle" x="61" y="-7.5" font-family="Helvetica,sans-Serif" font-size="10.00">solve</text>
</a>
</g>
</g>
<!-- Node4&#45;&gt;Node5 -->
<g id="edge4" class="edge">
<title>Node4&#45;&gt;Node5</title>
<path fill="none" stroke="midnightblue" d="M193.22,-10C160.77,-10 110.57,-10 82.61,-10"/>
<polygon fill="midnightblue" stroke="midnightblue" points="193.48,-13.5 203.48,-10 193.48,-6.5 193.48,-13.5"/>
</g>
</g>
</svg>
