<?xml version="1.0" encoding="UTF-8" standalone="no"?>
<!DOCTYPE svg PUBLIC "-//W3C//DTD SVG 1.1//EN"
 "http://www.w3.org/Graphics/SVG/1.1/DTD/svg11.dtd">
<!-- Generated by graphviz version 2.43.0 (0)
 -->
<!-- Title: quala Pages: 1 -->
<svg width="182pt" height="255pt"
 viewBox="0.00 0.00 182.00 255.00" xmlns="http://www.w3.org/2000/svg" xmlns:xlink="http://www.w3.org/1999/xlink">
<g id="graph0" class="graph" transform="scale(1 1) rotate(0) translate(4 251)">
<title>quala</title>
<polygon fill="white" stroke="transparent" points="-4,4 -4,-251 178,-251 178,4 -4,4"/>
<g id="clust1" class="cluster">
<title>clusterdir_b0856f6b0d80ccb263b2f415c91f9e17</title>
<g id="a_clust1"><a xlink:href="dir_b0856f6b0d80ccb263b2f415c91f9e17.html" target="_top" xlink:title="include">
<polygon fill="#ddddee" stroke="black" points="8,-8 8,-239 166,-239 166,-8 8,-8"/>
<text text-anchor="middle" x="87" y="-227" font-family="Helvetica,sans-Serif" font-size="10.00">include</text>
</a>
</g>
</g>
<g id="clust2" class="cluster">
<title>clusterdir_2448859584f6f86a66eb22b27517f4e7</title>
<g id="a_clust2"><a xlink:href="dir_2448859584f6f86a66eb22b27517f4e7.html" target="_top">
<polygon fill="#eeeeff" stroke="black" points="16,-16 16,-212 158,-212 158,-16 16,-16"/>
</a>
</g>
</g>
<!-- dir_2448859584f6f86a66eb22b27517f4e7 -->
<g id="node1" class="node">
<title>dir_2448859584f6f86a66eb22b27517f4e7</title>
<text text-anchor="middle" x="87" y="-183.5" font-family="Helvetica,sans-Serif" font-size="10.00">quala</text>
</g>
<!-- dir_d1540675e56c2900ea555f43e355c202 -->
<g id="node2" class="node">
<title>dir_d1540675e56c2900ea555f43e355c202</title>
<g id="a_node2"><a xlink:href="dir_d1540675e56c2900ea555f43e355c202.html" target="_top" xlink:title="decl">
<polygon fill="white" stroke="black" points="78,-132 24,-132 24,-96 78,-96 78,-132"/>
<text text-anchor="middle" x="51" y="-111.5" font-family="Helvetica,sans-Serif" font-size="10.00">decl</text>
</a>
</g>
</g>
<!-- dir_2448859584f6f86a66eb22b27517f4e7&#45;&gt;dir_d1540675e56c2900ea555f43e355c202 -->
<g id="edge2" class="edge">
<title>dir_2448859584f6f86a66eb22b27517f4e7&#45;&gt;dir_d1540675e56c2900ea555f43e355c202</title>
<path fill="none" stroke="black" d="M78.1,-167.7C74,-159.73 69.05,-150.1 64.51,-141.26"/>
<polygon fill="black" stroke="black" points="67.48,-139.4 59.8,-132.1 61.26,-142.6 67.48,-139.4"/>
<g id="a_edge2&#45;headlabel"><a xlink:href="dir_000003_000004.html" target="_top" xlink:title="1">
<text text-anchor="middle" x="71.65" y="-138.79" font-family="Helvetica,sans-Serif" font-size="10.00">1</text>
</a>
</g>
</g>
<!-- dir_4f0fc3cc9aba45c1dd27eb0e6749a5c4 -->
<g id="node3" class="node">
<title>dir_4f0fc3cc9aba45c1dd27eb0e6749a5c4</title>
<g id="a_node3"><a xlink:href="dir_4f0fc3cc9aba45c1dd27eb0e6749a5c4.html" target="_top" xlink:title="detail">
<polygon fill="white" stroke="black" points="150,-132 96,-132 96,-96 150,-96 150,-132"/>
<text text-anchor="middle" x="123" y="-111.5" font-family="Helvetica,sans-Serif" font-size="10.00">detail</text>
</a>
</g>
</g>
<!-- dir_2448859584f6f86a66eb22b27517f4e7&#45;&gt;dir_4f0fc3cc9aba45c1dd27eb0e6749a5c4 -->
<g id="edge1" class="edge">
<title>dir_2448859584f6f86a66eb22b27517f4e7&#45;&gt;dir_4f0fc3cc9aba45c1dd27eb0e6749a5c4</title>
<path fill="none" stroke="black" d="M95.9,-167.7C100,-159.73 104.95,-150.1 109.49,-141.26"/>
<polygon fill="black" stroke="black" points="112.74,-142.6 114.2,-132.1 106.52,-139.4 112.74,-142.6"/>
<g id="a_edge1&#45;headlabel"><a xlink:href="dir_000003_000005.html" target="_top" xlink:title="1">
<text text-anchor="middle" x="113.62" y="-144.59" font-family="Helvetica,sans-Serif" font-size="10.00">1</text>
</a>
</g>
</g>
<!-- dir_4623760ceb707b4ca2d9dfb02e18b238 -->
<g id="node4" class="node">
<title>dir_4623760ceb707b4ca2d9dfb02e18b238</title>
<g id="a_node4"><a xlink:href="dir_4623760ceb707b4ca2d9dfb02e18b238.html" target="_top" xlink:title="util">
<polygon fill="white" stroke="black" points="114,-60 60,-60 60,-24 114,-24 114,-60"/>
<text text-anchor="middle" x="87" y="-39.5" font-family="Helvetica,sans-Serif" font-size="10.00">util</text>
</a>
</g>
</g>
<!-- dir_d1540675e56c2900ea555f43e355c202&#45;&gt;dir_4623760ceb707b4ca2d9dfb02e18b238 -->
<g id="edge4" class="edge">
<title>dir_d1540675e56c2900ea555f43e355c202&#45;&gt;dir_4623760ceb707b4ca2d9dfb02e18b238</title>
<path fill="none" stroke="black" d="M59.9,-95.7C64,-87.73 68.95,-78.1 73.49,-69.26"/>
<polygon fill="black" stroke="black" points="76.74,-70.6 78.2,-60.1 70.52,-67.4 76.74,-70.6"/>
<g id="a_edge4&#45;headlabel"><a xlink:href="dir_000004_000006.html" target="_top" xlink:title="1">
<text text-anchor="middle" x="77.62" y="-72.59" font-family="Helvetica,sans-Serif" font-size="10.00">1</text>
</a>
</g>
</g>
<!-- dir_4f0fc3cc9aba45c1dd27eb0e6749a5c4&#45;&gt;dir_4623760ceb707b4ca2d9dfb02e18b238 -->
<g id="edge3" class="edge">
<title>dir_4f0fc3cc9aba45c1dd27eb0e6749a5c4&#45;&gt;dir_4623760ceb707b4ca2d9dfb02e18b238</title>
<path fill="none" stroke="black" d="M114.1,-95.7C110,-87.73 105.05,-78.1 100.51,-69.26"/>
<polygon fill="black" stroke="black" points="103.48,-67.4 95.8,-60.1 97.26,-70.6 103.48,-67.4"/>
<g id="a_edge3&#45;headlabel"><a xlink:href="dir_000005_000006.html" target="_top" xlink:title="2">
<text text-anchor="middle" x="107.65" y="-66.79" font-family="Helvetica,sans-Serif" font-size="10.00">2</text>
</a>
</g>
</g>
</g>
</svg>
