<?xml version="1.0" encoding="UTF-8" standalone="no"?>
<!DOCTYPE svg PUBLIC "-//W3C//DTD SVG 1.1//EN"
 "http://www.w3.org/Graphics/SVG/1.1/DTD/svg11.dtd">
<!-- Generated by graphviz version 2.43.0 (0)
 -->
<!-- Title: kwargs&#45;to&#45;struct.hpp Pages: 1 -->
<svg width="999pt" height="330pt"
 viewBox="0.00 0.00 999.00 330.00" xmlns="http://www.w3.org/2000/svg" xmlns:xlink="http://www.w3.org/1999/xlink">
<g id="graph0" class="graph" transform="scale(1 1) rotate(0) translate(4 326)">
<title>kwargs&#45;to&#45;struct.hpp</title>
<polygon fill="white" stroke="transparent" points="-4,4 -4,-326 995,-326 995,4 -4,4"/>
<!-- Node1 -->
<g id="node1" class="node">
<title>Node1</title>
<g id="a_node1"><a xlink:title="This file defines mappings from Python dicts (kwargs) to simple parameter structs.">
<polygon fill="#bfbfbf" stroke="black" points="217.5,-302.5 217.5,-321.5 335.5,-321.5 335.5,-302.5 217.5,-302.5"/>
<text text-anchor="middle" x="276.5" y="-309.5" font-family="Helvetica,sans-Serif" font-size="10.00">kwargs&#45;to&#45;struct.hpp</text>
</a>
</g>
</g>
<!-- Node2 -->
<g id="node2" class="node">
<title>Node2</title>
<g id="a_node2"><a xlink:title=" ">
<polygon fill="white" stroke="#bfbfbf" points="0,-246.5 0,-265.5 65,-265.5 65,-246.5 0,-246.5"/>
<text text-anchor="middle" x="32.5" y="-253.5" font-family="Helvetica,sans-Serif" font-size="10.00">functional</text>
</a>
</g>
</g>
<!-- Node1&#45;&gt;Node2 -->
<g id="edge1" class="edge">
<title>Node1&#45;&gt;Node2</title>
<path fill="none" stroke="midnightblue" d="M237.84,-302.44C193.49,-292.63 120.99,-276.58 75.07,-266.42"/>
<polygon fill="midnightblue" stroke="midnightblue" points="75.65,-262.96 65.13,-264.22 74.13,-269.8 75.65,-262.96"/>
</g>
<!-- Node3 -->
<g id="node3" class="node">
<title>Node3</title>
<g id="a_node3"><a xlink:title=" ">
<polygon fill="white" stroke="#bfbfbf" points="83.5,-246.5 83.5,-265.5 121.5,-265.5 121.5,-246.5 83.5,-246.5"/>
<text text-anchor="middle" x="102.5" y="-253.5" font-family="Helvetica,sans-Serif" font-size="10.00">map</text>
</a>
</g>
</g>
<!-- Node1&#45;&gt;Node3 -->
<g id="edge2" class="edge">
<title>Node1&#45;&gt;Node3</title>
<path fill="none" stroke="midnightblue" d="M248.48,-302.47C220.96,-294.07 177.54,-280.76 131.35,-266.24"/>
<polygon fill="midnightblue" stroke="midnightblue" points="132.36,-262.89 121.77,-263.23 130.26,-269.57 132.36,-262.89"/>
</g>
<!-- Node4 -->
<g id="node4" class="node">
<title>Node4</title>
<g id="a_node4"><a xlink:title=" ">
<polygon fill="white" stroke="#bfbfbf" points="140,-246.5 140,-265.5 191,-265.5 191,-246.5 140,-246.5"/>
<text text-anchor="middle" x="165.5" y="-253.5" font-family="Helvetica,sans-Serif" font-size="10.00">variant</text>
</a>
</g>
</g>
<!-- Node1&#45;&gt;Node4 -->
<g id="edge3" class="edge">
<title>Node1&#45;&gt;Node4</title>
<path fill="none" stroke="midnightblue" d="M258.67,-302.32C240.78,-293.62 213.02,-280.12 192.45,-270.11"/>
<polygon fill="midnightblue" stroke="midnightblue" points="193.81,-266.88 183.29,-265.65 190.75,-273.18 193.81,-266.88"/>
</g>
<!-- Node5 -->
<g id="node5" class="node">
<title>Node5</title>
<g id="a_node5"><a xlink:title=" ">
<polygon fill="white" stroke="#bfbfbf" points="209,-246.5 209,-265.5 344,-265.5 344,-246.5 209,-246.5"/>
<text text-anchor="middle" x="276.5" y="-253.5" font-family="Helvetica,sans-Serif" font-size="10.00">pybind11/detail/typeid.h</text>
</a>
</g>
</g>
<!-- Node1&#45;&gt;Node5 -->
<g id="edge4" class="edge">
<title>Node1&#45;&gt;Node5</title>
<path fill="none" stroke="midnightblue" d="M276.5,-302.08C276.5,-295.01 276.5,-284.86 276.5,-275.99"/>
<polygon fill="midnightblue" stroke="midnightblue" points="280,-275.75 276.5,-265.75 273,-275.75 280,-275.75"/>
</g>
<!-- Node6 -->
<g id="node6" class="node">
<title>Node6</title>
<g id="a_node6"><a xlink:title=" ">
<polygon fill="white" stroke="#bfbfbf" points="362,-246.5 362,-265.5 481,-265.5 481,-246.5 362,-246.5"/>
<text text-anchor="middle" x="421.5" y="-253.5" font-family="Helvetica,sans-Serif" font-size="10.00">pybind11/pybind11.h</text>
</a>
</g>
</g>
<!-- Node1&#45;&gt;Node6 -->
<g id="edge5" class="edge">
<title>Node1&#45;&gt;Node6</title>
<path fill="none" stroke="midnightblue" d="M299.48,-302.44C323.66,-293.44 361.92,-279.19 389.15,-269.05"/>
<polygon fill="midnightblue" stroke="midnightblue" points="390.48,-272.29 398.63,-265.52 388.04,-265.73 390.48,-272.29"/>
</g>
<!-- Node7 -->
<g id="node7" class="node">
<title>Node7</title>
<g id="a_node7"><a xlink:href="lbfgs_8hpp.html" target="_top" xlink:title=" ">
<polygon fill="white" stroke="black" points="499.5,-246.5 499.5,-265.5 591.5,-265.5 591.5,-246.5 499.5,-246.5"/>
<text text-anchor="middle" x="545.5" y="-253.5" font-family="Helvetica,sans-Serif" font-size="10.00">quala/lbfgs.hpp</text>
</a>
</g>
</g>
<!-- Node1&#45;&gt;Node7 -->
<g id="edge6" class="edge">
<title>Node1&#45;&gt;Node7</title>
<path fill="none" stroke="midnightblue" d="M319.12,-302.44C366.25,-292.98 442.19,-277.74 492.96,-267.55"/>
<polygon fill="midnightblue" stroke="midnightblue" points="493.96,-270.92 503.08,-265.52 492.58,-264.05 493.96,-270.92"/>
</g>
<!-- Node14 -->
<g id="node14" class="node">
<title>Node14</title>
<g id="a_node14"><a xlink:href="anderson-acceleration_8hpp.html" target="_top" xlink:title=" ">
<polygon fill="white" stroke="black" points="609.5,-246.5 609.5,-265.5 785.5,-265.5 785.5,-246.5 609.5,-246.5"/>
<text text-anchor="middle" x="697.5" y="-253.5" font-family="Helvetica,sans-Serif" font-size="10.00">quala/anderson&#45;acceleration.hpp</text>
</a>
</g>
</g>
<!-- Node1&#45;&gt;Node14 -->
<g id="edge13" class="edge">
<title>Node1&#45;&gt;Node14</title>
<path fill="none" stroke="midnightblue" d="M335.93,-303.38C410.67,-293.79 539.11,-277.32 621.08,-266.8"/>
<polygon fill="midnightblue" stroke="midnightblue" points="621.62,-270.26 631.09,-265.52 620.73,-263.32 621.62,-270.26"/>
</g>
<!-- Node8 -->
<g id="node8" class="node">
<title>Node8</title>
<g id="a_node8"><a xlink:href="decl_2lbfgs_8hpp.html" target="_top" xlink:title=" ">
<polygon fill="white" stroke="black" points="402,-185 402,-204 517,-204 517,-185 402,-185"/>
<text text-anchor="middle" x="459.5" y="-192" font-family="Helvetica,sans-Serif" font-size="10.00">quala/decl/lbfgs.hpp</text>
</a>
</g>
</g>
<!-- Node7&#45;&gt;Node8 -->
<g id="edge7" class="edge">
<title>Node7&#45;&gt;Node8</title>
<path fill="none" stroke="midnightblue" d="M533.18,-246.48C519.38,-236.93 496.8,-221.31 480.27,-209.87"/>
<polygon fill="midnightblue" stroke="midnightblue" points="482.01,-206.82 471.8,-204.01 478.03,-212.58 482.01,-206.82"/>
</g>
<!-- Node12 -->
<g id="node12" class="node">
<title>Node12</title>
<g id="a_node12"><a xlink:title=" ">
<polygon fill="white" stroke="#bfbfbf" points="574,-185 574,-204 639,-204 639,-185 574,-185"/>
<text text-anchor="middle" x="606.5" y="-192" font-family="Helvetica,sans-Serif" font-size="10.00">stdexcept</text>
</a>
</g>
</g>
<!-- Node7&#45;&gt;Node12 -->
<g id="edge11" class="edge">
<title>Node7&#45;&gt;Node12</title>
<path fill="none" stroke="midnightblue" d="M554.24,-246.48C563.66,-237.28 578.86,-222.46 590.45,-211.16"/>
<polygon fill="midnightblue" stroke="midnightblue" points="593.06,-213.5 597.78,-204.01 588.17,-208.49 593.06,-213.5"/>
</g>
<!-- Node13 -->
<g id="node13" class="node">
<title>Node13</title>
<g id="a_node13"><a xlink:title=" ">
<polygon fill="white" stroke="#bfbfbf" points="554,-56.5 554,-75.5 623,-75.5 623,-56.5 554,-56.5"/>
<text text-anchor="middle" x="588.5" y="-63.5" font-family="Helvetica,sans-Serif" font-size="10.00">type_traits</text>
</a>
</g>
</g>
<!-- Node7&#45;&gt;Node13 -->
<g id="edge12" class="edge">
<title>Node7&#45;&gt;Node13</title>
<path fill="none" stroke="midnightblue" d="M547.46,-246.43C553.99,-217.87 575.14,-125.43 584.25,-85.57"/>
<polygon fill="midnightblue" stroke="midnightblue" points="587.71,-86.15 586.53,-75.62 580.89,-84.58 587.71,-86.15"/>
</g>
<!-- Node9 -->
<g id="node9" class="node">
<title>Node9</title>
<g id="a_node9"><a xlink:href="lbfgs-fwd_8hpp.html" target="_top" xlink:title=" ">
<polygon fill="white" stroke="black" points="319.5,-118 319.5,-137 455.5,-137 455.5,-118 319.5,-118"/>
<text text-anchor="middle" x="387.5" y="-125" font-family="Helvetica,sans-Serif" font-size="10.00">quala/decl/lbfgs&#45;fwd.hpp</text>
</a>
</g>
</g>
<!-- Node8&#45;&gt;Node9 -->
<g id="edge8" class="edge">
<title>Node8&#45;&gt;Node9</title>
<path fill="none" stroke="midnightblue" d="M449.79,-184.73C438.24,-174.31 418.75,-156.71 404.64,-143.97"/>
<polygon fill="midnightblue" stroke="midnightblue" points="406.82,-141.23 397.06,-137.13 402.13,-146.43 406.82,-141.23"/>
</g>
<!-- Node10 -->
<g id="node10" class="node">
<title>Node10</title>
<g id="a_node10"><a xlink:href="vec_8hpp.html" target="_top" xlink:title=" ">
<polygon fill="white" stroke="black" points="431.5,-56.5 431.5,-75.5 535.5,-75.5 535.5,-56.5 431.5,-56.5"/>
<text text-anchor="middle" x="483.5" y="-63.5" font-family="Helvetica,sans-Serif" font-size="10.00">quala/util/vec.hpp</text>
</a>
</g>
</g>
<!-- Node8&#45;&gt;Node10 -->
<g id="edge9" class="edge">
<title>Node8&#45;&gt;Node10</title>
<path fill="none" stroke="midnightblue" d="M461.15,-184.81C465,-164.49 474.67,-113.55 479.94,-85.78"/>
<polygon fill="midnightblue" stroke="midnightblue" points="483.41,-86.23 481.84,-75.76 476.54,-84.93 483.41,-86.23"/>
</g>
<!-- Node11 -->
<g id="node11" class="node">
<title>Node11</title>
<g id="a_node11"><a xlink:title=" ">
<polygon fill="white" stroke="#bfbfbf" points="449,-0.5 449,-19.5 518,-19.5 518,-0.5 449,-0.5"/>
<text text-anchor="middle" x="483.5" y="-7.5" font-family="Helvetica,sans-Serif" font-size="10.00">Eigen/Core</text>
</a>
</g>
</g>
<!-- Node10&#45;&gt;Node11 -->
<g id="edge10" class="edge">
<title>Node10&#45;&gt;Node11</title>
<path fill="none" stroke="midnightblue" d="M483.5,-56.08C483.5,-49.01 483.5,-38.86 483.5,-29.99"/>
<polygon fill="midnightblue" stroke="midnightblue" points="487,-29.75 483.5,-19.75 480,-29.75 487,-29.75"/>
</g>
<!-- Node14&#45;&gt;Node12 -->
<g id="edge25" class="edge">
<title>Node14&#45;&gt;Node12</title>
<path fill="none" stroke="midnightblue" d="M684.46,-246.48C669.73,-236.84 645.53,-221.02 627.99,-209.55"/>
<polygon fill="midnightblue" stroke="midnightblue" points="629.8,-206.55 619.51,-204.01 625.97,-212.41 629.8,-206.55"/>
</g>
<!-- Node15 -->
<g id="node15" class="node">
<title>Node15</title>
<g id="a_node15"><a xlink:href="anderson-helpers_8hpp.html" target="_top" xlink:title=" ">
<polygon fill="white" stroke="black" points="657.5,-179.5 657.5,-209.5 779.5,-209.5 779.5,-179.5 657.5,-179.5"/>
<text text-anchor="start" x="665.5" y="-197.5" font-family="Helvetica,sans-Serif" font-size="10.00">quala/detail/anderson</text>
<text text-anchor="middle" x="718.5" y="-186.5" font-family="Helvetica,sans-Serif" font-size="10.00">&#45;helpers.hpp</text>
</a>
</g>
</g>
<!-- Node14&#45;&gt;Node15 -->
<g id="edge14" class="edge">
<title>Node14&#45;&gt;Node15</title>
<path fill="none" stroke="midnightblue" d="M700.51,-246.48C703.03,-239.32 706.77,-228.75 710.18,-219.08"/>
<polygon fill="midnightblue" stroke="midnightblue" points="713.52,-220.12 713.55,-209.52 706.92,-217.79 713.52,-220.12"/>
</g>
<!-- Node16 -->
<g id="node16" class="node">
<title>Node16</title>
<g id="a_node16"><a xlink:href="limited-memory-qr_8hpp.html" target="_top" xlink:title=" ">
<polygon fill="white" stroke="black" points="642.5,-112.5 642.5,-142.5 754.5,-142.5 754.5,-112.5 642.5,-112.5"/>
<text text-anchor="start" x="650.5" y="-130.5" font-family="Helvetica,sans-Serif" font-size="10.00">quala/detail/limited</text>
<text text-anchor="middle" x="698.5" y="-119.5" font-family="Helvetica,sans-Serif" font-size="10.00">&#45;memory&#45;qr.hpp</text>
</a>
</g>
</g>
<!-- Node15&#45;&gt;Node16 -->
<g id="edge15" class="edge">
<title>Node15&#45;&gt;Node16</title>
<path fill="none" stroke="midnightblue" d="M714.16,-179.4C711.72,-171.47 708.62,-161.38 705.81,-152.27"/>
<polygon fill="midnightblue" stroke="midnightblue" points="709.12,-151.1 702.83,-142.58 702.43,-153.16 709.12,-151.1"/>
</g>
<!-- Node16&#45;&gt;Node10 -->
<g id="edge23" class="edge">
<title>Node16&#45;&gt;Node10</title>
<path fill="none" stroke="midnightblue" d="M647.82,-112.47C610.08,-102.03 559.23,-87.96 524.14,-78.25"/>
<polygon fill="midnightblue" stroke="midnightblue" points="524.81,-74.8 514.24,-75.51 522.94,-81.55 524.81,-74.8"/>
</g>
<!-- Node16&#45;&gt;Node13 -->
<g id="edge24" class="edge">
<title>Node16&#45;&gt;Node13</title>
<path fill="none" stroke="midnightblue" d="M672.43,-112.4C654.63,-102.77 631.19,-90.09 613.6,-80.58"/>
<polygon fill="midnightblue" stroke="midnightblue" points="614.97,-77.34 604.51,-75.66 611.64,-83.49 614.97,-77.34"/>
</g>
<!-- Node17 -->
<g id="node17" class="node">
<title>Node17</title>
<g id="a_node17"><a xlink:title=" ">
<polygon fill="white" stroke="#bfbfbf" points="641.5,-56.5 641.5,-75.5 717.5,-75.5 717.5,-56.5 641.5,-56.5"/>
<text text-anchor="middle" x="679.5" y="-63.5" font-family="Helvetica,sans-Serif" font-size="10.00">Eigen/Jacobi</text>
</a>
</g>
</g>
<!-- Node16&#45;&gt;Node17 -->
<g id="edge16" class="edge">
<title>Node16&#45;&gt;Node17</title>
<path fill="none" stroke="midnightblue" d="M694,-112.4C691.41,-104.29 688.12,-94.01 685.34,-85.28"/>
<polygon fill="midnightblue" stroke="midnightblue" points="688.64,-84.12 682.26,-75.66 681.97,-86.25 688.64,-84.12"/>
</g>
<!-- Node18 -->
<g id="node18" class="node">
<title>Node18</title>
<g id="a_node18"><a xlink:title=" ">
<polygon fill="white" stroke="#bfbfbf" points="719,-0.5 719,-19.5 772,-19.5 772,-0.5 719,-0.5"/>
<text text-anchor="middle" x="745.5" y="-7.5" font-family="Helvetica,sans-Serif" font-size="10.00">cstddef</text>
</a>
</g>
</g>
<!-- Node16&#45;&gt;Node18 -->
<g id="edge17" class="edge">
<title>Node16&#45;&gt;Node18</title>
<path fill="none" stroke="midnightblue" d="M707.47,-112.34C713.45,-102.44 721.17,-88.77 726.5,-76 732.87,-60.74 737.97,-42.63 741.28,-29.41"/>
<polygon fill="midnightblue" stroke="midnightblue" points="744.7,-30.16 743.63,-19.62 737.89,-28.53 744.7,-30.16"/>
</g>
<!-- Node19 -->
<g id="node19" class="node">
<title>Node19</title>
<g id="a_node19"><a xlink:href="ringbuffer_8hpp.html" target="_top" xlink:title=" ">
<polygon fill="white" stroke="black" points="774,-56.5 774,-75.5 907,-75.5 907,-56.5 774,-56.5"/>
<text text-anchor="middle" x="840.5" y="-63.5" font-family="Helvetica,sans-Serif" font-size="10.00">quala/util/ringbuffer.hpp</text>
</a>
</g>
</g>
<!-- Node16&#45;&gt;Node19 -->
<g id="edge18" class="edge">
<title>Node16&#45;&gt;Node19</title>
<path fill="none" stroke="midnightblue" d="M732.15,-112.4C755.98,-102.42 787.65,-89.15 810.59,-79.53"/>
<polygon fill="midnightblue" stroke="midnightblue" points="811.97,-82.75 819.84,-75.66 809.26,-76.29 811.97,-82.75"/>
</g>
<!-- Node19&#45;&gt;Node18 -->
<g id="edge20" class="edge">
<title>Node19&#45;&gt;Node18</title>
<path fill="none" stroke="midnightblue" d="M825.24,-56.32C810.28,-47.82 787.25,-34.73 769.77,-24.8"/>
<polygon fill="midnightblue" stroke="midnightblue" points="771.15,-21.55 760.73,-19.65 767.69,-27.64 771.15,-21.55"/>
</g>
<!-- Node20 -->
<g id="node20" class="node">
<title>Node20</title>
<g id="a_node20"><a xlink:title=" ">
<polygon fill="white" stroke="#bfbfbf" points="855.5,-0.5 855.5,-19.5 919.5,-19.5 919.5,-0.5 855.5,-0.5"/>
<text text-anchor="middle" x="887.5" y="-7.5" font-family="Helvetica,sans-Serif" font-size="10.00">algorithm</text>
</a>
</g>
</g>
<!-- Node19&#45;&gt;Node20 -->
<g id="edge19" class="edge">
<title>Node19&#45;&gt;Node20</title>
<path fill="none" stroke="midnightblue" d="M848.26,-56.08C855.04,-48.3 865.04,-36.8 873.26,-27.37"/>
<polygon fill="midnightblue" stroke="midnightblue" points="875.96,-29.59 879.88,-19.75 870.68,-25 875.96,-29.59"/>
</g>
<!-- Node21 -->
<g id="node21" class="node">
<title>Node21</title>
<g id="a_node21"><a xlink:title=" ">
<polygon fill="white" stroke="#bfbfbf" points="938,-0.5 938,-19.5 991,-19.5 991,-0.5 938,-0.5"/>
<text text-anchor="middle" x="964.5" y="-7.5" font-family="Helvetica,sans-Serif" font-size="10.00">iterator</text>
</a>
</g>
</g>
<!-- Node19&#45;&gt;Node21 -->
<g id="edge21" class="edge">
<title>Node19&#45;&gt;Node21</title>
<path fill="none" stroke="midnightblue" d="M860.15,-56.44C880.46,-47.6 912.4,-33.69 935.6,-23.59"/>
<polygon fill="midnightblue" stroke="midnightblue" points="937.17,-26.72 944.94,-19.52 934.38,-20.3 937.17,-26.72"/>
</g>
<!-- Node22 -->
<g id="node22" class="node">
<title>Node22</title>
<g id="a_node22"><a xlink:title=" ">
<polygon fill="white" stroke="#bfbfbf" points="790,-0.5 790,-19.5 837,-19.5 837,-0.5 790,-0.5"/>
<text text-anchor="middle" x="813.5" y="-7.5" font-family="Helvetica,sans-Serif" font-size="10.00">vector</text>
</a>
</g>
</g>
<!-- Node19&#45;&gt;Node22 -->
<g id="edge22" class="edge">
<title>Node19&#45;&gt;Node22</title>
<path fill="none" stroke="midnightblue" d="M836.04,-56.08C832.35,-48.69 826.98,-37.95 822.41,-28.81"/>
<polygon fill="midnightblue" stroke="midnightblue" points="825.48,-27.13 817.88,-19.75 819.22,-30.26 825.48,-27.13"/>
</g>
</g>
</svg>
