<?xml version="1.0" encoding="UTF-8" standalone="no"?>
<!DOCTYPE svg PUBLIC "-//W3C//DTD SVG 1.1//EN"
 "http://www.w3.org/Graphics/SVG/1.1/DTD/svg11.dtd">
<!-- Generated by graphviz version 2.43.0 (0)
 -->
<!-- Title: quala.cpp Pages: 1 -->
<svg width="1791pt" height="386pt"
 viewBox="0.00 0.00 1790.50 386.00" xmlns="http://www.w3.org/2000/svg" xmlns:xlink="http://www.w3.org/1999/xlink">
<g id="graph0" class="graph" transform="scale(1 1) rotate(0) translate(4 382)">
<title>quala.cpp</title>
<polygon fill="white" stroke="transparent" points="-4,4 -4,-382 1786.5,-382 1786.5,4 -4,4"/>
<!-- Node1 -->
<g id="node1" class="node">
<title>Node1</title>
<g id="a_node1"><a xlink:title="This file defines all Python bindings.">
<polygon fill="#bfbfbf" stroke="black" points="1058,-358.5 1058,-377.5 1122,-377.5 1122,-358.5 1058,-358.5"/>
<text text-anchor="middle" x="1090" y="-365.5" font-family="Helvetica,sans-Serif" font-size="10.00">quala.cpp</text>
</a>
</g>
</g>
<!-- Node2 -->
<g id="node2" class="node">
<title>Node2</title>
<g id="a_node2"><a xlink:title=" ">
<polygon fill="white" stroke="#bfbfbf" points="0,-302.5 0,-321.5 90,-321.5 90,-302.5 0,-302.5"/>
<text text-anchor="middle" x="45" y="-309.5" font-family="Helvetica,sans-Serif" font-size="10.00">pybind11/attr.h</text>
</a>
</g>
</g>
<!-- Node1&#45;&gt;Node2 -->
<g id="edge1" class="edge">
<title>Node1&#45;&gt;Node2</title>
<path fill="none" stroke="midnightblue" d="M1057.81,-366.94C934.8,-366.4 482.56,-361.76 100.18,-321.98"/>
<polygon fill="midnightblue" stroke="midnightblue" points="100.34,-318.48 90.03,-320.92 99.61,-325.44 100.34,-318.48"/>
</g>
<!-- Node3 -->
<g id="node3" class="node">
<title>Node3</title>
<g id="a_node3"><a xlink:title=" ">
<polygon fill="white" stroke="#bfbfbf" points="108,-302.5 108,-321.5 202,-321.5 202,-302.5 108,-302.5"/>
<text text-anchor="middle" x="155" y="-309.5" font-family="Helvetica,sans-Serif" font-size="10.00">pybind11/cast.h</text>
</a>
</g>
</g>
<!-- Node1&#45;&gt;Node3 -->
<g id="edge2" class="edge">
<title>Node1&#45;&gt;Node3</title>
<path fill="none" stroke="midnightblue" d="M1057.97,-366.61C944.23,-364.96 548.97,-357 212.44,-322.03"/>
<polygon fill="midnightblue" stroke="midnightblue" points="212.32,-318.5 202,-320.93 211.58,-325.46 212.32,-318.5"/>
</g>
<!-- Node4 -->
<g id="node4" class="node">
<title>Node4</title>
<g id="a_node4"><a xlink:title=" ">
<polygon fill="white" stroke="#bfbfbf" points="220.5,-302.5 220.5,-321.5 327.5,-321.5 327.5,-302.5 220.5,-302.5"/>
<text text-anchor="middle" x="274" y="-309.5" font-family="Helvetica,sans-Serif" font-size="10.00">pybind11/chrono.h</text>
</a>
</g>
</g>
<!-- Node1&#45;&gt;Node4 -->
<g id="edge3" class="edge">
<title>Node1&#45;&gt;Node4</title>
<path fill="none" stroke="midnightblue" d="M1057.95,-366.06C954.92,-362.82 622.76,-350.8 337.85,-322.11"/>
<polygon fill="midnightblue" stroke="midnightblue" points="338.04,-318.61 327.73,-321.08 337.33,-325.58 338.04,-318.61"/>
</g>
<!-- Node5 -->
<g id="node5" class="node">
<title>Node5</title>
<g id="a_node5"><a xlink:title=" ">
<polygon fill="white" stroke="#bfbfbf" points="345.5,-302.5 345.5,-321.5 492.5,-321.5 492.5,-302.5 345.5,-302.5"/>
<text text-anchor="middle" x="419" y="-309.5" font-family="Helvetica,sans-Serif" font-size="10.00">pybind11/detail/common.h</text>
</a>
</g>
</g>
<!-- Node1&#45;&gt;Node5 -->
<g id="edge4" class="edge">
<title>Node1&#45;&gt;Node5</title>
<path fill="none" stroke="midnightblue" d="M1057.73,-364.91C970.21,-359.17 720.84,-342.26 502.78,-322.14"/>
<polygon fill="midnightblue" stroke="midnightblue" points="503.03,-318.65 492.75,-321.21 502.38,-325.62 503.03,-318.65"/>
</g>
<!-- Node6 -->
<g id="node6" class="node">
<title>Node6</title>
<g id="a_node6"><a xlink:title=" ">
<polygon fill="white" stroke="#bfbfbf" points="510.5,-302.5 510.5,-321.5 611.5,-321.5 611.5,-302.5 510.5,-302.5"/>
<text text-anchor="middle" x="561" y="-309.5" font-family="Helvetica,sans-Serif" font-size="10.00">pybind11/eigen.h</text>
</a>
</g>
</g>
<!-- Node1&#45;&gt;Node6 -->
<g id="edge5" class="edge">
<title>Node1&#45;&gt;Node6</title>
<path fill="none" stroke="midnightblue" d="M1057.81,-364.51C983.19,-358.6 792.44,-342.76 621.88,-322.04"/>
<polygon fill="midnightblue" stroke="midnightblue" points="622.06,-318.54 611.71,-320.8 621.21,-325.49 622.06,-318.54"/>
</g>
<!-- Node7 -->
<g id="node7" class="node">
<title>Node7</title>
<g id="a_node7"><a xlink:title=" ">
<polygon fill="white" stroke="#bfbfbf" points="630,-302.5 630,-321.5 752,-321.5 752,-302.5 630,-302.5"/>
<text text-anchor="middle" x="691" y="-309.5" font-family="Helvetica,sans-Serif" font-size="10.00">pybind11/functional.h</text>
</a>
</g>
</g>
<!-- Node1&#45;&gt;Node7 -->
<g id="edge6" class="edge">
<title>Node1&#45;&gt;Node7</title>
<path fill="none" stroke="midnightblue" d="M1057.69,-362.63C993.71,-353.97 849.57,-334.46 762.27,-322.65"/>
<polygon fill="midnightblue" stroke="midnightblue" points="762.56,-319.15 752.18,-321.28 761.62,-326.09 762.56,-319.15"/>
</g>
<!-- Node8 -->
<g id="node8" class="node">
<title>Node8</title>
<g id="a_node8"><a xlink:title=" ">
<polygon fill="white" stroke="#bfbfbf" points="770.5,-302.5 770.5,-321.5 887.5,-321.5 887.5,-302.5 770.5,-302.5"/>
<text text-anchor="middle" x="829" y="-309.5" font-family="Helvetica,sans-Serif" font-size="10.00">pybind11/iostream.h</text>
</a>
</g>
</g>
<!-- Node1&#45;&gt;Node8 -->
<g id="edge7" class="edge">
<title>Node1&#45;&gt;Node8</title>
<path fill="none" stroke="midnightblue" d="M1058,-360.38C1013.62,-351.2 932.92,-334.5 880.14,-323.58"/>
<polygon fill="midnightblue" stroke="midnightblue" points="880.8,-320.14 870.3,-321.55 879.39,-327 880.8,-320.14"/>
</g>
<!-- Node9 -->
<g id="node9" class="node">
<title>Node9</title>
<g id="a_node9"><a xlink:title=" ">
<polygon fill="white" stroke="#bfbfbf" points="385.5,-246.5 385.5,-265.5 504.5,-265.5 504.5,-246.5 385.5,-246.5"/>
<text text-anchor="middle" x="445" y="-253.5" font-family="Helvetica,sans-Serif" font-size="10.00">pybind11/pybind11.h</text>
</a>
</g>
</g>
<!-- Node1&#45;&gt;Node9 -->
<g id="edge8" class="edge">
<title>Node1&#45;&gt;Node9</title>
<path fill="none" stroke="midnightblue" d="M1057.9,-359.69C1026.1,-351.99 976.32,-338.67 935,-322 917.3,-314.86 915.29,-307.44 897,-302 736.24,-254.19 685.82,-283.88 514.91,-266.03"/>
<polygon fill="midnightblue" stroke="midnightblue" points="515.14,-262.54 504.82,-264.94 514.39,-269.49 515.14,-262.54"/>
</g>
<!-- Node10 -->
<g id="node10" class="node">
<title>Node10</title>
<g id="a_node10"><a xlink:title=" ">
<polygon fill="white" stroke="#bfbfbf" points="1156.5,-302.5 1156.5,-321.5 1269.5,-321.5 1269.5,-302.5 1156.5,-302.5"/>
<text text-anchor="middle" x="1213" y="-309.5" font-family="Helvetica,sans-Serif" font-size="10.00">pybind11/pytypes.h</text>
</a>
</g>
</g>
<!-- Node1&#45;&gt;Node10 -->
<g id="edge9" class="edge">
<title>Node1&#45;&gt;Node10</title>
<path fill="none" stroke="midnightblue" d="M1109.49,-358.44C1129.64,-349.6 1161.32,-335.69 1184.33,-325.59"/>
<polygon fill="midnightblue" stroke="midnightblue" points="1185.85,-328.74 1193.6,-321.52 1183.04,-322.33 1185.85,-328.74"/>
</g>
<!-- Node11 -->
<g id="node11" class="node">
<title>Node11</title>
<g id="a_node11"><a xlink:title=" ">
<polygon fill="white" stroke="#bfbfbf" points="1288,-302.5 1288,-321.5 1374,-321.5 1374,-302.5 1288,-302.5"/>
<text text-anchor="middle" x="1331" y="-309.5" font-family="Helvetica,sans-Serif" font-size="10.00">pybind11/stl.h</text>
</a>
</g>
</g>
<!-- Node1&#45;&gt;Node11 -->
<g id="edge10" class="edge">
<title>Node1&#45;&gt;Node11</title>
<path fill="none" stroke="midnightblue" d="M1122,-359.83C1163.24,-350.59 1235.31,-334.44 1283.09,-323.73"/>
<polygon fill="midnightblue" stroke="midnightblue" points="1283.91,-327.14 1292.9,-321.54 1282.38,-320.31 1283.91,-327.14"/>
</g>
<!-- Node12 -->
<g id="node12" class="node">
<title>Node12</title>
<g id="a_node12"><a xlink:title=" ">
<polygon fill="white" stroke="#bfbfbf" points="1392,-302.5 1392,-321.5 1450,-321.5 1450,-302.5 1392,-302.5"/>
<text text-anchor="middle" x="1421" y="-309.5" font-family="Helvetica,sans-Serif" font-size="10.00">memory</text>
</a>
</g>
</g>
<!-- Node1&#45;&gt;Node12 -->
<g id="edge11" class="edge">
<title>Node1&#45;&gt;Node12</title>
<path fill="none" stroke="midnightblue" d="M1122.23,-362.91C1174.6,-356.08 1281.6,-341.35 1381.63,-322.14"/>
<polygon fill="midnightblue" stroke="midnightblue" points="1382.44,-325.55 1391.59,-320.21 1381.11,-318.68 1382.44,-325.55"/>
</g>
<!-- Node13 -->
<g id="node13" class="node">
<title>Node13</title>
<g id="a_node13"><a xlink:title=" ">
<polygon fill="white" stroke="#bfbfbf" points="1468,-302.5 1468,-321.5 1524,-321.5 1524,-302.5 1468,-302.5"/>
<text text-anchor="middle" x="1496" y="-309.5" font-family="Helvetica,sans-Serif" font-size="10.00">optional</text>
</a>
</g>
</g>
<!-- Node1&#45;&gt;Node13 -->
<g id="edge12" class="edge">
<title>Node1&#45;&gt;Node13</title>
<path fill="none" stroke="midnightblue" d="M1122.27,-364.35C1185.03,-358.91 1328,-345.19 1457.68,-322.05"/>
<polygon fill="midnightblue" stroke="midnightblue" points="1458.57,-325.45 1467.79,-320.22 1457.33,-318.56 1458.57,-325.45"/>
</g>
<!-- Node14 -->
<g id="node14" class="node">
<title>Node14</title>
<g id="a_node14"><a xlink:title=" ">
<polygon fill="white" stroke="#bfbfbf" points="1542,-302.5 1542,-321.5 1598,-321.5 1598,-302.5 1542,-302.5"/>
<text text-anchor="middle" x="1570" y="-309.5" font-family="Helvetica,sans-Serif" font-size="10.00">sstream</text>
</a>
</g>
</g>
<!-- Node1&#45;&gt;Node14 -->
<g id="edge13" class="edge">
<title>Node1&#45;&gt;Node14</title>
<path fill="none" stroke="midnightblue" d="M1122.17,-365.25C1193.98,-361.02 1372.89,-348.7 1531.84,-321.98"/>
<polygon fill="midnightblue" stroke="midnightblue" points="1532.53,-325.41 1541.8,-320.28 1531.36,-318.51 1532.53,-325.41"/>
</g>
<!-- Node15 -->
<g id="node15" class="node">
<title>Node15</title>
<g id="a_node15"><a xlink:title=" ">
<polygon fill="white" stroke="#bfbfbf" points="968.5,-185 968.5,-204 1033.5,-204 1033.5,-185 968.5,-185"/>
<text text-anchor="middle" x="1001" y="-192" font-family="Helvetica,sans-Serif" font-size="10.00">stdexcept</text>
</a>
</g>
</g>
<!-- Node1&#45;&gt;Node15 -->
<g id="edge14" class="edge">
<title>Node1&#45;&gt;Node15</title>
<path fill="none" stroke="midnightblue" d="M1090.8,-358.32C1092.3,-337.32 1093.59,-282.78 1071,-246 1061.13,-229.93 1044.04,-217.45 1029.22,-208.92"/>
<polygon fill="midnightblue" stroke="midnightblue" points="1030.83,-205.81 1020.37,-204.12 1027.49,-211.97 1030.83,-205.81"/>
</g>
<!-- Node16 -->
<g id="node16" class="node">
<title>Node16</title>
<g id="a_node16"><a xlink:title=" ">
<polygon fill="white" stroke="#bfbfbf" points="1616,-302.5 1616,-321.5 1660,-321.5 1660,-302.5 1616,-302.5"/>
<text text-anchor="middle" x="1638" y="-309.5" font-family="Helvetica,sans-Serif" font-size="10.00">string</text>
</a>
</g>
</g>
<!-- Node1&#45;&gt;Node16 -->
<g id="edge15" class="edge">
<title>Node1&#45;&gt;Node16</title>
<path fill="none" stroke="midnightblue" d="M1122.06,-366.38C1202.24,-364.39 1417.9,-356.17 1605.72,-321.88"/>
<polygon fill="midnightblue" stroke="midnightblue" points="1606.58,-325.28 1615.77,-320.02 1605.3,-318.4 1606.58,-325.28"/>
</g>
<!-- Node17 -->
<g id="node17" class="node">
<title>Node17</title>
<g id="a_node17"><a xlink:title=" ">
<polygon fill="white" stroke="#bfbfbf" points="1678.5,-302.5 1678.5,-321.5 1719.5,-321.5 1719.5,-302.5 1678.5,-302.5"/>
<text text-anchor="middle" x="1699" y="-309.5" font-family="Helvetica,sans-Serif" font-size="10.00">tuple</text>
</a>
</g>
</g>
<!-- Node1&#45;&gt;Node17 -->
<g id="edge16" class="edge">
<title>Node1&#45;&gt;Node17</title>
<path fill="none" stroke="midnightblue" d="M1122.01,-366.9C1208.69,-366.13 1455.23,-360.61 1668.36,-321.66"/>
<polygon fill="midnightblue" stroke="midnightblue" points="1669.29,-325.05 1678.49,-319.79 1668.01,-318.17 1669.29,-325.05"/>
</g>
<!-- Node18 -->
<g id="node18" class="node">
<title>Node18</title>
<g id="a_node18"><a xlink:title=" ">
<polygon fill="white" stroke="#bfbfbf" points="1165.5,-56.5 1165.5,-75.5 1234.5,-75.5 1234.5,-56.5 1165.5,-56.5"/>
<text text-anchor="middle" x="1200" y="-63.5" font-family="Helvetica,sans-Serif" font-size="10.00">type_traits</text>
</a>
</g>
</g>
<!-- Node1&#45;&gt;Node18 -->
<g id="edge17" class="edge">
<title>Node1&#45;&gt;Node18</title>
<path fill="none" stroke="midnightblue" d="M1095.95,-358.49C1105.63,-345.12 1125.94,-318.97 1148,-302 1176.04,-280.43 1200.48,-296.15 1219,-266 1254.54,-208.13 1224.65,-122.46 1208.59,-85.3"/>
<polygon fill="midnightblue" stroke="midnightblue" points="1211.6,-83.47 1204.31,-75.79 1205.22,-86.34 1211.6,-83.47"/>
</g>
<!-- Node19 -->
<g id="node19" class="node">
<title>Node19</title>
<g id="a_node19"><a xlink:title=" ">
<polygon fill="white" stroke="#bfbfbf" points="1737.5,-302.5 1737.5,-321.5 1782.5,-321.5 1782.5,-302.5 1737.5,-302.5"/>
<text text-anchor="middle" x="1760" y="-309.5" font-family="Helvetica,sans-Serif" font-size="10.00">utility</text>
</a>
</g>
</g>
<!-- Node1&#45;&gt;Node19 -->
<g id="edge18" class="edge">
<title>Node1&#45;&gt;Node19</title>
<path fill="none" stroke="midnightblue" d="M1122.21,-367.13C1215.05,-367.01 1491.11,-363.1 1727.29,-321.95"/>
<polygon fill="midnightblue" stroke="midnightblue" points="1728.21,-325.34 1737.44,-320.15 1726.99,-318.45 1728.21,-325.34"/>
</g>
<!-- Node20 -->
<g id="node20" class="node">
<title>Node20</title>
<g id="a_node20"><a xlink:href="kwargs-to-struct_8hpp.html" target="_top" xlink:title="This file defines mappings from Python dicts (kwargs) to simple parameter structs.">
<polygon fill="white" stroke="black" points="944,-302.5 944,-321.5 1062,-321.5 1062,-302.5 944,-302.5"/>
<text text-anchor="middle" x="1003" y="-309.5" font-family="Helvetica,sans-Serif" font-size="10.00">kwargs&#45;to&#45;struct.hpp</text>
</a>
</g>
</g>
<!-- Node1&#45;&gt;Node20 -->
<g id="edge19" class="edge">
<title>Node1&#45;&gt;Node20</title>
<path fill="none" stroke="midnightblue" d="M1076.02,-358.32C1062.45,-349.9 1041.62,-336.97 1025.68,-327.07"/>
<polygon fill="midnightblue" stroke="midnightblue" points="1027.29,-323.95 1016.94,-321.65 1023.59,-329.9 1027.29,-323.95"/>
</g>
<!-- Node20&#45;&gt;Node9 -->
<g id="edge24" class="edge">
<title>Node20&#45;&gt;Node9</title>
<path fill="none" stroke="midnightblue" d="M943.66,-303.5C939.04,-302.97 934.44,-302.47 930,-302 748.68,-282.98 700.19,-285.89 514.9,-266.05"/>
<polygon fill="midnightblue" stroke="midnightblue" points="515.14,-262.56 504.82,-264.96 514.39,-269.52 515.14,-262.56"/>
</g>
<!-- Node21 -->
<g id="node21" class="node">
<title>Node21</title>
<g id="a_node21"><a xlink:title=" ">
<polygon fill="white" stroke="#bfbfbf" points="717.5,-246.5 717.5,-265.5 782.5,-265.5 782.5,-246.5 717.5,-246.5"/>
<text text-anchor="middle" x="750" y="-253.5" font-family="Helvetica,sans-Serif" font-size="10.00">functional</text>
</a>
</g>
</g>
<!-- Node20&#45;&gt;Node21 -->
<g id="edge20" class="edge">
<title>Node20&#45;&gt;Node21</title>
<path fill="none" stroke="midnightblue" d="M962.94,-302.47C922.57,-293.87 858.19,-280.15 792.66,-266.14"/>
<polygon fill="midnightblue" stroke="midnightblue" points="793.07,-262.65 782.56,-263.98 791.61,-269.49 793.07,-262.65"/>
</g>
<!-- Node22 -->
<g id="node22" class="node">
<title>Node22</title>
<g id="a_node22"><a xlink:title=" ">
<polygon fill="white" stroke="#bfbfbf" points="801,-246.5 801,-265.5 839,-265.5 839,-246.5 801,-246.5"/>
<text text-anchor="middle" x="820" y="-253.5" font-family="Helvetica,sans-Serif" font-size="10.00">map</text>
</a>
</g>
</g>
<!-- Node20&#45;&gt;Node22 -->
<g id="edge21" class="edge">
<title>Node20&#45;&gt;Node22</title>
<path fill="none" stroke="midnightblue" d="M973.15,-302.44C942.09,-293.49 892.07,-278.98 849,-266 848.9,-265.97 848.8,-265.94 848.7,-265.91"/>
<polygon fill="midnightblue" stroke="midnightblue" points="849.6,-262.53 839.02,-262.95 847.56,-269.22 849.6,-262.53"/>
</g>
<!-- Node23 -->
<g id="node23" class="node">
<title>Node23</title>
<g id="a_node23"><a xlink:title=" ">
<polygon fill="white" stroke="#bfbfbf" points="857.5,-246.5 857.5,-265.5 908.5,-265.5 908.5,-246.5 857.5,-246.5"/>
<text text-anchor="middle" x="883" y="-253.5" font-family="Helvetica,sans-Serif" font-size="10.00">variant</text>
</a>
</g>
</g>
<!-- Node20&#45;&gt;Node23 -->
<g id="edge22" class="edge">
<title>Node20&#45;&gt;Node23</title>
<path fill="none" stroke="midnightblue" d="M983.99,-302.44C964.41,-293.64 933.69,-279.81 911.27,-269.72"/>
<polygon fill="midnightblue" stroke="midnightblue" points="912.48,-266.43 901.93,-265.52 909.61,-272.81 912.48,-266.43"/>
</g>
<!-- Node24 -->
<g id="node24" class="node">
<title>Node24</title>
<g id="a_node24"><a xlink:title=" ">
<polygon fill="white" stroke="#bfbfbf" points="926.5,-246.5 926.5,-265.5 1061.5,-265.5 1061.5,-246.5 926.5,-246.5"/>
<text text-anchor="middle" x="994" y="-253.5" font-family="Helvetica,sans-Serif" font-size="10.00">pybind11/detail/typeid.h</text>
</a>
</g>
</g>
<!-- Node20&#45;&gt;Node24 -->
<g id="edge23" class="edge">
<title>Node20&#45;&gt;Node24</title>
<path fill="none" stroke="midnightblue" d="M1001.51,-302.08C1000.32,-294.93 998.61,-284.64 997.12,-275.69"/>
<polygon fill="midnightblue" stroke="midnightblue" points="1000.55,-275.04 995.46,-265.75 993.65,-276.19 1000.55,-275.04"/>
</g>
<!-- Node25 -->
<g id="node25" class="node">
<title>Node25</title>
<g id="a_node25"><a xlink:href="lbfgs_8hpp.html" target="_top" xlink:title=" ">
<polygon fill="white" stroke="black" points="1118,-246.5 1118,-265.5 1210,-265.5 1210,-246.5 1118,-246.5"/>
<text text-anchor="middle" x="1164" y="-253.5" font-family="Helvetica,sans-Serif" font-size="10.00">quala/lbfgs.hpp</text>
</a>
</g>
</g>
<!-- Node20&#45;&gt;Node25 -->
<g id="edge25" class="edge">
<title>Node20&#45;&gt;Node25</title>
<path fill="none" stroke="midnightblue" d="M1028.51,-302.44C1055.6,-293.36 1098.59,-278.94 1128.87,-268.78"/>
<polygon fill="midnightblue" stroke="midnightblue" points="1130.24,-272.01 1138.61,-265.52 1128.01,-265.38 1130.24,-272.01"/>
</g>
<!-- Node30 -->
<g id="node30" class="node">
<title>Node30</title>
<g id="a_node30"><a xlink:href="anderson-acceleration_8hpp.html" target="_top" xlink:title=" ">
<polygon fill="white" stroke="black" points="523,-246.5 523,-265.5 699,-265.5 699,-246.5 523,-246.5"/>
<text text-anchor="middle" x="611" y="-253.5" font-family="Helvetica,sans-Serif" font-size="10.00">quala/anderson&#45;acceleration.hpp</text>
</a>
</g>
</g>
<!-- Node20&#45;&gt;Node30 -->
<g id="edge32" class="edge">
<title>Node20&#45;&gt;Node30</title>
<path fill="none" stroke="midnightblue" d="M943.89,-302.86C874.13,-293.25 758.16,-277.27 683.16,-266.94"/>
<polygon fill="midnightblue" stroke="midnightblue" points="683.24,-263.42 672.86,-265.52 682.29,-270.35 683.24,-263.42"/>
</g>
<!-- Node25&#45;&gt;Node15 -->
<g id="edge30" class="edge">
<title>Node25&#45;&gt;Node15</title>
<path fill="none" stroke="midnightblue" d="M1140.65,-246.48C1112.69,-236.27 1065.67,-219.11 1034.01,-207.55"/>
<polygon fill="midnightblue" stroke="midnightblue" points="1034.9,-204.15 1024.31,-204.01 1032.5,-210.73 1034.9,-204.15"/>
</g>
<!-- Node25&#45;&gt;Node18 -->
<g id="edge31" class="edge">
<title>Node25&#45;&gt;Node18</title>
<path fill="none" stroke="midnightblue" d="M1166.54,-246.43C1169.16,-237.42 1173.23,-222.8 1176,-210 1185.57,-165.87 1193.51,-113.38 1197.41,-85.9"/>
<polygon fill="midnightblue" stroke="midnightblue" points="1200.91,-86.15 1198.82,-75.76 1193.97,-85.18 1200.91,-86.15"/>
</g>
<!-- Node26 -->
<g id="node26" class="node">
<title>Node26</title>
<g id="a_node26"><a xlink:href="decl_2lbfgs_8hpp.html" target="_top" xlink:title=" ">
<polygon fill="white" stroke="black" points="1051.5,-185 1051.5,-204 1166.5,-204 1166.5,-185 1051.5,-185"/>
<text text-anchor="middle" x="1109" y="-192" font-family="Helvetica,sans-Serif" font-size="10.00">quala/decl/lbfgs.hpp</text>
</a>
</g>
</g>
<!-- Node25&#45;&gt;Node26 -->
<g id="edge26" class="edge">
<title>Node25&#45;&gt;Node26</title>
<path fill="none" stroke="midnightblue" d="M1156.12,-246.48C1147.71,-237.37 1134.18,-222.74 1123.77,-211.48"/>
<polygon fill="midnightblue" stroke="midnightblue" points="1126.22,-208.98 1116.87,-204.01 1121.08,-213.73 1126.22,-208.98"/>
</g>
<!-- Node27 -->
<g id="node27" class="node">
<title>Node27</title>
<g id="a_node27"><a xlink:href="lbfgs-fwd_8hpp.html" target="_top" xlink:title=" ">
<polygon fill="white" stroke="black" points="1036,-118 1036,-137 1172,-137 1172,-118 1036,-118"/>
<text text-anchor="middle" x="1104" y="-125" font-family="Helvetica,sans-Serif" font-size="10.00">quala/decl/lbfgs&#45;fwd.hpp</text>
</a>
</g>
</g>
<!-- Node26&#45;&gt;Node27 -->
<g id="edge27" class="edge">
<title>Node26&#45;&gt;Node27</title>
<path fill="none" stroke="midnightblue" d="M1108.33,-184.73C1107.59,-175.18 1106.39,-159.62 1105.44,-147.28"/>
<polygon fill="midnightblue" stroke="midnightblue" points="1108.92,-146.83 1104.66,-137.13 1101.94,-147.37 1108.92,-146.83"/>
</g>
<!-- Node28 -->
<g id="node28" class="node">
<title>Node28</title>
<g id="a_node28"><a xlink:href="vec_8hpp.html" target="_top" xlink:title=" ">
<polygon fill="white" stroke="black" points="956,-56.5 956,-75.5 1060,-75.5 1060,-56.5 956,-56.5"/>
<text text-anchor="middle" x="1008" y="-63.5" font-family="Helvetica,sans-Serif" font-size="10.00">quala/util/vec.hpp</text>
</a>
</g>
</g>
<!-- Node26&#45;&gt;Node28 -->
<g id="edge28" class="edge">
<title>Node26&#45;&gt;Node28</title>
<path fill="none" stroke="midnightblue" d="M1085.71,-184.94C1067.08,-176.91 1041.71,-163.1 1027,-143 1014.73,-126.24 1010.34,-102.42 1008.79,-85.94"/>
<polygon fill="midnightblue" stroke="midnightblue" points="1012.28,-85.61 1008.11,-75.87 1005.29,-86.08 1012.28,-85.61"/>
</g>
<!-- Node29 -->
<g id="node29" class="node">
<title>Node29</title>
<g id="a_node29"><a xlink:title=" ">
<polygon fill="white" stroke="#bfbfbf" points="990.5,-0.5 990.5,-19.5 1059.5,-19.5 1059.5,-0.5 990.5,-0.5"/>
<text text-anchor="middle" x="1025" y="-7.5" font-family="Helvetica,sans-Serif" font-size="10.00">Eigen/Core</text>
</a>
</g>
</g>
<!-- Node28&#45;&gt;Node29 -->
<g id="edge29" class="edge">
<title>Node28&#45;&gt;Node29</title>
<path fill="none" stroke="midnightblue" d="M1010.81,-56.08C1013.08,-48.85 1016.37,-38.41 1019.21,-29.4"/>
<polygon fill="midnightblue" stroke="midnightblue" points="1022.58,-30.34 1022.25,-19.75 1015.9,-28.24 1022.58,-30.34"/>
</g>
<!-- Node30&#45;&gt;Node15 -->
<g id="edge44" class="edge">
<title>Node30&#45;&gt;Node15</title>
<path fill="none" stroke="midnightblue" d="M666.88,-246.48C745.67,-234.45 887.7,-212.79 958.49,-201.99"/>
<polygon fill="midnightblue" stroke="midnightblue" points="959.04,-205.44 968.4,-200.47 957.99,-198.52 959.04,-205.44"/>
</g>
<!-- Node31 -->
<g id="node31" class="node">
<title>Node31</title>
<g id="a_node31"><a xlink:href="anderson-helpers_8hpp.html" target="_top" xlink:title=" ">
<polygon fill="white" stroke="black" points="632,-179.5 632,-209.5 754,-209.5 754,-179.5 632,-179.5"/>
<text text-anchor="start" x="640" y="-197.5" font-family="Helvetica,sans-Serif" font-size="10.00">quala/detail/anderson</text>
<text text-anchor="middle" x="693" y="-186.5" font-family="Helvetica,sans-Serif" font-size="10.00">&#45;helpers.hpp</text>
</a>
</g>
</g>
<!-- Node30&#45;&gt;Node31 -->
<g id="edge33" class="edge">
<title>Node30&#45;&gt;Node31</title>
<path fill="none" stroke="midnightblue" d="M622.75,-246.48C633.85,-238.42 650.93,-226.02 665.47,-215.47"/>
<polygon fill="midnightblue" stroke="midnightblue" points="667.64,-218.23 673.67,-209.52 663.52,-212.56 667.64,-218.23"/>
</g>
<!-- Node32 -->
<g id="node32" class="node">
<title>Node32</title>
<g id="a_node32"><a xlink:href="limited-memory-qr_8hpp.html" target="_top" xlink:title=" ">
<polygon fill="white" stroke="black" points="734,-112.5 734,-142.5 846,-142.5 846,-112.5 734,-112.5"/>
<text text-anchor="start" x="742" y="-130.5" font-family="Helvetica,sans-Serif" font-size="10.00">quala/detail/limited</text>
<text text-anchor="middle" x="790" y="-119.5" font-family="Helvetica,sans-Serif" font-size="10.00">&#45;memory&#45;qr.hpp</text>
</a>
</g>
</g>
<!-- Node31&#45;&gt;Node32 -->
<g id="edge34" class="edge">
<title>Node31&#45;&gt;Node32</title>
<path fill="none" stroke="midnightblue" d="M714.05,-179.4C727.65,-170.28 745.54,-158.29 760.55,-148.24"/>
<polygon fill="midnightblue" stroke="midnightblue" points="762.63,-151.05 768.99,-142.58 758.74,-145.24 762.63,-151.05"/>
</g>
<!-- Node32&#45;&gt;Node18 -->
<g id="edge43" class="edge">
<title>Node32&#45;&gt;Node18</title>
<path fill="none" stroke="midnightblue" d="M846.15,-118.35C928.36,-106.42 1079.88,-84.43 1155.14,-73.51"/>
<polygon fill="midnightblue" stroke="midnightblue" points="1155.84,-76.94 1165.24,-72.04 1154.84,-70.02 1155.84,-76.94"/>
</g>
<!-- Node32&#45;&gt;Node28 -->
<g id="edge42" class="edge">
<title>Node32&#45;&gt;Node28</title>
<path fill="none" stroke="midnightblue" d="M841.39,-112.47C879.65,-102.03 931.21,-87.96 966.79,-78.25"/>
<polygon fill="midnightblue" stroke="midnightblue" points="968.11,-81.52 976.83,-75.51 966.27,-74.76 968.11,-81.52"/>
</g>
<!-- Node33 -->
<g id="node33" class="node">
<title>Node33</title>
<g id="a_node33"><a xlink:title=" ">
<polygon fill="white" stroke="#bfbfbf" points="639,-56.5 639,-75.5 715,-75.5 715,-56.5 639,-56.5"/>
<text text-anchor="middle" x="677" y="-63.5" font-family="Helvetica,sans-Serif" font-size="10.00">Eigen/Jacobi</text>
</a>
</g>
</g>
<!-- Node32&#45;&gt;Node33 -->
<g id="edge35" class="edge">
<title>Node32&#45;&gt;Node33</title>
<path fill="none" stroke="midnightblue" d="M763.22,-112.4C744.94,-102.77 720.85,-90.09 702.79,-80.58"/>
<polygon fill="midnightblue" stroke="midnightblue" points="703.92,-77.22 693.44,-75.66 700.66,-83.41 703.92,-77.22"/>
</g>
<!-- Node34 -->
<g id="node34" class="node">
<title>Node34</title>
<g id="a_node34"><a xlink:title=" ">
<polygon fill="white" stroke="#bfbfbf" points="700.5,-0.5 700.5,-19.5 753.5,-19.5 753.5,-0.5 700.5,-0.5"/>
<text text-anchor="middle" x="727" y="-7.5" font-family="Helvetica,sans-Serif" font-size="10.00">cstddef</text>
</a>
</g>
</g>
<!-- Node32&#45;&gt;Node34 -->
<g id="edge36" class="edge">
<title>Node32&#45;&gt;Node34</title>
<path fill="none" stroke="midnightblue" d="M782.11,-112.38C776.47,-102.26 768.73,-88.32 762,-76 753.28,-60.05 743.48,-41.82 736.47,-28.73"/>
<polygon fill="midnightblue" stroke="midnightblue" points="739.52,-27.02 731.72,-19.85 733.35,-30.32 739.52,-27.02"/>
</g>
<!-- Node35 -->
<g id="node35" class="node">
<title>Node35</title>
<g id="a_node35"><a xlink:href="ringbuffer_8hpp.html" target="_top" xlink:title=" ">
<polygon fill="white" stroke="black" points="771.5,-56.5 771.5,-75.5 904.5,-75.5 904.5,-56.5 771.5,-56.5"/>
<text text-anchor="middle" x="838" y="-63.5" font-family="Helvetica,sans-Serif" font-size="10.00">quala/util/ringbuffer.hpp</text>
</a>
</g>
</g>
<!-- Node32&#45;&gt;Node35 -->
<g id="edge37" class="edge">
<title>Node32&#45;&gt;Node35</title>
<path fill="none" stroke="midnightblue" d="M801.38,-112.4C808.35,-103.75 817.31,-92.64 824.63,-83.58"/>
<polygon fill="midnightblue" stroke="midnightblue" points="827.46,-85.64 831.02,-75.66 822.01,-81.24 827.46,-85.64"/>
</g>
<!-- Node35&#45;&gt;Node34 -->
<g id="edge39" class="edge">
<title>Node35&#45;&gt;Node34</title>
<path fill="none" stroke="midnightblue" d="M820.17,-56.32C802.28,-47.62 774.52,-34.12 753.95,-24.11"/>
<polygon fill="midnightblue" stroke="midnightblue" points="755.31,-20.88 744.79,-19.65 752.25,-27.18 755.31,-20.88"/>
</g>
<!-- Node36 -->
<g id="node36" class="node">
<title>Node36</title>
<g id="a_node36"><a xlink:title=" ">
<polygon fill="white" stroke="#bfbfbf" points="837,-0.5 837,-19.5 901,-19.5 901,-0.5 837,-0.5"/>
<text text-anchor="middle" x="869" y="-7.5" font-family="Helvetica,sans-Serif" font-size="10.00">algorithm</text>
</a>
</g>
</g>
<!-- Node35&#45;&gt;Node36 -->
<g id="edge38" class="edge">
<title>Node35&#45;&gt;Node36</title>
<path fill="none" stroke="midnightblue" d="M843.12,-56.08C847.41,-48.61 853.66,-37.72 858.94,-28.52"/>
<polygon fill="midnightblue" stroke="midnightblue" points="862.03,-30.17 863.98,-19.75 855.96,-26.68 862.03,-30.17"/>
</g>
<!-- Node37 -->
<g id="node37" class="node">
<title>Node37</title>
<g id="a_node37"><a xlink:title=" ">
<polygon fill="white" stroke="#bfbfbf" points="919.5,-0.5 919.5,-19.5 972.5,-19.5 972.5,-0.5 919.5,-0.5"/>
<text text-anchor="middle" x="946" y="-7.5" font-family="Helvetica,sans-Serif" font-size="10.00">iterator</text>
</a>
</g>
</g>
<!-- Node35&#45;&gt;Node37 -->
<g id="edge40" class="edge">
<title>Node35&#45;&gt;Node37</title>
<path fill="none" stroke="midnightblue" d="M855.35,-56.32C872.67,-47.66 899.52,-34.24 919.5,-24.25"/>
<polygon fill="midnightblue" stroke="midnightblue" points="921.31,-27.26 928.69,-19.65 918.18,-21 921.31,-27.26"/>
</g>
<!-- Node38 -->
<g id="node38" class="node">
<title>Node38</title>
<g id="a_node38"><a xlink:title=" ">
<polygon fill="white" stroke="#bfbfbf" points="771.5,-0.5 771.5,-19.5 818.5,-19.5 818.5,-0.5 771.5,-0.5"/>
<text text-anchor="middle" x="795" y="-7.5" font-family="Helvetica,sans-Serif" font-size="10.00">vector</text>
</a>
</g>
</g>
<!-- Node35&#45;&gt;Node38 -->
<g id="edge41" class="edge">
<title>Node35&#45;&gt;Node38</title>
<path fill="none" stroke="midnightblue" d="M830.9,-56.08C824.76,-48.38 815.73,-37.03 808.26,-27.65"/>
<polygon fill="midnightblue" stroke="midnightblue" points="810.94,-25.39 801.97,-19.75 805.46,-29.75 810.94,-25.39"/>
</g>
</g>
</svg>
