<?xml version="1.0" encoding="UTF-8" standalone="no"?>
<!DOCTYPE svg PUBLIC "-//W3C//DTD SVG 1.1//EN"
 "http://www.w3.org/Graphics/SVG/1.1/DTD/svg11.dtd">
<!-- Generated by graphviz version 2.43.0 (0)
 -->
<!-- Title: PYBIND11_MODULE Pages: 1 -->
<svg width="801pt" height="522pt"
 viewBox="0.00 0.00 801.00 521.50" xmlns="http://www.w3.org/2000/svg" xmlns:xlink="http://www.w3.org/1999/xlink">
<g id="graph0" class="graph" transform="scale(1 1) rotate(0) translate(4 517.5)">
<title>PYBIND11_MODULE</title>
<polygon fill="white" stroke="transparent" points="-4,4 -4,-517.5 797,-517.5 797,4 -4,4"/>
<!-- Node1 -->
<g id="node1" class="node">
<title>Node1</title>
<g id="a_node1"><a xlink:title=" ">
<polygon fill="#bfbfbf" stroke="black" points="0,-274.5 0,-293.5 113,-293.5 113,-274.5 0,-274.5"/>
<text text-anchor="middle" x="56.5" y="-281.5" font-family="Helvetica,sans-Serif" font-size="10.00">PYBIND11_MODULE</text>
</a>
</g>
</g>
<!-- Node2 -->
<g id="node2" class="node">
<title>Node2</title>
<g id="a_node2"><a xlink:href="classquala_1_1AndersonAccel.html#a933e2462ce1049db54fed366cce62477" target="_top" xlink:title="Get the parameters.">
<polygon fill="white" stroke="black" points="160.5,-483 160.5,-513 282.5,-513 282.5,-483 160.5,-483"/>
<text text-anchor="start" x="168.5" y="-501" font-family="Helvetica,sans-Serif" font-size="10.00">quala::AndersonAccel</text>
<text text-anchor="middle" x="221.5" y="-490" font-family="Helvetica,sans-Serif" font-size="10.00">::get_params</text>
</a>
</g>
</g>
<!-- Node1&#45;&gt;Node2 -->
<g id="edge1" class="edge">
<title>Node1&#45;&gt;Node2</title>
<path fill="none" stroke="midnightblue" d="M59.47,-293.83C66.19,-324.8 91.04,-421.32 149,-473 150.75,-474.56 152.61,-476.03 154.55,-477.41"/>
<polygon fill="midnightblue" stroke="midnightblue" points="153.14,-480.65 163.5,-482.88 156.79,-474.68 153.14,-480.65"/>
</g>
<!-- Node3 -->
<g id="node3" class="node">
<title>Node3</title>
<g id="a_node3"><a xlink:href="classquala_1_1LBFGS.html#a933e2462ce1049db54fed366cce62477" target="_top" xlink:title="Get the parameters.">
<polygon fill="white" stroke="black" points="149,-444.5 149,-463.5 294,-463.5 294,-444.5 149,-444.5"/>
<text text-anchor="middle" x="221.5" y="-451.5" font-family="Helvetica,sans-Serif" font-size="10.00">quala::LBFGS::get_params</text>
</a>
</g>
</g>
<!-- Node1&#45;&gt;Node3 -->
<g id="edge2" class="edge">
<title>Node1&#45;&gt;Node3</title>
<path fill="none" stroke="midnightblue" d="M60.44,-293.52C69.19,-320.25 97.72,-396.59 149,-435 151.49,-436.86 154.15,-438.55 156.92,-440.06"/>
<polygon fill="midnightblue" stroke="midnightblue" points="155.56,-443.29 166.1,-444.37 158.53,-436.95 155.56,-443.29"/>
</g>
<!-- Node4 -->
<g id="node4" class="node">
<title>Node4</title>
<g id="a_node4"><a xlink:href="classquala_1_1LBFGS.html#a727afc7a58d2e44ae7add57e3fa77bc6" target="_top" xlink:title="Get the size of the s and y vectors in the buffer.">
<polygon fill="white" stroke="black" points="700,-317.5 700,-336.5 793,-336.5 793,-317.5 700,-317.5"/>
<text text-anchor="middle" x="746.5" y="-324.5" font-family="Helvetica,sans-Serif" font-size="10.00">quala::LBFGS::n</text>
</a>
</g>
</g>
<!-- Node1&#45;&gt;Node4 -->
<g id="edge3" class="edge">
<title>Node1&#45;&gt;Node4</title>
<path fill="none" stroke="midnightblue" d="M67.44,-274.29C83.21,-259.58 115.63,-232.05 149,-220 283.75,-171.34 329.02,-185.86 471,-205 559.16,-216.88 585.32,-216.51 664,-258 689.69,-271.55 714.47,-294.36 729.82,-310.02"/>
<polygon fill="midnightblue" stroke="midnightblue" points="727.51,-312.66 736.95,-317.47 732.56,-307.83 727.51,-312.66"/>
</g>
<!-- Node5 -->
<g id="node5" class="node">
<title>Node5</title>
<g id="a_node5"><a xlink:href="classquala_1_1AndersonAccel.html#ad20897c5c8bd47f5d4005989bead0e55" target="_top" xlink:title="Reset the accelerator (but keep the last function value and residual, so calling initialize is not ne...">
<polygon fill="white" stroke="black" points="160.5,-127 160.5,-157 282.5,-157 282.5,-127 160.5,-127"/>
<text text-anchor="start" x="168.5" y="-145" font-family="Helvetica,sans-Serif" font-size="10.00">quala::AndersonAccel</text>
<text text-anchor="middle" x="221.5" y="-134" font-family="Helvetica,sans-Serif" font-size="10.00">::reset</text>
</a>
</g>
</g>
<!-- Node1&#45;&gt;Node5 -->
<g id="edge4" class="edge">
<title>Node1&#45;&gt;Node5</title>
<path fill="none" stroke="midnightblue" d="M63.13,-274.26C75.88,-252.99 108.97,-201.9 149,-172 154.17,-168.14 159.9,-164.68 165.82,-161.59"/>
<polygon fill="midnightblue" stroke="midnightblue" points="167.72,-164.56 175.2,-157.06 164.67,-158.26 167.72,-164.56"/>
</g>
<!-- Node8 -->
<g id="node8" class="node">
<title>Node8</title>
<g id="a_node8"><a xlink:href="classquala_1_1LBFGS.html#ad20897c5c8bd47f5d4005989bead0e55" target="_top" xlink:title="Throw away the approximation and all previous vectors s and y.">
<polygon fill="white" stroke="black" points="344.5,-214.5 344.5,-233.5 456.5,-233.5 456.5,-214.5 344.5,-214.5"/>
<text text-anchor="middle" x="400.5" y="-221.5" font-family="Helvetica,sans-Serif" font-size="10.00">quala::LBFGS::reset</text>
</a>
</g>
</g>
<!-- Node1&#45;&gt;Node8 -->
<g id="edge7" class="edge">
<title>Node1&#45;&gt;Node8</title>
<path fill="none" stroke="midnightblue" d="M74.06,-274.46C91.92,-264.69 121.5,-249.98 149,-243 210.5,-227.4 283,-223.39 334.13,-222.84"/>
<polygon fill="midnightblue" stroke="midnightblue" points="334.41,-226.34 344.39,-222.77 334.36,-219.34 334.41,-226.34"/>
</g>
<!-- Node9 -->
<g id="node9" class="node">
<title>Node9</title>
<g id="a_node9"><a xlink:href="classquala_1_1AndersonAccel.html#abfe51417fbebd259808f86d27f1d7ec5" target="_top" xlink:title="Change the problem dimension.">
<polygon fill="white" stroke="black" points="160.5,-39 160.5,-69 282.5,-69 282.5,-39 160.5,-39"/>
<text text-anchor="start" x="168.5" y="-57" font-family="Helvetica,sans-Serif" font-size="10.00">quala::AndersonAccel</text>
<text text-anchor="middle" x="221.5" y="-46" font-family="Helvetica,sans-Serif" font-size="10.00">::resize</text>
</a>
</g>
</g>
<!-- Node1&#45;&gt;Node9 -->
<g id="edge8" class="edge">
<title>Node1&#45;&gt;Node9</title>
<path fill="none" stroke="midnightblue" d="M61.45,-274.33C72.61,-247.67 106.38,-171.56 149,-118 161.58,-102.2 178.27,-87.01 192.37,-75.4"/>
<polygon fill="midnightblue" stroke="midnightblue" points="194.72,-78 200.31,-69 190.33,-72.55 194.72,-78"/>
</g>
<!-- Node14 -->
<g id="node14" class="node">
<title>Node14</title>
<g id="a_node14"><a xlink:href="classquala_1_1LBFGS.html#abfe51417fbebd259808f86d27f1d7ec5" target="_top" xlink:title="Re&#45;allocate storage for a problem with a different size.">
<polygon fill="white" stroke="black" points="163.5,-252.5 163.5,-271.5 279.5,-271.5 279.5,-252.5 163.5,-252.5"/>
<text text-anchor="middle" x="221.5" y="-259.5" font-family="Helvetica,sans-Serif" font-size="10.00">quala::LBFGS::resize</text>
</a>
</g>
</g>
<!-- Node1&#45;&gt;Node14 -->
<g id="edge15" class="edge">
<title>Node1&#45;&gt;Node14</title>
<path fill="none" stroke="midnightblue" d="M113.14,-276.49C126.07,-274.74 139.98,-272.87 153.35,-271.06"/>
<polygon fill="midnightblue" stroke="midnightblue" points="154.01,-274.51 163.45,-269.7 153.07,-267.57 154.01,-274.51"/>
</g>
<!-- Node15 -->
<g id="node15" class="node">
<title>Node15</title>
<g id="a_node15"><a xlink:href="classquala_1_1LBFGS.html#adeddc1e1eb8ce1c1bbaf931b6f9a5b9c" target="_top" xlink:title="Scale the stored y vectors by the given factor.">
<polygon fill="white" stroke="black" points="159.5,-406.5 159.5,-425.5 283.5,-425.5 283.5,-406.5 159.5,-406.5"/>
<text text-anchor="middle" x="221.5" y="-413.5" font-family="Helvetica,sans-Serif" font-size="10.00">quala::LBFGS::scale_y</text>
</a>
</g>
</g>
<!-- Node1&#45;&gt;Node15 -->
<g id="edge18" class="edge">
<title>Node1&#45;&gt;Node15</title>
<path fill="none" stroke="midnightblue" d="M65.24,-293.77C80.04,-312 114.02,-351.76 149,-378 161.4,-387.3 176.38,-395.64 189.41,-402.12"/>
<polygon fill="midnightblue" stroke="midnightblue" points="187.97,-405.31 198.5,-406.49 191.01,-399 187.97,-405.31"/>
</g>
<!-- Node19 -->
<g id="node19" class="node">
<title>Node19</title>
<g id="a_node19"><a xlink:href="classquala_1_1LBFGS.html#a4db75f8c280c32a05a44bb83769befb1" target="_top" xlink:title="Update the inverse Hessian approximation using the new vectors xₖ₊₁ and pₖ₊₁.">
<polygon fill="white" stroke="black" points="161,-349.5 161,-368.5 282,-368.5 282,-349.5 161,-349.5"/>
<text text-anchor="middle" x="221.5" y="-356.5" font-family="Helvetica,sans-Serif" font-size="10.00">quala::LBFGS::update</text>
</a>
</g>
</g>
<!-- Node1&#45;&gt;Node19 -->
<g id="edge24" class="edge">
<title>Node1&#45;&gt;Node19</title>
<path fill="none" stroke="midnightblue" d="M78.48,-293.65C106.84,-306.7 157.61,-330.06 190.14,-345.03"/>
<polygon fill="midnightblue" stroke="midnightblue" points="189.06,-348.39 199.6,-349.39 191.98,-342.03 189.06,-348.39"/>
</g>
<!-- Node22 -->
<g id="node22" class="node">
<title>Node22</title>
<g id="a_node22"><a xlink:href="classquala_1_1LBFGS.html#aaf9c6519c7a7d7ab977113f33c88e2e3" target="_top" xlink:title="Check if the new vectors s and y allow for a valid BFGS update that preserves the positive definitene...">
<polygon fill="white" stroke="black" points="340,-291 340,-321 461,-321 461,-291 340,-291"/>
<text text-anchor="start" x="348" y="-309" font-family="Helvetica,sans-Serif" font-size="10.00">quala::LBFGS::update</text>
<text text-anchor="middle" x="400.5" y="-298" font-family="Helvetica,sans-Serif" font-size="10.00">_valid</text>
</a>
</g>
</g>
<!-- Node1&#45;&gt;Node22 -->
<g id="edge34" class="edge">
<title>Node1&#45;&gt;Node22</title>
<path fill="none" stroke="midnightblue" d="M113.21,-287.58C172.32,-291.39 265.83,-297.4 329.79,-301.52"/>
<polygon fill="midnightblue" stroke="midnightblue" points="329.59,-305.01 339.79,-302.16 330.03,-298.02 329.59,-305.01"/>
</g>
<!-- Node6 -->
<g id="node6" class="node">
<title>Node6</title>
<g id="a_node6"><a xlink:href="classquala_1_1LimitedMemoryQR.html#ad20897c5c8bd47f5d4005989bead0e55" target="_top" xlink:title="Reset all indices, clearing the Q and R matrices.">
<polygon fill="white" stroke="black" points="515,-83 515,-113 656,-113 656,-83 515,-83"/>
<text text-anchor="start" x="523" y="-101" font-family="Helvetica,sans-Serif" font-size="10.00">quala::LimitedMemoryQR</text>
<text text-anchor="middle" x="585.5" y="-90" font-family="Helvetica,sans-Serif" font-size="10.00">::reset</text>
</a>
</g>
</g>
<!-- Node5&#45;&gt;Node6 -->
<g id="edge5" class="edge">
<title>Node5&#45;&gt;Node6</title>
<path fill="none" stroke="midnightblue" d="M282.77,-126.97C298.09,-123.59 314.59,-120.31 330,-118 388.12,-109.27 454.32,-104.22 504.63,-101.38"/>
<polygon fill="midnightblue" stroke="midnightblue" points="505,-104.86 514.8,-100.82 504.62,-97.87 505,-104.86"/>
</g>
<!-- Node7 -->
<g id="node7" class="node">
<title>Node7</title>
<g id="a_node7"><a xlink:href="classquala_1_1LimitedMemoryQR.html#a8a153a1f58e5c5879095a4c3799b6f49" target="_top" xlink:title="Get the tail index of the circular buffer (points to one past the most recent element).">
<polygon fill="white" stroke="black" points="330,-127 330,-157 471,-157 471,-127 330,-127"/>
<text text-anchor="start" x="338" y="-145" font-family="Helvetica,sans-Serif" font-size="10.00">quala::LimitedMemoryQR</text>
<text text-anchor="middle" x="400.5" y="-134" font-family="Helvetica,sans-Serif" font-size="10.00">::ring_tail</text>
</a>
</g>
</g>
<!-- Node5&#45;&gt;Node7 -->
<g id="edge6" class="edge">
<title>Node5&#45;&gt;Node7</title>
<path fill="none" stroke="midnightblue" d="M282.92,-142C294.73,-142 307.29,-142 319.63,-142"/>
<polygon fill="midnightblue" stroke="midnightblue" points="319.91,-145.5 329.91,-142 319.91,-138.5 319.91,-145.5"/>
</g>
<!-- Node10 -->
<g id="node10" class="node">
<title>Node10</title>
<g id="a_node10"><a xlink:href="classquala_1_1AndersonAccel.html#a727afc7a58d2e44ae7add57e3fa77bc6" target="_top" xlink:title="Get the problem dimension.">
<polygon fill="white" stroke="black" points="333.5,-0.5 333.5,-19.5 467.5,-19.5 467.5,-0.5 333.5,-0.5"/>
<text text-anchor="middle" x="400.5" y="-7.5" font-family="Helvetica,sans-Serif" font-size="10.00">quala::AndersonAccel::n</text>
</a>
</g>
</g>
<!-- Node9&#45;&gt;Node10 -->
<g id="edge9" class="edge">
<title>Node9&#45;&gt;Node10</title>
<path fill="none" stroke="midnightblue" d="M282.92,-38.98C305.31,-33.41 330.38,-27.18 351.51,-21.93"/>
<polygon fill="midnightblue" stroke="midnightblue" points="352.37,-25.32 361.23,-19.51 350.69,-18.53 352.37,-25.32"/>
</g>
<!-- Node12 -->
<g id="node12" class="node">
<title>Node12</title>
<g id="a_node12"><a xlink:href="classquala_1_1LimitedMemoryQR.html#ad15543203799d1dccb5a5e1c572e3f02" target="_top" xlink:title="Re&#45;allocate storage for a problem with a different size.">
<polygon fill="white" stroke="black" points="330,-39 330,-69 471,-69 471,-39 330,-39"/>
<text text-anchor="start" x="338" y="-57" font-family="Helvetica,sans-Serif" font-size="10.00">quala::LimitedMemoryQR</text>
<text text-anchor="middle" x="400.5" y="-46" font-family="Helvetica,sans-Serif" font-size="10.00">::resize</text>
</a>
</g>
</g>
<!-- Node9&#45;&gt;Node12 -->
<g id="edge11" class="edge">
<title>Node9&#45;&gt;Node12</title>
<path fill="none" stroke="midnightblue" d="M282.92,-54C294.73,-54 307.29,-54 319.63,-54"/>
<polygon fill="midnightblue" stroke="midnightblue" points="319.91,-57.5 329.91,-54 319.91,-50.5 319.91,-57.5"/>
</g>
<!-- Node11 -->
<g id="node11" class="node">
<title>Node11</title>
<g id="a_node11"><a xlink:href="classquala_1_1LimitedMemoryQR.html#a727afc7a58d2e44ae7add57e3fa77bc6" target="_top" xlink:title=" ">
<polygon fill="white" stroke="black" points="509,-3.5 509,-22.5 662,-22.5 662,-3.5 509,-3.5"/>
<text text-anchor="middle" x="585.5" y="-10.5" font-family="Helvetica,sans-Serif" font-size="10.00">quala::LimitedMemoryQR::n</text>
</a>
</g>
</g>
<!-- Node10&#45;&gt;Node11 -->
<g id="edge10" class="edge">
<title>Node10&#45;&gt;Node11</title>
<path fill="none" stroke="midnightblue" d="M467.57,-11.08C477.73,-11.25 488.35,-11.42 498.86,-11.6"/>
<polygon fill="midnightblue" stroke="midnightblue" points="498.84,-15.1 508.89,-11.76 498.95,-8.1 498.84,-15.1"/>
</g>
<!-- Node12&#45;&gt;Node6 -->
<g id="edge14" class="edge">
<title>Node12&#45;&gt;Node6</title>
<path fill="none" stroke="midnightblue" d="M463.97,-69.02C479.49,-72.75 496.25,-76.78 512.2,-80.62"/>
<polygon fill="midnightblue" stroke="midnightblue" points="511.46,-84.04 522,-82.97 513.1,-77.23 511.46,-84.04"/>
</g>
<!-- Node12&#45;&gt;Node11 -->
<g id="edge13" class="edge">
<title>Node12&#45;&gt;Node11</title>
<path fill="none" stroke="midnightblue" d="M468.6,-38.97C489.45,-34.3 512.12,-29.22 531.84,-24.8"/>
<polygon fill="midnightblue" stroke="midnightblue" points="532.86,-28.16 541.85,-22.55 531.33,-21.33 532.86,-28.16"/>
</g>
<!-- Node13 -->
<g id="node13" class="node">
<title>Node13</title>
<g id="a_node13"><a xlink:href="classquala_1_1LimitedMemoryQR.html#ac397ae83f5f4dd3d5cf9926f26acfb2d" target="_top" xlink:title=" ">
<polygon fill="white" stroke="black" points="507,-44.5 507,-63.5 664,-63.5 664,-44.5 507,-44.5"/>
<text text-anchor="middle" x="585.5" y="-51.5" font-family="Helvetica,sans-Serif" font-size="10.00">quala::LimitedMemoryQR::m</text>
</a>
</g>
</g>
<!-- Node12&#45;&gt;Node13 -->
<g id="edge12" class="edge">
<title>Node12&#45;&gt;Node13</title>
<path fill="none" stroke="midnightblue" d="M471.21,-54C479.56,-54 488.16,-54 496.72,-54"/>
<polygon fill="midnightblue" stroke="midnightblue" points="496.74,-57.5 506.74,-54 496.74,-50.5 496.74,-57.5"/>
</g>
<!-- Node14&#45;&gt;Node4 -->
<g id="edge16" class="edge">
<title>Node14&#45;&gt;Node4</title>
<path fill="none" stroke="midnightblue" d="M279.68,-258.43C364.91,-254.65 529.62,-253.32 664,-288 684.25,-293.23 705.51,-303.59 721.24,-312.32"/>
<polygon fill="midnightblue" stroke="midnightblue" points="719.84,-315.55 730.26,-317.48 723.32,-309.47 719.84,-315.55"/>
</g>
<!-- Node14&#45;&gt;Node8 -->
<g id="edge17" class="edge">
<title>Node14&#45;&gt;Node8</title>
<path fill="none" stroke="midnightblue" d="M267.16,-252.41C290.84,-247.33 320.11,-241.04 345.1,-235.68"/>
<polygon fill="midnightblue" stroke="midnightblue" points="346.11,-239.04 355.16,-233.52 344.64,-232.2 346.11,-239.04"/>
</g>
<!-- Node16 -->
<g id="node16" class="node">
<title>Node16</title>
<g id="a_node16"><a xlink:href="classquala_1_1LBFGS.html#a9cf7dcccbc3bc69a10833450ee79c623" target="_top" xlink:title="Get the number of previous vectors s and y stored in the buffer.">
<polygon fill="white" stroke="black" points="525,-378.5 525,-397.5 646,-397.5 646,-378.5 525,-378.5"/>
<text text-anchor="middle" x="585.5" y="-385.5" font-family="Helvetica,sans-Serif" font-size="10.00">quala::LBFGS::history</text>
</a>
</g>
</g>
<!-- Node15&#45;&gt;Node16 -->
<g id="edge19" class="edge">
<title>Node15&#45;&gt;Node16</title>
<path fill="none" stroke="midnightblue" d="M275.06,-425.58C281.75,-428.03 288.25,-431.12 294,-435 316.11,-449.91 306.15,-471.07 330,-483 386.05,-511.03 412.1,-504.4 471,-483 513.4,-467.6 551.03,-428.64 570.49,-405.68"/>
<polygon fill="midnightblue" stroke="midnightblue" points="573.37,-407.69 577.03,-397.74 567.96,-403.23 573.37,-407.69"/>
</g>
<!-- Node17 -->
<g id="node17" class="node">
<title>Node17</title>
<g id="a_node17"><a xlink:href="classquala_1_1LBFGS.html#aebac2ec4461761a48a7284152a8217f8" target="_top" xlink:title=" ">
<polygon fill="white" stroke="black" points="354,-454.5 354,-473.5 447,-473.5 447,-454.5 354,-454.5"/>
<text text-anchor="middle" x="400.5" y="-461.5" font-family="Helvetica,sans-Serif" font-size="10.00">quala::LBFGS::y</text>
</a>
</g>
</g>
<!-- Node15&#45;&gt;Node17 -->
<g id="edge20" class="edge">
<title>Node15&#45;&gt;Node17</title>
<path fill="none" stroke="midnightblue" d="M258.9,-425.59C270.16,-428.58 282.6,-431.9 294,-435 310.02,-439.35 313.99,-440.59 330,-445 337.97,-447.2 346.46,-449.53 354.67,-451.77"/>
<polygon fill="midnightblue" stroke="midnightblue" points="353.92,-455.2 364.49,-454.46 355.77,-448.45 353.92,-455.2"/>
</g>
<!-- Node18 -->
<g id="node18" class="node">
<title>Node18</title>
<g id="a_node18"><a xlink:href="classquala_1_1LBFGS.html#acade3dc51f7ca788be9b91908b2e73ab" target="_top" xlink:title=" ">
<polygon fill="white" stroke="black" points="354,-416.5 354,-435.5 447,-435.5 447,-416.5 354,-416.5"/>
<text text-anchor="middle" x="400.5" y="-423.5" font-family="Helvetica,sans-Serif" font-size="10.00">quala::LBFGS::ρ</text>
</a>
</g>
</g>
<!-- Node15&#45;&gt;Node18 -->
<g id="edge22" class="edge">
<title>Node15&#45;&gt;Node18</title>
<path fill="none" stroke="midnightblue" d="M283.91,-419.47C303.38,-420.57 324.78,-421.78 343.82,-422.85"/>
<polygon fill="midnightblue" stroke="midnightblue" points="343.65,-426.35 353.83,-423.42 344.04,-419.36 343.65,-426.35"/>
</g>
<!-- Node17&#45;&gt;Node4 -->
<g id="edge21" class="edge">
<title>Node17&#45;&gt;Node4</title>
<path fill="none" stroke="midnightblue" d="M447.03,-469.13C502.14,-473.12 596.01,-472.64 664,-434 699.69,-413.72 724.79,-370.84 737.02,-345.96"/>
<polygon fill="midnightblue" stroke="midnightblue" points="740.24,-347.35 741.34,-336.81 733.9,-344.36 740.24,-347.35"/>
</g>
<!-- Node18&#45;&gt;Node4 -->
<g id="edge23" class="edge">
<title>Node18&#45;&gt;Node4</title>
<path fill="none" stroke="midnightblue" d="M447.46,-431.92C501.77,-436.88 593.62,-438.78 664,-407 693.95,-393.47 719.28,-363.93 733.42,-344.77"/>
<polygon fill="midnightblue" stroke="midnightblue" points="736.32,-346.74 739.27,-336.56 730.62,-342.68 736.32,-346.74"/>
</g>
<!-- Node19&#45;&gt;Node17 -->
<g id="edge32" class="edge">
<title>Node19&#45;&gt;Node17</title>
<path fill="none" stroke="midnightblue" d="M246.65,-368.62C261.33,-375.21 279.9,-384.93 294,-397 314.26,-414.34 307.95,-430.01 330,-445 334.35,-447.96 339.15,-450.46 344.12,-452.57"/>
<polygon fill="midnightblue" stroke="midnightblue" points="343.26,-455.98 353.85,-456.16 345.69,-449.41 343.26,-455.98"/>
</g>
<!-- Node19&#45;&gt;Node18 -->
<g id="edge33" class="edge">
<title>Node19&#45;&gt;Node18</title>
<path fill="none" stroke="midnightblue" d="M241.56,-368.58C262.77,-378.99 298.24,-395.65 330,-407 336.57,-409.35 343.57,-411.58 350.51,-413.62"/>
<polygon fill="midnightblue" stroke="midnightblue" points="350,-417.11 360.57,-416.49 351.91,-410.38 350,-417.11"/>
</g>
<!-- Node20 -->
<g id="node20" class="node">
<title>Node20</title>
<g id="a_node20"><a xlink:href="classquala_1_1LBFGS.html#a15e4a3db39457cabe764a7737d24e73f" target="_top" xlink:title=" ">
<polygon fill="white" stroke="black" points="539.5,-337.5 539.5,-356.5 631.5,-356.5 631.5,-337.5 539.5,-337.5"/>
<text text-anchor="middle" x="585.5" y="-344.5" font-family="Helvetica,sans-Serif" font-size="10.00">quala::LBFGS::s</text>
</a>
</g>
</g>
<!-- Node19&#45;&gt;Node20 -->
<g id="edge25" class="edge">
<title>Node19&#45;&gt;Node20</title>
<path fill="none" stroke="midnightblue" d="M282.28,-357.02C350.8,-354.75 462.24,-351.05 528.94,-348.84"/>
<polygon fill="midnightblue" stroke="midnightblue" points="529.37,-352.33 539.25,-348.5 529.14,-345.33 529.37,-352.33"/>
</g>
<!-- Node21 -->
<g id="node21" class="node">
<title>Node21</title>
<g id="a_node21"><a xlink:href="classquala_1_1LBFGS.html#a70926baed7362e4fcce66523bb8e2842" target="_top" xlink:title="Get the next index in the circular buffer of previous s and y vectors.">
<polygon fill="white" stroke="black" points="346,-378.5 346,-397.5 455,-397.5 455,-378.5 346,-378.5"/>
<text text-anchor="middle" x="400.5" y="-385.5" font-family="Helvetica,sans-Serif" font-size="10.00">quala::LBFGS::succ</text>
</a>
</g>
</g>
<!-- Node19&#45;&gt;Node21 -->
<g id="edge27" class="edge">
<title>Node19&#45;&gt;Node21</title>
<path fill="none" stroke="midnightblue" d="M280.95,-368.58C298.54,-371.46 317.92,-374.63 335.84,-377.57"/>
<polygon fill="midnightblue" stroke="midnightblue" points="335.46,-381.05 345.9,-379.22 336.6,-374.15 335.46,-381.05"/>
</g>
<!-- Node19&#45;&gt;Node22 -->
<g id="edge29" class="edge">
<title>Node19&#45;&gt;Node22</title>
<path fill="none" stroke="midnightblue" d="M254.55,-349.4C278.17,-342.33 310.99,-332.5 339.43,-323.99"/>
<polygon fill="midnightblue" stroke="midnightblue" points="340.7,-327.26 349.28,-321.04 338.7,-320.55 340.7,-327.26"/>
</g>
<!-- Node20&#45;&gt;Node4 -->
<g id="edge26" class="edge">
<title>Node20&#45;&gt;Node4</title>
<path fill="none" stroke="midnightblue" d="M631.64,-341.32C649.77,-339.04 670.86,-336.39 689.92,-333.99"/>
<polygon fill="midnightblue" stroke="midnightblue" points="690.49,-337.45 699.97,-332.73 689.61,-330.5 690.49,-337.45"/>
</g>
<!-- Node21&#45;&gt;Node16 -->
<g id="edge28" class="edge">
<title>Node21&#45;&gt;Node16</title>
<path fill="none" stroke="midnightblue" d="M455.42,-388C474,-388 495.09,-388 514.75,-388"/>
<polygon fill="midnightblue" stroke="midnightblue" points="514.89,-391.5 524.89,-388 514.89,-384.5 514.89,-391.5"/>
</g>
<!-- Node23 -->
<g id="node23" class="node">
<title>Node23</title>
<g id="a_node23"><a xlink:href="classquala_1_1LBFGS.html#ac7c2ee7d2562303f555dd1f4c3fca8cd" target="_top" xlink:title=" ">
<polygon fill="white" stroke="black" points="538.5,-297.5 538.5,-316.5 632.5,-316.5 632.5,-297.5 538.5,-297.5"/>
<text text-anchor="middle" x="585.5" y="-304.5" font-family="Helvetica,sans-Serif" font-size="10.00">quala::LBFGS::α</text>
</a>
</g>
</g>
<!-- Node22&#45;&gt;Node23 -->
<g id="edge30" class="edge">
<title>Node22&#45;&gt;Node23</title>
<path fill="none" stroke="midnightblue" d="M461.17,-306.33C482.68,-306.44 506.87,-306.58 528.1,-306.69"/>
<polygon fill="midnightblue" stroke="midnightblue" points="528.24,-310.19 538.25,-306.75 528.27,-303.19 528.24,-310.19"/>
</g>
<!-- Node23&#45;&gt;Node4 -->
<g id="edge31" class="edge">
<title>Node23&#45;&gt;Node4</title>
<path fill="none" stroke="midnightblue" d="M632.92,-312.84C650.71,-315.08 671.18,-317.65 689.76,-319.99"/>
<polygon fill="midnightblue" stroke="midnightblue" points="689.49,-323.48 699.85,-321.26 690.36,-316.54 689.49,-323.48"/>
</g>
</g>
</svg>
