<?xml version="1.0" encoding="UTF-8" standalone="no"?>
<!DOCTYPE svg PUBLIC "-//W3C//DTD SVG 1.1//EN"
 "http://www.w3.org/Graphics/SVG/1.1/DTD/svg11.dtd">
<!-- Generated by graphviz version 2.43.0 (0)
 -->
<!-- Title: LBFGSParams Pages: 1 -->
<svg width="94pt" height="182pt"
 viewBox="0.00 0.00 94.00 182.00" xmlns="http://www.w3.org/2000/svg" xmlns:xlink="http://www.w3.org/1999/xlink">
<g id="graph0" class="graph" transform="scale(1 1) rotate(0) translate(4 178)">
<title>LBFGSParams</title>
<polygon fill="white" stroke="transparent" points="-4,4 -4,-178 90,-178 90,4 -4,4"/>
<!-- Node1 -->
<g id="node1" class="node">
<title>Node1</title>
<g id="a_node1"><a xlink:title="Parameters for the LBFGS class.">
<polygon fill="#bfbfbf" stroke="black" points="1,-0.5 1,-57.5 85,-57.5 85,-0.5 1,-0.5"/>
<text text-anchor="middle" x="43" y="-45.5" font-family="Helvetica,sans-Serif" font-size="10.00">LBFGSParams</text>
<polyline fill="none" stroke="black" points="1,-38.5 85,-38.5 "/>
<text text-anchor="start" x="9" y="-26.5" font-family="Helvetica,sans-Serif" font-size="10.00">+ memory</text>
<polyline fill="none" stroke="black" points="1,-19.5 85,-19.5 "/>
<text text-anchor="middle" x="43" y="-7.5" font-family="Helvetica,sans-Serif" font-size="10.00"> </text>
</a>
</g>
</g>
<!-- Node2 -->
<g id="node2" class="node">
<title>Node2</title>
<g id="a_node2"><a xlink:href="namespacequala.html#structquala_1_1LBFGSParams_1_1CBFGSParams" target="_top" xlink:title=" ">
<polygon fill="white" stroke="black" points="0,-105.5 0,-173.5 86,-173.5 86,-105.5 0,-105.5"/>
<text text-anchor="middle" x="43" y="-161.5" font-family="Helvetica,sans-Serif" font-size="10.00">CBFGSParams</text>
<polyline fill="none" stroke="black" points="0,-154.5 86,-154.5 "/>
<text text-anchor="start" x="8" y="-142.5" font-family="Helvetica,sans-Serif" font-size="10.00">+ α</text>
<text text-anchor="start" x="8" y="-131.5" font-family="Helvetica,sans-Serif" font-size="10.00">+ ϵ</text>
<polyline fill="none" stroke="black" points="0,-124.5 86,-124.5 "/>
<text text-anchor="middle" x="43" y="-112.5" font-family="Helvetica,sans-Serif" font-size="10.00"> </text>
</a>
</g>
</g>
<!-- Node2&#45;&gt;Node1 -->
<g id="edge1" class="edge">
<title>Node2&#45;&gt;Node1</title>
<path fill="none" stroke="#404040" d="M43,-105.36C43,-94.19 43,-81.61 43,-69.97"/>
<polygon fill="none" stroke="#404040" points="43,-69.83 39,-63.83 43,-57.83 47,-63.83 43,-69.83"/>
<text text-anchor="middle" x="62" y="-79" font-family="Helvetica,sans-Serif" font-size="10.00"> +cbfgs</text>
</g>
</g>
</svg>
