<?xml version="1.0" encoding="UTF-8" standalone="no"?>
<!DOCTYPE svg PUBLIC "-//W3C//DTD SVG 1.1//EN"
 "http://www.w3.org/Graphics/SVG/1.1/DTD/svg11.dtd">
<!-- Generated by graphviz version 2.43.0 (0)
 -->
<!-- Title: vec.hpp Pages: 1 -->
<svg width="313pt" height="308pt"
 viewBox="0.00 0.00 312.50 308.00" xmlns="http://www.w3.org/2000/svg" xmlns:xlink="http://www.w3.org/1999/xlink">
<g id="graph0" class="graph" transform="scale(1 1) rotate(0) translate(4 304)">
<title>vec.hpp</title>
<polygon fill="white" stroke="transparent" points="-4,4 -4,-304 308.5,-304 308.5,4 -4,4"/>
<!-- Node1 -->
<g id="node1" class="node">
<title>Node1</title>
<g id="a_node1"><a xlink:title=" ">
<polygon fill="#bfbfbf" stroke="black" points="83,-280.5 83,-299.5 138,-299.5 138,-280.5 83,-280.5"/>
<text text-anchor="middle" x="110.5" y="-287.5" font-family="Helvetica,sans-Serif" font-size="10.00">vec.hpp</text>
</a>
</g>
</g>
<!-- Node2 -->
<g id="node2" class="node">
<title>Node2</title>
<g id="a_node2"><a xlink:href="alloc_8hpp.html" target="_top" xlink:title=" ">
<polygon fill="white" stroke="black" points="0,-224.5 0,-243.5 61,-243.5 61,-224.5 0,-224.5"/>
<text text-anchor="middle" x="30.5" y="-231.5" font-family="Helvetica,sans-Serif" font-size="10.00">alloc.hpp</text>
</a>
</g>
</g>
<!-- Node1&#45;&gt;Node2 -->
<g id="edge1" class="edge">
<title>Node1&#45;&gt;Node2</title>
<path fill="none" stroke="midnightblue" d="M89.2,-274.62C74.58,-264.76 55.67,-251.99 43.32,-243.65"/>
<polygon fill="midnightblue" stroke="midnightblue" points="87.4,-277.63 97.65,-280.32 91.32,-271.83 87.4,-277.63"/>
</g>
<!-- Node3 -->
<g id="node3" class="node">
<title>Node3</title>
<g id="a_node3"><a xlink:href="decl_2lbfgs_8hpp.html" target="_top" xlink:title=" ">
<polygon fill="white" stroke="black" points="79.5,-224.5 79.5,-243.5 141.5,-243.5 141.5,-224.5 79.5,-224.5"/>
<text text-anchor="middle" x="110.5" y="-231.5" font-family="Helvetica,sans-Serif" font-size="10.00">lbfgs.hpp</text>
</a>
</g>
</g>
<!-- Node1&#45;&gt;Node3 -->
<g id="edge2" class="edge">
<title>Node1&#45;&gt;Node3</title>
<path fill="none" stroke="midnightblue" d="M110.5,-269.8C110.5,-260.91 110.5,-250.78 110.5,-243.75"/>
<polygon fill="midnightblue" stroke="midnightblue" points="107,-270.08 110.5,-280.08 114,-270.08 107,-270.08"/>
</g>
<!-- Node8 -->
<g id="node8" class="node">
<title>Node8</title>
<g id="a_node8"><a xlink:href="limited-memory-qr_8hpp.html" target="_top" xlink:title=" ">
<polygon fill="white" stroke="black" points="163.5,-224.5 163.5,-243.5 293.5,-243.5 293.5,-224.5 163.5,-224.5"/>
<text text-anchor="middle" x="228.5" y="-231.5" font-family="Helvetica,sans-Serif" font-size="10.00">limited&#45;memory&#45;qr.hpp</text>
</a>
</g>
</g>
<!-- Node1&#45;&gt;Node8 -->
<g id="edge7" class="edge">
<title>Node1&#45;&gt;Node8</title>
<path fill="none" stroke="midnightblue" d="M138.4,-276.23C160.47,-266.13 190.68,-252.31 209.89,-243.52"/>
<polygon fill="midnightblue" stroke="midnightblue" points="136.83,-273.1 129.2,-280.44 139.75,-279.46 136.83,-273.1"/>
</g>
<!-- Node4 -->
<g id="node4" class="node">
<title>Node4</title>
<g id="a_node4"><a xlink:href="lbfgs_8hpp.html" target="_top" xlink:title=" ">
<polygon fill="white" stroke="black" points="78.5,-168.5 78.5,-187.5 140.5,-187.5 140.5,-168.5 78.5,-168.5"/>
<text text-anchor="middle" x="109.5" y="-175.5" font-family="Helvetica,sans-Serif" font-size="10.00">lbfgs.hpp</text>
</a>
</g>
</g>
<!-- Node3&#45;&gt;Node4 -->
<g id="edge3" class="edge">
<title>Node3&#45;&gt;Node4</title>
<path fill="none" stroke="midnightblue" d="M110.14,-213.8C109.98,-204.91 109.79,-194.78 109.66,-187.75"/>
<polygon fill="midnightblue" stroke="midnightblue" points="106.65,-214.15 110.33,-224.08 113.65,-214.02 106.65,-214.15"/>
</g>
<!-- Node5 -->
<g id="node5" class="node">
<title>Node5</title>
<g id="a_node5"><a xlink:href="kwargs-to-struct_8hpp.html" target="_top" xlink:title="This file defines mappings from Python dicts (kwargs) to simple parameter structs.">
<polygon fill="white" stroke="black" points="81.5,-56.5 81.5,-75.5 199.5,-75.5 199.5,-56.5 81.5,-56.5"/>
<text text-anchor="middle" x="140.5" y="-63.5" font-family="Helvetica,sans-Serif" font-size="10.00">kwargs&#45;to&#45;struct.hpp</text>
</a>
</g>
</g>
<!-- Node4&#45;&gt;Node5 -->
<g id="edge4" class="edge">
<title>Node4&#45;&gt;Node5</title>
<path fill="none" stroke="midnightblue" d="M89.73,-161.8C75.34,-148.79 59.91,-129.44 69.5,-112 79.21,-94.35 99.08,-82.66 115.34,-75.62"/>
<polygon fill="midnightblue" stroke="midnightblue" points="87.56,-164.55 97.46,-168.33 92.08,-159.2 87.56,-164.55"/>
</g>
<!-- Node7 -->
<g id="node7" class="node">
<title>Node7</title>
<g id="a_node7"><a xlink:href="lbfgs_8cpp.html" target="_top" xlink:title=" ">
<polygon fill="white" stroke="black" points="79,-112.5 79,-131.5 140,-131.5 140,-112.5 79,-112.5"/>
<text text-anchor="middle" x="109.5" y="-119.5" font-family="Helvetica,sans-Serif" font-size="10.00">lbfgs.cpp</text>
</a>
</g>
</g>
<!-- Node4&#45;&gt;Node7 -->
<g id="edge6" class="edge">
<title>Node4&#45;&gt;Node7</title>
<path fill="none" stroke="midnightblue" d="M109.5,-157.8C109.5,-148.91 109.5,-138.78 109.5,-131.75"/>
<polygon fill="midnightblue" stroke="midnightblue" points="106,-158.08 109.5,-168.08 113,-158.08 106,-158.08"/>
</g>
<!-- Node6 -->
<g id="node6" class="node">
<title>Node6</title>
<g id="a_node6"><a xlink:href="quala_8cpp.html" target="_top" xlink:title="This file defines all Python bindings.">
<polygon fill="white" stroke="black" points="108.5,-0.5 108.5,-19.5 172.5,-19.5 172.5,-0.5 108.5,-0.5"/>
<text text-anchor="middle" x="140.5" y="-7.5" font-family="Helvetica,sans-Serif" font-size="10.00">quala.cpp</text>
</a>
</g>
</g>
<!-- Node5&#45;&gt;Node6 -->
<g id="edge5" class="edge">
<title>Node5&#45;&gt;Node6</title>
<path fill="none" stroke="midnightblue" d="M140.5,-45.8C140.5,-36.91 140.5,-26.78 140.5,-19.75"/>
<polygon fill="midnightblue" stroke="midnightblue" points="137,-46.08 140.5,-56.08 144,-46.08 137,-46.08"/>
</g>
<!-- Node9 -->
<g id="node9" class="node">
<title>Node9</title>
<g id="a_node9"><a xlink:href="anderson-helpers_8hpp.html" target="_top" xlink:title=" ">
<polygon fill="white" stroke="black" points="169.5,-168.5 169.5,-187.5 291.5,-187.5 291.5,-168.5 169.5,-168.5"/>
<text text-anchor="middle" x="230.5" y="-175.5" font-family="Helvetica,sans-Serif" font-size="10.00">anderson&#45;helpers.hpp</text>
</a>
</g>
</g>
<!-- Node8&#45;&gt;Node9 -->
<g id="edge8" class="edge">
<title>Node8&#45;&gt;Node9</title>
<path fill="none" stroke="midnightblue" d="M229.21,-213.8C229.54,-204.91 229.92,-194.78 230.18,-187.75"/>
<polygon fill="midnightblue" stroke="midnightblue" points="225.7,-213.96 228.83,-224.08 232.7,-214.22 225.7,-213.96"/>
</g>
<!-- Node10 -->
<g id="node10" class="node">
<title>Node10</title>
<g id="a_node10"><a xlink:href="anderson-acceleration_8hpp.html" target="_top" xlink:title=" ">
<polygon fill="white" stroke="black" points="158.5,-112.5 158.5,-131.5 304.5,-131.5 304.5,-112.5 158.5,-112.5"/>
<text text-anchor="middle" x="231.5" y="-119.5" font-family="Helvetica,sans-Serif" font-size="10.00">anderson&#45;acceleration.hpp</text>
</a>
</g>
</g>
<!-- Node9&#45;&gt;Node10 -->
<g id="edge9" class="edge">
<title>Node9&#45;&gt;Node10</title>
<path fill="none" stroke="midnightblue" d="M230.86,-157.8C231.02,-148.91 231.21,-138.78 231.34,-131.75"/>
<polygon fill="midnightblue" stroke="midnightblue" points="227.35,-158.02 230.67,-168.08 234.35,-158.15 227.35,-158.02"/>
</g>
<!-- Node10&#45;&gt;Node5 -->
<g id="edge10" class="edge">
<title>Node10&#45;&gt;Node5</title>
<path fill="none" stroke="midnightblue" d="M208.21,-107.18C191.46,-97.24 169.4,-84.15 155.08,-75.65"/>
<polygon fill="midnightblue" stroke="midnightblue" points="206.49,-110.23 216.88,-112.32 210.07,-104.21 206.49,-110.23"/>
</g>
</g>
</svg>
