<?xml version="1.0" encoding="UTF-8" standalone="no"?>
<!DOCTYPE svg PUBLIC "-//W3C//DTD SVG 1.1//EN"
 "http://www.w3.org/Graphics/SVG/1.1/DTD/svg11.dtd">
<!-- Generated by graphviz version 2.43.0 (0)
 -->
<!-- Title: ρ Pages: 1 -->
<svg width="375pt" height="179pt"
 viewBox="0.00 0.00 375.00 179.00" xmlns="http://www.w3.org/2000/svg" xmlns:xlink="http://www.w3.org/1999/xlink">
<g id="graph0" class="graph" transform="scale(1 1) rotate(0) translate(4 175)">
<title>ρ</title>
<!-- Node1 -->
<g id="node1" class="node">
<title>Node1</title>
<g id="a_node1"><a xlink:title=" ">
<polygon fill="#999999" stroke="#666666" points="367,-114 338,-114 338,-95 367,-95 367,-114"/>
<text text-anchor="middle" x="352.5" y="-102" font-family="Helvetica,sans-Serif" font-size="10.00">ρ</text>
</a>
</g>
</g>
<!-- Node2 -->
<g id="node2" class="node">
<title>Node2</title>
<g id="a_node2"><a xlink:href="classquala_1_1LBFGS.html#a9ae2b583badddda6ec2917bb565688c3" target="_top" xlink:title="Apply the inverse Hessian approximation to the given vector q.">
<polygon fill="white" stroke="#666666" points="196,-171 152,-171 152,-152 196,-152 196,-171"/>
<text text-anchor="middle" x="174" y="-159" font-family="Helvetica,sans-Serif" font-size="10.00">apply</text>
</a>
</g>
</g>
<!-- Node1&#45;&gt;Node2 -->
<g id="edge1" class="edge">
<title>Node1&#45;&gt;Node2</title>
<path fill="none" stroke="#63b8ff" d="M332.06,-120.1C323.33,-126.39 312.61,-133.17 302,-137.5 266.68,-151.91 222.27,-157.77 196.41,-160.07"/>
<polygon fill="#63b8ff" stroke="#63b8ff" points="334.18,-122.89 340.06,-114.08 329.97,-117.3 334.18,-122.89"/>
</g>
<!-- Node3 -->
<g id="node3" class="node">
<title>Node3</title>
<g id="a_node3"><a xlink:href="quala_8py_8cpp.html#a12fb4e87da488d1fc7c6fa3e6a3adb90" target="_top" xlink:title=" ">
<polygon fill="white" stroke="#666666" points="113,-95 0,-95 0,-76 113,-76 113,-95"/>
<text text-anchor="middle" x="56.5" y="-83" font-family="Helvetica,sans-Serif" font-size="10.00">PYBIND11_MODULE</text>
</a>
</g>
</g>
<!-- Node1&#45;&gt;Node3 -->
<g id="edge3" class="edge">
<title>Node1&#45;&gt;Node3</title>
<path fill="none" stroke="#63b8ff" d="M327.63,-105.15C289.69,-105.9 213.3,-106.27 149,-99.5 137.33,-98.27 124.88,-96.6 113.04,-94.85"/>
<polygon fill="#63b8ff" stroke="#63b8ff" points="327.78,-108.64 337.7,-104.92 327.62,-101.65 327.78,-108.64"/>
</g>
<!-- Node4 -->
<g id="node4" class="node">
<title>Node4</title>
<g id="a_node4"><a xlink:href="classquala_1_1LBFGS.html#adeddc1e1eb8ce1c1bbaf931b6f9a5b9c" target="_top" xlink:title="Scale the stored y vectors by the given factor.">
<polygon fill="white" stroke="#666666" points="295,-95 242,-95 242,-76 295,-76 295,-95"/>
<text text-anchor="middle" x="268.5" y="-83" font-family="Helvetica,sans-Serif" font-size="10.00">scale_y</text>
</a>
</g>
</g>
<!-- Node1&#45;&gt;Node4 -->
<g id="edge4" class="edge">
<title>Node1&#45;&gt;Node4</title>
<path fill="none" stroke="#63b8ff" d="M328.09,-99.08C317.86,-96.7 305.82,-93.92 295.33,-91.48"/>
<polygon fill="#63b8ff" stroke="#63b8ff" points="327.43,-102.51 337.96,-101.36 329.01,-95.7 327.43,-102.51"/>
</g>
<!-- Node5 -->
<g id="node5" class="node">
<title>Node5</title>
<g id="a_node5"><a xlink:href="classquala_1_1LBFGS.html#af150290995e6bee28f5a0f057ed511c8" target="_top" xlink:title="Update the inverse Hessian approximation using the new vectors sₖ = xₖ₊₁ &#45; xₖ and yₖ = pₖ₊₁ &#45; pₖ.">
<polygon fill="white" stroke="#666666" points="302,-57 235,-57 235,-38 302,-38 302,-57"/>
<text text-anchor="middle" x="268.5" y="-45" font-family="Helvetica,sans-Serif" font-size="10.00">update_sy</text>
</a>
</g>
</g>
<!-- Node1&#45;&gt;Node5 -->
<g id="edge6" class="edge">
<title>Node1&#45;&gt;Node5</title>
<path fill="none" stroke="#63b8ff" d="M330.97,-88.5C322.18,-81.83 311.72,-74.1 302,-67.5 296.85,-64 291.1,-60.37 285.88,-57.19"/>
<polygon fill="#63b8ff" stroke="#63b8ff" points="329.05,-91.44 339.11,-94.75 333.31,-85.89 329.05,-91.44"/>
</g>
<!-- Node2&#45;&gt;Node3 -->
<g id="edge2" class="edge">
<title>Node2&#45;&gt;Node3</title>
<path fill="none" stroke="#63b8ff" d="M149.81,-146.24C126.58,-130.96 91.56,-107.91 72.01,-95.05"/>
<polygon fill="#63b8ff" stroke="#63b8ff" points="148.09,-149.3 158.37,-151.87 151.94,-143.45 148.09,-149.3"/>
</g>
<!-- Node4&#45;&gt;Node3 -->
<g id="edge5" class="edge">
<title>Node4&#45;&gt;Node3</title>
<path fill="none" stroke="#63b8ff" d="M231.36,-85.5C198.81,-85.5 150.48,-85.5 113.04,-85.5"/>
<polygon fill="#63b8ff" stroke="#63b8ff" points="231.75,-89 241.75,-85.5 231.75,-82 231.75,-89"/>
</g>
<!-- Node5&#45;&gt;Node3 -->
<g id="edge7" class="edge">
<title>Node5&#45;&gt;Node3</title>
<path fill="none" stroke="#63b8ff" d="M224.84,-55.22C191.68,-61.22 145.53,-69.57 110.09,-75.98"/>
<polygon fill="#63b8ff" stroke="#63b8ff" points="225.47,-58.66 234.69,-53.44 224.22,-51.77 225.47,-58.66"/>
</g>
<!-- Node6 -->
<g id="node6" class="node">
<title>Node6</title>
<g id="a_node6"><a xlink:href="classquala_1_1LBFGS.html#ae34a8e5e432c990eb8af2f95bcbc04bd" target="_top" xlink:title="Update the inverse Hessian approximation using the new vectors xₖ₊₁ and pₖ₊₁.">
<polygon fill="white" stroke="#666666" points="199,-19 149,-19 149,0 199,0 199,-19"/>
<text text-anchor="middle" x="174" y="-7" font-family="Helvetica,sans-Serif" font-size="10.00">update</text>
</a>
</g>
</g>
<!-- Node5&#45;&gt;Node6 -->
<g id="edge8" class="edge">
<title>Node5&#45;&gt;Node6</title>
<path fill="none" stroke="#63b8ff" d="M234.85,-34.09C222.8,-29.14 209.4,-23.63 198.33,-19.09"/>
<polygon fill="#63b8ff" stroke="#63b8ff" points="233.58,-37.35 244.16,-37.91 236.24,-30.87 233.58,-37.35"/>
</g>
<!-- Node6&#45;&gt;Node3 -->
<g id="edge9" class="edge">
<title>Node6&#45;&gt;Node3</title>
<path fill="none" stroke="#63b8ff" d="M149.81,-24.76C126.58,-40.04 91.56,-63.09 72.01,-75.95"/>
<polygon fill="#63b8ff" stroke="#63b8ff" points="151.94,-27.55 158.37,-19.13 148.09,-21.7 151.94,-27.55"/>
</g>
</g>
</svg>
