<?xml version="1.0" encoding="UTF-8" standalone="no"?>
<!DOCTYPE svg PUBLIC "-//W3C//DTD SVG 1.1//EN"
 "http://www.w3.org/Graphics/SVG/1.1/DTD/svg11.dtd">
<!-- Generated by graphviz version 2.43.0 (0)
 -->
<!-- Title: remove_column Pages: 1 -->
<svg width="431pt" height="38pt"
 viewBox="0.00 0.00 431.00 38.00" xmlns="http://www.w3.org/2000/svg" xmlns:xlink="http://www.w3.org/1999/xlink">
<g id="graph0" class="graph" transform="scale(1 1) rotate(0) translate(4 34)">
<title>remove_column</title>
<!-- Node1 -->
<g id="node1" class="node">
<title>Node1</title>
<g id="a_node1"><a xlink:title="Remove the leftmost column.">
<polygon fill="#999999" stroke="#666666" points="423,-24.5 328,-24.5 328,-5.5 423,-5.5 423,-24.5"/>
<text text-anchor="middle" x="375.5" y="-12.5" font-family="Helvetica,sans-Serif" font-size="10.00">remove_column</text>
</a>
</g>
</g>
<!-- Node2 -->
<g id="node2" class="node">
<title>Node2</title>
<g id="a_node2"><a xlink:href="namespacequala.html#a1531e5151ab5526f7085a9e95d00bda5" target="_top" xlink:title="Solve one step of Anderson acceleration to find a fixed point of a function g(x):">
<polygon fill="white" stroke="#666666" points="292,-30 158,-30 158,0 292,0 292,-30"/>
<text text-anchor="start" x="166" y="-18" font-family="Helvetica,sans-Serif" font-size="10.00">quala::minimize_update</text>
<text text-anchor="middle" x="225" y="-7" font-family="Helvetica,sans-Serif" font-size="10.00">_anderson</text>
</a>
</g>
</g>
<!-- Node1&#45;&gt;Node2 -->
<g id="edge1" class="edge">
<title>Node1&#45;&gt;Node2</title>
<path fill="none" stroke="#63b8ff" d="M317.89,-15C309.51,-15 300.82,-15 292.27,-15"/>
<polygon fill="#63b8ff" stroke="#63b8ff" points="317.92,-18.5 327.92,-15 317.92,-11.5 317.92,-18.5"/>
</g>
<!-- Node3 -->
<g id="node3" class="node">
<title>Node3</title>
<g id="a_node3"><a xlink:href="classquala_1_1AndersonAccel.html#a7cbecaa52700158ebe36c0d587791ed4" target="_top" xlink:title="Compute the accelerated iterate , given the function value at the current iterate &#160;and the correspond...">
<polygon fill="white" stroke="#666666" points="122,-30 0,-30 0,0 122,0 122,-30"/>
<text text-anchor="start" x="8" y="-18" font-family="Helvetica,sans-Serif" font-size="10.00">quala::AndersonAccel</text>
<text text-anchor="middle" x="61" y="-7" font-family="Helvetica,sans-Serif" font-size="10.00">::compute</text>
</a>
</g>
</g>
<!-- Node2&#45;&gt;Node3 -->
<g id="edge2" class="edge">
<title>Node2&#45;&gt;Node3</title>
<path fill="none" stroke="#63b8ff" d="M147.61,-15C139.02,-15 130.36,-15 122.01,-15"/>
<polygon fill="#63b8ff" stroke="#63b8ff" points="147.64,-18.5 157.64,-15 147.64,-11.5 147.64,-18.5"/>
</g>
</g>
</svg>
