<?xml version="1.0" encoding="UTF-8" standalone="no"?>
<!DOCTYPE svg PUBLIC "-//W3C//DTD SVG 1.1//EN"
 "http://www.w3.org/Graphics/SVG/1.1/DTD/svg11.dtd">
<!-- Generated by graphviz version 2.43.0 (0)
 -->
<!-- Title: apply Pages: 1 -->
<svg width="669pt" height="236pt"
 viewBox="0.00 0.00 669.00 235.83" xmlns="http://www.w3.org/2000/svg" xmlns:xlink="http://www.w3.org/1999/xlink">
<g id="graph0" class="graph" transform="scale(1 1) rotate(0) translate(4 231.83)">
<title>apply</title>
<!-- Node1 -->
<g id="node1" class="node">
<title>Node1</title>
<g id="a_node1"><a xlink:title="Apply the inverse Hessian approximation to the given vector q, applying only the columns and rows of ...">
<polygon fill="#999999" stroke="#666666" points="44,-130 0,-130 0,-111 44,-111 44,-130"/>
<text text-anchor="middle" x="22" y="-118" font-family="Helvetica,sans-Serif" font-size="10.00">apply</text>
</a>
</g>
</g>
<!-- Node2 -->
<g id="node2" class="node">
<title>Node2</title>
<g id="a_node2"><a xlink:href="classquala_1_1LBFGS.html#ac7c2ee7d2562303f555dd1f4c3fca8cd" target="_top" xlink:title=" ">
<polygon fill="white" stroke="#666666" points="276,-204 247,-204 247,-185 276,-185 276,-204"/>
<text text-anchor="middle" x="261.5" y="-192" font-family="Helvetica,sans-Serif" font-size="10.00">α</text>
</a>
</g>
</g>
<!-- Node1&#45;&gt;Node2 -->
<g id="edge1" class="edge">
<title>Node1&#45;&gt;Node2</title>
<path fill="none" stroke="#63b8ff" d="M25.5,-130.14C31.24,-150.03 47.45,-195.27 80,-213.5 130.3,-241.66 200.88,-219.87 237.08,-205.14"/>
<polygon fill="#63b8ff" stroke="#63b8ff" points="238.9,-208.17 246.74,-201.04 236.17,-201.73 238.9,-208.17"/>
</g>
<!-- Node5 -->
<g id="node5" class="node">
<title>Node5</title>
<g id="a_node5"><a xlink:href="classquala_1_1LBFGS.html#acade3dc51f7ca788be9b91908b2e73ab" target="_top" xlink:title=" ">
<polygon fill="white" stroke="#666666" points="134.5,-167 105.5,-167 105.5,-148 134.5,-148 134.5,-167"/>
<text text-anchor="middle" x="120" y="-155" font-family="Helvetica,sans-Serif" font-size="10.00">ρ</text>
</a>
</g>
</g>
<!-- Node1&#45;&gt;Node5 -->
<g id="edge4" class="edge">
<title>Node1&#45;&gt;Node5</title>
<path fill="none" stroke="#63b8ff" d="M44.31,-128.71C59.62,-134.61 80.25,-142.57 95.95,-148.62"/>
<polygon fill="#63b8ff" stroke="#63b8ff" points="94.86,-151.95 105.45,-152.28 97.38,-145.42 94.86,-151.95"/>
</g>
<!-- Node7 -->
<g id="node7" class="node">
<title>Node7</title>
<g id="a_node7"><a xlink:href="classquala_1_1LBFGS.html#aa871b5290773b86e2e4919bbac258a04" target="_top" xlink:title="Iterate over the indices in the history buffer, oldest first.">
<polygon fill="white" stroke="#666666" points="158,-130 82,-130 82,-111 158,-111 158,-130"/>
<text text-anchor="middle" x="120" y="-118" font-family="Helvetica,sans-Serif" font-size="10.00">foreach_fwd</text>
</a>
</g>
</g>
<!-- Node1&#45;&gt;Node7 -->
<g id="edge7" class="edge">
<title>Node1&#45;&gt;Node7</title>
<path fill="none" stroke="#63b8ff" d="M44.31,-120.5C52.42,-120.5 62.02,-120.5 71.6,-120.5"/>
<polygon fill="#63b8ff" stroke="#63b8ff" points="71.9,-124 81.9,-120.5 71.9,-117 71.9,-124"/>
</g>
<!-- Node10 -->
<g id="node10" class="node">
<title>Node10</title>
<g id="a_node10"><a xlink:href="classquala_1_1LBFGS.html#a0804b751cf2035a35f24762474f62cbf" target="_top" xlink:title="Iterate over the indices in the history buffer, newest first.">
<polygon fill="white" stroke="#666666" points="157,-93 83,-93 83,-74 157,-74 157,-93"/>
<text text-anchor="middle" x="120" y="-81" font-family="Helvetica,sans-Serif" font-size="10.00">foreach_rev</text>
</a>
</g>
</g>
<!-- Node1&#45;&gt;Node10 -->
<g id="edge10" class="edge">
<title>Node1&#45;&gt;Node10</title>
<path fill="none" stroke="#63b8ff" d="M44.31,-112.29C56.13,-107.73 71.12,-101.95 84.57,-96.77"/>
<polygon fill="#63b8ff" stroke="#63b8ff" points="85.94,-99.99 94.02,-93.13 83.43,-93.46 85.94,-99.99"/>
</g>
<!-- Node11 -->
<g id="node11" class="node">
<title>Node11</title>
<g id="a_node11"><a xlink:href="classquala_1_1LBFGS.html#a15e4a3db39457cabe764a7737d24e73f" target="_top" xlink:title=" ">
<polygon fill="white" stroke="#666666" points="134.5,-56 105.5,-56 105.5,-37 134.5,-37 134.5,-56"/>
<text text-anchor="middle" x="120" y="-44" font-family="Helvetica,sans-Serif" font-size="10.00">s</text>
</a>
</g>
</g>
<!-- Node1&#45;&gt;Node11 -->
<g id="edge12" class="edge">
<title>Node1&#45;&gt;Node11</title>
<path fill="none" stroke="#63b8ff" d="M31.04,-110.75C41.39,-98.68 60.37,-78.06 80,-64.5 84.91,-61.11 90.56,-58.08 96.01,-55.52"/>
<polygon fill="#63b8ff" stroke="#63b8ff" points="97.62,-58.63 105.39,-51.43 94.82,-52.21 97.62,-58.63"/>
</g>
<!-- Node13 -->
<g id="node13" class="node">
<title>Node13</title>
<g id="a_node13"><a xlink:href="classquala_1_1LBFGS.html#a1109c880f1969f61532c94c19122e927" target="_top" xlink:title="Check if the new vectors s and y allow for a valid BFGS update that preserves the positive definitene...">
<polygon fill="white" stroke="#666666" points="160,-204 80,-204 80,-185 160,-185 160,-204"/>
<text text-anchor="middle" x="120" y="-192" font-family="Helvetica,sans-Serif" font-size="10.00">update_valid</text>
</a>
</g>
</g>
<!-- Node1&#45;&gt;Node13 -->
<g id="edge15" class="edge">
<title>Node1&#45;&gt;Node13</title>
<path fill="none" stroke="#63b8ff" d="M31.04,-130.25C41.39,-142.32 60.37,-162.94 80,-176.5 81.84,-177.77 83.79,-179 85.8,-180.16"/>
<polygon fill="#63b8ff" stroke="#63b8ff" points="84.3,-183.33 94.78,-184.9 87.56,-177.14 84.3,-183.33"/>
</g>
<!-- Node14 -->
<g id="node14" class="node">
<title>Node14</title>
<g id="a_node14"><a xlink:href="classquala_1_1LBFGS.html#aebac2ec4461761a48a7284152a8217f8" target="_top" xlink:title=" ">
<polygon fill="white" stroke="#666666" points="134.5,-19 105.5,-19 105.5,0 134.5,0 134.5,-19"/>
<text text-anchor="middle" x="120" y="-7" font-family="Helvetica,sans-Serif" font-size="10.00">y</text>
</a>
</g>
</g>
<!-- Node1&#45;&gt;Node14 -->
<g id="edge17" class="edge">
<title>Node1&#45;&gt;Node14</title>
<path fill="none" stroke="#63b8ff" d="M26.69,-110.79C34.16,-92.31 52.68,-51.78 80,-27.5 84.53,-23.47 90.11,-20.19 95.62,-17.58"/>
<polygon fill="#63b8ff" stroke="#63b8ff" points="97.32,-20.67 105.22,-13.61 94.64,-14.2 97.32,-20.67"/>
</g>
<!-- Node3 -->
<g id="node3" class="node">
<title>Node3</title>
<g id="a_node3"><a xlink:href="structquala_1_1LBFGSStorage.html#ac7c2ee7d2562303f555dd1f4c3fca8cd" target="_top" xlink:title=" ">
<polygon fill="white" stroke="#666666" points="494,-203 363,-203 363,-184 494,-184 494,-203"/>
<text text-anchor="middle" x="428.5" y="-191" font-family="Helvetica,sans-Serif" font-size="10.00">quala::LBFGSStorage::α</text>
</a>
</g>
</g>
<!-- Node2&#45;&gt;Node3 -->
<g id="edge2" class="edge">
<title>Node2&#45;&gt;Node3</title>
<path fill="none" stroke="#63b8ff" d="M276,-194.42C292.94,-194.32 323.3,-194.13 352.42,-193.96"/>
<polygon fill="#63b8ff" stroke="#63b8ff" points="352.67,-197.45 362.65,-193.89 352.63,-190.45 352.67,-197.45"/>
</g>
<!-- Node4 -->
<g id="node4" class="node">
<title>Node4</title>
<g id="a_node4"><a xlink:href="structquala_1_1LBFGSStorage.html#a727afc7a58d2e44ae7add57e3fa77bc6" target="_top" xlink:title="Get the size of the s and y vectors in the buffer.">
<polygon fill="white" stroke="#666666" points="661,-118 530,-118 530,-99 661,-99 661,-118"/>
<text text-anchor="middle" x="595.5" y="-106" font-family="Helvetica,sans-Serif" font-size="10.00">quala::LBFGSStorage::n</text>
</a>
</g>
</g>
<!-- Node3&#45;&gt;Node4 -->
<g id="edge3" class="edge">
<title>Node3&#45;&gt;Node4</title>
<path fill="none" stroke="#63b8ff" d="M468.72,-183.96C477.23,-181.33 486.06,-178.18 494,-174.5 523.73,-160.73 554.78,-139.03 574.36,-124.31"/>
<polygon fill="#63b8ff" stroke="#63b8ff" points="576.68,-126.94 582.5,-118.09 572.43,-121.38 576.68,-126.94"/>
</g>
<!-- Node6 -->
<g id="node6" class="node">
<title>Node6</title>
<g id="a_node6"><a xlink:href="structquala_1_1LBFGSStorage.html#acade3dc51f7ca788be9b91908b2e73ab" target="_top" xlink:title=" ">
<polygon fill="white" stroke="#666666" points="494,-165 363,-165 363,-146 494,-146 494,-165"/>
<text text-anchor="middle" x="428.5" y="-153" font-family="Helvetica,sans-Serif" font-size="10.00">quala::LBFGSStorage::ρ</text>
</a>
</g>
</g>
<!-- Node5&#45;&gt;Node6 -->
<g id="edge5" class="edge">
<title>Node5&#45;&gt;Node6</title>
<path fill="none" stroke="#63b8ff" d="M134.57,-157.41C172.02,-157.17 278.97,-156.47 352.72,-155.99"/>
<polygon fill="#63b8ff" stroke="#63b8ff" points="352.92,-159.49 362.89,-155.92 352.87,-152.49 352.92,-159.49"/>
</g>
<!-- Node6&#45;&gt;Node4 -->
<g id="edge6" class="edge">
<title>Node6&#45;&gt;Node4</title>
<path fill="none" stroke="#63b8ff" d="M462.89,-145.99C488.3,-138.75 523.49,-128.73 551.08,-120.87"/>
<polygon fill="#63b8ff" stroke="#63b8ff" points="552.22,-124.18 560.88,-118.08 550.3,-117.45 552.22,-124.18"/>
</g>
<!-- Node8 -->
<g id="node8" class="node">
<title>Node8</title>
<g id="a_node8"><a xlink:href="classquala_1_1LBFGS.html#a9cf7dcccbc3bc69a10833450ee79c623" target="_top" xlink:title="Get the number of previous vectors s and y stored in the buffer.">
<polygon fill="white" stroke="#666666" points="286.5,-121 236.5,-121 236.5,-102 286.5,-102 286.5,-121"/>
<text text-anchor="middle" x="261.5" y="-109" font-family="Helvetica,sans-Serif" font-size="10.00">history</text>
</a>
</g>
</g>
<!-- Node7&#45;&gt;Node8 -->
<g id="edge8" class="edge">
<title>Node7&#45;&gt;Node8</title>
<path fill="none" stroke="#63b8ff" d="M158.02,-118.11C179.19,-116.75 205.56,-115.04 226.25,-113.71"/>
<polygon fill="#63b8ff" stroke="#63b8ff" points="226.74,-117.19 236.5,-113.05 226.29,-110.2 226.74,-117.19"/>
</g>
<!-- Node9 -->
<g id="node9" class="node">
<title>Node9</title>
<g id="a_node9"><a xlink:href="structquala_1_1LBFGSStorage.html#a9cf7dcccbc3bc69a10833450ee79c623" target="_top" xlink:title="Get the number of previous vectors s and y stored in the buffer.">
<polygon fill="white" stroke="#666666" points="488,-126.5 369,-126.5 369,-96.5 488,-96.5 488,-126.5"/>
<text text-anchor="start" x="377" y="-114.5" font-family="Helvetica,sans-Serif" font-size="10.00">quala::LBFGSStorage</text>
<text text-anchor="middle" x="428.5" y="-103.5" font-family="Helvetica,sans-Serif" font-size="10.00">::history</text>
</a>
</g>
</g>
<!-- Node8&#45;&gt;Node9 -->
<g id="edge9" class="edge">
<title>Node8&#45;&gt;Node9</title>
<path fill="none" stroke="#63b8ff" d="M286.85,-111.5C305.84,-111.5 333.2,-111.5 358.75,-111.5"/>
<polygon fill="#63b8ff" stroke="#63b8ff" points="358.8,-115 368.8,-111.5 358.8,-108 358.8,-115"/>
</g>
<!-- Node10&#45;&gt;Node8 -->
<g id="edge11" class="edge">
<title>Node10&#45;&gt;Node8</title>
<path fill="none" stroke="#63b8ff" d="M157.29,-90.78C178.56,-95.05 205.27,-100.41 226.19,-104.61"/>
<polygon fill="#63b8ff" stroke="#63b8ff" points="225.75,-108.09 236.24,-106.63 227.13,-101.23 225.75,-108.09"/>
</g>
<!-- Node12 -->
<g id="node12" class="node">
<title>Node12</title>
<g id="a_node12"><a xlink:href="structquala_1_1LBFGSStorage.html#a15e4a3db39457cabe764a7737d24e73f" target="_top" xlink:title=" ">
<polygon fill="white" stroke="#666666" points="493.5,-75 363.5,-75 363.5,-56 493.5,-56 493.5,-75"/>
<text text-anchor="middle" x="428.5" y="-63" font-family="Helvetica,sans-Serif" font-size="10.00">quala::LBFGSStorage::s</text>
</a>
</g>
</g>
<!-- Node11&#45;&gt;Node12 -->
<g id="edge13" class="edge">
<title>Node11&#45;&gt;Node12</title>
<path fill="none" stroke="#63b8ff" d="M134.57,-47.34C172.08,-49.67 279.29,-56.31 353.04,-60.88"/>
<polygon fill="#63b8ff" stroke="#63b8ff" points="353.02,-64.39 363.22,-61.52 353.46,-57.4 353.02,-64.39"/>
</g>
<!-- Node12&#45;&gt;Node4 -->
<g id="edge14" class="edge">
<title>Node12&#45;&gt;Node4</title>
<path fill="none" stroke="#63b8ff" d="M466.12,-75.04C490.26,-81.33 522.08,-89.63 548,-96.38"/>
<polygon fill="#63b8ff" stroke="#63b8ff" points="547.42,-99.85 557.98,-98.98 549.19,-93.07 547.42,-99.85"/>
</g>
<!-- Node13&#45;&gt;Node2 -->
<g id="edge16" class="edge">
<title>Node13&#45;&gt;Node2</title>
<path fill="none" stroke="#63b8ff" d="M160.23,-194.5C184.82,-194.5 215.72,-194.5 236.67,-194.5"/>
<polygon fill="#63b8ff" stroke="#63b8ff" points="236.91,-198 246.91,-194.5 236.91,-191 236.91,-198"/>
</g>
<!-- Node15 -->
<g id="node15" class="node">
<title>Node15</title>
<g id="a_node15"><a xlink:href="structquala_1_1LBFGSStorage.html#aebac2ec4461761a48a7284152a8217f8" target="_top" xlink:title=" ">
<polygon fill="white" stroke="#666666" points="327,-20 196,-20 196,-1 327,-1 327,-20"/>
<text text-anchor="middle" x="261.5" y="-8" font-family="Helvetica,sans-Serif" font-size="10.00">quala::LBFGSStorage::y</text>
</a>
</g>
</g>
<!-- Node14&#45;&gt;Node15 -->
<g id="edge18" class="edge">
<title>Node14&#45;&gt;Node15</title>
<path fill="none" stroke="#63b8ff" d="M134.63,-9.6C146.89,-9.69 165.94,-9.82 185.54,-9.96"/>
<polygon fill="#63b8ff" stroke="#63b8ff" points="185.79,-13.46 195.81,-10.04 185.84,-6.46 185.79,-13.46"/>
</g>
<!-- Node15&#45;&gt;Node4 -->
<g id="edge19" class="edge">
<title>Node15&#45;&gt;Node4</title>
<path fill="none" stroke="#63b8ff" d="M327.1,-13.66C374.51,-17.62 439.81,-26.5 494,-46.5 524.19,-57.64 555.14,-78.43 574.57,-92.84"/>
<polygon fill="#63b8ff" stroke="#63b8ff" points="572.56,-95.71 582.64,-98.96 576.78,-90.13 572.56,-95.71"/>
</g>
</g>
</svg>
