<?xml version="1.0" encoding="UTF-8" standalone="no"?>
<!DOCTYPE svg PUBLIC "-//W3C//DTD SVG 1.1//EN"
 "http://www.w3.org/Graphics/SVG/1.1/DTD/svg11.dtd">
<!-- Generated by graphviz version 2.43.0 (0)
 -->
<!-- Title: update Pages: 1 -->
<svg width="612pt" height="251pt"
 viewBox="0.00 0.00 612.00 250.50" xmlns="http://www.w3.org/2000/svg" xmlns:xlink="http://www.w3.org/1999/xlink">
<g id="graph0" class="graph" transform="scale(1 1) rotate(0) translate(4 246.5)">
<title>update</title>
<!-- Node1 -->
<g id="node1" class="node">
<title>Node1</title>
<g id="a_node1"><a xlink:title="Update the inverse Jacobian approximation using the new vectors xₖ₊₁ and pₖ₊₁.">
<polygon fill="#999999" stroke="#666666" points="50,-166.5 0,-166.5 0,-147.5 50,-147.5 50,-166.5"/>
<text text-anchor="middle" x="25" y="-154.5" font-family="Helvetica,sans-Serif" font-size="10.00">update</text>
</a>
</g>
</g>
<!-- Node2 -->
<g id="node2" class="node">
<title>Node2</title>
<g id="a_node2"><a xlink:href="classquala_1_1BroydenGood.html#a15e4a3db39457cabe764a7737d24e73f" target="_top" xlink:title=" ">
<polygon fill="white" stroke="#666666" points="241.5,-242.5 212.5,-242.5 212.5,-223.5 241.5,-223.5 241.5,-242.5"/>
<text text-anchor="middle" x="227" y="-230.5" font-family="Helvetica,sans-Serif" font-size="10.00">s</text>
</a>
</g>
</g>
<!-- Node1&#45;&gt;Node2 -->
<g id="edge1" class="edge">
<title>Node1&#45;&gt;Node2</title>
<path fill="none" stroke="#63b8ff" d="M50.12,-166.17C88.87,-180.89 164.48,-209.62 202.7,-224.15"/>
<polygon fill="#63b8ff" stroke="#63b8ff" points="201.83,-227.56 212.43,-227.84 204.32,-221.02 201.83,-227.56"/>
</g>
<!-- Node4 -->
<g id="node4" class="node">
<title>Node4</title>
<g id="a_node4"><a xlink:href="classquala_1_1BroydenGood.html#ad2320a49a7db3abb42d0c621a6a932bd" target="_top" xlink:title="Update the inverse Jacobian approximation using the new vectors sₖ = xₖ₊₁ &#45; xₖ and yₖ = pₖ₊₁ &#45; pₖ.">
<polygon fill="white" stroke="#666666" points="153,-147.5 86,-147.5 86,-128.5 153,-128.5 153,-147.5"/>
<text text-anchor="middle" x="119.5" y="-135.5" font-family="Helvetica,sans-Serif" font-size="10.00">update_sy</text>
</a>
</g>
</g>
<!-- Node1&#45;&gt;Node4 -->
<g id="edge3" class="edge">
<title>Node1&#45;&gt;Node4</title>
<path fill="none" stroke="#63b8ff" d="M50.3,-152.01C58.07,-150.41 66.92,-148.59 75.61,-146.81"/>
<polygon fill="#63b8ff" stroke="#63b8ff" points="76.57,-150.19 85.66,-144.74 75.16,-143.33 76.57,-150.19"/>
</g>
<!-- Node3 -->
<g id="node3" class="node">
<title>Node3</title>
<g id="a_node3"><a xlink:href="structquala_1_1BroydenStorage.html#a15e4a3db39457cabe764a7737d24e73f" target="_top" xlink:title=" ">
<polygon fill="white" stroke="#666666" points="440,-223.5 301,-223.5 301,-204.5 440,-204.5 440,-223.5"/>
<text text-anchor="middle" x="370.5" y="-211.5" font-family="Helvetica,sans-Serif" font-size="10.00">quala::BroydenStorage::s</text>
</a>
</g>
</g>
<!-- Node2&#45;&gt;Node3 -->
<g id="edge2" class="edge">
<title>Node2&#45;&gt;Node3</title>
<path fill="none" stroke="#63b8ff" d="M241.57,-231.18C253.47,-229.58 271.81,-227.12 290.93,-224.55"/>
<polygon fill="#63b8ff" stroke="#63b8ff" points="291.52,-228 300.96,-223.2 290.58,-221.07 291.52,-228"/>
</g>
<!-- Node4&#45;&gt;Node2 -->
<g id="edge11" class="edge">
<title>Node4&#45;&gt;Node2</title>
<path fill="none" stroke="#63b8ff" d="M128.74,-147.87C141.01,-162.26 165.21,-189.39 189,-209 193.58,-212.77 198.78,-216.46 203.8,-219.77"/>
<polygon fill="#63b8ff" stroke="#63b8ff" points="202.15,-222.87 212.48,-225.25 205.89,-216.95 202.15,-222.87"/>
</g>
<!-- Node4&#45;&gt;Node3 -->
<g id="edge10" class="edge">
<title>Node4&#45;&gt;Node3</title>
<path fill="none" stroke="#63b8ff" d="M134.85,-147.64C148.3,-156.26 169.25,-168.63 189,-176 221.35,-188.07 258.48,-196.71 290.61,-202.67"/>
<polygon fill="#63b8ff" stroke="#63b8ff" points="290.39,-206.19 300.86,-204.52 291.63,-199.3 290.39,-206.19"/>
</g>
<!-- Node5 -->
<g id="node5" class="node">
<title>Node5</title>
<g id="a_node5"><a xlink:href="classquala_1_1BroydenGood.html#aa871b5290773b86e2e4919bbac258a04" target="_top" xlink:title="Iterate over the indices in the history buffer, oldest first.">
<polygon fill="white" stroke="#666666" points="265,-166.5 189,-166.5 189,-147.5 265,-147.5 265,-166.5"/>
<text text-anchor="middle" x="227" y="-154.5" font-family="Helvetica,sans-Serif" font-size="10.00">foreach_fwd</text>
</a>
</g>
</g>
<!-- Node4&#45;&gt;Node5 -->
<g id="edge4" class="edge">
<title>Node4&#45;&gt;Node5</title>
<path fill="none" stroke="#63b8ff" d="M153.01,-143.86C161.2,-145.33 170.14,-146.94 178.88,-148.51"/>
<polygon fill="#63b8ff" stroke="#63b8ff" points="178.52,-152.01 188.98,-150.33 179.76,-145.12 178.52,-152.01"/>
</g>
<!-- Node8 -->
<g id="node8" class="node">
<title>Node8</title>
<g id="a_node8"><a xlink:href="structquala_1_1BroydenStorage.html#a9f073bfaf44b883546d7483e3d16b149" target="_top" xlink:title=" ">
<polygon fill="white" stroke="#666666" points="440,-75.5 301,-75.5 301,-56.5 440,-56.5 440,-75.5"/>
<text text-anchor="middle" x="370.5" y="-63.5" font-family="Helvetica,sans-Serif" font-size="10.00">quala::BroydenStorage::s̃</text>
</a>
</g>
</g>
<!-- Node4&#45;&gt;Node8 -->
<g id="edge7" class="edge">
<title>Node4&#45;&gt;Node8</title>
<path fill="none" stroke="#63b8ff" d="M135.7,-128.38C149.21,-120.23 169.75,-108.82 189,-102 221.48,-90.5 258.62,-82.3 290.74,-76.66"/>
<polygon fill="#63b8ff" stroke="#63b8ff" points="291.7,-80.05 300.97,-74.92 290.53,-73.14 291.7,-80.05"/>
</g>
<!-- Node9 -->
<g id="node9" class="node">
<title>Node9</title>
<g id="a_node9"><a xlink:href="classquala_1_1BroydenGood.html#a9f073bfaf44b883546d7483e3d16b149" target="_top" xlink:title=" ">
<polygon fill="white" stroke="#666666" points="241.5,-53.5 212.5,-53.5 212.5,-34.5 241.5,-34.5 241.5,-53.5"/>
<text text-anchor="middle" x="227" y="-41.5" font-family="Helvetica,sans-Serif" font-size="10.00">s̃</text>
</a>
</g>
</g>
<!-- Node4&#45;&gt;Node9 -->
<g id="edge8" class="edge">
<title>Node4&#45;&gt;Node9</title>
<path fill="none" stroke="#63b8ff" d="M128.76,-128.28C141.07,-114.12 165.31,-87.38 189,-68 193.59,-64.24 198.79,-60.56 203.82,-57.25"/>
<polygon fill="#63b8ff" stroke="#63b8ff" points="205.91,-60.07 212.49,-51.77 202.17,-54.15 205.91,-60.07"/>
</g>
<!-- Node10 -->
<g id="node10" class="node">
<title>Node10</title>
<g id="a_node10"><a xlink:href="classquala_1_1BroydenGood.html#a70926baed7362e4fcce66523bb8e2842" target="_top" xlink:title="Get the next index in the circular buffer of previous s and y vectors.">
<polygon fill="white" stroke="#666666" points="246,-129.5 208,-129.5 208,-110.5 246,-110.5 246,-129.5"/>
<text text-anchor="middle" x="227" y="-117.5" font-family="Helvetica,sans-Serif" font-size="10.00">succ</text>
</a>
</g>
</g>
<!-- Node4&#45;&gt;Node10 -->
<g id="edge12" class="edge">
<title>Node4&#45;&gt;Node10</title>
<path fill="none" stroke="#63b8ff" d="M153.01,-132.45C167.39,-130 184.13,-127.14 197.95,-124.79"/>
<polygon fill="#63b8ff" stroke="#63b8ff" points="198.59,-128.23 207.86,-123.09 197.42,-121.33 198.59,-128.23"/>
</g>
<!-- Node11 -->
<g id="node11" class="node">
<title>Node11</title>
<g id="a_node11"><a xlink:href="structquala_1_1BroydenStorage.html#a1f39e0321f095347878b8e231abaa2bb" target="_top" xlink:title=" ">
<polygon fill="white" stroke="#666666" points="434.5,-30 306.5,-30 306.5,0 434.5,0 434.5,-30"/>
<text text-anchor="start" x="314.5" y="-18" font-family="Helvetica,sans-Serif" font-size="10.00">quala::BroydenStorage</text>
<text text-anchor="middle" x="370.5" y="-7" font-family="Helvetica,sans-Serif" font-size="10.00">::work</text>
</a>
</g>
</g>
<!-- Node4&#45;&gt;Node11 -->
<g id="edge14" class="edge">
<title>Node4&#45;&gt;Node11</title>
<path fill="none" stroke="#63b8ff" d="M123.05,-128.22C129.59,-105.42 149.27,-48.85 189,-25 220.72,-5.96 261.49,-2.34 296.26,-3.96"/>
<polygon fill="#63b8ff" stroke="#63b8ff" points="296.17,-7.46 306.36,-4.59 296.6,-0.48 296.17,-7.46"/>
</g>
<!-- Node6 -->
<g id="node6" class="node">
<title>Node6</title>
<g id="a_node6"><a xlink:href="classquala_1_1BroydenGood.html#a9cf7dcccbc3bc69a10833450ee79c623" target="_top" xlink:title="Get the number of previous vectors s and y stored in the buffer.">
<polygon fill="white" stroke="#666666" points="395.5,-129.5 345.5,-129.5 345.5,-110.5 395.5,-110.5 395.5,-129.5"/>
<text text-anchor="middle" x="370.5" y="-117.5" font-family="Helvetica,sans-Serif" font-size="10.00">history</text>
</a>
</g>
</g>
<!-- Node5&#45;&gt;Node6 -->
<g id="edge5" class="edge">
<title>Node5&#45;&gt;Node6</title>
<path fill="none" stroke="#63b8ff" d="M264.44,-147.47C286.35,-141.74 314.06,-134.5 335.52,-128.89"/>
<polygon fill="#63b8ff" stroke="#63b8ff" points="336.41,-132.27 345.2,-126.35 334.64,-125.5 336.41,-132.27"/>
</g>
<!-- Node7 -->
<g id="node7" class="node">
<title>Node7</title>
<g id="a_node7"><a xlink:href="structquala_1_1BroydenStorage.html#a9cf7dcccbc3bc69a10833450ee79c623" target="_top" xlink:title="Get the number of previous vectors s and s̃ stored in the buffer.">
<polygon fill="white" stroke="#666666" points="604,-78 476,-78 476,-48 604,-48 604,-78"/>
<text text-anchor="start" x="484" y="-66" font-family="Helvetica,sans-Serif" font-size="10.00">quala::BroydenStorage</text>
<text text-anchor="middle" x="540" y="-55" font-family="Helvetica,sans-Serif" font-size="10.00">::history</text>
</a>
</g>
</g>
<!-- Node6&#45;&gt;Node7 -->
<g id="edge6" class="edge">
<title>Node6&#45;&gt;Node7</title>
<path fill="none" stroke="#63b8ff" d="M395.86,-111.71C419.19,-103.77 455.2,-91.52 485.26,-81.29"/>
<polygon fill="#63b8ff" stroke="#63b8ff" points="486.45,-84.58 494.79,-78.05 484.19,-77.95 486.45,-84.58"/>
</g>
<!-- Node9&#45;&gt;Node8 -->
<g id="edge9" class="edge">
<title>Node9&#45;&gt;Node8</title>
<path fill="none" stroke="#63b8ff" d="M241.57,-46.11C255,-48.2 276.66,-51.57 298.36,-54.94"/>
<polygon fill="#63b8ff" stroke="#63b8ff" points="297.89,-58.41 308.31,-56.49 298.97,-51.49 297.89,-58.41"/>
</g>
<!-- Node10&#45;&gt;Node6 -->
<g id="edge13" class="edge">
<title>Node10&#45;&gt;Node6</title>
<path fill="none" stroke="#63b8ff" d="M246.21,-120C268.58,-120 307.01,-120 335.03,-120"/>
<polygon fill="#63b8ff" stroke="#63b8ff" points="335.2,-123.5 345.2,-120 335.2,-116.5 335.2,-123.5"/>
</g>
<!-- Node11&#45;&gt;Node7 -->
<g id="edge15" class="edge">
<title>Node11&#45;&gt;Node7</title>
<path fill="none" stroke="#63b8ff" d="M424.04,-30.06C440.72,-34.84 459.33,-40.17 476.63,-45.13"/>
<polygon fill="#63b8ff" stroke="#63b8ff" points="476.07,-48.61 486.65,-48 478,-41.88 476.07,-48.61"/>
</g>
</g>
</svg>
