<?xml version="1.0" encoding="UTF-8" standalone="no"?>
<!DOCTYPE svg PUBLIC "-//W3C//DTD SVG 1.1//EN"
 "http://www.w3.org/Graphics/SVG/1.1/DTD/svg11.dtd">
<!-- Generated by graphviz version 2.43.0 (0)
 -->
<!-- Title: n Pages: 1 -->
<svg width="523pt" height="138pt"
 viewBox="0.00 0.00 523.00 138.00" xmlns="http://www.w3.org/2000/svg" xmlns:xlink="http://www.w3.org/1999/xlink">
<g id="graph0" class="graph" transform="scale(1 1) rotate(0) translate(4 134)">
<title>n</title>
<!-- Node1 -->
<g id="node1" class="node">
<title>Node1</title>
<g id="a_node1"><a xlink:title=" ">
<polygon fill="#999999" stroke="#666666" points="515,-74 486,-74 486,-55 515,-55 515,-74"/>
<text text-anchor="middle" x="500.5" y="-62" font-family="Helvetica,sans-Serif" font-size="10.00">n</text>
</a>
</g>
</g>
<!-- Node2 -->
<g id="node2" class="node">
<title>Node2</title>
<g id="a_node2"><a xlink:href="classquala_1_1LimitedMemoryQR.html#a32367fb2ecbdf71d6071bddc4dc3ce5d" target="_top" xlink:title="Get the matrix Q such that Q times R is the original matrix.">
<polygon fill="white" stroke="#666666" points="405.5,-130 360.5,-130 360.5,-111 405.5,-111 405.5,-130"/>
<text text-anchor="middle" x="383" y="-118" font-family="Helvetica,sans-Serif" font-size="10.00">get_Q</text>
</a>
</g>
</g>
<!-- Node1&#45;&gt;Node2 -->
<g id="edge1" class="edge">
<title>Node1&#45;&gt;Node2</title>
<path fill="none" stroke="#63b8ff" d="M481.54,-81.02C472.61,-88.49 461.33,-96.88 450,-102.5 435.96,-109.47 418.85,-114.03 405.57,-116.83"/>
<polygon fill="#63b8ff" stroke="#63b8ff" points="484.06,-83.47 489.31,-74.26 479.47,-78.19 484.06,-83.47"/>
</g>
<!-- Node3 -->
<g id="node3" class="node">
<title>Node3</title>
<g id="a_node3"><a xlink:href="classquala_1_1AndersonAccel.html#a727afc7a58d2e44ae7add57e3fa77bc6" target="_top" xlink:title="Get the problem dimension.">
<polygon fill="white" stroke="#666666" points="450,-93 316,-93 316,-74 450,-74 450,-93"/>
<text text-anchor="middle" x="383" y="-81" font-family="Helvetica,sans-Serif" font-size="10.00">quala::AndersonAccel::n</text>
</a>
</g>
</g>
<!-- Node1&#45;&gt;Node3 -->
<g id="edge2" class="edge">
<title>Node1&#45;&gt;Node3</title>
<path fill="none" stroke="#63b8ff" d="M475.65,-68.42C465.8,-70.04 453.91,-72 442,-73.96"/>
<polygon fill="#63b8ff" stroke="#63b8ff" points="476.5,-71.83 485.8,-66.75 475.36,-64.92 476.5,-71.83"/>
</g>
<!-- Node8 -->
<g id="node8" class="node">
<title>Node8</title>
<g id="a_node8"><a xlink:href="classquala_1_1LimitedMemoryQR.html#ad15543203799d1dccb5a5e1c572e3f02" target="_top" xlink:title="Re&#45;allocate storage for a problem with a different size.">
<polygon fill="white" stroke="#666666" points="406,-56 360,-56 360,-37 406,-37 406,-56"/>
<text text-anchor="middle" x="383" y="-44" font-family="Helvetica,sans-Serif" font-size="10.00">resize</text>
</a>
</g>
</g>
<!-- Node1&#45;&gt;Node8 -->
<g id="edge8" class="edge">
<title>Node1&#45;&gt;Node8</title>
<path fill="none" stroke="#63b8ff" d="M475.78,-60.8C455.44,-57.63 426.35,-53.1 406.4,-49.99"/>
<polygon fill="#63b8ff" stroke="#63b8ff" points="475.38,-64.28 485.8,-62.36 476.46,-57.37 475.38,-64.28"/>
</g>
<!-- Node9 -->
<g id="node9" class="node">
<title>Node9</title>
<g id="a_node9"><a xlink:href="classquala_1_1LimitedMemoryQR.html#a00483d13e65f3ad72dd440a5d4e7a03e" target="_top" xlink:title=" ">
<polygon fill="white" stroke="#666666" points="401,-19 365,-19 365,0 401,0 401,-19"/>
<text text-anchor="middle" x="383" y="-7" font-family="Helvetica,sans-Serif" font-size="10.00">size</text>
</a>
</g>
</g>
<!-- Node1&#45;&gt;Node9 -->
<g id="edge10" class="edge">
<title>Node1&#45;&gt;Node9</title>
<path fill="none" stroke="#63b8ff" d="M481.13,-48.15C472.24,-40.95 461.11,-32.92 450,-27.5 434.31,-19.84 414.88,-15.04 401.17,-12.35"/>
<polygon fill="#63b8ff" stroke="#63b8ff" points="478.98,-50.92 488.89,-54.68 483.49,-45.57 478.98,-50.92"/>
</g>
<!-- Node4 -->
<g id="node4" class="node">
<title>Node4</title>
<g id="a_node4"><a xlink:href="classquala_1_1AndersonAccel.html#a1fcb04cfb2b1398b54d8242cc3b0fb34" target="_top" xlink:title=" ">
<polygon fill="white" stroke="#666666" points="122,-123.5 0,-123.5 0,-93.5 122,-93.5 122,-123.5"/>
<text text-anchor="start" x="8" y="-111.5" font-family="Helvetica,sans-Serif" font-size="10.00">quala::AndersonAccel</text>
<text text-anchor="middle" x="61" y="-100.5" font-family="Helvetica,sans-Serif" font-size="10.00">::AndersonAccel</text>
</a>
</g>
</g>
<!-- Node3&#45;&gt;Node4 -->
<g id="edge3" class="edge">
<title>Node3&#45;&gt;Node4</title>
<path fill="none" stroke="#63b8ff" d="M338.65,-95.87C331.09,-98.06 323.31,-100.33 316,-102.5 299.96,-107.26 296.55,-111.03 280,-113.5 226.37,-121.51 212.2,-114.91 158,-113.5 146.4,-113.2 134.03,-112.69 122.15,-112.11"/>
<polygon fill="#63b8ff" stroke="#63b8ff" points="339.75,-99.19 348.39,-93.06 337.82,-92.47 339.75,-99.19"/>
</g>
<!-- Node5 -->
<g id="node5" class="node">
<title>Node5</title>
<g id="a_node5"><a xlink:href="classquala_1_1AndersonAccel.html#a91f7e1e33f6e4eadf8e5fb93bcaa5437" target="_top" xlink:title="Call this function on the first iteration to initialize the accelerator.">
<polygon fill="white" stroke="#666666" points="280,-104.5 158,-104.5 158,-74.5 280,-74.5 280,-104.5"/>
<text text-anchor="start" x="166" y="-92.5" font-family="Helvetica,sans-Serif" font-size="10.00">quala::AndersonAccel</text>
<text text-anchor="middle" x="219" y="-81.5" font-family="Helvetica,sans-Serif" font-size="10.00">::initialize</text>
</a>
</g>
</g>
<!-- Node3&#45;&gt;Node5 -->
<g id="edge4" class="edge">
<title>Node3&#45;&gt;Node5</title>
<path fill="none" stroke="#63b8ff" d="M305.61,-86.33C297.02,-86.65 288.36,-86.97 280.01,-87.28"/>
<polygon fill="#63b8ff" stroke="#63b8ff" points="305.78,-89.83 315.64,-85.96 305.52,-82.83 305.78,-89.83"/>
</g>
<!-- Node6 -->
<g id="node6" class="node">
<title>Node6</title>
<g id="a_node6"><a xlink:href="classquala_1_1AndersonAccel.html#abfe51417fbebd259808f86d27f1d7ec5" target="_top" xlink:title="Change the problem dimension.">
<polygon fill="white" stroke="#666666" points="280,-56.5 158,-56.5 158,-26.5 280,-26.5 280,-56.5"/>
<text text-anchor="start" x="166" y="-44.5" font-family="Helvetica,sans-Serif" font-size="10.00">quala::AndersonAccel</text>
<text text-anchor="middle" x="219" y="-33.5" font-family="Helvetica,sans-Serif" font-size="10.00">::resize</text>
</a>
</g>
</g>
<!-- Node3&#45;&gt;Node6 -->
<g id="edge5" class="edge">
<title>Node3&#45;&gt;Node6</title>
<path fill="none" stroke="#63b8ff" d="M335.32,-71.4C317.41,-66.75 296.75,-61.4 277.9,-56.51"/>
<polygon fill="#63b8ff" stroke="#63b8ff" points="334.68,-74.85 345.24,-73.97 336.44,-68.07 334.68,-74.85"/>
</g>
<!-- Node6&#45;&gt;Node4 -->
<g id="edge6" class="edge">
<title>Node6&#45;&gt;Node4</title>
<path fill="none" stroke="#63b8ff" d="M170.54,-60.28C166.29,-62.02 162.06,-63.78 158,-65.5 136.81,-74.48 113.23,-85.03 94.73,-93.44"/>
<polygon fill="#63b8ff" stroke="#63b8ff" points="171.87,-63.51 179.82,-56.5 169.23,-57.03 171.87,-63.51"/>
</g>
<!-- Node7 -->
<g id="node7" class="node">
<title>Node7</title>
<g id="a_node7"><a xlink:href="quala_8py_8cpp.html#a12fb4e87da488d1fc7c6fa3e6a3adb90" target="_top" xlink:title=" ">
<polygon fill="white" stroke="#666666" points="117.5,-51 4.5,-51 4.5,-32 117.5,-32 117.5,-51"/>
<text text-anchor="middle" x="61" y="-39" font-family="Helvetica,sans-Serif" font-size="10.00">PYBIND11_MODULE</text>
</a>
</g>
</g>
<!-- Node6&#45;&gt;Node7 -->
<g id="edge7" class="edge">
<title>Node6&#45;&gt;Node7</title>
<path fill="none" stroke="#63b8ff" d="M147.68,-41.5C137.58,-41.5 127.31,-41.5 117.56,-41.5"/>
<polygon fill="#63b8ff" stroke="#63b8ff" points="147.69,-45 157.69,-41.5 147.69,-38 147.69,-45"/>
</g>
<!-- Node8&#45;&gt;Node6 -->
<g id="edge9" class="edge">
<title>Node8&#45;&gt;Node6</title>
<path fill="none" stroke="#63b8ff" d="M349.76,-45.51C329.91,-44.89 303.82,-44.09 280.25,-43.36"/>
<polygon fill="#63b8ff" stroke="#63b8ff" points="349.71,-49 359.81,-45.82 349.93,-42.01 349.71,-49"/>
</g>
</g>
</svg>
