<?xml version="1.0" encoding="UTF-8" standalone="no"?>
<!DOCTYPE svg PUBLIC "-//W3C//DTD SVG 1.1//EN"
 "http://www.w3.org/Graphics/SVG/1.1/DTD/svg11.dtd">
<!-- Generated by graphviz version 2.43.0 (0)
 -->
<!-- Title: history Pages: 1 -->
<svg width="419pt" height="175pt"
 viewBox="0.00 0.00 419.00 175.00" xmlns="http://www.w3.org/2000/svg" xmlns:xlink="http://www.w3.org/1999/xlink">
<g id="graph0" class="graph" transform="scale(1 1) rotate(0) translate(4 171)">
<title>history</title>
<!-- Node1 -->
<g id="node1" class="node">
<title>Node1</title>
<g id="a_node1"><a xlink:title="Get the number of previous vectors s and y stored in the buffer.">
<polygon fill="#999999" stroke="#666666" points="411,-93 361,-93 361,-74 411,-74 411,-93"/>
<text text-anchor="middle" x="386" y="-81" font-family="Helvetica,sans-Serif" font-size="10.00">history</text>
</a>
</g>
</g>
<!-- Node2 -->
<g id="node2" class="node">
<title>Node2</title>
<g id="a_node2"><a xlink:href="classquala_1_1BroydenGood.html#a3c6a2dbecc0d6f8cd90bef088c46b072" target="_top" xlink:title="Get the number of previous s and y vectors currently stored in the buffer.">
<polygon fill="white" stroke="#666666" points="325,-167 235,-167 235,-148 325,-148 325,-167"/>
<text text-anchor="middle" x="280" y="-155" font-family="Helvetica,sans-Serif" font-size="10.00">current_history</text>
</a>
</g>
</g>
<!-- Node1&#45;&gt;Node2 -->
<g id="edge1" class="edge">
<title>Node1&#45;&gt;Node2</title>
<path fill="none" stroke="#63b8ff" d="M369.49,-101.01C358.11,-113.06 341.77,-128.76 325,-139.5 320,-142.7 314.33,-145.53 308.76,-147.94"/>
<polygon fill="#63b8ff" stroke="#63b8ff" points="372.33,-103.09 376.53,-93.36 367.18,-98.35 372.33,-103.09"/>
</g>
<!-- Node4 -->
<g id="node4" class="node">
<title>Node4</title>
<g id="a_node4"><a xlink:href="classquala_1_1BroydenGood.html#aa871b5290773b86e2e4919bbac258a04" target="_top" xlink:title="Iterate over the indices in the history buffer, oldest first.">
<polygon fill="white" stroke="#666666" points="318,-130 242,-130 242,-111 318,-111 318,-130"/>
<text text-anchor="middle" x="280" y="-118" font-family="Helvetica,sans-Serif" font-size="10.00">foreach_fwd</text>
</a>
</g>
</g>
<!-- Node1&#45;&gt;Node4 -->
<g id="edge3" class="edge">
<title>Node1&#45;&gt;Node4</title>
<path fill="none" stroke="#63b8ff" d="M351.11,-95.56C337.1,-100.54 321.1,-106.23 307.92,-110.92"/>
<polygon fill="#63b8ff" stroke="#63b8ff" points="352.63,-98.73 360.88,-92.08 350.28,-92.14 352.63,-98.73"/>
</g>
<!-- Node8 -->
<g id="node8" class="node">
<title>Node8</title>
<g id="a_node8"><a xlink:href="classquala_1_1BroydenGood.html#a0804b751cf2035a35f24762474f62cbf" target="_top" xlink:title="Iterate over the indices in the history buffer, newest first.">
<polygon fill="white" stroke="#666666" points="317,-93 243,-93 243,-74 317,-74 317,-93"/>
<text text-anchor="middle" x="280" y="-81" font-family="Helvetica,sans-Serif" font-size="10.00">foreach_rev</text>
</a>
</g>
</g>
<!-- Node1&#45;&gt;Node8 -->
<g id="edge7" class="edge">
<title>Node1&#45;&gt;Node8</title>
<path fill="none" stroke="#63b8ff" d="M350.62,-83.5C339.91,-83.5 328.06,-83.5 317.23,-83.5"/>
<polygon fill="#63b8ff" stroke="#63b8ff" points="350.88,-87 360.88,-83.5 350.88,-80 350.88,-87"/>
</g>
<!-- Node9 -->
<g id="node9" class="node">
<title>Node9</title>
<g id="a_node9"><a xlink:href="classquala_1_1BroydenGood.html#a71f7f5e949a948d578ae6f145e4c4914" target="_top" xlink:title="Get the previous index in the circular buffer of s and y vectors.">
<polygon fill="white" stroke="#666666" points="299,-56 261,-56 261,-37 299,-37 299,-56"/>
<text text-anchor="middle" x="280" y="-44" font-family="Helvetica,sans-Serif" font-size="10.00">pred</text>
</a>
</g>
</g>
<!-- Node1&#45;&gt;Node9 -->
<g id="edge8" class="edge">
<title>Node1&#45;&gt;Node9</title>
<path fill="none" stroke="#63b8ff" d="M351.11,-71.44C333.81,-65.29 313.45,-58.05 299.15,-52.96"/>
<polygon fill="#63b8ff" stroke="#63b8ff" points="350.28,-74.86 360.88,-74.92 352.63,-68.27 350.28,-74.86"/>
</g>
<!-- Node10 -->
<g id="node10" class="node">
<title>Node10</title>
<g id="a_node10"><a xlink:href="classquala_1_1BroydenGood.html#a70926baed7362e4fcce66523bb8e2842" target="_top" xlink:title="Get the next index in the circular buffer of previous s and y vectors.">
<polygon fill="white" stroke="#666666" points="299,-19 261,-19 261,0 299,0 299,-19"/>
<text text-anchor="middle" x="280" y="-7" font-family="Helvetica,sans-Serif" font-size="10.00">succ</text>
</a>
</g>
</g>
<!-- Node1&#45;&gt;Node10 -->
<g id="edge9" class="edge">
<title>Node1&#45;&gt;Node10</title>
<path fill="none" stroke="#63b8ff" d="M369.37,-66.42C357.93,-54.64 341.57,-39.24 325,-28.5 317.04,-23.34 307.44,-19.01 299.25,-15.79"/>
<polygon fill="#63b8ff" stroke="#63b8ff" points="367.03,-69.04 376.45,-73.89 372.11,-64.22 367.03,-69.04"/>
</g>
<!-- Node3 -->
<g id="node3" class="node">
<title>Node3</title>
<g id="a_node3"><a xlink:href="quala_8py_8cpp.html#a12fb4e87da488d1fc7c6fa3e6a3adb90" target="_top" xlink:title=" ">
<polygon fill="white" stroke="#666666" points="199,-167 86,-167 86,-148 199,-148 199,-167"/>
<text text-anchor="middle" x="142.5" y="-155" font-family="Helvetica,sans-Serif" font-size="10.00">PYBIND11_MODULE</text>
</a>
</g>
</g>
<!-- Node2&#45;&gt;Node3 -->
<g id="edge2" class="edge">
<title>Node2&#45;&gt;Node3</title>
<path fill="none" stroke="#63b8ff" d="M224.37,-157.5C216.13,-157.5 207.62,-157.5 199.35,-157.5"/>
<polygon fill="#63b8ff" stroke="#63b8ff" points="224.63,-161 234.63,-157.5 224.63,-154 224.63,-161"/>
</g>
<!-- Node5 -->
<g id="node5" class="node">
<title>Node5</title>
<g id="a_node5"><a xlink:href="classquala_1_1BroydenGood.html#af3b5886c46c3f50fae33990afcc47f12" target="_top" xlink:title="Apply the inverse Jacobian approximation to the given vector q, i.e.">
<polygon fill="white" stroke="#666666" points="164.5,-130 120.5,-130 120.5,-111 164.5,-111 164.5,-130"/>
<text text-anchor="middle" x="142.5" y="-118" font-family="Helvetica,sans-Serif" font-size="10.00">apply</text>
</a>
</g>
</g>
<!-- Node4&#45;&gt;Node5 -->
<g id="edge4" class="edge">
<title>Node4&#45;&gt;Node5</title>
<path fill="none" stroke="#63b8ff" d="M231.78,-120.5C208.99,-120.5 182.76,-120.5 164.86,-120.5"/>
<polygon fill="#63b8ff" stroke="#63b8ff" points="231.97,-124 241.97,-120.5 231.97,-117 231.97,-124"/>
</g>
<!-- Node6 -->
<g id="node6" class="node">
<title>Node6</title>
<g id="a_node6"><a xlink:href="classquala_1_1BroydenGood.html#ad2320a49a7db3abb42d0c621a6a932bd" target="_top" xlink:title="Update the inverse Jacobian approximation using the new vectors sₖ = xₖ₊₁ &#45; xₖ and yₖ = pₖ₊₁ &#45; pₖ.">
<polygon fill="white" stroke="#666666" points="176,-56 109,-56 109,-37 176,-37 176,-56"/>
<text text-anchor="middle" x="142.5" y="-44" font-family="Helvetica,sans-Serif" font-size="10.00">update_sy</text>
</a>
</g>
</g>
<!-- Node4&#45;&gt;Node6 -->
<g id="edge5" class="edge">
<title>Node4&#45;&gt;Node6</title>
<path fill="none" stroke="#63b8ff" d="M244.18,-106.87C241.04,-105.46 237.95,-103.99 235,-102.5 206.59,-88.11 175.31,-67.96 157.67,-56.16"/>
<polygon fill="#63b8ff" stroke="#63b8ff" points="242.99,-110.17 253.56,-110.9 245.76,-103.74 242.99,-110.17"/>
</g>
<!-- Node7 -->
<g id="node7" class="node">
<title>Node7</title>
<g id="a_node7"><a xlink:href="classquala_1_1BroydenGood.html#a306b71b9ba3fa871a4cad408f946b5a7" target="_top" xlink:title="Update the inverse Jacobian approximation using the new vectors xₖ₊₁ and pₖ₊₁.">
<polygon fill="white" stroke="#666666" points="50,-56 0,-56 0,-37 50,-37 50,-56"/>
<text text-anchor="middle" x="25" y="-44" font-family="Helvetica,sans-Serif" font-size="10.00">update</text>
</a>
</g>
</g>
<!-- Node6&#45;&gt;Node7 -->
<g id="edge6" class="edge">
<title>Node6&#45;&gt;Node7</title>
<path fill="none" stroke="#63b8ff" d="M98.29,-46.5C81.97,-46.5 64,-46.5 50.05,-46.5"/>
<polygon fill="#63b8ff" stroke="#63b8ff" points="98.71,-50 108.71,-46.5 98.71,-43 98.71,-50"/>
</g>
<!-- Node10&#45;&gt;Node6 -->
<g id="edge10" class="edge">
<title>Node10&#45;&gt;Node6</title>
<path fill="none" stroke="#63b8ff" d="M251.07,-17.13C229.25,-23.08 198.91,-31.37 176,-37.62"/>
<polygon fill="#63b8ff" stroke="#63b8ff" points="252,-20.5 260.73,-14.49 250.16,-13.75 252,-20.5"/>
</g>
</g>
</svg>
