<?xml version="1.0" encoding="UTF-8" standalone="no"?>
<!DOCTYPE svg PUBLIC "-//W3C//DTD SVG 1.1//EN"
 "http://www.w3.org/Graphics/SVG/1.1/DTD/svg11.dtd">
<!-- Generated by graphviz version 2.43.0 (0)
 -->
<!-- Title: scale_y Pages: 1 -->
<svg width="481pt" height="113pt"
 viewBox="0.00 0.00 481.00 113.00" xmlns="http://www.w3.org/2000/svg" xmlns:xlink="http://www.w3.org/1999/xlink">
<g id="graph0" class="graph" transform="scale(1 1) rotate(0) translate(4 109)">
<title>scale_y</title>
<!-- Node1 -->
<g id="node1" class="node">
<title>Node1</title>
<g id="a_node1"><a xlink:title="Scale the stored y vectors by the given factor.">
<polygon fill="#999999" stroke="#666666" points="53,-62 0,-62 0,-43 53,-43 53,-62"/>
<text text-anchor="middle" x="26.5" y="-50" font-family="Helvetica,sans-Serif" font-size="10.00">scale_y</text>
</a>
</g>
</g>
<!-- Node2 -->
<g id="node2" class="node">
<title>Node2</title>
<g id="a_node2"><a xlink:href="classquala_1_1LBFGS.html#acade3dc51f7ca788be9b91908b2e73ab" target="_top" xlink:title=" ">
<polygon fill="white" stroke="#666666" points="128.5,-102 99.5,-102 99.5,-83 128.5,-83 128.5,-102"/>
<text text-anchor="middle" x="114" y="-90" font-family="Helvetica,sans-Serif" font-size="10.00">ρ</text>
</a>
</g>
</g>
<!-- Node1&#45;&gt;Node2 -->
<g id="edge1" class="edge">
<title>Node1&#45;&gt;Node2</title>
<path fill="none" stroke="#63b8ff" d="M48.2,-62.18C60.88,-68.12 77.13,-75.72 90.18,-81.82"/>
<polygon fill="#63b8ff" stroke="#63b8ff" points="88.88,-85.08 99.43,-86.15 91.85,-78.74 88.88,-85.08"/>
</g>
<!-- Node5 -->
<g id="node5" class="node">
<title>Node5</title>
<g id="a_node5"><a xlink:href="classquala_1_1LBFGS.html#a9cf7dcccbc3bc69a10833450ee79c623" target="_top" xlink:title="Get the number of previous vectors s and y stored in the buffer.">
<polygon fill="white" stroke="#666666" points="139,-62 89,-62 89,-43 139,-43 139,-62"/>
<text text-anchor="middle" x="114" y="-50" font-family="Helvetica,sans-Serif" font-size="10.00">history</text>
</a>
</g>
</g>
<!-- Node1&#45;&gt;Node5 -->
<g id="edge4" class="edge">
<title>Node1&#45;&gt;Node5</title>
<path fill="none" stroke="#63b8ff" d="M53.15,-52.5C61.2,-52.5 70.21,-52.5 78.74,-52.5"/>
<polygon fill="#63b8ff" stroke="#63b8ff" points="78.83,-56 88.83,-52.5 78.83,-49 78.83,-56"/>
</g>
<!-- Node7 -->
<g id="node7" class="node">
<title>Node7</title>
<g id="a_node7"><a xlink:href="classquala_1_1LBFGS.html#aebac2ec4461761a48a7284152a8217f8" target="_top" xlink:title=" ">
<polygon fill="white" stroke="#666666" points="128.5,-22 99.5,-22 99.5,-3 128.5,-3 128.5,-22"/>
<text text-anchor="middle" x="114" y="-10" font-family="Helvetica,sans-Serif" font-size="10.00">y</text>
</a>
</g>
</g>
<!-- Node1&#45;&gt;Node7 -->
<g id="edge6" class="edge">
<title>Node1&#45;&gt;Node7</title>
<path fill="none" stroke="#63b8ff" d="M48.2,-42.82C60.88,-36.88 77.13,-29.28 90.18,-23.18"/>
<polygon fill="#63b8ff" stroke="#63b8ff" points="91.85,-26.26 99.43,-18.85 88.88,-19.92 91.85,-26.26"/>
</g>
<!-- Node3 -->
<g id="node3" class="node">
<title>Node3</title>
<g id="a_node3"><a xlink:href="structquala_1_1LBFGSStorage.html#acade3dc51f7ca788be9b91908b2e73ab" target="_top" xlink:title=" ">
<polygon fill="white" stroke="#666666" points="306,-105 175,-105 175,-86 306,-86 306,-105"/>
<text text-anchor="middle" x="240.5" y="-93" font-family="Helvetica,sans-Serif" font-size="10.00">quala::LBFGSStorage::ρ</text>
</a>
</g>
</g>
<!-- Node2&#45;&gt;Node3 -->
<g id="edge2" class="edge">
<title>Node2&#45;&gt;Node3</title>
<path fill="none" stroke="#63b8ff" d="M128.8,-92.83C138.02,-93.05 150.95,-93.37 164.74,-93.7"/>
<polygon fill="#63b8ff" stroke="#63b8ff" points="164.81,-97.2 174.89,-93.94 164.98,-90.2 164.81,-97.2"/>
</g>
<!-- Node4 -->
<g id="node4" class="node">
<title>Node4</title>
<g id="a_node4"><a xlink:href="structquala_1_1LBFGSStorage.html#a727afc7a58d2e44ae7add57e3fa77bc6" target="_top" xlink:title="Get the size of the s and y vectors in the buffer.">
<polygon fill="white" stroke="#666666" points="473,-62 342,-62 342,-43 473,-43 473,-62"/>
<text text-anchor="middle" x="407.5" y="-50" font-family="Helvetica,sans-Serif" font-size="10.00">quala::LBFGSStorage::n</text>
</a>
</g>
</g>
<!-- Node3&#45;&gt;Node4 -->
<g id="edge3" class="edge">
<title>Node3&#45;&gt;Node4</title>
<path fill="none" stroke="#63b8ff" d="M278.12,-85.96C302.26,-79.67 334.08,-71.37 360,-64.62"/>
<polygon fill="#63b8ff" stroke="#63b8ff" points="361.19,-67.93 369.98,-62.02 359.42,-61.15 361.19,-67.93"/>
</g>
<!-- Node6 -->
<g id="node6" class="node">
<title>Node6</title>
<g id="a_node6"><a xlink:href="structquala_1_1LBFGSStorage.html#a9cf7dcccbc3bc69a10833450ee79c623" target="_top" xlink:title="Get the number of previous vectors s and y stored in the buffer.">
<polygon fill="white" stroke="#666666" points="300,-67.5 181,-67.5 181,-37.5 300,-37.5 300,-67.5"/>
<text text-anchor="start" x="189" y="-55.5" font-family="Helvetica,sans-Serif" font-size="10.00">quala::LBFGSStorage</text>
<text text-anchor="middle" x="240.5" y="-44.5" font-family="Helvetica,sans-Serif" font-size="10.00">::history</text>
</a>
</g>
</g>
<!-- Node5&#45;&gt;Node6 -->
<g id="edge5" class="edge">
<title>Node5&#45;&gt;Node6</title>
<path fill="none" stroke="#63b8ff" d="M139,-52.5C148.3,-52.5 159.44,-52.5 170.88,-52.5"/>
<polygon fill="#63b8ff" stroke="#63b8ff" points="170.96,-56 180.96,-52.5 170.96,-49 170.96,-56"/>
</g>
<!-- Node8 -->
<g id="node8" class="node">
<title>Node8</title>
<g id="a_node8"><a xlink:href="structquala_1_1LBFGSStorage.html#aebac2ec4461761a48a7284152a8217f8" target="_top" xlink:title=" ">
<polygon fill="white" stroke="#666666" points="306,-19 175,-19 175,0 306,0 306,-19"/>
<text text-anchor="middle" x="240.5" y="-7" font-family="Helvetica,sans-Serif" font-size="10.00">quala::LBFGSStorage::y</text>
</a>
</g>
</g>
<!-- Node7&#45;&gt;Node8 -->
<g id="edge7" class="edge">
<title>Node7&#45;&gt;Node8</title>
<path fill="none" stroke="#63b8ff" d="M128.8,-12.17C138.02,-11.95 150.95,-11.63 164.74,-11.3"/>
<polygon fill="#63b8ff" stroke="#63b8ff" points="164.98,-14.8 174.89,-11.06 164.81,-7.8 164.98,-14.8"/>
</g>
<!-- Node8&#45;&gt;Node4 -->
<g id="edge8" class="edge">
<title>Node8&#45;&gt;Node4</title>
<path fill="none" stroke="#63b8ff" d="M278.12,-19.04C302.26,-25.33 334.08,-33.63 360,-40.38"/>
<polygon fill="#63b8ff" stroke="#63b8ff" points="359.42,-43.85 369.98,-42.98 361.19,-37.07 359.42,-43.85"/>
</g>
</g>
</svg>
