<?xml version="1.0" encoding="UTF-8" standalone="no"?>
<!DOCTYPE svg PUBLIC "-//W3C//DTD SVG 1.1//EN"
 "http://www.w3.org/Graphics/SVG/1.1/DTD/svg11.dtd">
<!-- Generated by graphviz version 2.43.0 (0)
 -->
<!-- Title: end Pages: 1 -->
<svg width="351pt" height="38pt"
 viewBox="0.00 0.00 351.00 38.00" xmlns="http://www.w3.org/2000/svg" xmlns:xlink="http://www.w3.org/1999/xlink">
<g id="graph0" class="graph" transform="scale(1 1) rotate(0) translate(4 34)">
<title>end</title>
<!-- Node1 -->
<g id="node1" class="node">
<title>Node1</title>
<g id="a_node1"><a xlink:title=" ">
<polygon fill="#999999" stroke="#666666" points="35,-24.5 0,-24.5 0,-5.5 35,-5.5 35,-24.5"/>
<text text-anchor="middle" x="17.5" y="-12.5" font-family="Helvetica,sans-Serif" font-size="10.00">end</text>
</a>
</g>
</g>
<!-- Node2 -->
<g id="node2" class="node">
<title>Node2</title>
<g id="a_node2"><a xlink:href="classquala_1_1CircularRange.html#ab3fe1cdacc9a53cc2d0cbe27599036c4" target="_top" xlink:title=" ">
<polygon fill="white" stroke="#666666" points="189,-30 71,-30 71,0 189,0 189,-30"/>
<text text-anchor="start" x="79" y="-18" font-family="Helvetica,sans-Serif" font-size="10.00">quala::CircularRange</text>
<text text-anchor="middle" x="130" y="-7" font-family="Helvetica,sans-Serif" font-size="10.00">::rend</text>
</a>
</g>
</g>
<!-- Node1&#45;&gt;Node2 -->
<g id="edge1" class="edge">
<title>Node1&#45;&gt;Node2</title>
<path fill="none" stroke="#63b8ff" d="M35.28,-15C42.38,-15 51.15,-15 60.46,-15"/>
<polygon fill="#63b8ff" stroke="#63b8ff" points="60.72,-18.5 70.72,-15 60.72,-11.5 60.72,-18.5"/>
</g>
<!-- Node3 -->
<g id="node3" class="node">
<title>Node3</title>
<g id="a_node3"><a xlink:href="classquala_1_1CircularRange.html#a0c62c15c8ed609e7e5e9518cf5f5c712" target="_top" xlink:title=" ">
<polygon fill="white" stroke="#666666" points="343,-30 225,-30 225,0 343,0 343,-30"/>
<text text-anchor="start" x="233" y="-18" font-family="Helvetica,sans-Serif" font-size="10.00">quala::CircularRange</text>
<text text-anchor="middle" x="284" y="-7" font-family="Helvetica,sans-Serif" font-size="10.00">::begin</text>
</a>
</g>
</g>
<!-- Node2&#45;&gt;Node3 -->
<g id="edge2" class="edge">
<title>Node2&#45;&gt;Node3</title>
<path fill="none" stroke="#63b8ff" d="M189.33,-15C197.61,-15 206.17,-15 214.62,-15"/>
<polygon fill="#63b8ff" stroke="#63b8ff" points="214.82,-18.5 224.82,-15 214.82,-11.5 214.82,-18.5"/>
</g>
</g>
</svg>
