<?xml version="1.0" encoding="UTF-8" standalone="no"?>
<!DOCTYPE svg PUBLIC "-//W3C//DTD SVG 1.1//EN"
 "http://www.w3.org/Graphics/SVG/1.1/DTD/svg11.dtd">
<!-- Generated by graphviz version 2.43.0 (0)
 -->
<!-- Title: resize Pages: 1 -->
<svg width="203pt" height="64pt"
 viewBox="0.00 0.00 203.00 64.00" xmlns="http://www.w3.org/2000/svg" xmlns:xlink="http://www.w3.org/1999/xlink">
<g id="graph0" class="graph" transform="scale(1 1) rotate(0) translate(4 60)">
<title>resize</title>
<!-- Node1 -->
<g id="node1" class="node">
<title>Node1</title>
<g id="a_node1"><a xlink:title="Re&#45;allocate storage for a problem with a different size.">
<polygon fill="#999999" stroke="#666666" points="195,-37 149,-37 149,-18 195,-18 195,-37"/>
<text text-anchor="middle" x="172" y="-25" font-family="Helvetica,sans-Serif" font-size="10.00">resize</text>
</a>
</g>
</g>
<!-- Node2 -->
<g id="node2" class="node">
<title>Node2</title>
<g id="a_node2"><a xlink:href="classquala_1_1BroydenGood.html#af204bb3e018606122259767df4348cef" target="_top" xlink:title=" ">
<polygon fill="white" stroke="#666666" points="98,-56 15,-56 15,-37 98,-37 98,-56"/>
<text text-anchor="middle" x="56.5" y="-44" font-family="Helvetica,sans-Serif" font-size="10.00">BroydenGood</text>
</a>
</g>
</g>
<!-- Node1&#45;&gt;Node2 -->
<g id="edge1" class="edge">
<title>Node1&#45;&gt;Node2</title>
<path fill="none" stroke="#63b8ff" d="M138.84,-32.88C126.28,-34.99 111.73,-37.42 98.43,-39.65"/>
<polygon fill="#63b8ff" stroke="#63b8ff" points="139.56,-36.31 148.85,-31.21 138.41,-29.41 139.56,-36.31"/>
</g>
<!-- Node3 -->
<g id="node3" class="node">
<title>Node3</title>
<g id="a_node3"><a xlink:href="quala_8py_8cpp.html#a12fb4e87da488d1fc7c6fa3e6a3adb90" target="_top" xlink:title=" ">
<polygon fill="white" stroke="#666666" points="113,-19 0,-19 0,0 113,0 113,-19"/>
<text text-anchor="middle" x="56.5" y="-7" font-family="Helvetica,sans-Serif" font-size="10.00">PYBIND11_MODULE</text>
</a>
</g>
</g>
<!-- Node1&#45;&gt;Node3 -->
<g id="edge2" class="edge">
<title>Node1&#45;&gt;Node3</title>
<path fill="none" stroke="#63b8ff" d="M138.8,-22.39C130.74,-21.11 121.86,-19.71 113.02,-18.31"/>
<polygon fill="#63b8ff" stroke="#63b8ff" points="138.42,-25.88 148.85,-23.99 139.52,-18.96 138.42,-25.88"/>
</g>
</g>
</svg>
