<?xml version="1.0" encoding="UTF-8" standalone="no"?>
<!DOCTYPE svg PUBLIC "-//W3C//DTD SVG 1.1//EN"
 "http://www.w3.org/Graphics/SVG/1.1/DTD/svg11.dtd">
<!-- Generated by graphviz version 2.43.0 (0)
 -->
<!-- Title: LBFGS Pages: 1 -->
<svg width="211pt" height="683pt"
 viewBox="0.00 0.00 210.50 683.00" xmlns="http://www.w3.org/2000/svg" xmlns:xlink="http://www.w3.org/1999/xlink">
<g id="graph0" class="graph" transform="scale(1 1) rotate(0) translate(4 679)">
<title>LBFGS</title>
<!-- Node1 -->
<g id="node1" class="node">
<title>Node1</title>
<g id="a_node1"><a xlink:title="Limited memory Broyden–Fletcher–Goldfarb–Shanno (L&#45;BFGS) algorithm.">
<polygon fill="#999999" stroke="#666666" points="26.5,-0.5 26.5,-343.5 135.5,-343.5 135.5,-0.5 26.5,-0.5"/>
<text text-anchor="middle" x="81" y="-331.5" font-family="Helvetica,sans-Serif" font-size="10.00">LBFGS</text>
<polyline fill="none" stroke="#666666" points="26.5,-324.5 135.5,-324.5 "/>
<text text-anchor="start" x="34.5" y="-312.5" font-family="Helvetica,sans-Serif" font-size="10.00">&#45; idx</text>
<text text-anchor="start" x="34.5" y="-301.5" font-family="Helvetica,sans-Serif" font-size="10.00">&#45; full</text>
<polyline fill="none" stroke="#666666" points="26.5,-294.5 135.5,-294.5 "/>
<text text-anchor="start" x="34.5" y="-282.5" font-family="Helvetica,sans-Serif" font-size="10.00">+ LBFGS()</text>
<text text-anchor="start" x="34.5" y="-271.5" font-family="Helvetica,sans-Serif" font-size="10.00">+ LBFGS()</text>
<text text-anchor="start" x="34.5" y="-260.5" font-family="Helvetica,sans-Serif" font-size="10.00">+ update_sy()</text>
<text text-anchor="start" x="34.5" y="-249.5" font-family="Helvetica,sans-Serif" font-size="10.00">+ update()</text>
<text text-anchor="start" x="34.5" y="-238.5" font-family="Helvetica,sans-Serif" font-size="10.00">+ apply()</text>
<text text-anchor="start" x="34.5" y="-227.5" font-family="Helvetica,sans-Serif" font-size="10.00">+ apply()</text>
<text text-anchor="start" x="34.5" y="-216.5" font-family="Helvetica,sans-Serif" font-size="10.00">+ reset()</text>
<text text-anchor="start" x="34.5" y="-205.5" font-family="Helvetica,sans-Serif" font-size="10.00">+ resize()</text>
<text text-anchor="start" x="34.5" y="-194.5" font-family="Helvetica,sans-Serif" font-size="10.00">+ scale_y()</text>
<text text-anchor="start" x="34.5" y="-183.5" font-family="Helvetica,sans-Serif" font-size="10.00">+ get_params()</text>
<text text-anchor="start" x="34.5" y="-172.5" font-family="Helvetica,sans-Serif" font-size="10.00">+ n()</text>
<text text-anchor="start" x="34.5" y="-161.5" font-family="Helvetica,sans-Serif" font-size="10.00">+ history()</text>
<text text-anchor="start" x="34.5" y="-150.5" font-family="Helvetica,sans-Serif" font-size="10.00">+ succ()</text>
<text text-anchor="start" x="34.5" y="-139.5" font-family="Helvetica,sans-Serif" font-size="10.00">+ pred()</text>
<text text-anchor="start" x="34.5" y="-128.5" font-family="Helvetica,sans-Serif" font-size="10.00">+ current_history()</text>
<text text-anchor="start" x="34.5" y="-117.5" font-family="Helvetica,sans-Serif" font-size="10.00">+ s()</text>
<text text-anchor="start" x="34.5" y="-106.5" font-family="Helvetica,sans-Serif" font-size="10.00">+ s()</text>
<text text-anchor="start" x="34.5" y="-95.5" font-family="Helvetica,sans-Serif" font-size="10.00">+ y()</text>
<text text-anchor="start" x="34.5" y="-84.5" font-family="Helvetica,sans-Serif" font-size="10.00">+ y()</text>
<text text-anchor="start" x="34.5" y="-73.5" font-family="Helvetica,sans-Serif" font-size="10.00">+ ρ()</text>
<text text-anchor="start" x="34.5" y="-62.5" font-family="Helvetica,sans-Serif" font-size="10.00">+ ρ()</text>
<text text-anchor="start" x="34.5" y="-51.5" font-family="Helvetica,sans-Serif" font-size="10.00">+ α()</text>
<text text-anchor="start" x="34.5" y="-40.5" font-family="Helvetica,sans-Serif" font-size="10.00">+ α()</text>
<text text-anchor="start" x="34.5" y="-29.5" font-family="Helvetica,sans-Serif" font-size="10.00">+ foreach_fwd()</text>
<text text-anchor="start" x="34.5" y="-18.5" font-family="Helvetica,sans-Serif" font-size="10.00">+ foreach_rev()</text>
<text text-anchor="start" x="34.5" y="-7.5" font-family="Helvetica,sans-Serif" font-size="10.00">+ update_valid()</text>
</a>
</g>
</g>
<!-- Node2 -->
<g id="node2" class="node">
<title>Node2</title>
<g id="a_node2"><a xlink:href="structquala_1_1LBFGSStorage.html" target="_top" xlink:title="Layout:">
<polygon fill="white" stroke="#666666" points="0,-391.5 0,-558.5 86,-558.5 86,-391.5 0,-391.5"/>
<text text-anchor="middle" x="43" y="-546.5" font-family="Helvetica,sans-Serif" font-size="10.00">LBFGSStorage</text>
<polyline fill="none" stroke="#666666" points="0,-539.5 86,-539.5 "/>
<text text-anchor="start" x="8" y="-527.5" font-family="Helvetica,sans-Serif" font-size="10.00">+ sto</text>
<polyline fill="none" stroke="#666666" points="0,-520.5 86,-520.5 "/>
<text text-anchor="start" x="8" y="-508.5" font-family="Helvetica,sans-Serif" font-size="10.00">+ resize()</text>
<text text-anchor="start" x="8" y="-497.5" font-family="Helvetica,sans-Serif" font-size="10.00">+ n()</text>
<text text-anchor="start" x="8" y="-486.5" font-family="Helvetica,sans-Serif" font-size="10.00">+ history()</text>
<text text-anchor="start" x="8" y="-475.5" font-family="Helvetica,sans-Serif" font-size="10.00">+ s()</text>
<text text-anchor="start" x="8" y="-464.5" font-family="Helvetica,sans-Serif" font-size="10.00">+ s()</text>
<text text-anchor="start" x="8" y="-453.5" font-family="Helvetica,sans-Serif" font-size="10.00">+ y()</text>
<text text-anchor="start" x="8" y="-442.5" font-family="Helvetica,sans-Serif" font-size="10.00">+ y()</text>
<text text-anchor="start" x="8" y="-431.5" font-family="Helvetica,sans-Serif" font-size="10.00">+ ρ()</text>
<text text-anchor="start" x="8" y="-420.5" font-family="Helvetica,sans-Serif" font-size="10.00">+ ρ()</text>
<text text-anchor="start" x="8" y="-409.5" font-family="Helvetica,sans-Serif" font-size="10.00">+ α()</text>
<text text-anchor="start" x="8" y="-398.5" font-family="Helvetica,sans-Serif" font-size="10.00">+ α()</text>
</a>
</g>
</g>
<!-- Node2&#45;&gt;Node1 -->
<g id="edge1" class="edge">
<title>Node2&#45;&gt;Node1</title>
<path fill="none" stroke="#404040" d="M53.43,-391.35C54.87,-379.94 56.4,-367.88 57.96,-355.51"/>
<polygon fill="none" stroke="#404040" points="57.96,-355.47 54.75,-349.02 59.47,-343.57 62.68,-350.02 57.96,-355.47"/>
<text text-anchor="middle" x="67" y="-365" font-family="Helvetica,sans-Serif" font-size="10.00"> &#45;sto</text>
</g>
<!-- Node3 -->
<g id="node3" class="node">
<title>Node3</title>
<g id="a_node3"><a xlink:href="namespacequala.html#structquala_1_1LBFGSParams" target="_top" xlink:title="Parameters for the LBFGS class.">
<polygon fill="white" stroke="#666666" points="104,-430 104,-520 200,-520 200,-430 104,-430"/>
<text text-anchor="middle" x="152" y="-508" font-family="Helvetica,sans-Serif" font-size="10.00">LBFGSParams</text>
<polyline fill="none" stroke="#666666" points="104,-501 200,-501 "/>
<text text-anchor="start" x="112" y="-489" font-family="Helvetica,sans-Serif" font-size="10.00">+ memory</text>
<text text-anchor="start" x="112" y="-478" font-family="Helvetica,sans-Serif" font-size="10.00">+ min_div_fac</text>
<text text-anchor="start" x="112" y="-467" font-family="Helvetica,sans-Serif" font-size="10.00">+ min_abs_s</text>
<text text-anchor="start" x="112" y="-456" font-family="Helvetica,sans-Serif" font-size="10.00">+ force_pos_def</text>
<polyline fill="none" stroke="#666666" points="104,-449 200,-449 "/>
<text text-anchor="middle" x="152" y="-437" font-family="Helvetica,sans-Serif" font-size="10.00"> </text>
</a>
</g>
</g>
<!-- Node3&#45;&gt;Node1 -->
<g id="edge2" class="edge">
<title>Node3&#45;&gt;Node1</title>
<path fill="none" stroke="#404040" d="M141.6,-429.91C136.73,-409.26 130.57,-383.15 124.05,-355.52"/>
<polygon fill="none" stroke="#404040" points="124,-355.28 118.73,-350.36 121.24,-343.6 126.51,-348.52 124,-355.28"/>
<text text-anchor="middle" x="149" y="-365" font-family="Helvetica,sans-Serif" font-size="10.00"> &#45;params</text>
</g>
<!-- Node4 -->
<g id="node4" class="node">
<title>Node4</title>
<g id="a_node4"><a xlink:href="structquala_1_1LBFGSParams_1_1CBFGSParams.html" target="_top" xlink:title="Cautious BFGS update.">
<polygon fill="white" stroke="#666666" points="101.5,-606.5 101.5,-674.5 202.5,-674.5 202.5,-606.5 101.5,-606.5"/>
<text text-anchor="middle" x="152" y="-662.5" font-family="Helvetica,sans-Serif" font-size="10.00">CBFGSParams</text>
<polyline fill="none" stroke="#666666" points="101.5,-655.5 202.5,-655.5 "/>
<text text-anchor="start" x="109.5" y="-643.5" font-family="Helvetica,sans-Serif" font-size="10.00">+ α</text>
<text text-anchor="start" x="109.5" y="-632.5" font-family="Helvetica,sans-Serif" font-size="10.00">+ ϵ</text>
<polyline fill="none" stroke="#666666" points="101.5,-625.5 202.5,-625.5 "/>
<text text-anchor="start" x="109.5" y="-613.5" font-family="Helvetica,sans-Serif" font-size="10.00">+ operator bool()</text>
</a>
</g>
</g>
<!-- Node4&#45;&gt;Node3 -->
<g id="edge3" class="edge">
<title>Node4&#45;&gt;Node3</title>
<path fill="none" stroke="#404040" d="M152,-606.41C152,-585.18 152,-557.06 152,-532.37"/>
<polygon fill="none" stroke="#404040" points="152,-532.2 148,-526.2 152,-520.2 156,-526.2 152,-532.2"/>
<text text-anchor="middle" x="171" y="-580" font-family="Helvetica,sans-Serif" font-size="10.00"> +cbfgs</text>
</g>
</g>
</svg>
