<?xml version="1.0" encoding="UTF-8" standalone="no"?>
<!DOCTYPE svg PUBLIC "-//W3C//DTD SVG 1.1//EN"
 "http://www.w3.org/Graphics/SVG/1.1/DTD/svg11.dtd">
<!-- Generated by graphviz version 2.43.0 (0)
 -->
<!-- Title: apply Pages: 1 -->
<svg width="498pt" height="249pt"
 viewBox="0.00 0.00 498.00 249.00" xmlns="http://www.w3.org/2000/svg" xmlns:xlink="http://www.w3.org/1999/xlink">
<g id="graph0" class="graph" transform="scale(1 1) rotate(0) translate(4 245)">
<title>apply</title>
<!-- Node1 -->
<g id="node1" class="node">
<title>Node1</title>
<g id="a_node1"><a xlink:title="Apply the inverse Hessian approximation to the given vector q.">
<polygon fill="#999999" stroke="#666666" points="44,-130 0,-130 0,-111 44,-111 44,-130"/>
<text text-anchor="middle" x="22" y="-118" font-family="Helvetica,sans-Serif" font-size="10.00">apply</text>
</a>
</g>
</g>
<!-- Node2 -->
<g id="node2" class="node">
<title>Node2</title>
<g id="a_node2"><a xlink:href="classquala_1_1LBFGS.html#ac7c2ee7d2562303f555dd1f4c3fca8cd" target="_top" xlink:title=" ">
<polygon fill="white" stroke="#666666" points="132.5,-204 103.5,-204 103.5,-185 132.5,-185 132.5,-204"/>
<text text-anchor="middle" x="118" y="-192" font-family="Helvetica,sans-Serif" font-size="10.00">α</text>
</a>
</g>
</g>
<!-- Node1&#45;&gt;Node2 -->
<g id="edge1" class="edge">
<title>Node1&#45;&gt;Node2</title>
<path fill="none" stroke="#63b8ff" d="M31.54,-130.35C42.09,-142.11 60.99,-161.9 80,-175.5 84.44,-178.67 89.48,-181.63 94.38,-184.22"/>
<polygon fill="#63b8ff" stroke="#63b8ff" points="92.93,-187.41 103.44,-188.71 96.04,-181.13 92.93,-187.41"/>
</g>
<!-- Node5 -->
<g id="node5" class="node">
<title>Node5</title>
<g id="a_node5"><a xlink:href="classquala_1_1LBFGS.html#acade3dc51f7ca788be9b91908b2e73ab" target="_top" xlink:title=" ">
<polygon fill="white" stroke="#666666" points="132.5,-167 103.5,-167 103.5,-148 132.5,-148 132.5,-167"/>
<text text-anchor="middle" x="118" y="-155" font-family="Helvetica,sans-Serif" font-size="10.00">ρ</text>
</a>
</g>
</g>
<!-- Node1&#45;&gt;Node5 -->
<g id="edge4" class="edge">
<title>Node1&#45;&gt;Node5</title>
<path fill="none" stroke="#63b8ff" d="M44.33,-128.9C59.03,-134.68 78.56,-142.37 93.67,-148.32"/>
<polygon fill="#63b8ff" stroke="#63b8ff" points="92.73,-151.71 103.32,-152.11 95.29,-145.19 92.73,-151.71"/>
</g>
<!-- Node7 -->
<g id="node7" class="node">
<title>Node7</title>
<g id="a_node7"><a xlink:href="classquala_1_1LBFGS.html#aa871b5290773b86e2e4919bbac258a04" target="_top" xlink:title="Iterate over the indices in the history buffer, oldest first.">
<polygon fill="white" stroke="#666666" points="156,-19 80,-19 80,0 156,0 156,-19"/>
<text text-anchor="middle" x="118" y="-7" font-family="Helvetica,sans-Serif" font-size="10.00">foreach_fwd</text>
</a>
</g>
</g>
<!-- Node1&#45;&gt;Node7 -->
<g id="edge7" class="edge">
<title>Node1&#45;&gt;Node7</title>
<path fill="none" stroke="#63b8ff" d="M26.74,-110.84C34.28,-92.45 52.93,-52.06 80,-27.5 81.12,-26.48 82.32,-25.51 83.56,-24.58"/>
<polygon fill="#63b8ff" stroke="#63b8ff" points="85.67,-27.38 92.27,-19.08 81.94,-21.46 85.67,-27.38"/>
</g>
<!-- Node10 -->
<g id="node10" class="node">
<title>Node10</title>
<g id="a_node10"><a xlink:href="classquala_1_1LBFGS.html#a0804b751cf2035a35f24762474f62cbf" target="_top" xlink:title="Iterate over the indices in the history buffer, newest first.">
<polygon fill="white" stroke="#666666" points="155,-93 81,-93 81,-74 155,-74 155,-93"/>
<text text-anchor="middle" x="118" y="-81" font-family="Helvetica,sans-Serif" font-size="10.00">foreach_rev</text>
</a>
</g>
</g>
<!-- Node1&#45;&gt;Node10 -->
<g id="edge10" class="edge">
<title>Node1&#45;&gt;Node10</title>
<path fill="none" stroke="#63b8ff" d="M44.33,-112.1C55.81,-107.58 70.24,-101.9 83.21,-96.8"/>
<polygon fill="#63b8ff" stroke="#63b8ff" points="84.75,-99.96 92.77,-93.04 82.18,-93.44 84.75,-99.96"/>
</g>
<!-- Node11 -->
<g id="node11" class="node">
<title>Node11</title>
<g id="a_node11"><a xlink:href="classquala_1_1LBFGS.html#a71f7f5e949a948d578ae6f145e4c4914" target="_top" xlink:title="Get the previous index in the circular buffer of s and y vectors.">
<polygon fill="white" stroke="#666666" points="137,-56 99,-56 99,-37 137,-37 137,-56"/>
<text text-anchor="middle" x="118" y="-44" font-family="Helvetica,sans-Serif" font-size="10.00">pred</text>
</a>
</g>
</g>
<!-- Node1&#45;&gt;Node11 -->
<g id="edge12" class="edge">
<title>Node1&#45;&gt;Node11</title>
<path fill="none" stroke="#63b8ff" d="M31.09,-110.81C41.48,-98.81 60.51,-78.26 80,-64.5 82.95,-62.42 86.18,-60.46 89.45,-58.65"/>
<polygon fill="#63b8ff" stroke="#63b8ff" points="91.31,-61.63 98.65,-53.99 88.15,-55.39 91.31,-61.63"/>
</g>
<!-- Node12 -->
<g id="node12" class="node">
<title>Node12</title>
<g id="a_node12"><a xlink:href="classquala_1_1LBFGS.html#a15e4a3db39457cabe764a7737d24e73f" target="_top" xlink:title=" ">
<polygon fill="white" stroke="#666666" points="132.5,-130 103.5,-130 103.5,-111 132.5,-111 132.5,-130"/>
<text text-anchor="middle" x="118" y="-118" font-family="Helvetica,sans-Serif" font-size="10.00">s</text>
</a>
</g>
</g>
<!-- Node1&#45;&gt;Node12 -->
<g id="edge14" class="edge">
<title>Node1&#45;&gt;Node12</title>
<path fill="none" stroke="#63b8ff" d="M44.33,-120.5C58.89,-120.5 78.19,-120.5 93.24,-120.5"/>
<polygon fill="#63b8ff" stroke="#63b8ff" points="93.32,-124 103.32,-120.5 93.32,-117 93.32,-124"/>
</g>
<!-- Node14 -->
<g id="node14" class="node">
<title>Node14</title>
<g id="a_node14"><a xlink:href="classquala_1_1LBFGS.html#aebac2ec4461761a48a7284152a8217f8" target="_top" xlink:title=" ">
<polygon fill="white" stroke="#666666" points="132.5,-241 103.5,-241 103.5,-222 132.5,-222 132.5,-241"/>
<text text-anchor="middle" x="118" y="-229" font-family="Helvetica,sans-Serif" font-size="10.00">y</text>
</a>
</g>
</g>
<!-- Node1&#45;&gt;Node14 -->
<g id="edge17" class="edge">
<title>Node1&#45;&gt;Node14</title>
<path fill="none" stroke="#63b8ff" d="M26.74,-130.16C34.28,-148.55 52.93,-188.94 80,-213.5 84.06,-217.19 89.02,-220.28 93.96,-222.81"/>
<polygon fill="#63b8ff" stroke="#63b8ff" points="92.67,-226.06 103.22,-226.97 95.54,-219.68 92.67,-226.06"/>
</g>
<!-- Node3 -->
<g id="node3" class="node">
<title>Node3</title>
<g id="a_node3"><a xlink:href="structquala_1_1LBFGSStorage.html#ac7c2ee7d2562303f555dd1f4c3fca8cd" target="_top" xlink:title=" ">
<polygon fill="white" stroke="#666666" points="323,-204 192,-204 192,-185 323,-185 323,-204"/>
<text text-anchor="middle" x="257.5" y="-192" font-family="Helvetica,sans-Serif" font-size="10.00">quala::LBFGSStorage::α</text>
</a>
</g>
</g>
<!-- Node2&#45;&gt;Node3 -->
<g id="edge2" class="edge">
<title>Node2&#45;&gt;Node3</title>
<path fill="none" stroke="#63b8ff" d="M132.69,-194.5C144.55,-194.5 162.72,-194.5 181.52,-194.5"/>
<polygon fill="#63b8ff" stroke="#63b8ff" points="181.68,-198 191.68,-194.5 181.68,-191 181.68,-198"/>
</g>
<!-- Node4 -->
<g id="node4" class="node">
<title>Node4</title>
<g id="a_node4"><a xlink:href="structquala_1_1LBFGSStorage.html#a727afc7a58d2e44ae7add57e3fa77bc6" target="_top" xlink:title="Get the size of the s and y vectors in the buffer.">
<polygon fill="white" stroke="#666666" points="490,-185 359,-185 359,-166 490,-166 490,-185"/>
<text text-anchor="middle" x="424.5" y="-173" font-family="Helvetica,sans-Serif" font-size="10.00">quala::LBFGSStorage::n</text>
</a>
</g>
</g>
<!-- Node3&#45;&gt;Node4 -->
<g id="edge3" class="edge">
<title>Node3&#45;&gt;Node4</title>
<path fill="none" stroke="#63b8ff" d="M323.24,-187.05C331.67,-186.07 340.37,-185.07 348.95,-184.08"/>
<polygon fill="#63b8ff" stroke="#63b8ff" points="349.41,-187.55 358.95,-182.93 348.61,-180.6 349.41,-187.55"/>
</g>
<!-- Node6 -->
<g id="node6" class="node">
<title>Node6</title>
<g id="a_node6"><a xlink:href="structquala_1_1LBFGSStorage.html#acade3dc51f7ca788be9b91908b2e73ab" target="_top" xlink:title=" ">
<polygon fill="white" stroke="#666666" points="323,-167 192,-167 192,-148 323,-148 323,-167"/>
<text text-anchor="middle" x="257.5" y="-155" font-family="Helvetica,sans-Serif" font-size="10.00">quala::LBFGSStorage::ρ</text>
</a>
</g>
</g>
<!-- Node5&#45;&gt;Node6 -->
<g id="edge5" class="edge">
<title>Node5&#45;&gt;Node6</title>
<path fill="none" stroke="#63b8ff" d="M132.69,-157.5C144.55,-157.5 162.72,-157.5 181.52,-157.5"/>
<polygon fill="#63b8ff" stroke="#63b8ff" points="181.68,-161 191.68,-157.5 181.68,-154 181.68,-161"/>
</g>
<!-- Node6&#45;&gt;Node4 -->
<g id="edge6" class="edge">
<title>Node6&#45;&gt;Node4</title>
<path fill="none" stroke="#63b8ff" d="M323.24,-164.56C331.67,-165.48 340.37,-166.43 348.95,-167.37"/>
<polygon fill="#63b8ff" stroke="#63b8ff" points="348.63,-170.85 358.95,-168.46 349.39,-163.89 348.63,-170.85"/>
</g>
<!-- Node8 -->
<g id="node8" class="node">
<title>Node8</title>
<g id="a_node8"><a xlink:href="classquala_1_1LBFGS.html#a9cf7dcccbc3bc69a10833450ee79c623" target="_top" xlink:title="Get the number of previous vectors s and y stored in the buffer.">
<polygon fill="white" stroke="#666666" points="282.5,-56 232.5,-56 232.5,-37 282.5,-37 282.5,-56"/>
<text text-anchor="middle" x="257.5" y="-44" font-family="Helvetica,sans-Serif" font-size="10.00">history</text>
</a>
</g>
</g>
<!-- Node7&#45;&gt;Node8 -->
<g id="edge8" class="edge">
<title>Node7&#45;&gt;Node8</title>
<path fill="none" stroke="#63b8ff" d="M154.41,-19.03C175.47,-24.7 202.04,-31.85 222.79,-37.43"/>
<polygon fill="#63b8ff" stroke="#63b8ff" points="221.9,-40.81 232.47,-40.03 223.72,-34.05 221.9,-40.81"/>
</g>
<!-- Node9 -->
<g id="node9" class="node">
<title>Node9</title>
<g id="a_node9"><a xlink:href="structquala_1_1LBFGSStorage.html#a9cf7dcccbc3bc69a10833450ee79c623" target="_top" xlink:title="Get the number of previous vectors s and y stored in the buffer.">
<polygon fill="white" stroke="#666666" points="484,-61.5 365,-61.5 365,-31.5 484,-31.5 484,-61.5"/>
<text text-anchor="start" x="373" y="-49.5" font-family="Helvetica,sans-Serif" font-size="10.00">quala::LBFGSStorage</text>
<text text-anchor="middle" x="424.5" y="-38.5" font-family="Helvetica,sans-Serif" font-size="10.00">::history</text>
</a>
</g>
</g>
<!-- Node8&#45;&gt;Node9 -->
<g id="edge9" class="edge">
<title>Node8&#45;&gt;Node9</title>
<path fill="none" stroke="#63b8ff" d="M282.85,-46.5C301.84,-46.5 329.2,-46.5 354.75,-46.5"/>
<polygon fill="#63b8ff" stroke="#63b8ff" points="354.8,-50 364.8,-46.5 354.8,-43 354.8,-50"/>
</g>
<!-- Node10&#45;&gt;Node8 -->
<g id="edge11" class="edge">
<title>Node10&#45;&gt;Node8</title>
<path fill="none" stroke="#63b8ff" d="M154.41,-73.97C175.47,-68.3 202.04,-61.15 222.79,-55.57"/>
<polygon fill="#63b8ff" stroke="#63b8ff" points="223.72,-58.95 232.47,-52.97 221.9,-52.19 223.72,-58.95"/>
</g>
<!-- Node11&#45;&gt;Node8 -->
<g id="edge13" class="edge">
<title>Node11&#45;&gt;Node8</title>
<path fill="none" stroke="#63b8ff" d="M137.26,-46.5C158.8,-46.5 195.08,-46.5 221.97,-46.5"/>
<polygon fill="#63b8ff" stroke="#63b8ff" points="222.13,-50 232.13,-46.5 222.13,-43 222.13,-50"/>
</g>
<!-- Node13 -->
<g id="node13" class="node">
<title>Node13</title>
<g id="a_node13"><a xlink:href="structquala_1_1LBFGSStorage.html#a15e4a3db39457cabe764a7737d24e73f" target="_top" xlink:title=" ">
<polygon fill="white" stroke="#666666" points="322.5,-130 192.5,-130 192.5,-111 322.5,-111 322.5,-130"/>
<text text-anchor="middle" x="257.5" y="-118" font-family="Helvetica,sans-Serif" font-size="10.00">quala::LBFGSStorage::s</text>
</a>
</g>
</g>
<!-- Node12&#45;&gt;Node13 -->
<g id="edge15" class="edge">
<title>Node12&#45;&gt;Node13</title>
<path fill="none" stroke="#63b8ff" d="M132.69,-120.5C144.72,-120.5 163.24,-120.5 182.33,-120.5"/>
<polygon fill="#63b8ff" stroke="#63b8ff" points="182.33,-124 192.33,-120.5 182.33,-117 182.33,-124"/>
</g>
<!-- Node13&#45;&gt;Node4 -->
<g id="edge16" class="edge">
<title>Node13&#45;&gt;Node4</title>
<path fill="none" stroke="#63b8ff" d="M294.81,-130.08C304.05,-132.67 313.93,-135.57 323,-138.5 345.45,-145.75 370.33,-154.9 389.72,-162.29"/>
<polygon fill="#63b8ff" stroke="#63b8ff" points="388.73,-165.66 399.32,-165.97 391.24,-159.12 388.73,-165.66"/>
</g>
<!-- Node15 -->
<g id="node15" class="node">
<title>Node15</title>
<g id="a_node15"><a xlink:href="structquala_1_1LBFGSStorage.html#aebac2ec4461761a48a7284152a8217f8" target="_top" xlink:title=" ">
<polygon fill="white" stroke="#666666" points="323,-241 192,-241 192,-222 323,-222 323,-241"/>
<text text-anchor="middle" x="257.5" y="-229" font-family="Helvetica,sans-Serif" font-size="10.00">quala::LBFGSStorage::y</text>
</a>
</g>
</g>
<!-- Node14&#45;&gt;Node15 -->
<g id="edge18" class="edge">
<title>Node14&#45;&gt;Node15</title>
<path fill="none" stroke="#63b8ff" d="M132.69,-231.5C144.55,-231.5 162.72,-231.5 181.52,-231.5"/>
<polygon fill="#63b8ff" stroke="#63b8ff" points="181.68,-235 191.68,-231.5 181.68,-228 181.68,-235"/>
</g>
<!-- Node15&#45;&gt;Node4 -->
<g id="edge19" class="edge">
<title>Node15&#45;&gt;Node4</title>
<path fill="none" stroke="#63b8ff" d="M294.83,-221.97C304.07,-219.38 313.94,-216.47 323,-213.5 345.9,-205.99 371.27,-196.39 390.8,-188.71"/>
<polygon fill="#63b8ff" stroke="#63b8ff" points="392.15,-191.94 400.16,-185.01 389.57,-185.43 392.15,-191.94"/>
</g>
</g>
</svg>
