<?xml version="1.0" encoding="UTF-8" standalone="no"?>
<!DOCTYPE svg PUBLIC "-//W3C//DTD SVG 1.1//EN"
 "http://www.w3.org/Graphics/SVG/1.1/DTD/svg11.dtd">
<!-- Generated by graphviz version 2.43.0 (0)
 -->
<!-- Title: BroydenGood Pages: 1 -->
<svg width="513pt" height="113pt"
 viewBox="0.00 0.00 513.00 112.50" xmlns="http://www.w3.org/2000/svg" xmlns:xlink="http://www.w3.org/1999/xlink">
<g id="graph0" class="graph" transform="scale(1 1) rotate(0) translate(4 108.5)">
<title>BroydenGood</title>
<!-- Node1 -->
<g id="node1" class="node">
<title>Node1</title>
<g id="a_node1"><a xlink:title=" ">
<polygon fill="#999999" stroke="#666666" points="83,-85.5 0,-85.5 0,-66.5 83,-66.5 83,-85.5"/>
<text text-anchor="middle" x="41.5" y="-73.5" font-family="Helvetica,sans-Serif" font-size="10.00">BroydenGood</text>
</a>
</g>
</g>
<!-- Node2 -->
<g id="node2" class="node">
<title>Node2</title>
<g id="a_node2"><a xlink:href="classquala_1_1BroydenGood.html#a727afc7a58d2e44ae7add57e3fa77bc6" target="_top" xlink:title="Get the size of the s and y vectors in the buffer.">
<polygon fill="white" stroke="#666666" points="279.5,-104.5 250.5,-104.5 250.5,-85.5 279.5,-85.5 279.5,-104.5"/>
<text text-anchor="middle" x="265" y="-92.5" font-family="Helvetica,sans-Serif" font-size="10.00">n</text>
</a>
</g>
</g>
<!-- Node1&#45;&gt;Node2 -->
<g id="edge1" class="edge">
<title>Node1&#45;&gt;Node2</title>
<path fill="none" stroke="#63b8ff" d="M83.13,-79.48C129.28,-83.44 203.03,-89.77 240.5,-92.98"/>
<polygon fill="#63b8ff" stroke="#63b8ff" points="240.21,-96.47 250.47,-93.84 240.81,-89.5 240.21,-96.47"/>
</g>
<!-- Node4 -->
<g id="node4" class="node">
<title>Node4</title>
<g id="a_node4"><a xlink:href="classquala_1_1BroydenGood.html#abfe51417fbebd259808f86d27f1d7ec5" target="_top" xlink:title="Re&#45;allocate storage for a problem with a different size.">
<polygon fill="white" stroke="#666666" points="165,-66.5 119,-66.5 119,-47.5 165,-47.5 165,-66.5"/>
<text text-anchor="middle" x="142" y="-54.5" font-family="Helvetica,sans-Serif" font-size="10.00">resize</text>
</a>
</g>
</g>
<!-- Node1&#45;&gt;Node4 -->
<g id="edge3" class="edge">
<title>Node1&#45;&gt;Node4</title>
<path fill="none" stroke="#63b8ff" d="M83.13,-68.16C91.7,-66.51 100.63,-64.79 108.84,-63.2"/>
<polygon fill="#63b8ff" stroke="#63b8ff" points="109.61,-66.62 118.77,-61.29 108.28,-59.75 109.61,-66.62"/>
</g>
<!-- Node3 -->
<g id="node3" class="node">
<title>Node3</title>
<g id="a_node3"><a xlink:href="structquala_1_1BroydenStorage.html#a727afc7a58d2e44ae7add57e3fa77bc6" target="_top" xlink:title="Get the size of the s and s̃ vectors in the buffer.">
<polygon fill="white" stroke="#666666" points="505,-85.5 365,-85.5 365,-66.5 505,-66.5 505,-85.5"/>
<text text-anchor="middle" x="435" y="-73.5" font-family="Helvetica,sans-Serif" font-size="10.00">quala::BroydenStorage::n</text>
</a>
</g>
</g>
<!-- Node2&#45;&gt;Node3 -->
<g id="edge2" class="edge">
<title>Node2&#45;&gt;Node3</title>
<path fill="none" stroke="#63b8ff" d="M279.75,-93.45C296.43,-91.56 325.91,-88.22 354.66,-84.97"/>
<polygon fill="#63b8ff" stroke="#63b8ff" points="355.23,-88.43 364.78,-83.83 354.45,-81.47 355.23,-88.43"/>
</g>
<!-- Node4&#45;&gt;Node2 -->
<g id="edge4" class="edge">
<title>Node4&#45;&gt;Node2</title>
<path fill="none" stroke="#63b8ff" d="M165.22,-64.97C175.98,-68.76 189.11,-73.26 201,-77 214.09,-81.12 228.84,-85.36 240.77,-88.68"/>
<polygon fill="#63b8ff" stroke="#63b8ff" points="239.85,-92.06 250.42,-91.35 241.71,-85.31 239.85,-92.06"/>
</g>
<!-- Node5 -->
<g id="node5" class="node">
<title>Node5</title>
<g id="a_node5"><a xlink:href="classquala_1_1BroydenGood.html#ad20897c5c8bd47f5d4005989bead0e55" target="_top" xlink:title="Throw away the approximation and all previous vectors s and y.">
<polygon fill="white" stroke="#666666" points="285.5,-67.5 244.5,-67.5 244.5,-48.5 285.5,-48.5 285.5,-67.5"/>
<text text-anchor="middle" x="265" y="-55.5" font-family="Helvetica,sans-Serif" font-size="10.00">reset</text>
</a>
</g>
</g>
<!-- Node4&#45;&gt;Node5 -->
<g id="edge5" class="edge">
<title>Node4&#45;&gt;Node5</title>
<path fill="none" stroke="#63b8ff" d="M165.19,-57.18C184.57,-57.34 212.85,-57.58 234.2,-57.75"/>
<polygon fill="#63b8ff" stroke="#63b8ff" points="234.32,-61.25 244.35,-57.84 234.38,-54.25 234.32,-61.25"/>
</g>
<!-- Node6 -->
<g id="node6" class="node">
<title>Node6</title>
<g id="a_node6"><a xlink:href="structquala_1_1BroydenStorage.html#a48072fa680a2364d8ce96eb84a5d5689" target="_top" xlink:title="Re&#45;allocate storage for a problem with a different size.">
<polygon fill="white" stroke="#666666" points="329,-30 201,-30 201,0 329,0 329,-30"/>
<text text-anchor="start" x="209" y="-18" font-family="Helvetica,sans-Serif" font-size="10.00">quala::BroydenStorage</text>
<text text-anchor="middle" x="265" y="-7" font-family="Helvetica,sans-Serif" font-size="10.00">::resize</text>
</a>
</g>
</g>
<!-- Node4&#45;&gt;Node6 -->
<g id="edge6" class="edge">
<title>Node4&#45;&gt;Node6</title>
<path fill="none" stroke="#63b8ff" d="M165.19,-49.3C177.96,-44.86 194.6,-39.09 210.57,-33.55"/>
<polygon fill="#63b8ff" stroke="#63b8ff" points="212.09,-36.72 220.39,-30.14 209.79,-30.11 212.09,-36.72"/>
</g>
<!-- Node6&#45;&gt;Node3 -->
<g id="edge8" class="edge">
<title>Node6&#45;&gt;Node3</title>
<path fill="none" stroke="#63b8ff" d="M307.53,-30.08C335.27,-40.15 371.4,-53.27 397.94,-62.91"/>
<polygon fill="#63b8ff" stroke="#63b8ff" points="397.01,-66.29 407.6,-66.42 399.4,-59.71 397.01,-66.29"/>
</g>
<!-- Node7 -->
<g id="node7" class="node">
<title>Node7</title>
<g id="a_node7"><a xlink:href="structquala_1_1BroydenStorage.html#a9cf7dcccbc3bc69a10833450ee79c623" target="_top" xlink:title="Get the number of previous vectors s and s̃ stored in the buffer.">
<polygon fill="white" stroke="#666666" points="499,-30 371,-30 371,0 499,0 499,-30"/>
<text text-anchor="start" x="379" y="-18" font-family="Helvetica,sans-Serif" font-size="10.00">quala::BroydenStorage</text>
<text text-anchor="middle" x="435" y="-7" font-family="Helvetica,sans-Serif" font-size="10.00">::history</text>
</a>
</g>
</g>
<!-- Node6&#45;&gt;Node7 -->
<g id="edge7" class="edge">
<title>Node6&#45;&gt;Node7</title>
<path fill="none" stroke="#63b8ff" d="M329.03,-15C339.41,-15 350.23,-15 360.83,-15"/>
<polygon fill="#63b8ff" stroke="#63b8ff" points="360.89,-18.5 370.89,-15 360.89,-11.5 360.89,-18.5"/>
</g>
</g>
</svg>
