<?xml version="1.0" encoding="UTF-8" standalone="no"?>
<!DOCTYPE svg PUBLIC "-//W3C//DTD SVG 1.1//EN"
 "http://www.w3.org/Graphics/SVG/1.1/DTD/svg11.dtd">
<!-- Generated by graphviz version 2.43.0 (0)
 -->
<!-- Title: compute Pages: 1 -->
<svg width="961pt" height="360pt"
 viewBox="0.00 0.00 961.00 360.48" xmlns="http://www.w3.org/2000/svg" xmlns:xlink="http://www.w3.org/1999/xlink">
<g id="graph0" class="graph" transform="scale(1 1) rotate(0) translate(4 356.48)">
<title>compute</title>
<!-- Node1 -->
<g id="node1" class="node">
<title>Node1</title>
<g id="a_node1"><a xlink:title="Compute the accelerated iterate , given the function value at the current iterate &#160;and the correspond...">
<polygon fill="#999999" stroke="#666666" points="59,-182.5 0,-182.5 0,-163.5 59,-163.5 59,-182.5"/>
<text text-anchor="middle" x="29.5" y="-170.5" font-family="Helvetica,sans-Serif" font-size="10.00">compute</text>
</a>
</g>
</g>
<!-- Node2 -->
<g id="node2" class="node">
<title>Node2</title>
<g id="a_node2"><a xlink:href="namespacequala.html#a1531e5151ab5526f7085a9e95d00bda5" target="_top" xlink:title="Solve one step of Anderson acceleration to find a fixed point of a function g(x):">
<polygon fill="white" stroke="#666666" points="229,-188 95,-188 95,-158 229,-158 229,-188"/>
<text text-anchor="start" x="103" y="-176" font-family="Helvetica,sans-Serif" font-size="10.00">quala::minimize_update</text>
<text text-anchor="middle" x="162" y="-165" font-family="Helvetica,sans-Serif" font-size="10.00">_anderson</text>
</a>
</g>
</g>
<!-- Node1&#45;&gt;Node2 -->
<g id="edge1" class="edge">
<title>Node1&#45;&gt;Node2</title>
<path fill="none" stroke="#63b8ff" d="M59.14,-173C66.96,-173 75.83,-173 84.98,-173"/>
<polygon fill="#63b8ff" stroke="#63b8ff" points="84.99,-176.5 94.99,-173 84.99,-169.5 84.99,-176.5"/>
</g>
<!-- Node3 -->
<g id="node3" class="node">
<title>Node3</title>
<g id="a_node3"><a xlink:href="classquala_1_1LimitedMemoryQR.html#a5e3077223e98c1e4e286e01503f220d5" target="_top" xlink:title="Add the given column to the right.">
<polygon fill="white" stroke="#666666" points="406,-298 265,-298 265,-268 406,-268 406,-298"/>
<text text-anchor="start" x="273" y="-286" font-family="Helvetica,sans-Serif" font-size="10.00">quala::LimitedMemoryQR</text>
<text text-anchor="middle" x="335.5" y="-275" font-family="Helvetica,sans-Serif" font-size="10.00">::add_column</text>
</a>
</g>
</g>
<!-- Node2&#45;&gt;Node3 -->
<g id="edge2" class="edge">
<title>Node2&#45;&gt;Node3</title>
<path fill="none" stroke="#63b8ff" d="M177.23,-188.02C195.82,-206.89 230.16,-239.21 265,-259 268.03,-260.72 271.21,-262.35 274.47,-263.89"/>
<polygon fill="#63b8ff" stroke="#63b8ff" points="273.24,-267.17 283.8,-267.96 276.04,-260.75 273.24,-267.17"/>
</g>
<!-- Node4 -->
<g id="node4" class="node">
<title>Node4</title>
<g id="a_node4"><a xlink:href="classquala_1_1LimitedMemoryQR.html#ac397ae83f5f4dd3d5cf9926f26acfb2d" target="_top" xlink:title=" ">
<polygon fill="white" stroke="#666666" points="953,-277.5 796,-277.5 796,-258.5 953,-258.5 953,-277.5"/>
<text text-anchor="middle" x="874.5" y="-265.5" font-family="Helvetica,sans-Serif" font-size="10.00">quala::LimitedMemoryQR::m</text>
</a>
</g>
</g>
<!-- Node2&#45;&gt;Node4 -->
<g id="edge8" class="edge">
<title>Node2&#45;&gt;Node4</title>
<path fill="none" stroke="#63b8ff" d="M169.11,-188.34C181.81,-217.85 214.18,-281.82 265,-307 463.79,-405.51 744.93,-316.58 840.35,-281.1"/>
<polygon fill="#63b8ff" stroke="#63b8ff" points="841.65,-284.35 849.77,-277.54 839.17,-277.8 841.65,-284.35"/>
</g>
<!-- Node5 -->
<g id="node5" class="node">
<title>Node5</title>
<g id="a_node5"><a xlink:href="classquala_1_1LimitedMemoryQR.html#a24829df3eaf3f15bd3c677781348b14d" target="_top" xlink:title="Get the number of columns that are currently stored.">
<polygon fill="white" stroke="#666666" points="583,-212 442,-212 442,-182 583,-182 583,-212"/>
<text text-anchor="start" x="450" y="-200" font-family="Helvetica,sans-Serif" font-size="10.00">quala::LimitedMemoryQR</text>
<text text-anchor="middle" x="512.5" y="-189" font-family="Helvetica,sans-Serif" font-size="10.00">::num_columns</text>
</a>
</g>
</g>
<!-- Node2&#45;&gt;Node5 -->
<g id="edge9" class="edge">
<title>Node2&#45;&gt;Node5</title>
<path fill="none" stroke="#63b8ff" d="M229.37,-177.57C286.99,-181.54 370.55,-187.29 431.78,-191.51"/>
<polygon fill="#63b8ff" stroke="#63b8ff" points="431.58,-195 441.79,-192.2 432.06,-188.02 431.58,-195"/>
</g>
<!-- Node7 -->
<g id="node7" class="node">
<title>Node7</title>
<g id="a_node7"><a xlink:href="classquala_1_1LimitedMemoryQR.html#a9def1a850eb12c2e0347b0680866eab1" target="_top" xlink:title="Get the maximum eigenvalue of R.">
<polygon fill="white" stroke="#666666" points="406,-78 265,-78 265,-48 406,-48 406,-78"/>
<text text-anchor="start" x="273" y="-66" font-family="Helvetica,sans-Serif" font-size="10.00">quala::LimitedMemoryQR</text>
<text text-anchor="middle" x="335.5" y="-55" font-family="Helvetica,sans-Serif" font-size="10.00">::get_max_eig</text>
</a>
</g>
</g>
<!-- Node2&#45;&gt;Node7 -->
<g id="edge7" class="edge">
<title>Node2&#45;&gt;Node7</title>
<path fill="none" stroke="#63b8ff" d="M177.23,-157.98C195.82,-139.11 230.16,-106.79 265,-87 268.03,-85.28 271.21,-83.65 274.47,-82.11"/>
<polygon fill="#63b8ff" stroke="#63b8ff" points="276.04,-85.25 283.8,-78.04 273.24,-78.83 276.04,-85.25"/>
</g>
<!-- Node8 -->
<g id="node8" class="node">
<title>Node8</title>
<g id="a_node8"><a xlink:href="classquala_1_1LimitedMemoryQR.html#a436c4dbbf0476354ca67a104bc005e55" target="_top" xlink:title="Remove the leftmost column.">
<polygon fill="white" stroke="#666666" points="406,-250 265,-250 265,-220 406,-220 406,-250"/>
<text text-anchor="start" x="273" y="-238" font-family="Helvetica,sans-Serif" font-size="10.00">quala::LimitedMemoryQR</text>
<text text-anchor="middle" x="335.5" y="-227" font-family="Helvetica,sans-Serif" font-size="10.00">::remove_column</text>
</a>
</g>
</g>
<!-- Node2&#45;&gt;Node8 -->
<g id="edge10" class="edge">
<title>Node2&#45;&gt;Node8</title>
<path fill="none" stroke="#63b8ff" d="M204.52,-188.01C228.14,-196.55 257.94,-207.32 283.05,-216.4"/>
<polygon fill="#63b8ff" stroke="#63b8ff" points="282.18,-219.81 292.77,-219.91 284.56,-213.22 282.18,-219.81"/>
</g>
<!-- Node9 -->
<g id="node9" class="node">
<title>Node9</title>
<g id="a_node9"><a xlink:href="classquala_1_1LimitedMemoryQR.html#a0bf0ad441ec87440e4525e75de00d053" target="_top" xlink:title="Get iterators in the circular buffer.">
<polygon fill="white" stroke="#666666" points="760,-150 619,-150 619,-120 760,-120 760,-150"/>
<text text-anchor="start" x="627" y="-138" font-family="Helvetica,sans-Serif" font-size="10.00">quala::LimitedMemoryQR</text>
<text text-anchor="middle" x="689.5" y="-127" font-family="Helvetica,sans-Serif" font-size="10.00">::ring_iter</text>
</a>
</g>
</g>
<!-- Node2&#45;&gt;Node9 -->
<g id="edge13" class="edge">
<title>Node2&#45;&gt;Node9</title>
<path fill="none" stroke="#63b8ff" d="M229.02,-168.23C325.6,-161.24 505.13,-148.26 608.88,-140.76"/>
<polygon fill="#63b8ff" stroke="#63b8ff" points="609.27,-144.24 618.99,-140.03 608.76,-137.26 609.27,-144.24"/>
</g>
<!-- Node10 -->
<g id="node10" class="node">
<title>Node10</title>
<g id="a_node10"><a xlink:href="classquala_1_1LimitedMemoryQR.html#a8a153a1f58e5c5879095a4c3799b6f49" target="_top" xlink:title="Get the tail index of the circular buffer (points to one past the most recent element).">
<polygon fill="white" stroke="#666666" points="406,-30 265,-30 265,0 406,0 406,-30"/>
<text text-anchor="start" x="273" y="-18" font-family="Helvetica,sans-Serif" font-size="10.00">quala::LimitedMemoryQR</text>
<text text-anchor="middle" x="335.5" y="-7" font-family="Helvetica,sans-Serif" font-size="10.00">::ring_tail</text>
</a>
</g>
</g>
<!-- Node2&#45;&gt;Node10 -->
<g id="edge15" class="edge">
<title>Node2&#45;&gt;Node10</title>
<path fill="none" stroke="#63b8ff" d="M170.64,-157.8C185.25,-130.21 219.76,-71.73 265,-39 267.08,-37.49 269.26,-36.08 271.52,-34.74"/>
<polygon fill="#63b8ff" stroke="#63b8ff" points="273.31,-37.76 280.53,-30.01 270.05,-31.56 273.31,-37.76"/>
</g>
<!-- Node11 -->
<g id="node11" class="node">
<title>Node11</title>
<g id="a_node11"><a xlink:href="classquala_1_1LimitedMemoryQR.html#a5e3322cd9c833dc65702b574640eefe1" target="_top" xlink:title="Solve the least squares problem Ax = b.">
<polygon fill="white" stroke="#666666" points="406,-126 265,-126 265,-96 406,-96 406,-126"/>
<text text-anchor="start" x="273" y="-114" font-family="Helvetica,sans-Serif" font-size="10.00">quala::LimitedMemoryQR</text>
<text text-anchor="middle" x="335.5" y="-103" font-family="Helvetica,sans-Serif" font-size="10.00">::solve_col</text>
</a>
</g>
</g>
<!-- Node2&#45;&gt;Node11 -->
<g id="edge16" class="edge">
<title>Node2&#45;&gt;Node11</title>
<path fill="none" stroke="#63b8ff" d="M204.52,-157.99C228.14,-149.45 257.94,-138.68 283.05,-129.6"/>
<polygon fill="#63b8ff" stroke="#63b8ff" points="284.56,-132.78 292.77,-126.09 282.18,-126.19 284.56,-132.78"/>
</g>
<!-- Node3&#45;&gt;Node4 -->
<g id="edge3" class="edge">
<title>Node3&#45;&gt;Node4</title>
<path fill="none" stroke="#63b8ff" d="M406.15,-281.05C503.34,-278.34 679.59,-273.42 785.67,-270.45"/>
<polygon fill="#63b8ff" stroke="#63b8ff" points="785.81,-273.95 795.71,-270.17 785.61,-266.95 785.81,-273.95"/>
</g>
<!-- Node3&#45;&gt;Node5 -->
<g id="edge4" class="edge">
<title>Node3&#45;&gt;Node5</title>
<path fill="none" stroke="#63b8ff" d="M389.02,-267.95C394.95,-265.36 400.74,-262.39 406,-259 425.56,-246.4 422.44,-233.6 442,-221 444.46,-219.41 447.05,-217.92 449.7,-216.51"/>
<polygon fill="#63b8ff" stroke="#63b8ff" points="451.48,-219.54 458.98,-212.05 448.45,-213.23 451.48,-219.54"/>
</g>
<!-- Node6 -->
<g id="node6" class="node">
<title>Node6</title>
<g id="a_node6"><a xlink:href="classquala_1_1LimitedMemoryQR.html#a9f68bead8c70041aacb90dd175150dc4" target="_top" xlink:title="Get the next index in the circular storage for R.">
<polygon fill="white" stroke="#666666" points="583,-260 442,-260 442,-230 583,-230 583,-260"/>
<text text-anchor="start" x="450" y="-248" font-family="Helvetica,sans-Serif" font-size="10.00">quala::LimitedMemoryQR</text>
<text text-anchor="middle" x="512.5" y="-237" font-family="Helvetica,sans-Serif" font-size="10.00">::r_succ</text>
</a>
</g>
</g>
<!-- Node3&#45;&gt;Node6 -->
<g id="edge5" class="edge">
<title>Node3&#45;&gt;Node6</title>
<path fill="none" stroke="#63b8ff" d="M405.66,-267.98C414.41,-266.08 423.41,-264.13 432.3,-262.2"/>
<polygon fill="#63b8ff" stroke="#63b8ff" points="433.24,-265.58 442.26,-260.03 431.75,-258.74 433.24,-265.58"/>
</g>
<!-- Node6&#45;&gt;Node4 -->
<g id="edge6" class="edge">
<title>Node6&#45;&gt;Node4</title>
<path fill="none" stroke="#63b8ff" d="M583.34,-249.46C641.06,-253.15 723.33,-258.41 785.54,-262.38"/>
<polygon fill="#63b8ff" stroke="#63b8ff" points="785.53,-265.89 795.74,-263.03 785.98,-258.9 785.53,-265.89"/>
</g>
<!-- Node8&#45;&gt;Node5 -->
<g id="edge11" class="edge">
<title>Node8&#45;&gt;Node5</title>
<path fill="none" stroke="#63b8ff" d="M405.66,-219.98C414.41,-218.08 423.41,-216.13 432.3,-214.2"/>
<polygon fill="#63b8ff" stroke="#63b8ff" points="433.24,-217.58 442.26,-212.03 431.75,-210.74 433.24,-217.58"/>
</g>
<!-- Node8&#45;&gt;Node6 -->
<g id="edge12" class="edge">
<title>Node8&#45;&gt;Node6</title>
<path fill="none" stroke="#63b8ff" d="M406.17,-238.98C414.5,-239.46 423.06,-239.95 431.53,-240.43"/>
<polygon fill="#63b8ff" stroke="#63b8ff" points="431.6,-243.94 441.79,-241.02 432,-236.95 431.6,-243.94"/>
</g>
<!-- Node9&#45;&gt;Node4 -->
<g id="edge14" class="edge">
<title>Node9&#45;&gt;Node4</title>
<path fill="none" stroke="#63b8ff" d="M711.49,-150.26C746.46,-175.67 816.28,-226.41 851.74,-252.19"/>
<polygon fill="#63b8ff" stroke="#63b8ff" points="849.83,-255.13 859.98,-258.17 853.95,-249.46 849.83,-255.13"/>
</g>
<!-- Node11&#45;&gt;Node9 -->
<g id="edge17" class="edge">
<title>Node11&#45;&gt;Node9</title>
<path fill="none" stroke="#63b8ff" d="M406.04,-115.74C464.41,-119.72 547.78,-125.41 608.82,-129.57"/>
<polygon fill="#63b8ff" stroke="#63b8ff" points="608.59,-133.06 618.8,-130.25 609.06,-126.08 608.59,-133.06"/>
</g>
<!-- Node12 -->
<g id="node12" class="node">
<title>Node12</title>
<g id="a_node12"><a xlink:href="classquala_1_1LimitedMemoryQR.html#ae8160acf26958eb65aa5c0743dd2826d" target="_top" xlink:title="Get reverse iterators in the circular buffer.">
<polygon fill="white" stroke="#666666" points="583,-88 442,-88 442,-58 583,-58 583,-88"/>
<text text-anchor="start" x="450" y="-76" font-family="Helvetica,sans-Serif" font-size="10.00">quala::LimitedMemoryQR</text>
<text text-anchor="middle" x="512.5" y="-65" font-family="Helvetica,sans-Serif" font-size="10.00">::ring_reverse_iter</text>
</a>
</g>
</g>
<!-- Node11&#45;&gt;Node12 -->
<g id="edge18" class="edge">
<title>Node11&#45;&gt;Node12</title>
<path fill="none" stroke="#63b8ff" d="M405.66,-95.98C414.41,-94.08 423.41,-92.13 432.3,-90.2"/>
<polygon fill="#63b8ff" stroke="#63b8ff" points="433.24,-93.58 442.26,-88.03 431.75,-86.74 433.24,-93.58"/>
</g>
<!-- Node12&#45;&gt;Node9 -->
<g id="edge19" class="edge">
<title>Node12&#45;&gt;Node9</title>
<path fill="none" stroke="#63b8ff" d="M555.86,-88.01C580.08,-96.59 610.65,-107.42 636.34,-116.52"/>
<polygon fill="#63b8ff" stroke="#63b8ff" points="635.33,-119.87 645.92,-119.91 637.66,-113.28 635.33,-119.87"/>
</g>
</g>
</svg>
