<?xml version="1.0" encoding="UTF-8" standalone="no"?>
<!DOCTYPE svg PUBLIC "-//W3C//DTD SVG 1.1//EN"
 "http://www.w3.org/Graphics/SVG/1.1/DTD/svg11.dtd">
<!-- Generated by graphviz version 2.43.0 (0)
 -->
<!-- Title: update_sy Pages: 1 -->
<svg width="692pt" height="277pt"
 viewBox="0.00 0.00 692.00 276.79" xmlns="http://www.w3.org/2000/svg" xmlns:xlink="http://www.w3.org/1999/xlink">
<g id="graph0" class="graph" transform="scale(1 1) rotate(0) translate(4 272.79)">
<title>update_sy</title>
<!-- Node1 -->
<g id="node1" class="node">
<title>Node1</title>
<g id="a_node1"><a xlink:title="Update the inverse Hessian approximation using the new vectors sₖ = xₖ₊₁ &#45; xₖ and yₖ = pₖ₊₁ &#45; pₖ.">
<polygon fill="#999999" stroke="#666666" points="67,-150 0,-150 0,-131 67,-131 67,-150"/>
<text text-anchor="middle" x="33.5" y="-138" font-family="Helvetica,sans-Serif" font-size="10.00">update_sy</text>
</a>
</g>
</g>
<!-- Node2 -->
<g id="node2" class="node">
<title>Node2</title>
<g id="a_node2"><a xlink:href="structquala_1_1LBFGSStorage.html#acade3dc51f7ca788be9b91908b2e73ab" target="_top" xlink:title=" ">
<polygon fill="white" stroke="#666666" points="350,-245 219,-245 219,-226 350,-226 350,-245"/>
<text text-anchor="middle" x="284.5" y="-233" font-family="Helvetica,sans-Serif" font-size="10.00">quala::LBFGSStorage::ρ</text>
</a>
</g>
</g>
<!-- Node1&#45;&gt;Node2 -->
<g id="edge1" class="edge">
<title>Node1&#45;&gt;Node2</title>
<path fill="none" stroke="#63b8ff" d="M36.85,-150.17C43.04,-173.26 62.2,-231.42 103,-254.5 150.2,-281.21 215.53,-263.41 253.27,-248.88"/>
<polygon fill="#63b8ff" stroke="#63b8ff" points="254.71,-252.07 262.69,-245.1 252.11,-245.58 254.71,-252.07"/>
</g>
<!-- Node4 -->
<g id="node4" class="node">
<title>Node4</title>
<g id="a_node4"><a xlink:href="classquala_1_1LBFGS.html#acade3dc51f7ca788be9b91908b2e73ab" target="_top" xlink:title=" ">
<polygon fill="white" stroke="#666666" points="157.5,-245 128.5,-245 128.5,-226 157.5,-226 157.5,-245"/>
<text text-anchor="middle" x="143" y="-233" font-family="Helvetica,sans-Serif" font-size="10.00">ρ</text>
</a>
</g>
</g>
<!-- Node1&#45;&gt;Node4 -->
<g id="edge3" class="edge">
<title>Node1&#45;&gt;Node4</title>
<path fill="none" stroke="#63b8ff" d="M42.68,-150.45C54.87,-164.92 78.98,-192.17 103,-211.5 108.08,-215.59 113.91,-219.52 119.48,-222.97"/>
<polygon fill="#63b8ff" stroke="#63b8ff" points="118.06,-226.2 128.45,-228.28 121.63,-220.18 118.06,-226.2"/>
</g>
<!-- Node5 -->
<g id="node5" class="node">
<title>Node5</title>
<g id="a_node5"><a xlink:href="structquala_1_1LBFGSStorage.html#a15e4a3db39457cabe764a7737d24e73f" target="_top" xlink:title=" ">
<polygon fill="white" stroke="#666666" points="349.5,-181 219.5,-181 219.5,-162 349.5,-162 349.5,-181"/>
<text text-anchor="middle" x="284.5" y="-169" font-family="Helvetica,sans-Serif" font-size="10.00">quala::LBFGSStorage::s</text>
</a>
</g>
</g>
<!-- Node1&#45;&gt;Node5 -->
<g id="edge5" class="edge">
<title>Node1&#45;&gt;Node5</title>
<path fill="none" stroke="#63b8ff" d="M47.29,-150.22C60.44,-159.57 81.93,-173.05 103,-178.5 142.38,-188.69 188.18,-186.76 223.8,-182.37"/>
<polygon fill="#63b8ff" stroke="#63b8ff" points="224.58,-185.8 234.03,-181.01 223.66,-178.86 224.58,-185.8"/>
</g>
<!-- Node6 -->
<g id="node6" class="node">
<title>Node6</title>
<g id="a_node6"><a xlink:href="classquala_1_1LBFGS.html#a15e4a3db39457cabe764a7737d24e73f" target="_top" xlink:title=" ">
<polygon fill="white" stroke="#666666" points="157.5,-169 128.5,-169 128.5,-150 157.5,-150 157.5,-169"/>
<text text-anchor="middle" x="143" y="-157" font-family="Helvetica,sans-Serif" font-size="10.00">s</text>
</a>
</g>
</g>
<!-- Node1&#45;&gt;Node6 -->
<g id="edge7" class="edge">
<title>Node1&#45;&gt;Node6</title>
<path fill="none" stroke="#63b8ff" d="M67.05,-146.25C83.55,-149.17 103.24,-152.65 118.3,-155.31"/>
<polygon fill="#63b8ff" stroke="#63b8ff" points="117.87,-158.79 128.33,-157.08 119.09,-151.9 117.87,-158.79"/>
</g>
<!-- Node7 -->
<g id="node7" class="node">
<title>Node7</title>
<g id="a_node7"><a xlink:href="classquala_1_1LBFGS.html#a70926baed7362e4fcce66523bb8e2842" target="_top" xlink:title="Get the next index in the circular buffer of previous s and y vectors.">
<polygon fill="white" stroke="#666666" points="162,-132 124,-132 124,-113 162,-113 162,-132"/>
<text text-anchor="middle" x="143" y="-120" font-family="Helvetica,sans-Serif" font-size="10.00">succ</text>
</a>
</g>
</g>
<!-- Node1&#45;&gt;Node7 -->
<g id="edge9" class="edge">
<title>Node1&#45;&gt;Node7</title>
<path fill="none" stroke="#63b8ff" d="M67.05,-135.05C81.92,-132.56 99.37,-129.64 113.69,-127.24"/>
<polygon fill="#63b8ff" stroke="#63b8ff" points="114.65,-130.63 123.93,-125.53 113.49,-123.72 114.65,-130.63"/>
</g>
<!-- Node10 -->
<g id="node10" class="node">
<title>Node10</title>
<g id="a_node10"><a xlink:href="classquala_1_1LBFGS.html#a1109c880f1969f61532c94c19122e927" target="_top" xlink:title="Check if the new vectors s and y allow for a valid BFGS update that preserves the positive definitene...">
<polygon fill="white" stroke="#666666" points="183,-95 103,-95 103,-76 183,-76 183,-95"/>
<text text-anchor="middle" x="143" y="-83" font-family="Helvetica,sans-Serif" font-size="10.00">update_valid</text>
</a>
</g>
</g>
<!-- Node1&#45;&gt;Node10 -->
<g id="edge12" class="edge">
<title>Node1&#45;&gt;Node10</title>
<path fill="none" stroke="#63b8ff" d="M51.52,-130.92C65.28,-123.27 85.23,-112.39 103,-103.5 105.63,-102.19 108.37,-100.85 111.13,-99.53"/>
<polygon fill="#63b8ff" stroke="#63b8ff" points="112.86,-102.58 120.43,-95.16 109.89,-96.25 112.86,-102.58"/>
</g>
<!-- Node13 -->
<g id="node13" class="node">
<title>Node13</title>
<g id="a_node13"><a xlink:href="structquala_1_1LBFGSStorage.html#aebac2ec4461761a48a7284152a8217f8" target="_top" xlink:title=" ">
<polygon fill="white" stroke="#666666" points="350,-57 219,-57 219,-38 350,-38 350,-57"/>
<text text-anchor="middle" x="284.5" y="-45" font-family="Helvetica,sans-Serif" font-size="10.00">quala::LBFGSStorage::y</text>
</a>
</g>
</g>
<!-- Node1&#45;&gt;Node13 -->
<g id="edge16" class="edge">
<title>Node1&#45;&gt;Node13</title>
<path fill="none" stroke="#63b8ff" d="M40.04,-130.99C50.18,-114.59 73.42,-81.32 103,-66.5 135.17,-50.38 174.55,-44.86 208.31,-43.7"/>
<polygon fill="#63b8ff" stroke="#63b8ff" points="208.68,-47.19 218.6,-43.47 208.52,-40.19 208.68,-47.19"/>
</g>
<!-- Node14 -->
<g id="node14" class="node">
<title>Node14</title>
<g id="a_node14"><a xlink:href="classquala_1_1LBFGS.html#aebac2ec4461761a48a7284152a8217f8" target="_top" xlink:title=" ">
<polygon fill="white" stroke="#666666" points="157.5,-19 128.5,-19 128.5,0 157.5,0 157.5,-19"/>
<text text-anchor="middle" x="143" y="-7" font-family="Helvetica,sans-Serif" font-size="10.00">y</text>
</a>
</g>
</g>
<!-- Node1&#45;&gt;Node14 -->
<g id="edge18" class="edge">
<title>Node1&#45;&gt;Node14</title>
<path fill="none" stroke="#63b8ff" d="M38.8,-130.92C48.15,-110.9 72,-63.95 103,-33.5 107.84,-28.75 113.78,-24.5 119.56,-20.94"/>
<polygon fill="#63b8ff" stroke="#63b8ff" points="121.36,-23.95 128.32,-15.96 117.89,-17.86 121.36,-23.95"/>
</g>
<!-- Node3 -->
<g id="node3" class="node">
<title>Node3</title>
<g id="a_node3"><a xlink:href="structquala_1_1LBFGSStorage.html#a727afc7a58d2e44ae7add57e3fa77bc6" target="_top" xlink:title="Get the size of the s and y vectors in the buffer.">
<polygon fill="white" stroke="#666666" points="684,-138 553,-138 553,-119 684,-119 684,-138"/>
<text text-anchor="middle" x="618.5" y="-126" font-family="Helvetica,sans-Serif" font-size="10.00">quala::LBFGSStorage::n</text>
</a>
</g>
</g>
<!-- Node2&#45;&gt;Node3 -->
<g id="edge2" class="edge">
<title>Node2&#45;&gt;Node3</title>
<path fill="none" stroke="#63b8ff" d="M327.89,-225.95C374.75,-214.93 452.19,-195.37 517,-172.5 541.7,-163.79 568.86,-151.74 588.71,-142.45"/>
<polygon fill="#63b8ff" stroke="#63b8ff" points="590.28,-145.58 597.83,-138.14 587.29,-139.25 590.28,-145.58"/>
</g>
<!-- Node4&#45;&gt;Node2 -->
<g id="edge4" class="edge">
<title>Node4&#45;&gt;Node2</title>
<path fill="none" stroke="#63b8ff" d="M157.63,-235.5C169.89,-235.5 188.94,-235.5 208.54,-235.5"/>
<polygon fill="#63b8ff" stroke="#63b8ff" points="208.81,-239 218.81,-235.5 208.81,-232 208.81,-239"/>
</g>
<!-- Node5&#45;&gt;Node3 -->
<g id="edge6" class="edge">
<title>Node5&#45;&gt;Node3</title>
<path fill="none" stroke="#63b8ff" d="M349.68,-168.86C396.32,-166.31 460.85,-161.46 517,-152.5 535.66,-149.52 555.98,-144.93 573.43,-140.56"/>
<polygon fill="#63b8ff" stroke="#63b8ff" points="574.52,-143.9 583.34,-138.03 572.78,-137.11 574.52,-143.9"/>
</g>
<!-- Node6&#45;&gt;Node5 -->
<g id="edge8" class="edge">
<title>Node6&#45;&gt;Node5</title>
<path fill="none" stroke="#63b8ff" d="M157.63,-160.67C170.06,-161.74 189.48,-163.41 209.38,-165.12"/>
<polygon fill="#63b8ff" stroke="#63b8ff" points="209.21,-168.62 219.47,-165.99 209.81,-161.65 209.21,-168.62"/>
</g>
<!-- Node8 -->
<g id="node8" class="node">
<title>Node8</title>
<g id="a_node8"><a xlink:href="classquala_1_1LBFGS.html#a9cf7dcccbc3bc69a10833450ee79c623" target="_top" xlink:title="Get the number of previous vectors s and y stored in the buffer.">
<polygon fill="white" stroke="#666666" points="309.5,-132 259.5,-132 259.5,-113 309.5,-113 309.5,-132"/>
<text text-anchor="middle" x="284.5" y="-120" font-family="Helvetica,sans-Serif" font-size="10.00">history</text>
</a>
</g>
</g>
<!-- Node7&#45;&gt;Node8 -->
<g id="edge10" class="edge">
<title>Node7&#45;&gt;Node8</title>
<path fill="none" stroke="#63b8ff" d="M162.24,-122.5C184.14,-122.5 221.37,-122.5 248.81,-122.5"/>
<polygon fill="#63b8ff" stroke="#63b8ff" points="249.16,-126 259.16,-122.5 249.16,-119 249.16,-126"/>
</g>
<!-- Node9 -->
<g id="node9" class="node">
<title>Node9</title>
<g id="a_node9"><a xlink:href="structquala_1_1LBFGSStorage.html#a9cf7dcccbc3bc69a10833450ee79c623" target="_top" xlink:title="Get the number of previous vectors s and y stored in the buffer.">
<polygon fill="white" stroke="#666666" points="511,-143.5 392,-143.5 392,-113.5 511,-113.5 511,-143.5"/>
<text text-anchor="start" x="400" y="-131.5" font-family="Helvetica,sans-Serif" font-size="10.00">quala::LBFGSStorage</text>
<text text-anchor="middle" x="451.5" y="-120.5" font-family="Helvetica,sans-Serif" font-size="10.00">::history</text>
</a>
</g>
</g>
<!-- Node8&#45;&gt;Node9 -->
<g id="edge11" class="edge">
<title>Node8&#45;&gt;Node9</title>
<path fill="none" stroke="#63b8ff" d="M309.85,-123.39C328.84,-124.08 356.2,-125.07 381.75,-126"/>
<polygon fill="#63b8ff" stroke="#63b8ff" points="381.68,-129.5 391.8,-126.37 381.94,-122.5 381.68,-129.5"/>
</g>
<!-- Node11 -->
<g id="node11" class="node">
<title>Node11</title>
<g id="a_node11"><a xlink:href="classquala_1_1LBFGS.html#ac7c2ee7d2562303f555dd1f4c3fca8cd" target="_top" xlink:title=" ">
<polygon fill="white" stroke="#666666" points="299,-95 270,-95 270,-76 299,-76 299,-95"/>
<text text-anchor="middle" x="284.5" y="-83" font-family="Helvetica,sans-Serif" font-size="10.00">α</text>
</a>
</g>
</g>
<!-- Node10&#45;&gt;Node11 -->
<g id="edge13" class="edge">
<title>Node10&#45;&gt;Node11</title>
<path fill="none" stroke="#63b8ff" d="M183.23,-85.5C207.82,-85.5 238.72,-85.5 259.67,-85.5"/>
<polygon fill="#63b8ff" stroke="#63b8ff" points="259.91,-89 269.91,-85.5 259.91,-82 259.91,-89"/>
</g>
<!-- Node12 -->
<g id="node12" class="node">
<title>Node12</title>
<g id="a_node12"><a xlink:href="structquala_1_1LBFGSStorage.html#ac7c2ee7d2562303f555dd1f4c3fca8cd" target="_top" xlink:title=" ">
<polygon fill="white" stroke="#666666" points="517,-95 386,-95 386,-76 517,-76 517,-95"/>
<text text-anchor="middle" x="451.5" y="-83" font-family="Helvetica,sans-Serif" font-size="10.00">quala::LBFGSStorage::α</text>
</a>
</g>
</g>
<!-- Node11&#45;&gt;Node12 -->
<g id="edge14" class="edge">
<title>Node11&#45;&gt;Node12</title>
<path fill="none" stroke="#63b8ff" d="M299,-85.5C315.94,-85.5 346.3,-85.5 375.42,-85.5"/>
<polygon fill="#63b8ff" stroke="#63b8ff" points="375.65,-89 385.65,-85.5 375.65,-82 375.65,-89"/>
</g>
<!-- Node12&#45;&gt;Node3 -->
<g id="edge15" class="edge">
<title>Node12&#45;&gt;Node3</title>
<path fill="none" stroke="#63b8ff" d="M489.12,-95.04C513.26,-101.33 545.08,-109.63 571,-116.38"/>
<polygon fill="#63b8ff" stroke="#63b8ff" points="570.42,-119.85 580.98,-118.98 572.19,-113.07 570.42,-119.85"/>
</g>
<!-- Node13&#45;&gt;Node3 -->
<g id="edge17" class="edge">
<title>Node13&#45;&gt;Node3</title>
<path fill="none" stroke="#63b8ff" d="M350.22,-44.82C397.55,-44.75 462.69,-48.66 517,-66.5 547.74,-76.6 578.78,-97.81 598.06,-112.59"/>
<polygon fill="#63b8ff" stroke="#63b8ff" points="596.02,-115.45 606.05,-118.87 600.35,-109.94 596.02,-115.45"/>
</g>
<!-- Node14&#45;&gt;Node13 -->
<g id="edge19" class="edge">
<title>Node14&#45;&gt;Node13</title>
<path fill="none" stroke="#63b8ff" d="M157.63,-13.21C176.19,-18.27 210.32,-27.57 238.36,-35.2"/>
<polygon fill="#63b8ff" stroke="#63b8ff" points="237.81,-38.68 248.38,-37.93 239.65,-31.93 237.81,-38.68"/>
</g>
</g>
</svg>
