<?xml version="1.0" encoding="UTF-8" standalone="no"?>
<!DOCTYPE svg PUBLIC "-//W3C//DTD SVG 1.1//EN"
 "http://www.w3.org/Graphics/SVG/1.1/DTD/svg11.dtd">
<!-- Generated by graphviz version 2.43.0 (0)
 -->
<!-- Title: update Pages: 1 -->
<svg width="778pt" height="291pt"
 viewBox="0.00 0.00 778.00 291.00" xmlns="http://www.w3.org/2000/svg" xmlns:xlink="http://www.w3.org/1999/xlink">
<g id="graph0" class="graph" transform="scale(1 1) rotate(0) translate(4 287)">
<title>update</title>
<!-- Node1 -->
<g id="node1" class="node">
<title>Node1</title>
<g id="a_node1"><a xlink:title="Update the inverse Hessian approximation using the new vectors xₖ₊₁ and pₖ₊₁.">
<polygon fill="#999999" stroke="#666666" points="50,-150 0,-150 0,-131 50,-131 50,-150"/>
<text text-anchor="middle" x="25" y="-138" font-family="Helvetica,sans-Serif" font-size="10.00">update</text>
</a>
</g>
</g>
<!-- Node2 -->
<g id="node2" class="node">
<title>Node2</title>
<g id="a_node2"><a xlink:href="classquala_1_1LBFGS.html#a15e4a3db39457cabe764a7737d24e73f" target="_top" xlink:title=" ">
<polygon fill="white" stroke="#666666" points="243.5,-283 214.5,-283 214.5,-264 243.5,-264 243.5,-283"/>
<text text-anchor="middle" x="229" y="-271" font-family="Helvetica,sans-Serif" font-size="10.00">s</text>
</a>
</g>
</g>
<!-- Node1&#45;&gt;Node2 -->
<g id="edge1" class="edge">
<title>Node1&#45;&gt;Node2</title>
<path fill="none" stroke="#63b8ff" d="M40.53,-150.07C75.43,-173.05 164.19,-231.48 205.81,-258.89"/>
<polygon fill="#63b8ff" stroke="#63b8ff" points="204.13,-261.97 214.41,-264.55 207.98,-256.13 204.13,-261.97"/>
</g>
<!-- Node5 -->
<g id="node5" class="node">
<title>Node5</title>
<g id="a_node5"><a xlink:href="classquala_1_1LBFGS.html#af150290995e6bee28f5a0f057ed511c8" target="_top" xlink:title="Update the inverse Hessian approximation using the new vectors sₖ = xₖ₊₁ &#45; xₖ and yₖ = pₖ₊₁ &#45; pₖ.">
<polygon fill="white" stroke="#666666" points="153,-150 86,-150 86,-131 153,-131 153,-150"/>
<text text-anchor="middle" x="119.5" y="-138" font-family="Helvetica,sans-Serif" font-size="10.00">update_sy</text>
</a>
</g>
</g>
<!-- Node1&#45;&gt;Node5 -->
<g id="edge4" class="edge">
<title>Node1&#45;&gt;Node5</title>
<path fill="none" stroke="#63b8ff" d="M50.3,-140.5C58.07,-140.5 66.92,-140.5 75.61,-140.5"/>
<polygon fill="#63b8ff" stroke="#63b8ff" points="75.66,-144 85.66,-140.5 75.66,-137 75.66,-144"/>
</g>
<!-- Node15 -->
<g id="node15" class="node">
<title>Node15</title>
<g id="a_node15"><a xlink:href="classquala_1_1LBFGS.html#aebac2ec4461761a48a7284152a8217f8" target="_top" xlink:title=" ">
<polygon fill="white" stroke="#666666" points="243.5,-19 214.5,-19 214.5,0 243.5,0 243.5,-19"/>
<text text-anchor="middle" x="229" y="-7" font-family="Helvetica,sans-Serif" font-size="10.00">y</text>
</a>
</g>
</g>
<!-- Node1&#45;&gt;Node15 -->
<g id="edge22" class="edge">
<title>Node1&#45;&gt;Node15</title>
<path fill="none" stroke="#63b8ff" d="M40.85,-130.87C76.01,-108.07 164.45,-50.71 205.91,-23.83"/>
<polygon fill="#63b8ff" stroke="#63b8ff" points="207.98,-26.66 214.47,-18.28 204.17,-20.78 207.98,-26.66"/>
</g>
<!-- Node3 -->
<g id="node3" class="node">
<title>Node3</title>
<g id="a_node3"><a xlink:href="structquala_1_1LBFGSStorage.html#a15e4a3db39457cabe764a7737d24e73f" target="_top" xlink:title=" ">
<polygon fill="white" stroke="#666666" points="435.5,-245 305.5,-245 305.5,-226 435.5,-226 435.5,-245"/>
<text text-anchor="middle" x="370.5" y="-233" font-family="Helvetica,sans-Serif" font-size="10.00">quala::LBFGSStorage::s</text>
</a>
</g>
</g>
<!-- Node2&#45;&gt;Node3 -->
<g id="edge2" class="edge">
<title>Node2&#45;&gt;Node3</title>
<path fill="none" stroke="#63b8ff" d="M243.63,-269.79C262.19,-264.73 296.32,-255.43 324.36,-247.8"/>
<polygon fill="#63b8ff" stroke="#63b8ff" points="325.65,-251.07 334.38,-245.07 323.81,-244.32 325.65,-251.07"/>
</g>
<!-- Node4 -->
<g id="node4" class="node">
<title>Node4</title>
<g id="a_node4"><a xlink:href="structquala_1_1LBFGSStorage.html#a727afc7a58d2e44ae7add57e3fa77bc6" target="_top" xlink:title="Get the size of the s and y vectors in the buffer.">
<polygon fill="white" stroke="#666666" points="770,-138 639,-138 639,-119 770,-119 770,-138"/>
<text text-anchor="middle" x="704.5" y="-126" font-family="Helvetica,sans-Serif" font-size="10.00">quala::LBFGSStorage::n</text>
</a>
</g>
</g>
<!-- Node3&#45;&gt;Node4 -->
<g id="edge3" class="edge">
<title>Node3&#45;&gt;Node4</title>
<path fill="none" stroke="#63b8ff" d="M413.89,-225.95C460.75,-214.93 538.19,-195.37 603,-172.5 627.7,-163.79 654.86,-151.74 674.71,-142.45"/>
<polygon fill="#63b8ff" stroke="#63b8ff" points="676.28,-145.58 683.83,-138.14 673.29,-139.25 676.28,-145.58"/>
</g>
<!-- Node5&#45;&gt;Node2 -->
<g id="edge10" class="edge">
<title>Node5&#45;&gt;Node2</title>
<path fill="none" stroke="#63b8ff" d="M124.75,-150.26C134.02,-170.67 157.72,-218.51 189,-249.5 193.82,-254.27 199.76,-258.53 205.53,-262.09"/>
<polygon fill="#63b8ff" stroke="#63b8ff" points="203.87,-265.17 214.29,-267.07 207.33,-259.08 203.87,-265.17"/>
</g>
<!-- Node5&#45;&gt;Node3 -->
<g id="edge9" class="edge">
<title>Node5&#45;&gt;Node3</title>
<path fill="none" stroke="#63b8ff" d="M129.72,-150.28C142.03,-162.74 165.07,-184.02 189,-195.5 222.05,-211.35 261.52,-221.02 295.12,-226.87"/>
<polygon fill="#63b8ff" stroke="#63b8ff" points="294.91,-230.38 305.34,-228.56 296.05,-223.48 294.91,-230.38"/>
</g>
<!-- Node6 -->
<g id="node6" class="node">
<title>Node6</title>
<g id="a_node6"><a xlink:href="structquala_1_1LBFGSStorage.html#acade3dc51f7ca788be9b91908b2e73ab" target="_top" xlink:title=" ">
<polygon fill="white" stroke="#666666" points="436,-181 305,-181 305,-162 436,-162 436,-181"/>
<text text-anchor="middle" x="370.5" y="-169" font-family="Helvetica,sans-Serif" font-size="10.00">quala::LBFGSStorage::ρ</text>
</a>
</g>
</g>
<!-- Node5&#45;&gt;Node6 -->
<g id="edge5" class="edge">
<title>Node5&#45;&gt;Node6</title>
<path fill="none" stroke="#63b8ff" d="M133.29,-150.22C146.44,-159.57 167.93,-173.05 189,-178.5 228.38,-188.69 274.18,-186.76 309.8,-182.37"/>
<polygon fill="#63b8ff" stroke="#63b8ff" points="310.58,-185.8 320.03,-181.01 309.66,-178.86 310.58,-185.8"/>
</g>
<!-- Node7 -->
<g id="node7" class="node">
<title>Node7</title>
<g id="a_node7"><a xlink:href="classquala_1_1LBFGS.html#acade3dc51f7ca788be9b91908b2e73ab" target="_top" xlink:title=" ">
<polygon fill="white" stroke="#666666" points="243.5,-169 214.5,-169 214.5,-150 243.5,-150 243.5,-169"/>
<text text-anchor="middle" x="229" y="-157" font-family="Helvetica,sans-Serif" font-size="10.00">ρ</text>
</a>
</g>
</g>
<!-- Node5&#45;&gt;Node7 -->
<g id="edge7" class="edge">
<title>Node5&#45;&gt;Node7</title>
<path fill="none" stroke="#63b8ff" d="M153.05,-146.25C169.55,-149.17 189.24,-152.65 204.3,-155.31"/>
<polygon fill="#63b8ff" stroke="#63b8ff" points="203.87,-158.79 214.33,-157.08 205.09,-151.9 203.87,-158.79"/>
</g>
<!-- Node8 -->
<g id="node8" class="node">
<title>Node8</title>
<g id="a_node8"><a xlink:href="classquala_1_1LBFGS.html#a70926baed7362e4fcce66523bb8e2842" target="_top" xlink:title="Get the next index in the circular buffer of previous s and y vectors.">
<polygon fill="white" stroke="#666666" points="248,-132 210,-132 210,-113 248,-113 248,-132"/>
<text text-anchor="middle" x="229" y="-120" font-family="Helvetica,sans-Serif" font-size="10.00">succ</text>
</a>
</g>
</g>
<!-- Node5&#45;&gt;Node8 -->
<g id="edge11" class="edge">
<title>Node5&#45;&gt;Node8</title>
<path fill="none" stroke="#63b8ff" d="M153.05,-135.05C167.92,-132.56 185.37,-129.64 199.69,-127.24"/>
<polygon fill="#63b8ff" stroke="#63b8ff" points="200.65,-130.63 209.93,-125.53 199.49,-123.72 200.65,-130.63"/>
</g>
<!-- Node11 -->
<g id="node11" class="node">
<title>Node11</title>
<g id="a_node11"><a xlink:href="classquala_1_1LBFGS.html#a1109c880f1969f61532c94c19122e927" target="_top" xlink:title="Check if the new vectors s and y allow for a valid BFGS update that preserves the positive definitene...">
<polygon fill="white" stroke="#666666" points="269,-95 189,-95 189,-76 269,-76 269,-95"/>
<text text-anchor="middle" x="229" y="-83" font-family="Helvetica,sans-Serif" font-size="10.00">update_valid</text>
</a>
</g>
</g>
<!-- Node5&#45;&gt;Node11 -->
<g id="edge14" class="edge">
<title>Node5&#45;&gt;Node11</title>
<path fill="none" stroke="#63b8ff" d="M138.45,-130.87C152.22,-123.54 171.74,-113.24 189,-104.5 192.19,-102.89 195.53,-101.22 198.87,-99.57"/>
<polygon fill="#63b8ff" stroke="#63b8ff" points="200.66,-102.59 208.1,-95.05 197.58,-96.3 200.66,-102.59"/>
</g>
<!-- Node14 -->
<g id="node14" class="node">
<title>Node14</title>
<g id="a_node14"><a xlink:href="structquala_1_1LBFGSStorage.html#aebac2ec4461761a48a7284152a8217f8" target="_top" xlink:title=" ">
<polygon fill="white" stroke="#666666" points="436,-57 305,-57 305,-38 436,-38 436,-57"/>
<text text-anchor="middle" x="370.5" y="-45" font-family="Helvetica,sans-Serif" font-size="10.00">quala::LBFGSStorage::y</text>
</a>
</g>
</g>
<!-- Node5&#45;&gt;Node14 -->
<g id="edge18" class="edge">
<title>Node5&#45;&gt;Node14</title>
<path fill="none" stroke="#63b8ff" d="M126.25,-130.88C136.53,-114.63 159.78,-82.12 189,-67.5 221.2,-51.4 260.59,-45.68 294.34,-44.29"/>
<polygon fill="#63b8ff" stroke="#63b8ff" points="294.73,-47.78 304.62,-43.99 294.52,-40.78 294.73,-47.78"/>
</g>
<!-- Node5&#45;&gt;Node15 -->
<g id="edge20" class="edge">
<title>Node5&#45;&gt;Node15</title>
<path fill="none" stroke="#63b8ff" d="M126.04,-130.66C139.31,-107.28 173.03,-49.19 189,-33.5 193.84,-28.75 199.78,-24.5 205.56,-20.94"/>
<polygon fill="#63b8ff" stroke="#63b8ff" points="207.36,-23.95 214.32,-15.96 203.89,-17.86 207.36,-23.95"/>
</g>
<!-- Node6&#45;&gt;Node4 -->
<g id="edge6" class="edge">
<title>Node6&#45;&gt;Node4</title>
<path fill="none" stroke="#63b8ff" d="M436.18,-168.84C482.78,-166.27 547.05,-161.42 603,-152.5 621.66,-149.52 641.98,-144.93 659.43,-140.56"/>
<polygon fill="#63b8ff" stroke="#63b8ff" points="660.52,-143.9 669.34,-138.03 658.78,-137.11 660.52,-143.9"/>
</g>
<!-- Node7&#45;&gt;Node6 -->
<g id="edge8" class="edge">
<title>Node7&#45;&gt;Node6</title>
<path fill="none" stroke="#63b8ff" d="M243.63,-160.67C255.95,-161.73 275.12,-163.38 294.81,-165.08"/>
<polygon fill="#63b8ff" stroke="#63b8ff" points="294.55,-168.57 304.81,-165.94 295.15,-161.59 294.55,-168.57"/>
</g>
<!-- Node9 -->
<g id="node9" class="node">
<title>Node9</title>
<g id="a_node9"><a xlink:href="classquala_1_1LBFGS.html#a9cf7dcccbc3bc69a10833450ee79c623" target="_top" xlink:title="Get the number of previous vectors s and y stored in the buffer.">
<polygon fill="white" stroke="#666666" points="395.5,-132 345.5,-132 345.5,-113 395.5,-113 395.5,-132"/>
<text text-anchor="middle" x="370.5" y="-120" font-family="Helvetica,sans-Serif" font-size="10.00">history</text>
</a>
</g>
</g>
<!-- Node8&#45;&gt;Node9 -->
<g id="edge12" class="edge">
<title>Node8&#45;&gt;Node9</title>
<path fill="none" stroke="#63b8ff" d="M248.24,-122.5C270.14,-122.5 307.37,-122.5 334.81,-122.5"/>
<polygon fill="#63b8ff" stroke="#63b8ff" points="335.16,-126 345.16,-122.5 335.16,-119 335.16,-126"/>
</g>
<!-- Node10 -->
<g id="node10" class="node">
<title>Node10</title>
<g id="a_node10"><a xlink:href="structquala_1_1LBFGSStorage.html#a9cf7dcccbc3bc69a10833450ee79c623" target="_top" xlink:title="Get the number of previous vectors s and y stored in the buffer.">
<polygon fill="white" stroke="#666666" points="597,-143.5 478,-143.5 478,-113.5 597,-113.5 597,-143.5"/>
<text text-anchor="start" x="486" y="-131.5" font-family="Helvetica,sans-Serif" font-size="10.00">quala::LBFGSStorage</text>
<text text-anchor="middle" x="537.5" y="-120.5" font-family="Helvetica,sans-Serif" font-size="10.00">::history</text>
</a>
</g>
</g>
<!-- Node9&#45;&gt;Node10 -->
<g id="edge13" class="edge">
<title>Node9&#45;&gt;Node10</title>
<path fill="none" stroke="#63b8ff" d="M395.85,-123.39C414.84,-124.08 442.2,-125.07 467.75,-126"/>
<polygon fill="#63b8ff" stroke="#63b8ff" points="467.68,-129.5 477.8,-126.37 467.94,-122.5 467.68,-129.5"/>
</g>
<!-- Node12 -->
<g id="node12" class="node">
<title>Node12</title>
<g id="a_node12"><a xlink:href="classquala_1_1LBFGS.html#ac7c2ee7d2562303f555dd1f4c3fca8cd" target="_top" xlink:title=" ">
<polygon fill="white" stroke="#666666" points="385,-95 356,-95 356,-76 385,-76 385,-95"/>
<text text-anchor="middle" x="370.5" y="-83" font-family="Helvetica,sans-Serif" font-size="10.00">α</text>
</a>
</g>
</g>
<!-- Node11&#45;&gt;Node12 -->
<g id="edge15" class="edge">
<title>Node11&#45;&gt;Node12</title>
<path fill="none" stroke="#63b8ff" d="M269.23,-85.5C293.82,-85.5 324.72,-85.5 345.67,-85.5"/>
<polygon fill="#63b8ff" stroke="#63b8ff" points="345.91,-89 355.91,-85.5 345.91,-82 345.91,-89"/>
</g>
<!-- Node13 -->
<g id="node13" class="node">
<title>Node13</title>
<g id="a_node13"><a xlink:href="structquala_1_1LBFGSStorage.html#ac7c2ee7d2562303f555dd1f4c3fca8cd" target="_top" xlink:title=" ">
<polygon fill="white" stroke="#666666" points="603,-95 472,-95 472,-76 603,-76 603,-95"/>
<text text-anchor="middle" x="537.5" y="-83" font-family="Helvetica,sans-Serif" font-size="10.00">quala::LBFGSStorage::α</text>
</a>
</g>
</g>
<!-- Node12&#45;&gt;Node13 -->
<g id="edge16" class="edge">
<title>Node12&#45;&gt;Node13</title>
<path fill="none" stroke="#63b8ff" d="M385,-85.5C401.94,-85.5 432.3,-85.5 461.42,-85.5"/>
<polygon fill="#63b8ff" stroke="#63b8ff" points="461.65,-89 471.65,-85.5 461.65,-82 461.65,-89"/>
</g>
<!-- Node13&#45;&gt;Node4 -->
<g id="edge17" class="edge">
<title>Node13&#45;&gt;Node4</title>
<path fill="none" stroke="#63b8ff" d="M575.12,-95.04C599.26,-101.33 631.08,-109.63 657,-116.38"/>
<polygon fill="#63b8ff" stroke="#63b8ff" points="656.42,-119.85 666.98,-118.98 658.19,-113.07 656.42,-119.85"/>
</g>
<!-- Node14&#45;&gt;Node4 -->
<g id="edge19" class="edge">
<title>Node14&#45;&gt;Node4</title>
<path fill="none" stroke="#63b8ff" d="M436.19,-45.28C483.51,-45.51 548.65,-49.74 603,-67.5 633.45,-77.45 664.34,-98.13 683.69,-112.64"/>
<polygon fill="#63b8ff" stroke="#63b8ff" points="681.66,-115.5 691.72,-118.82 685.92,-109.95 681.66,-115.5"/>
</g>
<!-- Node15&#45;&gt;Node14 -->
<g id="edge21" class="edge">
<title>Node15&#45;&gt;Node14</title>
<path fill="none" stroke="#63b8ff" d="M243.63,-13.21C262.19,-18.27 296.32,-27.57 324.36,-35.2"/>
<polygon fill="#63b8ff" stroke="#63b8ff" points="323.81,-38.68 334.38,-37.93 325.65,-31.93 323.81,-38.68"/>
</g>
</g>
</svg>
