<?xml version="1.0" encoding="UTF-8" standalone="no"?>
<!DOCTYPE svg PUBLIC "-//W3C//DTD SVG 1.1//EN"
 "http://www.w3.org/Graphics/SVG/1.1/DTD/svg11.dtd">
<!-- Generated by graphviz version 2.43.0 (0)
 -->
<!-- Title: y Pages: 1 -->
<svg width="375pt" height="179pt"
 viewBox="0.00 0.00 375.00 179.00" xmlns="http://www.w3.org/2000/svg" xmlns:xlink="http://www.w3.org/1999/xlink">
<g id="graph0" class="graph" transform="scale(1 1) rotate(0) translate(4 175)">
<title>y</title>
<!-- Node1 -->
<g id="node1" class="node">
<title>Node1</title>
<g id="a_node1"><a xlink:title=" ">
<polygon fill="#999999" stroke="#666666" points="367,-95 338,-95 338,-76 367,-76 367,-95"/>
<text text-anchor="middle" x="352.5" y="-83" font-family="Helvetica,sans-Serif" font-size="10.00">y</text>
</a>
</g>
</g>
<!-- Node2 -->
<g id="node2" class="node">
<title>Node2</title>
<g id="a_node2"><a xlink:href="classquala_1_1LBFGS.html#a9ae2b583badddda6ec2917bb565688c3" target="_top" xlink:title="Apply the inverse Hessian approximation to the given vector q.">
<polygon fill="white" stroke="#666666" points="196,-171 152,-171 152,-152 196,-152 196,-171"/>
<text text-anchor="middle" x="174" y="-159" font-family="Helvetica,sans-Serif" font-size="10.00">apply</text>
</a>
</g>
</g>
<!-- Node1&#45;&gt;Node2 -->
<g id="edge1" class="edge">
<title>Node1&#45;&gt;Node2</title>
<path fill="none" stroke="#63b8ff" d="M339.09,-103.46C330.13,-115.01 317.01,-129.33 302,-137.5 268.1,-155.95 222.42,-160.44 196.1,-161.4"/>
<polygon fill="#63b8ff" stroke="#63b8ff" points="341.98,-105.44 345.09,-95.31 336.34,-101.29 341.98,-105.44"/>
</g>
<!-- Node3 -->
<g id="node3" class="node">
<title>Node3</title>
<g id="a_node3"><a xlink:href="quala_8py_8cpp.html#a12fb4e87da488d1fc7c6fa3e6a3adb90" target="_top" xlink:title=" ">
<polygon fill="white" stroke="#666666" points="113,-95 0,-95 0,-76 113,-76 113,-95"/>
<text text-anchor="middle" x="56.5" y="-83" font-family="Helvetica,sans-Serif" font-size="10.00">PYBIND11_MODULE</text>
</a>
</g>
</g>
<!-- Node1&#45;&gt;Node3 -->
<g id="edge3" class="edge">
<title>Node1&#45;&gt;Node3</title>
<path fill="none" stroke="#63b8ff" d="M328.37,-96.39C320.22,-99.68 310.88,-102.85 302,-104.5 231.04,-117.65 146.86,-105.06 98.08,-95.05"/>
<polygon fill="#63b8ff" stroke="#63b8ff" points="329.8,-99.58 337.61,-92.41 327.04,-93.15 329.8,-99.58"/>
</g>
<!-- Node4 -->
<g id="node4" class="node">
<title>Node4</title>
<g id="a_node4"><a xlink:href="classquala_1_1LBFGS.html#adeddc1e1eb8ce1c1bbaf931b6f9a5b9c" target="_top" xlink:title="Scale the stored y vectors by the given factor.">
<polygon fill="white" stroke="#666666" points="295,-95 242,-95 242,-76 295,-76 295,-95"/>
<text text-anchor="middle" x="268.5" y="-83" font-family="Helvetica,sans-Serif" font-size="10.00">scale_y</text>
</a>
</g>
</g>
<!-- Node1&#45;&gt;Node4 -->
<g id="edge4" class="edge">
<title>Node1&#45;&gt;Node4</title>
<path fill="none" stroke="#63b8ff" d="M327.77,-85.5C317.6,-85.5 305.71,-85.5 295.33,-85.5"/>
<polygon fill="#63b8ff" stroke="#63b8ff" points="327.96,-89 337.96,-85.5 327.96,-82 327.96,-89"/>
</g>
<!-- Node5 -->
<g id="node5" class="node">
<title>Node5</title>
<g id="a_node5"><a xlink:href="classquala_1_1LBFGS.html#ae34a8e5e432c990eb8af2f95bcbc04bd" target="_top" xlink:title="Update the inverse Hessian approximation using the new vectors xₖ₊₁ and pₖ₊₁.">
<polygon fill="white" stroke="#666666" points="199,-57 149,-57 149,-38 199,-38 199,-57"/>
<text text-anchor="middle" x="174" y="-45" font-family="Helvetica,sans-Serif" font-size="10.00">update</text>
</a>
</g>
</g>
<!-- Node1&#45;&gt;Node5 -->
<g id="edge6" class="edge">
<title>Node1&#45;&gt;Node5</title>
<path fill="none" stroke="#63b8ff" d="M328.51,-76.1C320.26,-73 310.81,-69.77 302,-67.5 266.77,-58.41 224.92,-52.79 199.16,-49.9"/>
<polygon fill="#63b8ff" stroke="#63b8ff" points="327.27,-79.37 337.86,-79.73 329.8,-72.84 327.27,-79.37"/>
</g>
<!-- Node6 -->
<g id="node6" class="node">
<title>Node6</title>
<g id="a_node6"><a xlink:href="classquala_1_1LBFGS.html#af150290995e6bee28f5a0f057ed511c8" target="_top" xlink:title="Update the inverse Hessian approximation using the new vectors sₖ = xₖ₊₁ &#45; xₖ and yₖ = pₖ₊₁ &#45; pₖ.">
<polygon fill="white" stroke="#666666" points="302,-19 235,-19 235,0 302,0 302,-19"/>
<text text-anchor="middle" x="268.5" y="-7" font-family="Helvetica,sans-Serif" font-size="10.00">update_sy</text>
</a>
</g>
</g>
<!-- Node1&#45;&gt;Node6 -->
<g id="edge8" class="edge">
<title>Node1&#45;&gt;Node6</title>
<path fill="none" stroke="#63b8ff" d="M336.37,-68.14C326.91,-57.66 314.24,-44.3 302,-33.5 296.21,-28.39 289.4,-23.25 283.51,-19.03"/>
<polygon fill="#63b8ff" stroke="#63b8ff" points="333.94,-70.67 343.2,-75.81 339.17,-66.02 333.94,-70.67"/>
</g>
<!-- Node2&#45;&gt;Node3 -->
<g id="edge2" class="edge">
<title>Node2&#45;&gt;Node3</title>
<path fill="none" stroke="#63b8ff" d="M149.81,-146.24C126.58,-130.96 91.56,-107.91 72.01,-95.05"/>
<polygon fill="#63b8ff" stroke="#63b8ff" points="148.09,-149.3 158.37,-151.87 151.94,-143.45 148.09,-149.3"/>
</g>
<!-- Node4&#45;&gt;Node3 -->
<g id="edge5" class="edge">
<title>Node4&#45;&gt;Node3</title>
<path fill="none" stroke="#63b8ff" d="M231.36,-85.5C198.81,-85.5 150.48,-85.5 113.04,-85.5"/>
<polygon fill="#63b8ff" stroke="#63b8ff" points="231.75,-89 241.75,-85.5 231.75,-82 231.75,-89"/>
</g>
<!-- Node5&#45;&gt;Node3 -->
<g id="edge7" class="edge">
<title>Node5&#45;&gt;Node3</title>
<path fill="none" stroke="#63b8ff" d="M138.91,-58.72C122.28,-64.19 102.49,-70.7 86.59,-75.93"/>
<polygon fill="#63b8ff" stroke="#63b8ff" points="140.38,-61.92 148.79,-55.47 138.19,-55.27 140.38,-61.92"/>
</g>
<!-- Node6&#45;&gt;Node3 -->
<g id="edge9" class="edge">
<title>Node6&#45;&gt;Node3</title>
<path fill="none" stroke="#63b8ff" d="M224.78,-12.22C201.76,-14.7 173.2,-19.45 149,-28.5 117.97,-40.11 86.11,-62.91 69.4,-75.88"/>
<polygon fill="#63b8ff" stroke="#63b8ff" points="225.31,-15.69 234.93,-11.23 224.64,-8.72 225.31,-15.69"/>
</g>
<!-- Node6&#45;&gt;Node5 -->
<g id="edge10" class="edge">
<title>Node6&#45;&gt;Node5</title>
<path fill="none" stroke="#63b8ff" d="M234.85,-22.91C222.8,-27.86 209.4,-33.37 198.33,-37.91"/>
<polygon fill="#63b8ff" stroke="#63b8ff" points="236.24,-26.13 244.16,-19.09 233.58,-19.65 236.24,-26.13"/>
</g>
</g>
</svg>
