<?xml version="1.0" encoding="UTF-8" standalone="no"?>
<!DOCTYPE svg PUBLIC "-//W3C//DTD SVG 1.1//EN"
 "http://www.w3.org/Graphics/SVG/1.1/DTD/svg11.dtd">
<!-- Generated by graphviz version 2.43.0 (0)
 -->
<!-- Title: initialize Pages: 1 -->
<svg width="433pt" height="76pt"
 viewBox="0.00 0.00 433.00 75.50" xmlns="http://www.w3.org/2000/svg" xmlns:xlink="http://www.w3.org/1999/xlink">
<g id="graph0" class="graph" transform="scale(1 1) rotate(0) translate(4 71.5)">
<title>initialize</title>
<!-- Node1 -->
<g id="node1" class="node">
<title>Node1</title>
<g id="a_node1"><a xlink:title="Call this function on the first iteration to initialize the accelerator.">
<polygon fill="#999999" stroke="#666666" points="59,-45.5 0,-45.5 0,-26.5 59,-26.5 59,-45.5"/>
<text text-anchor="middle" x="29.5" y="-33.5" font-family="Helvetica,sans-Serif" font-size="10.00">initialize</text>
</a>
</g>
</g>
<!-- Node2 -->
<g id="node2" class="node">
<title>Node2</title>
<g id="a_node2"><a xlink:href="classquala_1_1AndersonAccel.html#a727afc7a58d2e44ae7add57e3fa77bc6" target="_top" xlink:title="Get the problem dimension.">
<polygon fill="white" stroke="#666666" points="180,-67.5 151,-67.5 151,-48.5 180,-48.5 180,-67.5"/>
<text text-anchor="middle" x="165.5" y="-55.5" font-family="Helvetica,sans-Serif" font-size="10.00">n</text>
</a>
</g>
</g>
<!-- Node1&#45;&gt;Node2 -->
<g id="edge1" class="edge">
<title>Node1&#45;&gt;Node2</title>
<path fill="none" stroke="#63b8ff" d="M59.25,-40.72C83.57,-44.71 118,-50.37 140.77,-54.1"/>
<polygon fill="#63b8ff" stroke="#63b8ff" points="140.49,-57.6 150.92,-55.77 141.62,-50.7 140.49,-57.6"/>
</g>
<!-- Node4 -->
<g id="node4" class="node">
<title>Node4</title>
<g id="a_node4"><a xlink:href="classquala_1_1LimitedMemoryQR.html#ad20897c5c8bd47f5d4005989bead0e55" target="_top" xlink:title="Reset all indices, clearing the Q and R matrices.">
<polygon fill="white" stroke="#666666" points="236,-30 95,-30 95,0 236,0 236,-30"/>
<text text-anchor="start" x="103" y="-18" font-family="Helvetica,sans-Serif" font-size="10.00">quala::LimitedMemoryQR</text>
<text text-anchor="middle" x="165.5" y="-7" font-family="Helvetica,sans-Serif" font-size="10.00">::reset</text>
</a>
</g>
</g>
<!-- Node1&#45;&gt;Node4 -->
<g id="edge3" class="edge">
<title>Node1&#45;&gt;Node4</title>
<path fill="none" stroke="#63b8ff" d="M59.25,-31.49C66.98,-30.28 75.74,-28.91 84.83,-27.49"/>
<polygon fill="#63b8ff" stroke="#63b8ff" points="85.44,-30.93 94.78,-25.93 84.36,-24.02 85.44,-30.93"/>
</g>
<!-- Node3 -->
<g id="node3" class="node">
<title>Node3</title>
<g id="a_node3"><a xlink:href="classquala_1_1LimitedMemoryQR.html#a727afc7a58d2e44ae7add57e3fa77bc6" target="_top" xlink:title=" ">
<polygon fill="white" stroke="#666666" points="425,-67.5 272,-67.5 272,-48.5 425,-48.5 425,-67.5"/>
<text text-anchor="middle" x="348.5" y="-55.5" font-family="Helvetica,sans-Serif" font-size="10.00">quala::LimitedMemoryQR::n</text>
</a>
</g>
</g>
<!-- Node2&#45;&gt;Node3 -->
<g id="edge2" class="edge">
<title>Node2&#45;&gt;Node3</title>
<path fill="none" stroke="#63b8ff" d="M180.1,-58C197.76,-58 230.06,-58 261.6,-58"/>
<polygon fill="#63b8ff" stroke="#63b8ff" points="261.8,-61.5 271.8,-58 261.8,-54.5 261.8,-61.5"/>
</g>
</g>
</svg>
