<?xml version="1.0" encoding="UTF-8" standalone="no"?>
<!DOCTYPE svg PUBLIC "-//W3C//DTD SVG 1.1//EN"
 "http://www.w3.org/Graphics/SVG/1.1/DTD/svg11.dtd">
<!-- Generated by graphviz version 2.43.0 (0)
 -->
<!-- Title: free Pages: 1 -->
<svg width="267pt" height="86pt"
 viewBox="0.00 0.00 267.00 86.00" xmlns="http://www.w3.org/2000/svg" xmlns:xlink="http://www.w3.org/1999/xlink">
<g id="graph0" class="graph" transform="scale(1 1) rotate(0) translate(4 82)">
<title>free</title>
<!-- Node1 -->
<g id="node1" class="node">
<title>Node1</title>
<g id="a_node1"><a xlink:title=" ">
<polygon fill="#999999" stroke="#666666" points="36,-48.5 0,-48.5 0,-29.5 36,-29.5 36,-48.5"/>
<text text-anchor="middle" x="18" y="-36.5" font-family="Helvetica,sans-Serif" font-size="10.00">free</text>
</a>
</g>
</g>
<!-- Node2 -->
<g id="node2" class="node">
<title>Node2</title>
<g id="a_node2"><a xlink:href="classquala_1_1vec__allocator.html#a455bb0797853d67addd58875c671acef" target="_top" xlink:title=" ">
<polygon fill="white" stroke="#666666" points="108,-48.5 72,-48.5 72,-29.5 108,-29.5 108,-48.5"/>
<text text-anchor="middle" x="90" y="-36.5" font-family="Helvetica,sans-Serif" font-size="10.00">free</text>
</a>
</g>
</g>
<!-- Node1&#45;&gt;Node2 -->
<g id="edge1" class="edge">
<title>Node1&#45;&gt;Node2</title>
<path fill="none" stroke="#63b8ff" d="M36.3,-39C44.02,-39 53.29,-39 61.89,-39"/>
<polygon fill="#63b8ff" stroke="#63b8ff" points="61.9,-42.5 71.9,-39 61.9,-35.5 61.9,-42.5"/>
</g>
<!-- Node3 -->
<g id="node3" class="node">
<title>Node3</title>
<g id="a_node3"><a xlink:href="structquala_1_1vec__allocator_1_1findstack.html#ad950587c89b4306f927b08b5e5cb7e89" target="_top" xlink:title=" ">
<polygon fill="white" stroke="#666666" points="259,-78 144,-78 144,-48 259,-48 259,-78"/>
<text text-anchor="start" x="152" y="-66" font-family="Helvetica,sans-Serif" font-size="10.00">quala::vec_allocator</text>
<text text-anchor="middle" x="201.5" y="-55" font-family="Helvetica,sans-Serif" font-size="10.00">::findstack::begin</text>
</a>
</g>
</g>
<!-- Node2&#45;&gt;Node3 -->
<g id="edge2" class="edge">
<title>Node2&#45;&gt;Node3</title>
<path fill="none" stroke="#63b8ff" d="M108.11,-42.75C115.34,-44.34 124.27,-46.29 133.7,-48.36"/>
<polygon fill="#63b8ff" stroke="#63b8ff" points="133.15,-51.82 143.67,-50.54 134.65,-44.98 133.15,-51.82"/>
</g>
<!-- Node4 -->
<g id="node4" class="node">
<title>Node4</title>
<g id="a_node4"><a xlink:href="structquala_1_1vec__allocator_1_1findstack.html#a7727305d5e1ec66a181e22c43af9a581" target="_top" xlink:title=" ">
<polygon fill="white" stroke="#666666" points="259,-30 144,-30 144,0 259,0 259,-30"/>
<text text-anchor="start" x="152" y="-18" font-family="Helvetica,sans-Serif" font-size="10.00">quala::vec_allocator</text>
<text text-anchor="middle" x="201.5" y="-7" font-family="Helvetica,sans-Serif" font-size="10.00">::findstack::end</text>
</a>
</g>
</g>
<!-- Node2&#45;&gt;Node4 -->
<g id="edge3" class="edge">
<title>Node2&#45;&gt;Node4</title>
<path fill="none" stroke="#63b8ff" d="M108.11,-35.25C115.34,-33.66 124.27,-31.71 133.7,-29.64"/>
<polygon fill="#63b8ff" stroke="#63b8ff" points="134.65,-33.02 143.67,-27.46 133.15,-26.18 134.65,-33.02"/>
</g>
</g>
</svg>
