<?xml version="1.0" encoding="UTF-8" standalone="no"?>
<!DOCTYPE svg PUBLIC "-//W3C//DTD SVG 1.1//EN"
 "http://www.w3.org/Graphics/SVG/1.1/DTD/svg11.dtd">
<!-- Generated by graphviz version 2.43.0 (0)
 -->
<!-- Title: num_columns Pages: 1 -->
<svg width="552pt" height="140pt"
 viewBox="0.00 0.00 552.00 140.00" xmlns="http://www.w3.org/2000/svg" xmlns:xlink="http://www.w3.org/1999/xlink">
<g id="graph0" class="graph" transform="scale(1 1) rotate(0) translate(4 136)">
<title>num_columns</title>
<!-- Node1 -->
<g id="node1" class="node">
<title>Node1</title>
<g id="a_node1"><a xlink:title="Get the number of columns that are currently stored.">
<polygon fill="#999999" stroke="#666666" points="544,-75 459,-75 459,-56 544,-56 544,-75"/>
<text text-anchor="middle" x="501.5" y="-63" font-family="Helvetica,sans-Serif" font-size="10.00">num_columns</text>
</a>
</g>
</g>
<!-- Node2 -->
<g id="node2" class="node">
<title>Node2</title>
<g id="a_node2"><a xlink:href="classquala_1_1LimitedMemoryQR.html#a5e3077223e98c1e4e286e01503f220d5" target="_top" xlink:title="Add the given column to the right.">
<polygon fill="white" stroke="#666666" points="413.5,-132 337.5,-132 337.5,-113 413.5,-113 413.5,-132"/>
<text text-anchor="middle" x="375.5" y="-120" font-family="Helvetica,sans-Serif" font-size="10.00">add_column</text>
</a>
</g>
</g>
<!-- Node1&#45;&gt;Node2 -->
<g id="edge1" class="edge">
<title>Node1&#45;&gt;Node2</title>
<path fill="none" stroke="#63b8ff" d="M470.57,-79.26C447.92,-89.67 417.37,-103.71 397.32,-112.93"/>
<polygon fill="#63b8ff" stroke="#63b8ff" points="472.12,-82.4 479.75,-75.04 469.2,-76.04 472.12,-82.4"/>
</g>
<!-- Node3 -->
<g id="node3" class="node">
<title>Node3</title>
<g id="a_node3"><a xlink:href="namespacequala.html#a1531e5151ab5526f7085a9e95d00bda5" target="_top" xlink:title="Solve one step of Anderson acceleration to find a fixed point of a function g(x):">
<polygon fill="white" stroke="#666666" points="292,-99.5 158,-99.5 158,-69.5 292,-69.5 292,-99.5"/>
<text text-anchor="start" x="166" y="-87.5" font-family="Helvetica,sans-Serif" font-size="10.00">quala::minimize_update</text>
<text text-anchor="middle" x="225" y="-76.5" font-family="Helvetica,sans-Serif" font-size="10.00">_anderson</text>
</a>
</g>
</g>
<!-- Node1&#45;&gt;Node3 -->
<g id="edge4" class="edge">
<title>Node1&#45;&gt;Node3</title>
<path fill="none" stroke="#63b8ff" d="M448.82,-69.08C404.47,-72.15 340.27,-76.59 292.17,-79.92"/>
<polygon fill="#63b8ff" stroke="#63b8ff" points="449.07,-72.57 458.81,-68.39 448.59,-65.58 449.07,-72.57"/>
</g>
<!-- Node5 -->
<g id="node5" class="node">
<title>Node5</title>
<g id="a_node5"><a xlink:href="classquala_1_1LimitedMemoryQR.html#a436c4dbbf0476354ca67a104bc005e55" target="_top" xlink:title="Remove the leftmost column.">
<polygon fill="white" stroke="#666666" points="423,-56 328,-56 328,-37 423,-37 423,-56"/>
<text text-anchor="middle" x="375.5" y="-44" font-family="Helvetica,sans-Serif" font-size="10.00">remove_column</text>
</a>
</g>
</g>
<!-- Node1&#45;&gt;Node5 -->
<g id="edge5" class="edge">
<title>Node1&#45;&gt;Node5</title>
<path fill="none" stroke="#63b8ff" d="M448.77,-57.57C440.34,-56.28 431.66,-54.95 423.37,-53.68"/>
<polygon fill="#63b8ff" stroke="#63b8ff" points="448.45,-61.07 458.86,-59.12 449.51,-54.15 448.45,-61.07"/>
</g>
<!-- Node6 -->
<g id="node6" class="node">
<title>Node6</title>
<g id="a_node6"><a xlink:href="classquala_1_1LimitedMemoryQR.html#a33f0a7b277c8d3c311b0b4868c55eda1" target="_top" xlink:title="Solve the least squares problem AX = B.">
<polygon fill="white" stroke="#666666" points="397,-19 354,-19 354,0 397,0 397,-19"/>
<text text-anchor="middle" x="375.5" y="-7" font-family="Helvetica,sans-Serif" font-size="10.00">solve</text>
</a>
</g>
</g>
<!-- Node1&#45;&gt;Node6 -->
<g id="edge7" class="edge">
<title>Node1&#45;&gt;Node6</title>
<path fill="none" stroke="#63b8ff" d="M473.17,-51.38C458.45,-43.96 439.89,-34.89 423,-27.5 414.59,-23.82 405.18,-20.1 397.03,-17.01"/>
<polygon fill="#63b8ff" stroke="#63b8ff" points="471.73,-54.58 482.23,-55.99 474.9,-48.34 471.73,-54.58"/>
</g>
<!-- Node2&#45;&gt;Node3 -->
<g id="edge2" class="edge">
<title>Node2&#45;&gt;Node3</title>
<path fill="none" stroke="#63b8ff" d="M327.38,-110.44C313.87,-106.98 298.96,-103.17 284.84,-99.56"/>
<polygon fill="#63b8ff" stroke="#63b8ff" points="326.85,-113.92 337.41,-113.01 328.59,-107.14 326.85,-113.92"/>
</g>
<!-- Node4 -->
<g id="node4" class="node">
<title>Node4</title>
<g id="a_node4"><a xlink:href="classquala_1_1AndersonAccel.html#a7cbecaa52700158ebe36c0d587791ed4" target="_top" xlink:title="Compute the accelerated iterate , given the function value at the current iterate &#160;and the correspond...">
<polygon fill="white" stroke="#666666" points="122,-99.5 0,-99.5 0,-69.5 122,-69.5 122,-99.5"/>
<text text-anchor="start" x="8" y="-87.5" font-family="Helvetica,sans-Serif" font-size="10.00">quala::AndersonAccel</text>
<text text-anchor="middle" x="61" y="-76.5" font-family="Helvetica,sans-Serif" font-size="10.00">::compute</text>
</a>
</g>
</g>
<!-- Node3&#45;&gt;Node4 -->
<g id="edge3" class="edge">
<title>Node3&#45;&gt;Node4</title>
<path fill="none" stroke="#63b8ff" d="M147.61,-84.5C139.02,-84.5 130.36,-84.5 122.01,-84.5"/>
<polygon fill="#63b8ff" stroke="#63b8ff" points="147.64,-88 157.64,-84.5 147.64,-81 147.64,-88"/>
</g>
<!-- Node5&#45;&gt;Node3 -->
<g id="edge6" class="edge">
<title>Node5&#45;&gt;Node3</title>
<path fill="none" stroke="#63b8ff" d="M327.06,-58.64C313.64,-62.07 298.86,-65.86 284.85,-69.44"/>
<polygon fill="#63b8ff" stroke="#63b8ff" points="328.21,-61.96 337.03,-56.09 326.47,-55.18 328.21,-61.96"/>
</g>
<!-- Node7 -->
<g id="node7" class="node">
<title>Node7</title>
<g id="a_node7"><a xlink:href="classquala_1_1LimitedMemoryQR.html#a5f3732971788e558366a2b509a538206" target="_top" xlink:title="Solve the least squares problem AX = B.">
<polygon fill="white" stroke="#666666" points="246.5,-19 203.5,-19 203.5,0 246.5,0 246.5,-19"/>
<text text-anchor="middle" x="225" y="-7" font-family="Helvetica,sans-Serif" font-size="10.00">solve</text>
</a>
</g>
</g>
<!-- Node6&#45;&gt;Node7 -->
<g id="edge8" class="edge">
<title>Node6&#45;&gt;Node7</title>
<path fill="none" stroke="#63b8ff" d="M343.48,-9.5C314.52,-9.5 272.11,-9.5 246.95,-9.5"/>
<polygon fill="#63b8ff" stroke="#63b8ff" points="343.85,-13 353.85,-9.5 343.85,-6 343.85,-13"/>
</g>
</g>
</svg>
