<?xml version="1.0" encoding="UTF-8" standalone="no"?>
<!DOCTYPE svg PUBLIC "-//W3C//DTD SVG 1.1//EN"
 "http://www.w3.org/Graphics/SVG/1.1/DTD/svg11.dtd">
<!-- Generated by graphviz version 2.43.0 (0)
 -->
<!-- Title: s Pages: 1 -->
<svg width="375pt" height="141pt"
 viewBox="0.00 0.00 375.00 141.00" xmlns="http://www.w3.org/2000/svg" xmlns:xlink="http://www.w3.org/1999/xlink">
<g id="graph0" class="graph" transform="scale(1 1) rotate(0) translate(4 137)">
<title>s</title>
<!-- Node1 -->
<g id="node1" class="node">
<title>Node1</title>
<g id="a_node1"><a xlink:title=" ">
<polygon fill="#999999" stroke="#666666" points="367,-76 338,-76 338,-57 367,-57 367,-76"/>
<text text-anchor="middle" x="352.5" y="-64" font-family="Helvetica,sans-Serif" font-size="10.00">s</text>
</a>
</g>
</g>
<!-- Node2 -->
<g id="node2" class="node">
<title>Node2</title>
<g id="a_node2"><a xlink:href="classquala_1_1LBFGS.html#a9ae2b583badddda6ec2917bb565688c3" target="_top" xlink:title="Apply the inverse Hessian approximation to the given vector q.">
<polygon fill="white" stroke="#666666" points="196,-133 152,-133 152,-114 196,-114 196,-133"/>
<text text-anchor="middle" x="174" y="-121" font-family="Helvetica,sans-Serif" font-size="10.00">apply</text>
</a>
</g>
</g>
<!-- Node1&#45;&gt;Node2 -->
<g id="edge1" class="edge">
<title>Node1&#45;&gt;Node2</title>
<path fill="none" stroke="#63b8ff" d="M332.06,-82.1C323.33,-88.39 312.61,-95.17 302,-99.5 266.68,-113.91 222.27,-119.77 196.41,-122.07"/>
<polygon fill="#63b8ff" stroke="#63b8ff" points="334.18,-84.89 340.06,-76.08 329.97,-79.3 334.18,-84.89"/>
</g>
<!-- Node3 -->
<g id="node3" class="node">
<title>Node3</title>
<g id="a_node3"><a xlink:href="quala_8py_8cpp.html#a12fb4e87da488d1fc7c6fa3e6a3adb90" target="_top" xlink:title=" ">
<polygon fill="white" stroke="#666666" points="113,-76 0,-76 0,-57 113,-57 113,-76"/>
<text text-anchor="middle" x="56.5" y="-64" font-family="Helvetica,sans-Serif" font-size="10.00">PYBIND11_MODULE</text>
</a>
</g>
</g>
<!-- Node1&#45;&gt;Node3 -->
<g id="edge3" class="edge">
<title>Node1&#45;&gt;Node3</title>
<path fill="none" stroke="#63b8ff" d="M327.7,-69.39C319.57,-70.25 310.4,-71.08 302,-71.5 237.34,-74.76 162.95,-72.36 113.37,-69.89"/>
<polygon fill="#63b8ff" stroke="#63b8ff" points="328.11,-72.87 337.66,-68.27 327.33,-65.91 328.11,-72.87"/>
</g>
<!-- Node4 -->
<g id="node4" class="node">
<title>Node4</title>
<g id="a_node4"><a xlink:href="classquala_1_1LBFGS.html#ae34a8e5e432c990eb8af2f95bcbc04bd" target="_top" xlink:title="Update the inverse Hessian approximation using the new vectors xₖ₊₁ and pₖ₊₁.">
<polygon fill="white" stroke="#666666" points="199,-57 149,-57 149,-38 199,-38 199,-57"/>
<text text-anchor="middle" x="174" y="-45" font-family="Helvetica,sans-Serif" font-size="10.00">update</text>
</a>
</g>
</g>
<!-- Node1&#45;&gt;Node4 -->
<g id="edge4" class="edge">
<title>Node1&#45;&gt;Node4</title>
<path fill="none" stroke="#63b8ff" d="M327.66,-63.93C293.99,-60.31 232.85,-53.73 199.06,-50.09"/>
<polygon fill="#63b8ff" stroke="#63b8ff" points="327.63,-67.45 337.94,-65.04 328.38,-60.49 327.63,-67.45"/>
</g>
<!-- Node5 -->
<g id="node5" class="node">
<title>Node5</title>
<g id="a_node5"><a xlink:href="classquala_1_1LBFGS.html#af150290995e6bee28f5a0f057ed511c8" target="_top" xlink:title="Update the inverse Hessian approximation using the new vectors sₖ = xₖ₊₁ &#45; xₖ and yₖ = pₖ₊₁ &#45; pₖ.">
<polygon fill="white" stroke="#666666" points="302,-19 235,-19 235,0 302,0 302,-19"/>
<text text-anchor="middle" x="268.5" y="-7" font-family="Helvetica,sans-Serif" font-size="10.00">update_sy</text>
</a>
</g>
</g>
<!-- Node1&#45;&gt;Node5 -->
<g id="edge6" class="edge">
<title>Node1&#45;&gt;Node5</title>
<path fill="none" stroke="#63b8ff" d="M329.45,-51.17C314.77,-40.97 295.94,-27.88 283.33,-19.12"/>
<polygon fill="#63b8ff" stroke="#63b8ff" points="327.75,-54.25 337.96,-57.09 331.75,-48.51 327.75,-54.25"/>
</g>
<!-- Node2&#45;&gt;Node3 -->
<g id="edge2" class="edge">
<title>Node2&#45;&gt;Node3</title>
<path fill="none" stroke="#63b8ff" d="M144.56,-109.46C123.51,-99.08 95.41,-85.21 76.9,-76.07"/>
<polygon fill="#63b8ff" stroke="#63b8ff" points="143.15,-112.67 153.67,-113.96 146.25,-106.4 143.15,-112.67"/>
</g>
<!-- Node4&#45;&gt;Node3 -->
<g id="edge5" class="edge">
<title>Node4&#45;&gt;Node3</title>
<path fill="none" stroke="#63b8ff" d="M138.68,-53.15C130.61,-54.47 121.82,-55.92 113.08,-57.36"/>
<polygon fill="#63b8ff" stroke="#63b8ff" points="139.49,-56.56 148.79,-51.48 138.35,-49.65 139.49,-56.56"/>
</g>
<!-- Node5&#45;&gt;Node3 -->
<g id="edge7" class="edge">
<title>Node5&#45;&gt;Node3</title>
<path fill="none" stroke="#63b8ff" d="M224.82,-13.89C202.04,-16.84 173.68,-21.5 149,-28.5 123.18,-35.82 94.85,-48.33 76.66,-56.99"/>
<polygon fill="#63b8ff" stroke="#63b8ff" points="225.37,-17.34 234.87,-12.65 224.51,-10.4 225.37,-17.34"/>
</g>
<!-- Node5&#45;&gt;Node4 -->
<g id="edge8" class="edge">
<title>Node5&#45;&gt;Node4</title>
<path fill="none" stroke="#63b8ff" d="M234.85,-22.91C222.8,-27.86 209.4,-33.37 198.33,-37.91"/>
<polygon fill="#63b8ff" stroke="#63b8ff" points="236.24,-26.13 244.16,-19.09 233.58,-19.65 236.24,-26.13"/>
</g>
</g>
</svg>
