<?xml version="1.0" encoding="UTF-8" standalone="no"?>
<!DOCTYPE svg PUBLIC "-//W3C//DTD SVG 1.1//EN"
 "http://www.w3.org/Graphics/SVG/1.1/DTD/svg11.dtd">
<!-- Generated by graphviz version 2.43.0 (0)
 -->
<!-- Title: n Pages: 1 -->
<svg width="268pt" height="64pt"
 viewBox="0.00 0.00 268.00 64.00" xmlns="http://www.w3.org/2000/svg" xmlns:xlink="http://www.w3.org/1999/xlink">
<g id="graph0" class="graph" transform="scale(1 1) rotate(0) translate(4 60)">
<title>n</title>
<!-- Node1 -->
<g id="node1" class="node">
<title>Node1</title>
<g id="a_node1"><a xlink:title="Get the size of the s and y vectors in the buffer.">
<polygon fill="#999999" stroke="#666666" points="260,-38 231,-38 231,-19 260,-19 260,-38"/>
<text text-anchor="middle" x="245.5" y="-26" font-family="Helvetica,sans-Serif" font-size="10.00">n</text>
</a>
</g>
</g>
<!-- Node2 -->
<g id="node2" class="node">
<title>Node2</title>
<g id="a_node2"><a xlink:href="classquala_1_1BroydenGood.html#af204bb3e018606122259767df4348cef" target="_top" xlink:title=" ">
<polygon fill="white" stroke="#666666" points="98,-56 15,-56 15,-37 98,-37 98,-56"/>
<text text-anchor="middle" x="56.5" y="-44" font-family="Helvetica,sans-Serif" font-size="10.00">BroydenGood</text>
</a>
</g>
</g>
<!-- Node1&#45;&gt;Node2 -->
<g id="edge1" class="edge">
<title>Node1&#45;&gt;Node2</title>
<path fill="none" stroke="#63b8ff" d="M220.5,-30.81C189.63,-33.78 135.56,-38.99 98.21,-42.58"/>
<polygon fill="#63b8ff" stroke="#63b8ff" points="221.13,-34.27 230.75,-29.82 220.46,-27.3 221.13,-34.27"/>
</g>
<!-- Node3 -->
<g id="node3" class="node">
<title>Node3</title>
<g id="a_node3"><a xlink:href="classquala_1_1BroydenGood.html#abfe51417fbebd259808f86d27f1d7ec5" target="_top" xlink:title="Re&#45;allocate storage for a problem with a different size.">
<polygon fill="white" stroke="#666666" points="195,-19 149,-19 149,0 195,0 195,-19"/>
<text text-anchor="middle" x="172" y="-7" font-family="Helvetica,sans-Serif" font-size="10.00">resize</text>
</a>
</g>
</g>
<!-- Node1&#45;&gt;Node3 -->
<g id="edge2" class="edge">
<title>Node1&#45;&gt;Node3</title>
<path fill="none" stroke="#63b8ff" d="M220.91,-22.23C212.62,-20.03 203.35,-17.56 195.18,-15.39"/>
<polygon fill="#63b8ff" stroke="#63b8ff" points="220.15,-25.65 230.71,-24.84 221.95,-18.89 220.15,-25.65"/>
</g>
<!-- Node3&#45;&gt;Node2 -->
<g id="edge3" class="edge">
<title>Node3&#45;&gt;Node2</title>
<path fill="none" stroke="#63b8ff" d="M139.16,-19.88C122.77,-25.22 102.93,-31.69 86.91,-36.91"/>
<polygon fill="#63b8ff" stroke="#63b8ff" points="140.42,-23.15 148.85,-16.72 138.25,-16.49 140.42,-23.15"/>
</g>
<!-- Node4 -->
<g id="node4" class="node">
<title>Node4</title>
<g id="a_node4"><a xlink:href="quala_8py_8cpp.html#a12fb4e87da488d1fc7c6fa3e6a3adb90" target="_top" xlink:title=" ">
<polygon fill="white" stroke="#666666" points="113,-19 0,-19 0,0 113,0 113,-19"/>
<text text-anchor="middle" x="56.5" y="-7" font-family="Helvetica,sans-Serif" font-size="10.00">PYBIND11_MODULE</text>
</a>
</g>
</g>
<!-- Node3&#45;&gt;Node4 -->
<g id="edge4" class="edge">
<title>Node3&#45;&gt;Node4</title>
<path fill="none" stroke="#63b8ff" d="M138.8,-9.5C130.74,-9.5 121.86,-9.5 113.02,-9.5"/>
<polygon fill="#63b8ff" stroke="#63b8ff" points="138.85,-13 148.85,-9.5 138.85,-6 138.85,-13"/>
</g>
</g>
</svg>
