<?xml version="1.0" encoding="UTF-8" standalone="no"?>
<!DOCTYPE svg PUBLIC "-//W3C//DTD SVG 1.1//EN"
 "http://www.w3.org/Graphics/SVG/1.1/DTD/svg11.dtd">
<!-- Generated by graphviz version 2.43.0 (0)
 -->
<!-- Title: update_valid Pages: 1 -->
<svg width="426pt" height="141pt"
 viewBox="0.00 0.00 426.00 141.00" xmlns="http://www.w3.org/2000/svg" xmlns:xlink="http://www.w3.org/1999/xlink">
<g id="graph0" class="graph" transform="scale(1 1) rotate(0) translate(4 137)">
<title>update_valid</title>
<!-- Node1 -->
<g id="node1" class="node">
<title>Node1</title>
<g id="a_node1"><a xlink:title="Check if the new vectors s and y allow for a valid BFGS update that preserves the positive definitene...">
<polygon fill="#999999" stroke="#666666" points="418,-95 338,-95 338,-76 418,-76 418,-95"/>
<text text-anchor="middle" x="378" y="-83" font-family="Helvetica,sans-Serif" font-size="10.00">update_valid</text>
</a>
</g>
</g>
<!-- Node2 -->
<g id="node2" class="node">
<title>Node2</title>
<g id="a_node2"><a xlink:href="classquala_1_1LBFGS.html#a0e0ce3dda38d6f64657929adcf05e2c8" target="_top" xlink:title="Apply the inverse Hessian approximation to the given vector q, applying only the columns and rows of ...">
<polygon fill="white" stroke="#666666" points="290.5,-133 246.5,-133 246.5,-114 290.5,-114 290.5,-133"/>
<text text-anchor="middle" x="268.5" y="-121" font-family="Helvetica,sans-Serif" font-size="10.00">apply</text>
</a>
</g>
</g>
<!-- Node1&#45;&gt;Node2 -->
<g id="edge1" class="edge">
<title>Node1&#45;&gt;Node2</title>
<path fill="none" stroke="#63b8ff" d="M340.42,-98.43C323.78,-104.31 304.69,-111.06 290.51,-116.07"/>
<polygon fill="#63b8ff" stroke="#63b8ff" points="341.61,-101.72 349.87,-95.09 339.28,-95.12 341.61,-101.72"/>
</g>
<!-- Node3 -->
<g id="node3" class="node">
<title>Node3</title>
<g id="a_node3"><a xlink:href="quala_8py_8cpp.html#a12fb4e87da488d1fc7c6fa3e6a3adb90" target="_top" xlink:title=" ">
<polygon fill="white" stroke="#666666" points="113,-57 0,-57 0,-38 113,-38 113,-57"/>
<text text-anchor="middle" x="56.5" y="-45" font-family="Helvetica,sans-Serif" font-size="10.00">PYBIND11_MODULE</text>
</a>
</g>
</g>
<!-- Node1&#45;&gt;Node3 -->
<g id="edge2" class="edge">
<title>Node1&#45;&gt;Node3</title>
<path fill="none" stroke="#63b8ff" d="M327.75,-80.99C281.52,-76.6 210.47,-69.43 149,-61.5 137.37,-60 124.93,-58.21 113.09,-56.43"/>
<polygon fill="#63b8ff" stroke="#63b8ff" points="327.52,-84.48 337.8,-81.94 328.17,-77.51 327.52,-84.48"/>
</g>
<!-- Node4 -->
<g id="node4" class="node">
<title>Node4</title>
<g id="a_node4"><a xlink:href="classquala_1_1LBFGS.html#af150290995e6bee28f5a0f057ed511c8" target="_top" xlink:title="Update the inverse Hessian approximation using the new vectors sₖ = xₖ₊₁ &#45; xₖ and yₖ = pₖ₊₁ &#45; pₖ.">
<polygon fill="white" stroke="#666666" points="302,-57 235,-57 235,-38 302,-38 302,-57"/>
<text text-anchor="middle" x="268.5" y="-45" font-family="Helvetica,sans-Serif" font-size="10.00">update_sy</text>
</a>
</g>
</g>
<!-- Node1&#45;&gt;Node4 -->
<g id="edge3" class="edge">
<title>Node1&#45;&gt;Node4</title>
<path fill="none" stroke="#63b8ff" d="M340.3,-72.53C325.98,-67.47 309.86,-61.77 296.62,-57.09"/>
<polygon fill="#63b8ff" stroke="#63b8ff" points="339.28,-75.88 349.87,-75.91 341.61,-69.28 339.28,-75.88"/>
</g>
<!-- Node4&#45;&gt;Node3 -->
<g id="edge4" class="edge">
<title>Node4&#45;&gt;Node3</title>
<path fill="none" stroke="#63b8ff" d="M224.29,-47.5C192.19,-47.5 148.14,-47.5 113.36,-47.5"/>
<polygon fill="#63b8ff" stroke="#63b8ff" points="224.69,-51 234.69,-47.5 224.69,-44 224.69,-51"/>
</g>
<!-- Node5 -->
<g id="node5" class="node">
<title>Node5</title>
<g id="a_node5"><a xlink:href="classquala_1_1LBFGS.html#ae34a8e5e432c990eb8af2f95bcbc04bd" target="_top" xlink:title="Update the inverse Hessian approximation using the new vectors xₖ₊₁ and pₖ₊₁.">
<polygon fill="white" stroke="#666666" points="199,-19 149,-19 149,0 199,0 199,-19"/>
<text text-anchor="middle" x="174" y="-7" font-family="Helvetica,sans-Serif" font-size="10.00">update</text>
</a>
</g>
</g>
<!-- Node4&#45;&gt;Node5 -->
<g id="edge5" class="edge">
<title>Node4&#45;&gt;Node5</title>
<path fill="none" stroke="#63b8ff" d="M234.85,-34.09C222.8,-29.14 209.4,-23.63 198.33,-19.09"/>
<polygon fill="#63b8ff" stroke="#63b8ff" points="233.58,-37.35 244.16,-37.91 236.24,-30.87 233.58,-37.35"/>
</g>
<!-- Node5&#45;&gt;Node3 -->
<g id="edge6" class="edge">
<title>Node5&#45;&gt;Node3</title>
<path fill="none" stroke="#63b8ff" d="M138.91,-20.72C122.28,-26.19 102.49,-32.7 86.59,-37.93"/>
<polygon fill="#63b8ff" stroke="#63b8ff" points="140.38,-23.92 148.79,-17.47 138.19,-17.27 140.38,-23.92"/>
</g>
</g>
</svg>
