<?xml version="1.0" encoding="UTF-8" standalone="no"?>
<!DOCTYPE svg PUBLIC "-//W3C//DTD SVG 1.1//EN"
 "http://www.w3.org/Graphics/SVG/1.1/DTD/svg11.dtd">
<!-- Generated by graphviz version 2.43.0 (0)
 -->
<!-- Title: n Pages: 1 -->
<svg width="281pt" height="83pt"
 viewBox="0.00 0.00 281.00 83.00" xmlns="http://www.w3.org/2000/svg" xmlns:xlink="http://www.w3.org/1999/xlink">
<g id="graph0" class="graph" transform="scale(1 1) rotate(0) translate(4 79)">
<title>n</title>
<!-- Node1 -->
<g id="node1" class="node">
<title>Node1</title>
<g id="a_node1"><a xlink:title="Get the problem dimension.">
<polygon fill="#999999" stroke="#666666" points="273,-56 244,-56 244,-37 273,-37 273,-56"/>
<text text-anchor="middle" x="258.5" y="-44" font-family="Helvetica,sans-Serif" font-size="10.00">n</text>
</a>
</g>
</g>
<!-- Node2 -->
<g id="node2" class="node">
<title>Node2</title>
<g id="a_node2"><a xlink:href="classquala_1_1AndersonAccel.html#a1fcb04cfb2b1398b54d8242cc3b0fb34" target="_top" xlink:title=" ">
<polygon fill="white" stroke="#666666" points="101,-75 12,-75 12,-56 101,-56 101,-75"/>
<text text-anchor="middle" x="56.5" y="-63" font-family="Helvetica,sans-Serif" font-size="10.00">AndersonAccel</text>
</a>
</g>
</g>
<!-- Node1&#45;&gt;Node2 -->
<g id="edge1" class="edge">
<title>Node1&#45;&gt;Node2</title>
<path fill="none" stroke="#63b8ff" d="M234.37,-57.39C226.22,-60.68 216.88,-63.85 208,-65.5 172.42,-72.09 131.29,-71.55 101.02,-69.67"/>
<polygon fill="#63b8ff" stroke="#63b8ff" points="235.8,-60.58 243.61,-53.41 233.04,-54.15 235.8,-60.58"/>
</g>
<!-- Node3 -->
<g id="node3" class="node">
<title>Node3</title>
<g id="a_node3"><a xlink:href="classquala_1_1AndersonAccel.html#a91f7e1e33f6e4eadf8e5fb93bcaa5437" target="_top" xlink:title="Call this function on the first iteration to initialize the accelerator.">
<polygon fill="white" stroke="#666666" points="208,-56 149,-56 149,-37 208,-37 208,-56"/>
<text text-anchor="middle" x="178.5" y="-44" font-family="Helvetica,sans-Serif" font-size="10.00">initialize</text>
</a>
</g>
</g>
<!-- Node1&#45;&gt;Node3 -->
<g id="edge2" class="edge">
<title>Node1&#45;&gt;Node3</title>
<path fill="none" stroke="#63b8ff" d="M233.7,-46.5C225.63,-46.5 216.52,-46.5 208.11,-46.5"/>
<polygon fill="#63b8ff" stroke="#63b8ff" points="233.91,-50 243.91,-46.5 233.91,-43 233.91,-50"/>
</g>
<!-- Node4 -->
<g id="node4" class="node">
<title>Node4</title>
<g id="a_node4"><a xlink:href="classquala_1_1AndersonAccel.html#abfe51417fbebd259808f86d27f1d7ec5" target="_top" xlink:title="Change the problem dimension.">
<polygon fill="white" stroke="#666666" points="201.5,-19 155.5,-19 155.5,0 201.5,0 201.5,-19"/>
<text text-anchor="middle" x="178.5" y="-7" font-family="Helvetica,sans-Serif" font-size="10.00">resize</text>
</a>
</g>
</g>
<!-- Node1&#45;&gt;Node4 -->
<g id="edge3" class="edge">
<title>Node1&#45;&gt;Node4</title>
<path fill="none" stroke="#63b8ff" d="M234.82,-35.74C223.7,-30.47 210.42,-24.17 199.66,-19.06"/>
<polygon fill="#63b8ff" stroke="#63b8ff" points="233.38,-38.93 243.91,-40.06 236.38,-32.61 233.38,-38.93"/>
</g>
<!-- Node4&#45;&gt;Node2 -->
<g id="edge4" class="edge">
<title>Node4&#45;&gt;Node2</title>
<path fill="none" stroke="#63b8ff" d="M147.74,-23.39C125.98,-33.54 97.03,-47.05 77.86,-56"/>
<polygon fill="#63b8ff" stroke="#63b8ff" points="149.29,-26.53 156.87,-19.13 146.33,-20.18 149.29,-26.53"/>
</g>
<!-- Node5 -->
<g id="node5" class="node">
<title>Node5</title>
<g id="a_node5"><a xlink:href="quala_8py_8cpp.html#a12fb4e87da488d1fc7c6fa3e6a3adb90" target="_top" xlink:title=" ">
<polygon fill="white" stroke="#666666" points="113,-19 0,-19 0,0 113,0 113,-19"/>
<text text-anchor="middle" x="56.5" y="-7" font-family="Helvetica,sans-Serif" font-size="10.00">PYBIND11_MODULE</text>
</a>
</g>
</g>
<!-- Node4&#45;&gt;Node5 -->
<g id="edge5" class="edge">
<title>Node4&#45;&gt;Node5</title>
<path fill="none" stroke="#63b8ff" d="M145.29,-9.5C135.36,-9.5 124.11,-9.5 113.07,-9.5"/>
<polygon fill="#63b8ff" stroke="#63b8ff" points="145.49,-13 155.49,-9.5 145.49,-6 145.49,-13"/>
</g>
</g>
</svg>
