<?xml version="1.0" encoding="UTF-8" standalone="no"?>
<!DOCTYPE svg PUBLIC "-//W3C//DTD SVG 1.1//EN"
 "http://www.w3.org/Graphics/SVG/1.1/DTD/svg11.dtd">
<!-- Generated by graphviz version 2.43.0 (0)
 -->
<!-- Title: m Pages: 1 -->
<svg width="839pt" height="507pt"
 viewBox="0.00 0.00 839.00 506.57" xmlns="http://www.w3.org/2000/svg" xmlns:xlink="http://www.w3.org/1999/xlink">
<g id="graph0" class="graph" transform="scale(1 1) rotate(0) translate(4 502.57)">
<title>m</title>
<!-- Node1 -->
<g id="node1" class="node">
<title>Node1</title>
<g id="a_node1"><a xlink:title=" ">
<polygon fill="#999999" stroke="#666666" points="831,-204 802,-204 802,-185 831,-185 831,-204"/>
<text text-anchor="middle" x="816.5" y="-192" font-family="Helvetica,sans-Serif" font-size="10.00">m</text>
</a>
</g>
</g>
<!-- Node2 -->
<g id="node2" class="node">
<title>Node2</title>
<g id="a_node2"><a xlink:href="classquala_1_1LimitedMemoryQR.html#a5e3077223e98c1e4e286e01503f220d5" target="_top" xlink:title="Add the given column to the right.">
<polygon fill="white" stroke="#666666" points="585,-450 509,-450 509,-431 585,-431 585,-450"/>
<text text-anchor="middle" x="547" y="-438" font-family="Helvetica,sans-Serif" font-size="10.00">add_column</text>
</a>
</g>
</g>
<!-- Node1&#45;&gt;Node2 -->
<g id="edge1" class="edge">
<title>Node1&#45;&gt;Node2</title>
<path fill="none" stroke="#63b8ff" d="M813.24,-213.96C807.63,-258.82 791.65,-367.57 766,-392.5 717.37,-439.77 633.36,-444.85 585.06,-443.32"/>
<polygon fill="#63b8ff" stroke="#63b8ff" points="816.71,-214.37 814.44,-204.02 809.76,-213.53 816.71,-214.37"/>
</g>
<!-- Node3 -->
<g id="node3" class="node">
<title>Node3</title>
<g id="a_node3"><a xlink:href="namespacequala.html#a1531e5151ab5526f7085a9e95d00bda5" target="_top" xlink:title="Solve one step of Anderson acceleration to find a fixed point of a function g(x):">
<polygon fill="white" stroke="#666666" points="292,-417.5 158,-417.5 158,-387.5 292,-387.5 292,-417.5"/>
<text text-anchor="start" x="166" y="-405.5" font-family="Helvetica,sans-Serif" font-size="10.00">quala::minimize_update</text>
<text text-anchor="middle" x="225" y="-394.5" font-family="Helvetica,sans-Serif" font-size="10.00">_anderson</text>
</a>
</g>
</g>
<!-- Node1&#45;&gt;Node3 -->
<g id="edge6" class="edge">
<title>Node1&#45;&gt;Node3</title>
<path fill="none" stroke="#63b8ff" d="M814.13,-214.25C810.16,-265.42 796.93,-400.34 766,-430.5 624.18,-568.78 349.3,-460.09 257.04,-417.61"/>
<polygon fill="#63b8ff" stroke="#63b8ff" points="817.63,-214.4 814.87,-204.17 810.65,-213.88 817.63,-214.4"/>
</g>
<!-- Node5 -->
<g id="node5" class="node">
<title>Node5</title>
<g id="a_node5"><a xlink:href="classquala_1_1AndersonAccel.html#a9cf7dcccbc3bc69a10833450ee79c623" target="_top" xlink:title="Get the maximum number of stored columns.">
<polygon fill="white" stroke="#666666" points="766,-166.5 644,-166.5 644,-136.5 766,-136.5 766,-166.5"/>
<text text-anchor="start" x="652" y="-154.5" font-family="Helvetica,sans-Serif" font-size="10.00">quala::AndersonAccel</text>
<text text-anchor="middle" x="705" y="-143.5" font-family="Helvetica,sans-Serif" font-size="10.00">::history</text>
</a>
</g>
</g>
<!-- Node1&#45;&gt;Node5 -->
<g id="edge4" class="edge">
<title>Node1&#45;&gt;Node5</title>
<path fill="none" stroke="#63b8ff" d="M791.97,-185.26C778.19,-179.85 760.45,-172.88 744.67,-166.69"/>
<polygon fill="#63b8ff" stroke="#63b8ff" points="791.04,-188.66 801.63,-189.05 793.6,-182.14 791.04,-188.66"/>
</g>
<!-- Node6 -->
<g id="node6" class="node">
<title>Node6</title>
<g id="a_node6"><a xlink:href="classquala_1_1LimitedMemoryQR.html#a9cf7dcccbc3bc69a10833450ee79c623" target="_top" xlink:title=" ">
<polygon fill="white" stroke="#666666" points="730,-118 680,-118 680,-99 730,-99 730,-118"/>
<text text-anchor="middle" x="705" y="-106" font-family="Helvetica,sans-Serif" font-size="10.00">history</text>
</a>
</g>
</g>
<!-- Node1&#45;&gt;Node6 -->
<g id="edge5" class="edge">
<title>Node1&#45;&gt;Node6</title>
<path fill="none" stroke="#63b8ff" d="M806.02,-175.83C797.48,-160.75 783.57,-140.06 766,-127.5 755.42,-119.94 741.71,-115.3 730.07,-112.5"/>
<polygon fill="#63b8ff" stroke="#63b8ff" points="803.02,-177.64 810.85,-184.78 809.19,-174.32 803.02,-177.64"/>
</g>
<!-- Node7 -->
<g id="node7" class="node">
<title>Node7</title>
<g id="a_node7"><a xlink:href="classquala_1_1LimitedMemoryQR.html#a5c8c5c98dc14e4c5e77345b6fe7a023a" target="_top" xlink:title="Get the previous index in the circular storage for R.">
<polygon fill="white" stroke="#666666" points="728.5,-81 681.5,-81 681.5,-62 728.5,-62 728.5,-81"/>
<text text-anchor="middle" x="705" y="-69" font-family="Helvetica,sans-Serif" font-size="10.00">r_pred</text>
</a>
</g>
</g>
<!-- Node1&#45;&gt;Node7 -->
<g id="edge7" class="edge">
<title>Node1&#45;&gt;Node7</title>
<path fill="none" stroke="#63b8ff" d="M811.27,-175.12C805.2,-151.79 791.77,-112.95 766,-90.5 755.62,-81.46 740.92,-76.71 728.67,-74.23"/>
<polygon fill="#63b8ff" stroke="#63b8ff" points="807.89,-176 813.63,-184.91 814.69,-174.37 807.89,-176"/>
</g>
<!-- Node9 -->
<g id="node9" class="node">
<title>Node9</title>
<g id="a_node9"><a xlink:href="classquala_1_1LimitedMemoryQR.html#a9f68bead8c70041aacb90dd175150dc4" target="_top" xlink:title="Get the next index in the circular storage for R.">
<polygon fill="white" stroke="#666666" points="728.5,-383 681.5,-383 681.5,-364 728.5,-364 728.5,-383"/>
<text text-anchor="middle" x="705" y="-371" font-family="Helvetica,sans-Serif" font-size="10.00">r_succ</text>
</a>
</g>
</g>
<!-- Node1&#45;&gt;Node9 -->
<g id="edge9" class="edge">
<title>Node1&#45;&gt;Node9</title>
<path fill="none" stroke="#63b8ff" d="M804.16,-213.04C781.09,-250.75 729.41,-335.24 711.92,-363.83"/>
<polygon fill="#63b8ff" stroke="#63b8ff" points="807.38,-214.48 809.61,-204.12 801.41,-210.83 807.38,-214.48"/>
</g>
<!-- Node12 -->
<g id="node12" class="node">
<title>Node12</title>
<g id="a_node12"><a xlink:href="classquala_1_1LimitedMemoryQR.html#ad15543203799d1dccb5a5e1c572e3f02" target="_top" xlink:title="Re&#45;allocate storage for a problem with a different size.">
<polygon fill="white" stroke="#666666" points="728,-43 682,-43 682,-24 728,-24 728,-43"/>
<text text-anchor="middle" x="705" y="-31" font-family="Helvetica,sans-Serif" font-size="10.00">resize</text>
</a>
</g>
</g>
<!-- Node1&#45;&gt;Node12 -->
<g id="edge14" class="edge">
<title>Node1&#45;&gt;Node12</title>
<path fill="none" stroke="#63b8ff" d="M813.96,-174.6C810.55,-144.33 799.77,-86.74 766,-53.5 755.91,-43.56 740.75,-38.56 728.2,-36.05"/>
<polygon fill="#63b8ff" stroke="#63b8ff" points="810.49,-175.14 814.93,-184.76 817.46,-174.47 810.49,-175.14"/>
</g>
<!-- Node16 -->
<g id="node16" class="node">
<title>Node16</title>
<g id="a_node16"><a xlink:href="classquala_1_1LimitedMemoryQR.html#a0bf0ad441ec87440e4525e75de00d053" target="_top" xlink:title="Get iterators in the circular buffer.">
<polygon fill="white" stroke="#666666" points="733.5,-260 676.5,-260 676.5,-241 733.5,-241 733.5,-260"/>
<text text-anchor="middle" x="705" y="-248" font-family="Helvetica,sans-Serif" font-size="10.00">ring_iter</text>
</a>
</g>
</g>
<!-- Node1&#45;&gt;Node16 -->
<g id="edge18" class="edge">
<title>Node1&#45;&gt;Node16</title>
<path fill="none" stroke="#63b8ff" d="M792.56,-206.23C772.48,-216.5 743.66,-231.24 724.89,-240.84"/>
<polygon fill="#63b8ff" stroke="#63b8ff" points="794.32,-209.26 801.63,-201.59 791.13,-203.03 794.32,-209.26"/>
</g>
<!-- Node20 -->
<g id="node20" class="node">
<title>Node20</title>
<g id="a_node20"><a xlink:href="classquala_1_1LimitedMemoryQR.html#a5f3732971788e558366a2b509a538206" target="_top" xlink:title="Solve the least squares problem AX = B.">
<polygon fill="white" stroke="#666666" points="82.5,-209 39.5,-209 39.5,-190 82.5,-190 82.5,-209"/>
<text text-anchor="middle" x="61" y="-197" font-family="Helvetica,sans-Serif" font-size="10.00">solve</text>
</a>
</g>
</g>
<!-- Node1&#45;&gt;Node20 -->
<g id="edge27" class="edge">
<title>Node1&#45;&gt;Node20</title>
<path fill="none" stroke="#63b8ff" d="M791.35,-194.52C736.88,-194.58 600.29,-194.79 486,-195.5 331.04,-196.47 144.24,-198.55 82.74,-199.26"/>
<polygon fill="#63b8ff" stroke="#63b8ff" points="791.69,-198.02 801.69,-194.51 791.68,-191.02 791.69,-198.02"/>
</g>
<!-- Node2&#45;&gt;Node3 -->
<g id="edge2" class="edge">
<title>Node2&#45;&gt;Node3</title>
<path fill="none" stroke="#63b8ff" d="M498.68,-437.71C454.42,-434.78 386.55,-429.48 328,-421.5 316.4,-419.92 304.11,-417.91 292.24,-415.81"/>
<polygon fill="#63b8ff" stroke="#63b8ff" points="498.64,-441.21 508.85,-438.37 499.1,-434.23 498.64,-441.21"/>
</g>
<!-- Node4 -->
<g id="node4" class="node">
<title>Node4</title>
<g id="a_node4"><a xlink:href="classquala_1_1AndersonAccel.html#a7cbecaa52700158ebe36c0d587791ed4" target="_top" xlink:title="Compute the accelerated iterate , given the function value at the current iterate &#160;and the correspond...">
<polygon fill="white" stroke="#666666" points="122,-417.5 0,-417.5 0,-387.5 122,-387.5 122,-417.5"/>
<text text-anchor="start" x="8" y="-405.5" font-family="Helvetica,sans-Serif" font-size="10.00">quala::AndersonAccel</text>
<text text-anchor="middle" x="61" y="-394.5" font-family="Helvetica,sans-Serif" font-size="10.00">::compute</text>
</a>
</g>
</g>
<!-- Node3&#45;&gt;Node4 -->
<g id="edge3" class="edge">
<title>Node3&#45;&gt;Node4</title>
<path fill="none" stroke="#63b8ff" d="M147.61,-402.5C139.02,-402.5 130.36,-402.5 122.01,-402.5"/>
<polygon fill="#63b8ff" stroke="#63b8ff" points="147.64,-406 157.64,-402.5 147.64,-399 147.64,-406"/>
</g>
<!-- Node8 -->
<g id="node8" class="node">
<title>Node8</title>
<g id="a_node8"><a xlink:href="classquala_1_1LimitedMemoryQR.html#abe9cf16db2c29172997a6aa0ee68f75a" target="_top" xlink:title="Get the previous index in the circular buffer.">
<polygon fill="white" stroke="#666666" points="578,-83 516,-83 516,-64 578,-64 578,-83"/>
<text text-anchor="middle" x="547" y="-71" font-family="Helvetica,sans-Serif" font-size="10.00">ring_prev</text>
</a>
</g>
</g>
<!-- Node7&#45;&gt;Node8 -->
<g id="edge8" class="edge">
<title>Node7&#45;&gt;Node8</title>
<path fill="none" stroke="#63b8ff" d="M671.04,-71.92C643.6,-72.27 604.85,-72.77 578.21,-73.11"/>
<polygon fill="#63b8ff" stroke="#63b8ff" points="671.36,-75.42 681.32,-71.79 671.27,-68.42 671.36,-75.42"/>
</g>
<!-- Node9&#45;&gt;Node2 -->
<g id="edge10" class="edge">
<title>Node9&#45;&gt;Node2</title>
<path fill="none" stroke="#63b8ff" d="M673.87,-387.37C655.02,-395.96 630.19,-407.1 608,-416.5 596.43,-421.4 583.5,-426.61 572.61,-430.92"/>
<polygon fill="#63b8ff" stroke="#63b8ff" points="675.49,-390.48 683.13,-383.14 672.58,-384.11 675.49,-390.48"/>
</g>
<!-- Node10 -->
<g id="node10" class="node">
<title>Node10</title>
<g id="a_node10"><a xlink:href="classquala_1_1LimitedMemoryQR.html#a436c4dbbf0476354ca67a104bc005e55" target="_top" xlink:title="Remove the leftmost column.">
<polygon fill="white" stroke="#666666" points="436.5,-412 341.5,-412 341.5,-393 436.5,-393 436.5,-412"/>
<text text-anchor="middle" x="389" y="-400" font-family="Helvetica,sans-Serif" font-size="10.00">remove_column</text>
</a>
</g>
</g>
<!-- Node9&#45;&gt;Node10 -->
<g id="edge11" class="edge">
<title>Node9&#45;&gt;Node10</title>
<path fill="none" stroke="#63b8ff" d="M671.12,-377.06C652.59,-379.04 629.01,-381.49 608,-383.5 549,-389.14 480.96,-394.96 436.8,-398.65"/>
<polygon fill="#63b8ff" stroke="#63b8ff" points="671.55,-380.54 681.12,-375.99 670.81,-373.58 671.55,-380.54"/>
</g>
<!-- Node11 -->
<g id="node11" class="node">
<title>Node11</title>
<g id="a_node11"><a xlink:href="classquala_1_1LimitedMemoryQR.html#ad24371ff0ab7c48c4fb9750d5d66cd0c" target="_top" xlink:title="Get the next index in the circular buffer.">
<polygon fill="white" stroke="#666666" points="578,-374 516,-374 516,-355 578,-355 578,-374"/>
<text text-anchor="middle" x="547" y="-362" font-family="Helvetica,sans-Serif" font-size="10.00">ring_next</text>
</a>
</g>
</g>
<!-- Node9&#45;&gt;Node11 -->
<g id="edge13" class="edge">
<title>Node9&#45;&gt;Node11</title>
<path fill="none" stroke="#63b8ff" d="M671.04,-371.6C643.6,-370.02 604.85,-367.78 578.21,-366.24"/>
<polygon fill="#63b8ff" stroke="#63b8ff" points="671.13,-375.11 681.32,-372.19 671.53,-368.12 671.13,-375.11"/>
</g>
<!-- Node10&#45;&gt;Node3 -->
<g id="edge12" class="edge">
<title>Node10&#45;&gt;Node3</title>
<path fill="none" stroke="#63b8ff" d="M330.83,-402.5C318.28,-402.5 304.89,-402.5 292.03,-402.5"/>
<polygon fill="#63b8ff" stroke="#63b8ff" points="331.14,-406 341.14,-402.5 331.14,-399 331.14,-406"/>
</g>
<!-- Node13 -->
<g id="node13" class="node">
<title>Node13</title>
<g id="a_node13"><a xlink:href="classquala_1_1AndersonAccel.html#abfe51417fbebd259808f86d27f1d7ec5" target="_top" xlink:title="Change the problem dimension.">
<polygon fill="white" stroke="#666666" points="608,-45.5 486,-45.5 486,-15.5 608,-15.5 608,-45.5"/>
<text text-anchor="start" x="494" y="-33.5" font-family="Helvetica,sans-Serif" font-size="10.00">quala::AndersonAccel</text>
<text text-anchor="middle" x="547" y="-22.5" font-family="Helvetica,sans-Serif" font-size="10.00">::resize</text>
</a>
</g>
</g>
<!-- Node12&#45;&gt;Node13 -->
<g id="edge15" class="edge">
<title>Node12&#45;&gt;Node13</title>
<path fill="none" stroke="#63b8ff" d="M671.84,-32.88C653.5,-32.53 629.92,-32.08 608.26,-31.66"/>
<polygon fill="#63b8ff" stroke="#63b8ff" points="671.91,-36.38 681.98,-33.08 672.05,-29.38 671.91,-36.38"/>
</g>
<!-- Node14 -->
<g id="node14" class="node">
<title>Node14</title>
<g id="a_node14"><a xlink:href="classquala_1_1AndersonAccel.html#a1fcb04cfb2b1398b54d8242cc3b0fb34" target="_top" xlink:title=" ">
<polygon fill="white" stroke="#666666" points="450,-67.5 328,-67.5 328,-37.5 450,-37.5 450,-67.5"/>
<text text-anchor="start" x="336" y="-55.5" font-family="Helvetica,sans-Serif" font-size="10.00">quala::AndersonAccel</text>
<text text-anchor="middle" x="389" y="-44.5" font-family="Helvetica,sans-Serif" font-size="10.00">::AndersonAccel</text>
</a>
</g>
</g>
<!-- Node13&#45;&gt;Node14 -->
<g id="edge16" class="edge">
<title>Node13&#45;&gt;Node14</title>
<path fill="none" stroke="#63b8ff" d="M475.74,-40.41C467.2,-41.61 458.53,-42.84 450.15,-44.02"/>
<polygon fill="#63b8ff" stroke="#63b8ff" points="476.27,-43.87 485.69,-39.01 475.3,-36.94 476.27,-43.87"/>
</g>
<!-- Node15 -->
<g id="node15" class="node">
<title>Node15</title>
<g id="a_node15"><a xlink:href="quala_8py_8cpp.html#a12fb4e87da488d1fc7c6fa3e6a3adb90" target="_top" xlink:title=" ">
<polygon fill="white" stroke="#666666" points="445.5,-19 332.5,-19 332.5,0 445.5,0 445.5,-19"/>
<text text-anchor="middle" x="389" y="-7" font-family="Helvetica,sans-Serif" font-size="10.00">PYBIND11_MODULE</text>
</a>
</g>
</g>
<!-- Node13&#45;&gt;Node15 -->
<g id="edge17" class="edge">
<title>Node13&#45;&gt;Node15</title>
<path fill="none" stroke="#63b8ff" d="M475.68,-21.03C465.58,-19.67 455.31,-18.29 445.56,-16.98"/>
<polygon fill="#63b8ff" stroke="#63b8ff" points="475.31,-24.52 485.69,-22.38 476.24,-17.58 475.31,-24.52"/>
</g>
<!-- Node16&#45;&gt;Node3 -->
<g id="edge19" class="edge">
<title>Node16&#45;&gt;Node3</title>
<path fill="none" stroke="#63b8ff" d="M669.27,-263.66C651.1,-270.42 628.44,-278.65 608,-285.5 490.94,-324.74 351.98,-365.97 278.18,-387.46"/>
<polygon fill="#63b8ff" stroke="#63b8ff" points="670.72,-266.85 678.86,-260.07 668.27,-260.3 670.72,-266.85"/>
</g>
<!-- Node17 -->
<g id="node17" class="node">
<title>Node17</title>
<g id="a_node17"><a xlink:href="classquala_1_1LimitedMemoryQR.html#ae8160acf26958eb65aa5c0743dd2826d" target="_top" xlink:title="Get reverse iterators in the circular buffer.">
<polygon fill="white" stroke="#666666" points="596.5,-260 497.5,-260 497.5,-241 596.5,-241 596.5,-260"/>
<text text-anchor="middle" x="547" y="-248" font-family="Helvetica,sans-Serif" font-size="10.00">ring_reverse_iter</text>
</a>
</g>
</g>
<!-- Node16&#45;&gt;Node17 -->
<g id="edge20" class="edge">
<title>Node16&#45;&gt;Node17</title>
<path fill="none" stroke="#63b8ff" d="M666.37,-250.5C645.44,-250.5 619.16,-250.5 596.69,-250.5"/>
<polygon fill="#63b8ff" stroke="#63b8ff" points="666.47,-254 676.47,-250.5 666.47,-247 666.47,-254"/>
</g>
<!-- Node18 -->
<g id="node18" class="node">
<title>Node18</title>
<g id="a_node18"><a xlink:href="classquala_1_1LimitedMemoryQR.html#a5e3322cd9c833dc65702b574640eefe1" target="_top" xlink:title="Solve the least squares problem Ax = b.">
<polygon fill="white" stroke="#666666" points="420,-279 358,-279 358,-260 420,-260 420,-279"/>
<text text-anchor="middle" x="389" y="-267" font-family="Helvetica,sans-Serif" font-size="10.00">solve_col</text>
</a>
</g>
</g>
<!-- Node16&#45;&gt;Node18 -->
<g id="edge26" class="edge">
<title>Node16&#45;&gt;Node18</title>
<path fill="none" stroke="#63b8ff" d="M666.57,-259.67C648.93,-263.54 627.51,-267.59 608,-269.5 541.14,-276.05 462.19,-273.52 420.06,-271.35"/>
<polygon fill="#63b8ff" stroke="#63b8ff" points="667.5,-263.05 676.49,-257.43 665.96,-256.22 667.5,-263.05"/>
</g>
<!-- Node21 -->
<g id="node21" class="node">
<title>Node21</title>
<g id="a_node21"><a xlink:href="classquala_1_1LimitedMemoryQR.html#adf11f99cb8b119423c86498dbaab9820" target="_top" xlink:title="Multiply the matrix R by a scalar.">
<polygon fill="white" stroke="#666666" points="574,-223 520,-223 520,-204 574,-204 574,-223"/>
<text text-anchor="middle" x="547" y="-211" font-family="Helvetica,sans-Serif" font-size="10.00">scale_R</text>
</a>
</g>
</g>
<!-- Node16&#45;&gt;Node21 -->
<g id="edge25" class="edge">
<title>Node16&#45;&gt;Node21</title>
<path fill="none" stroke="#63b8ff" d="M666.46,-241.6C637.95,-234.84 599.48,-225.71 574.22,-219.72"/>
<polygon fill="#63b8ff" stroke="#63b8ff" points="665.93,-245.07 676.47,-243.97 667.55,-238.26 665.93,-245.07"/>
</g>
<!-- Node17&#45;&gt;Node18 -->
<g id="edge21" class="edge">
<title>Node17&#45;&gt;Node18</title>
<path fill="none" stroke="#63b8ff" d="M487.53,-257.62C464.66,-260.41 439.4,-263.48 420.32,-265.81"/>
<polygon fill="#63b8ff" stroke="#63b8ff" points="487.99,-261.09 497.5,-256.41 487.15,-254.14 487.99,-261.09"/>
</g>
<!-- Node18&#45;&gt;Node3 -->
<g id="edge22" class="edge">
<title>Node18&#45;&gt;Node3</title>
<path fill="none" stroke="#63b8ff" d="M365.36,-284.92C353.95,-292.88 340.02,-302.93 328,-312.5 296.59,-337.51 261.92,-368.99 242.17,-387.32"/>
<polygon fill="#63b8ff" stroke="#63b8ff" points="367.65,-287.59 373.88,-279.02 363.67,-281.83 367.65,-287.59"/>
</g>
<!-- Node19 -->
<g id="node19" class="node">
<title>Node19</title>
<g id="a_node19"><a xlink:href="classquala_1_1LimitedMemoryQR.html#a33f0a7b277c8d3c311b0b4868c55eda1" target="_top" xlink:title="Solve the least squares problem AX = B.">
<polygon fill="white" stroke="#666666" points="246.5,-256 203.5,-256 203.5,-237 246.5,-237 246.5,-256"/>
<text text-anchor="middle" x="225" y="-244" font-family="Helvetica,sans-Serif" font-size="10.00">solve</text>
</a>
</g>
</g>
<!-- Node18&#45;&gt;Node19 -->
<g id="edge23" class="edge">
<title>Node18&#45;&gt;Node19</title>
<path fill="none" stroke="#63b8ff" d="M347.93,-263.81C315.84,-259.25 272.11,-253.05 246.68,-249.44"/>
<polygon fill="#63b8ff" stroke="#63b8ff" points="347.52,-267.29 357.91,-265.23 348.5,-260.36 347.52,-267.29"/>
</g>
<!-- Node19&#45;&gt;Node20 -->
<g id="edge24" class="edge">
<title>Node19&#45;&gt;Node20</title>
<path fill="none" stroke="#63b8ff" d="M193.64,-237.69C161.21,-228.28 110.69,-213.63 82.61,-205.48"/>
<polygon fill="#63b8ff" stroke="#63b8ff" points="192.9,-241.12 203.48,-240.55 194.85,-234.4 192.9,-241.12"/>
</g>
</g>
</svg>
