<?xml version="1.0" encoding="UTF-8" standalone="no"?>
<!DOCTYPE svg PUBLIC "-//W3C//DTD SVG 1.1//EN"
 "http://www.w3.org/Graphics/SVG/1.1/DTD/svg11.dtd">
<!-- Generated by graphviz version 2.43.0 (0)
 -->
<!-- Title: cbegin Pages: 1 -->
<svg width="389pt" height="38pt"
 viewBox="0.00 0.00 389.00 38.00" xmlns="http://www.w3.org/2000/svg" xmlns:xlink="http://www.w3.org/1999/xlink">
<g id="graph0" class="graph" transform="scale(1 1) rotate(0) translate(4 34)">
<title>cbegin</title>
<!-- Node1 -->
<g id="node1" class="node">
<title>Node1</title>
<g id="a_node1"><a xlink:title=" ">
<polygon fill="#999999" stroke="#666666" points="49,-24.5 0,-24.5 0,-5.5 49,-5.5 49,-24.5"/>
<text text-anchor="middle" x="24.5" y="-12.5" font-family="Helvetica,sans-Serif" font-size="10.00">cbegin</text>
</a>
</g>
</g>
<!-- Node2 -->
<g id="node2" class="node">
<title>Node2</title>
<g id="a_node2"><a xlink:href="classquala_1_1CircularRange.html#a81f80a31923e85af56a7b1ae0712a33b" target="_top" xlink:title=" ">
<polygon fill="white" stroke="#666666" points="203,-30 85,-30 85,0 203,0 203,-30"/>
<text text-anchor="start" x="93" y="-18" font-family="Helvetica,sans-Serif" font-size="10.00">quala::CircularRange</text>
<text text-anchor="middle" x="144" y="-7" font-family="Helvetica,sans-Serif" font-size="10.00">::crbegin</text>
</a>
</g>
</g>
<!-- Node1&#45;&gt;Node2 -->
<g id="edge1" class="edge">
<title>Node1&#45;&gt;Node2</title>
<path fill="none" stroke="#63b8ff" d="M49.28,-15C56.78,-15 65.48,-15 74.5,-15"/>
<polygon fill="#63b8ff" stroke="#63b8ff" points="74.76,-18.5 84.76,-15 74.76,-11.5 74.76,-18.5"/>
</g>
<!-- Node3 -->
<g id="node3" class="node">
<title>Node3</title>
<g id="a_node3"><a xlink:href="classquala_1_1CircularRange.html#a68b688a51bd0cf6fb5bc2cba292209a8" target="_top" xlink:title=" ">
<polygon fill="white" stroke="#666666" points="381,-24.5 239,-24.5 239,-5.5 381,-5.5 381,-24.5"/>
<text text-anchor="middle" x="310" y="-12.5" font-family="Helvetica,sans-Serif" font-size="10.00">quala::CircularRange::end</text>
</a>
</g>
</g>
<!-- Node2&#45;&gt;Node3 -->
<g id="edge2" class="edge">
<title>Node2&#45;&gt;Node3</title>
<path fill="none" stroke="#63b8ff" d="M203.28,-15C211.55,-15 220.18,-15 228.78,-15"/>
<polygon fill="#63b8ff" stroke="#63b8ff" points="228.83,-18.5 238.83,-15 228.83,-11.5 228.83,-18.5"/>
</g>
</g>
</svg>
