<?xml version="1.0" encoding="UTF-8" standalone="no"?>
<!DOCTYPE svg PUBLIC "-//W3C//DTD SVG 1.1//EN"
 "http://www.w3.org/Graphics/SVG/1.1/DTD/svg11.dtd">
<!-- Generated by graphviz version 2.43.0 (0)
 -->
<!-- Title: resize Pages: 1 -->
<svg width="394pt" height="113pt"
 viewBox="0.00 0.00 394.00 112.50" xmlns="http://www.w3.org/2000/svg" xmlns:xlink="http://www.w3.org/1999/xlink">
<g id="graph0" class="graph" transform="scale(1 1) rotate(0) translate(4 108.5)">
<title>resize</title>
<!-- Node1 -->
<g id="node1" class="node">
<title>Node1</title>
<g id="a_node1"><a xlink:title="Re&#45;allocate storage for a problem with a different size.">
<polygon fill="#999999" stroke="#666666" points="46,-67.5 0,-67.5 0,-48.5 46,-48.5 46,-67.5"/>
<text text-anchor="middle" x="23" y="-55.5" font-family="Helvetica,sans-Serif" font-size="10.00">resize</text>
</a>
</g>
</g>
<!-- Node2 -->
<g id="node2" class="node">
<title>Node2</title>
<g id="a_node2"><a xlink:href="classquala_1_1BroydenGood.html#a727afc7a58d2e44ae7add57e3fa77bc6" target="_top" xlink:title="Get the size of the s and y vectors in the buffer.">
<polygon fill="white" stroke="#666666" points="160.5,-104.5 131.5,-104.5 131.5,-85.5 160.5,-85.5 160.5,-104.5"/>
<text text-anchor="middle" x="146" y="-92.5" font-family="Helvetica,sans-Serif" font-size="10.00">n</text>
</a>
</g>
</g>
<!-- Node1&#45;&gt;Node2 -->
<g id="edge1" class="edge">
<title>Node1&#45;&gt;Node2</title>
<path fill="none" stroke="#63b8ff" d="M46.25,-65.51C57.01,-69.09 70.15,-73.37 82,-77 95.12,-81.02 109.87,-85.25 121.8,-88.6"/>
<polygon fill="#63b8ff" stroke="#63b8ff" points="120.86,-91.97 131.44,-91.29 122.74,-85.23 120.86,-91.97"/>
</g>
<!-- Node4 -->
<g id="node4" class="node">
<title>Node4</title>
<g id="a_node4"><a xlink:href="classquala_1_1BroydenGood.html#ad20897c5c8bd47f5d4005989bead0e55" target="_top" xlink:title="Throw away the approximation and all previous vectors s and y.">
<polygon fill="white" stroke="#666666" points="166.5,-67.5 125.5,-67.5 125.5,-48.5 166.5,-48.5 166.5,-67.5"/>
<text text-anchor="middle" x="146" y="-55.5" font-family="Helvetica,sans-Serif" font-size="10.00">reset</text>
</a>
</g>
</g>
<!-- Node1&#45;&gt;Node4 -->
<g id="edge3" class="edge">
<title>Node1&#45;&gt;Node4</title>
<path fill="none" stroke="#63b8ff" d="M46.19,-58C65.57,-58 93.85,-58 115.2,-58"/>
<polygon fill="#63b8ff" stroke="#63b8ff" points="115.35,-61.5 125.35,-58 115.35,-54.5 115.35,-61.5"/>
</g>
<!-- Node5 -->
<g id="node5" class="node">
<title>Node5</title>
<g id="a_node5"><a xlink:href="structquala_1_1BroydenStorage.html#a48072fa680a2364d8ce96eb84a5d5689" target="_top" xlink:title="Re&#45;allocate storage for a problem with a different size.">
<polygon fill="white" stroke="#666666" points="210,-30 82,-30 82,0 210,0 210,-30"/>
<text text-anchor="start" x="90" y="-18" font-family="Helvetica,sans-Serif" font-size="10.00">quala::BroydenStorage</text>
<text text-anchor="middle" x="146" y="-7" font-family="Helvetica,sans-Serif" font-size="10.00">::resize</text>
</a>
</g>
</g>
<!-- Node1&#45;&gt;Node5 -->
<g id="edge4" class="edge">
<title>Node1&#45;&gt;Node5</title>
<path fill="none" stroke="#63b8ff" d="M46.19,-50.11C59.31,-45.45 76.51,-39.34 92.88,-33.52"/>
<polygon fill="#63b8ff" stroke="#63b8ff" points="94.13,-36.79 102.38,-30.15 91.78,-30.2 94.13,-36.79"/>
</g>
<!-- Node3 -->
<g id="node3" class="node">
<title>Node3</title>
<g id="a_node3"><a xlink:href="structquala_1_1BroydenStorage.html#a727afc7a58d2e44ae7add57e3fa77bc6" target="_top" xlink:title="Get the size of the s and s̃ vectors in the buffer.">
<polygon fill="white" stroke="#666666" points="386,-85.5 246,-85.5 246,-66.5 386,-66.5 386,-85.5"/>
<text text-anchor="middle" x="316" y="-73.5" font-family="Helvetica,sans-Serif" font-size="10.00">quala::BroydenStorage::n</text>
</a>
</g>
</g>
<!-- Node2&#45;&gt;Node3 -->
<g id="edge2" class="edge">
<title>Node2&#45;&gt;Node3</title>
<path fill="none" stroke="#63b8ff" d="M160.75,-93.45C177.43,-91.56 206.91,-88.22 235.66,-84.97"/>
<polygon fill="#63b8ff" stroke="#63b8ff" points="236.23,-88.43 245.78,-83.83 235.45,-81.47 236.23,-88.43"/>
</g>
<!-- Node5&#45;&gt;Node3 -->
<g id="edge6" class="edge">
<title>Node5&#45;&gt;Node3</title>
<path fill="none" stroke="#63b8ff" d="M188.53,-30.08C216.27,-40.15 252.4,-53.27 278.94,-62.91"/>
<polygon fill="#63b8ff" stroke="#63b8ff" points="278.01,-66.29 288.6,-66.42 280.4,-59.71 278.01,-66.29"/>
</g>
<!-- Node6 -->
<g id="node6" class="node">
<title>Node6</title>
<g id="a_node6"><a xlink:href="structquala_1_1BroydenStorage.html#a9cf7dcccbc3bc69a10833450ee79c623" target="_top" xlink:title="Get the number of previous vectors s and s̃ stored in the buffer.">
<polygon fill="white" stroke="#666666" points="380,-30 252,-30 252,0 380,0 380,-30"/>
<text text-anchor="start" x="260" y="-18" font-family="Helvetica,sans-Serif" font-size="10.00">quala::BroydenStorage</text>
<text text-anchor="middle" x="316" y="-7" font-family="Helvetica,sans-Serif" font-size="10.00">::history</text>
</a>
</g>
</g>
<!-- Node5&#45;&gt;Node6 -->
<g id="edge5" class="edge">
<title>Node5&#45;&gt;Node6</title>
<path fill="none" stroke="#63b8ff" d="M210.03,-15C220.41,-15 231.23,-15 241.83,-15"/>
<polygon fill="#63b8ff" stroke="#63b8ff" points="241.89,-18.5 251.89,-15 241.89,-11.5 241.89,-18.5"/>
</g>
</g>
</svg>
