<?xml version="1.0" encoding="UTF-8" standalone="no"?>
<!DOCTYPE svg PUBLIC "-//W3C//DTD SVG 1.1//EN"
 "http://www.w3.org/Graphics/SVG/1.1/DTD/svg11.dtd">
<!-- Generated by graphviz version 2.43.0 (0)
 -->
<!-- Title: update_sy Pages: 1 -->
<svg width="310pt" height="46pt"
 viewBox="0.00 0.00 310.00 46.00" xmlns="http://www.w3.org/2000/svg" xmlns:xlink="http://www.w3.org/1999/xlink">
<g id="graph0" class="graph" transform="scale(1 1) rotate(0) translate(4 42)">
<title>update_sy</title>
<!-- Node1 -->
<g id="node1" class="node">
<title>Node1</title>
<g id="a_node1"><a xlink:title="Update the inverse Hessian approximation using the new vectors sₖ = xₖ₊₁ &#45; xₖ and yₖ = pₖ₊₁ &#45; pₖ.">
<polygon fill="#999999" stroke="#666666" points="302,-38 235,-38 235,-19 302,-19 302,-38"/>
<text text-anchor="middle" x="268.5" y="-26" font-family="Helvetica,sans-Serif" font-size="10.00">update_sy</text>
</a>
</g>
</g>
<!-- Node2 -->
<g id="node2" class="node">
<title>Node2</title>
<g id="a_node2"><a xlink:href="quala_8py_8cpp.html#a12fb4e87da488d1fc7c6fa3e6a3adb90" target="_top" xlink:title=" ">
<polygon fill="white" stroke="#666666" points="113,-38 0,-38 0,-19 113,-19 113,-38"/>
<text text-anchor="middle" x="56.5" y="-26" font-family="Helvetica,sans-Serif" font-size="10.00">PYBIND11_MODULE</text>
</a>
</g>
</g>
<!-- Node1&#45;&gt;Node2 -->
<g id="edge1" class="edge">
<title>Node1&#45;&gt;Node2</title>
<path fill="none" stroke="#63b8ff" d="M224.29,-28.5C192.19,-28.5 148.14,-28.5 113.36,-28.5"/>
<polygon fill="#63b8ff" stroke="#63b8ff" points="224.69,-32 234.69,-28.5 224.69,-25 224.69,-32"/>
</g>
<!-- Node3 -->
<g id="node3" class="node">
<title>Node3</title>
<g id="a_node3"><a xlink:href="classquala_1_1LBFGS.html#ae34a8e5e432c990eb8af2f95bcbc04bd" target="_top" xlink:title="Update the inverse Hessian approximation using the new vectors xₖ₊₁ and pₖ₊₁.">
<polygon fill="white" stroke="#666666" points="199,-19 149,-19 149,0 199,0 199,-19"/>
<text text-anchor="middle" x="174" y="-7" font-family="Helvetica,sans-Serif" font-size="10.00">update</text>
</a>
</g>
</g>
<!-- Node1&#45;&gt;Node3 -->
<g id="edge2" class="edge">
<title>Node1&#45;&gt;Node3</title>
<path fill="none" stroke="#63b8ff" d="M225.03,-19.78C216.16,-17.95 207.1,-16.09 199.18,-14.47"/>
<polygon fill="#63b8ff" stroke="#63b8ff" points="224.39,-23.22 234.89,-21.8 225.8,-16.36 224.39,-23.22"/>
</g>
<!-- Node3&#45;&gt;Node2 -->
<g id="edge3" class="edge">
<title>Node3&#45;&gt;Node2</title>
<path fill="none" stroke="#63b8ff" d="M138.68,-15.15C130.61,-16.47 121.82,-17.92 113.08,-19.36"/>
<polygon fill="#63b8ff" stroke="#63b8ff" points="139.49,-18.56 148.79,-13.48 138.35,-11.65 139.49,-18.56"/>
</g>
</g>
</svg>
