<?xml version="1.0" encoding="UTF-8" standalone="no"?>
<!DOCTYPE svg PUBLIC "-//W3C//DTD SVG 1.1//EN"
 "http://www.w3.org/Graphics/SVG/1.1/DTD/svg11.dtd">
<!-- Generated by graphviz version 2.43.0 (0)
 -->
<!-- Title: quala Pages: 1 -->
<svg width="176pt" height="204pt"
 viewBox="0.00 0.00 176.00 204.00" xmlns="http://www.w3.org/2000/svg" xmlns:xlink="http://www.w3.org/1999/xlink">
<g id="graph0" class="graph" transform="scale(1 1) rotate(0) translate(4 200)">
<title>quala</title>
<g id="clust1" class="cluster">
<title>clusterdir_b0856f6b0d80ccb263b2f415c91f9e17</title>
<g id="a_clust1"><a xlink:href="dir_b0856f6b0d80ccb263b2f415c91f9e17.html" target="_top" xlink:title="include">
<polygon fill="#eef0f6" stroke="#7f7f7f" stroke-dasharray="5,2" points="8,-8 8,-188 160,-188 160,-8 8,-8"/>
<text text-anchor="middle" x="84" y="-176" font-family="Helvetica,sans-Serif" font-size="10.00">include</text>
</a>
</g>
</g>
<g id="clust2" class="cluster">
<title>clusterdir_2448859584f6f86a66eb22b27517f4e7</title>
<g id="a_clust2"><a xlink:href="dir_2448859584f6f86a66eb22b27517f4e7.html" target="_top">
<polygon fill="#eef0f6" stroke="#404040" stroke-width="2" points="16,-16 16,-161 152,-161 152,-16 16,-16"/>
</a>
</g>
</g>
<!-- dir_2448859584f6f86a66eb22b27517f4e7 -->
<g id="node1" class="node">
<title>dir_2448859584f6f86a66eb22b27517f4e7</title>
<text text-anchor="middle" x="102" y="-141" font-family="Helvetica,sans-Serif" font-size="10.00">quala</text>
</g>
<!-- dir_d1540675e56c2900ea555f43e355c202 -->
<g id="node2" class="node">
<title>dir_d1540675e56c2900ea555f43e355c202</title>
<g id="a_node2"><a xlink:href="dir_d1540675e56c2900ea555f43e355c202.html" target="_top" xlink:title="decl">
<polygon fill="#a7b5d1" stroke="#404040" points="61.5,-98 24.5,-98 24.5,-79 61.5,-79 61.5,-98"/>
<text text-anchor="middle" x="43" y="-86" font-family="Helvetica,sans-Serif" font-size="10.00">decl</text>
</a>
</g>
</g>
<!-- dir_2448859584f6f86a66eb22b27517f4e7&#45;&gt;dir_d1540675e56c2900ea555f43e355c202 -->
<g id="edge3" class="edge">
<title>dir_2448859584f6f86a66eb22b27517f4e7&#45;&gt;dir_d1540675e56c2900ea555f43e355c202</title>
<path fill="none" stroke="#63b8ff" d="M92.52,-133.98C83.8,-126.15 70.66,-114.34 60.1,-104.86"/>
<polygon fill="#63b8ff" stroke="#63b8ff" points="62.43,-102.25 52.65,-98.17 57.75,-107.46 62.43,-102.25"/>
<g id="a_edge3&#45;headlabel"><a xlink:href="dir_000005_000000.html" target="_top" xlink:title="1">
<text text-anchor="middle" x="67" y="-100.04" font-family="Helvetica,sans-Serif" font-size="10.00" fill="#63b8ff">1</text>
</a>
</g>
</g>
<!-- dir_4f0fc3cc9aba45c1dd27eb0e6749a5c4 -->
<g id="node3" class="node">
<title>dir_4f0fc3cc9aba45c1dd27eb0e6749a5c4</title>
<g id="a_node3"><a xlink:href="dir_4f0fc3cc9aba45c1dd27eb0e6749a5c4.html" target="_top" xlink:title="detail">
<polygon fill="#a7b5d1" stroke="#404040" points="124,-98 80,-98 80,-79 124,-79 124,-98"/>
<text text-anchor="middle" x="102" y="-86" font-family="Helvetica,sans-Serif" font-size="10.00">detail</text>
</a>
</g>
</g>
<!-- dir_2448859584f6f86a66eb22b27517f4e7&#45;&gt;dir_4f0fc3cc9aba45c1dd27eb0e6749a5c4 -->
<g id="edge2" class="edge">
<title>dir_2448859584f6f86a66eb22b27517f4e7&#45;&gt;dir_4f0fc3cc9aba45c1dd27eb0e6749a5c4</title>
<path fill="none" stroke="#63b8ff" d="M102,-133.75C102,-126.8 102,-116.85 102,-108.13"/>
<polygon fill="#63b8ff" stroke="#63b8ff" points="105.5,-108.09 102,-98.09 98.5,-108.09 105.5,-108.09"/>
<g id="a_edge2&#45;headlabel"><a xlink:href="dir_000005_000001.html" target="_top" xlink:title="1">
<text text-anchor="middle" x="108.34" y="-109.18" font-family="Helvetica,sans-Serif" font-size="10.00" fill="#63b8ff">1</text>
</a>
</g>
</g>
<!-- dir_4623760ceb707b4ca2d9dfb02e18b238 -->
<g id="node4" class="node">
<title>dir_4623760ceb707b4ca2d9dfb02e18b238</title>
<g id="a_node4"><a xlink:href="dir_4623760ceb707b4ca2d9dfb02e18b238.html" target="_top" xlink:title="util">
<polygon fill="#a7b5d1" stroke="#404040" points="118,-43 86,-43 86,-24 118,-24 118,-43"/>
<text text-anchor="middle" x="102" y="-31" font-family="Helvetica,sans-Serif" font-size="10.00">util</text>
</a>
</g>
</g>
<!-- dir_2448859584f6f86a66eb22b27517f4e7&#45;&gt;dir_4623760ceb707b4ca2d9dfb02e18b238 -->
<g id="edge1" class="edge">
<title>dir_2448859584f6f86a66eb22b27517f4e7&#45;&gt;dir_4623760ceb707b4ca2d9dfb02e18b238</title>
<path fill="none" stroke="#63b8ff" d="M110.48,-133.85C118.05,-125.47 128.6,-112.01 133,-98 138.26,-81.26 127.97,-63.41 117.86,-50.91"/>
<polygon fill="#63b8ff" stroke="#63b8ff" points="120.31,-48.4 111.08,-43.19 115.05,-53.02 120.31,-48.4"/>
<g id="a_edge1&#45;headlabel"><a xlink:href="dir_000005_000009.html" target="_top" xlink:title="4">
<text text-anchor="middle" x="124.82" y="-46.73" font-family="Helvetica,sans-Serif" font-size="10.00" fill="#63b8ff">4</text>
</a>
</g>
</g>
<!-- dir_d1540675e56c2900ea555f43e355c202&#45;&gt;dir_4623760ceb707b4ca2d9dfb02e18b238 -->
<g id="edge4" class="edge">
<title>dir_d1540675e56c2900ea555f43e355c202&#45;&gt;dir_4623760ceb707b4ca2d9dfb02e18b238</title>
<path fill="none" stroke="#63b8ff" d="M52.48,-78.98C61.2,-71.15 74.34,-59.34 84.9,-49.86"/>
<polygon fill="#63b8ff" stroke="#63b8ff" points="87.25,-52.46 92.35,-43.17 82.57,-47.25 87.25,-52.46"/>
<g id="a_edge4&#45;headlabel"><a xlink:href="dir_000000_000009.html" target="_top" xlink:title="1">
<text text-anchor="middle" x="86.47" y="-54.47" font-family="Helvetica,sans-Serif" font-size="10.00" fill="#63b8ff">1</text>
</a>
</g>
</g>
<!-- dir_4f0fc3cc9aba45c1dd27eb0e6749a5c4&#45;&gt;dir_4623760ceb707b4ca2d9dfb02e18b238 -->
<g id="edge5" class="edge">
<title>dir_4f0fc3cc9aba45c1dd27eb0e6749a5c4&#45;&gt;dir_4623760ceb707b4ca2d9dfb02e18b238</title>
<path fill="none" stroke="#63b8ff" d="M102,-78.75C102,-71.8 102,-61.85 102,-53.13"/>
<polygon fill="#63b8ff" stroke="#63b8ff" points="105.5,-53.09 102,-43.09 98.5,-53.09 105.5,-53.09"/>
<g id="a_edge5&#45;headlabel"><a xlink:href="dir_000001_000009.html" target="_top" xlink:title="2">
<text text-anchor="middle" x="108.34" y="-54.18" font-family="Helvetica,sans-Serif" font-size="10.00" fill="#63b8ff">2</text>
</a>
</g>
</g>
</g>
</svg>
