<?xml version="1.0" encoding="UTF-8" standalone="no"?>
<!DOCTYPE svg PUBLIC "-//W3C//DTD SVG 1.1//EN"
 "http://www.w3.org/Graphics/SVG/1.1/DTD/svg11.dtd">
<!-- Generated by graphviz version 2.43.0 (0)
 -->
<!-- Title: kwargs&#45;to&#45;struct.hpp Pages: 1 -->
<svg width="1097pt" height="324pt"
 viewBox="0.00 0.00 1097.00 324.00" xmlns="http://www.w3.org/2000/svg" xmlns:xlink="http://www.w3.org/1999/xlink">
<g id="graph0" class="graph" transform="scale(1 1) rotate(0) translate(4 320)">
<title>kwargs&#45;to&#45;struct.hpp</title>
<!-- Node1 -->
<g id="node1" class="node">
<title>Node1</title>
<g id="a_node1"><a xlink:title="This file defines mappings from Python dicts (kwargs) to simple parameter structs.">
<polygon fill="#999999" stroke="#666666" points="407.5,-316 289.5,-316 289.5,-297 407.5,-297 407.5,-316"/>
<text text-anchor="middle" x="348.5" y="-304" font-family="Helvetica,sans-Serif" font-size="10.00">kwargs&#45;to&#45;struct.hpp</text>
</a>
</g>
</g>
<!-- Node2 -->
<g id="node2" class="node">
<title>Node2</title>
<g id="a_node2"><a xlink:title=" ">
<polygon fill="#e0e0e0" stroke="#999999" points="65,-261 0,-261 0,-242 65,-242 65,-261"/>
<text text-anchor="middle" x="32.5" y="-249" font-family="Helvetica,sans-Serif" font-size="10.00">functional</text>
</a>
</g>
</g>
<!-- Node1&#45;&gt;Node2 -->
<g id="edge1" class="edge">
<title>Node1&#45;&gt;Node2</title>
<path fill="none" stroke="#63b8ff" d="M291.98,-296.97C238.67,-288.78 156.27,-275.75 74.95,-261.02"/>
<polygon fill="#63b8ff" stroke="#63b8ff" points="75.5,-257.56 65.04,-259.21 74.25,-264.45 75.5,-257.56"/>
</g>
<!-- Node3 -->
<g id="node3" class="node">
<title>Node3</title>
<g id="a_node3"><a xlink:title=" ">
<polygon fill="#e0e0e0" stroke="#999999" points="121.5,-261 83.5,-261 83.5,-242 121.5,-242 121.5,-261"/>
<text text-anchor="middle" x="102.5" y="-249" font-family="Helvetica,sans-Serif" font-size="10.00">map</text>
</a>
</g>
</g>
<!-- Node1&#45;&gt;Node3 -->
<g id="edge2" class="edge">
<title>Node1&#45;&gt;Node3</title>
<path fill="none" stroke="#63b8ff" d="M300.15,-296.97C257.94,-289.22 194.88,-276.93 131.48,-261.06"/>
<polygon fill="#63b8ff" stroke="#63b8ff" points="132.27,-257.65 121.71,-258.59 130.55,-264.44 132.27,-257.65"/>
</g>
<!-- Node4 -->
<g id="node4" class="node">
<title>Node4</title>
<g id="a_node4"><a xlink:title=" ">
<polygon fill="#e0e0e0" stroke="#999999" points="191,-261 140,-261 140,-242 191,-242 191,-261"/>
<text text-anchor="middle" x="165.5" y="-249" font-family="Helvetica,sans-Serif" font-size="10.00">variant</text>
</a>
</g>
</g>
<!-- Node1&#45;&gt;Node4 -->
<g id="edge3" class="edge">
<title>Node1&#45;&gt;Node4</title>
<path fill="none" stroke="#63b8ff" d="M319.1,-296.98C286.91,-287.66 235.32,-272.72 200.93,-262.76"/>
<polygon fill="#63b8ff" stroke="#63b8ff" points="201.86,-259.39 191.28,-259.97 199.91,-266.11 201.86,-259.39"/>
</g>
<!-- Node5 -->
<g id="node5" class="node">
<title>Node5</title>
<g id="a_node5"><a xlink:title=" ">
<polygon fill="#e0e0e0" stroke="#999999" points="344,-261 209,-261 209,-242 344,-242 344,-261"/>
<text text-anchor="middle" x="276.5" y="-249" font-family="Helvetica,sans-Serif" font-size="10.00">pybind11/detail/typeid.h</text>
</a>
</g>
</g>
<!-- Node1&#45;&gt;Node5 -->
<g id="edge4" class="edge">
<title>Node1&#45;&gt;Node5</title>
<path fill="none" stroke="#63b8ff" d="M336.93,-296.98C326.08,-289 309.62,-276.88 296.62,-267.31"/>
<polygon fill="#63b8ff" stroke="#63b8ff" points="298.41,-264.28 288.28,-261.17 294.26,-269.92 298.41,-264.28"/>
</g>
<!-- Node6 -->
<g id="node6" class="node">
<title>Node6</title>
<g id="a_node6"><a xlink:title=" ">
<polygon fill="#e0e0e0" stroke="#999999" points="481,-261 362,-261 362,-242 481,-242 481,-261"/>
<text text-anchor="middle" x="421.5" y="-249" font-family="Helvetica,sans-Serif" font-size="10.00">pybind11/pybind11.h</text>
</a>
</g>
</g>
<!-- Node1&#45;&gt;Node6 -->
<g id="edge5" class="edge">
<title>Node1&#45;&gt;Node6</title>
<path fill="none" stroke="#63b8ff" d="M360.23,-296.98C371.23,-289 387.92,-276.88 401.1,-267.31"/>
<polygon fill="#63b8ff" stroke="#63b8ff" points="403.52,-269.88 409.56,-261.17 399.41,-264.21 403.52,-269.88"/>
</g>
<!-- Node7 -->
<g id="node7" class="node">
<title>Node7</title>
<g id="a_node7"><a xlink:href="lbfgs_8hpp.html" target="_top" xlink:title=" ">
<polygon fill="white" stroke="#666666" points="668.5,-261 576.5,-261 576.5,-242 668.5,-242 668.5,-261"/>
<text text-anchor="middle" x="622.5" y="-249" font-family="Helvetica,sans-Serif" font-size="10.00">quala/lbfgs.hpp</text>
</a>
</g>
</g>
<!-- Node1&#45;&gt;Node7 -->
<g id="edge6" class="edge">
<title>Node1&#45;&gt;Node7</title>
<path fill="none" stroke="#63b8ff" d="M392.52,-296.98C440.32,-287.74 516.7,-272.97 568.18,-263.01"/>
<polygon fill="#63b8ff" stroke="#63b8ff" points="568.98,-266.42 578.13,-261.08 567.65,-259.54 568.98,-266.42"/>
</g>
<!-- Node14 -->
<g id="node14" class="node">
<title>Node14</title>
<g id="a_node14"><a xlink:href="anderson-acceleration_8hpp.html" target="_top" xlink:title=" ">
<polygon fill="white" stroke="#666666" points="915.5,-261 739.5,-261 739.5,-242 915.5,-242 915.5,-261"/>
<text text-anchor="middle" x="827.5" y="-249" font-family="Helvetica,sans-Serif" font-size="10.00">quala/anderson&#45;acceleration.hpp</text>
</a>
</g>
</g>
<!-- Node1&#45;&gt;Node14 -->
<g id="edge13" class="edge">
<title>Node1&#45;&gt;Node14</title>
<path fill="none" stroke="#63b8ff" d="M407.72,-298.95C491.24,-289.71 644.2,-272.78 740.61,-262.11"/>
<polygon fill="#63b8ff" stroke="#63b8ff" points="741.08,-265.58 750.63,-261.01 740.31,-258.63 741.08,-265.58"/>
</g>
<!-- Node24 -->
<g id="node24" class="node">
<title>Node24</title>
<g id="a_node24"><a xlink:href="broyden-good_8hpp.html" target="_top" xlink:title=" ">
<polygon fill="white" stroke="#666666" points="466,-134.5 331,-134.5 331,-115.5 466,-115.5 466,-134.5"/>
<text text-anchor="middle" x="398.5" y="-122.5" font-family="Helvetica,sans-Serif" font-size="10.00">quala/broyden&#45;good.hpp</text>
</a>
</g>
</g>
<!-- Node1&#45;&gt;Node24 -->
<g id="edge27" class="edge">
<title>Node1&#45;&gt;Node24</title>
<path fill="none" stroke="#63b8ff" d="M407.65,-302.63C437.28,-297.82 470.76,-286.57 489.5,-261 520.93,-218.13 457.07,-165.39 420.96,-140.42"/>
<polygon fill="#63b8ff" stroke="#63b8ff" points="422.71,-137.37 412.46,-134.69 418.8,-143.18 422.71,-137.37"/>
</g>
<!-- Node8 -->
<g id="node8" class="node">
<title>Node8</title>
<g id="a_node8"><a xlink:href="decl_2lbfgs_8hpp.html" target="_top" xlink:title=" ">
<polygon fill="white" stroke="#666666" points="653,-200.5 538,-200.5 538,-181.5 653,-181.5 653,-200.5"/>
<text text-anchor="middle" x="595.5" y="-188.5" font-family="Helvetica,sans-Serif" font-size="10.00">quala/decl/lbfgs.hpp</text>
</a>
</g>
</g>
<!-- Node7&#45;&gt;Node8 -->
<g id="edge7" class="edge">
<title>Node7&#45;&gt;Node8</title>
<path fill="none" stroke="#63b8ff" d="M618.52,-241.87C614.65,-233.49 608.66,-220.51 603.76,-209.89"/>
<polygon fill="#63b8ff" stroke="#63b8ff" points="606.87,-208.28 599.5,-200.67 600.51,-211.21 606.87,-208.28"/>
</g>
<!-- Node12 -->
<g id="node12" class="node">
<title>Node12</title>
<g id="a_node12"><a xlink:title=" ">
<polygon fill="#e0e0e0" stroke="#999999" points="777,-200.5 712,-200.5 712,-181.5 777,-181.5 777,-200.5"/>
<text text-anchor="middle" x="744.5" y="-188.5" font-family="Helvetica,sans-Serif" font-size="10.00">stdexcept</text>
</a>
</g>
</g>
<!-- Node7&#45;&gt;Node12 -->
<g id="edge11" class="edge">
<title>Node7&#45;&gt;Node12</title>
<path fill="none" stroke="#63b8ff" d="M640.24,-241.99C660.57,-232.25 694.11,-216.16 717.64,-204.88"/>
<polygon fill="#63b8ff" stroke="#63b8ff" points="719.24,-208 726.74,-200.52 716.21,-201.68 719.24,-208"/>
</g>
<!-- Node13 -->
<g id="node13" class="node">
<title>Node13</title>
<g id="a_node13"><a xlink:title=" ">
<polygon fill="#e0e0e0" stroke="#999999" points="721,-74 652,-74 652,-55 721,-55 721,-74"/>
<text text-anchor="middle" x="686.5" y="-62" font-family="Helvetica,sans-Serif" font-size="10.00">type_traits</text>
</a>
</g>
</g>
<!-- Node7&#45;&gt;Node13 -->
<g id="edge12" class="edge">
<title>Node7&#45;&gt;Node13</title>
<path fill="none" stroke="#63b8ff" d="M632.88,-241.73C641.93,-233.47 654.65,-220.26 661.5,-206 680.84,-165.75 685.34,-112.52 686.31,-84.55"/>
<polygon fill="#63b8ff" stroke="#63b8ff" points="689.81,-84.3 686.54,-74.22 682.82,-84.14 689.81,-84.3"/>
</g>
<!-- Node9 -->
<g id="node9" class="node">
<title>Node9</title>
<g id="a_node9"><a xlink:href="lbfgs-fwd_8hpp.html" target="_top" xlink:title=" ">
<polygon fill="white" stroke="#666666" points="658.5,-134.5 522.5,-134.5 522.5,-115.5 658.5,-115.5 658.5,-134.5"/>
<text text-anchor="middle" x="590.5" y="-122.5" font-family="Helvetica,sans-Serif" font-size="10.00">quala/decl/lbfgs&#45;fwd.hpp</text>
</a>
</g>
</g>
<!-- Node8&#45;&gt;Node9 -->
<g id="edge8" class="edge">
<title>Node8&#45;&gt;Node9</title>
<path fill="none" stroke="#63b8ff" d="M594.83,-181.37C594.1,-172.07 592.92,-156.98 591.98,-144.9"/>
<polygon fill="#63b8ff" stroke="#63b8ff" points="595.46,-144.6 591.2,-134.91 588.49,-145.15 595.46,-144.6"/>
</g>
<!-- Node10 -->
<g id="node10" class="node">
<title>Node10</title>
<g id="a_node10"><a xlink:href="vec_8hpp.html" target="_top" xlink:title=" ">
<polygon fill="white" stroke="#666666" points="546.5,-74 442.5,-74 442.5,-55 546.5,-55 546.5,-74"/>
<text text-anchor="middle" x="494.5" y="-62" font-family="Helvetica,sans-Serif" font-size="10.00">quala/util/vec.hpp</text>
</a>
</g>
</g>
<!-- Node8&#45;&gt;Node10 -->
<g id="edge9" class="edge">
<title>Node8&#45;&gt;Node10</title>
<path fill="none" stroke="#63b8ff" d="M571.86,-181.41C553.28,-173.46 528.17,-159.85 513.5,-140 501.5,-123.76 497.05,-100.7 495.41,-84.55"/>
<polygon fill="#63b8ff" stroke="#63b8ff" points="498.88,-83.92 494.65,-74.21 491.89,-84.43 498.88,-83.92"/>
</g>
<!-- Node11 -->
<g id="node11" class="node">
<title>Node11</title>
<g id="a_node11"><a xlink:title=" ">
<polygon fill="#e0e0e0" stroke="#999999" points="529,-19 460,-19 460,0 529,0 529,-19"/>
<text text-anchor="middle" x="494.5" y="-7" font-family="Helvetica,sans-Serif" font-size="10.00">Eigen/Core</text>
</a>
</g>
</g>
<!-- Node10&#45;&gt;Node11 -->
<g id="edge10" class="edge">
<title>Node10&#45;&gt;Node11</title>
<path fill="none" stroke="#63b8ff" d="M494.5,-54.75C494.5,-47.8 494.5,-37.85 494.5,-29.13"/>
<polygon fill="#63b8ff" stroke="#63b8ff" points="498,-29.09 494.5,-19.09 491,-29.09 498,-29.09"/>
</g>
<!-- Node14&#45;&gt;Node12 -->
<g id="edge26" class="edge">
<title>Node14&#45;&gt;Node12</title>
<path fill="none" stroke="#63b8ff" d="M815.25,-241.87C802.14,-232.62 781.08,-217.78 765.35,-206.69"/>
<polygon fill="#63b8ff" stroke="#63b8ff" points="766.99,-203.57 756.8,-200.67 762.95,-209.29 766.99,-203.57"/>
</g>
<!-- Node15 -->
<g id="node15" class="node">
<title>Node15</title>
<g id="a_node15"><a xlink:href="anderson-helpers_8hpp.html" target="_top" xlink:title=" ">
<polygon fill="white" stroke="#666666" points="917.5,-206 795.5,-206 795.5,-176 917.5,-176 917.5,-206"/>
<text text-anchor="start" x="803.5" y="-194" font-family="Helvetica,sans-Serif" font-size="10.00">quala/detail/anderson</text>
<text text-anchor="middle" x="856.5" y="-183" font-family="Helvetica,sans-Serif" font-size="10.00">&#45;helpers.hpp</text>
</a>
</g>
</g>
<!-- Node14&#45;&gt;Node15 -->
<g id="edge14" class="edge">
<title>Node14&#45;&gt;Node15</title>
<path fill="none" stroke="#63b8ff" d="M831.78,-241.87C835.28,-234.81 840.39,-224.5 845.06,-215.08"/>
<polygon fill="#63b8ff" stroke="#63b8ff" points="848.2,-216.63 849.5,-206.11 841.93,-213.52 848.2,-216.63"/>
</g>
<!-- Node23 -->
<g id="node23" class="node">
<title>Node23</title>
<g id="a_node23"><a xlink:title=" ">
<polygon fill="#e0e0e0" stroke="#999999" points="979.5,-200.5 935.5,-200.5 935.5,-181.5 979.5,-181.5 979.5,-200.5"/>
<text text-anchor="middle" x="957.5" y="-188.5" font-family="Helvetica,sans-Serif" font-size="10.00">limits</text>
</a>
</g>
</g>
<!-- Node14&#45;&gt;Node23 -->
<g id="edge25" class="edge">
<title>Node14&#45;&gt;Node23</title>
<path fill="none" stroke="#63b8ff" d="M846.48,-241.98C866.42,-233.03 898.67,-218.54 926.5,-206 927.35,-205.62 928.21,-205.23 929.08,-204.84"/>
<polygon fill="#63b8ff" stroke="#63b8ff" points="930.81,-207.9 938.48,-200.59 927.93,-201.52 930.81,-207.9"/>
</g>
<!-- Node16 -->
<g id="node16" class="node">
<title>Node16</title>
<g id="a_node16"><a xlink:href="limited-memory-qr_8hpp.html" target="_top" xlink:title=" ">
<polygon fill="white" stroke="#666666" points="866.5,-140 754.5,-140 754.5,-110 866.5,-110 866.5,-140"/>
<text text-anchor="start" x="762.5" y="-128" font-family="Helvetica,sans-Serif" font-size="10.00">quala/detail/limited</text>
<text text-anchor="middle" x="810.5" y="-117" font-family="Helvetica,sans-Serif" font-size="10.00">&#45;memory&#45;qr.hpp</text>
</a>
</g>
</g>
<!-- Node15&#45;&gt;Node16 -->
<g id="edge15" class="edge">
<title>Node15&#45;&gt;Node16</title>
<path fill="none" stroke="#63b8ff" d="M846.29,-175.8C840.51,-167.76 833.16,-157.53 826.62,-148.43"/>
<polygon fill="#63b8ff" stroke="#63b8ff" points="829.36,-146.24 820.68,-140.16 823.67,-150.33 829.36,-146.24"/>
</g>
<!-- Node16&#45;&gt;Node10 -->
<g id="edge23" class="edge">
<title>Node16&#45;&gt;Node10</title>
<path fill="none" stroke="#63b8ff" d="M754.37,-113.61C696.98,-102.98 608.34,-86.57 550.87,-75.93"/>
<polygon fill="#63b8ff" stroke="#63b8ff" points="551.34,-72.46 540.86,-74.08 550.06,-79.35 551.34,-72.46"/>
</g>
<!-- Node16&#45;&gt;Node13 -->
<g id="edge24" class="edge">
<title>Node16&#45;&gt;Node13</title>
<path fill="none" stroke="#63b8ff" d="M780.8,-109.99C760.48,-100.4 733.74,-87.79 713.92,-78.44"/>
<polygon fill="#63b8ff" stroke="#63b8ff" points="715.35,-75.24 704.81,-74.14 712.36,-81.57 715.35,-75.24"/>
</g>
<!-- Node17 -->
<g id="node17" class="node">
<title>Node17</title>
<g id="a_node17"><a xlink:title=" ">
<polygon fill="#e0e0e0" stroke="#999999" points="815.5,-74 739.5,-74 739.5,-55 815.5,-55 815.5,-74"/>
<text text-anchor="middle" x="777.5" y="-62" font-family="Helvetica,sans-Serif" font-size="10.00">Eigen/Jacobi</text>
</a>
</g>
</g>
<!-- Node16&#45;&gt;Node17 -->
<g id="edge16" class="edge">
<title>Node16&#45;&gt;Node17</title>
<path fill="none" stroke="#63b8ff" d="M802.51,-109.84C797.97,-101.78 792.23,-91.62 787.4,-83.06"/>
<polygon fill="#63b8ff" stroke="#63b8ff" points="790.41,-81.26 782.44,-74.27 784.31,-84.7 790.41,-81.26"/>
</g>
<!-- Node18 -->
<g id="node18" class="node">
<title>Node18</title>
<g id="a_node18"><a xlink:title=" ">
<polygon fill="#e0e0e0" stroke="#999999" points="870,-19 817,-19 817,0 870,0 870,-19"/>
<text text-anchor="middle" x="843.5" y="-7" font-family="Helvetica,sans-Serif" font-size="10.00">cstddef</text>
</a>
</g>
</g>
<!-- Node16&#45;&gt;Node18 -->
<g id="edge17" class="edge">
<title>Node16&#45;&gt;Node18</title>
<path fill="none" stroke="#63b8ff" d="M814.68,-109.63C820.64,-89.12 831.59,-51.47 838.14,-28.93"/>
<polygon fill="#63b8ff" stroke="#63b8ff" points="841.53,-29.81 840.96,-19.23 834.81,-27.85 841.53,-29.81"/>
</g>
<!-- Node19 -->
<g id="node19" class="node">
<title>Node19</title>
<g id="a_node19"><a xlink:href="ringbuffer_8hpp.html" target="_top" xlink:title=" ">
<polygon fill="white" stroke="#666666" points="1005,-74 872,-74 872,-55 1005,-55 1005,-74"/>
<text text-anchor="middle" x="938.5" y="-62" font-family="Helvetica,sans-Serif" font-size="10.00">quala/util/ringbuffer.hpp</text>
</a>
</g>
</g>
<!-- Node16&#45;&gt;Node19 -->
<g id="edge18" class="edge">
<title>Node16&#45;&gt;Node19</title>
<path fill="none" stroke="#63b8ff" d="M841.16,-109.99C862.23,-100.36 889.99,-87.67 910.47,-78.31"/>
<polygon fill="#63b8ff" stroke="#63b8ff" points="911.96,-81.48 919.6,-74.14 909.05,-75.11 911.96,-81.48"/>
</g>
<!-- Node19&#45;&gt;Node18 -->
<g id="edge20" class="edge">
<title>Node19&#45;&gt;Node18</title>
<path fill="none" stroke="#63b8ff" d="M923.24,-54.98C908.37,-46.69 885.52,-33.94 868.08,-24.22"/>
<polygon fill="#63b8ff" stroke="#63b8ff" points="869.48,-20.99 859.04,-19.17 866.07,-27.1 869.48,-20.99"/>
</g>
<!-- Node20 -->
<g id="node20" class="node">
<title>Node20</title>
<g id="a_node20"><a xlink:title=" ">
<polygon fill="#e0e0e0" stroke="#999999" points="1017.5,-19 953.5,-19 953.5,0 1017.5,0 1017.5,-19"/>
<text text-anchor="middle" x="985.5" y="-7" font-family="Helvetica,sans-Serif" font-size="10.00">algorithm</text>
</a>
</g>
</g>
<!-- Node19&#45;&gt;Node20 -->
<g id="edge19" class="edge">
<title>Node19&#45;&gt;Node20</title>
<path fill="none" stroke="#63b8ff" d="M946.26,-54.75C952.97,-47.18 962.84,-36.05 971.01,-26.84"/>
<polygon fill="#63b8ff" stroke="#63b8ff" points="973.87,-28.89 977.88,-19.09 968.63,-24.25 973.87,-28.89"/>
</g>
<!-- Node21 -->
<g id="node21" class="node">
<title>Node21</title>
<g id="a_node21"><a xlink:title=" ">
<polygon fill="#e0e0e0" stroke="#999999" points="1089,-19 1036,-19 1036,0 1089,0 1089,-19"/>
<text text-anchor="middle" x="1062.5" y="-7" font-family="Helvetica,sans-Serif" font-size="10.00">iterator</text>
</a>
</g>
</g>
<!-- Node19&#45;&gt;Node21 -->
<g id="edge21" class="edge">
<title>Node19&#45;&gt;Node21</title>
<path fill="none" stroke="#63b8ff" d="M958.42,-54.98C978.55,-46.38 1009.88,-32.99 1032.91,-23.15"/>
<polygon fill="#63b8ff" stroke="#63b8ff" points="1034.4,-26.32 1042.21,-19.17 1031.64,-19.88 1034.4,-26.32"/>
</g>
<!-- Node22 -->
<g id="node22" class="node">
<title>Node22</title>
<g id="a_node22"><a xlink:title=" ">
<polygon fill="#e0e0e0" stroke="#999999" points="935,-19 888,-19 888,0 935,0 935,-19"/>
<text text-anchor="middle" x="911.5" y="-7" font-family="Helvetica,sans-Serif" font-size="10.00">vector</text>
</a>
</g>
</g>
<!-- Node19&#45;&gt;Node22 -->
<g id="edge22" class="edge">
<title>Node19&#45;&gt;Node22</title>
<path fill="none" stroke="#63b8ff" d="M934.04,-54.75C930.38,-47.57 925.09,-37.18 920.55,-28.27"/>
<polygon fill="#63b8ff" stroke="#63b8ff" points="923.53,-26.41 915.88,-19.09 917.3,-29.59 923.53,-26.41"/>
</g>
<!-- Node24&#45;&gt;Node10 -->
<g id="edge28" class="edge">
<title>Node24&#45;&gt;Node10</title>
<path fill="none" stroke="#63b8ff" d="M412.67,-115.37C428.19,-105.91 453.33,-90.59 471.65,-79.42"/>
<polygon fill="#63b8ff" stroke="#63b8ff" points="473.56,-82.36 480.28,-74.17 469.92,-76.38 473.56,-82.36"/>
</g>
</g>
</svg>
