<?xml version="1.0" encoding="UTF-8" standalone="no"?>
<!DOCTYPE svg PUBLIC "-//W3C//DTD SVG 1.1//EN"
 "http://www.w3.org/Graphics/SVG/1.1/DTD/svg11.dtd">
<!-- Generated by graphviz version 2.43.0 (0)
 -->
<!-- Title: limited&#45;memory&#45;qr.hpp Pages: 1 -->
<svg width="484pt" height="137pt"
 viewBox="0.00 0.00 483.50 137.00" xmlns="http://www.w3.org/2000/svg" xmlns:xlink="http://www.w3.org/1999/xlink">
<g id="graph0" class="graph" transform="scale(1 1) rotate(0) translate(4 133)">
<title>limited&#45;memory&#45;qr.hpp</title>
<!-- Node1 -->
<g id="node1" class="node">
<title>Node1</title>
<g id="a_node1"><a xlink:title=" ">
<polygon fill="#999999" stroke="#666666" points="264,-129 134,-129 134,-110 264,-110 264,-129"/>
<text text-anchor="middle" x="199" y="-117" font-family="Helvetica,sans-Serif" font-size="10.00">limited&#45;memory&#45;qr.hpp</text>
</a>
</g>
</g>
<!-- Node2 -->
<g id="node2" class="node">
<title>Node2</title>
<g id="a_node2"><a xlink:title=" ">
<polygon fill="#e0e0e0" stroke="#999999" points="76,-74 0,-74 0,-55 76,-55 76,-74"/>
<text text-anchor="middle" x="38" y="-62" font-family="Helvetica,sans-Serif" font-size="10.00">Eigen/Jacobi</text>
</a>
</g>
</g>
<!-- Node1&#45;&gt;Node2 -->
<g id="edge1" class="edge">
<title>Node1&#45;&gt;Node2</title>
<path fill="none" stroke="#63b8ff" d="M173.13,-109.98C146.22,-101.13 103.88,-87.19 73.77,-77.28"/>
<polygon fill="#63b8ff" stroke="#63b8ff" points="74.66,-73.88 64.07,-74.08 72.47,-80.53 74.66,-73.88"/>
</g>
<!-- Node3 -->
<g id="node3" class="node">
<title>Node3</title>
<g id="a_node3"><a xlink:title=" ">
<polygon fill="#e0e0e0" stroke="#999999" points="100.5,-19 47.5,-19 47.5,0 100.5,0 100.5,-19"/>
<text text-anchor="middle" x="74" y="-7" font-family="Helvetica,sans-Serif" font-size="10.00">cstddef</text>
</a>
</g>
</g>
<!-- Node1&#45;&gt;Node3 -->
<g id="edge2" class="edge">
<title>Node1&#45;&gt;Node3</title>
<path fill="none" stroke="#63b8ff" d="M179.88,-109.88C163.66,-101.99 140.33,-89.25 123,-74 107.54,-60.4 93.59,-41.32 84.57,-27.63"/>
<polygon fill="#63b8ff" stroke="#63b8ff" points="87.48,-25.69 79.15,-19.15 81.58,-29.46 87.48,-25.69"/>
</g>
<!-- Node4 -->
<g id="node4" class="node">
<title>Node4</title>
<g id="a_node4"><a xlink:href="ringbuffer_8hpp.html" target="_top" xlink:title=" ">
<polygon fill="white" stroke="#666666" points="265.5,-74 132.5,-74 132.5,-55 265.5,-55 265.5,-74"/>
<text text-anchor="middle" x="199" y="-62" font-family="Helvetica,sans-Serif" font-size="10.00">quala/util/ringbuffer.hpp</text>
</a>
</g>
</g>
<!-- Node1&#45;&gt;Node4 -->
<g id="edge3" class="edge">
<title>Node1&#45;&gt;Node4</title>
<path fill="none" stroke="#63b8ff" d="M199,-109.75C199,-102.8 199,-92.85 199,-84.13"/>
<polygon fill="#63b8ff" stroke="#63b8ff" points="202.5,-84.09 199,-74.09 195.5,-84.09 202.5,-84.09"/>
</g>
<!-- Node8 -->
<g id="node8" class="node">
<title>Node8</title>
<g id="a_node8"><a xlink:href="vec_8hpp.html" target="_top" xlink:title=" ">
<polygon fill="white" stroke="#666666" points="388,-74 284,-74 284,-55 388,-55 388,-74"/>
<text text-anchor="middle" x="336" y="-62" font-family="Helvetica,sans-Serif" font-size="10.00">quala/util/vec.hpp</text>
</a>
</g>
</g>
<!-- Node1&#45;&gt;Node8 -->
<g id="edge8" class="edge">
<title>Node1&#45;&gt;Node8</title>
<path fill="none" stroke="#63b8ff" d="M221.01,-109.98C243.45,-101.3 278.48,-87.75 303.99,-77.88"/>
<polygon fill="#63b8ff" stroke="#63b8ff" points="305.52,-81.04 313.59,-74.17 303,-74.51 305.52,-81.04"/>
</g>
<!-- Node10 -->
<g id="node10" class="node">
<title>Node10</title>
<g id="a_node10"><a xlink:title=" ">
<polygon fill="#e0e0e0" stroke="#999999" points="475.5,-74 406.5,-74 406.5,-55 475.5,-55 475.5,-74"/>
<text text-anchor="middle" x="441" y="-62" font-family="Helvetica,sans-Serif" font-size="10.00">type_traits</text>
</a>
</g>
</g>
<!-- Node1&#45;&gt;Node10 -->
<g id="edge10" class="edge">
<title>Node1&#45;&gt;Node10</title>
<path fill="none" stroke="#63b8ff" d="M237.88,-109.98C281.11,-100.52 350.81,-85.25 396.27,-75.3"/>
<polygon fill="#63b8ff" stroke="#63b8ff" points="397.12,-78.69 406.14,-73.13 395.62,-71.85 397.12,-78.69"/>
</g>
<!-- Node4&#45;&gt;Node3 -->
<g id="edge5" class="edge">
<title>Node4&#45;&gt;Node3</title>
<path fill="none" stroke="#63b8ff" d="M178.92,-54.98C158.63,-46.38 127.04,-32.99 103.83,-23.15"/>
<polygon fill="#63b8ff" stroke="#63b8ff" points="105.02,-19.85 94.45,-19.17 102.29,-26.3 105.02,-19.85"/>
</g>
<!-- Node5 -->
<g id="node5" class="node">
<title>Node5</title>
<g id="a_node5"><a xlink:title=" ">
<polygon fill="#e0e0e0" stroke="#999999" points="183,-19 119,-19 119,0 183,0 183,-19"/>
<text text-anchor="middle" x="151" y="-7" font-family="Helvetica,sans-Serif" font-size="10.00">algorithm</text>
</a>
</g>
</g>
<!-- Node4&#45;&gt;Node5 -->
<g id="edge4" class="edge">
<title>Node4&#45;&gt;Node5</title>
<path fill="none" stroke="#63b8ff" d="M191.07,-54.75C184.15,-47.11 173.93,-35.82 165.55,-26.56"/>
<polygon fill="#63b8ff" stroke="#63b8ff" points="168.09,-24.15 158.78,-19.09 162.9,-28.85 168.09,-24.15"/>
</g>
<!-- Node6 -->
<g id="node6" class="node">
<title>Node6</title>
<g id="a_node6"><a xlink:title=" ">
<polygon fill="#e0e0e0" stroke="#999999" points="254.5,-19 201.5,-19 201.5,0 254.5,0 254.5,-19"/>
<text text-anchor="middle" x="228" y="-7" font-family="Helvetica,sans-Serif" font-size="10.00">iterator</text>
</a>
</g>
</g>
<!-- Node4&#45;&gt;Node6 -->
<g id="edge6" class="edge">
<title>Node4&#45;&gt;Node6</title>
<path fill="none" stroke="#63b8ff" d="M203.79,-54.75C207.76,-47.49 213.53,-36.95 218.43,-27.98"/>
<polygon fill="#63b8ff" stroke="#63b8ff" points="221.57,-29.54 223.3,-19.09 215.43,-26.18 221.57,-29.54"/>
</g>
<!-- Node7 -->
<g id="node7" class="node">
<title>Node7</title>
<g id="a_node7"><a xlink:title=" ">
<polygon fill="#e0e0e0" stroke="#999999" points="319.5,-19 272.5,-19 272.5,0 319.5,0 319.5,-19"/>
<text text-anchor="middle" x="296" y="-7" font-family="Helvetica,sans-Serif" font-size="10.00">vector</text>
</a>
</g>
</g>
<!-- Node4&#45;&gt;Node7 -->
<g id="edge7" class="edge">
<title>Node4&#45;&gt;Node7</title>
<path fill="none" stroke="#63b8ff" d="M214.58,-54.98C229.77,-46.69 253.1,-33.94 270.9,-24.22"/>
<polygon fill="#63b8ff" stroke="#63b8ff" points="273.03,-27.04 280.13,-19.17 269.68,-20.89 273.03,-27.04"/>
</g>
<!-- Node9 -->
<g id="node9" class="node">
<title>Node9</title>
<g id="a_node9"><a xlink:title=" ">
<polygon fill="#e0e0e0" stroke="#999999" points="406.5,-19 337.5,-19 337.5,0 406.5,0 406.5,-19"/>
<text text-anchor="middle" x="372" y="-7" font-family="Helvetica,sans-Serif" font-size="10.00">Eigen/Core</text>
</a>
</g>
</g>
<!-- Node8&#45;&gt;Node9 -->
<g id="edge9" class="edge">
<title>Node8&#45;&gt;Node9</title>
<path fill="none" stroke="#63b8ff" d="M341.94,-54.75C346.98,-47.34 354.34,-36.5 360.51,-27.41"/>
<polygon fill="#63b8ff" stroke="#63b8ff" points="363.44,-29.33 366.17,-19.09 357.65,-25.39 363.44,-29.33"/>
</g>
</g>
</svg>
