<?xml version="1.0" encoding="UTF-8" standalone="no"?>
<!DOCTYPE svg PUBLIC "-//W3C//DTD SVG 1.1//EN"
 "http://www.w3.org/Graphics/SVG/1.1/DTD/svg11.dtd">
<!-- Generated by graphviz version 2.43.0 (0)
 -->
<!-- Title: minimize_update_anderson Pages: 1 -->
<svg width="884pt" height="358pt"
 viewBox="0.00 0.00 884.00 358.28" xmlns="http://www.w3.org/2000/svg" xmlns:xlink="http://www.w3.org/1999/xlink">
<g id="graph0" class="graph" transform="scale(1 1) rotate(0) translate(4 354.28)">
<title>minimize_update_anderson</title>
<!-- Node1 -->
<g id="node1" class="node">
<title>Node1</title>
<g id="a_node1"><a xlink:title="Solve one step of Anderson acceleration to find a fixed point of a function g(x):">
<polygon fill="#999999" stroke="#666666" points="152,-182.5 0,-182.5 0,-163.5 152,-163.5 152,-182.5"/>
<text text-anchor="middle" x="76" y="-170.5" font-family="Helvetica,sans-Serif" font-size="10.00">minimize_update_anderson</text>
</a>
</g>
</g>
<!-- Node2 -->
<g id="node2" class="node">
<title>Node2</title>
<g id="a_node2"><a xlink:href="classquala_1_1LimitedMemoryQR.html#a5e3077223e98c1e4e286e01503f220d5" target="_top" xlink:title="Add the given column to the right.">
<polygon fill="white" stroke="#666666" points="329,-298 188,-298 188,-268 329,-268 329,-298"/>
<text text-anchor="start" x="196" y="-286" font-family="Helvetica,sans-Serif" font-size="10.00">quala::LimitedMemoryQR</text>
<text text-anchor="middle" x="258.5" y="-275" font-family="Helvetica,sans-Serif" font-size="10.00">::add_column</text>
</a>
</g>
</g>
<!-- Node1&#45;&gt;Node2 -->
<g id="edge1" class="edge">
<title>Node1&#45;&gt;Node2</title>
<path fill="none" stroke="#63b8ff" d="M86.91,-182.53C105.41,-199.88 147.05,-236.85 188,-259 191.22,-260.74 194.59,-262.4 198.04,-263.96"/>
<polygon fill="#63b8ff" stroke="#63b8ff" points="196.72,-267.2 207.3,-267.88 199.45,-260.76 196.72,-267.2"/>
</g>
<!-- Node3 -->
<g id="node3" class="node">
<title>Node3</title>
<g id="a_node3"><a xlink:href="classquala_1_1LimitedMemoryQR.html#ac397ae83f5f4dd3d5cf9926f26acfb2d" target="_top" xlink:title=" ">
<polygon fill="white" stroke="#666666" points="876,-277.5 719,-277.5 719,-258.5 876,-258.5 876,-277.5"/>
<text text-anchor="middle" x="797.5" y="-265.5" font-family="Helvetica,sans-Serif" font-size="10.00">quala::LimitedMemoryQR::m</text>
</a>
</g>
</g>
<!-- Node1&#45;&gt;Node3 -->
<g id="edge7" class="edge">
<title>Node1&#45;&gt;Node3</title>
<path fill="none" stroke="#63b8ff" d="M81.25,-182.55C93.4,-208.51 131.14,-280.26 188,-307 388.08,-401.07 666.72,-315.69 762.55,-281.05"/>
<polygon fill="#63b8ff" stroke="#63b8ff" points="763.84,-284.3 772.03,-277.57 761.43,-277.73 763.84,-284.3"/>
</g>
<!-- Node4 -->
<g id="node4" class="node">
<title>Node4</title>
<g id="a_node4"><a xlink:href="classquala_1_1LimitedMemoryQR.html#a24829df3eaf3f15bd3c677781348b14d" target="_top" xlink:title="Get the number of columns that are currently stored.">
<polygon fill="white" stroke="#666666" points="506,-212 365,-212 365,-182 506,-182 506,-212"/>
<text text-anchor="start" x="373" y="-200" font-family="Helvetica,sans-Serif" font-size="10.00">quala::LimitedMemoryQR</text>
<text text-anchor="middle" x="435.5" y="-189" font-family="Helvetica,sans-Serif" font-size="10.00">::num_columns</text>
</a>
</g>
</g>
<!-- Node1&#45;&gt;Node4 -->
<g id="edge8" class="edge">
<title>Node1&#45;&gt;Node4</title>
<path fill="none" stroke="#63b8ff" d="M152.38,-178.06C211.73,-182.05 294.26,-187.59 354.72,-191.64"/>
<polygon fill="#63b8ff" stroke="#63b8ff" points="354.77,-195.16 364.98,-192.33 355.24,-188.17 354.77,-195.16"/>
</g>
<!-- Node6 -->
<g id="node6" class="node">
<title>Node6</title>
<g id="a_node6"><a xlink:href="classquala_1_1LimitedMemoryQR.html#a9def1a850eb12c2e0347b0680866eab1" target="_top" xlink:title="Get the maximum eigenvalue of R.">
<polygon fill="white" stroke="#666666" points="329,-78 188,-78 188,-48 329,-48 329,-78"/>
<text text-anchor="start" x="196" y="-66" font-family="Helvetica,sans-Serif" font-size="10.00">quala::LimitedMemoryQR</text>
<text text-anchor="middle" x="258.5" y="-55" font-family="Helvetica,sans-Serif" font-size="10.00">::get_max_eig</text>
</a>
</g>
</g>
<!-- Node1&#45;&gt;Node6 -->
<g id="edge6" class="edge">
<title>Node1&#45;&gt;Node6</title>
<path fill="none" stroke="#63b8ff" d="M86.91,-163.47C105.41,-146.12 147.05,-109.15 188,-87 191.22,-85.26 194.59,-83.6 198.04,-82.04"/>
<polygon fill="#63b8ff" stroke="#63b8ff" points="199.45,-85.24 207.3,-78.12 196.72,-78.8 199.45,-85.24"/>
</g>
<!-- Node7 -->
<g id="node7" class="node">
<title>Node7</title>
<g id="a_node7"><a xlink:href="classquala_1_1LimitedMemoryQR.html#a436c4dbbf0476354ca67a104bc005e55" target="_top" xlink:title="Remove the leftmost column.">
<polygon fill="white" stroke="#666666" points="329,-250 188,-250 188,-220 329,-220 329,-250"/>
<text text-anchor="start" x="196" y="-238" font-family="Helvetica,sans-Serif" font-size="10.00">quala::LimitedMemoryQR</text>
<text text-anchor="middle" x="258.5" y="-227" font-family="Helvetica,sans-Serif" font-size="10.00">::remove_column</text>
</a>
</g>
</g>
<!-- Node1&#45;&gt;Node7 -->
<g id="edge9" class="edge">
<title>Node1&#45;&gt;Node7</title>
<path fill="none" stroke="#63b8ff" d="M104.81,-182.55C131.07,-191.57 171.16,-205.34 203.67,-216.51"/>
<polygon fill="#63b8ff" stroke="#63b8ff" points="202.9,-219.95 213.49,-219.88 205.17,-213.33 202.9,-219.95"/>
</g>
<!-- Node8 -->
<g id="node8" class="node">
<title>Node8</title>
<g id="a_node8"><a xlink:href="classquala_1_1LimitedMemoryQR.html#a0bf0ad441ec87440e4525e75de00d053" target="_top" xlink:title="Get iterators in the circular buffer.">
<polygon fill="white" stroke="#666666" points="683,-150 542,-150 542,-120 683,-120 683,-150"/>
<text text-anchor="start" x="550" y="-138" font-family="Helvetica,sans-Serif" font-size="10.00">quala::LimitedMemoryQR</text>
<text text-anchor="middle" x="612.5" y="-127" font-family="Helvetica,sans-Serif" font-size="10.00">::ring_iter</text>
</a>
</g>
</g>
<!-- Node1&#45;&gt;Node8 -->
<g id="edge12" class="edge">
<title>Node1&#45;&gt;Node8</title>
<path fill="none" stroke="#63b8ff" d="M152.16,-167.66C252.48,-160.52 429.36,-147.95 531.89,-140.66"/>
<polygon fill="#63b8ff" stroke="#63b8ff" points="532.15,-144.15 541.88,-139.95 531.65,-137.17 532.15,-144.15"/>
</g>
<!-- Node9 -->
<g id="node9" class="node">
<title>Node9</title>
<g id="a_node9"><a xlink:href="classquala_1_1LimitedMemoryQR.html#a8a153a1f58e5c5879095a4c3799b6f49" target="_top" xlink:title="Get the tail index of the circular buffer (points to one past the most recent element).">
<polygon fill="white" stroke="#666666" points="329,-30 188,-30 188,0 329,0 329,-30"/>
<text text-anchor="start" x="196" y="-18" font-family="Helvetica,sans-Serif" font-size="10.00">quala::LimitedMemoryQR</text>
<text text-anchor="middle" x="258.5" y="-7" font-family="Helvetica,sans-Serif" font-size="10.00">::ring_tail</text>
</a>
</g>
</g>
<!-- Node1&#45;&gt;Node9 -->
<g id="edge14" class="edge">
<title>Node1&#45;&gt;Node9</title>
<path fill="none" stroke="#63b8ff" d="M82.4,-163.36C96.54,-138.98 137.09,-74.26 188,-39 190.23,-37.45 192.58,-36 195,-34.63"/>
<polygon fill="#63b8ff" stroke="#63b8ff" points="196.7,-37.69 204.03,-30.04 193.53,-31.45 196.7,-37.69"/>
</g>
<!-- Node10 -->
<g id="node10" class="node">
<title>Node10</title>
<g id="a_node10"><a xlink:href="classquala_1_1LimitedMemoryQR.html#a5e3322cd9c833dc65702b574640eefe1" target="_top" xlink:title="Solve the least squares problem Ax = b.">
<polygon fill="white" stroke="#666666" points="329,-126 188,-126 188,-96 329,-96 329,-126"/>
<text text-anchor="start" x="196" y="-114" font-family="Helvetica,sans-Serif" font-size="10.00">quala::LimitedMemoryQR</text>
<text text-anchor="middle" x="258.5" y="-103" font-family="Helvetica,sans-Serif" font-size="10.00">::solve_col</text>
</a>
</g>
</g>
<!-- Node1&#45;&gt;Node10 -->
<g id="edge15" class="edge">
<title>Node1&#45;&gt;Node10</title>
<path fill="none" stroke="#63b8ff" d="M104.81,-163.45C131.07,-154.43 171.16,-140.66 203.67,-129.49"/>
<polygon fill="#63b8ff" stroke="#63b8ff" points="205.17,-132.67 213.49,-126.12 202.9,-126.05 205.17,-132.67"/>
</g>
<!-- Node2&#45;&gt;Node3 -->
<g id="edge2" class="edge">
<title>Node2&#45;&gt;Node3</title>
<path fill="none" stroke="#63b8ff" d="M329.15,-281.05C426.34,-278.34 602.59,-273.42 708.67,-270.45"/>
<polygon fill="#63b8ff" stroke="#63b8ff" points="708.81,-273.95 718.71,-270.17 708.61,-266.95 708.81,-273.95"/>
</g>
<!-- Node2&#45;&gt;Node4 -->
<g id="edge3" class="edge">
<title>Node2&#45;&gt;Node4</title>
<path fill="none" stroke="#63b8ff" d="M312.02,-267.95C317.95,-265.36 323.74,-262.39 329,-259 348.56,-246.4 345.44,-233.6 365,-221 367.46,-219.41 370.05,-217.92 372.7,-216.51"/>
<polygon fill="#63b8ff" stroke="#63b8ff" points="374.48,-219.54 381.98,-212.05 371.45,-213.23 374.48,-219.54"/>
</g>
<!-- Node5 -->
<g id="node5" class="node">
<title>Node5</title>
<g id="a_node5"><a xlink:href="classquala_1_1LimitedMemoryQR.html#a9f68bead8c70041aacb90dd175150dc4" target="_top" xlink:title="Get the next index in the circular storage for R.">
<polygon fill="white" stroke="#666666" points="506,-260 365,-260 365,-230 506,-230 506,-260"/>
<text text-anchor="start" x="373" y="-248" font-family="Helvetica,sans-Serif" font-size="10.00">quala::LimitedMemoryQR</text>
<text text-anchor="middle" x="435.5" y="-237" font-family="Helvetica,sans-Serif" font-size="10.00">::r_succ</text>
</a>
</g>
</g>
<!-- Node2&#45;&gt;Node5 -->
<g id="edge4" class="edge">
<title>Node2&#45;&gt;Node5</title>
<path fill="none" stroke="#63b8ff" d="M328.66,-267.98C337.41,-266.08 346.41,-264.13 355.3,-262.2"/>
<polygon fill="#63b8ff" stroke="#63b8ff" points="356.24,-265.58 365.26,-260.03 354.75,-258.74 356.24,-265.58"/>
</g>
<!-- Node5&#45;&gt;Node3 -->
<g id="edge5" class="edge">
<title>Node5&#45;&gt;Node3</title>
<path fill="none" stroke="#63b8ff" d="M506.34,-249.46C564.06,-253.15 646.33,-258.41 708.54,-262.38"/>
<polygon fill="#63b8ff" stroke="#63b8ff" points="708.53,-265.89 718.74,-263.03 708.98,-258.9 708.53,-265.89"/>
</g>
<!-- Node7&#45;&gt;Node4 -->
<g id="edge10" class="edge">
<title>Node7&#45;&gt;Node4</title>
<path fill="none" stroke="#63b8ff" d="M328.66,-219.98C337.41,-218.08 346.41,-216.13 355.3,-214.2"/>
<polygon fill="#63b8ff" stroke="#63b8ff" points="356.24,-217.58 365.26,-212.03 354.75,-210.74 356.24,-217.58"/>
</g>
<!-- Node7&#45;&gt;Node5 -->
<g id="edge11" class="edge">
<title>Node7&#45;&gt;Node5</title>
<path fill="none" stroke="#63b8ff" d="M329.17,-238.98C337.5,-239.46 346.06,-239.95 354.53,-240.43"/>
<polygon fill="#63b8ff" stroke="#63b8ff" points="354.6,-243.94 364.79,-241.02 355,-236.95 354.6,-243.94"/>
</g>
<!-- Node8&#45;&gt;Node3 -->
<g id="edge13" class="edge">
<title>Node8&#45;&gt;Node3</title>
<path fill="none" stroke="#63b8ff" d="M634.49,-150.26C669.46,-175.67 739.28,-226.41 774.74,-252.19"/>
<polygon fill="#63b8ff" stroke="#63b8ff" points="772.83,-255.13 782.98,-258.17 776.95,-249.46 772.83,-255.13"/>
</g>
<!-- Node10&#45;&gt;Node8 -->
<g id="edge16" class="edge">
<title>Node10&#45;&gt;Node8</title>
<path fill="none" stroke="#63b8ff" d="M329.04,-115.74C387.41,-119.72 470.78,-125.41 531.82,-129.57"/>
<polygon fill="#63b8ff" stroke="#63b8ff" points="531.59,-133.06 541.8,-130.25 532.06,-126.08 531.59,-133.06"/>
</g>
<!-- Node11 -->
<g id="node11" class="node">
<title>Node11</title>
<g id="a_node11"><a xlink:href="classquala_1_1LimitedMemoryQR.html#ae8160acf26958eb65aa5c0743dd2826d" target="_top" xlink:title="Get reverse iterators in the circular buffer.">
<polygon fill="white" stroke="#666666" points="506,-88 365,-88 365,-58 506,-58 506,-88"/>
<text text-anchor="start" x="373" y="-76" font-family="Helvetica,sans-Serif" font-size="10.00">quala::LimitedMemoryQR</text>
<text text-anchor="middle" x="435.5" y="-65" font-family="Helvetica,sans-Serif" font-size="10.00">::ring_reverse_iter</text>
</a>
</g>
</g>
<!-- Node10&#45;&gt;Node11 -->
<g id="edge17" class="edge">
<title>Node10&#45;&gt;Node11</title>
<path fill="none" stroke="#63b8ff" d="M328.66,-95.98C337.41,-94.08 346.41,-92.13 355.3,-90.2"/>
<polygon fill="#63b8ff" stroke="#63b8ff" points="356.24,-93.58 365.26,-88.03 354.75,-86.74 356.24,-93.58"/>
</g>
<!-- Node11&#45;&gt;Node8 -->
<g id="edge18" class="edge">
<title>Node11&#45;&gt;Node8</title>
<path fill="none" stroke="#63b8ff" d="M478.86,-88.01C503.08,-96.59 533.65,-107.42 559.34,-116.52"/>
<polygon fill="#63b8ff" stroke="#63b8ff" points="558.33,-119.87 568.92,-119.91 560.66,-113.28 558.33,-119.87"/>
</g>
</g>
</svg>
