<?xml version="1.0" encoding="UTF-8" standalone="no"?>
<!DOCTYPE svg PUBLIC "-//W3C//DTD SVG 1.1//EN"
 "http://www.w3.org/Graphics/SVG/1.1/DTD/svg11.dtd">
<!-- Generated by graphviz version 2.43.0 (0)
 -->
<!-- Title: quala.py.cpp Pages: 1 -->
<svg width="2187pt" height="379pt"
 viewBox="0.00 0.00 2187.00 379.00" xmlns="http://www.w3.org/2000/svg" xmlns:xlink="http://www.w3.org/1999/xlink">
<g id="graph0" class="graph" transform="scale(1 1) rotate(0) translate(4 375)">
<title>quala.py.cpp</title>
<!-- Node1 -->
<g id="node1" class="node">
<title>Node1</title>
<g id="a_node1"><a xlink:title="This file defines all Python bindings.">
<polygon fill="#999999" stroke="#666666" points="1157.5,-371 1080.5,-371 1080.5,-352 1157.5,-352 1157.5,-371"/>
<text text-anchor="middle" x="1119" y="-359" font-family="Helvetica,sans-Serif" font-size="10.00">quala.py.cpp</text>
</a>
</g>
</g>
<!-- Node2 -->
<g id="node2" class="node">
<title>Node2</title>
<g id="a_node2"><a xlink:title=" ">
<polygon fill="#e0e0e0" stroke="#999999" points="90,-316 0,-316 0,-297 90,-297 90,-316"/>
<text text-anchor="middle" x="45" y="-304" font-family="Helvetica,sans-Serif" font-size="10.00">pybind11/attr.h</text>
</a>
</g>
</g>
<!-- Node1&#45;&gt;Node2 -->
<g id="edge1" class="edge">
<title>Node1&#45;&gt;Node2</title>
<path fill="none" stroke="#63b8ff" d="M1080.45,-360.38C946.43,-359.63 488.32,-354.31 100.06,-315.97"/>
<polygon fill="#63b8ff" stroke="#63b8ff" points="100.33,-312.49 90.03,-314.98 99.64,-319.45 100.33,-312.49"/>
</g>
<!-- Node3 -->
<g id="node3" class="node">
<title>Node3</title>
<g id="a_node3"><a xlink:title=" ">
<polygon fill="#e0e0e0" stroke="#999999" points="202,-316 108,-316 108,-297 202,-297 202,-316"/>
<text text-anchor="middle" x="155" y="-304" font-family="Helvetica,sans-Serif" font-size="10.00">pybind11/cast.h</text>
</a>
</g>
</g>
<!-- Node1&#45;&gt;Node3 -->
<g id="edge2" class="edge">
<title>Node1&#45;&gt;Node3</title>
<path fill="none" stroke="#63b8ff" d="M1080.4,-360.01C956.05,-358.14 554.62,-349.78 212.13,-316"/>
<polygon fill="#63b8ff" stroke="#63b8ff" points="212.31,-312.5 202.01,-314.99 211.61,-319.46 212.31,-312.5"/>
</g>
<!-- Node4 -->
<g id="node4" class="node">
<title>Node4</title>
<g id="a_node4"><a xlink:title=" ">
<polygon fill="#e0e0e0" stroke="#999999" points="327.5,-316 220.5,-316 220.5,-297 327.5,-297 327.5,-316"/>
<text text-anchor="middle" x="274" y="-304" font-family="Helvetica,sans-Serif" font-size="10.00">pybind11/chrono.h</text>
</a>
</g>
</g>
<!-- Node1&#45;&gt;Node4 -->
<g id="edge3" class="edge">
<title>Node1&#45;&gt;Node4</title>
<path fill="none" stroke="#63b8ff" d="M1080.22,-359.39C967.33,-355.92 628.99,-343.87 338.07,-316.13"/>
<polygon fill="#63b8ff" stroke="#63b8ff" points="338.03,-312.61 327.74,-315.13 337.36,-319.57 338.03,-312.61"/>
</g>
<!-- Node5 -->
<g id="node5" class="node">
<title>Node5</title>
<g id="a_node5"><a xlink:title=" ">
<polygon fill="#e0e0e0" stroke="#999999" points="492.5,-316 345.5,-316 345.5,-297 492.5,-297 492.5,-316"/>
<text text-anchor="middle" x="419" y="-304" font-family="Helvetica,sans-Serif" font-size="10.00">pybind11/detail/common.h</text>
</a>
</g>
</g>
<!-- Node1&#45;&gt;Node5 -->
<g id="edge4" class="edge">
<title>Node1&#45;&gt;Node5</title>
<path fill="none" stroke="#63b8ff" d="M1080.28,-358.14C984.31,-352.19 727.54,-335.71 502.75,-316.13"/>
<polygon fill="#63b8ff" stroke="#63b8ff" points="503.01,-312.64 492.75,-315.25 502.4,-319.61 503.01,-312.64"/>
</g>
<!-- Node6 -->
<g id="node6" class="node">
<title>Node6</title>
<g id="a_node6"><a xlink:title=" ">
<polygon fill="#e0e0e0" stroke="#999999" points="611.5,-316 510.5,-316 510.5,-297 611.5,-297 611.5,-316"/>
<text text-anchor="middle" x="561" y="-304" font-family="Helvetica,sans-Serif" font-size="10.00">pybind11/eigen.h</text>
</a>
</g>
</g>
<!-- Node1&#45;&gt;Node6 -->
<g id="edge5" class="edge">
<title>Node1&#45;&gt;Node6</title>
<path fill="none" stroke="#63b8ff" d="M1080.19,-357.72C997.83,-351.67 799.28,-336.29 621.76,-316.03"/>
<polygon fill="#63b8ff" stroke="#63b8ff" points="622.05,-312.54 611.72,-314.87 621.25,-319.49 622.05,-312.54"/>
</g>
<!-- Node7 -->
<g id="node7" class="node">
<title>Node7</title>
<g id="a_node7"><a xlink:title=" ">
<polygon fill="#e0e0e0" stroke="#999999" points="752,-316 630,-316 630,-297 752,-297 752,-316"/>
<text text-anchor="middle" x="691" y="-304" font-family="Helvetica,sans-Serif" font-size="10.00">pybind11/functional.h</text>
</a>
</g>
</g>
<!-- Node1&#45;&gt;Node7 -->
<g id="edge6" class="edge">
<title>Node1&#45;&gt;Node7</title>
<path fill="none" stroke="#63b8ff" d="M1080.26,-355.7C1008.37,-346.8 853.32,-327.6 762.09,-316.3"/>
<polygon fill="#63b8ff" stroke="#63b8ff" points="762.46,-312.82 752.1,-315.07 761.6,-319.77 762.46,-312.82"/>
</g>
<!-- Node8 -->
<g id="node8" class="node">
<title>Node8</title>
<g id="a_node8"><a xlink:title=" ">
<polygon fill="#e0e0e0" stroke="#999999" points="887.5,-316 770.5,-316 770.5,-297 887.5,-297 887.5,-316"/>
<text text-anchor="middle" x="829" y="-304" font-family="Helvetica,sans-Serif" font-size="10.00">pybind11/iostream.h</text>
</a>
</g>
</g>
<!-- Node1&#45;&gt;Node8 -->
<g id="edge7" class="edge">
<title>Node1&#45;&gt;Node8</title>
<path fill="none" stroke="#63b8ff" d="M1080.49,-353.46C1030.64,-344.35 943.35,-328.4 885.86,-317.89"/>
<polygon fill="#63b8ff" stroke="#63b8ff" points="886.31,-314.42 875.84,-316.06 885.05,-321.3 886.31,-314.42"/>
</g>
<!-- Node9 -->
<g id="node9" class="node">
<title>Node9</title>
<g id="a_node9"><a xlink:title=" ">
<polygon fill="#e0e0e0" stroke="#999999" points="1435.5,-261 1316.5,-261 1316.5,-242 1435.5,-242 1435.5,-261"/>
<text text-anchor="middle" x="1376" y="-249" font-family="Helvetica,sans-Serif" font-size="10.00">pybind11/pybind11.h</text>
</a>
</g>
</g>
<!-- Node1&#45;&gt;Node9 -->
<g id="edge8" class="edge">
<title>Node1&#45;&gt;Node9</title>
<path fill="none" stroke="#63b8ff" d="M1157.53,-360.18C1226.1,-358.69 1364.95,-351.29 1395,-316 1406.14,-302.92 1397.82,-283.5 1388.96,-269.58"/>
<polygon fill="#63b8ff" stroke="#63b8ff" points="1391.82,-267.58 1383.25,-261.35 1386.07,-271.57 1391.82,-267.58"/>
</g>
<!-- Node10 -->
<g id="node10" class="node">
<title>Node10</title>
<g id="a_node10"><a xlink:title=" ">
<polygon fill="#e0e0e0" stroke="#999999" points="1057.5,-316 944.5,-316 944.5,-297 1057.5,-297 1057.5,-316"/>
<text text-anchor="middle" x="1001" y="-304" font-family="Helvetica,sans-Serif" font-size="10.00">pybind11/pytypes.h</text>
</a>
</g>
</g>
<!-- Node1&#45;&gt;Node10 -->
<g id="edge9" class="edge">
<title>Node1&#45;&gt;Node10</title>
<path fill="none" stroke="#63b8ff" d="M1100.04,-351.98C1080.97,-343.42 1051.34,-330.11 1029.45,-320.28"/>
<polygon fill="#63b8ff" stroke="#63b8ff" points="1030.86,-317.07 1020.3,-316.17 1027.99,-323.46 1030.86,-317.07"/>
</g>
<!-- Node11 -->
<g id="node11" class="node">
<title>Node11</title>
<g id="a_node11"><a xlink:title=" ">
<polygon fill="#e0e0e0" stroke="#999999" points="1162,-316 1076,-316 1076,-297 1162,-297 1162,-316"/>
<text text-anchor="middle" x="1119" y="-304" font-family="Helvetica,sans-Serif" font-size="10.00">pybind11/stl.h</text>
</a>
</g>
</g>
<!-- Node1&#45;&gt;Node11 -->
<g id="edge10" class="edge">
<title>Node1&#45;&gt;Node11</title>
<path fill="none" stroke="#63b8ff" d="M1119,-351.75C1119,-344.8 1119,-334.85 1119,-326.13"/>
<polygon fill="#63b8ff" stroke="#63b8ff" points="1122.5,-326.09 1119,-316.09 1115.5,-326.09 1122.5,-326.09"/>
</g>
<!-- Node12 -->
<g id="node12" class="node">
<title>Node12</title>
<g id="a_node12"><a xlink:title=" ">
<polygon fill="#e0e0e0" stroke="#999999" points="1238,-316 1180,-316 1180,-297 1238,-297 1238,-316"/>
<text text-anchor="middle" x="1209" y="-304" font-family="Helvetica,sans-Serif" font-size="10.00">memory</text>
</a>
</g>
</g>
<!-- Node1&#45;&gt;Node12 -->
<g id="edge11" class="edge">
<title>Node1&#45;&gt;Node12</title>
<path fill="none" stroke="#63b8ff" d="M1133.46,-351.98C1147.42,-343.77 1168.79,-331.18 1185.25,-321.49"/>
<polygon fill="#63b8ff" stroke="#63b8ff" points="1187.44,-324.26 1194.28,-316.17 1183.88,-318.23 1187.44,-324.26"/>
</g>
<!-- Node13 -->
<g id="node13" class="node">
<title>Node13</title>
<g id="a_node13"><a xlink:title=" ">
<polygon fill="#e0e0e0" stroke="#999999" points="1312,-316 1256,-316 1256,-297 1312,-297 1312,-316"/>
<text text-anchor="middle" x="1284" y="-304" font-family="Helvetica,sans-Serif" font-size="10.00">optional</text>
</a>
</g>
</g>
<!-- Node1&#45;&gt;Node13 -->
<g id="edge12" class="edge">
<title>Node1&#45;&gt;Node13</title>
<path fill="none" stroke="#63b8ff" d="M1145.51,-351.98C1173.21,-343.09 1216.86,-329.07 1247.74,-319.15"/>
<polygon fill="#63b8ff" stroke="#63b8ff" points="1248.83,-322.47 1257.28,-316.08 1246.69,-315.81 1248.83,-322.47"/>
</g>
<!-- Node14 -->
<g id="node14" class="node">
<title>Node14</title>
<g id="a_node14"><a xlink:title=" ">
<polygon fill="#e0e0e0" stroke="#999999" points="1386,-316 1330,-316 1330,-297 1386,-297 1386,-316"/>
<text text-anchor="middle" x="1358" y="-304" font-family="Helvetica,sans-Serif" font-size="10.00">sstream</text>
</a>
</g>
</g>
<!-- Node1&#45;&gt;Node14 -->
<g id="edge13" class="edge">
<title>Node1&#45;&gt;Node14</title>
<path fill="none" stroke="#63b8ff" d="M1157.75,-352.07C1196.36,-343.65 1257.62,-330.22 1319.75,-316.27"/>
<polygon fill="#63b8ff" stroke="#63b8ff" points="1320.74,-319.63 1329.72,-314.02 1319.2,-312.8 1320.74,-319.63"/>
</g>
<!-- Node15 -->
<g id="node15" class="node">
<title>Node15</title>
<g id="a_node15"><a xlink:title=" ">
<polygon fill="#e0e0e0" stroke="#999999" points="1659.5,-200.5 1594.5,-200.5 1594.5,-181.5 1659.5,-181.5 1659.5,-200.5"/>
<text text-anchor="middle" x="1627" y="-188.5" font-family="Helvetica,sans-Serif" font-size="10.00">stdexcept</text>
</a>
</g>
</g>
<!-- Node1&#45;&gt;Node15 -->
<g id="edge14" class="edge">
<title>Node1&#45;&gt;Node15</title>
<path fill="none" stroke="#63b8ff" d="M1157.7,-361.11C1252,-361.9 1490.67,-359.42 1555,-316 1585.81,-295.2 1575.07,-274 1594,-242 1600.59,-230.86 1608.58,-218.72 1615.04,-209.2"/>
<polygon fill="#63b8ff" stroke="#63b8ff" points="1618.12,-210.91 1620.89,-200.68 1612.35,-206.95 1618.12,-210.91"/>
</g>
<!-- Node16 -->
<g id="node16" class="node">
<title>Node16</title>
<g id="a_node16"><a xlink:title=" ">
<polygon fill="#e0e0e0" stroke="#999999" points="1486,-316 1442,-316 1442,-297 1486,-297 1486,-316"/>
<text text-anchor="middle" x="1464" y="-304" font-family="Helvetica,sans-Serif" font-size="10.00">string</text>
</a>
</g>
</g>
<!-- Node1&#45;&gt;Node16 -->
<g id="edge15" class="edge">
<title>Node1&#45;&gt;Node16</title>
<path fill="none" stroke="#63b8ff" d="M1157.72,-356.04C1216.43,-349.04 1331.35,-334.33 1428,-316 1429.28,-315.76 1430.58,-315.5 1431.89,-315.23"/>
<polygon fill="#63b8ff" stroke="#63b8ff" points="1432.96,-318.58 1441.98,-313.03 1431.46,-311.74 1432.96,-318.58"/>
</g>
<!-- Node17 -->
<g id="node17" class="node">
<title>Node17</title>
<g id="a_node17"><a xlink:title=" ">
<polygon fill="#e0e0e0" stroke="#999999" points="1545.5,-316 1504.5,-316 1504.5,-297 1545.5,-297 1545.5,-316"/>
<text text-anchor="middle" x="1525" y="-304" font-family="Helvetica,sans-Serif" font-size="10.00">tuple</text>
</a>
</g>
</g>
<!-- Node1&#45;&gt;Node17 -->
<g id="edge16" class="edge">
<title>Node1&#45;&gt;Node17</title>
<path fill="none" stroke="#63b8ff" d="M1157.75,-357.95C1224.54,-353.11 1365.76,-340.95 1494.42,-315.78"/>
<polygon fill="#63b8ff" stroke="#63b8ff" points="1495.32,-319.17 1504.45,-313.79 1493.96,-312.3 1495.32,-319.17"/>
</g>
<!-- Node18 -->
<g id="node18" class="node">
<title>Node18</title>
<g id="a_node18"><a xlink:title=" ">
<polygon fill="#e0e0e0" stroke="#999999" points="1462.5,-74 1393.5,-74 1393.5,-55 1462.5,-55 1462.5,-74"/>
<text text-anchor="middle" x="1428" y="-62" font-family="Helvetica,sans-Serif" font-size="10.00">type_traits</text>
</a>
</g>
</g>
<!-- Node1&#45;&gt;Node18 -->
<g id="edge17" class="edge">
<title>Node1&#45;&gt;Node18</title>
<path fill="none" stroke="#63b8ff" d="M1080.44,-355.73C1032.85,-349.08 955.69,-335.61 935,-316 913.62,-295.73 916,-281.96 916,-252.5 916,-252.5 916,-252.5 916,-190 916,-94.24 1258.45,-71.84 1383.22,-66.86"/>
<polygon fill="#63b8ff" stroke="#63b8ff" points="1383.35,-70.35 1393.21,-66.48 1383.08,-63.36 1383.35,-70.35"/>
</g>
<!-- Node19 -->
<g id="node19" class="node">
<title>Node19</title>
<g id="a_node19"><a xlink:title=" ">
<polygon fill="#e0e0e0" stroke="#999999" points="1647.5,-316 1602.5,-316 1602.5,-297 1647.5,-297 1647.5,-316"/>
<text text-anchor="middle" x="1625" y="-304" font-family="Helvetica,sans-Serif" font-size="10.00">utility</text>
</a>
</g>
</g>
<!-- Node1&#45;&gt;Node19 -->
<g id="edge18" class="edge">
<title>Node1&#45;&gt;Node19</title>
<path fill="none" stroke="#63b8ff" d="M1157.52,-358.56C1237.93,-354.14 1429.34,-341.64 1588,-316 1589.46,-315.76 1590.96,-315.5 1592.46,-315.22"/>
<polygon fill="#63b8ff" stroke="#63b8ff" points="1593.3,-318.62 1602.39,-313.19 1591.9,-311.77 1593.3,-318.62"/>
</g>
<!-- Node20 -->
<g id="node20" class="node">
<title>Node20</title>
<g id="a_node20"><a xlink:href="kwargs-to-struct_8hpp.html" target="_top" xlink:title="This file defines mappings from Python dicts (kwargs) to simple parameter structs.">
<polygon fill="white" stroke="#666666" points="1798,-316 1680,-316 1680,-297 1798,-297 1798,-316"/>
<text text-anchor="middle" x="1739" y="-304" font-family="Helvetica,sans-Serif" font-size="10.00">kwargs&#45;to&#45;struct.hpp</text>
</a>
</g>
</g>
<!-- Node1&#45;&gt;Node20 -->
<g id="edge19" class="edge">
<title>Node1&#45;&gt;Node20</title>
<path fill="none" stroke="#63b8ff" d="M1157.51,-357.59C1245.86,-350.86 1469.9,-333.43 1657,-316 1661.17,-315.61 1665.45,-315.2 1669.78,-314.78"/>
<polygon fill="#63b8ff" stroke="#63b8ff" points="1670.29,-318.25 1679.89,-313.77 1669.6,-311.28 1670.29,-318.25"/>
</g>
<!-- Node20&#45;&gt;Node9 -->
<g id="edge24" class="edge">
<title>Node20&#45;&gt;Node9</title>
<path fill="none" stroke="#63b8ff" d="M1680.68,-296.98C1616.34,-287.59 1512.91,-272.49 1444.69,-262.53"/>
<polygon fill="#63b8ff" stroke="#63b8ff" points="1444.88,-259.02 1434.48,-261.04 1443.87,-265.95 1444.88,-259.02"/>
</g>
<!-- Node21 -->
<g id="node21" class="node">
<title>Node21</title>
<g id="a_node21"><a xlink:title=" ">
<polygon fill="#e0e0e0" stroke="#999999" points="2122.5,-261 2057.5,-261 2057.5,-242 2122.5,-242 2122.5,-261"/>
<text text-anchor="middle" x="2090" y="-249" font-family="Helvetica,sans-Serif" font-size="10.00">functional</text>
</a>
</g>
</g>
<!-- Node20&#45;&gt;Node21 -->
<g id="edge20" class="edge">
<title>Node20&#45;&gt;Node21</title>
<path fill="none" stroke="#63b8ff" d="M1798.22,-297.43C1859.55,-288.93 1958.12,-274.88 2043,-261 2044.46,-260.76 2045.94,-260.52 2047.44,-260.26"/>
<polygon fill="#63b8ff" stroke="#63b8ff" points="2048.15,-263.69 2057.41,-258.54 2046.96,-256.79 2048.15,-263.69"/>
</g>
<!-- Node22 -->
<g id="node22" class="node">
<title>Node22</title>
<g id="a_node22"><a xlink:title=" ">
<polygon fill="#e0e0e0" stroke="#999999" points="2179,-261 2141,-261 2141,-242 2179,-242 2179,-261"/>
<text text-anchor="middle" x="2160" y="-249" font-family="Helvetica,sans-Serif" font-size="10.00">map</text>
</a>
</g>
</g>
<!-- Node20&#45;&gt;Node22 -->
<g id="edge21" class="edge">
<title>Node20&#45;&gt;Node22</title>
<path fill="none" stroke="#63b8ff" d="M1798.12,-302.17C1873.45,-297.18 2007.68,-285.8 2130.86,-260.87"/>
<polygon fill="#63b8ff" stroke="#63b8ff" points="2131.75,-264.26 2140.84,-258.82 2130.34,-257.41 2131.75,-264.26"/>
</g>
<!-- Node23 -->
<g id="node23" class="node">
<title>Node23</title>
<g id="a_node23"><a xlink:title=" ">
<polygon fill="#e0e0e0" stroke="#999999" points="1653.5,-261 1602.5,-261 1602.5,-242 1653.5,-242 1653.5,-261"/>
<text text-anchor="middle" x="1628" y="-249" font-family="Helvetica,sans-Serif" font-size="10.00">variant</text>
</a>
</g>
</g>
<!-- Node20&#45;&gt;Node23 -->
<g id="edge22" class="edge">
<title>Node20&#45;&gt;Node23</title>
<path fill="none" stroke="#63b8ff" d="M1721.17,-296.98C1703.39,-288.5 1675.85,-275.35 1655.32,-265.54"/>
<polygon fill="#63b8ff" stroke="#63b8ff" points="1656.69,-262.32 1646.16,-261.17 1653.67,-268.64 1656.69,-262.32"/>
</g>
<!-- Node24 -->
<g id="node24" class="node">
<title>Node24</title>
<g id="a_node24"><a xlink:title=" ">
<polygon fill="#e0e0e0" stroke="#999999" points="1806.5,-261 1671.5,-261 1671.5,-242 1806.5,-242 1806.5,-261"/>
<text text-anchor="middle" x="1739" y="-249" font-family="Helvetica,sans-Serif" font-size="10.00">pybind11/detail/typeid.h</text>
</a>
</g>
</g>
<!-- Node20&#45;&gt;Node24 -->
<g id="edge23" class="edge">
<title>Node20&#45;&gt;Node24</title>
<path fill="none" stroke="#63b8ff" d="M1739,-296.75C1739,-289.8 1739,-279.85 1739,-271.13"/>
<polygon fill="#63b8ff" stroke="#63b8ff" points="1742.5,-271.09 1739,-261.09 1735.5,-271.09 1742.5,-271.09"/>
</g>
<!-- Node25 -->
<g id="node25" class="node">
<title>Node25</title>
<g id="a_node25"><a xlink:href="lbfgs_8hpp.html" target="_top" xlink:title=" ">
<polygon fill="white" stroke="#666666" points="1546,-261 1454,-261 1454,-242 1546,-242 1546,-261"/>
<text text-anchor="middle" x="1500" y="-249" font-family="Helvetica,sans-Serif" font-size="10.00">quala/lbfgs.hpp</text>
</a>
</g>
</g>
<!-- Node20&#45;&gt;Node25 -->
<g id="edge25" class="edge">
<title>Node20&#45;&gt;Node25</title>
<path fill="none" stroke="#63b8ff" d="M1700.6,-296.98C1659.26,-287.82 1593.4,-273.21 1548.51,-263.26"/>
<polygon fill="#63b8ff" stroke="#63b8ff" points="1549.22,-259.83 1538.7,-261.08 1547.71,-266.66 1549.22,-259.83"/>
</g>
<!-- Node30 -->
<g id="node30" class="node">
<title>Node30</title>
<g id="a_node30"><a xlink:href="anderson-acceleration_8hpp.html" target="_top" xlink:title=" ">
<polygon fill="white" stroke="#666666" points="2001,-261 1825,-261 1825,-242 2001,-242 2001,-261"/>
<text text-anchor="middle" x="1913" y="-249" font-family="Helvetica,sans-Serif" font-size="10.00">quala/anderson&#45;acceleration.hpp</text>
</a>
</g>
</g>
<!-- Node20&#45;&gt;Node30 -->
<g id="edge32" class="edge">
<title>Node20&#45;&gt;Node30</title>
<path fill="none" stroke="#63b8ff" d="M1766.96,-296.98C1796.3,-288.05 1842.6,-273.94 1875.19,-264.02"/>
<polygon fill="#63b8ff" stroke="#63b8ff" points="1876.28,-267.34 1884.82,-261.08 1874.24,-260.65 1876.28,-267.34"/>
</g>
<!-- Node40 -->
<g id="node40" class="node">
<title>Node40</title>
<g id="a_node40"><a xlink:href="broyden-good_8hpp.html" target="_top" xlink:title=" ">
<polygon fill="white" stroke="#666666" points="2077.5,-134.5 1942.5,-134.5 1942.5,-115.5 2077.5,-115.5 2077.5,-134.5"/>
<text text-anchor="middle" x="2010" y="-122.5" font-family="Helvetica,sans-Serif" font-size="10.00">quala/broyden&#45;good.hpp</text>
</a>
</g>
</g>
<!-- Node20&#45;&gt;Node40 -->
<g id="edge46" class="edge">
<title>Node20&#45;&gt;Node40</title>
<path fill="none" stroke="#63b8ff" d="M1798.19,-304.39C1869.59,-301.65 1983.38,-292.35 2010,-261 2037.98,-228.05 2025.64,-172.5 2016.56,-144.03"/>
<polygon fill="#63b8ff" stroke="#63b8ff" points="2019.87,-142.88 2013.33,-134.54 2013.24,-145.13 2019.87,-142.88"/>
</g>
<!-- Node25&#45;&gt;Node15 -->
<g id="edge30" class="edge">
<title>Node25&#45;&gt;Node15</title>
<path fill="none" stroke="#63b8ff" d="M1518.47,-241.99C1539.72,-232.2 1574.85,-216.02 1599.37,-204.73"/>
<polygon fill="#63b8ff" stroke="#63b8ff" points="1600.89,-207.88 1608.51,-200.52 1597.96,-201.52 1600.89,-207.88"/>
</g>
<!-- Node25&#45;&gt;Node18 -->
<g id="edge31" class="edge">
<title>Node25&#45;&gt;Node18</title>
<path fill="none" stroke="#63b8ff" d="M1487.04,-241.88C1476.15,-233.9 1461.1,-221.03 1453,-206 1431.61,-166.32 1428,-112.08 1427.7,-84.01"/>
<polygon fill="#63b8ff" stroke="#63b8ff" points="1431.2,-84.02 1427.72,-74.01 1424.2,-84 1431.2,-84.02"/>
</g>
<!-- Node26 -->
<g id="node26" class="node">
<title>Node26</title>
<g id="a_node26"><a xlink:href="decl_2lbfgs_8hpp.html" target="_top" xlink:title=" ">
<polygon fill="white" stroke="#666666" points="1576.5,-200.5 1461.5,-200.5 1461.5,-181.5 1576.5,-181.5 1576.5,-200.5"/>
<text text-anchor="middle" x="1519" y="-188.5" font-family="Helvetica,sans-Serif" font-size="10.00">quala/decl/lbfgs.hpp</text>
</a>
</g>
</g>
<!-- Node25&#45;&gt;Node26 -->
<g id="edge26" class="edge">
<title>Node25&#45;&gt;Node26</title>
<path fill="none" stroke="#63b8ff" d="M1502.8,-241.87C1505.5,-233.57 1509.65,-220.78 1513.08,-210.22"/>
<polygon fill="#63b8ff" stroke="#63b8ff" points="1516.42,-211.26 1516.18,-200.67 1509.77,-209.1 1516.42,-211.26"/>
</g>
<!-- Node27 -->
<g id="node27" class="node">
<title>Node27</title>
<g id="a_node27"><a xlink:href="lbfgs-fwd_8hpp.html" target="_top" xlink:title=" ">
<polygon fill="white" stroke="#666666" points="1592,-134.5 1456,-134.5 1456,-115.5 1592,-115.5 1592,-134.5"/>
<text text-anchor="middle" x="1524" y="-122.5" font-family="Helvetica,sans-Serif" font-size="10.00">quala/decl/lbfgs&#45;fwd.hpp</text>
</a>
</g>
</g>
<!-- Node26&#45;&gt;Node27 -->
<g id="edge27" class="edge">
<title>Node26&#45;&gt;Node27</title>
<path fill="none" stroke="#63b8ff" d="M1519.67,-181.37C1520.4,-172.07 1521.58,-156.98 1522.52,-144.9"/>
<polygon fill="#63b8ff" stroke="#63b8ff" points="1526.01,-145.15 1523.3,-134.91 1519.04,-144.6 1526.01,-145.15"/>
</g>
<!-- Node28 -->
<g id="node28" class="node">
<title>Node28</title>
<g id="a_node28"><a xlink:href="vec_8hpp.html" target="_top" xlink:title=" ">
<polygon fill="white" stroke="#666666" points="1906,-74 1802,-74 1802,-55 1906,-55 1906,-74"/>
<text text-anchor="middle" x="1854" y="-62" font-family="Helvetica,sans-Serif" font-size="10.00">quala/util/vec.hpp</text>
</a>
</g>
</g>
<!-- Node26&#45;&gt;Node28 -->
<g id="edge28" class="edge">
<title>Node26&#45;&gt;Node28</title>
<path fill="none" stroke="#63b8ff" d="M1558.62,-181.43C1567.61,-179.57 1577.12,-177.66 1586,-176 1682.53,-157.95 1721.41,-193.13 1804,-140 1824.83,-126.6 1839.07,-101.11 1846.88,-83.71"/>
<polygon fill="#63b8ff" stroke="#63b8ff" points="1850.26,-84.68 1850.9,-74.11 1843.81,-81.97 1850.26,-84.68"/>
</g>
<!-- Node29 -->
<g id="node29" class="node">
<title>Node29</title>
<g id="a_node29"><a xlink:title=" ">
<polygon fill="#e0e0e0" stroke="#999999" points="1888.5,-19 1819.5,-19 1819.5,0 1888.5,0 1888.5,-19"/>
<text text-anchor="middle" x="1854" y="-7" font-family="Helvetica,sans-Serif" font-size="10.00">Eigen/Core</text>
</a>
</g>
</g>
<!-- Node28&#45;&gt;Node29 -->
<g id="edge29" class="edge">
<title>Node28&#45;&gt;Node29</title>
<path fill="none" stroke="#63b8ff" d="M1854,-54.75C1854,-47.8 1854,-37.85 1854,-29.13"/>
<polygon fill="#63b8ff" stroke="#63b8ff" points="1857.5,-29.09 1854,-19.09 1850.5,-29.09 1857.5,-29.09"/>
</g>
<!-- Node30&#45;&gt;Node15 -->
<g id="edge45" class="edge">
<title>Node30&#45;&gt;Node15</title>
<path fill="none" stroke="#63b8ff" d="M1871.41,-241.99C1817.56,-230.98 1724.18,-211.88 1669.76,-200.75"/>
<polygon fill="#63b8ff" stroke="#63b8ff" points="1670.24,-197.27 1659.74,-198.7 1668.84,-204.13 1670.24,-197.27"/>
</g>
<!-- Node31 -->
<g id="node31" class="node">
<title>Node31</title>
<g id="a_node31"><a xlink:href="anderson-helpers_8hpp.html" target="_top" xlink:title=" ">
<polygon fill="white" stroke="#666666" points="1974,-206 1852,-206 1852,-176 1974,-176 1974,-206"/>
<text text-anchor="start" x="1860" y="-194" font-family="Helvetica,sans-Serif" font-size="10.00">quala/detail/anderson</text>
<text text-anchor="middle" x="1913" y="-183" font-family="Helvetica,sans-Serif" font-size="10.00">&#45;helpers.hpp</text>
</a>
</g>
</g>
<!-- Node30&#45;&gt;Node31 -->
<g id="edge33" class="edge">
<title>Node30&#45;&gt;Node31</title>
<path fill="none" stroke="#63b8ff" d="M1913,-241.87C1913,-235.11 1913,-225.35 1913,-216.26"/>
<polygon fill="#63b8ff" stroke="#63b8ff" points="1916.5,-216.11 1913,-206.11 1909.5,-216.11 1916.5,-216.11"/>
</g>
<!-- Node39 -->
<g id="node39" class="node">
<title>Node39</title>
<g id="a_node39"><a xlink:title=" ">
<polygon fill="#e0e0e0" stroke="#999999" points="1834,-200.5 1790,-200.5 1790,-181.5 1834,-181.5 1834,-200.5"/>
<text text-anchor="middle" x="1812" y="-188.5" font-family="Helvetica,sans-Serif" font-size="10.00">limits</text>
</a>
</g>
</g>
<!-- Node30&#45;&gt;Node39 -->
<g id="edge44" class="edge">
<title>Node30&#45;&gt;Node39</title>
<path fill="none" stroke="#63b8ff" d="M1898.1,-241.87C1881.69,-232.36 1855.07,-216.95 1835.77,-205.77"/>
<polygon fill="#63b8ff" stroke="#63b8ff" points="1837.37,-202.65 1826.96,-200.67 1833.86,-208.71 1837.37,-202.65"/>
</g>
<!-- Node32 -->
<g id="node32" class="node">
<title>Node32</title>
<g id="a_node32"><a xlink:href="limited-memory-qr_8hpp.html" target="_top" xlink:title=" ">
<polygon fill="white" stroke="#666666" points="1795,-140 1683,-140 1683,-110 1795,-110 1795,-140"/>
<text text-anchor="start" x="1691" y="-128" font-family="Helvetica,sans-Serif" font-size="10.00">quala/detail/limited</text>
<text text-anchor="middle" x="1739" y="-117" font-family="Helvetica,sans-Serif" font-size="10.00">&#45;memory&#45;qr.hpp</text>
</a>
</g>
</g>
<!-- Node31&#45;&gt;Node32 -->
<g id="edge34" class="edge">
<title>Node31&#45;&gt;Node32</title>
<path fill="none" stroke="#63b8ff" d="M1874.81,-175.95C1848.86,-166.41 1814.34,-153.71 1786.6,-143.51"/>
<polygon fill="#63b8ff" stroke="#63b8ff" points="1787.69,-140.18 1777.1,-140.01 1785.27,-146.75 1787.69,-140.18"/>
</g>
<!-- Node32&#45;&gt;Node18 -->
<g id="edge43" class="edge">
<title>Node32&#45;&gt;Node18</title>
<path fill="none" stroke="#63b8ff" d="M1682.68,-113.41C1622.37,-102.06 1527.89,-84.29 1472.55,-73.88"/>
<polygon fill="#63b8ff" stroke="#63b8ff" points="1473.16,-70.43 1462.69,-72.02 1471.87,-77.31 1473.16,-70.43"/>
</g>
<!-- Node32&#45;&gt;Node28 -->
<g id="edge42" class="edge">
<title>Node32&#45;&gt;Node28</title>
<path fill="none" stroke="#63b8ff" d="M1766.55,-109.99C1785.22,-100.49 1809.74,-88.02 1828.06,-78.69"/>
<polygon fill="#63b8ff" stroke="#63b8ff" points="1829.69,-81.79 1837.02,-74.14 1826.52,-75.55 1829.69,-81.79"/>
</g>
<!-- Node33 -->
<g id="node33" class="node">
<title>Node33</title>
<g id="a_node33"><a xlink:title=" ">
<polygon fill="#e0e0e0" stroke="#999999" points="1746,-74 1670,-74 1670,-55 1746,-55 1746,-74"/>
<text text-anchor="middle" x="1708" y="-62" font-family="Helvetica,sans-Serif" font-size="10.00">Eigen/Jacobi</text>
</a>
</g>
</g>
<!-- Node32&#45;&gt;Node33 -->
<g id="edge35" class="edge">
<title>Node32&#45;&gt;Node33</title>
<path fill="none" stroke="#63b8ff" d="M1731.5,-109.84C1727.27,-101.87 1721.96,-91.84 1717.45,-83.33"/>
<polygon fill="#63b8ff" stroke="#63b8ff" points="1720.42,-81.46 1712.65,-74.27 1714.23,-84.74 1720.42,-81.46"/>
</g>
<!-- Node34 -->
<g id="node34" class="node">
<title>Node34</title>
<g id="a_node34"><a xlink:title=" ">
<polygon fill="#e0e0e0" stroke="#999999" points="1774.5,-19 1721.5,-19 1721.5,0 1774.5,0 1774.5,-19"/>
<text text-anchor="middle" x="1748" y="-7" font-family="Helvetica,sans-Serif" font-size="10.00">cstddef</text>
</a>
</g>
</g>
<!-- Node32&#45;&gt;Node34 -->
<g id="edge36" class="edge">
<title>Node32&#45;&gt;Node34</title>
<path fill="none" stroke="#63b8ff" d="M1744.83,-109.84C1748.56,-99.99 1753.06,-86.43 1755,-74 1757.36,-58.91 1755.15,-41.69 1752.61,-28.99"/>
<polygon fill="#63b8ff" stroke="#63b8ff" points="1756.01,-28.15 1750.4,-19.16 1749.18,-29.68 1756.01,-28.15"/>
</g>
<!-- Node35 -->
<g id="node35" class="node">
<title>Node35</title>
<g id="a_node35"><a xlink:href="ringbuffer_8hpp.html" target="_top" xlink:title=" ">
<polygon fill="white" stroke="#666666" points="1651.5,-74 1518.5,-74 1518.5,-55 1651.5,-55 1651.5,-74"/>
<text text-anchor="middle" x="1585" y="-62" font-family="Helvetica,sans-Serif" font-size="10.00">quala/util/ringbuffer.hpp</text>
</a>
</g>
</g>
<!-- Node32&#45;&gt;Node35 -->
<g id="edge37" class="edge">
<title>Node32&#45;&gt;Node35</title>
<path fill="none" stroke="#63b8ff" d="M1702.11,-109.99C1676.3,-100.18 1642.15,-87.21 1617.4,-77.81"/>
<polygon fill="#63b8ff" stroke="#63b8ff" points="1618.33,-74.42 1607.74,-74.14 1615.85,-80.96 1618.33,-74.42"/>
</g>
<!-- Node35&#45;&gt;Node34 -->
<g id="edge39" class="edge">
<title>Node35&#45;&gt;Node34</title>
<path fill="none" stroke="#63b8ff" d="M1611.19,-54.98C1638.44,-46.13 1681.3,-32.19 1711.78,-22.28"/>
<polygon fill="#63b8ff" stroke="#63b8ff" points="1713.18,-25.5 1721.61,-19.08 1711.01,-18.85 1713.18,-25.5"/>
</g>
<!-- Node36 -->
<g id="node36" class="node">
<title>Node36</title>
<g id="a_node36"><a xlink:title=" ">
<polygon fill="#e0e0e0" stroke="#999999" points="1540,-19 1476,-19 1476,0 1540,0 1540,-19"/>
<text text-anchor="middle" x="1508" y="-7" font-family="Helvetica,sans-Serif" font-size="10.00">algorithm</text>
</a>
</g>
</g>
<!-- Node35&#45;&gt;Node36 -->
<g id="edge38" class="edge">
<title>Node35&#45;&gt;Node36</title>
<path fill="none" stroke="#63b8ff" d="M1572.63,-54.98C1560.91,-46.92 1543.08,-34.65 1529.11,-25.03"/>
<polygon fill="#63b8ff" stroke="#63b8ff" points="1530.82,-21.96 1520.6,-19.17 1526.85,-27.72 1530.82,-21.96"/>
</g>
<!-- Node37 -->
<g id="node37" class="node">
<title>Node37</title>
<g id="a_node37"><a xlink:title=" ">
<polygon fill="#e0e0e0" stroke="#999999" points="1611.5,-19 1558.5,-19 1558.5,0 1611.5,0 1611.5,-19"/>
<text text-anchor="middle" x="1585" y="-7" font-family="Helvetica,sans-Serif" font-size="10.00">iterator</text>
</a>
</g>
</g>
<!-- Node35&#45;&gt;Node37 -->
<g id="edge40" class="edge">
<title>Node35&#45;&gt;Node37</title>
<path fill="none" stroke="#63b8ff" d="M1585,-54.75C1585,-47.8 1585,-37.85 1585,-29.13"/>
<polygon fill="#63b8ff" stroke="#63b8ff" points="1588.5,-29.09 1585,-19.09 1581.5,-29.09 1588.5,-29.09"/>
</g>
<!-- Node38 -->
<g id="node38" class="node">
<title>Node38</title>
<g id="a_node38"><a xlink:title=" ">
<polygon fill="#e0e0e0" stroke="#999999" points="1676.5,-19 1629.5,-19 1629.5,0 1676.5,0 1676.5,-19"/>
<text text-anchor="middle" x="1653" y="-7" font-family="Helvetica,sans-Serif" font-size="10.00">vector</text>
</a>
</g>
</g>
<!-- Node35&#45;&gt;Node38 -->
<g id="edge41" class="edge">
<title>Node35&#45;&gt;Node38</title>
<path fill="none" stroke="#63b8ff" d="M1595.93,-54.98C1606.08,-47.07 1621.42,-35.11 1633.65,-25.58"/>
<polygon fill="#63b8ff" stroke="#63b8ff" points="1636.14,-28.08 1641.88,-19.17 1631.84,-22.56 1636.14,-28.08"/>
</g>
<!-- Node40&#45;&gt;Node28 -->
<g id="edge47" class="edge">
<title>Node40&#45;&gt;Node28</title>
<path fill="none" stroke="#63b8ff" d="M1987.32,-115.49C1960.74,-105.53 1916.52,-88.95 1886.36,-77.63"/>
<polygon fill="#63b8ff" stroke="#63b8ff" points="1887.3,-74.25 1876.71,-74.02 1884.85,-80.81 1887.3,-74.25"/>
</g>
</g>
</svg>
