<?xml version="1.0" encoding="UTF-8" standalone="no"?>
<!DOCTYPE svg PUBLIC "-//W3C//DTD SVG 1.1//EN"
 "http://www.w3.org/Graphics/SVG/1.1/DTD/svg11.dtd">
<!-- Generated by graphviz version 2.43.0 (0)
 -->
<!-- Title: history Pages: 1 -->
<svg width="879pt" height="295pt"
 viewBox="0.00 0.00 879.00 294.89" xmlns="http://www.w3.org/2000/svg" xmlns:xlink="http://www.w3.org/1999/xlink">
<g id="graph0" class="graph" transform="scale(1 1) rotate(0) translate(4 290.89)">
<title>history</title>
<!-- Node1 -->
<g id="node1" class="node">
<title>Node1</title>
<g id="a_node1"><a xlink:title="Get the number of previous vectors s and y stored in the buffer.">
<polygon fill="#999999" stroke="#666666" points="871,-114 821,-114 821,-95 871,-95 871,-114"/>
<text text-anchor="middle" x="846" y="-102" font-family="Helvetica,sans-Serif" font-size="10.00">history</text>
</a>
</g>
</g>
<!-- Node2 -->
<g id="node2" class="node">
<title>Node2</title>
<g id="a_node2"><a xlink:href="classquala_1_1LBFGS.html#a9cf7dcccbc3bc69a10833450ee79c623" target="_top" xlink:title="Get the number of previous vectors s and y stored in the buffer.">
<polygon fill="white" stroke="#666666" points="785,-171 664,-171 664,-152 785,-152 785,-171"/>
<text text-anchor="middle" x="724.5" y="-159" font-family="Helvetica,sans-Serif" font-size="10.00">quala::LBFGS::history</text>
</a>
</g>
</g>
<!-- Node1&#45;&gt;Node2 -->
<g id="edge1" class="edge">
<title>Node1&#45;&gt;Node2</title>
<path fill="none" stroke="#63b8ff" d="M815.86,-118.4C794.06,-128.8 764.81,-142.75 745.57,-151.93"/>
<polygon fill="#63b8ff" stroke="#63b8ff" points="817.48,-121.5 825,-114.04 814.47,-115.19 817.48,-121.5"/>
</g>
<!-- Node13 -->
<g id="node13" class="node">
<title>Node13</title>
<g id="a_node13"><a xlink:href="structquala_1_1LBFGSStorage.html#a48072fa680a2364d8ce96eb84a5d5689" target="_top" xlink:title="Re&#45;allocate storage for a problem with a different size.">
<polygon fill="white" stroke="#666666" points="747.5,-96 701.5,-96 701.5,-77 747.5,-77 747.5,-96"/>
<text text-anchor="middle" x="724.5" y="-84" font-family="Helvetica,sans-Serif" font-size="10.00">resize</text>
</a>
</g>
</g>
<!-- Node1&#45;&gt;Node13 -->
<g id="edge18" class="edge">
<title>Node1&#45;&gt;Node13</title>
<path fill="none" stroke="#63b8ff" d="M810.71,-99.34C790.43,-96.28 765.32,-92.5 747.63,-89.83"/>
<polygon fill="#63b8ff" stroke="#63b8ff" points="810.41,-102.83 820.82,-100.86 811.45,-95.91 810.41,-102.83"/>
</g>
<!-- Node3 -->
<g id="node3" class="node">
<title>Node3</title>
<g id="a_node3"><a xlink:href="classquala_1_1LBFGS.html#a3c6a2dbecc0d6f8cd90bef088c46b072" target="_top" xlink:title="Get the number of previous s and y vectors currently stored in the buffer.">
<polygon fill="white" stroke="#666666" points="272,-273.5 150,-273.5 150,-243.5 272,-243.5 272,-273.5"/>
<text text-anchor="start" x="158" y="-261.5" font-family="Helvetica,sans-Serif" font-size="10.00">quala::LBFGS::current</text>
<text text-anchor="middle" x="211" y="-250.5" font-family="Helvetica,sans-Serif" font-size="10.00">_history</text>
</a>
</g>
</g>
<!-- Node2&#45;&gt;Node3 -->
<g id="edge2" class="edge">
<title>Node2&#45;&gt;Node3</title>
<path fill="none" stroke="#63b8ff" d="M711.61,-179.62C695.67,-202.08 665.05,-239.23 628,-254.5 509.64,-303.28 355.75,-286.43 272.28,-271.44"/>
<polygon fill="#63b8ff" stroke="#63b8ff" points="714.56,-181.5 717.34,-171.27 708.79,-177.54 714.56,-181.5"/>
</g>
<!-- Node5 -->
<g id="node5" class="node">
<title>Node5</title>
<g id="a_node5"><a xlink:href="classquala_1_1LBFGS.html#aa871b5290773b86e2e4919bbac258a04" target="_top" xlink:title="Iterate over the indices in the history buffer, oldest first.">
<polygon fill="white" stroke="#666666" points="628,-245 482,-245 482,-226 628,-226 628,-245"/>
<text text-anchor="middle" x="555" y="-233" font-family="Helvetica,sans-Serif" font-size="10.00">quala::LBFGS::foreach_fwd</text>
</a>
</g>
</g>
<!-- Node2&#45;&gt;Node5 -->
<g id="edge4" class="edge">
<title>Node2&#45;&gt;Node5</title>
<path fill="none" stroke="#63b8ff" d="M701.49,-176.86C682.71,-189.36 654.61,-206.64 628,-217.5 619.89,-220.81 611.01,-223.63 602.33,-225.99"/>
<polygon fill="#63b8ff" stroke="#63b8ff" points="703.59,-179.67 709.91,-171.16 699.67,-173.87 703.59,-179.67"/>
</g>
<!-- Node7 -->
<g id="node7" class="node">
<title>Node7</title>
<g id="a_node7"><a xlink:href="classquala_1_1LBFGS.html#a0804b751cf2035a35f24762474f62cbf" target="_top" xlink:title="Iterate over the indices in the history buffer, newest first.">
<polygon fill="white" stroke="#666666" points="627.5,-208 482.5,-208 482.5,-189 627.5,-189 627.5,-208"/>
<text text-anchor="middle" x="555" y="-196" font-family="Helvetica,sans-Serif" font-size="10.00">quala::LBFGS::foreach_rev</text>
</a>
</g>
</g>
<!-- Node2&#45;&gt;Node7 -->
<g id="edge7" class="edge">
<title>Node2&#45;&gt;Node7</title>
<path fill="none" stroke="#63b8ff" d="M670.44,-173.22C647.5,-178.29 621,-184.14 599.28,-188.94"/>
<polygon fill="#63b8ff" stroke="#63b8ff" points="671.35,-176.6 680.36,-171.03 669.85,-169.77 671.35,-176.6"/>
</g>
<!-- Node8 -->
<g id="node8" class="node">
<title>Node8</title>
<g id="a_node8"><a xlink:href="classquala_1_1LBFGS.html#a71f7f5e949a948d578ae6f145e4c4914" target="_top" xlink:title="Get the previous index in the circular buffer of s and y vectors.">
<polygon fill="white" stroke="#666666" points="609.5,-171 500.5,-171 500.5,-152 609.5,-152 609.5,-171"/>
<text text-anchor="middle" x="555" y="-159" font-family="Helvetica,sans-Serif" font-size="10.00">quala::LBFGS::pred</text>
</a>
</g>
</g>
<!-- Node2&#45;&gt;Node8 -->
<g id="edge9" class="edge">
<title>Node2&#45;&gt;Node8</title>
<path fill="none" stroke="#63b8ff" d="M653.89,-161.5C639.15,-161.5 623.8,-161.5 609.75,-161.5"/>
<polygon fill="#63b8ff" stroke="#63b8ff" points="653.97,-165 663.97,-161.5 653.97,-158 653.97,-165"/>
</g>
<!-- Node9 -->
<g id="node9" class="node">
<title>Node9</title>
<g id="a_node9"><a xlink:href="classquala_1_1LBFGS.html#adeddc1e1eb8ce1c1bbaf931b6f9a5b9c" target="_top" xlink:title="Scale the stored y vectors by the given factor.">
<polygon fill="white" stroke="#666666" points="273,-171 149,-171 149,-152 273,-152 273,-171"/>
<text text-anchor="middle" x="211" y="-159" font-family="Helvetica,sans-Serif" font-size="10.00">quala::LBFGS::scale_y</text>
</a>
</g>
</g>
<!-- Node2&#45;&gt;Node9 -->
<g id="edge11" class="edge">
<title>Node2&#45;&gt;Node9</title>
<path fill="none" stroke="#63b8ff" d="M671.85,-149.95C657.71,-147.28 642.33,-144.84 628,-143.5 502.22,-131.75 354.32,-144.43 273.1,-153.66"/>
<polygon fill="#63b8ff" stroke="#63b8ff" points="671.41,-153.43 681.9,-151.92 672.76,-146.56 671.41,-153.43"/>
</g>
<!-- Node10 -->
<g id="node10" class="node">
<title>Node10</title>
<g id="a_node10"><a xlink:href="classquala_1_1LBFGS.html#a70926baed7362e4fcce66523bb8e2842" target="_top" xlink:title="Get the next index in the circular buffer of previous s and y vectors.">
<polygon fill="white" stroke="#666666" points="609.5,-95 500.5,-95 500.5,-76 609.5,-76 609.5,-95"/>
<text text-anchor="middle" x="555" y="-83" font-family="Helvetica,sans-Serif" font-size="10.00">quala::LBFGS::succ</text>
</a>
</g>
</g>
<!-- Node2&#45;&gt;Node10 -->
<g id="edge13" class="edge">
<title>Node2&#45;&gt;Node10</title>
<path fill="none" stroke="#63b8ff" d="M699.2,-146.71C680.25,-135.56 653.03,-120.38 628,-109.5 615.43,-104.04 601.19,-99.05 588.72,-95.06"/>
<polygon fill="#63b8ff" stroke="#63b8ff" points="697.66,-149.87 708.05,-151.97 701.24,-143.85 697.66,-149.87"/>
</g>
<!-- Node4 -->
<g id="node4" class="node">
<title>Node4</title>
<g id="a_node4"><a xlink:href="quala_8py_8cpp.html#a12fb4e87da488d1fc7c6fa3e6a3adb90" target="_top" xlink:title=" ">
<polygon fill="white" stroke="#666666" points="113,-152 0,-152 0,-133 113,-133 113,-152"/>
<text text-anchor="middle" x="56.5" y="-140" font-family="Helvetica,sans-Serif" font-size="10.00">PYBIND11_MODULE</text>
</a>
</g>
</g>
<!-- Node3&#45;&gt;Node4 -->
<g id="edge3" class="edge">
<title>Node3&#45;&gt;Node4</title>
<path fill="none" stroke="#63b8ff" d="M181.1,-237.4C170.92,-229.91 159.41,-221.38 149,-213.5 120.3,-191.78 87,-165.72 69.56,-152.01"/>
<polygon fill="#63b8ff" stroke="#63b8ff" points="179.16,-240.32 189.3,-243.42 183.31,-234.68 179.16,-240.32"/>
</g>
<!-- Node6 -->
<g id="node6" class="node">
<title>Node6</title>
<g id="a_node6"><a xlink:href="classquala_1_1LBFGS.html#a9ae2b583badddda6ec2917bb565688c3" target="_top" xlink:title="Apply the inverse Hessian approximation to the given vector q.">
<polygon fill="white" stroke="#666666" points="434.5,-209 320.5,-209 320.5,-190 434.5,-190 434.5,-209"/>
<text text-anchor="middle" x="377.5" y="-197" font-family="Helvetica,sans-Serif" font-size="10.00">quala::LBFGS::apply</text>
</a>
</g>
</g>
<!-- Node5&#45;&gt;Node6 -->
<g id="edge5" class="edge">
<title>Node5&#45;&gt;Node6</title>
<path fill="none" stroke="#63b8ff" d="M497.61,-223.93C474.16,-219.12 447.27,-213.61 424.98,-209.03"/>
<polygon fill="#63b8ff" stroke="#63b8ff" points="496.93,-227.37 507.43,-225.95 498.34,-220.51 496.93,-227.37"/>
</g>
<!-- Node6&#45;&gt;Node4 -->
<g id="edge6" class="edge">
<title>Node6&#45;&gt;Node4</title>
<path fill="none" stroke="#63b8ff" d="M309.99,-199.35C264.16,-197.94 202.17,-193.43 149,-180.5 122.59,-174.08 93.93,-161.11 75.85,-152.12"/>
<polygon fill="#63b8ff" stroke="#63b8ff" points="310.01,-202.85 320.1,-199.62 310.19,-195.85 310.01,-202.85"/>
</g>
<!-- Node7&#45;&gt;Node6 -->
<g id="edge8" class="edge">
<title>Node7&#45;&gt;Node6</title>
<path fill="none" stroke="#63b8ff" d="M472.21,-198.97C459.48,-199.04 446.58,-199.11 434.59,-199.18"/>
<polygon fill="#63b8ff" stroke="#63b8ff" points="472.38,-202.47 482.36,-198.91 472.34,-195.47 472.38,-202.47"/>
</g>
<!-- Node8&#45;&gt;Node6 -->
<g id="edge10" class="edge">
<title>Node8&#45;&gt;Node6</title>
<path fill="none" stroke="#63b8ff" d="M499.72,-173.25C474.91,-178.63 445.89,-184.91 422.47,-189.98"/>
<polygon fill="#63b8ff" stroke="#63b8ff" points="500.68,-176.63 509.71,-171.09 499.2,-169.78 500.68,-176.63"/>
</g>
<!-- Node9&#45;&gt;Node4 -->
<g id="edge12" class="edge">
<title>Node9&#45;&gt;Node4</title>
<path fill="none" stroke="#63b8ff" d="M138.83,-152.63C130.24,-151.56 121.56,-150.48 113.23,-149.44"/>
<polygon fill="#63b8ff" stroke="#63b8ff" points="138.5,-156.12 148.85,-153.88 139.36,-149.17 138.5,-156.12"/>
</g>
<!-- Node11 -->
<g id="node11" class="node">
<title>Node11</title>
<g id="a_node11"><a xlink:href="classquala_1_1LBFGS.html#af150290995e6bee28f5a0f057ed511c8" target="_top" xlink:title="Update the inverse Hessian approximation using the new vectors sₖ = xₖ₊₁ &#45; xₖ and yₖ = pₖ₊₁ &#45; pₖ.">
<polygon fill="white" stroke="#666666" points="446,-95 309,-95 309,-76 446,-76 446,-95"/>
<text text-anchor="middle" x="377.5" y="-83" font-family="Helvetica,sans-Serif" font-size="10.00">quala::LBFGS::update_sy</text>
</a>
</g>
</g>
<!-- Node10&#45;&gt;Node11 -->
<g id="edge14" class="edge">
<title>Node10&#45;&gt;Node11</title>
<path fill="none" stroke="#63b8ff" d="M490.14,-85.5C475.8,-85.5 460.54,-85.5 446.06,-85.5"/>
<polygon fill="#63b8ff" stroke="#63b8ff" points="490.39,-89 500.39,-85.5 490.39,-82 490.39,-89"/>
</g>
<!-- Node11&#45;&gt;Node4 -->
<g id="edge15" class="edge">
<title>Node11&#45;&gt;Node4</title>
<path fill="none" stroke="#63b8ff" d="M315.02,-96.86C301.2,-99.39 286.6,-102.05 273,-104.5 218.41,-114.32 155.99,-125.3 112.43,-132.92"/>
<polygon fill="#63b8ff" stroke="#63b8ff" points="315.72,-100.29 324.92,-95.04 314.45,-93.41 315.72,-100.29"/>
</g>
<!-- Node12 -->
<g id="node12" class="node">
<title>Node12</title>
<g id="a_node12"><a xlink:href="classquala_1_1LBFGS.html#ae34a8e5e432c990eb8af2f95bcbc04bd" target="_top" xlink:title="Update the inverse Hessian approximation using the new vectors xₖ₊₁ and pₖ₊₁.">
<polygon fill="white" stroke="#666666" points="271.5,-95 150.5,-95 150.5,-76 271.5,-76 271.5,-95"/>
<text text-anchor="middle" x="211" y="-83" font-family="Helvetica,sans-Serif" font-size="10.00">quala::LBFGS::update</text>
</a>
</g>
</g>
<!-- Node11&#45;&gt;Node12 -->
<g id="edge16" class="edge">
<title>Node11&#45;&gt;Node12</title>
<path fill="none" stroke="#63b8ff" d="M298.47,-85.5C289.42,-85.5 280.3,-85.5 271.55,-85.5"/>
<polygon fill="#63b8ff" stroke="#63b8ff" points="298.64,-89 308.64,-85.5 298.64,-82 298.64,-89"/>
</g>
<!-- Node12&#45;&gt;Node4 -->
<g id="edge17" class="edge">
<title>Node12&#45;&gt;Node4</title>
<path fill="none" stroke="#63b8ff" d="M175.04,-98.57C147.01,-109.04 108.32,-123.51 83.11,-132.93"/>
<polygon fill="#63b8ff" stroke="#63b8ff" points="176.33,-101.82 184.47,-95.04 173.88,-95.26 176.33,-101.82"/>
</g>
<!-- Node14 -->
<g id="node14" class="node">
<title>Node14</title>
<g id="a_node14"><a xlink:href="classquala_1_1LBFGS.html#abfe51417fbebd259808f86d27f1d7ec5" target="_top" xlink:title="Re&#45;allocate storage for a problem with a different size.">
<polygon fill="white" stroke="#666666" points="613,-57 497,-57 497,-38 613,-38 613,-57"/>
<text text-anchor="middle" x="555" y="-45" font-family="Helvetica,sans-Serif" font-size="10.00">quala::LBFGS::resize</text>
</a>
</g>
</g>
<!-- Node13&#45;&gt;Node14 -->
<g id="edge19" class="edge">
<title>Node13&#45;&gt;Node14</title>
<path fill="none" stroke="#63b8ff" d="M691.23,-78.99C664.39,-72.74 626.03,-63.81 597.02,-57.05"/>
<polygon fill="#63b8ff" stroke="#63b8ff" points="690.72,-82.46 701.26,-81.32 692.31,-75.64 690.72,-82.46"/>
</g>
<!-- Node14&#45;&gt;Node4 -->
<g id="edge21" class="edge">
<title>Node14&#45;&gt;Node4</title>
<path fill="none" stroke="#63b8ff" d="M486.67,-38.31C404.08,-29.81 261.24,-24.23 149,-67.5 112.59,-81.54 79.82,-116.05 65.35,-132.91"/>
<polygon fill="#63b8ff" stroke="#63b8ff" points="486.36,-41.8 496.68,-39.38 487.11,-34.84 486.36,-41.8"/>
</g>
<!-- Node15 -->
<g id="node15" class="node">
<title>Node15</title>
<g id="a_node15"><a xlink:href="classquala_1_1LBFGS.html#a728dfcb0d540fc7da341b3352dbe1582" target="_top" xlink:title=" ">
<polygon fill="white" stroke="#666666" points="437,-19 318,-19 318,0 437,0 437,-19"/>
<text text-anchor="middle" x="377.5" y="-7" font-family="Helvetica,sans-Serif" font-size="10.00">quala::LBFGS::LBFGS</text>
</a>
</g>
</g>
<!-- Node14&#45;&gt;Node15 -->
<g id="edge20" class="edge">
<title>Node14&#45;&gt;Node15</title>
<path fill="none" stroke="#63b8ff" d="M499.72,-35.75C474.91,-30.37 445.89,-24.09 422.47,-19.02"/>
<polygon fill="#63b8ff" stroke="#63b8ff" points="499.2,-39.22 509.71,-37.91 500.68,-32.37 499.2,-39.22"/>
</g>
</g>
</svg>
