<?xml version="1.0" encoding="UTF-8" standalone="no"?>
<!DOCTYPE svg PUBLIC "-//W3C//DTD SVG 1.1//EN"
 "http://www.w3.org/Graphics/SVG/1.1/DTD/svg11.dtd">
<!-- Generated by graphviz version 2.43.0 (0)
 -->
<!-- Title: n Pages: 1 -->
<svg width="954pt" height="520pt"
 viewBox="0.00 0.00 954.00 520.35" xmlns="http://www.w3.org/2000/svg" xmlns:xlink="http://www.w3.org/1999/xlink">
<g id="graph0" class="graph" transform="scale(1 1) rotate(0) translate(4 516.35)">
<title>n</title>
<!-- Node1 -->
<g id="node1" class="node">
<title>Node1</title>
<g id="a_node1"><a xlink:title="Get the size of the s and y vectors in the buffer.">
<polygon fill="#999999" stroke="#666666" points="946,-205.18 917,-205.18 917,-186.18 946,-186.18 946,-205.18"/>
<text text-anchor="middle" x="931.5" y="-193.18" font-family="Helvetica,sans-Serif" font-size="10.00">n</text>
</a>
</g>
</g>
<!-- Node2 -->
<g id="node2" class="node">
<title>Node2</title>
<g id="a_node2"><a xlink:href="structquala_1_1LBFGSStorage.html#ac7c2ee7d2562303f555dd1f4c3fca8cd" target="_top" xlink:title=" ">
<polygon fill="white" stroke="#666666" points="849,-337.18 820,-337.18 820,-318.18 849,-318.18 849,-337.18"/>
<text text-anchor="middle" x="834.5" y="-325.18" font-family="Helvetica,sans-Serif" font-size="10.00">α</text>
</a>
</g>
</g>
<!-- Node1&#45;&gt;Node2 -->
<g id="edge1" class="edge">
<title>Node1&#45;&gt;Node2</title>
<path fill="none" stroke="#63b8ff" d="M918.05,-213.88C908.13,-228.29 893.83,-248.88 881,-266.68 867.86,-284.89 852.11,-305.82 843.01,-317.82"/>
<polygon fill="#63b8ff" stroke="#63b8ff" points="921.1,-215.62 923.87,-205.39 915.33,-211.66 921.1,-215.62"/>
</g>
<!-- Node10 -->
<g id="node10" class="node">
<title>Node10</title>
<g id="a_node10"><a xlink:href="structquala_1_1LBFGSStorage.html#acade3dc51f7ca788be9b91908b2e73ab" target="_top" xlink:title=" ">
<polygon fill="white" stroke="#666666" points="708.5,-262.18 679.5,-262.18 679.5,-243.18 708.5,-243.18 708.5,-262.18"/>
<text text-anchor="middle" x="694" y="-250.18" font-family="Helvetica,sans-Serif" font-size="10.00">ρ</text>
</a>
</g>
</g>
<!-- Node1&#45;&gt;Node10 -->
<g id="edge13" class="edge">
<title>Node1&#45;&gt;Node10</title>
<path fill="none" stroke="#63b8ff" d="M907.92,-207.04C899.61,-210.86 890.03,-214.86 881,-217.68 818.26,-237.23 740.03,-247.59 708.8,-251.19"/>
<polygon fill="#63b8ff" stroke="#63b8ff" points="909.45,-210.19 916.96,-202.72 906.43,-203.87 909.45,-210.19"/>
</g>
<!-- Node13 -->
<g id="node13" class="node">
<title>Node13</title>
<g id="a_node13"><a xlink:href="classquala_1_1LBFGS.html#a727afc7a58d2e44ae7add57e3fa77bc6" target="_top" xlink:title="Get the size of the s and y vectors in the buffer.">
<polygon fill="white" stroke="#666666" points="881,-90.18 788,-90.18 788,-71.18 881,-71.18 881,-90.18"/>
<text text-anchor="middle" x="834.5" y="-78.18" font-family="Helvetica,sans-Serif" font-size="10.00">quala::LBFGS::n</text>
</a>
</g>
</g>
<!-- Node1&#45;&gt;Node13 -->
<g id="edge21" class="edge">
<title>Node1&#45;&gt;Node13</title>
<path fill="none" stroke="#63b8ff" d="M915.95,-178.06C895.67,-153.52 859.62,-109.87 843.58,-90.46"/>
<polygon fill="#63b8ff" stroke="#63b8ff" points="913.33,-180.39 922.4,-185.87 918.73,-175.93 913.33,-180.39"/>
</g>
<!-- Node16 -->
<g id="node16" class="node">
<title>Node16</title>
<g id="a_node16"><a xlink:href="structquala_1_1LBFGSStorage.html#a48072fa680a2364d8ce96eb84a5d5689" target="_top" xlink:title="Re&#45;allocate storage for a problem with a different size.">
<polygon fill="white" stroke="#666666" points="857.5,-53.18 811.5,-53.18 811.5,-34.18 857.5,-34.18 857.5,-53.18"/>
<text text-anchor="middle" x="834.5" y="-41.18" font-family="Helvetica,sans-Serif" font-size="10.00">resize</text>
</a>
</g>
</g>
<!-- Node1&#45;&gt;Node16 -->
<g id="edge27" class="edge">
<title>Node1&#45;&gt;Node16</title>
<path fill="none" stroke="#63b8ff" d="M928.14,-175.97C923.73,-147.47 911.75,-94.66 881,-62.68 874.71,-56.14 865.83,-51.75 857.58,-48.87"/>
<polygon fill="#63b8ff" stroke="#63b8ff" points="924.68,-176.5 929.51,-185.93 931.61,-175.54 924.68,-176.5"/>
</g>
<!-- Node17 -->
<g id="node17" class="node">
<title>Node17</title>
<g id="a_node17"><a xlink:href="structquala_1_1LBFGSStorage.html#a15e4a3db39457cabe764a7737d24e73f" target="_top" xlink:title=" ">
<polygon fill="white" stroke="#666666" points="708.5,-186.18 679.5,-186.18 679.5,-167.18 708.5,-167.18 708.5,-186.18"/>
<text text-anchor="middle" x="694" y="-174.18" font-family="Helvetica,sans-Serif" font-size="10.00">s</text>
</a>
</g>
</g>
<!-- Node1&#45;&gt;Node17 -->
<g id="edge29" class="edge">
<title>Node1&#45;&gt;Node17</title>
<path fill="none" stroke="#63b8ff" d="M906.56,-193.75C857.59,-189.8 747.38,-180.9 708.72,-177.78"/>
<polygon fill="#63b8ff" stroke="#63b8ff" points="906.57,-197.26 916.82,-194.57 907.13,-190.28 906.57,-197.26"/>
</g>
<!-- Node19 -->
<g id="node19" class="node">
<title>Node19</title>
<g id="a_node19"><a xlink:href="structquala_1_1LBFGSStorage.html#aebac2ec4461761a48a7284152a8217f8" target="_top" xlink:title=" ">
<polygon fill="white" stroke="#666666" points="708.5,-224.18 679.5,-224.18 679.5,-205.18 708.5,-205.18 708.5,-224.18"/>
<text text-anchor="middle" x="694" y="-212.18" font-family="Helvetica,sans-Serif" font-size="10.00">y</text>
</a>
</g>
</g>
<!-- Node1&#45;&gt;Node19 -->
<g id="edge36" class="edge">
<title>Node1&#45;&gt;Node19</title>
<path fill="none" stroke="#63b8ff" d="M906.68,-198.21C898.54,-199.04 889.38,-199.94 881,-200.68 816.48,-206.36 739.25,-211.71 708.55,-213.78"/>
<polygon fill="#63b8ff" stroke="#63b8ff" points="907.06,-201.69 916.64,-197.17 906.33,-194.73 907.06,-201.69"/>
</g>
<!-- Node3 -->
<g id="node3" class="node">
<title>Node3</title>
<g id="a_node3"><a xlink:href="classquala_1_1LBFGS.html#ac7c2ee7d2562303f555dd1f4c3fca8cd" target="_top" xlink:title=" ">
<polygon fill="white" stroke="#666666" points="741,-420.18 647,-420.18 647,-401.18 741,-401.18 741,-420.18"/>
<text text-anchor="middle" x="694" y="-408.18" font-family="Helvetica,sans-Serif" font-size="10.00">quala::LBFGS::α</text>
</a>
</g>
</g>
<!-- Node2&#45;&gt;Node3 -->
<g id="edge2" class="edge">
<title>Node2&#45;&gt;Node3</title>
<path fill="none" stroke="#63b8ff" d="M811.26,-341.01C783.19,-357.83 735.6,-386.35 710.91,-401.14"/>
<polygon fill="#63b8ff" stroke="#63b8ff" points="813.19,-343.93 819.97,-335.79 809.59,-337.93 813.19,-343.93"/>
</g>
<!-- Node4 -->
<g id="node4" class="node">
<title>Node4</title>
<g id="a_node4"><a xlink:href="classquala_1_1LBFGS.html#a9ae2b583badddda6ec2917bb565688c3" target="_top" xlink:title="Apply the inverse Hessian approximation to the given vector q.">
<polygon fill="white" stroke="#666666" points="431.5,-374.18 317.5,-374.18 317.5,-355.18 431.5,-355.18 431.5,-374.18"/>
<text text-anchor="middle" x="374.5" y="-362.18" font-family="Helvetica,sans-Serif" font-size="10.00">quala::LBFGS::apply</text>
</a>
</g>
</g>
<!-- Node3&#45;&gt;Node4 -->
<g id="edge3" class="edge">
<title>Node3&#45;&gt;Node4</title>
<path fill="none" stroke="#63b8ff" d="M636.77,-402.53C578.95,-394.15 489.42,-381.18 431.63,-372.81"/>
<polygon fill="#63b8ff" stroke="#63b8ff" points="636.43,-406.02 646.83,-403.99 637.44,-399.09 636.43,-406.02"/>
</g>
<!-- Node5 -->
<g id="node5" class="node">
<title>Node5</title>
<g id="a_node5"><a xlink:href="quala_8py_8cpp.html#a12fb4e87da488d1fc7c6fa3e6a3adb90" target="_top" xlink:title=" ">
<polygon fill="white" stroke="#666666" points="113,-298.18 0,-298.18 0,-279.18 113,-279.18 113,-298.18"/>
<text text-anchor="middle" x="56.5" y="-286.18" font-family="Helvetica,sans-Serif" font-size="10.00">PYBIND11_MODULE</text>
</a>
</g>
</g>
<!-- Node3&#45;&gt;Node5 -->
<g id="edge5" class="edge">
<title>Node3&#45;&gt;Node5</title>
<path fill="none" stroke="#63b8ff" d="M667.44,-425.09C649.1,-434.99 623.57,-447.88 600,-456.68 476.41,-502.83 433.73,-530.7 306,-497.68 228.76,-477.71 209.15,-463.08 149,-410.68 108.87,-375.72 75.35,-320.45 62.8,-298.31"/>
<polygon fill="#63b8ff" stroke="#63b8ff" points="669.23,-428.1 676.32,-420.23 665.87,-421.96 669.23,-428.1"/>
</g>
<!-- Node6 -->
<g id="node6" class="node">
<title>Node6</title>
<g id="a_node6"><a xlink:href="classquala_1_1LBFGS.html#a1109c880f1969f61532c94c19122e927" target="_top" xlink:title="Check if the new vectors s and y allow for a valid BFGS update that preserves the positive definitene...">
<polygon fill="white" stroke="#666666" points="600,-447.68 479,-447.68 479,-417.68 600,-417.68 600,-447.68"/>
<text text-anchor="start" x="487" y="-435.68" font-family="Helvetica,sans-Serif" font-size="10.00">quala::LBFGS::update</text>
<text text-anchor="middle" x="539.5" y="-424.68" font-family="Helvetica,sans-Serif" font-size="10.00">_valid</text>
</a>
</g>
</g>
<!-- Node3&#45;&gt;Node6 -->
<g id="edge6" class="edge">
<title>Node3&#45;&gt;Node6</title>
<path fill="none" stroke="#63b8ff" d="M636.58,-418.82C624.67,-420.53 612.07,-422.35 600.05,-424.09"/>
<polygon fill="#63b8ff" stroke="#63b8ff" points="637.43,-422.23 646.83,-417.34 636.43,-415.3 637.43,-422.23"/>
</g>
<!-- Node4&#45;&gt;Node5 -->
<g id="edge4" class="edge">
<title>Node4&#45;&gt;Node5</title>
<path fill="none" stroke="#63b8ff" d="M307.13,-355.31C262.08,-348.21 201.4,-337.2 149,-322.68 124.99,-316.02 98.39,-305.8 80.08,-298.3"/>
<polygon fill="#63b8ff" stroke="#63b8ff" points="306.66,-358.78 317.08,-356.86 307.73,-351.86 306.66,-358.78"/>
</g>
<!-- Node6&#45;&gt;Node5 -->
<g id="edge8" class="edge">
<title>Node6&#45;&gt;Node5</title>
<path fill="none" stroke="#63b8ff" d="M468.57,-435.76C387.47,-436.5 251.76,-428.8 149,-377.68 110.51,-358.53 77.81,-317.29 64.23,-298.44"/>
<polygon fill="#63b8ff" stroke="#63b8ff" points="468.72,-439.26 478.67,-435.62 468.62,-432.26 468.72,-439.26"/>
</g>
<!-- Node7 -->
<g id="node7" class="node">
<title>Node7</title>
<g id="a_node7"><a xlink:href="classquala_1_1LBFGS.html#a0e0ce3dda38d6f64657929adcf05e2c8" target="_top" xlink:title="Apply the inverse Hessian approximation to the given vector q, applying only the columns and rows of ...">
<polygon fill="white" stroke="#666666" points="431.5,-488.18 317.5,-488.18 317.5,-469.18 431.5,-469.18 431.5,-488.18"/>
<text text-anchor="middle" x="374.5" y="-476.18" font-family="Helvetica,sans-Serif" font-size="10.00">quala::LBFGS::apply</text>
</a>
</g>
</g>
<!-- Node6&#45;&gt;Node7 -->
<g id="edge7" class="edge">
<title>Node6&#45;&gt;Node7</title>
<path fill="none" stroke="#63b8ff" d="M475.33,-450.5C452.92,-456.83 428.56,-463.7 409.51,-469.08"/>
<polygon fill="#63b8ff" stroke="#63b8ff" points="476.45,-453.82 485.13,-447.74 474.55,-447.09 476.45,-453.82"/>
</g>
<!-- Node8 -->
<g id="node8" class="node">
<title>Node8</title>
<g id="a_node8"><a xlink:href="classquala_1_1LBFGS.html#af150290995e6bee28f5a0f057ed511c8" target="_top" xlink:title="Update the inverse Hessian approximation using the new vectors sₖ = xₖ₊₁ &#45; xₖ and yₖ = pₖ₊₁ &#45; pₖ.">
<polygon fill="white" stroke="#666666" points="443,-223.18 306,-223.18 306,-204.18 443,-204.18 443,-223.18"/>
<text text-anchor="middle" x="374.5" y="-211.18" font-family="Helvetica,sans-Serif" font-size="10.00">quala::LBFGS::update_sy</text>
</a>
</g>
</g>
<!-- Node6&#45;&gt;Node8 -->
<g id="edge9" class="edge">
<title>Node6&#45;&gt;Node8</title>
<path fill="none" stroke="#63b8ff" d="M521.25,-409.51C486.05,-362.21 407.2,-256.27 382.82,-223.51"/>
<polygon fill="#63b8ff" stroke="#63b8ff" points="518.52,-411.69 527.3,-417.62 524.13,-407.51 518.52,-411.69"/>
</g>
<!-- Node8&#45;&gt;Node5 -->
<g id="edge10" class="edge">
<title>Node8&#45;&gt;Node5</title>
<path fill="none" stroke="#63b8ff" d="M323.12,-225.63C260.53,-240.49 155,-265.54 97.6,-279.16"/>
<polygon fill="#63b8ff" stroke="#63b8ff" points="324.24,-228.97 333.16,-223.25 322.62,-222.16 324.24,-228.97"/>
</g>
<!-- Node9 -->
<g id="node9" class="node">
<title>Node9</title>
<g id="a_node9"><a xlink:href="classquala_1_1LBFGS.html#ae34a8e5e432c990eb8af2f95bcbc04bd" target="_top" xlink:title="Update the inverse Hessian approximation using the new vectors xₖ₊₁ and pₖ₊₁.">
<polygon fill="white" stroke="#666666" points="270,-222.18 149,-222.18 149,-203.18 270,-203.18 270,-222.18"/>
<text text-anchor="middle" x="209.5" y="-210.18" font-family="Helvetica,sans-Serif" font-size="10.00">quala::LBFGS::update</text>
</a>
</g>
</g>
<!-- Node8&#45;&gt;Node9 -->
<g id="edge11" class="edge">
<title>Node8&#45;&gt;Node9</title>
<path fill="none" stroke="#63b8ff" d="M295.75,-213.2C287.17,-213.15 278.52,-213.09 270.2,-213.04"/>
<polygon fill="#63b8ff" stroke="#63b8ff" points="295.77,-216.7 305.79,-213.26 295.81,-209.7 295.77,-216.7"/>
</g>
<!-- Node9&#45;&gt;Node5 -->
<g id="edge12" class="edge">
<title>Node9&#45;&gt;Node5</title>
<path fill="none" stroke="#63b8ff" d="M173.17,-226.02C165.13,-229.31 156.7,-232.96 149,-236.68 121.53,-249.95 90.96,-268.04 73.03,-279.01"/>
<polygon fill="#63b8ff" stroke="#63b8ff" points="174.71,-229.18 182.69,-222.22 172.11,-222.68 174.71,-229.18"/>
</g>
<!-- Node10&#45;&gt;Node8 -->
<g id="edge20" class="edge">
<title>Node10&#45;&gt;Node8</title>
<path fill="none" stroke="#63b8ff" d="M669.53,-250.08C630.13,-245.68 548.2,-236.4 479,-227.68 467.4,-226.21 455.07,-224.6 443.12,-223"/>
<polygon fill="#63b8ff" stroke="#63b8ff" points="669.14,-253.56 679.47,-251.18 669.92,-246.6 669.14,-253.56"/>
</g>
<!-- Node11 -->
<g id="node11" class="node">
<title>Node11</title>
<g id="a_node11"><a xlink:href="classquala_1_1LBFGS.html#acade3dc51f7ca788be9b91908b2e73ab" target="_top" xlink:title=" ">
<polygon fill="white" stroke="#666666" points="586,-337.18 493,-337.18 493,-318.18 586,-318.18 586,-337.18"/>
<text text-anchor="middle" x="539.5" y="-325.18" font-family="Helvetica,sans-Serif" font-size="10.00">quala::LBFGS::ρ</text>
</a>
</g>
</g>
<!-- Node10&#45;&gt;Node11 -->
<g id="edge14" class="edge">
<title>Node10&#45;&gt;Node11</title>
<path fill="none" stroke="#63b8ff" d="M671.53,-268.04C653.22,-280.59 625.83,-298.08 600,-309.68 592.91,-312.86 585.1,-315.67 577.54,-318.08"/>
<polygon fill="#63b8ff" stroke="#63b8ff" points="673.53,-270.91 679.74,-262.32 669.53,-265.16 673.53,-270.91"/>
</g>
<!-- Node11&#45;&gt;Node4 -->
<g id="edge15" class="edge">
<title>Node11&#45;&gt;Node4</title>
<path fill="none" stroke="#63b8ff" d="M486.57,-339.47C464.31,-344.52 438.66,-350.34 417.62,-355.12"/>
<polygon fill="#63b8ff" stroke="#63b8ff" points="487.55,-342.83 496.52,-337.21 486,-336.01 487.55,-342.83"/>
</g>
<!-- Node11&#45;&gt;Node5 -->
<g id="edge16" class="edge">
<title>Node11&#45;&gt;Node5</title>
<path fill="none" stroke="#63b8ff" d="M518.64,-343.61C500.26,-357.27 471.53,-375.93 443,-383.68 384.24,-399.63 366.52,-390.34 306,-383.68 234.94,-375.85 214.85,-376.51 149,-348.68 117.85,-335.51 85.78,-311.65 69.13,-298.33"/>
<polygon fill="#63b8ff" stroke="#63b8ff" points="520.97,-346.24 526.79,-337.38 516.72,-340.68 520.97,-346.24"/>
</g>
<!-- Node11&#45;&gt;Node8 -->
<g id="edge19" class="edge">
<title>Node11&#45;&gt;Node8</title>
<path fill="none" stroke="#63b8ff" d="M488.43,-314.39C485.17,-312.96 481.99,-311.39 479,-309.68 437.54,-285.9 399.19,-242.64 383.27,-223.38"/>
<polygon fill="#63b8ff" stroke="#63b8ff" points="487.19,-317.67 497.78,-318.07 489.75,-311.15 487.19,-317.67"/>
</g>
<!-- Node12 -->
<g id="node12" class="node">
<title>Node12</title>
<g id="a_node12"><a xlink:href="classquala_1_1LBFGS.html#adeddc1e1eb8ce1c1bbaf931b6f9a5b9c" target="_top" xlink:title="Scale the stored y vectors by the given factor.">
<polygon fill="white" stroke="#666666" points="436.5,-337.18 312.5,-337.18 312.5,-318.18 436.5,-318.18 436.5,-337.18"/>
<text text-anchor="middle" x="374.5" y="-325.18" font-family="Helvetica,sans-Serif" font-size="10.00">quala::LBFGS::scale_y</text>
</a>
</g>
</g>
<!-- Node11&#45;&gt;Node12 -->
<g id="edge17" class="edge">
<title>Node11&#45;&gt;Node12</title>
<path fill="none" stroke="#63b8ff" d="M482.61,-327.68C467.75,-327.68 451.63,-327.68 436.51,-327.68"/>
<polygon fill="#63b8ff" stroke="#63b8ff" points="482.66,-331.18 492.66,-327.68 482.66,-324.18 482.66,-331.18"/>
</g>
<!-- Node12&#45;&gt;Node5 -->
<g id="edge18" class="edge">
<title>Node12&#45;&gt;Node5</title>
<path fill="none" stroke="#63b8ff" d="M302.37,-320.51C258.17,-315.87 200.22,-309.44 149,-302.68 137.37,-301.14 124.93,-299.34 113.09,-297.56"/>
<polygon fill="#63b8ff" stroke="#63b8ff" points="302.13,-324 312.44,-321.56 302.85,-317.04 302.13,-324"/>
</g>
<!-- Node13&#45;&gt;Node5 -->
<g id="edge23" class="edge">
<title>Node13&#45;&gt;Node5</title>
<path fill="none" stroke="#63b8ff" d="M777.68,-86.45C718.78,-92.04 623.21,-99.68 540.5,-99.68 540.5,-99.68 540.5,-99.68 373.5,-99.68 271.47,-99.68 233.04,-89.82 149,-147.68 99.24,-181.93 70.13,-252.98 60.8,-278.92"/>
<polygon fill="#63b8ff" stroke="#63b8ff" points="778.26,-89.91 787.88,-85.47 777.59,-82.95 778.26,-89.91"/>
</g>
<!-- Node14 -->
<g id="node14" class="node">
<title>Node14</title>
<g id="a_node14"><a xlink:href="classquala_1_1LBFGS.html#a728dfcb0d540fc7da341b3352dbe1582" target="_top" xlink:title=" ">
<polygon fill="white" stroke="#666666" points="599,-71.18 480,-71.18 480,-52.18 599,-52.18 599,-71.18"/>
<text text-anchor="middle" x="539.5" y="-59.18" font-family="Helvetica,sans-Serif" font-size="10.00">quala::LBFGS::LBFGS</text>
</a>
</g>
</g>
<!-- Node13&#45;&gt;Node14 -->
<g id="edge22" class="edge">
<title>Node13&#45;&gt;Node14</title>
<path fill="none" stroke="#63b8ff" d="M777.51,-77.05C726.37,-73.73 651.03,-68.84 599.09,-65.48"/>
<polygon fill="#63b8ff" stroke="#63b8ff" points="777.51,-80.55 787.72,-77.71 777.97,-73.57 777.51,-80.55"/>
</g>
<!-- Node15 -->
<g id="node15" class="node">
<title>Node15</title>
<g id="a_node15"><a xlink:href="classquala_1_1LBFGS.html#abfe51417fbebd259808f86d27f1d7ec5" target="_top" xlink:title="Re&#45;allocate storage for a problem with a different size.">
<polygon fill="white" stroke="#666666" points="752,-33.18 636,-33.18 636,-14.18 752,-14.18 752,-33.18"/>
<text text-anchor="middle" x="694" y="-21.18" font-family="Helvetica,sans-Serif" font-size="10.00">quala::LBFGS::resize</text>
</a>
</g>
</g>
<!-- Node13&#45;&gt;Node15 -->
<g id="edge24" class="edge">
<title>Node13&#45;&gt;Node15</title>
<path fill="none" stroke="#63b8ff" d="M799.44,-67.29C795.58,-65.75 791.7,-64.18 788,-62.68 774.79,-57.29 740.7,-42.95 717.67,-33.25"/>
<polygon fill="#63b8ff" stroke="#63b8ff" points="798.32,-70.61 808.91,-71.05 800.91,-64.11 798.32,-70.61"/>
</g>
<!-- Node15&#45;&gt;Node5 -->
<g id="edge26" class="edge">
<title>Node15&#45;&gt;Node5</title>
<path fill="none" stroke="#63b8ff" d="M632.7,-12.55C524.31,3.9 294.3,22.16 149,-85.68 81.95,-135.44 62.91,-245.75 58.59,-279"/>
<polygon fill="#63b8ff" stroke="#63b8ff" points="632.39,-16.04 642.81,-14.13 633.47,-9.12 632.39,-16.04"/>
</g>
<!-- Node15&#45;&gt;Node14 -->
<g id="edge25" class="edge">
<title>Node15&#45;&gt;Node14</title>
<path fill="none" stroke="#63b8ff" d="M644.68,-35.72C623.38,-41.03 598.7,-47.18 578.71,-52.16"/>
<polygon fill="#63b8ff" stroke="#63b8ff" points="645.66,-39.08 654.52,-33.27 643.97,-32.29 645.66,-39.08"/>
</g>
<!-- Node16&#45;&gt;Node15 -->
<g id="edge28" class="edge">
<title>Node16&#45;&gt;Node15</title>
<path fill="none" stroke="#63b8ff" d="M801.22,-39.02C786.61,-36.91 768.9,-34.35 752.16,-31.93"/>
<polygon fill="#63b8ff" stroke="#63b8ff" points="800.85,-42.5 811.25,-40.46 801.85,-35.57 800.85,-42.5"/>
</g>
<!-- Node17&#45;&gt;Node8 -->
<g id="edge35" class="edge">
<title>Node17&#45;&gt;Node8</title>
<path fill="none" stroke="#63b8ff" d="M669.16,-179.46C621.73,-184.98 513.98,-197.54 443.03,-205.81"/>
<polygon fill="#63b8ff" stroke="#63b8ff" points="669.83,-182.9 679.36,-178.27 669.02,-175.95 669.83,-182.9"/>
</g>
<!-- Node18 -->
<g id="node18" class="node">
<title>Node18</title>
<g id="a_node18"><a xlink:href="classquala_1_1LBFGS.html#a15e4a3db39457cabe764a7737d24e73f" target="_top" xlink:title=" ">
<polygon fill="white" stroke="#666666" points="585.5,-148.18 493.5,-148.18 493.5,-129.18 585.5,-129.18 585.5,-148.18"/>
<text text-anchor="middle" x="539.5" y="-136.18" font-family="Helvetica,sans-Serif" font-size="10.00">quala::LBFGS::s</text>
</a>
</g>
</g>
<!-- Node17&#45;&gt;Node18 -->
<g id="edge30" class="edge">
<title>Node17&#45;&gt;Node18</title>
<path fill="none" stroke="#63b8ff" d="M669.74,-170.88C645.57,-164.86 607.35,-155.33 578.73,-148.2"/>
<polygon fill="#63b8ff" stroke="#63b8ff" points="668.92,-174.28 679.47,-173.31 670.61,-167.49 668.92,-174.28"/>
</g>
<!-- Node18&#45;&gt;Node4 -->
<g id="edge31" class="edge">
<title>Node18&#45;&gt;Node4</title>
<path fill="none" stroke="#63b8ff" d="M530.16,-157.41C507.62,-207.91 446.95,-343.35 443,-346.68 438.92,-350.12 434.25,-352.91 429.31,-355.17"/>
<polygon fill="#63b8ff" stroke="#63b8ff" points="533.36,-158.81 534.24,-148.25 526.97,-155.96 533.36,-158.81"/>
</g>
<!-- Node18&#45;&gt;Node5 -->
<g id="edge32" class="edge">
<title>Node18&#45;&gt;Node5</title>
<path fill="none" stroke="#63b8ff" d="M483.04,-134.32C403.56,-130.66 255.17,-133.72 149,-194.68 110.49,-216.79 77.56,-259.76 64.05,-278.98"/>
<polygon fill="#63b8ff" stroke="#63b8ff" points="483.15,-137.83 493.32,-134.84 483.51,-130.84 483.15,-137.83"/>
</g>
<!-- Node18&#45;&gt;Node8 -->
<g id="edge34" class="edge">
<title>Node18&#45;&gt;Node8</title>
<path fill="none" stroke="#63b8ff" d="M501.21,-151.98C493.69,-155.14 485.96,-158.75 479,-162.68 461.58,-172.5 460.62,-180.22 443,-189.68 432.26,-195.44 419.85,-200.31 408.62,-204.12"/>
<polygon fill="#63b8ff" stroke="#63b8ff" points="502.58,-155.2 510.55,-148.22 499.97,-148.71 502.58,-155.2"/>
</g>
<!-- Node18&#45;&gt;Node9 -->
<g id="edge33" class="edge">
<title>Node18&#45;&gt;Node9</title>
<path fill="none" stroke="#63b8ff" d="M486.3,-150.45C421.59,-165.05 312.56,-189.65 252.81,-203.13"/>
<polygon fill="#63b8ff" stroke="#63b8ff" points="487.31,-153.82 496.29,-148.2 485.77,-146.99 487.31,-153.82"/>
</g>
<!-- Node19&#45;&gt;Node8 -->
<g id="edge37" class="edge">
<title>Node19&#45;&gt;Node8</title>
<path fill="none" stroke="#63b8ff" d="M669.16,-214.6C621.73,-214.45 513.98,-214.11 443.03,-213.89"/>
<polygon fill="#63b8ff" stroke="#63b8ff" points="669.35,-218.1 679.36,-214.63 669.37,-211.1 669.35,-218.1"/>
</g>
<!-- Node20 -->
<g id="node20" class="node">
<title>Node20</title>
<g id="a_node20"><a xlink:href="classquala_1_1LBFGS.html#aebac2ec4461761a48a7284152a8217f8" target="_top" xlink:title=" ">
<polygon fill="white" stroke="#666666" points="586,-300.18 493,-300.18 493,-281.18 586,-281.18 586,-300.18"/>
<text text-anchor="middle" x="539.5" y="-288.18" font-family="Helvetica,sans-Serif" font-size="10.00">quala::LBFGS::y</text>
</a>
</g>
</g>
<!-- Node19&#45;&gt;Node20 -->
<g id="edge38" class="edge">
<title>Node19&#45;&gt;Node20</title>
<path fill="none" stroke="#63b8ff" d="M669.44,-221.81C659.01,-225.25 646.7,-229.72 636,-234.68 606,-248.58 573.21,-269.08 554.91,-281.04"/>
<polygon fill="#63b8ff" stroke="#63b8ff" points="670.65,-225.1 679.12,-218.72 668.53,-218.43 670.65,-225.1"/>
</g>
<!-- Node20&#45;&gt;Node4 -->
<g id="edge39" class="edge">
<title>Node20&#45;&gt;Node4</title>
<path fill="none" stroke="#63b8ff" d="M489.75,-304.02C486.01,-305.71 482.38,-307.59 479,-309.68 459.49,-321.75 462.8,-335.08 443,-346.68 437.14,-350.11 430.61,-352.9 423.99,-355.17"/>
<polygon fill="#63b8ff" stroke="#63b8ff" points="491.23,-307.19 499.2,-300.2 488.61,-300.7 491.23,-307.19"/>
</g>
<!-- Node20&#45;&gt;Node5 -->
<g id="edge40" class="edge">
<title>Node20&#45;&gt;Node5</title>
<path fill="none" stroke="#63b8ff" d="M482.8,-290.45C390.21,-290.06 205.67,-289.29 113.13,-288.91"/>
<polygon fill="#63b8ff" stroke="#63b8ff" points="482.8,-293.95 492.82,-290.49 482.83,-286.95 482.8,-293.95"/>
</g>
<!-- Node20&#45;&gt;Node8 -->
<g id="edge43" class="edge">
<title>Node20&#45;&gt;Node8</title>
<path fill="none" stroke="#63b8ff" d="M500.17,-277.16C492.95,-274.08 485.6,-270.55 479,-266.68 461.28,-256.28 460.93,-247.7 443,-237.68 432.58,-231.85 420.48,-227.02 409.43,-223.25"/>
<polygon fill="#63b8ff" stroke="#63b8ff" points="499.26,-280.57 509.85,-281.08 501.89,-274.08 499.26,-280.57"/>
</g>
<!-- Node20&#45;&gt;Node9 -->
<g id="edge42" class="edge">
<title>Node20&#45;&gt;Node9</title>
<path fill="none" stroke="#63b8ff" d="M488.23,-278.72C422.96,-263.2 310.34,-236.42 250.53,-222.2"/>
<polygon fill="#63b8ff" stroke="#63b8ff" points="487.74,-282.2 498.28,-281.11 489.36,-275.39 487.74,-282.2"/>
</g>
<!-- Node20&#45;&gt;Node12 -->
<g id="edge41" class="edge">
<title>Node20&#45;&gt;Node12</title>
<path fill="none" stroke="#63b8ff" d="M486.57,-302.47C464.31,-307.52 438.66,-313.34 417.62,-318.12"/>
<polygon fill="#63b8ff" stroke="#63b8ff" points="487.55,-305.83 496.52,-300.21 486,-299.01 487.55,-305.83"/>
</g>
</g>
</svg>
