<?xml version="1.0" encoding="UTF-8" standalone="no"?>
<!DOCTYPE svg PUBLIC "-//W3C//DTD SVG 1.1//EN"
 "http://www.w3.org/Graphics/SVG/1.1/DTD/svg11.dtd">
<!-- Generated by graphviz version 2.43.0 (0)
 -->
<!-- Title: LBFGSParams Pages: 1 -->
<svg width="109pt" height="215pt"
 viewBox="0.00 0.00 109.00 215.00" xmlns="http://www.w3.org/2000/svg" xmlns:xlink="http://www.w3.org/1999/xlink">
<g id="graph0" class="graph" transform="scale(1 1) rotate(0) translate(4 211)">
<title>LBFGSParams</title>
<!-- Node1 -->
<g id="node1" class="node">
<title>Node1</title>
<g id="a_node1"><a xlink:title="Parameters for the LBFGS class.">
<polygon fill="#999999" stroke="#666666" points="2.5,-0.5 2.5,-90.5 98.5,-90.5 98.5,-0.5 2.5,-0.5"/>
<text text-anchor="middle" x="50.5" y="-78.5" font-family="Helvetica,sans-Serif" font-size="10.00">LBFGSParams</text>
<polyline fill="none" stroke="#666666" points="2.5,-71.5 98.5,-71.5 "/>
<text text-anchor="start" x="10.5" y="-59.5" font-family="Helvetica,sans-Serif" font-size="10.00">+ memory</text>
<text text-anchor="start" x="10.5" y="-48.5" font-family="Helvetica,sans-Serif" font-size="10.00">+ min_div_fac</text>
<text text-anchor="start" x="10.5" y="-37.5" font-family="Helvetica,sans-Serif" font-size="10.00">+ min_abs_s</text>
<text text-anchor="start" x="10.5" y="-26.5" font-family="Helvetica,sans-Serif" font-size="10.00">+ force_pos_def</text>
<polyline fill="none" stroke="#666666" points="2.5,-19.5 98.5,-19.5 "/>
<text text-anchor="middle" x="50.5" y="-7.5" font-family="Helvetica,sans-Serif" font-size="10.00"> </text>
</a>
</g>
</g>
<!-- Node2 -->
<g id="node2" class="node">
<title>Node2</title>
<g id="a_node2"><a xlink:href="structquala_1_1LBFGSParams_1_1CBFGSParams.html" target="_top" xlink:title="Cautious BFGS update.">
<polygon fill="white" stroke="#666666" points="0,-138.5 0,-206.5 101,-206.5 101,-138.5 0,-138.5"/>
<text text-anchor="middle" x="50.5" y="-194.5" font-family="Helvetica,sans-Serif" font-size="10.00">CBFGSParams</text>
<polyline fill="none" stroke="#666666" points="0,-187.5 101,-187.5 "/>
<text text-anchor="start" x="8" y="-175.5" font-family="Helvetica,sans-Serif" font-size="10.00">+ α</text>
<text text-anchor="start" x="8" y="-164.5" font-family="Helvetica,sans-Serif" font-size="10.00">+ ϵ</text>
<polyline fill="none" stroke="#666666" points="0,-157.5 101,-157.5 "/>
<text text-anchor="start" x="8" y="-145.5" font-family="Helvetica,sans-Serif" font-size="10.00">+ operator bool()</text>
</a>
</g>
</g>
<!-- Node2&#45;&gt;Node1 -->
<g id="edge1" class="edge">
<title>Node2&#45;&gt;Node1</title>
<path fill="none" stroke="#404040" d="M50.5,-138.33C50.5,-127.37 50.5,-114.86 50.5,-102.67"/>
<polygon fill="none" stroke="#404040" points="50.5,-102.66 46.5,-96.66 50.5,-90.66 54.5,-96.66 50.5,-102.66"/>
<text text-anchor="middle" x="69.5" y="-112" font-family="Helvetica,sans-Serif" font-size="10.00"> +cbfgs</text>
</g>
</g>
</svg>
