<?xml version="1.0" encoding="UTF-8" standalone="no"?>
<!DOCTYPE svg PUBLIC "-//W3C//DTD SVG 1.1//EN"
 "http://www.w3.org/Graphics/SVG/1.1/DTD/svg11.dtd">
<!-- Generated by graphviz version 2.43.0 (0)
 -->
<!-- Title: begin Pages: 1 -->
<svg width="359pt" height="98pt"
 viewBox="0.00 0.00 359.00 97.50" xmlns="http://www.w3.org/2000/svg" xmlns:xlink="http://www.w3.org/1999/xlink">
<g id="graph0" class="graph" transform="scale(1 1) rotate(0) translate(4 93.5)">
<title>begin</title>
<!-- Node1 -->
<g id="node1" class="node">
<title>Node1</title>
<g id="a_node1"><a xlink:title=" ">
<polygon fill="#999999" stroke="#666666" points="351,-51.5 307,-51.5 307,-32.5 351,-32.5 351,-51.5"/>
<text text-anchor="middle" x="329" y="-39.5" font-family="Helvetica,sans-Serif" font-size="10.00">begin</text>
</a>
</g>
</g>
<!-- Node2 -->
<g id="node2" class="node">
<title>Node2</title>
<g id="a_node2"><a xlink:href="classquala_1_1vec__allocator.html#a455bb0797853d67addd58875c671acef" target="_top" xlink:title=" ">
<polygon fill="white" stroke="#666666" points="271,-57 156,-57 156,-27 271,-27 271,-57"/>
<text text-anchor="start" x="164" y="-45" font-family="Helvetica,sans-Serif" font-size="10.00">quala::vec_allocator</text>
<text text-anchor="middle" x="213.5" y="-34" font-family="Helvetica,sans-Serif" font-size="10.00">::free</text>
</a>
</g>
</g>
<!-- Node1&#45;&gt;Node2 -->
<g id="edge1" class="edge">
<title>Node1&#45;&gt;Node2</title>
<path fill="none" stroke="#63b8ff" d="M296.75,-42C288.86,-42 280.14,-42 271.42,-42"/>
<polygon fill="#63b8ff" stroke="#63b8ff" points="296.92,-45.5 306.92,-42 296.92,-38.5 296.92,-45.5"/>
</g>
<!-- Node3 -->
<g id="node3" class="node">
<title>Node3</title>
<g id="a_node3"><a xlink:href="structquala_1_1vec__allocator_1_1alloc__raii__wrapper.html#a18452e09f909587d1d3c035ca0d82095" target="_top" xlink:title=" ">
<polygon fill="white" stroke="#666666" points="120,-89.5 0,-89.5 0,-48.5 120,-48.5 120,-89.5"/>
<text text-anchor="start" x="8" y="-77.5" font-family="Helvetica,sans-Serif" font-size="10.00">quala::vec_allocator</text>
<text text-anchor="start" x="8" y="-66.5" font-family="Helvetica,sans-Serif" font-size="10.00">::alloc_raii_wrapper</text>
<text text-anchor="middle" x="60" y="-55.5" font-family="Helvetica,sans-Serif" font-size="10.00">::~alloc_raii_wrapper</text>
</a>
</g>
</g>
<!-- Node2&#45;&gt;Node3 -->
<g id="edge2" class="edge">
<title>Node2&#45;&gt;Node3</title>
<path fill="none" stroke="#63b8ff" d="M145.76,-53.89C137.24,-55.41 128.57,-56.96 120.19,-58.45"/>
<polygon fill="#63b8ff" stroke="#63b8ff" points="146.43,-57.33 155.66,-52.13 145.2,-50.44 146.43,-57.33"/>
</g>
<!-- Node4 -->
<g id="node4" class="node">
<title>Node4</title>
<g id="a_node4"><a xlink:href="classquala_1_1vec__allocator.html#a821eae82738cb75c706967da497d3181" target="_top" xlink:title=" ">
<polygon fill="white" stroke="#666666" points="117.5,-30 2.5,-30 2.5,0 117.5,0 117.5,-30"/>
<text text-anchor="start" x="10.5" y="-18" font-family="Helvetica,sans-Serif" font-size="10.00">quala::vec_allocator</text>
<text text-anchor="middle" x="60" y="-7" font-family="Helvetica,sans-Serif" font-size="10.00">::free</text>
</a>
</g>
</g>
<!-- Node2&#45;&gt;Node4 -->
<g id="edge3" class="edge">
<title>Node2&#45;&gt;Node4</title>
<path fill="none" stroke="#63b8ff" d="M145.63,-30.08C136.29,-28.42 126.78,-26.72 117.66,-25.1"/>
<polygon fill="#63b8ff" stroke="#63b8ff" points="145.2,-33.56 155.66,-31.87 146.43,-26.67 145.2,-33.56"/>
</g>
</g>
</svg>
