<?xml version="1.0" encoding="UTF-8" standalone="no"?>
<!DOCTYPE svg PUBLIC "-//W3C//DTD SVG 1.1//EN"
 "http://www.w3.org/Graphics/SVG/1.1/DTD/svg11.dtd">
<!-- Generated by graphviz version 2.43.0 (0)
 -->
<!-- Title: ρ Pages: 1 -->
<svg width="645pt" height="179pt"
 viewBox="0.00 0.00 645.00 179.00" xmlns="http://www.w3.org/2000/svg" xmlns:xlink="http://www.w3.org/1999/xlink">
<g id="graph0" class="graph" transform="scale(1 1) rotate(0) translate(4 175)">
<title>ρ</title>
<!-- Node1 -->
<g id="node1" class="node">
<title>Node1</title>
<g id="a_node1"><a xlink:title=" ">
<polygon fill="#999999" stroke="#666666" points="637,-76 608,-76 608,-57 637,-57 637,-76"/>
<text text-anchor="middle" x="622.5" y="-64" font-family="Helvetica,sans-Serif" font-size="10.00">ρ</text>
</a>
</g>
</g>
<!-- Node2 -->
<g id="node2" class="node">
<title>Node2</title>
<g id="a_node2"><a xlink:href="classquala_1_1LBFGS.html#acade3dc51f7ca788be9b91908b2e73ab" target="_top" xlink:title=" ">
<polygon fill="white" stroke="#666666" points="572,-95 479,-95 479,-76 572,-76 572,-95"/>
<text text-anchor="middle" x="525.5" y="-83" font-family="Helvetica,sans-Serif" font-size="10.00">quala::LBFGS::ρ</text>
</a>
</g>
</g>
<!-- Node1&#45;&gt;Node2 -->
<g id="edge1" class="edge">
<title>Node1&#45;&gt;Node2</title>
<path fill="none" stroke="#63b8ff" d="M598.07,-71.19C590.24,-72.75 581.22,-74.56 572.29,-76.34"/>
<polygon fill="#63b8ff" stroke="#63b8ff" points="598.77,-74.62 607.89,-69.22 597.4,-67.75 598.77,-74.62"/>
</g>
<!-- Node6 -->
<g id="node6" class="node">
<title>Node6</title>
<g id="a_node6"><a xlink:href="classquala_1_1LBFGS.html#af150290995e6bee28f5a0f057ed511c8" target="_top" xlink:title="Update the inverse Hessian approximation using the new vectors sₖ = xₖ₊₁ &#45; xₖ and yₖ = pₖ₊₁ &#45; pₖ.">
<polygon fill="white" stroke="#666666" points="443,-57 306,-57 306,-38 443,-38 443,-57"/>
<text text-anchor="middle" x="374.5" y="-45" font-family="Helvetica,sans-Serif" font-size="10.00">quala::LBFGS::update_sy</text>
</a>
</g>
</g>
<!-- Node1&#45;&gt;Node6 -->
<g id="edge11" class="edge">
<title>Node1&#45;&gt;Node6</title>
<path fill="none" stroke="#63b8ff" d="M597.63,-64.66C562.25,-61.92 494.54,-56.69 443.13,-52.72"/>
<polygon fill="#63b8ff" stroke="#63b8ff" points="597.68,-68.17 607.92,-65.45 598.22,-61.19 597.68,-68.17"/>
</g>
<!-- Node3 -->
<g id="node3" class="node">
<title>Node3</title>
<g id="a_node3"><a xlink:href="classquala_1_1LBFGS.html#a9ae2b583badddda6ec2917bb565688c3" target="_top" xlink:title="Apply the inverse Hessian approximation to the given vector q.">
<polygon fill="white" stroke="#666666" points="266.5,-171 152.5,-171 152.5,-152 266.5,-152 266.5,-171"/>
<text text-anchor="middle" x="209.5" y="-159" font-family="Helvetica,sans-Serif" font-size="10.00">quala::LBFGS::apply</text>
</a>
</g>
</g>
<!-- Node2&#45;&gt;Node3 -->
<g id="edge2" class="edge">
<title>Node2&#45;&gt;Node3</title>
<path fill="none" stroke="#63b8ff" d="M505.37,-101.38C489.65,-113.48 466.27,-129.39 443,-137.5 385.14,-157.67 314.65,-162.39 266.55,-162.88"/>
<polygon fill="#63b8ff" stroke="#63b8ff" points="507.6,-104.08 513.26,-95.13 503.25,-98.6 507.6,-104.08"/>
</g>
<!-- Node4 -->
<g id="node4" class="node">
<title>Node4</title>
<g id="a_node4"><a xlink:href="quala_8py_8cpp.html#a12fb4e87da488d1fc7c6fa3e6a3adb90" target="_top" xlink:title=" ">
<polygon fill="white" stroke="#666666" points="113,-95 0,-95 0,-76 113,-76 113,-95"/>
<text text-anchor="middle" x="56.5" y="-83" font-family="Helvetica,sans-Serif" font-size="10.00">PYBIND11_MODULE</text>
</a>
</g>
</g>
<!-- Node2&#45;&gt;Node4 -->
<g id="edge4" class="edge">
<title>Node2&#45;&gt;Node4</title>
<path fill="none" stroke="#63b8ff" d="M481.47,-97.47C469.15,-100.37 455.63,-103.05 443,-104.5 313.17,-119.43 279.13,-111.48 149,-99.5 137.16,-98.41 124.52,-96.78 112.53,-95.01"/>
<polygon fill="#63b8ff" stroke="#63b8ff" points="482.62,-100.79 491.49,-95.01 480.95,-93.99 482.62,-100.79"/>
</g>
<!-- Node5 -->
<g id="node5" class="node">
<title>Node5</title>
<g id="a_node5"><a xlink:href="classquala_1_1LBFGS.html#adeddc1e1eb8ce1c1bbaf931b6f9a5b9c" target="_top" xlink:title="Scale the stored y vectors by the given factor.">
<polygon fill="white" stroke="#666666" points="436.5,-95 312.5,-95 312.5,-76 436.5,-76 436.5,-95"/>
<text text-anchor="middle" x="374.5" y="-83" font-family="Helvetica,sans-Serif" font-size="10.00">quala::LBFGS::scale_y</text>
</a>
</g>
</g>
<!-- Node2&#45;&gt;Node5 -->
<g id="edge5" class="edge">
<title>Node2&#45;&gt;Node5</title>
<path fill="none" stroke="#63b8ff" d="M468.73,-85.5C458.27,-85.5 447.27,-85.5 436.65,-85.5"/>
<polygon fill="#63b8ff" stroke="#63b8ff" points="468.99,-89 478.99,-85.5 468.99,-82 468.99,-89"/>
</g>
<!-- Node2&#45;&gt;Node6 -->
<g id="edge7" class="edge">
<title>Node2&#45;&gt;Node6</title>
<path fill="none" stroke="#63b8ff" d="M477.01,-73.39C456.26,-68.1 432.27,-61.98 412.83,-57.02"/>
<polygon fill="#63b8ff" stroke="#63b8ff" points="476.35,-76.83 486.9,-75.91 478.08,-70.05 476.35,-76.83"/>
</g>
<!-- Node3&#45;&gt;Node4 -->
<g id="edge3" class="edge">
<title>Node3&#45;&gt;Node4</title>
<path fill="none" stroke="#63b8ff" d="M173.17,-148.15C165.13,-144.87 156.7,-141.22 149,-137.5 121.53,-124.23 90.96,-106.14 73.03,-95.17"/>
<polygon fill="#63b8ff" stroke="#63b8ff" points="172.11,-151.5 182.69,-151.96 174.71,-145 172.11,-151.5"/>
</g>
<!-- Node5&#45;&gt;Node4 -->
<g id="edge6" class="edge">
<title>Node5&#45;&gt;Node4</title>
<path fill="none" stroke="#63b8ff" d="M302.13,-85.5C244.89,-85.5 165.67,-85.5 113.08,-85.5"/>
<polygon fill="#63b8ff" stroke="#63b8ff" points="302.2,-89 312.2,-85.5 302.2,-82 302.2,-89"/>
</g>
<!-- Node6&#45;&gt;Node4 -->
<g id="edge8" class="edge">
<title>Node6&#45;&gt;Node4</title>
<path fill="none" stroke="#63b8ff" d="M295.72,-56.85C239.08,-63.66 163.73,-72.73 113.07,-78.82"/>
<polygon fill="#63b8ff" stroke="#63b8ff" points="296.2,-60.32 305.71,-55.65 295.36,-53.37 296.2,-60.32"/>
</g>
<!-- Node7 -->
<g id="node7" class="node">
<title>Node7</title>
<g id="a_node7"><a xlink:href="classquala_1_1LBFGS.html#ae34a8e5e432c990eb8af2f95bcbc04bd" target="_top" xlink:title="Update the inverse Hessian approximation using the new vectors xₖ₊₁ and pₖ₊₁.">
<polygon fill="white" stroke="#666666" points="270,-19 149,-19 149,0 270,0 270,-19"/>
<text text-anchor="middle" x="209.5" y="-7" font-family="Helvetica,sans-Serif" font-size="10.00">quala::LBFGS::update</text>
</a>
</g>
</g>
<!-- Node6&#45;&gt;Node7 -->
<g id="edge9" class="edge">
<title>Node6&#45;&gt;Node7</title>
<path fill="none" stroke="#63b8ff" d="M322.47,-35.6C299.56,-30.26 272.9,-24.05 251.34,-19.02"/>
<polygon fill="#63b8ff" stroke="#63b8ff" points="321.83,-39.05 332.37,-37.91 323.42,-32.23 321.83,-39.05"/>
</g>
<!-- Node7&#45;&gt;Node4 -->
<g id="edge10" class="edge">
<title>Node7&#45;&gt;Node4</title>
<path fill="none" stroke="#63b8ff" d="M173.17,-22.85C165.13,-26.13 156.7,-29.78 149,-33.5 121.53,-46.77 90.96,-64.86 73.03,-75.83"/>
<polygon fill="#63b8ff" stroke="#63b8ff" points="174.71,-26 182.69,-19.04 172.11,-19.5 174.71,-26"/>
</g>
</g>
</svg>
