<?xml version="1.0" encoding="UTF-8" standalone="no"?>
<!DOCTYPE svg PUBLIC "-//W3C//DTD SVG 1.1//EN"
 "http://www.w3.org/Graphics/SVG/1.1/DTD/svg11.dtd">
<!-- Generated by graphviz version 2.43.0 (0)
 -->
<!-- Title: history Pages: 1 -->
<svg width="666pt" height="296pt"
 viewBox="0.00 0.00 666.00 296.11" xmlns="http://www.w3.org/2000/svg" xmlns:xlink="http://www.w3.org/1999/xlink">
<g id="graph0" class="graph" transform="scale(1 1) rotate(0) translate(4 292.11)">
<title>history</title>
<!-- Node1 -->
<g id="node1" class="node">
<title>Node1</title>
<g id="a_node1"><a xlink:title="Get the number of previous vectors s and s̃ stored in the buffer.">
<polygon fill="#999999" stroke="#666666" points="658,-168.5 608,-168.5 608,-149.5 658,-149.5 658,-168.5"/>
<text text-anchor="middle" x="633" y="-156.5" font-family="Helvetica,sans-Serif" font-size="10.00">history</text>
</a>
</g>
</g>
<!-- Node2 -->
<g id="node2" class="node">
<title>Node2</title>
<g id="a_node2"><a xlink:href="classquala_1_1BroydenGood.html#a9cf7dcccbc3bc69a10833450ee79c623" target="_top" xlink:title="Get the number of previous vectors s and y stored in the buffer.">
<polygon fill="white" stroke="#666666" points="572,-174 456,-174 456,-144 572,-144 572,-174"/>
<text text-anchor="start" x="464" y="-162" font-family="Helvetica,sans-Serif" font-size="10.00">quala::BroydenGood</text>
<text text-anchor="middle" x="514" y="-151" font-family="Helvetica,sans-Serif" font-size="10.00">::history</text>
</a>
</g>
</g>
<!-- Node1&#45;&gt;Node2 -->
<g id="edge1" class="edge">
<title>Node1&#45;&gt;Node2</title>
<path fill="none" stroke="#63b8ff" d="M597.65,-159C589.59,-159 580.79,-159 572.03,-159"/>
<polygon fill="#63b8ff" stroke="#63b8ff" points="597.76,-162.5 607.76,-159 597.76,-155.5 597.76,-162.5"/>
</g>
<!-- Node12 -->
<g id="node12" class="node">
<title>Node12</title>
<g id="a_node12"><a xlink:href="structquala_1_1BroydenStorage.html#a48072fa680a2364d8ce96eb84a5d5689" target="_top" xlink:title="Re&#45;allocate storage for a problem with a different size.">
<polygon fill="white" stroke="#666666" points="537,-75.5 491,-75.5 491,-56.5 537,-56.5 537,-75.5"/>
<text text-anchor="middle" x="514" y="-63.5" font-family="Helvetica,sans-Serif" font-size="10.00">resize</text>
</a>
</g>
</g>
<!-- Node1&#45;&gt;Node12 -->
<g id="edge12" class="edge">
<title>Node1&#45;&gt;Node12</title>
<path fill="none" stroke="#63b8ff" d="M612.04,-143.13C587.7,-123.78 547.32,-91.69 527.19,-75.69"/>
<polygon fill="#63b8ff" stroke="#63b8ff" points="609.91,-145.92 619.92,-149.4 614.27,-140.44 609.91,-145.92"/>
</g>
<!-- Node15 -->
<g id="node15" class="node">
<title>Node15</title>
<g id="a_node15"><a xlink:href="structquala_1_1BroydenStorage.html#a1f39e0321f095347878b8e231abaa2bb" target="_top" xlink:title=" ">
<polygon fill="white" stroke="#666666" points="534.5,-259.5 493.5,-259.5 493.5,-240.5 534.5,-240.5 534.5,-259.5"/>
<text text-anchor="middle" x="514" y="-247.5" font-family="Helvetica,sans-Serif" font-size="10.00">work</text>
</a>
</g>
</g>
<!-- Node1&#45;&gt;Node15 -->
<g id="edge16" class="edge">
<title>Node1&#45;&gt;Node15</title>
<path fill="none" stroke="#63b8ff" d="M611.27,-175.12C586.96,-194.03 547.43,-224.78 527.43,-240.33"/>
<polygon fill="#63b8ff" stroke="#63b8ff" points="613.73,-177.64 619.48,-168.74 609.44,-172.12 613.73,-177.64"/>
</g>
<!-- Node3 -->
<g id="node3" class="node">
<title>Node3</title>
<g id="a_node3"><a xlink:href="classquala_1_1BroydenGood.html#a3c6a2dbecc0d6f8cd90bef088c46b072" target="_top" xlink:title="Get the number of previous s and y vectors currently stored in the buffer.">
<polygon fill="white" stroke="#666666" points="420,-78 304,-78 304,-48 420,-48 420,-78"/>
<text text-anchor="start" x="312" y="-66" font-family="Helvetica,sans-Serif" font-size="10.00">quala::BroydenGood</text>
<text text-anchor="middle" x="362" y="-55" font-family="Helvetica,sans-Serif" font-size="10.00">::current_history</text>
</a>
</g>
</g>
<!-- Node2&#45;&gt;Node3 -->
<g id="edge2" class="edge">
<title>Node2&#45;&gt;Node3</title>
<path fill="none" stroke="#63b8ff" d="M488.41,-137.09C470.36,-121.74 444.77,-101.47 420,-87 414.53,-83.8 408.55,-80.81 402.59,-78.09"/>
<polygon fill="#63b8ff" stroke="#63b8ff" points="486.29,-139.88 496.14,-143.75 490.86,-134.57 486.29,-139.88"/>
</g>
<!-- Node5 -->
<g id="node5" class="node">
<title>Node5</title>
<g id="a_node5"><a xlink:href="classquala_1_1BroydenGood.html#aa871b5290773b86e2e4919bbac258a04" target="_top" xlink:title="Iterate over the indices in the history buffer, oldest first.">
<polygon fill="white" stroke="#666666" points="420,-174 304,-174 304,-144 420,-144 420,-174"/>
<text text-anchor="start" x="312" y="-162" font-family="Helvetica,sans-Serif" font-size="10.00">quala::BroydenGood</text>
<text text-anchor="middle" x="362" y="-151" font-family="Helvetica,sans-Serif" font-size="10.00">::foreach_fwd</text>
</a>
</g>
</g>
<!-- Node2&#45;&gt;Node5 -->
<g id="edge4" class="edge">
<title>Node2&#45;&gt;Node5</title>
<path fill="none" stroke="#63b8ff" d="M445.69,-159C437.27,-159 428.72,-159 420.47,-159"/>
<polygon fill="#63b8ff" stroke="#63b8ff" points="445.86,-162.5 455.86,-159 445.86,-155.5 445.86,-162.5"/>
</g>
<!-- Node9 -->
<g id="node9" class="node">
<title>Node9</title>
<g id="a_node9"><a xlink:href="classquala_1_1BroydenGood.html#a0804b751cf2035a35f24762474f62cbf" target="_top" xlink:title="Iterate over the indices in the history buffer, newest first.">
<polygon fill="white" stroke="#666666" points="420,-126 304,-126 304,-96 420,-96 420,-126"/>
<text text-anchor="start" x="312" y="-114" font-family="Helvetica,sans-Serif" font-size="10.00">quala::BroydenGood</text>
<text text-anchor="middle" x="362" y="-103" font-family="Helvetica,sans-Serif" font-size="10.00">::foreach_rev</text>
</a>
</g>
</g>
<!-- Node2&#45;&gt;Node9 -->
<g id="edge8" class="edge">
<title>Node2&#45;&gt;Node9</title>
<path fill="none" stroke="#63b8ff" d="M456.11,-140.79C440.85,-135.91 424.53,-130.69 409.88,-126"/>
<polygon fill="#63b8ff" stroke="#63b8ff" points="455.36,-144.23 465.95,-143.94 457.49,-137.56 455.36,-144.23"/>
</g>
<!-- Node10 -->
<g id="node10" class="node">
<title>Node10</title>
<g id="a_node10"><a xlink:href="classquala_1_1BroydenGood.html#a71f7f5e949a948d578ae6f145e4c4914" target="_top" xlink:title="Get the previous index in the circular buffer of s and y vectors.">
<polygon fill="white" stroke="#666666" points="420,-270 304,-270 304,-240 420,-240 420,-270"/>
<text text-anchor="start" x="312" y="-258" font-family="Helvetica,sans-Serif" font-size="10.00">quala::BroydenGood</text>
<text text-anchor="middle" x="362" y="-247" font-family="Helvetica,sans-Serif" font-size="10.00">::pred</text>
</a>
</g>
</g>
<!-- Node2&#45;&gt;Node10 -->
<g id="edge9" class="edge">
<title>Node2&#45;&gt;Node10</title>
<path fill="none" stroke="#63b8ff" d="M488.41,-180.91C470.36,-196.26 444.77,-216.53 420,-231 414.53,-234.2 408.55,-237.19 402.59,-239.91"/>
<polygon fill="#63b8ff" stroke="#63b8ff" points="490.86,-183.43 496.14,-174.25 486.29,-178.12 490.86,-183.43"/>
</g>
<!-- Node11 -->
<g id="node11" class="node">
<title>Node11</title>
<g id="a_node11"><a xlink:href="classquala_1_1BroydenGood.html#a70926baed7362e4fcce66523bb8e2842" target="_top" xlink:title="Get the next index in the circular buffer of previous s and y vectors.">
<polygon fill="white" stroke="#666666" points="420,-222 304,-222 304,-192 420,-192 420,-222"/>
<text text-anchor="start" x="312" y="-210" font-family="Helvetica,sans-Serif" font-size="10.00">quala::BroydenGood</text>
<text text-anchor="middle" x="362" y="-199" font-family="Helvetica,sans-Serif" font-size="10.00">::succ</text>
</a>
</g>
</g>
<!-- Node2&#45;&gt;Node11 -->
<g id="edge10" class="edge">
<title>Node2&#45;&gt;Node11</title>
<path fill="none" stroke="#63b8ff" d="M456.11,-177.21C440.85,-182.09 424.53,-187.31 409.88,-192"/>
<polygon fill="#63b8ff" stroke="#63b8ff" points="457.49,-180.44 465.95,-174.06 455.36,-173.77 457.49,-180.44"/>
</g>
<!-- Node4 -->
<g id="node4" class="node">
<title>Node4</title>
<g id="a_node4"><a xlink:href="quala_8py_8cpp.html#a12fb4e87da488d1fc7c6fa3e6a3adb90" target="_top" xlink:title=" ">
<polygon fill="white" stroke="#666666" points="266.5,-70.5 153.5,-70.5 153.5,-51.5 266.5,-51.5 266.5,-70.5"/>
<text text-anchor="middle" x="210" y="-58.5" font-family="Helvetica,sans-Serif" font-size="10.00">PYBIND11_MODULE</text>
</a>
</g>
</g>
<!-- Node3&#45;&gt;Node4 -->
<g id="edge3" class="edge">
<title>Node3&#45;&gt;Node4</title>
<path fill="none" stroke="#63b8ff" d="M293.83,-62.1C284.86,-61.98 275.74,-61.86 266.99,-61.75"/>
<polygon fill="#63b8ff" stroke="#63b8ff" points="293.82,-65.6 303.86,-62.24 293.91,-58.61 293.82,-65.6"/>
</g>
<!-- Node6 -->
<g id="node6" class="node">
<title>Node6</title>
<g id="a_node6"><a xlink:href="classquala_1_1BroydenGood.html#af3b5886c46c3f50fae33990afcc47f12" target="_top" xlink:title="Apply the inverse Jacobian approximation to the given vector q, i.e.">
<polygon fill="white" stroke="#666666" points="268,-174 152,-174 152,-144 268,-144 268,-174"/>
<text text-anchor="start" x="160" y="-162" font-family="Helvetica,sans-Serif" font-size="10.00">quala::BroydenGood</text>
<text text-anchor="middle" x="210" y="-151" font-family="Helvetica,sans-Serif" font-size="10.00">::apply</text>
</a>
</g>
</g>
<!-- Node5&#45;&gt;Node6 -->
<g id="edge5" class="edge">
<title>Node5&#45;&gt;Node6</title>
<path fill="none" stroke="#63b8ff" d="M293.69,-159C285.27,-159 276.72,-159 268.47,-159"/>
<polygon fill="#63b8ff" stroke="#63b8ff" points="293.86,-162.5 303.86,-159 293.86,-155.5 293.86,-162.5"/>
</g>
<!-- Node7 -->
<g id="node7" class="node">
<title>Node7</title>
<g id="a_node7"><a xlink:href="classquala_1_1BroydenGood.html#ad2320a49a7db3abb42d0c621a6a932bd" target="_top" xlink:title="Update the inverse Jacobian approximation using the new vectors sₖ = xₖ₊₁ &#45; xₖ and yₖ = pₖ₊₁ &#45; pₖ.">
<polygon fill="white" stroke="#666666" points="268,-222 152,-222 152,-192 268,-192 268,-222"/>
<text text-anchor="start" x="160" y="-210" font-family="Helvetica,sans-Serif" font-size="10.00">quala::BroydenGood</text>
<text text-anchor="middle" x="210" y="-199" font-family="Helvetica,sans-Serif" font-size="10.00">::update_sy</text>
</a>
</g>
</g>
<!-- Node5&#45;&gt;Node7 -->
<g id="edge6" class="edge">
<title>Node5&#45;&gt;Node7</title>
<path fill="none" stroke="#63b8ff" d="M304.11,-177.21C288.85,-182.09 272.53,-187.31 257.88,-192"/>
<polygon fill="#63b8ff" stroke="#63b8ff" points="305.49,-180.44 313.95,-174.06 303.36,-173.77 305.49,-180.44"/>
</g>
<!-- Node8 -->
<g id="node8" class="node">
<title>Node8</title>
<g id="a_node8"><a xlink:href="classquala_1_1BroydenGood.html#a306b71b9ba3fa871a4cad408f946b5a7" target="_top" xlink:title="Update the inverse Jacobian approximation using the new vectors xₖ₊₁ and pₖ₊₁.">
<polygon fill="white" stroke="#666666" points="116,-222 0,-222 0,-192 116,-192 116,-222"/>
<text text-anchor="start" x="8" y="-210" font-family="Helvetica,sans-Serif" font-size="10.00">quala::BroydenGood</text>
<text text-anchor="middle" x="58" y="-199" font-family="Helvetica,sans-Serif" font-size="10.00">::update</text>
</a>
</g>
</g>
<!-- Node7&#45;&gt;Node8 -->
<g id="edge7" class="edge">
<title>Node7&#45;&gt;Node8</title>
<path fill="none" stroke="#63b8ff" d="M141.69,-207C133.27,-207 124.72,-207 116.47,-207"/>
<polygon fill="#63b8ff" stroke="#63b8ff" points="141.86,-210.5 151.86,-207 141.86,-203.5 141.86,-210.5"/>
</g>
<!-- Node11&#45;&gt;Node7 -->
<g id="edge11" class="edge">
<title>Node11&#45;&gt;Node7</title>
<path fill="none" stroke="#63b8ff" d="M293.69,-207C285.27,-207 276.72,-207 268.47,-207"/>
<polygon fill="#63b8ff" stroke="#63b8ff" points="293.86,-210.5 303.86,-207 293.86,-203.5 293.86,-210.5"/>
</g>
<!-- Node13 -->
<g id="node13" class="node">
<title>Node13</title>
<g id="a_node13"><a xlink:href="classquala_1_1BroydenGood.html#abfe51417fbebd259808f86d27f1d7ec5" target="_top" xlink:title="Re&#45;allocate storage for a problem with a different size.">
<polygon fill="white" stroke="#666666" points="420,-30 304,-30 304,0 420,0 420,-30"/>
<text text-anchor="start" x="312" y="-18" font-family="Helvetica,sans-Serif" font-size="10.00">quala::BroydenGood</text>
<text text-anchor="middle" x="362" y="-7" font-family="Helvetica,sans-Serif" font-size="10.00">::resize</text>
</a>
</g>
</g>
<!-- Node12&#45;&gt;Node13 -->
<g id="edge13" class="edge">
<title>Node12&#45;&gt;Node13</title>
<path fill="none" stroke="#63b8ff" d="M481.24,-55.2C459.72,-47.89 431,-38.12 407.25,-30.05"/>
<polygon fill="#63b8ff" stroke="#63b8ff" points="480.27,-58.57 490.87,-58.47 482.53,-51.94 480.27,-58.57"/>
</g>
<!-- Node13&#45;&gt;Node4 -->
<g id="edge15" class="edge">
<title>Node13&#45;&gt;Node4</title>
<path fill="none" stroke="#63b8ff" d="M302.31,-33C281.84,-39.28 259.67,-46.08 242.3,-51.4"/>
<polygon fill="#63b8ff" stroke="#63b8ff" points="303.35,-36.34 311.88,-30.06 301.3,-29.65 303.35,-36.34"/>
</g>
<!-- Node14 -->
<g id="node14" class="node">
<title>Node14</title>
<g id="a_node14"><a xlink:href="classquala_1_1BroydenGood.html#af204bb3e018606122259767df4348cef" target="_top" xlink:title=" ">
<polygon fill="white" stroke="#666666" points="268,-30 152,-30 152,0 268,0 268,-30"/>
<text text-anchor="start" x="160" y="-18" font-family="Helvetica,sans-Serif" font-size="10.00">quala::BroydenGood</text>
<text text-anchor="middle" x="210" y="-7" font-family="Helvetica,sans-Serif" font-size="10.00">::BroydenGood</text>
</a>
</g>
</g>
<!-- Node13&#45;&gt;Node14 -->
<g id="edge14" class="edge">
<title>Node13&#45;&gt;Node14</title>
<path fill="none" stroke="#63b8ff" d="M293.69,-15C285.27,-15 276.72,-15 268.47,-15"/>
<polygon fill="#63b8ff" stroke="#63b8ff" points="293.86,-18.5 303.86,-15 293.86,-11.5 293.86,-18.5"/>
</g>
<!-- Node15&#45;&gt;Node7 -->
<g id="edge17" class="edge">
<title>Node15&#45;&gt;Node7</title>
<path fill="none" stroke="#63b8ff" d="M484.01,-262.23C442.9,-277.76 365.8,-300.13 304,-279 271.15,-267.77 240.92,-239.71 224.31,-222.12"/>
<polygon fill="#63b8ff" stroke="#63b8ff" points="485.37,-265.46 493.41,-258.56 482.82,-258.94 485.37,-265.46"/>
</g>
</g>
</svg>
