<?xml version="1.0" encoding="UTF-8" standalone="no"?>
<!DOCTYPE svg PUBLIC "-//W3C//DTD SVG 1.1//EN"
 "http://www.w3.org/Graphics/SVG/1.1/DTD/svg11.dtd">
<!-- Generated by graphviz version 2.43.0 (0)
 -->
<!-- Title: work Pages: 1 -->
<svg width="353pt" height="38pt"
 viewBox="0.00 0.00 353.00 38.00" xmlns="http://www.w3.org/2000/svg" xmlns:xlink="http://www.w3.org/1999/xlink">
<g id="graph0" class="graph" transform="scale(1 1) rotate(0) translate(4 34)">
<title>work</title>
<!-- Node1 -->
<g id="node1" class="node">
<title>Node1</title>
<g id="a_node1"><a xlink:title=" ">
<polygon fill="#999999" stroke="#666666" points="345,-24.5 304,-24.5 304,-5.5 345,-5.5 345,-24.5"/>
<text text-anchor="middle" x="324.5" y="-12.5" font-family="Helvetica,sans-Serif" font-size="10.00">work</text>
</a>
</g>
</g>
<!-- Node2 -->
<g id="node2" class="node">
<title>Node2</title>
<g id="a_node2"><a xlink:href="classquala_1_1BroydenGood.html#ad2320a49a7db3abb42d0c621a6a932bd" target="_top" xlink:title="Update the inverse Jacobian approximation using the new vectors sₖ = xₖ₊₁ &#45; xₖ and yₖ = pₖ₊₁ &#45; pₖ.">
<polygon fill="white" stroke="#666666" points="268,-30 152,-30 152,0 268,0 268,-30"/>
<text text-anchor="start" x="160" y="-18" font-family="Helvetica,sans-Serif" font-size="10.00">quala::BroydenGood</text>
<text text-anchor="middle" x="210" y="-7" font-family="Helvetica,sans-Serif" font-size="10.00">::update_sy</text>
</a>
</g>
</g>
<!-- Node1&#45;&gt;Node2 -->
<g id="edge1" class="edge">
<title>Node1&#45;&gt;Node2</title>
<path fill="none" stroke="#63b8ff" d="M293.73,-15C285.79,-15 276.95,-15 268.07,-15"/>
<polygon fill="#63b8ff" stroke="#63b8ff" points="293.9,-18.5 303.9,-15 293.9,-11.5 293.9,-18.5"/>
</g>
<!-- Node3 -->
<g id="node3" class="node">
<title>Node3</title>
<g id="a_node3"><a xlink:href="classquala_1_1BroydenGood.html#a306b71b9ba3fa871a4cad408f946b5a7" target="_top" xlink:title="Update the inverse Jacobian approximation using the new vectors xₖ₊₁ and pₖ₊₁.">
<polygon fill="white" stroke="#666666" points="116,-30 0,-30 0,0 116,0 116,-30"/>
<text text-anchor="start" x="8" y="-18" font-family="Helvetica,sans-Serif" font-size="10.00">quala::BroydenGood</text>
<text text-anchor="middle" x="58" y="-7" font-family="Helvetica,sans-Serif" font-size="10.00">::update</text>
</a>
</g>
</g>
<!-- Node2&#45;&gt;Node3 -->
<g id="edge2" class="edge">
<title>Node2&#45;&gt;Node3</title>
<path fill="none" stroke="#63b8ff" d="M141.69,-15C133.27,-15 124.72,-15 116.47,-15"/>
<polygon fill="#63b8ff" stroke="#63b8ff" points="141.86,-18.5 151.86,-15 141.86,-11.5 141.86,-18.5"/>
</g>
</g>
</svg>
