<?xml version="1.0" encoding="UTF-8" standalone="no"?>
<!DOCTYPE svg PUBLIC "-//W3C//DTD SVG 1.1//EN"
 "http://www.w3.org/Graphics/SVG/1.1/DTD/svg11.dtd">
<!-- Generated by graphviz version 2.43.0 (0)
 -->
<!-- Title: y Pages: 1 -->
<svg width="645pt" height="179pt"
 viewBox="0.00 0.00 645.00 179.00" xmlns="http://www.w3.org/2000/svg" xmlns:xlink="http://www.w3.org/1999/xlink">
<g id="graph0" class="graph" transform="scale(1 1) rotate(0) translate(4 175)">
<title>y</title>
<!-- Node1 -->
<g id="node1" class="node">
<title>Node1</title>
<g id="a_node1"><a xlink:title=" ">
<polygon fill="#999999" stroke="#666666" points="637,-133 608,-133 608,-114 637,-114 637,-133"/>
<text text-anchor="middle" x="622.5" y="-121" font-family="Helvetica,sans-Serif" font-size="10.00">y</text>
</a>
</g>
</g>
<!-- Node2 -->
<g id="node2" class="node">
<title>Node2</title>
<g id="a_node2"><a xlink:href="classquala_1_1LBFGS.html#af150290995e6bee28f5a0f057ed511c8" target="_top" xlink:title="Update the inverse Hessian approximation using the new vectors sₖ = xₖ₊₁ &#45; xₖ and yₖ = pₖ₊₁ &#45; pₖ.">
<polygon fill="white" stroke="#666666" points="443,-171 306,-171 306,-152 443,-152 443,-171"/>
<text text-anchor="middle" x="374.5" y="-159" font-family="Helvetica,sans-Serif" font-size="10.00">quala::LBFGS::update_sy</text>
</a>
</g>
</g>
<!-- Node1&#45;&gt;Node2 -->
<g id="edge1" class="edge">
<title>Node1&#45;&gt;Node2</title>
<path fill="none" stroke="#63b8ff" d="M597.7,-127.18C560.93,-132.86 489.12,-143.95 437.07,-151.99"/>
<polygon fill="#63b8ff" stroke="#63b8ff" points="598.58,-130.58 607.92,-125.6 597.51,-123.66 598.58,-130.58"/>
</g>
<!-- Node5 -->
<g id="node5" class="node">
<title>Node5</title>
<g id="a_node5"><a xlink:href="classquala_1_1LBFGS.html#aebac2ec4461761a48a7284152a8217f8" target="_top" xlink:title=" ">
<polygon fill="white" stroke="#666666" points="572,-114 479,-114 479,-95 572,-95 572,-114"/>
<text text-anchor="middle" x="525.5" y="-102" font-family="Helvetica,sans-Serif" font-size="10.00">quala::LBFGS::y</text>
</a>
</g>
</g>
<!-- Node1&#45;&gt;Node5 -->
<g id="edge5" class="edge">
<title>Node1&#45;&gt;Node5</title>
<path fill="none" stroke="#63b8ff" d="M598.07,-118.81C590.24,-117.25 581.22,-115.44 572.29,-113.66"/>
<polygon fill="#63b8ff" stroke="#63b8ff" points="597.4,-122.25 607.89,-120.78 598.77,-115.38 597.4,-122.25"/>
</g>
<!-- Node3 -->
<g id="node3" class="node">
<title>Node3</title>
<g id="a_node3"><a xlink:href="quala_8py_8cpp.html#a12fb4e87da488d1fc7c6fa3e6a3adb90" target="_top" xlink:title=" ">
<polygon fill="white" stroke="#666666" points="113,-95 0,-95 0,-76 113,-76 113,-95"/>
<text text-anchor="middle" x="56.5" y="-83" font-family="Helvetica,sans-Serif" font-size="10.00">PYBIND11_MODULE</text>
</a>
</g>
</g>
<!-- Node2&#45;&gt;Node3 -->
<g id="edge2" class="edge">
<title>Node2&#45;&gt;Node3</title>
<path fill="none" stroke="#63b8ff" d="M295.47,-163.81C251.44,-162.93 196.01,-158.12 149,-142.5 117.21,-131.94 85.14,-108.28 68.73,-95"/>
<polygon fill="#63b8ff" stroke="#63b8ff" points="295.49,-167.31 305.54,-163.95 295.59,-160.31 295.49,-167.31"/>
</g>
<!-- Node4 -->
<g id="node4" class="node">
<title>Node4</title>
<g id="a_node4"><a xlink:href="classquala_1_1LBFGS.html#ae34a8e5e432c990eb8af2f95bcbc04bd" target="_top" xlink:title="Update the inverse Hessian approximation using the new vectors xₖ₊₁ and pₖ₊₁.">
<polygon fill="white" stroke="#666666" points="270,-133 149,-133 149,-114 270,-114 270,-133"/>
<text text-anchor="middle" x="209.5" y="-121" font-family="Helvetica,sans-Serif" font-size="10.00">quala::LBFGS::update</text>
</a>
</g>
</g>
<!-- Node2&#45;&gt;Node4 -->
<g id="edge3" class="edge">
<title>Node2&#45;&gt;Node4</title>
<path fill="none" stroke="#63b8ff" d="M322.47,-149.6C299.56,-144.26 272.9,-138.05 251.34,-133.02"/>
<polygon fill="#63b8ff" stroke="#63b8ff" points="321.83,-153.05 332.37,-151.91 323.42,-146.23 321.83,-153.05"/>
</g>
<!-- Node4&#45;&gt;Node3 -->
<g id="edge4" class="edge">
<title>Node4&#45;&gt;Node3</title>
<path fill="none" stroke="#63b8ff" d="M160.66,-111.46C139.56,-106.15 115.12,-100 95.33,-95.02"/>
<polygon fill="#63b8ff" stroke="#63b8ff" points="159.84,-114.86 170.4,-113.91 161.55,-108.08 159.84,-114.86"/>
</g>
<!-- Node5&#45;&gt;Node2 -->
<g id="edge12" class="edge">
<title>Node5&#45;&gt;Node2</title>
<path fill="none" stroke="#63b8ff" d="M492.44,-117.85C477.47,-123.99 459.39,-131.27 443,-137.5 429.98,-142.45 415.43,-147.66 403.19,-151.96"/>
<polygon fill="#63b8ff" stroke="#63b8ff" points="493.86,-121.06 501.77,-114.01 491.19,-114.58 493.86,-121.06"/>
</g>
<!-- Node5&#45;&gt;Node3 -->
<g id="edge8" class="edge">
<title>Node5&#45;&gt;Node3</title>
<path fill="none" stroke="#63b8ff" d="M468.87,-102.24C378.98,-98.58 202.81,-91.41 113,-87.76"/>
<polygon fill="#63b8ff" stroke="#63b8ff" points="468.74,-105.73 478.87,-102.64 469.02,-98.74 468.74,-105.73"/>
</g>
<!-- Node5&#45;&gt;Node4 -->
<g id="edge11" class="edge">
<title>Node5&#45;&gt;Node4</title>
<path fill="none" stroke="#63b8ff" d="M468.78,-107.87C412.96,-111.25 327.35,-116.43 270.18,-119.89"/>
<polygon fill="#63b8ff" stroke="#63b8ff" points="469.07,-111.36 478.84,-107.26 468.65,-104.37 469.07,-111.36"/>
</g>
<!-- Node6 -->
<g id="node6" class="node">
<title>Node6</title>
<g id="a_node6"><a xlink:href="classquala_1_1LBFGS.html#a9ae2b583badddda6ec2917bb565688c3" target="_top" xlink:title="Apply the inverse Hessian approximation to the given vector q.">
<polygon fill="white" stroke="#666666" points="266.5,-57 152.5,-57 152.5,-38 266.5,-38 266.5,-57"/>
<text text-anchor="middle" x="209.5" y="-45" font-family="Helvetica,sans-Serif" font-size="10.00">quala::LBFGS::apply</text>
</a>
</g>
</g>
<!-- Node5&#45;&gt;Node6 -->
<g id="edge6" class="edge">
<title>Node5&#45;&gt;Node6</title>
<path fill="none" stroke="#63b8ff" d="M495.83,-90.57C480.5,-83.73 461.11,-76 443,-71.5 383.93,-56.81 314.26,-51.09 266.69,-48.88"/>
<polygon fill="#63b8ff" stroke="#63b8ff" points="494.71,-93.91 505.26,-94.9 497.63,-87.55 494.71,-93.91"/>
</g>
<!-- Node7 -->
<g id="node7" class="node">
<title>Node7</title>
<g id="a_node7"><a xlink:href="classquala_1_1LBFGS.html#adeddc1e1eb8ce1c1bbaf931b6f9a5b9c" target="_top" xlink:title="Scale the stored y vectors by the given factor.">
<polygon fill="white" stroke="#666666" points="436.5,-19 312.5,-19 312.5,0 436.5,0 436.5,-19"/>
<text text-anchor="middle" x="374.5" y="-7" font-family="Helvetica,sans-Serif" font-size="10.00">quala::LBFGS::scale_y</text>
</a>
</g>
</g>
<!-- Node5&#45;&gt;Node7 -->
<g id="edge9" class="edge">
<title>Node5&#45;&gt;Node7</title>
<path fill="none" stroke="#63b8ff" d="M508.68,-87.44C493.22,-71.61 468.38,-48.34 443,-33.5 432.91,-27.6 421.13,-22.79 410.26,-19.08"/>
<polygon fill="#63b8ff" stroke="#63b8ff" points="506.42,-90.14 515.86,-94.95 511.48,-85.3 506.42,-90.14"/>
</g>
<!-- Node6&#45;&gt;Node3 -->
<g id="edge7" class="edge">
<title>Node6&#45;&gt;Node3</title>
<path fill="none" stroke="#63b8ff" d="M160.66,-59.54C139.56,-64.85 115.12,-71 95.33,-75.98"/>
<polygon fill="#63b8ff" stroke="#63b8ff" points="161.55,-62.92 170.4,-57.09 159.84,-56.14 161.55,-62.92"/>
</g>
<!-- Node7&#45;&gt;Node3 -->
<g id="edge10" class="edge">
<title>Node7&#45;&gt;Node3</title>
<path fill="none" stroke="#63b8ff" d="M302.15,-7.08C257.15,-7.6 198.42,-12.08 149,-28.5 117.21,-39.06 85.14,-62.72 68.73,-76"/>
<polygon fill="#63b8ff" stroke="#63b8ff" points="302.42,-10.58 312.4,-7.03 302.38,-3.58 302.42,-10.58"/>
</g>
</g>
</svg>
