<?xml version="1.0" encoding="UTF-8" standalone="no"?>
<!DOCTYPE svg PUBLIC "-//W3C//DTD SVG 1.1//EN"
 "http://www.w3.org/Graphics/SVG/1.1/DTD/svg11.dtd">
<!-- Generated by graphviz version 2.43.0 (0)
 -->
<!-- Title: vec.hpp Pages: 1 -->
<svg width="356pt" height="302pt"
 viewBox="0.00 0.00 355.50 302.00" xmlns="http://www.w3.org/2000/svg" xmlns:xlink="http://www.w3.org/1999/xlink">
<g id="graph0" class="graph" transform="scale(1 1) rotate(0) translate(4 298)">
<title>vec.hpp</title>
<!-- Node1 -->
<g id="node1" class="node">
<title>Node1</title>
<g id="a_node1"><a xlink:title=" ">
<polygon fill="#999999" stroke="#666666" points="152,-294 97,-294 97,-275 152,-275 152,-294"/>
<text text-anchor="middle" x="124.5" y="-282" font-family="Helvetica,sans-Serif" font-size="10.00">vec.hpp</text>
</a>
</g>
</g>
<!-- Node2 -->
<g id="node2" class="node">
<title>Node2</title>
<g id="a_node2"><a xlink:href="alloc_8hpp.html" target="_top" xlink:title=" ">
<polygon fill="white" stroke="#666666" points="67,-239 6,-239 6,-220 67,-220 67,-239"/>
<text text-anchor="middle" x="36.5" y="-227" font-family="Helvetica,sans-Serif" font-size="10.00">alloc.hpp</text>
</a>
</g>
</g>
<!-- Node1&#45;&gt;Node2 -->
<g id="edge1" class="edge">
<title>Node1&#45;&gt;Node2</title>
<path fill="none" stroke="#63b8ff" d="M101.58,-269.7C85.55,-260.04 64.63,-247.44 50.9,-239.17"/>
<polygon fill="#63b8ff" stroke="#63b8ff" points="99.99,-272.82 110.36,-274.98 103.6,-266.83 99.99,-272.82"/>
</g>
<!-- Node3 -->
<g id="node3" class="node">
<title>Node3</title>
<g id="a_node3"><a xlink:href="broyden-good_8hpp.html" target="_top" xlink:title=" ">
<polygon fill="white" stroke="#666666" points="105,-184 0,-184 0,-165 105,-165 105,-184"/>
<text text-anchor="middle" x="52.5" y="-172" font-family="Helvetica,sans-Serif" font-size="10.00">broyden&#45;good.hpp</text>
</a>
</g>
</g>
<!-- Node1&#45;&gt;Node3 -->
<g id="edge2" class="edge">
<title>Node1&#45;&gt;Node3</title>
<path fill="none" stroke="#63b8ff" d="M112.88,-266.07C97.26,-242.64 70.09,-201.89 58.27,-184.16"/>
<polygon fill="#63b8ff" stroke="#63b8ff" points="110.15,-268.28 118.61,-274.66 115.97,-264.4 110.15,-268.28"/>
</g>
<!-- Node6 -->
<g id="node6" class="node">
<title>Node6</title>
<g id="a_node6"><a xlink:href="decl_2lbfgs_8hpp.html" target="_top" xlink:title=" ">
<polygon fill="white" stroke="#666666" points="185.5,-239 123.5,-239 123.5,-220 185.5,-220 185.5,-239"/>
<text text-anchor="middle" x="154.5" y="-227" font-family="Helvetica,sans-Serif" font-size="10.00">lbfgs.hpp</text>
</a>
</g>
</g>
<!-- Node1&#45;&gt;Node6 -->
<g id="edge5" class="edge">
<title>Node1&#45;&gt;Node6</title>
<path fill="none" stroke="#63b8ff" d="M134.51,-265.82C139.6,-256.82 145.56,-246.29 149.64,-239.09"/>
<polygon fill="#63b8ff" stroke="#63b8ff" points="131.33,-264.32 129.45,-274.75 137.43,-267.77 131.33,-264.32"/>
</g>
<!-- Node9 -->
<g id="node9" class="node">
<title>Node9</title>
<g id="a_node9"><a xlink:href="limited-memory-qr_8hpp.html" target="_top" xlink:title=" ">
<polygon fill="white" stroke="#666666" points="336.5,-239 206.5,-239 206.5,-220 336.5,-220 336.5,-239"/>
<text text-anchor="middle" x="271.5" y="-227" font-family="Helvetica,sans-Serif" font-size="10.00">limited&#45;memory&#45;qr.hpp</text>
</a>
</g>
</g>
<!-- Node1&#45;&gt;Node9 -->
<g id="edge9" class="edge">
<title>Node1&#45;&gt;Node9</title>
<path fill="none" stroke="#63b8ff" d="M157.64,-271.55C184.94,-261.71 223,-247.98 247.45,-239.17"/>
<polygon fill="#63b8ff" stroke="#63b8ff" points="156.34,-268.3 148.12,-274.98 158.71,-274.89 156.34,-268.3"/>
</g>
<!-- Node4 -->
<g id="node4" class="node">
<title>Node4</title>
<g id="a_node4"><a xlink:href="kwargs-to-struct_8hpp.html" target="_top" xlink:title="This file defines mappings from Python dicts (kwargs) to simple parameter structs.">
<polygon fill="white" stroke="#666666" points="152.5,-74 34.5,-74 34.5,-55 152.5,-55 152.5,-74"/>
<text text-anchor="middle" x="93.5" y="-62" font-family="Helvetica,sans-Serif" font-size="10.00">kwargs&#45;to&#45;struct.hpp</text>
</a>
</g>
</g>
<!-- Node3&#45;&gt;Node4 -->
<g id="edge3" class="edge">
<title>Node3&#45;&gt;Node4</title>
<path fill="none" stroke="#63b8ff" d="M59.48,-155.12C68.42,-131.56 83.57,-91.66 90.21,-74.16"/>
<polygon fill="#63b8ff" stroke="#63b8ff" points="56.13,-154.07 55.86,-164.66 62.68,-156.56 56.13,-154.07"/>
</g>
<!-- Node5 -->
<g id="node5" class="node">
<title>Node5</title>
<g id="a_node5"><a xlink:href="quala_8py_8cpp.html" target="_top" xlink:title="This file defines all Python bindings.">
<polygon fill="white" stroke="#666666" points="132,-19 55,-19 55,0 132,0 132,-19"/>
<text text-anchor="middle" x="93.5" y="-7" font-family="Helvetica,sans-Serif" font-size="10.00">quala.py.cpp</text>
</a>
</g>
</g>
<!-- Node4&#45;&gt;Node5 -->
<g id="edge4" class="edge">
<title>Node4&#45;&gt;Node5</title>
<path fill="none" stroke="#63b8ff" d="M93.5,-44.66C93.5,-35.93 93.5,-25.99 93.5,-19.09"/>
<polygon fill="#63b8ff" stroke="#63b8ff" points="90,-44.75 93.5,-54.75 97,-44.75 90,-44.75"/>
</g>
<!-- Node7 -->
<g id="node7" class="node">
<title>Node7</title>
<g id="a_node7"><a xlink:href="lbfgs_8hpp.html" target="_top" xlink:title=" ">
<polygon fill="white" stroke="#666666" points="185.5,-184 123.5,-184 123.5,-165 185.5,-165 185.5,-184"/>
<text text-anchor="middle" x="154.5" y="-172" font-family="Helvetica,sans-Serif" font-size="10.00">lbfgs.hpp</text>
</a>
</g>
</g>
<!-- Node6&#45;&gt;Node7 -->
<g id="edge6" class="edge">
<title>Node6&#45;&gt;Node7</title>
<path fill="none" stroke="#63b8ff" d="M154.5,-209.66C154.5,-200.93 154.5,-190.99 154.5,-184.09"/>
<polygon fill="#63b8ff" stroke="#63b8ff" points="151,-209.75 154.5,-219.75 158,-209.75 151,-209.75"/>
</g>
<!-- Node7&#45;&gt;Node4 -->
<g id="edge7" class="edge">
<title>Node7&#45;&gt;Node4</title>
<path fill="none" stroke="#63b8ff" d="M136.23,-157.85C127.97,-149.93 118.7,-139.74 112.5,-129 102.14,-111.06 96.96,-86.96 94.79,-74.22"/>
<polygon fill="#63b8ff" stroke="#63b8ff" points="133.97,-160.52 143.71,-164.68 138.69,-155.35 133.97,-160.52"/>
</g>
<!-- Node8 -->
<g id="node8" class="node">
<title>Node8</title>
<g id="a_node8"><a xlink:href="lbfgs_8cpp.html" target="_top" xlink:title=" ">
<polygon fill="white" stroke="#666666" points="183,-129 122,-129 122,-110 183,-110 183,-129"/>
<text text-anchor="middle" x="152.5" y="-117" font-family="Helvetica,sans-Serif" font-size="10.00">lbfgs.cpp</text>
</a>
</g>
</g>
<!-- Node7&#45;&gt;Node8 -->
<g id="edge8" class="edge">
<title>Node7&#45;&gt;Node8</title>
<path fill="none" stroke="#63b8ff" d="M153.79,-154.66C153.46,-145.93 153.08,-135.99 152.82,-129.09"/>
<polygon fill="#63b8ff" stroke="#63b8ff" points="150.3,-154.89 154.17,-164.75 157.29,-154.62 150.3,-154.89"/>
</g>
<!-- Node10 -->
<g id="node10" class="node">
<title>Node10</title>
<g id="a_node10"><a xlink:href="anderson-helpers_8hpp.html" target="_top" xlink:title=" ">
<polygon fill="white" stroke="#666666" points="333.5,-184 211.5,-184 211.5,-165 333.5,-165 333.5,-184"/>
<text text-anchor="middle" x="272.5" y="-172" font-family="Helvetica,sans-Serif" font-size="10.00">anderson&#45;helpers.hpp</text>
</a>
</g>
</g>
<!-- Node9&#45;&gt;Node10 -->
<g id="edge10" class="edge">
<title>Node9&#45;&gt;Node10</title>
<path fill="none" stroke="#63b8ff" d="M271.86,-209.66C272.02,-200.93 272.21,-190.99 272.34,-184.09"/>
<polygon fill="#63b8ff" stroke="#63b8ff" points="268.35,-209.68 271.67,-219.75 275.35,-209.82 268.35,-209.68"/>
</g>
<!-- Node11 -->
<g id="node11" class="node">
<title>Node11</title>
<g id="a_node11"><a xlink:href="anderson-acceleration_8hpp.html" target="_top" xlink:title=" ">
<polygon fill="white" stroke="#666666" points="347.5,-129 201.5,-129 201.5,-110 347.5,-110 347.5,-129"/>
<text text-anchor="middle" x="274.5" y="-117" font-family="Helvetica,sans-Serif" font-size="10.00">anderson&#45;acceleration.hpp</text>
</a>
</g>
</g>
<!-- Node10&#45;&gt;Node11 -->
<g id="edge11" class="edge">
<title>Node10&#45;&gt;Node11</title>
<path fill="none" stroke="#63b8ff" d="M273.21,-154.66C273.54,-145.93 273.92,-135.99 274.18,-129.09"/>
<polygon fill="#63b8ff" stroke="#63b8ff" points="269.71,-154.62 272.83,-164.75 276.7,-154.89 269.71,-154.62"/>
</g>
<!-- Node11&#45;&gt;Node4 -->
<g id="edge12" class="edge">
<title>Node11&#45;&gt;Node4</title>
<path fill="none" stroke="#63b8ff" d="M235.42,-107.06C201.59,-97.15 153.42,-83.04 122.81,-74.08"/>
<polygon fill="#63b8ff" stroke="#63b8ff" points="234.84,-110.53 245.42,-109.98 236.81,-103.82 234.84,-110.53"/>
</g>
</g>
</svg>
