<?xml version="1.0" encoding="UTF-8" standalone="no"?>
<!DOCTYPE svg PUBLIC "-//W3C//DTD SVG 1.1//EN"
 "http://www.w3.org/Graphics/SVG/1.1/DTD/svg11.dtd">
<!-- Generated by graphviz version 2.43.0 (0)
 -->
<!-- Title: resize Pages: 1 -->
<svg width="424pt" height="120pt"
 viewBox="0.00 0.00 424.00 119.50" xmlns="http://www.w3.org/2000/svg" xmlns:xlink="http://www.w3.org/1999/xlink">
<g id="graph0" class="graph" transform="scale(1 1) rotate(0) translate(4 115.5)">
<title>resize</title>
<polygon fill="white" stroke="transparent" points="-4,4 -4,-115.5 420,-115.5 420,4 -4,4"/>
<!-- Node1 -->
<g id="node1" class="node">
<title>Node1</title>
<g id="a_node1"><a xlink:title="Change the problem dimension.">
<polygon fill="#bfbfbf" stroke="black" points="0,-70 0,-89 46,-89 46,-70 0,-70"/>
<text text-anchor="middle" x="23" y="-77" font-family="Helvetica,sans-Serif" font-size="10.00">resize</text>
</a>
</g>
</g>
<!-- Node2 -->
<g id="node2" class="node">
<title>Node2</title>
<g id="a_node2"><a xlink:href="classquala_1_1AndersonAccel.html#a727afc7a58d2e44ae7add57e3fa77bc6" target="_top" xlink:title="Get the problem dimension.">
<polygon fill="white" stroke="black" points="138,-92 138,-111 167,-111 167,-92 138,-92"/>
<text text-anchor="middle" x="152.5" y="-99" font-family="Helvetica,sans-Serif" font-size="10.00">n</text>
</a>
</g>
</g>
<!-- Node1&#45;&gt;Node2 -->
<g id="edge1" class="edge">
<title>Node1&#45;&gt;Node2</title>
<path fill="none" stroke="midnightblue" d="M46.21,-83.33C69,-87.26 104.33,-93.36 127.69,-97.39"/>
<polygon fill="midnightblue" stroke="midnightblue" points="127.34,-100.88 137.79,-99.13 128.53,-93.98 127.34,-100.88"/>
</g>
<!-- Node4 -->
<g id="node4" class="node">
<title>Node4</title>
<g id="a_node4"><a xlink:href="classquala_1_1LimitedMemoryQR.html#ad15543203799d1dccb5a5e1c572e3f02" target="_top" xlink:title="Re&#45;allocate storage for a problem with a different size.">
<polygon fill="white" stroke="black" points="82,-42.5 82,-72.5 223,-72.5 223,-42.5 82,-42.5"/>
<text text-anchor="start" x="90" y="-60.5" font-family="Helvetica,sans-Serif" font-size="10.00">quala::LimitedMemoryQR</text>
<text text-anchor="middle" x="152.5" y="-49.5" font-family="Helvetica,sans-Serif" font-size="10.00">::resize</text>
</a>
</g>
</g>
<!-- Node1&#45;&gt;Node4 -->
<g id="edge3" class="edge">
<title>Node1&#45;&gt;Node4</title>
<path fill="none" stroke="midnightblue" d="M46.21,-75.67C53.73,-74.37 62.61,-72.84 71.98,-71.22"/>
<polygon fill="midnightblue" stroke="midnightblue" points="72.63,-74.66 81.89,-69.51 71.44,-67.76 72.63,-74.66"/>
</g>
<!-- Node3 -->
<g id="node3" class="node">
<title>Node3</title>
<g id="a_node3"><a xlink:href="classquala_1_1LimitedMemoryQR.html#a727afc7a58d2e44ae7add57e3fa77bc6" target="_top" xlink:title=" ">
<polygon fill="white" stroke="black" points="261,-91 261,-110 414,-110 414,-91 261,-91"/>
<text text-anchor="middle" x="337.5" y="-98" font-family="Helvetica,sans-Serif" font-size="10.00">quala::LimitedMemoryQR::n</text>
</a>
</g>
</g>
<!-- Node2&#45;&gt;Node3 -->
<g id="edge2" class="edge">
<title>Node2&#45;&gt;Node3</title>
<path fill="none" stroke="midnightblue" d="M167.25,-101.42C185.26,-101.33 218.31,-101.15 250.46,-100.97"/>
<polygon fill="midnightblue" stroke="midnightblue" points="250.86,-104.47 260.85,-100.91 250.83,-97.47 250.86,-104.47"/>
</g>
<!-- Node4&#45;&gt;Node3 -->
<g id="edge5" class="edge">
<title>Node4&#45;&gt;Node3</title>
<path fill="none" stroke="midnightblue" d="M217.5,-72.54C240.02,-77.83 264.98,-83.69 286.2,-88.68"/>
<polygon fill="midnightblue" stroke="midnightblue" points="285.44,-92.1 295.98,-90.98 287.04,-85.28 285.44,-92.1"/>
</g>
<!-- Node5 -->
<g id="node5" class="node">
<title>Node5</title>
<g id="a_node5"><a xlink:href="classquala_1_1LimitedMemoryQR.html#ac397ae83f5f4dd3d5cf9926f26acfb2d" target="_top" xlink:title=" ">
<polygon fill="white" stroke="black" points="259,-50 259,-69 416,-69 416,-50 259,-50"/>
<text text-anchor="middle" x="337.5" y="-57" font-family="Helvetica,sans-Serif" font-size="10.00">quala::LimitedMemoryQR::m</text>
</a>
</g>
</g>
<!-- Node4&#45;&gt;Node5 -->
<g id="edge4" class="edge">
<title>Node4&#45;&gt;Node5</title>
<path fill="none" stroke="midnightblue" d="M223.21,-58.26C231.56,-58.35 240.16,-58.45 248.72,-58.54"/>
<polygon fill="midnightblue" stroke="midnightblue" points="248.7,-62.04 258.74,-58.65 248.78,-55.04 248.7,-62.04"/>
</g>
<!-- Node6 -->
<g id="node6" class="node">
<title>Node6</title>
<g id="a_node6"><a xlink:href="classquala_1_1LimitedMemoryQR.html#ad20897c5c8bd47f5d4005989bead0e55" target="_top" xlink:title="Reset all indices, clearing the Q and R matrices.">
<polygon fill="white" stroke="black" points="267,-0.5 267,-30.5 408,-30.5 408,-0.5 267,-0.5"/>
<text text-anchor="start" x="275" y="-18.5" font-family="Helvetica,sans-Serif" font-size="10.00">quala::LimitedMemoryQR</text>
<text text-anchor="middle" x="337.5" y="-7.5" font-family="Helvetica,sans-Serif" font-size="10.00">::reset</text>
</a>
</g>
</g>
<!-- Node4&#45;&gt;Node6 -->
<g id="edge6" class="edge">
<title>Node4&#45;&gt;Node6</title>
<path fill="none" stroke="midnightblue" d="M219.05,-42.46C232.67,-39.33 247.12,-36.01 261.06,-32.81"/>
<polygon fill="midnightblue" stroke="midnightblue" points="262.14,-36.16 271.1,-30.51 260.57,-29.34 262.14,-36.16"/>
</g>
</g>
</svg>
