<?xml version="1.0" encoding="UTF-8" standalone="no"?>
<!DOCTYPE svg PUBLIC "-//W3C//DTD SVG 1.1//EN"
 "http://www.w3.org/Graphics/SVG/1.1/DTD/svg11.dtd">
<!-- Generated by graphviz version 2.43.0 (0)
 -->
<!-- Title: history Pages: 1 -->
<svg width="419pt" height="218pt"
 viewBox="0.00 0.00 419.00 218.00" xmlns="http://www.w3.org/2000/svg" xmlns:xlink="http://www.w3.org/1999/xlink">
<g id="graph0" class="graph" transform="scale(1 1) rotate(0) translate(4 214)">
<title>history</title>
<polygon fill="white" stroke="transparent" points="-4,4 -4,-214 415,-214 415,4 -4,4"/>
<!-- Node1 -->
<g id="node1" class="node">
<title>Node1</title>
<g id="a_node1"><a xlink:title="Get the number of previous vectors s and y stored in the buffer.">
<polygon fill="#bfbfbf" stroke="black" points="361,-95.5 361,-114.5 411,-114.5 411,-95.5 361,-95.5"/>
<text text-anchor="middle" x="386" y="-102.5" font-family="Helvetica,sans-Serif" font-size="10.00">history</text>
</a>
</g>
</g>
<!-- Node2 -->
<g id="node2" class="node">
<title>Node2</title>
<g id="a_node2"><a xlink:href="classquala_1_1LBFGS.html#a3c6a2dbecc0d6f8cd90bef088c46b072" target="_top" xlink:title="Get the number of previous s and y vectors currently stored in the buffer.">
<polygon fill="white" stroke="black" points="235,-190.5 235,-209.5 325,-209.5 325,-190.5 235,-190.5"/>
<text text-anchor="middle" x="280" y="-197.5" font-family="Helvetica,sans-Serif" font-size="10.00">current_history</text>
</a>
</g>
</g>
<!-- Node1&#45;&gt;Node2 -->
<g id="edge1" class="edge">
<title>Node1&#45;&gt;Node2</title>
<path fill="none" stroke="midnightblue" d="M374.1,-123.58C363.41,-140.46 345.73,-165.08 325,-181 320.25,-184.65 314.69,-187.75 309.15,-190.32"/>
<polygon fill="midnightblue" stroke="midnightblue" points="377.32,-125.02 379.56,-114.67 371.35,-121.37 377.32,-125.02"/>
</g>
<!-- Node4 -->
<g id="node4" class="node">
<title>Node4</title>
<g id="a_node4"><a xlink:href="classquala_1_1LBFGS.html#aa871b5290773b86e2e4919bbac258a04" target="_top" xlink:title="Iterate over the indices in the history buffer, oldest first.">
<polygon fill="white" stroke="black" points="242,-114.5 242,-133.5 318,-133.5 318,-114.5 242,-114.5"/>
<text text-anchor="middle" x="280" y="-121.5" font-family="Helvetica,sans-Serif" font-size="10.00">foreach_fwd</text>
</a>
</g>
</g>
<!-- Node1&#45;&gt;Node4 -->
<g id="edge3" class="edge">
<title>Node1&#45;&gt;Node4</title>
<path fill="none" stroke="midnightblue" d="M350.82,-111.24C340.32,-113.16 328.72,-115.28 318.03,-117.23"/>
<polygon fill="midnightblue" stroke="midnightblue" points="351.67,-114.65 360.88,-109.41 350.41,-107.76 351.67,-114.65"/>
</g>
<!-- Node6 -->
<g id="node6" class="node">
<title>Node6</title>
<g id="a_node6"><a xlink:href="classquala_1_1LBFGS.html#a0804b751cf2035a35f24762474f62cbf" target="_top" xlink:title="Iterate over the indices in the history buffer, newest first.">
<polygon fill="white" stroke="black" points="243,-76.5 243,-95.5 317,-95.5 317,-76.5 243,-76.5"/>
<text text-anchor="middle" x="280" y="-83.5" font-family="Helvetica,sans-Serif" font-size="10.00">foreach_rev</text>
</a>
</g>
</g>
<!-- Node1&#45;&gt;Node6 -->
<g id="edge5" class="edge">
<title>Node1&#45;&gt;Node6</title>
<path fill="none" stroke="midnightblue" d="M350.96,-98.78C340.16,-96.81 328.18,-94.62 317.23,-92.62"/>
<polygon fill="midnightblue" stroke="midnightblue" points="350.41,-102.24 360.88,-100.59 351.67,-95.35 350.41,-102.24"/>
</g>
<!-- Node7 -->
<g id="node7" class="node">
<title>Node7</title>
<g id="a_node7"><a xlink:href="classquala_1_1LBFGS.html#a71f7f5e949a948d578ae6f145e4c4914" target="_top" xlink:title="Get the previous index in the circular buffer of s and y vectors.">
<polygon fill="white" stroke="black" points="261,-38.5 261,-57.5 299,-57.5 299,-38.5 261,-38.5"/>
<text text-anchor="middle" x="280" y="-45.5" font-family="Helvetica,sans-Serif" font-size="10.00">pred</text>
</a>
</g>
</g>
<!-- Node1&#45;&gt;Node7 -->
<g id="edge7" class="edge">
<title>Node1&#45;&gt;Node7</title>
<path fill="none" stroke="midnightblue" d="M362.48,-89.55C351.43,-82.28 337.78,-73.75 325,-67 316.76,-62.65 307.31,-58.47 299.28,-55.14"/>
<polygon fill="midnightblue" stroke="midnightblue" points="360.81,-92.65 371.07,-95.29 364.7,-86.83 360.81,-92.65"/>
</g>
<!-- Node8 -->
<g id="node8" class="node">
<title>Node8</title>
<g id="a_node8"><a xlink:href="classquala_1_1LBFGS.html#adeddc1e1eb8ce1c1bbaf931b6f9a5b9c" target="_top" xlink:title="Scale the stored y vectors by the given factor.">
<polygon fill="white" stroke="black" points="253.5,-152.5 253.5,-171.5 306.5,-171.5 306.5,-152.5 253.5,-152.5"/>
<text text-anchor="middle" x="280" y="-159.5" font-family="Helvetica,sans-Serif" font-size="10.00">scale_y</text>
</a>
</g>
</g>
<!-- Node1&#45;&gt;Node8 -->
<g id="edge9" class="edge">
<title>Node1&#45;&gt;Node8</title>
<path fill="none" stroke="midnightblue" d="M362.48,-120.45C351.43,-127.72 337.78,-136.25 325,-143 318.67,-146.34 311.63,-149.58 305.07,-152.41"/>
<polygon fill="midnightblue" stroke="midnightblue" points="364.7,-123.17 371.07,-114.71 360.81,-117.35 364.7,-123.17"/>
</g>
<!-- Node9 -->
<g id="node9" class="node">
<title>Node9</title>
<g id="a_node9"><a xlink:href="classquala_1_1LBFGS.html#a70926baed7362e4fcce66523bb8e2842" target="_top" xlink:title="Get the next index in the circular buffer of previous s and y vectors.">
<polygon fill="white" stroke="black" points="261,-0.5 261,-19.5 299,-19.5 299,-0.5 261,-0.5"/>
<text text-anchor="middle" x="280" y="-7.5" font-family="Helvetica,sans-Serif" font-size="10.00">succ</text>
</a>
</g>
</g>
<!-- Node1&#45;&gt;Node9 -->
<g id="edge11" class="edge">
<title>Node1&#45;&gt;Node9</title>
<path fill="none" stroke="midnightblue" d="M374.1,-86.42C363.41,-69.54 345.73,-44.92 325,-29 317.35,-23.12 307.59,-18.67 299.22,-15.56"/>
<polygon fill="midnightblue" stroke="midnightblue" points="371.35,-88.63 379.56,-95.33 377.32,-84.98 371.35,-88.63"/>
</g>
<!-- Node3 -->
<g id="node3" class="node">
<title>Node3</title>
<g id="a_node3"><a xlink:href="quala_8cpp.html#a12fb4e87da488d1fc7c6fa3e6a3adb90" target="_top" xlink:title=" ">
<polygon fill="white" stroke="black" points="86,-171.5 86,-190.5 199,-190.5 199,-171.5 86,-171.5"/>
<text text-anchor="middle" x="142.5" y="-178.5" font-family="Helvetica,sans-Serif" font-size="10.00">PYBIND11_MODULE</text>
</a>
</g>
</g>
<!-- Node2&#45;&gt;Node3 -->
<g id="edge2" class="edge">
<title>Node2&#45;&gt;Node3</title>
<path fill="none" stroke="midnightblue" d="M224.65,-192.38C216.32,-191.21 207.71,-190 199.35,-188.83"/>
<polygon fill="midnightblue" stroke="midnightblue" points="224.24,-195.86 234.63,-193.78 225.22,-188.92 224.24,-195.86"/>
</g>
<!-- Node5 -->
<g id="node5" class="node">
<title>Node5</title>
<g id="a_node5"><a xlink:href="classquala_1_1LBFGS.html#a9ae2b583badddda6ec2917bb565688c3" target="_top" xlink:title="Apply the inverse Hessian approximation to the given vector q.">
<polygon fill="white" stroke="black" points="120.5,-76.5 120.5,-95.5 164.5,-95.5 164.5,-76.5 120.5,-76.5"/>
<text text-anchor="middle" x="142.5" y="-83.5" font-family="Helvetica,sans-Serif" font-size="10.00">apply</text>
</a>
</g>
</g>
<!-- Node4&#45;&gt;Node5 -->
<g id="edge4" class="edge">
<title>Node4&#45;&gt;Node5</title>
<path fill="none" stroke="midnightblue" d="M234.99,-111.66C211.36,-105.03 183.32,-97.17 164.57,-91.91"/>
<polygon fill="midnightblue" stroke="midnightblue" points="234.23,-115.08 244.81,-114.41 236.12,-108.34 234.23,-115.08"/>
</g>
<!-- Node6&#45;&gt;Node5 -->
<g id="edge6" class="edge">
<title>Node6&#45;&gt;Node5</title>
<path fill="none" stroke="midnightblue" d="M232.41,-86C209.4,-86 182.77,-86 164.69,-86"/>
<polygon fill="midnightblue" stroke="midnightblue" points="232.69,-89.5 242.69,-86 232.69,-82.5 232.69,-89.5"/>
</g>
<!-- Node7&#45;&gt;Node5 -->
<g id="edge8" class="edge">
<title>Node7&#45;&gt;Node5</title>
<path fill="none" stroke="midnightblue" d="M250.84,-55.9C225.16,-63.1 187.79,-73.58 164.6,-80.08"/>
<polygon fill="midnightblue" stroke="midnightblue" points="252.04,-59.2 260.73,-53.12 250.15,-52.46 252.04,-59.2"/>
</g>
<!-- Node8&#45;&gt;Node3 -->
<g id="edge10" class="edge">
<title>Node8&#45;&gt;Node3</title>
<path fill="none" stroke="midnightblue" d="M242.95,-167.05C229.54,-168.93 213.99,-171.12 199.23,-173.19"/>
<polygon fill="midnightblue" stroke="midnightblue" points="243.78,-170.47 253.19,-165.62 242.81,-163.54 243.78,-170.47"/>
</g>
<!-- Node10 -->
<g id="node10" class="node">
<title>Node10</title>
<g id="a_node10"><a xlink:href="classquala_1_1LBFGS.html#aa54be34168109d2e4995711cbd5f5ad8" target="_top" xlink:title="Update the inverse Hessian approximation using the new vectors sₖ = xₖ₊₁ &#45; xₖ and yₖ = pₖ₊₁ &#45; pₖ.">
<polygon fill="white" stroke="black" points="109,-0.5 109,-19.5 176,-19.5 176,-0.5 109,-0.5"/>
<text text-anchor="middle" x="142.5" y="-7.5" font-family="Helvetica,sans-Serif" font-size="10.00">update_sy</text>
</a>
</g>
</g>
<!-- Node9&#45;&gt;Node10 -->
<g id="edge12" class="edge">
<title>Node9&#45;&gt;Node10</title>
<path fill="none" stroke="midnightblue" d="M250.47,-10C228.71,-10 198.7,-10 176,-10"/>
<polygon fill="midnightblue" stroke="midnightblue" points="250.73,-13.5 260.73,-10 250.73,-6.5 250.73,-13.5"/>
</g>
<!-- Node11 -->
<g id="node11" class="node">
<title>Node11</title>
<g id="a_node11"><a xlink:href="classquala_1_1LBFGS.html#aa32c5f2c6818c5d54b9fcd1c019a4e1d" target="_top" xlink:title="Update the inverse Hessian approximation using the new vectors xₖ₊₁ and pₖ₊₁.">
<polygon fill="white" stroke="black" points="0,-0.5 0,-19.5 50,-19.5 50,-0.5 0,-0.5"/>
<text text-anchor="middle" x="25" y="-7.5" font-family="Helvetica,sans-Serif" font-size="10.00">update</text>
</a>
</g>
</g>
<!-- Node10&#45;&gt;Node11 -->
<g id="edge13" class="edge">
<title>Node10&#45;&gt;Node11</title>
<path fill="none" stroke="midnightblue" d="M98.29,-10C81.97,-10 64,-10 50.05,-10"/>
<polygon fill="midnightblue" stroke="midnightblue" points="98.71,-13.5 108.71,-10 98.71,-6.5 98.71,-13.5"/>
</g>
</g>
</svg>
