<?xml version="1.0" encoding="UTF-8" standalone="no"?>
<!DOCTYPE svg PUBLIC "-//W3C//DTD SVG 1.1//EN"
 "http://www.w3.org/Graphics/SVG/1.1/DTD/svg11.dtd">
<!-- Generated by graphviz version 2.43.0 (0)
 -->
<!-- Title: apply Pages: 1 -->
<svg width="498pt" height="256pt"
 viewBox="0.00 0.00 498.00 256.00" xmlns="http://www.w3.org/2000/svg" xmlns:xlink="http://www.w3.org/1999/xlink">
<g id="graph0" class="graph" transform="scale(1 1) rotate(0) translate(4 252)">
<title>apply</title>
<polygon fill="white" stroke="transparent" points="-4,4 -4,-252 494,-252 494,4 -4,4"/>
<!-- Node1 -->
<g id="node1" class="node">
<title>Node1</title>
<g id="a_node1"><a xlink:title="Apply the inverse Hessian approximation to the given vector q.">
<polygon fill="#bfbfbf" stroke="black" points="0,-114.5 0,-133.5 44,-133.5 44,-114.5 0,-114.5"/>
<text text-anchor="middle" x="22" y="-121.5" font-family="Helvetica,sans-Serif" font-size="10.00">apply</text>
</a>
</g>
</g>
<!-- Node2 -->
<g id="node2" class="node">
<title>Node2</title>
<g id="a_node2"><a xlink:href="classquala_1_1LBFGS.html#aa871b5290773b86e2e4919bbac258a04" target="_top" xlink:title="Iterate over the indices in the history buffer, oldest first.">
<polygon fill="white" stroke="black" points="80,-228.5 80,-247.5 156,-247.5 156,-228.5 80,-228.5"/>
<text text-anchor="middle" x="118" y="-235.5" font-family="Helvetica,sans-Serif" font-size="10.00">foreach_fwd</text>
</a>
</g>
</g>
<!-- Node1&#45;&gt;Node2 -->
<g id="edge1" class="edge">
<title>Node1&#45;&gt;Node2</title>
<path fill="none" stroke="midnightblue" d="M26.62,-133.53C34.07,-152.09 52.76,-193.5 80,-219 81.46,-220.37 83.04,-221.67 84.7,-222.89"/>
<polygon fill="midnightblue" stroke="midnightblue" points="83.08,-226 93.4,-228.38 86.82,-220.08 83.08,-226"/>
</g>
<!-- Node5 -->
<g id="node5" class="node">
<title>Node5</title>
<g id="a_node5"><a xlink:href="classquala_1_1LBFGS.html#a0804b751cf2035a35f24762474f62cbf" target="_top" xlink:title="Iterate over the indices in the history buffer, newest first.">
<polygon fill="white" stroke="black" points="81,-190.5 81,-209.5 155,-209.5 155,-190.5 81,-190.5"/>
<text text-anchor="middle" x="118" y="-197.5" font-family="Helvetica,sans-Serif" font-size="10.00">foreach_rev</text>
</a>
</g>
</g>
<!-- Node1&#45;&gt;Node5 -->
<g id="edge4" class="edge">
<title>Node1&#45;&gt;Node5</title>
<path fill="none" stroke="midnightblue" d="M31.1,-133.8C41.5,-145.96 60.55,-166.82 80,-181 82.09,-182.53 84.33,-184 86.62,-185.4"/>
<polygon fill="midnightblue" stroke="midnightblue" points="85.15,-188.59 95.59,-190.43 88.58,-182.49 85.15,-188.59"/>
</g>
<!-- Node6 -->
<g id="node6" class="node">
<title>Node6</title>
<g id="a_node6"><a xlink:href="classquala_1_1LBFGS.html#a71f7f5e949a948d578ae6f145e4c4914" target="_top" xlink:title="Get the previous index in the circular buffer of s and y vectors.">
<polygon fill="white" stroke="black" points="99,-152.5 99,-171.5 137,-171.5 137,-152.5 99,-152.5"/>
<text text-anchor="middle" x="118" y="-159.5" font-family="Helvetica,sans-Serif" font-size="10.00">pred</text>
</a>
</g>
</g>
<!-- Node1&#45;&gt;Node6 -->
<g id="edge6" class="edge">
<title>Node1&#45;&gt;Node6</title>
<path fill="none" stroke="midnightblue" d="M44.33,-132.62C57.71,-138.03 75.09,-145.06 89.5,-150.88"/>
<polygon fill="midnightblue" stroke="midnightblue" points="88.33,-154.19 98.92,-154.69 90.96,-147.7 88.33,-154.19"/>
</g>
<!-- Node7 -->
<g id="node7" class="node">
<title>Node7</title>
<g id="a_node7"><a xlink:href="classquala_1_1LBFGS.html#a15e4a3db39457cabe764a7737d24e73f" target="_top" xlink:title=" ">
<polygon fill="white" stroke="black" points="103.5,-114.5 103.5,-133.5 132.5,-133.5 132.5,-114.5 103.5,-114.5"/>
<text text-anchor="middle" x="118" y="-121.5" font-family="Helvetica,sans-Serif" font-size="10.00">s</text>
</a>
</g>
</g>
<!-- Node1&#45;&gt;Node7 -->
<g id="edge8" class="edge">
<title>Node1&#45;&gt;Node7</title>
<path fill="none" stroke="midnightblue" d="M44.33,-124C58.89,-124 78.19,-124 93.24,-124"/>
<polygon fill="midnightblue" stroke="midnightblue" points="93.32,-127.5 103.32,-124 93.32,-120.5 93.32,-127.5"/>
</g>
<!-- Node10 -->
<g id="node10" class="node">
<title>Node10</title>
<g id="a_node10"><a xlink:href="classquala_1_1LBFGS.html#aebac2ec4461761a48a7284152a8217f8" target="_top" xlink:title=" ">
<polygon fill="white" stroke="black" points="103.5,-76.5 103.5,-95.5 132.5,-95.5 132.5,-76.5 103.5,-76.5"/>
<text text-anchor="middle" x="118" y="-83.5" font-family="Helvetica,sans-Serif" font-size="10.00">y</text>
</a>
</g>
</g>
<!-- Node1&#45;&gt;Node10 -->
<g id="edge11" class="edge">
<title>Node1&#45;&gt;Node10</title>
<path fill="none" stroke="midnightblue" d="M44.33,-115.38C59.03,-109.43 78.56,-101.54 93.67,-95.43"/>
<polygon fill="midnightblue" stroke="midnightblue" points="95.36,-98.52 103.32,-91.53 92.73,-92.03 95.36,-98.52"/>
</g>
<!-- Node12 -->
<g id="node12" class="node">
<title>Node12</title>
<g id="a_node12"><a xlink:href="classquala_1_1LBFGS.html#ac7c2ee7d2562303f555dd1f4c3fca8cd" target="_top" xlink:title=" ">
<polygon fill="white" stroke="black" points="103.5,-38.5 103.5,-57.5 132.5,-57.5 132.5,-38.5 103.5,-38.5"/>
<text text-anchor="middle" x="118" y="-45.5" font-family="Helvetica,sans-Serif" font-size="10.00">α</text>
</a>
</g>
</g>
<!-- Node1&#45;&gt;Node12 -->
<g id="edge14" class="edge">
<title>Node1&#45;&gt;Node12</title>
<path fill="none" stroke="midnightblue" d="M31.1,-114.2C41.5,-102.04 60.55,-81.18 80,-67 84.41,-63.79 89.44,-60.81 94.34,-58.22"/>
<polygon fill="midnightblue" stroke="midnightblue" points="95.99,-61.31 103.4,-53.74 92.89,-55.03 95.99,-61.31"/>
</g>
<!-- Node14 -->
<g id="node14" class="node">
<title>Node14</title>
<g id="a_node14"><a xlink:href="classquala_1_1LBFGS.html#acade3dc51f7ca788be9b91908b2e73ab" target="_top" xlink:title=" ">
<polygon fill="white" stroke="black" points="103.5,-0.5 103.5,-19.5 132.5,-19.5 132.5,-0.5 103.5,-0.5"/>
<text text-anchor="middle" x="118" y="-7.5" font-family="Helvetica,sans-Serif" font-size="10.00">ρ</text>
</a>
</g>
</g>
<!-- Node1&#45;&gt;Node14 -->
<g id="edge17" class="edge">
<title>Node1&#45;&gt;Node14</title>
<path fill="none" stroke="midnightblue" d="M26.62,-114.47C34.07,-95.91 52.76,-54.5 80,-29 84.05,-25.21 89,-21.99 93.94,-19.33"/>
<polygon fill="midnightblue" stroke="midnightblue" points="95.68,-22.37 103.21,-14.91 92.67,-16.05 95.68,-22.37"/>
</g>
<!-- Node3 -->
<g id="node3" class="node">
<title>Node3</title>
<g id="a_node3"><a xlink:href="classquala_1_1LBFGS.html#a9cf7dcccbc3bc69a10833450ee79c623" target="_top" xlink:title="Get the number of previous vectors s and y stored in the buffer.">
<polygon fill="white" stroke="black" points="232.5,-190.5 232.5,-209.5 282.5,-209.5 282.5,-190.5 232.5,-190.5"/>
<text text-anchor="middle" x="257.5" y="-197.5" font-family="Helvetica,sans-Serif" font-size="10.00">history</text>
</a>
</g>
</g>
<!-- Node2&#45;&gt;Node3 -->
<g id="edge2" class="edge">
<title>Node2&#45;&gt;Node3</title>
<path fill="none" stroke="midnightblue" d="M153.7,-228.41C174.75,-222.59 201.51,-215.2 222.45,-209.41"/>
<polygon fill="midnightblue" stroke="midnightblue" points="223.51,-212.75 232.21,-206.71 221.64,-206 223.51,-212.75"/>
</g>
<!-- Node4 -->
<g id="node4" class="node">
<title>Node4</title>
<g id="a_node4"><a xlink:href="structquala_1_1LBFGSStorage.html#a9cf7dcccbc3bc69a10833450ee79c623" target="_top" xlink:title="Get the number of previous vectors s and y stored in the buffer.">
<polygon fill="white" stroke="black" points="365,-185 365,-215 484,-215 484,-185 365,-185"/>
<text text-anchor="start" x="373" y="-203" font-family="Helvetica,sans-Serif" font-size="10.00">quala::LBFGSStorage</text>
<text text-anchor="middle" x="424.5" y="-192" font-family="Helvetica,sans-Serif" font-size="10.00">::history</text>
</a>
</g>
</g>
<!-- Node3&#45;&gt;Node4 -->
<g id="edge3" class="edge">
<title>Node3&#45;&gt;Node4</title>
<path fill="none" stroke="midnightblue" d="M282.85,-200C301.84,-200 329.2,-200 354.75,-200"/>
<polygon fill="midnightblue" stroke="midnightblue" points="354.8,-203.5 364.8,-200 354.8,-196.5 354.8,-203.5"/>
</g>
<!-- Node5&#45;&gt;Node3 -->
<g id="edge5" class="edge">
<title>Node5&#45;&gt;Node3</title>
<path fill="none" stroke="midnightblue" d="M155.13,-200C175.86,-200 201.75,-200 222.17,-200"/>
<polygon fill="midnightblue" stroke="midnightblue" points="222.3,-203.5 232.3,-200 222.3,-196.5 222.3,-203.5"/>
</g>
<!-- Node6&#45;&gt;Node3 -->
<g id="edge7" class="edge">
<title>Node6&#45;&gt;Node3</title>
<path fill="none" stroke="midnightblue" d="M137.26,-167.05C158.89,-173.03 195.4,-183.11 222.33,-190.56"/>
<polygon fill="midnightblue" stroke="midnightblue" points="221.56,-193.98 232.13,-193.27 223.43,-187.23 221.56,-193.98"/>
</g>
<!-- Node8 -->
<g id="node8" class="node">
<title>Node8</title>
<g id="a_node8"><a xlink:href="structquala_1_1LBFGSStorage.html#a15e4a3db39457cabe764a7737d24e73f" target="_top" xlink:title=" ">
<polygon fill="white" stroke="black" points="192.5,-114.5 192.5,-133.5 322.5,-133.5 322.5,-114.5 192.5,-114.5"/>
<text text-anchor="middle" x="257.5" y="-121.5" font-family="Helvetica,sans-Serif" font-size="10.00">quala::LBFGSStorage::s</text>
</a>
</g>
</g>
<!-- Node7&#45;&gt;Node8 -->
<g id="edge9" class="edge">
<title>Node7&#45;&gt;Node8</title>
<path fill="none" stroke="midnightblue" d="M132.69,-124C144.72,-124 163.24,-124 182.33,-124"/>
<polygon fill="midnightblue" stroke="midnightblue" points="182.33,-127.5 192.33,-124 182.33,-120.5 182.33,-127.5"/>
</g>
<!-- Node9 -->
<g id="node9" class="node">
<title>Node9</title>
<g id="a_node9"><a xlink:href="structquala_1_1LBFGSStorage.html#a727afc7a58d2e44ae7add57e3fa77bc6" target="_top" xlink:title="Get the size of the s and y vectors in the buffer.">
<polygon fill="white" stroke="black" points="359,-57.5 359,-76.5 490,-76.5 490,-57.5 359,-57.5"/>
<text text-anchor="middle" x="424.5" y="-64.5" font-family="Helvetica,sans-Serif" font-size="10.00">quala::LBFGSStorage::n</text>
</a>
</g>
</g>
<!-- Node8&#45;&gt;Node9 -->
<g id="edge10" class="edge">
<title>Node8&#45;&gt;Node9</title>
<path fill="none" stroke="midnightblue" d="M292.79,-114.42C302.6,-111.54 313.26,-108.27 323,-105 345.69,-97.38 370.89,-87.85 390.37,-80.24"/>
<polygon fill="midnightblue" stroke="midnightblue" points="391.69,-83.48 399.72,-76.57 389.13,-76.97 391.69,-83.48"/>
</g>
<!-- Node11 -->
<g id="node11" class="node">
<title>Node11</title>
<g id="a_node11"><a xlink:href="structquala_1_1LBFGSStorage.html#aebac2ec4461761a48a7284152a8217f8" target="_top" xlink:title=" ">
<polygon fill="white" stroke="black" points="192,-76.5 192,-95.5 323,-95.5 323,-76.5 192,-76.5"/>
<text text-anchor="middle" x="257.5" y="-83.5" font-family="Helvetica,sans-Serif" font-size="10.00">quala::LBFGSStorage::y</text>
</a>
</g>
</g>
<!-- Node10&#45;&gt;Node11 -->
<g id="edge12" class="edge">
<title>Node10&#45;&gt;Node11</title>
<path fill="none" stroke="midnightblue" d="M132.69,-86C144.55,-86 162.72,-86 181.52,-86"/>
<polygon fill="midnightblue" stroke="midnightblue" points="181.68,-89.5 191.68,-86 181.68,-82.5 181.68,-89.5"/>
</g>
<!-- Node11&#45;&gt;Node9 -->
<g id="edge13" class="edge">
<title>Node11&#45;&gt;Node9</title>
<path fill="none" stroke="midnightblue" d="M323.24,-78.55C331.67,-77.57 340.37,-76.57 348.95,-75.58"/>
<polygon fill="midnightblue" stroke="midnightblue" points="349.41,-79.05 358.95,-74.43 348.61,-72.1 349.41,-79.05"/>
</g>
<!-- Node13 -->
<g id="node13" class="node">
<title>Node13</title>
<g id="a_node13"><a xlink:href="structquala_1_1LBFGSStorage.html#ac7c2ee7d2562303f555dd1f4c3fca8cd" target="_top" xlink:title=" ">
<polygon fill="white" stroke="black" points="192,-38.5 192,-57.5 323,-57.5 323,-38.5 192,-38.5"/>
<text text-anchor="middle" x="257.5" y="-45.5" font-family="Helvetica,sans-Serif" font-size="10.00">quala::LBFGSStorage::α</text>
</a>
</g>
</g>
<!-- Node12&#45;&gt;Node13 -->
<g id="edge15" class="edge">
<title>Node12&#45;&gt;Node13</title>
<path fill="none" stroke="midnightblue" d="M132.69,-48C144.55,-48 162.72,-48 181.52,-48"/>
<polygon fill="midnightblue" stroke="midnightblue" points="181.68,-51.5 191.68,-48 181.68,-44.5 181.68,-51.5"/>
</g>
<!-- Node13&#45;&gt;Node9 -->
<g id="edge16" class="edge">
<title>Node13&#45;&gt;Node9</title>
<path fill="none" stroke="midnightblue" d="M323.24,-55.45C331.67,-56.43 340.37,-57.43 348.95,-58.42"/>
<polygon fill="midnightblue" stroke="midnightblue" points="348.61,-61.9 358.95,-59.57 349.41,-54.95 348.61,-61.9"/>
</g>
<!-- Node15 -->
<g id="node15" class="node">
<title>Node15</title>
<g id="a_node15"><a xlink:href="structquala_1_1LBFGSStorage.html#acade3dc51f7ca788be9b91908b2e73ab" target="_top" xlink:title=" ">
<polygon fill="white" stroke="black" points="192,-0.5 192,-19.5 323,-19.5 323,-0.5 192,-0.5"/>
<text text-anchor="middle" x="257.5" y="-7.5" font-family="Helvetica,sans-Serif" font-size="10.00">quala::LBFGSStorage::ρ</text>
</a>
</g>
</g>
<!-- Node14&#45;&gt;Node15 -->
<g id="edge18" class="edge">
<title>Node14&#45;&gt;Node15</title>
<path fill="none" stroke="midnightblue" d="M132.69,-10C144.55,-10 162.72,-10 181.52,-10"/>
<polygon fill="midnightblue" stroke="midnightblue" points="181.68,-13.5 191.68,-10 181.68,-6.5 181.68,-13.5"/>
</g>
<!-- Node15&#45;&gt;Node9 -->
<g id="edge19" class="edge">
<title>Node15&#45;&gt;Node9</title>
<path fill="none" stroke="midnightblue" d="M292.79,-19.58C302.6,-22.46 313.26,-25.73 323,-29 345.69,-36.62 370.89,-46.15 390.37,-53.76"/>
<polygon fill="midnightblue" stroke="midnightblue" points="389.13,-57.03 399.72,-57.43 391.69,-50.52 389.13,-57.03"/>
</g>
</g>
</svg>
