<?xml version="1.0" encoding="UTF-8" standalone="no"?>
<!DOCTYPE svg PUBLIC "-//W3C//DTD SVG 1.1//EN"
 "http://www.w3.org/Graphics/SVG/1.1/DTD/svg11.dtd">
<!-- Generated by graphviz version 2.43.0 (0)
 -->
<!-- Title: history Pages: 1 -->
<svg width="419pt" height="180pt"
 viewBox="0.00 0.00 419.00 180.00" xmlns="http://www.w3.org/2000/svg" xmlns:xlink="http://www.w3.org/1999/xlink">
<g id="graph0" class="graph" transform="scale(1 1) rotate(0) translate(4 176)">
<title>history</title>
<polygon fill="white" stroke="transparent" points="-4,4 -4,-176 415,-176 415,4 -4,4"/>
<!-- Node1 -->
<g id="node1" class="node">
<title>Node1</title>
<g id="a_node1"><a xlink:title="Get the number of previous vectors s and y stored in the buffer.">
<polygon fill="#bfbfbf" stroke="black" points="361,-76.5 361,-95.5 411,-95.5 411,-76.5 361,-76.5"/>
<text text-anchor="middle" x="386" y="-83.5" font-family="Helvetica,sans-Serif" font-size="10.00">history</text>
</a>
</g>
</g>
<!-- Node2 -->
<g id="node2" class="node">
<title>Node2</title>
<g id="a_node2"><a xlink:href="classquala_1_1BroydenGood.html#a3c6a2dbecc0d6f8cd90bef088c46b072" target="_top" xlink:title="Get the number of previous s and y vectors currently stored in the buffer.">
<polygon fill="white" stroke="black" points="235,-152.5 235,-171.5 325,-171.5 325,-152.5 235,-152.5"/>
<text text-anchor="middle" x="280" y="-159.5" font-family="Helvetica,sans-Serif" font-size="10.00">current_history</text>
</a>
</g>
</g>
<!-- Node1&#45;&gt;Node2 -->
<g id="edge1" class="edge">
<title>Node1&#45;&gt;Node2</title>
<path fill="none" stroke="midnightblue" d="M369.88,-103.32C358.48,-115.59 341.95,-131.81 325,-143 319.58,-146.58 313.38,-149.74 307.38,-152.4"/>
<polygon fill="midnightblue" stroke="midnightblue" points="372.78,-105.32 376.9,-95.56 367.59,-100.63 372.78,-105.32"/>
</g>
<!-- Node4 -->
<g id="node4" class="node">
<title>Node4</title>
<g id="a_node4"><a xlink:href="classquala_1_1BroydenGood.html#aa871b5290773b86e2e4919bbac258a04" target="_top" xlink:title="Iterate over the indices in the history buffer, oldest first.">
<polygon fill="white" stroke="black" points="242,-114.5 242,-133.5 318,-133.5 318,-114.5 242,-114.5"/>
<text text-anchor="middle" x="280" y="-121.5" font-family="Helvetica,sans-Serif" font-size="10.00">foreach_fwd</text>
</a>
</g>
</g>
<!-- Node1&#45;&gt;Node4 -->
<g id="edge3" class="edge">
<title>Node1&#45;&gt;Node4</title>
<path fill="none" stroke="midnightblue" d="M351.36,-98.29C337.04,-103.53 320.57,-109.54 307.18,-114.44"/>
<polygon fill="midnightblue" stroke="midnightblue" points="352.69,-101.53 360.88,-94.81 350.29,-94.96 352.69,-101.53"/>
</g>
<!-- Node8 -->
<g id="node8" class="node">
<title>Node8</title>
<g id="a_node8"><a xlink:href="classquala_1_1BroydenGood.html#a0804b751cf2035a35f24762474f62cbf" target="_top" xlink:title="Iterate over the indices in the history buffer, newest first.">
<polygon fill="white" stroke="black" points="243,-76.5 243,-95.5 317,-95.5 317,-76.5 243,-76.5"/>
<text text-anchor="middle" x="280" y="-83.5" font-family="Helvetica,sans-Serif" font-size="10.00">foreach_rev</text>
</a>
</g>
</g>
<!-- Node1&#45;&gt;Node8 -->
<g id="edge7" class="edge">
<title>Node1&#45;&gt;Node8</title>
<path fill="none" stroke="midnightblue" d="M350.62,-86C339.91,-86 328.06,-86 317.23,-86"/>
<polygon fill="midnightblue" stroke="midnightblue" points="350.88,-89.5 360.88,-86 350.88,-82.5 350.88,-89.5"/>
</g>
<!-- Node9 -->
<g id="node9" class="node">
<title>Node9</title>
<g id="a_node9"><a xlink:href="classquala_1_1BroydenGood.html#a71f7f5e949a948d578ae6f145e4c4914" target="_top" xlink:title="Get the previous index in the circular buffer of s and y vectors.">
<polygon fill="white" stroke="black" points="261,-38.5 261,-57.5 299,-57.5 299,-38.5 261,-38.5"/>
<text text-anchor="middle" x="280" y="-45.5" font-family="Helvetica,sans-Serif" font-size="10.00">pred</text>
</a>
</g>
</g>
<!-- Node1&#45;&gt;Node9 -->
<g id="edge8" class="edge">
<title>Node1&#45;&gt;Node9</title>
<path fill="none" stroke="midnightblue" d="M351.11,-73.62C333.81,-67.3 313.45,-59.86 299.15,-54.63"/>
<polygon fill="midnightblue" stroke="midnightblue" points="350.29,-77.04 360.88,-77.19 352.69,-70.47 350.29,-77.04"/>
</g>
<!-- Node10 -->
<g id="node10" class="node">
<title>Node10</title>
<g id="a_node10"><a xlink:href="classquala_1_1BroydenGood.html#a70926baed7362e4fcce66523bb8e2842" target="_top" xlink:title="Get the next index in the circular buffer of previous s and y vectors.">
<polygon fill="white" stroke="black" points="261,-0.5 261,-19.5 299,-19.5 299,-0.5 261,-0.5"/>
<text text-anchor="middle" x="280" y="-7.5" font-family="Helvetica,sans-Serif" font-size="10.00">succ</text>
</a>
</g>
</g>
<!-- Node1&#45;&gt;Node10 -->
<g id="edge9" class="edge">
<title>Node1&#45;&gt;Node10</title>
<path fill="none" stroke="midnightblue" d="M369.88,-68.68C358.48,-56.41 341.95,-40.19 325,-29 317.08,-23.77 307.49,-19.43 299.29,-16.23"/>
<polygon fill="midnightblue" stroke="midnightblue" points="367.59,-71.37 376.9,-76.44 372.78,-66.68 367.59,-71.37"/>
</g>
<!-- Node3 -->
<g id="node3" class="node">
<title>Node3</title>
<g id="a_node3"><a xlink:href="quala_8cpp.html#a12fb4e87da488d1fc7c6fa3e6a3adb90" target="_top" xlink:title=" ">
<polygon fill="white" stroke="black" points="86,-152.5 86,-171.5 199,-171.5 199,-152.5 86,-152.5"/>
<text text-anchor="middle" x="142.5" y="-159.5" font-family="Helvetica,sans-Serif" font-size="10.00">PYBIND11_MODULE</text>
</a>
</g>
</g>
<!-- Node2&#45;&gt;Node3 -->
<g id="edge2" class="edge">
<title>Node2&#45;&gt;Node3</title>
<path fill="none" stroke="midnightblue" d="M224.37,-162C216.13,-162 207.62,-162 199.35,-162"/>
<polygon fill="midnightblue" stroke="midnightblue" points="224.63,-165.5 234.63,-162 224.63,-158.5 224.63,-165.5"/>
</g>
<!-- Node5 -->
<g id="node5" class="node">
<title>Node5</title>
<g id="a_node5"><a xlink:href="classquala_1_1BroydenGood.html#af3b5886c46c3f50fae33990afcc47f12" target="_top" xlink:title="Apply the inverse Jacobian approximation to the given vector q, i.e.">
<polygon fill="white" stroke="black" points="120.5,-114.5 120.5,-133.5 164.5,-133.5 164.5,-114.5 120.5,-114.5"/>
<text text-anchor="middle" x="142.5" y="-121.5" font-family="Helvetica,sans-Serif" font-size="10.00">apply</text>
</a>
</g>
</g>
<!-- Node4&#45;&gt;Node5 -->
<g id="edge4" class="edge">
<title>Node4&#45;&gt;Node5</title>
<path fill="none" stroke="midnightblue" d="M231.78,-124C208.99,-124 182.76,-124 164.86,-124"/>
<polygon fill="midnightblue" stroke="midnightblue" points="231.97,-127.5 241.97,-124 231.97,-120.5 231.97,-127.5"/>
</g>
<!-- Node6 -->
<g id="node6" class="node">
<title>Node6</title>
<g id="a_node6"><a xlink:href="classquala_1_1BroydenGood.html#ad2320a49a7db3abb42d0c621a6a932bd" target="_top" xlink:title="Update the inverse Jacobian approximation using the new vectors sₖ = xₖ₊₁ &#45; xₖ and yₖ = pₖ₊₁ &#45; pₖ.">
<polygon fill="white" stroke="black" points="109,-38.5 109,-57.5 176,-57.5 176,-38.5 109,-38.5"/>
<text text-anchor="middle" x="142.5" y="-45.5" font-family="Helvetica,sans-Serif" font-size="10.00">update_sy</text>
</a>
</g>
</g>
<!-- Node4&#45;&gt;Node6 -->
<g id="edge5" class="edge">
<title>Node4&#45;&gt;Node6</title>
<path fill="none" stroke="midnightblue" d="M245.52,-110.17C241.93,-108.5 238.37,-106.76 235,-105 206.48,-90.07 174.98,-69.47 157.38,-57.56"/>
<polygon fill="midnightblue" stroke="midnightblue" points="244.39,-113.5 254.95,-114.38 247.25,-107.11 244.39,-113.5"/>
</g>
<!-- Node7 -->
<g id="node7" class="node">
<title>Node7</title>
<g id="a_node7"><a xlink:href="classquala_1_1BroydenGood.html#a1380d11b100437c5d8d8fc21be5ea7b6" target="_top" xlink:title="Update the inverse Jacobian approximation using the new vectors xₖ₊₁ and pₖ₊₁.">
<polygon fill="white" stroke="black" points="0,-38.5 0,-57.5 50,-57.5 50,-38.5 0,-38.5"/>
<text text-anchor="middle" x="25" y="-45.5" font-family="Helvetica,sans-Serif" font-size="10.00">update</text>
</a>
</g>
</g>
<!-- Node6&#45;&gt;Node7 -->
<g id="edge6" class="edge">
<title>Node6&#45;&gt;Node7</title>
<path fill="none" stroke="midnightblue" d="M98.29,-48C81.97,-48 64,-48 50.05,-48"/>
<polygon fill="midnightblue" stroke="midnightblue" points="98.71,-51.5 108.71,-48 98.71,-44.5 98.71,-51.5"/>
</g>
<!-- Node10&#45;&gt;Node6 -->
<g id="edge10" class="edge">
<title>Node10&#45;&gt;Node6</title>
<path fill="none" stroke="midnightblue" d="M251.07,-17.83C229.25,-23.95 198.91,-32.46 176,-38.88"/>
<polygon fill="midnightblue" stroke="midnightblue" points="252.04,-21.2 260.73,-15.12 250.15,-14.46 252.04,-21.2"/>
</g>
</g>
</svg>
