<?xml version="1.0" encoding="UTF-8" standalone="no"?>
<!DOCTYPE svg PUBLIC "-//W3C//DTD SVG 1.1//EN"
 "http://www.w3.org/Graphics/SVG/1.1/DTD/svg11.dtd">
<!-- Generated by graphviz version 2.43.0 (0)
 -->
<!-- Title: BroydenGood Pages: 1 -->
<svg width="264pt" height="479pt"
 viewBox="0.00 0.00 263.50 479.00" xmlns="http://www.w3.org/2000/svg" xmlns:xlink="http://www.w3.org/1999/xlink">
<g id="graph0" class="graph" transform="scale(1 1) rotate(0) translate(4 475)">
<title>BroydenGood</title>
<polygon fill="white" stroke="transparent" points="-4,4 -4,-475 259.5,-475 259.5,4 -4,4"/>
<!-- Node1 -->
<g id="node1" class="node">
<title>Node1</title>
<g id="a_node1"><a xlink:title="Broyden&#39;s “Good” method for solving systems of nonlinear equations .">
<polygon fill="#bfbfbf" stroke="black" points="61,-0.5 61,-277.5 170,-277.5 170,-0.5 61,-0.5"/>
<text text-anchor="middle" x="115.5" y="-265.5" font-family="Helvetica,sans-Serif" font-size="10.00">BroydenGood</text>
<polyline fill="none" stroke="black" points="61,-258.5 170,-258.5 "/>
<text text-anchor="start" x="69" y="-246.5" font-family="Helvetica,sans-Serif" font-size="10.00">&#45; idx</text>
<text text-anchor="start" x="69" y="-235.5" font-family="Helvetica,sans-Serif" font-size="10.00">&#45; full</text>
<text text-anchor="start" x="69" y="-224.5" font-family="Helvetica,sans-Serif" font-size="10.00">&#45; latest_γ</text>
<polyline fill="none" stroke="black" points="61,-217.5 170,-217.5 "/>
<text text-anchor="start" x="69" y="-205.5" font-family="Helvetica,sans-Serif" font-size="10.00">+ BroydenGood()</text>
<text text-anchor="start" x="69" y="-194.5" font-family="Helvetica,sans-Serif" font-size="10.00">+ BroydenGood()</text>
<text text-anchor="start" x="69" y="-183.5" font-family="Helvetica,sans-Serif" font-size="10.00">+ update_sy()</text>
<text text-anchor="start" x="69" y="-172.5" font-family="Helvetica,sans-Serif" font-size="10.00">+ update()</text>
<text text-anchor="start" x="69" y="-161.5" font-family="Helvetica,sans-Serif" font-size="10.00">+ apply()</text>
<text text-anchor="start" x="69" y="-150.5" font-family="Helvetica,sans-Serif" font-size="10.00">+ reset()</text>
<text text-anchor="start" x="69" y="-139.5" font-family="Helvetica,sans-Serif" font-size="10.00">+ resize()</text>
<text text-anchor="start" x="69" y="-128.5" font-family="Helvetica,sans-Serif" font-size="10.00">+ get_params()</text>
<text text-anchor="start" x="69" y="-117.5" font-family="Helvetica,sans-Serif" font-size="10.00">+ n()</text>
<text text-anchor="start" x="69" y="-106.5" font-family="Helvetica,sans-Serif" font-size="10.00">+ history()</text>
<text text-anchor="start" x="69" y="-95.5" font-family="Helvetica,sans-Serif" font-size="10.00">+ succ()</text>
<text text-anchor="start" x="69" y="-84.5" font-family="Helvetica,sans-Serif" font-size="10.00">+ pred()</text>
<text text-anchor="start" x="69" y="-73.5" font-family="Helvetica,sans-Serif" font-size="10.00">+ current_history()</text>
<text text-anchor="start" x="69" y="-62.5" font-family="Helvetica,sans-Serif" font-size="10.00">+ s()</text>
<text text-anchor="start" x="69" y="-51.5" font-family="Helvetica,sans-Serif" font-size="10.00">+ s()</text>
<text text-anchor="start" x="69" y="-40.5" font-family="Helvetica,sans-Serif" font-size="10.00">+ s̃()</text>
<text text-anchor="start" x="69" y="-29.5" font-family="Helvetica,sans-Serif" font-size="10.00">+ s̃()</text>
<text text-anchor="start" x="69" y="-18.5" font-family="Helvetica,sans-Serif" font-size="10.00">+ foreach_fwd()</text>
<text text-anchor="start" x="69" y="-7.5" font-family="Helvetica,sans-Serif" font-size="10.00">+ foreach_rev()</text>
</a>
</g>
</g>
<!-- Node2 -->
<g id="node2" class="node">
<title>Node2</title>
<g id="a_node2"><a xlink:href="structquala_1_1BroydenStorage.html" target="_top" xlink:title="Layout:">
<polygon fill="white" stroke="black" points="0,-325.5 0,-470.5 95,-470.5 95,-325.5 0,-325.5"/>
<text text-anchor="middle" x="47.5" y="-458.5" font-family="Helvetica,sans-Serif" font-size="10.00">BroydenStorage</text>
<polyline fill="none" stroke="black" points="0,-451.5 95,-451.5 "/>
<text text-anchor="start" x="8" y="-439.5" font-family="Helvetica,sans-Serif" font-size="10.00">+ sto</text>
<polyline fill="none" stroke="black" points="0,-432.5 95,-432.5 "/>
<text text-anchor="start" x="8" y="-420.5" font-family="Helvetica,sans-Serif" font-size="10.00">+ resize()</text>
<text text-anchor="start" x="8" y="-409.5" font-family="Helvetica,sans-Serif" font-size="10.00">+ n()</text>
<text text-anchor="start" x="8" y="-398.5" font-family="Helvetica,sans-Serif" font-size="10.00">+ history()</text>
<text text-anchor="start" x="8" y="-387.5" font-family="Helvetica,sans-Serif" font-size="10.00">+ s()</text>
<text text-anchor="start" x="8" y="-376.5" font-family="Helvetica,sans-Serif" font-size="10.00">+ s()</text>
<text text-anchor="start" x="8" y="-365.5" font-family="Helvetica,sans-Serif" font-size="10.00">+ s̃()</text>
<text text-anchor="start" x="8" y="-354.5" font-family="Helvetica,sans-Serif" font-size="10.00">+ s̃()</text>
<text text-anchor="start" x="8" y="-343.5" font-family="Helvetica,sans-Serif" font-size="10.00">+ work()</text>
<text text-anchor="start" x="8" y="-332.5" font-family="Helvetica,sans-Serif" font-size="10.00">+ work()</text>
</a>
</g>
</g>
<!-- Node2&#45;&gt;Node1 -->
<g id="edge1" class="edge">
<title>Node2&#45;&gt;Node1</title>
<path fill="none" stroke="#404040" d="M66.44,-325.41C69.45,-314.04 72.65,-301.93 75.93,-289.55"/>
<polygon fill="none" stroke="#404040" points="76.02,-289.21 73.69,-282.39 79.09,-277.61 81.42,-284.44 76.02,-289.21"/>
<text text-anchor="middle" x="84.5" y="-299" font-family="Helvetica,sans-Serif" font-size="10.00"> &#45;sto</text>
</g>
<!-- Node3 -->
<g id="node3" class="node">
<title>Node3</title>
<g id="a_node3"><a xlink:href="namespacequala.html#structquala_1_1BroydenGoodParams" target="_top" xlink:title="Parameters for the BroydenGood class.">
<polygon fill="white" stroke="black" points="113.5,-347.5 113.5,-448.5 255.5,-448.5 255.5,-347.5 113.5,-347.5"/>
<text text-anchor="middle" x="184.5" y="-436.5" font-family="Helvetica,sans-Serif" font-size="10.00">BroydenGoodParams</text>
<polyline fill="none" stroke="black" points="113.5,-429.5 255.5,-429.5 "/>
<text text-anchor="start" x="121.5" y="-417.5" font-family="Helvetica,sans-Serif" font-size="10.00">+ memory</text>
<text text-anchor="start" x="121.5" y="-406.5" font-family="Helvetica,sans-Serif" font-size="10.00">+ min_div_abs</text>
<text text-anchor="start" x="121.5" y="-395.5" font-family="Helvetica,sans-Serif" font-size="10.00">+ force_pos_def</text>
<text text-anchor="start" x="121.5" y="-384.5" font-family="Helvetica,sans-Serif" font-size="10.00">+ restarted</text>
<text text-anchor="start" x="121.5" y="-373.5" font-family="Helvetica,sans-Serif" font-size="10.00">+ powell_damping_factor</text>
<polyline fill="none" stroke="black" points="113.5,-366.5 255.5,-366.5 "/>
<text text-anchor="middle" x="184.5" y="-354.5" font-family="Helvetica,sans-Serif" font-size="10.00"> </text>
</a>
</g>
</g>
<!-- Node3&#45;&gt;Node1 -->
<g id="edge2" class="edge">
<title>Node3&#45;&gt;Node1</title>
<path fill="none" stroke="#404040" d="M171.2,-347.45C166.6,-330.34 161.19,-310.19 155.58,-289.28"/>
<polygon fill="none" stroke="#404040" points="155.55,-289.19 150.14,-284.43 152.44,-277.6 157.86,-282.36 155.55,-289.19"/>
<text text-anchor="middle" x="181.5" y="-299" font-family="Helvetica,sans-Serif" font-size="10.00"> &#45;params</text>
</g>
</g>
</svg>
