<?xml version="1.0" encoding="UTF-8" standalone="no"?>
<!DOCTYPE svg PUBLIC "-//W3C//DTD SVG 1.1//EN"
 "http://www.w3.org/Graphics/SVG/1.1/DTD/svg11.dtd">
<!-- Generated by graphviz version 2.43.0 (0)
 -->
<!-- Title: free Pages: 1 -->
<svg width="267pt" height="88pt"
 viewBox="0.00 0.00 267.00 88.00" xmlns="http://www.w3.org/2000/svg" xmlns:xlink="http://www.w3.org/1999/xlink">
<g id="graph0" class="graph" transform="scale(1 1) rotate(0) translate(4 84)">
<title>free</title>
<polygon fill="white" stroke="transparent" points="-4,4 -4,-84 263,-84 263,4 -4,4"/>
<!-- Node1 -->
<g id="node1" class="node">
<title>Node1</title>
<g id="a_node1"><a xlink:title=" ">
<polygon fill="#bfbfbf" stroke="black" points="0,-30 0,-49 36,-49 36,-30 0,-30"/>
<text text-anchor="middle" x="18" y="-37" font-family="Helvetica,sans-Serif" font-size="10.00">free</text>
</a>
</g>
</g>
<!-- Node2 -->
<g id="node2" class="node">
<title>Node2</title>
<g id="a_node2"><a xlink:href="classquala_1_1vec__allocator.html#a455bb0797853d67addd58875c671acef" target="_top" xlink:title=" ">
<polygon fill="white" stroke="black" points="72,-30 72,-49 108,-49 108,-30 72,-30"/>
<text text-anchor="middle" x="90" y="-37" font-family="Helvetica,sans-Serif" font-size="10.00">free</text>
</a>
</g>
</g>
<!-- Node1&#45;&gt;Node2 -->
<g id="edge1" class="edge">
<title>Node1&#45;&gt;Node2</title>
<path fill="none" stroke="midnightblue" d="M36.3,-39.5C44.02,-39.5 53.29,-39.5 61.89,-39.5"/>
<polygon fill="midnightblue" stroke="midnightblue" points="61.9,-43 71.9,-39.5 61.9,-36 61.9,-43"/>
</g>
<!-- Node3 -->
<g id="node3" class="node">
<title>Node3</title>
<g id="a_node3"><a xlink:href="structquala_1_1vec__allocator_1_1findstack.html#ad950587c89b4306f927b08b5e5cb7e89" target="_top" xlink:title=" ">
<polygon fill="white" stroke="black" points="144,-49.5 144,-79.5 259,-79.5 259,-49.5 144,-49.5"/>
<text text-anchor="start" x="152" y="-67.5" font-family="Helvetica,sans-Serif" font-size="10.00">quala::vec_allocator</text>
<text text-anchor="middle" x="201.5" y="-56.5" font-family="Helvetica,sans-Serif" font-size="10.00">::findstack::begin</text>
</a>
</g>
</g>
<!-- Node2&#45;&gt;Node3 -->
<g id="edge2" class="edge">
<title>Node2&#45;&gt;Node3</title>
<path fill="none" stroke="midnightblue" d="M108.11,-43.41C115.34,-45.06 124.27,-47.1 133.7,-49.25"/>
<polygon fill="midnightblue" stroke="midnightblue" points="133.14,-52.71 143.67,-51.52 134.7,-45.89 133.14,-52.71"/>
</g>
<!-- Node4 -->
<g id="node4" class="node">
<title>Node4</title>
<g id="a_node4"><a xlink:href="structquala_1_1vec__allocator_1_1findstack.html#a7727305d5e1ec66a181e22c43af9a581" target="_top" xlink:title=" ">
<polygon fill="white" stroke="black" points="144,-0.5 144,-30.5 259,-30.5 259,-0.5 144,-0.5"/>
<text text-anchor="start" x="152" y="-18.5" font-family="Helvetica,sans-Serif" font-size="10.00">quala::vec_allocator</text>
<text text-anchor="middle" x="201.5" y="-7.5" font-family="Helvetica,sans-Serif" font-size="10.00">::findstack::end</text>
</a>
</g>
</g>
<!-- Node2&#45;&gt;Node4 -->
<g id="edge3" class="edge">
<title>Node2&#45;&gt;Node4</title>
<path fill="none" stroke="midnightblue" d="M108.11,-35.75C115.34,-34.16 124.27,-32.21 133.7,-30.14"/>
<polygon fill="midnightblue" stroke="midnightblue" points="134.65,-33.52 143.67,-27.96 133.15,-26.68 134.65,-33.52"/>
</g>
</g>
</svg>
