<?xml version="1.0" encoding="UTF-8" standalone="no"?>
<!DOCTYPE svg PUBLIC "-//W3C//DTD SVG 1.1//EN"
 "http://www.w3.org/Graphics/SVG/1.1/DTD/svg11.dtd">
<!-- Generated by graphviz version 2.43.0 (0)
 -->
<!-- Title: end Pages: 1 -->
<svg width="431pt" height="170pt"
 viewBox="0.00 0.00 431.00 170.00" xmlns="http://www.w3.org/2000/svg" xmlns:xlink="http://www.w3.org/1999/xlink">
<g id="graph0" class="graph" transform="scale(1 1) rotate(0) translate(4 166)">
<title>end</title>
<polygon fill="white" stroke="transparent" points="-4,4 -4,-166 427,-166 427,4 -4,4"/>
<!-- Node1 -->
<g id="node1" class="node">
<title>Node1</title>
<g id="a_node1"><a xlink:title=" ">
<polygon fill="#bfbfbf" stroke="black" points="388,-69 388,-88 423,-88 423,-69 388,-69"/>
<text text-anchor="middle" x="405.5" y="-76" font-family="Helvetica,sans-Serif" font-size="10.00">end</text>
</a>
</g>
</g>
<!-- Node2 -->
<g id="node2" class="node">
<title>Node2</title>
<g id="a_node2"><a xlink:href="classquala_1_1CircularRange.html#a93791e61ab486b4022c389d634b4facc" target="_top" xlink:title=" ">
<polygon fill="white" stroke="black" points="253,-131 253,-150 293,-150 293,-131 253,-131"/>
<text text-anchor="middle" x="273" y="-138" font-family="Helvetica,sans-Serif" font-size="10.00">cend</text>
</a>
</g>
</g>
<!-- Node1&#45;&gt;Node2 -->
<g id="edge1" class="edge">
<title>Node1&#45;&gt;Node2</title>
<path fill="none" stroke="midnightblue" d="M385.52,-94.58C375.95,-102.05 363.87,-110.58 352,-116.5 332.98,-125.98 309.47,-132.59 293.26,-136.44"/>
<polygon fill="midnightblue" stroke="midnightblue" points="387.94,-97.11 393.52,-88.11 383.54,-91.67 387.94,-97.11"/>
</g>
<!-- Node4 -->
<g id="node4" class="node">
<title>Node4</title>
<g id="a_node4"><a xlink:href="classquala_1_1CircularRange.html#a81f80a31923e85af56a7b1ae0712a33b" target="_top" xlink:title=" ">
<polygon fill="white" stroke="black" points="246.5,-88 246.5,-107 299.5,-107 299.5,-88 246.5,-88"/>
<text text-anchor="middle" x="273" y="-95" font-family="Helvetica,sans-Serif" font-size="10.00">crbegin</text>
</a>
</g>
</g>
<!-- Node1&#45;&gt;Node4 -->
<g id="edge3" class="edge">
<title>Node1&#45;&gt;Node4</title>
<path fill="none" stroke="midnightblue" d="M377.95,-82.36C355.14,-85.69 322.43,-90.45 299.83,-93.74"/>
<polygon fill="midnightblue" stroke="midnightblue" points="378.58,-85.81 387.97,-80.91 377.57,-78.88 378.58,-85.81"/>
</g>
<!-- Node6 -->
<g id="node6" class="node">
<title>Node6</title>
<g id="a_node6"><a xlink:href="classquala_1_1CircularRange.html#a4da62c698565a7f1bab4a15a86b167e1" target="_top" xlink:title=" ">
<polygon fill="white" stroke="black" points="249.5,-50 249.5,-69 296.5,-69 296.5,-50 249.5,-50"/>
<text text-anchor="middle" x="273" y="-57" font-family="Helvetica,sans-Serif" font-size="10.00">rbegin</text>
</a>
</g>
</g>
<!-- Node1&#45;&gt;Node6 -->
<g id="edge5" class="edge">
<title>Node1&#45;&gt;Node6</title>
<path fill="none" stroke="midnightblue" d="M377.81,-74.61C353.85,-71.13 319.09,-66.06 296.51,-62.78"/>
<polygon fill="midnightblue" stroke="midnightblue" points="377.57,-78.12 387.97,-76.09 378.58,-71.19 377.57,-78.12"/>
</g>
<!-- Node8 -->
<g id="node8" class="node">
<title>Node8</title>
<g id="a_node8"><a xlink:href="classquala_1_1ReverseCircularRange.html#ab3fe1cdacc9a53cc2d0cbe27599036c4" target="_top" xlink:title=" ">
<polygon fill="white" stroke="black" points="194,-0.5 194,-30.5 352,-30.5 352,-0.5 194,-0.5"/>
<text text-anchor="start" x="202" y="-18.5" font-family="Helvetica,sans-Serif" font-size="10.00">quala::ReverseCircularRange</text>
<text text-anchor="middle" x="273" y="-7.5" font-family="Helvetica,sans-Serif" font-size="10.00">::rend</text>
</a>
</g>
</g>
<!-- Node1&#45;&gt;Node8 -->
<g id="edge7" class="edge">
<title>Node1&#45;&gt;Node8</title>
<path fill="none" stroke="midnightblue" d="M385.49,-62.48C375.91,-55.02 363.84,-46.49 352,-40.5 344.64,-36.78 336.61,-33.46 328.6,-30.55"/>
<polygon fill="midnightblue" stroke="midnightblue" points="383.52,-65.39 393.5,-68.93 387.9,-59.94 383.52,-65.39"/>
</g>
<!-- Node3 -->
<g id="node3" class="node">
<title>Node3</title>
<g id="a_node3"><a xlink:href="classquala_1_1ReverseCircularRange.html#abef9dfc7607c7e1a3854788ba56a4f34" target="_top" xlink:title=" ">
<polygon fill="white" stroke="black" points="0,-131.5 0,-161.5 158,-161.5 158,-131.5 0,-131.5"/>
<text text-anchor="start" x="8" y="-149.5" font-family="Helvetica,sans-Serif" font-size="10.00">quala::ReverseCircularRange</text>
<text text-anchor="middle" x="79" y="-138.5" font-family="Helvetica,sans-Serif" font-size="10.00">::crend</text>
</a>
</g>
</g>
<!-- Node2&#45;&gt;Node3 -->
<g id="edge2" class="edge">
<title>Node2&#45;&gt;Node3</title>
<path fill="none" stroke="midnightblue" d="M242.69,-141.42C220.22,-142.12 188.13,-143.12 158.38,-144.05"/>
<polygon fill="midnightblue" stroke="midnightblue" points="243,-144.91 252.89,-141.1 242.78,-137.91 243,-144.91"/>
</g>
<!-- Node5 -->
<g id="node5" class="node">
<title>Node5</title>
<g id="a_node5"><a xlink:href="classquala_1_1ReverseCircularRange.html#a39112ae08f6ffc7ee58c6aa79772e094" target="_top" xlink:title=" ">
<polygon fill="white" stroke="black" points="0,-82.5 0,-112.5 158,-112.5 158,-82.5 0,-82.5"/>
<text text-anchor="start" x="8" y="-100.5" font-family="Helvetica,sans-Serif" font-size="10.00">quala::ReverseCircularRange</text>
<text text-anchor="middle" x="79" y="-89.5" font-family="Helvetica,sans-Serif" font-size="10.00">::cbegin</text>
</a>
</g>
</g>
<!-- Node4&#45;&gt;Node5 -->
<g id="edge4" class="edge">
<title>Node4&#45;&gt;Node5</title>
<path fill="none" stroke="midnightblue" d="M235.92,-97.5C213.96,-97.5 185.03,-97.5 158.06,-97.5"/>
<polygon fill="midnightblue" stroke="midnightblue" points="236.11,-101 246.11,-97.5 236.11,-94 236.11,-101"/>
</g>
<!-- Node7 -->
<g id="node7" class="node">
<title>Node7</title>
<g id="a_node7"><a xlink:href="classquala_1_1ReverseCircularRange.html#a0c62c15c8ed609e7e5e9518cf5f5c712" target="_top" xlink:title=" ">
<polygon fill="white" stroke="black" points="0,-33.5 0,-63.5 158,-63.5 158,-33.5 0,-33.5"/>
<text text-anchor="start" x="8" y="-51.5" font-family="Helvetica,sans-Serif" font-size="10.00">quala::ReverseCircularRange</text>
<text text-anchor="middle" x="79" y="-40.5" font-family="Helvetica,sans-Serif" font-size="10.00">::begin</text>
</a>
</g>
</g>
<!-- Node6&#45;&gt;Node7 -->
<g id="edge6" class="edge">
<title>Node6&#45;&gt;Node7</title>
<path fill="none" stroke="midnightblue" d="M239.01,-57.61C216.81,-56.34 186.56,-54.61 158.4,-52.99"/>
<polygon fill="midnightblue" stroke="midnightblue" points="239.04,-61.12 249.22,-58.19 239.44,-54.13 239.04,-61.12"/>
</g>
</g>
</svg>
