<?xml version="1.0" encoding="UTF-8" standalone="no"?>
<!DOCTYPE svg PUBLIC "-//W3C//DTD SVG 1.1//EN"
 "http://www.w3.org/Graphics/SVG/1.1/DTD/svg11.dtd">
<!-- Generated by graphviz version 2.43.0 (0)
 -->
<!-- Title: s Pages: 1 -->
<svg width="226pt" height="104pt"
 viewBox="0.00 0.00 226.00 104.00" xmlns="http://www.w3.org/2000/svg" xmlns:xlink="http://www.w3.org/1999/xlink">
<g id="graph0" class="graph" transform="scale(1 1) rotate(0) translate(4 100)">
<title>s</title>
<polygon fill="white" stroke="transparent" points="-4,4 -4,-100 222,-100 222,4 -4,4"/>
<!-- Node1 -->
<g id="node1" class="node">
<title>Node1</title>
<g id="a_node1"><a xlink:title=" ">
<polygon fill="#bfbfbf" stroke="black" points="189,-38.5 189,-57.5 218,-57.5 218,-38.5 189,-38.5"/>
<text text-anchor="middle" x="203.5" y="-45.5" font-family="Helvetica,sans-Serif" font-size="10.00">s</text>
</a>
</g>
</g>
<!-- Node2 -->
<g id="node2" class="node">
<title>Node2</title>
<g id="a_node2"><a xlink:href="classquala_1_1BroydenGood.html#af3b5886c46c3f50fae33990afcc47f12" target="_top" xlink:title="Apply the inverse Jacobian approximation to the given vector q, i.e.">
<polygon fill="white" stroke="black" points="97.5,-76.5 97.5,-95.5 141.5,-95.5 141.5,-76.5 97.5,-76.5"/>
<text text-anchor="middle" x="119.5" y="-83.5" font-family="Helvetica,sans-Serif" font-size="10.00">apply</text>
</a>
</g>
</g>
<!-- Node1&#45;&gt;Node2 -->
<g id="edge1" class="edge">
<title>Node1&#45;&gt;Node2</title>
<path fill="none" stroke="midnightblue" d="M179.56,-58.63C167.5,-64.22 152.84,-71.01 141.14,-76.44"/>
<polygon fill="midnightblue" stroke="midnightblue" points="181.36,-61.66 188.96,-54.27 178.41,-55.3 181.36,-61.66"/>
</g>
<!-- Node3 -->
<g id="node3" class="node">
<title>Node3</title>
<g id="a_node3"><a xlink:href="classquala_1_1BroydenGood.html#a1380d11b100437c5d8d8fc21be5ea7b6" target="_top" xlink:title="Update the inverse Jacobian approximation using the new vectors xₖ₊₁ and pₖ₊₁.">
<polygon fill="white" stroke="black" points="0,-19.5 0,-38.5 50,-38.5 50,-19.5 0,-19.5"/>
<text text-anchor="middle" x="25" y="-26.5" font-family="Helvetica,sans-Serif" font-size="10.00">update</text>
</a>
</g>
</g>
<!-- Node1&#45;&gt;Node3 -->
<g id="edge2" class="edge">
<title>Node1&#45;&gt;Node3</title>
<path fill="none" stroke="midnightblue" d="M178.66,-45.43C144.99,-41.81 83.85,-35.23 50.06,-31.59"/>
<polygon fill="midnightblue" stroke="midnightblue" points="178.63,-48.95 188.94,-46.54 179.38,-41.99 178.63,-48.95"/>
</g>
<!-- Node4 -->
<g id="node4" class="node">
<title>Node4</title>
<g id="a_node4"><a xlink:href="classquala_1_1BroydenGood.html#ad2320a49a7db3abb42d0c621a6a932bd" target="_top" xlink:title="Update the inverse Jacobian approximation using the new vectors sₖ = xₖ₊₁ &#45; xₖ and yₖ = pₖ₊₁ &#45; pₖ.">
<polygon fill="white" stroke="black" points="86,-0.5 86,-19.5 153,-19.5 153,-0.5 86,-0.5"/>
<text text-anchor="middle" x="119.5" y="-7.5" font-family="Helvetica,sans-Serif" font-size="10.00">update_sy</text>
</a>
</g>
</g>
<!-- Node1&#45;&gt;Node4 -->
<g id="edge3" class="edge">
<title>Node1&#45;&gt;Node4</title>
<path fill="none" stroke="midnightblue" d="M179.56,-37.37C167.5,-31.78 152.84,-24.99 141.14,-19.56"/>
<polygon fill="midnightblue" stroke="midnightblue" points="178.41,-40.7 188.96,-41.73 181.36,-34.34 178.41,-40.7"/>
</g>
<!-- Node4&#45;&gt;Node3 -->
<g id="edge4" class="edge">
<title>Node4&#45;&gt;Node3</title>
<path fill="none" stroke="midnightblue" d="M76.03,-18.72C67.16,-20.55 58.1,-22.41 50.18,-24.03"/>
<polygon fill="midnightblue" stroke="midnightblue" points="76.8,-22.14 85.89,-16.7 75.39,-15.28 76.8,-22.14"/>
</g>
</g>
</svg>
