<?xml version="1.0" encoding="UTF-8" standalone="no"?>
<!DOCTYPE svg PUBLIC "-//W3C//DTD SVG 1.1//EN"
 "http://www.w3.org/Graphics/SVG/1.1/DTD/svg11.dtd">
<!-- Generated by graphviz version 2.43.0 (0)
 -->
<!-- Title: ρ Pages: 1 -->
<svg width="289pt" height="104pt"
 viewBox="0.00 0.00 289.00 104.00" xmlns="http://www.w3.org/2000/svg" xmlns:xlink="http://www.w3.org/1999/xlink">
<g id="graph0" class="graph" transform="scale(1 1) rotate(0) translate(4 100)">
<title>ρ</title>
<polygon fill="white" stroke="transparent" points="-4,4 -4,-100 285,-100 285,4 -4,4"/>
<!-- Node1 -->
<g id="node1" class="node">
<title>Node1</title>
<g id="a_node1"><a xlink:title=" ">
<polygon fill="#bfbfbf" stroke="black" points="252,-38.5 252,-57.5 281,-57.5 281,-38.5 252,-38.5"/>
<text text-anchor="middle" x="266.5" y="-45.5" font-family="Helvetica,sans-Serif" font-size="10.00">ρ</text>
</a>
</g>
</g>
<!-- Node2 -->
<g id="node2" class="node">
<title>Node2</title>
<g id="a_node2"><a xlink:href="classquala_1_1LBFGS.html#a9ae2b583badddda6ec2917bb565688c3" target="_top" xlink:title="Apply the inverse Hessian approximation to the given vector q.">
<polygon fill="white" stroke="black" points="160.5,-76.5 160.5,-95.5 204.5,-95.5 204.5,-76.5 160.5,-76.5"/>
<text text-anchor="middle" x="182.5" y="-83.5" font-family="Helvetica,sans-Serif" font-size="10.00">apply</text>
</a>
</g>
</g>
<!-- Node1&#45;&gt;Node2 -->
<g id="edge1" class="edge">
<title>Node1&#45;&gt;Node2</title>
<path fill="none" stroke="midnightblue" d="M242.56,-58.63C230.5,-64.22 215.84,-71.01 204.14,-76.44"/>
<polygon fill="midnightblue" stroke="midnightblue" points="244.36,-61.66 251.96,-54.27 241.41,-55.3 244.36,-61.66"/>
</g>
<!-- Node3 -->
<g id="node3" class="node">
<title>Node3</title>
<g id="a_node3"><a xlink:href="classquala_1_1LBFGS.html#adeddc1e1eb8ce1c1bbaf931b6f9a5b9c" target="_top" xlink:title="Scale the stored y vectors by the given factor.">
<polygon fill="white" stroke="black" points="156,-38.5 156,-57.5 209,-57.5 209,-38.5 156,-38.5"/>
<text text-anchor="middle" x="182.5" y="-45.5" font-family="Helvetica,sans-Serif" font-size="10.00">scale_y</text>
</a>
</g>
</g>
<!-- Node1&#45;&gt;Node3 -->
<g id="edge2" class="edge">
<title>Node1&#45;&gt;Node3</title>
<path fill="none" stroke="midnightblue" d="M241.77,-48C231.6,-48 219.71,-48 209.33,-48"/>
<polygon fill="midnightblue" stroke="midnightblue" points="241.96,-51.5 251.96,-48 241.96,-44.5 241.96,-51.5"/>
</g>
<!-- Node5 -->
<g id="node5" class="node">
<title>Node5</title>
<g id="a_node5"><a xlink:href="classquala_1_1LBFGS.html#aa54be34168109d2e4995711cbd5f5ad8" target="_top" xlink:title="Update the inverse Hessian approximation using the new vectors sₖ = xₖ₊₁ &#45; xₖ and yₖ = pₖ₊₁ &#45; pₖ.">
<polygon fill="white" stroke="black" points="149,-0.5 149,-19.5 216,-19.5 216,-0.5 149,-0.5"/>
<text text-anchor="middle" x="182.5" y="-7.5" font-family="Helvetica,sans-Serif" font-size="10.00">update_sy</text>
</a>
</g>
</g>
<!-- Node1&#45;&gt;Node5 -->
<g id="edge4" class="edge">
<title>Node1&#45;&gt;Node5</title>
<path fill="none" stroke="midnightblue" d="M242.56,-37.37C230.5,-31.78 215.84,-24.99 204.14,-19.56"/>
<polygon fill="midnightblue" stroke="midnightblue" points="241.41,-40.7 251.96,-41.73 244.36,-34.34 241.41,-40.7"/>
</g>
<!-- Node4 -->
<g id="node4" class="node">
<title>Node4</title>
<g id="a_node4"><a xlink:href="quala_8cpp.html#a12fb4e87da488d1fc7c6fa3e6a3adb90" target="_top" xlink:title=" ">
<polygon fill="white" stroke="black" points="0,-38.5 0,-57.5 113,-57.5 113,-38.5 0,-38.5"/>
<text text-anchor="middle" x="56.5" y="-45.5" font-family="Helvetica,sans-Serif" font-size="10.00">PYBIND11_MODULE</text>
</a>
</g>
</g>
<!-- Node3&#45;&gt;Node4 -->
<g id="edge3" class="edge">
<title>Node3&#45;&gt;Node4</title>
<path fill="none" stroke="midnightblue" d="M145.67,-48C135.48,-48 124.14,-48 113.07,-48"/>
<polygon fill="midnightblue" stroke="midnightblue" points="145.81,-51.5 155.81,-48 145.81,-44.5 145.81,-51.5"/>
</g>
<!-- Node6 -->
<g id="node6" class="node">
<title>Node6</title>
<g id="a_node6"><a xlink:href="classquala_1_1LBFGS.html#aa32c5f2c6818c5d54b9fcd1c019a4e1d" target="_top" xlink:title="Update the inverse Hessian approximation using the new vectors xₖ₊₁ and pₖ₊₁.">
<polygon fill="white" stroke="black" points="31.5,-0.5 31.5,-19.5 81.5,-19.5 81.5,-0.5 31.5,-0.5"/>
<text text-anchor="middle" x="56.5" y="-7.5" font-family="Helvetica,sans-Serif" font-size="10.00">update</text>
</a>
</g>
</g>
<!-- Node5&#45;&gt;Node6 -->
<g id="edge5" class="edge">
<title>Node5&#45;&gt;Node6</title>
<path fill="none" stroke="midnightblue" d="M138.92,-10C119.78,-10 97.89,-10 81.63,-10"/>
<polygon fill="midnightblue" stroke="midnightblue" points="138.92,-13.5 148.92,-10 138.92,-6.5 138.92,-13.5"/>
</g>
</g>
</svg>
