<?xml version="1.0" encoding="UTF-8" standalone="no"?>
<!DOCTYPE svg PUBLIC "-//W3C//DTD SVG 1.1//EN"
 "http://www.w3.org/Graphics/SVG/1.1/DTD/svg11.dtd">
<!-- Generated by graphviz version 2.43.0 (0)
 -->
<!-- Title: resize Pages: 1 -->
<svg width="394pt" height="116pt"
 viewBox="0.00 0.00 394.00 115.50" xmlns="http://www.w3.org/2000/svg" xmlns:xlink="http://www.w3.org/1999/xlink">
<g id="graph0" class="graph" transform="scale(1 1) rotate(0) translate(4 111.5)">
<title>resize</title>
<polygon fill="white" stroke="transparent" points="-4,4 -4,-111.5 390,-111.5 390,4 -4,4"/>
<!-- Node1 -->
<g id="node1" class="node">
<title>Node1</title>
<g id="a_node1"><a xlink:title="Re&#45;allocate storage for a problem with a different size.">
<polygon fill="#bfbfbf" stroke="black" points="0,-50 0,-69 46,-69 46,-50 0,-50"/>
<text text-anchor="middle" x="23" y="-57" font-family="Helvetica,sans-Serif" font-size="10.00">resize</text>
</a>
</g>
</g>
<!-- Node2 -->
<g id="node2" class="node">
<title>Node2</title>
<g id="a_node2"><a xlink:href="classquala_1_1BroydenGood.html#a727afc7a58d2e44ae7add57e3fa77bc6" target="_top" xlink:title="Get the size of the s and y vectors in the buffer.">
<polygon fill="white" stroke="black" points="131.5,-88 131.5,-107 160.5,-107 160.5,-88 131.5,-88"/>
<text text-anchor="middle" x="146" y="-95" font-family="Helvetica,sans-Serif" font-size="10.00">n</text>
</a>
</g>
</g>
<!-- Node1&#45;&gt;Node2 -->
<g id="edge1" class="edge">
<title>Node1&#45;&gt;Node2</title>
<path fill="none" stroke="midnightblue" d="M46.27,-66.93C57.04,-70.49 70.17,-74.78 82,-78.5 95.15,-82.64 109.9,-87.09 121.82,-90.65"/>
<polygon fill="midnightblue" stroke="midnightblue" points="120.87,-94.02 131.45,-93.52 122.86,-87.31 120.87,-94.02"/>
</g>
<!-- Node4 -->
<g id="node4" class="node">
<title>Node4</title>
<g id="a_node4"><a xlink:href="classquala_1_1BroydenGood.html#ad20897c5c8bd47f5d4005989bead0e55" target="_top" xlink:title="Throw away the approximation and all previous vectors s and y.">
<polygon fill="white" stroke="black" points="125.5,-50 125.5,-69 166.5,-69 166.5,-50 125.5,-50"/>
<text text-anchor="middle" x="146" y="-57" font-family="Helvetica,sans-Serif" font-size="10.00">reset</text>
</a>
</g>
</g>
<!-- Node1&#45;&gt;Node4 -->
<g id="edge3" class="edge">
<title>Node1&#45;&gt;Node4</title>
<path fill="none" stroke="midnightblue" d="M46.19,-59.5C65.57,-59.5 93.85,-59.5 115.2,-59.5"/>
<polygon fill="midnightblue" stroke="midnightblue" points="115.35,-63 125.35,-59.5 115.35,-56 115.35,-63"/>
</g>
<!-- Node5 -->
<g id="node5" class="node">
<title>Node5</title>
<g id="a_node5"><a xlink:href="structquala_1_1BroydenStorage.html#a48072fa680a2364d8ce96eb84a5d5689" target="_top" xlink:title="Re&#45;allocate storage for a problem with a different size.">
<polygon fill="white" stroke="black" points="82,-0.5 82,-30.5 210,-30.5 210,-0.5 82,-0.5"/>
<text text-anchor="start" x="90" y="-18.5" font-family="Helvetica,sans-Serif" font-size="10.00">quala::BroydenStorage</text>
<text text-anchor="middle" x="146" y="-7.5" font-family="Helvetica,sans-Serif" font-size="10.00">::resize</text>
</a>
</g>
</g>
<!-- Node1&#45;&gt;Node5 -->
<g id="edge4" class="edge">
<title>Node1&#45;&gt;Node5</title>
<path fill="none" stroke="midnightblue" d="M46.19,-51.43C59.54,-46.58 77.11,-40.19 93.73,-34.14"/>
<polygon fill="midnightblue" stroke="midnightblue" points="95.16,-37.35 103.36,-30.64 92.77,-30.77 95.16,-37.35"/>
</g>
<!-- Node3 -->
<g id="node3" class="node">
<title>Node3</title>
<g id="a_node3"><a xlink:href="structquala_1_1BroydenStorage.html#a727afc7a58d2e44ae7add57e3fa77bc6" target="_top" xlink:title="Get the size of the s and s̃ vectors in the buffer.">
<polygon fill="white" stroke="black" points="246,-69 246,-88 386,-88 386,-69 246,-69"/>
<text text-anchor="middle" x="316" y="-76" font-family="Helvetica,sans-Serif" font-size="10.00">quala::BroydenStorage::n</text>
</a>
</g>
</g>
<!-- Node2&#45;&gt;Node3 -->
<g id="edge2" class="edge">
<title>Node2&#45;&gt;Node3</title>
<path fill="none" stroke="midnightblue" d="M160.75,-95.95C177.43,-94.06 206.91,-90.72 235.66,-87.47"/>
<polygon fill="midnightblue" stroke="midnightblue" points="236.23,-90.93 245.78,-86.33 235.45,-83.97 236.23,-90.93"/>
</g>
<!-- Node5&#45;&gt;Node3 -->
<g id="edge6" class="edge">
<title>Node5&#45;&gt;Node3</title>
<path fill="none" stroke="midnightblue" d="M187.24,-30.59C215.51,-41.19 252.96,-55.23 279.99,-65.37"/>
<polygon fill="midnightblue" stroke="midnightblue" points="278.85,-68.68 289.45,-68.92 281.31,-62.13 278.85,-68.68"/>
</g>
<!-- Node6 -->
<g id="node6" class="node">
<title>Node6</title>
<g id="a_node6"><a xlink:href="structquala_1_1BroydenStorage.html#a9cf7dcccbc3bc69a10833450ee79c623" target="_top" xlink:title="Get the number of previous vectors s and s̃ stored in the buffer.">
<polygon fill="white" stroke="black" points="252,-0.5 252,-30.5 380,-30.5 380,-0.5 252,-0.5"/>
<text text-anchor="start" x="260" y="-18.5" font-family="Helvetica,sans-Serif" font-size="10.00">quala::BroydenStorage</text>
<text text-anchor="middle" x="316" y="-7.5" font-family="Helvetica,sans-Serif" font-size="10.00">::history</text>
</a>
</g>
</g>
<!-- Node5&#45;&gt;Node6 -->
<g id="edge5" class="edge">
<title>Node5&#45;&gt;Node6</title>
<path fill="none" stroke="midnightblue" d="M210.03,-15.5C220.41,-15.5 231.23,-15.5 241.83,-15.5"/>
<polygon fill="midnightblue" stroke="midnightblue" points="241.89,-19 251.89,-15.5 241.89,-12 241.89,-19"/>
</g>
</g>
</svg>
