<?xml version="1.0" encoding="UTF-8" standalone="no"?>
<!DOCTYPE svg PUBLIC "-//W3C//DTD SVG 1.1//EN"
 "http://www.w3.org/Graphics/SVG/1.1/DTD/svg11.dtd">
<!-- Generated by graphviz version 2.43.0 (0)
 -->
<!-- Title: ring_tail Pages: 1 -->
<svg width="392pt" height="88pt"
 viewBox="0.00 0.00 392.00 88.00" xmlns="http://www.w3.org/2000/svg" xmlns:xlink="http://www.w3.org/1999/xlink">
<g id="graph0" class="graph" transform="scale(1 1) rotate(0) translate(4 84)">
<title>ring_tail</title>
<polygon fill="white" stroke="transparent" points="-4,4 -4,-84 388,-84 388,4 -4,4"/>
<!-- Node1 -->
<g id="node1" class="node">
<title>Node1</title>
<g id="a_node1"><a xlink:title="Get the tail index of the circular buffer (points to one past the most recent element).">
<polygon fill="#bfbfbf" stroke="black" points="328,-30 328,-49 384,-49 384,-30 328,-30"/>
<text text-anchor="middle" x="356" y="-37" font-family="Helvetica,sans-Serif" font-size="10.00">ring_tail</text>
</a>
</g>
</g>
<!-- Node2 -->
<g id="node2" class="node">
<title>Node2</title>
<g id="a_node2"><a xlink:href="namespacequala.html#adfa7dfa28551cd76de954d1e5e58385c" target="_top" xlink:title="Solve one step of Anderson acceleration to find a fixed point of a function g(x):">
<polygon fill="white" stroke="black" points="158,-49.5 158,-79.5 292,-79.5 292,-49.5 158,-49.5"/>
<text text-anchor="start" x="166" y="-67.5" font-family="Helvetica,sans-Serif" font-size="10.00">quala::minimize_update</text>
<text text-anchor="middle" x="225" y="-56.5" font-family="Helvetica,sans-Serif" font-size="10.00">_anderson</text>
</a>
</g>
</g>
<!-- Node1&#45;&gt;Node2 -->
<g id="edge1" class="edge">
<title>Node1&#45;&gt;Node2</title>
<path fill="none" stroke="midnightblue" d="M318.06,-46.66C309.89,-48.24 301.01,-49.96 292.08,-51.69"/>
<polygon fill="midnightblue" stroke="midnightblue" points="318.81,-50.08 327.96,-44.74 317.47,-43.21 318.81,-50.08"/>
</g>
<!-- Node4 -->
<g id="node4" class="node">
<title>Node4</title>
<g id="a_node4"><a xlink:href="classquala_1_1AndersonAccel.html#ad20897c5c8bd47f5d4005989bead0e55" target="_top" xlink:title="Reset the accelerator (but keep the last function value and residual, so calling initialize is not ne...">
<polygon fill="white" stroke="black" points="164,-0.5 164,-30.5 286,-30.5 286,-0.5 164,-0.5"/>
<text text-anchor="start" x="172" y="-18.5" font-family="Helvetica,sans-Serif" font-size="10.00">quala::AndersonAccel</text>
<text text-anchor="middle" x="225" y="-7.5" font-family="Helvetica,sans-Serif" font-size="10.00">::reset</text>
</a>
</g>
</g>
<!-- Node1&#45;&gt;Node4 -->
<g id="edge3" class="edge">
<title>Node1&#45;&gt;Node4</title>
<path fill="none" stroke="midnightblue" d="M318.04,-32.62C308.09,-30.77 297.07,-28.72 286.22,-26.7"/>
<polygon fill="midnightblue" stroke="midnightblue" points="317.49,-36.08 327.96,-34.47 318.77,-29.2 317.49,-36.08"/>
</g>
<!-- Node3 -->
<g id="node3" class="node">
<title>Node3</title>
<g id="a_node3"><a xlink:href="classquala_1_1AndersonAccel.html#a7cbecaa52700158ebe36c0d587791ed4" target="_top" xlink:title="Compute the accelerated iterate , given the function value at the current iterate &#160;and the correspond...">
<polygon fill="white" stroke="black" points="0,-49.5 0,-79.5 122,-79.5 122,-49.5 0,-49.5"/>
<text text-anchor="start" x="8" y="-67.5" font-family="Helvetica,sans-Serif" font-size="10.00">quala::AndersonAccel</text>
<text text-anchor="middle" x="61" y="-56.5" font-family="Helvetica,sans-Serif" font-size="10.00">::compute</text>
</a>
</g>
</g>
<!-- Node2&#45;&gt;Node3 -->
<g id="edge2" class="edge">
<title>Node2&#45;&gt;Node3</title>
<path fill="none" stroke="midnightblue" d="M147.61,-64.5C139.02,-64.5 130.36,-64.5 122.01,-64.5"/>
<polygon fill="midnightblue" stroke="midnightblue" points="147.64,-68 157.64,-64.5 147.64,-61 147.64,-68"/>
</g>
<!-- Node5 -->
<g id="node5" class="node">
<title>Node5</title>
<g id="a_node5"><a xlink:href="quala_8cpp.html#a12fb4e87da488d1fc7c6fa3e6a3adb90" target="_top" xlink:title=" ">
<polygon fill="white" stroke="black" points="4.5,-6 4.5,-25 117.5,-25 117.5,-6 4.5,-6"/>
<text text-anchor="middle" x="61" y="-13" font-family="Helvetica,sans-Serif" font-size="10.00">PYBIND11_MODULE</text>
</a>
</g>
</g>
<!-- Node4&#45;&gt;Node5 -->
<g id="edge4" class="edge">
<title>Node4&#45;&gt;Node5</title>
<path fill="none" stroke="midnightblue" d="M153.64,-15.5C141.56,-15.5 129.17,-15.5 117.55,-15.5"/>
<polygon fill="midnightblue" stroke="midnightblue" points="153.68,-19 163.68,-15.5 153.68,-12 153.68,-19"/>
</g>
</g>
</svg>
