<?xml version="1.0" encoding="UTF-8" standalone="no"?>
<!DOCTYPE svg PUBLIC "-//W3C//DTD SVG 1.1//EN"
 "http://www.w3.org/Graphics/SVG/1.1/DTD/svg11.dtd">
<!-- Generated by graphviz version 2.43.0 (0)
 -->
<!-- Title: BroydenGood Pages: 1 -->
<svg width="513pt" height="116pt"
 viewBox="0.00 0.00 513.00 115.50" xmlns="http://www.w3.org/2000/svg" xmlns:xlink="http://www.w3.org/1999/xlink">
<g id="graph0" class="graph" transform="scale(1 1) rotate(0) translate(4 111.5)">
<title>BroydenGood</title>
<polygon fill="white" stroke="transparent" points="-4,4 -4,-111.5 509,-111.5 509,4 -4,4"/>
<!-- Node1 -->
<g id="node1" class="node">
<title>Node1</title>
<g id="a_node1"><a xlink:title=" ">
<polygon fill="#bfbfbf" stroke="black" points="0,-69 0,-88 83,-88 83,-69 0,-69"/>
<text text-anchor="middle" x="41.5" y="-76" font-family="Helvetica,sans-Serif" font-size="10.00">BroydenGood</text>
</a>
</g>
</g>
<!-- Node2 -->
<g id="node2" class="node">
<title>Node2</title>
<g id="a_node2"><a xlink:href="classquala_1_1BroydenGood.html#a727afc7a58d2e44ae7add57e3fa77bc6" target="_top" xlink:title="Get the size of the s and y vectors in the buffer.">
<polygon fill="white" stroke="black" points="250.5,-88 250.5,-107 279.5,-107 279.5,-88 250.5,-88"/>
<text text-anchor="middle" x="265" y="-95" font-family="Helvetica,sans-Serif" font-size="10.00">n</text>
</a>
</g>
</g>
<!-- Node1&#45;&gt;Node2 -->
<g id="edge1" class="edge">
<title>Node1&#45;&gt;Node2</title>
<path fill="none" stroke="midnightblue" d="M83.13,-81.98C129.28,-85.94 203.03,-92.27 240.5,-95.48"/>
<polygon fill="midnightblue" stroke="midnightblue" points="240.21,-98.97 250.47,-96.34 240.81,-92 240.21,-98.97"/>
</g>
<!-- Node4 -->
<g id="node4" class="node">
<title>Node4</title>
<g id="a_node4"><a xlink:href="classquala_1_1BroydenGood.html#abfe51417fbebd259808f86d27f1d7ec5" target="_top" xlink:title="Re&#45;allocate storage for a problem with a different size.">
<polygon fill="white" stroke="black" points="119,-50 119,-69 165,-69 165,-50 119,-50"/>
<text text-anchor="middle" x="142" y="-57" font-family="Helvetica,sans-Serif" font-size="10.00">resize</text>
</a>
</g>
</g>
<!-- Node1&#45;&gt;Node4 -->
<g id="edge3" class="edge">
<title>Node1&#45;&gt;Node4</title>
<path fill="none" stroke="midnightblue" d="M83.13,-70.66C91.7,-69.01 100.63,-67.29 108.84,-65.7"/>
<polygon fill="midnightblue" stroke="midnightblue" points="109.61,-69.12 118.77,-63.79 108.28,-62.25 109.61,-69.12"/>
</g>
<!-- Node3 -->
<g id="node3" class="node">
<title>Node3</title>
<g id="a_node3"><a xlink:href="structquala_1_1BroydenStorage.html#a727afc7a58d2e44ae7add57e3fa77bc6" target="_top" xlink:title="Get the size of the s and s̃ vectors in the buffer.">
<polygon fill="white" stroke="black" points="365,-69 365,-88 505,-88 505,-69 365,-69"/>
<text text-anchor="middle" x="435" y="-76" font-family="Helvetica,sans-Serif" font-size="10.00">quala::BroydenStorage::n</text>
</a>
</g>
</g>
<!-- Node2&#45;&gt;Node3 -->
<g id="edge2" class="edge">
<title>Node2&#45;&gt;Node3</title>
<path fill="none" stroke="midnightblue" d="M279.75,-95.95C296.43,-94.06 325.91,-90.72 354.66,-87.47"/>
<polygon fill="midnightblue" stroke="midnightblue" points="355.23,-90.93 364.78,-86.33 354.45,-83.97 355.23,-90.93"/>
</g>
<!-- Node4&#45;&gt;Node2 -->
<g id="edge4" class="edge">
<title>Node4&#45;&gt;Node2</title>
<path fill="none" stroke="midnightblue" d="M165.27,-66.93C176.04,-70.49 189.17,-74.78 201,-78.5 214.15,-82.64 228.9,-87.09 240.82,-90.65"/>
<polygon fill="midnightblue" stroke="midnightblue" points="239.87,-94.02 250.45,-93.52 241.86,-87.31 239.87,-94.02"/>
</g>
<!-- Node5 -->
<g id="node5" class="node">
<title>Node5</title>
<g id="a_node5"><a xlink:href="classquala_1_1BroydenGood.html#ad20897c5c8bd47f5d4005989bead0e55" target="_top" xlink:title="Throw away the approximation and all previous vectors s and y.">
<polygon fill="white" stroke="black" points="244.5,-50 244.5,-69 285.5,-69 285.5,-50 244.5,-50"/>
<text text-anchor="middle" x="265" y="-57" font-family="Helvetica,sans-Serif" font-size="10.00">reset</text>
</a>
</g>
</g>
<!-- Node4&#45;&gt;Node5 -->
<g id="edge5" class="edge">
<title>Node4&#45;&gt;Node5</title>
<path fill="none" stroke="midnightblue" d="M165.19,-59.5C184.57,-59.5 212.85,-59.5 234.2,-59.5"/>
<polygon fill="midnightblue" stroke="midnightblue" points="234.35,-63 244.35,-59.5 234.35,-56 234.35,-63"/>
</g>
<!-- Node6 -->
<g id="node6" class="node">
<title>Node6</title>
<g id="a_node6"><a xlink:href="structquala_1_1BroydenStorage.html#a48072fa680a2364d8ce96eb84a5d5689" target="_top" xlink:title="Re&#45;allocate storage for a problem with a different size.">
<polygon fill="white" stroke="black" points="201,-0.5 201,-30.5 329,-30.5 329,-0.5 201,-0.5"/>
<text text-anchor="start" x="209" y="-18.5" font-family="Helvetica,sans-Serif" font-size="10.00">quala::BroydenStorage</text>
<text text-anchor="middle" x="265" y="-7.5" font-family="Helvetica,sans-Serif" font-size="10.00">::resize</text>
</a>
</g>
</g>
<!-- Node4&#45;&gt;Node6 -->
<g id="edge6" class="edge">
<title>Node4&#45;&gt;Node6</title>
<path fill="none" stroke="midnightblue" d="M165.19,-51.43C178.54,-46.58 196.11,-40.19 212.73,-34.14"/>
<polygon fill="midnightblue" stroke="midnightblue" points="214.16,-37.35 222.36,-30.64 211.77,-30.77 214.16,-37.35"/>
</g>
<!-- Node6&#45;&gt;Node3 -->
<g id="edge8" class="edge">
<title>Node6&#45;&gt;Node3</title>
<path fill="none" stroke="midnightblue" d="M306.24,-30.59C334.51,-41.19 371.96,-55.23 398.99,-65.37"/>
<polygon fill="midnightblue" stroke="midnightblue" points="397.85,-68.68 408.45,-68.92 400.31,-62.13 397.85,-68.68"/>
</g>
<!-- Node7 -->
<g id="node7" class="node">
<title>Node7</title>
<g id="a_node7"><a xlink:href="structquala_1_1BroydenStorage.html#a9cf7dcccbc3bc69a10833450ee79c623" target="_top" xlink:title="Get the number of previous vectors s and s̃ stored in the buffer.">
<polygon fill="white" stroke="black" points="371,-0.5 371,-30.5 499,-30.5 499,-0.5 371,-0.5"/>
<text text-anchor="start" x="379" y="-18.5" font-family="Helvetica,sans-Serif" font-size="10.00">quala::BroydenStorage</text>
<text text-anchor="middle" x="435" y="-7.5" font-family="Helvetica,sans-Serif" font-size="10.00">::history</text>
</a>
</g>
</g>
<!-- Node6&#45;&gt;Node7 -->
<g id="edge7" class="edge">
<title>Node6&#45;&gt;Node7</title>
<path fill="none" stroke="midnightblue" d="M329.03,-15.5C339.41,-15.5 350.23,-15.5 360.83,-15.5"/>
<polygon fill="midnightblue" stroke="midnightblue" points="360.89,-19 370.89,-15.5 360.89,-12 360.89,-19"/>
</g>
</g>
</svg>
