<?xml version="1.0" encoding="UTF-8" standalone="no"?>
<!DOCTYPE svg PUBLIC "-//W3C//DTD SVG 1.1//EN"
 "http://www.w3.org/Graphics/SVG/1.1/DTD/svg11.dtd">
<!-- Generated by graphviz version 2.43.0 (0)
 -->
<!-- Title: foreach_fwd Pages: 1 -->
<svg width="334pt" height="39pt"
 viewBox="0.00 0.00 334.00 39.00" xmlns="http://www.w3.org/2000/svg" xmlns:xlink="http://www.w3.org/1999/xlink">
<g id="graph0" class="graph" transform="scale(1 1) rotate(0) translate(4 35)">
<title>foreach_fwd</title>
<polygon fill="white" stroke="transparent" points="-4,4 -4,-35 330,-35 330,4 -4,4"/>
<!-- Node1 -->
<g id="node1" class="node">
<title>Node1</title>
<g id="a_node1"><a xlink:title="Iterate over the indices in the history buffer, oldest first.">
<polygon fill="#bfbfbf" stroke="black" points="0,-6 0,-25 76,-25 76,-6 0,-6"/>
<text text-anchor="middle" x="38" y="-13" font-family="Helvetica,sans-Serif" font-size="10.00">foreach_fwd</text>
</a>
</g>
</g>
<!-- Node2 -->
<g id="node2" class="node">
<title>Node2</title>
<g id="a_node2"><a xlink:href="classquala_1_1BroydenGood.html#a9cf7dcccbc3bc69a10833450ee79c623" target="_top" xlink:title="Get the number of previous vectors s and y stored in the buffer.">
<polygon fill="white" stroke="black" points="112,-6 112,-25 162,-25 162,-6 112,-6"/>
<text text-anchor="middle" x="137" y="-13" font-family="Helvetica,sans-Serif" font-size="10.00">history</text>
</a>
</g>
</g>
<!-- Node1&#45;&gt;Node2 -->
<g id="edge1" class="edge">
<title>Node1&#45;&gt;Node2</title>
<path fill="none" stroke="midnightblue" d="M76.23,-15.5C84.64,-15.5 93.53,-15.5 101.82,-15.5"/>
<polygon fill="midnightblue" stroke="midnightblue" points="101.9,-19 111.9,-15.5 101.9,-12 101.9,-19"/>
</g>
<!-- Node3 -->
<g id="node3" class="node">
<title>Node3</title>
<g id="a_node3"><a xlink:href="structquala_1_1BroydenStorage.html#a9cf7dcccbc3bc69a10833450ee79c623" target="_top" xlink:title="Get the number of previous vectors s and s̃ stored in the buffer.">
<polygon fill="white" stroke="black" points="198,-0.5 198,-30.5 326,-30.5 326,-0.5 198,-0.5"/>
<text text-anchor="start" x="206" y="-18.5" font-family="Helvetica,sans-Serif" font-size="10.00">quala::BroydenStorage</text>
<text text-anchor="middle" x="262" y="-7.5" font-family="Helvetica,sans-Serif" font-size="10.00">::history</text>
</a>
</g>
</g>
<!-- Node2&#45;&gt;Node3 -->
<g id="edge2" class="edge">
<title>Node2&#45;&gt;Node3</title>
<path fill="none" stroke="midnightblue" d="M162.01,-15.5C169.66,-15.5 178.56,-15.5 187.83,-15.5"/>
<polygon fill="midnightblue" stroke="midnightblue" points="187.99,-19 197.99,-15.5 187.99,-12 187.99,-19"/>
</g>
</g>
</svg>
