<?xml version="1.0" encoding="UTF-8" standalone="no"?>
<!DOCTYPE svg PUBLIC "-//W3C//DTD SVG 1.1//EN"
 "http://www.w3.org/Graphics/SVG/1.1/DTD/svg11.dtd">
<!-- Generated by graphviz version 2.43.0 (0)
 -->
<!-- Title: compute Pages: 1 -->
<svg width="961pt" height="326pt"
 viewBox="0.00 0.00 961.00 325.88" xmlns="http://www.w3.org/2000/svg" xmlns:xlink="http://www.w3.org/1999/xlink">
<g id="graph0" class="graph" transform="scale(1 1) rotate(0) translate(4 321.88)">
<title>compute</title>
<polygon fill="white" stroke="transparent" points="-4,4 -4,-321.88 957,-321.88 957,4 -4,4"/>
<!-- Node1 -->
<g id="node1" class="node">
<title>Node1</title>
<g id="a_node1"><a xlink:title="Compute the accelerated iterate , given the function value at the current iterate &#160;and the correspond...">
<polygon fill="#bfbfbf" stroke="black" points="0,-143 0,-162 59,-162 59,-143 0,-143"/>
<text text-anchor="middle" x="29.5" y="-150" font-family="Helvetica,sans-Serif" font-size="10.00">compute</text>
</a>
</g>
</g>
<!-- Node2 -->
<g id="node2" class="node">
<title>Node2</title>
<g id="a_node2"><a xlink:href="namespacequala.html#adfa7dfa28551cd76de954d1e5e58385c" target="_top" xlink:title="Solve one step of Anderson acceleration to find a fixed point of a function g(x):">
<polygon fill="white" stroke="black" points="95,-137.5 95,-167.5 229,-167.5 229,-137.5 95,-137.5"/>
<text text-anchor="start" x="103" y="-155.5" font-family="Helvetica,sans-Serif" font-size="10.00">quala::minimize_update</text>
<text text-anchor="middle" x="162" y="-144.5" font-family="Helvetica,sans-Serif" font-size="10.00">_anderson</text>
</a>
</g>
</g>
<!-- Node1&#45;&gt;Node2 -->
<g id="edge1" class="edge">
<title>Node1&#45;&gt;Node2</title>
<path fill="none" stroke="midnightblue" d="M59.14,-152.5C66.96,-152.5 75.83,-152.5 84.98,-152.5"/>
<polygon fill="midnightblue" stroke="midnightblue" points="84.99,-156 94.99,-152.5 84.99,-149 84.99,-156"/>
</g>
<!-- Node3 -->
<g id="node3" class="node">
<title>Node3</title>
<g id="a_node3"><a xlink:href="classquala_1_1LimitedMemoryQR.html#a5e3077223e98c1e4e286e01503f220d5" target="_top" xlink:title="Add the given column to the right.">
<polygon fill="white" stroke="black" points="265,-235.5 265,-265.5 406,-265.5 406,-235.5 265,-235.5"/>
<text text-anchor="start" x="273" y="-253.5" font-family="Helvetica,sans-Serif" font-size="10.00">quala::LimitedMemoryQR</text>
<text text-anchor="middle" x="335.5" y="-242.5" font-family="Helvetica,sans-Serif" font-size="10.00">::add_column</text>
</a>
</g>
</g>
<!-- Node2&#45;&gt;Node3 -->
<g id="edge2" class="edge">
<title>Node2&#45;&gt;Node3</title>
<path fill="none" stroke="midnightblue" d="M180.37,-167.58C199.86,-183.91 232.98,-209.83 265,-226.5 268.47,-228.31 272.1,-230.02 275.81,-231.65"/>
<polygon fill="midnightblue" stroke="midnightblue" points="274.55,-234.91 285.13,-235.49 277.22,-228.44 274.55,-234.91"/>
</g>
<!-- Node4 -->
<g id="node4" class="node">
<title>Node4</title>
<g id="a_node4"><a xlink:href="classquala_1_1LimitedMemoryQR.html#ac397ae83f5f4dd3d5cf9926f26acfb2d" target="_top" xlink:title=" ">
<polygon fill="white" stroke="black" points="796,-222 796,-241 953,-241 953,-222 796,-222"/>
<text text-anchor="middle" x="874.5" y="-229" font-family="Helvetica,sans-Serif" font-size="10.00">quala::LimitedMemoryQR::m</text>
</a>
</g>
</g>
<!-- Node2&#45;&gt;Node4 -->
<g id="edge6" class="edge">
<title>Node2&#45;&gt;Node4</title>
<path fill="none" stroke="midnightblue" d="M170.11,-167.9C183.87,-195.59 217.04,-252.97 265,-275.5 465.92,-369.9 745.7,-280.24 840.56,-244.63"/>
<polygon fill="midnightblue" stroke="midnightblue" points="841.82,-247.89 849.92,-241.06 839.33,-241.35 841.82,-247.89"/>
</g>
<!-- Node6 -->
<g id="node6" class="node">
<title>Node6</title>
<g id="a_node6"><a xlink:href="classquala_1_1LimitedMemoryQR.html#a24829df3eaf3f15bd3c677781348b14d" target="_top" xlink:title="Get the number of columns that are currently stored.">
<polygon fill="white" stroke="black" points="265,-186.5 265,-216.5 406,-216.5 406,-186.5 265,-186.5"/>
<text text-anchor="start" x="273" y="-204.5" font-family="Helvetica,sans-Serif" font-size="10.00">quala::LimitedMemoryQR</text>
<text text-anchor="middle" x="335.5" y="-193.5" font-family="Helvetica,sans-Serif" font-size="10.00">::num_columns</text>
</a>
</g>
</g>
<!-- Node2&#45;&gt;Node6 -->
<g id="edge7" class="edge">
<title>Node2&#45;&gt;Node6</title>
<path fill="none" stroke="midnightblue" d="M215.86,-167.6C233.62,-172.68 253.62,-178.39 272.05,-183.66"/>
<polygon fill="midnightblue" stroke="midnightblue" points="271.24,-187.07 281.82,-186.45 273.17,-180.34 271.24,-187.07"/>
</g>
<!-- Node7 -->
<g id="node7" class="node">
<title>Node7</title>
<g id="a_node7"><a xlink:href="classquala_1_1LimitedMemoryQR.html#a436c4dbbf0476354ca67a104bc005e55" target="_top" xlink:title="Remove the leftmost column.">
<polygon fill="white" stroke="black" points="265,-137.5 265,-167.5 406,-167.5 406,-137.5 265,-137.5"/>
<text text-anchor="start" x="273" y="-155.5" font-family="Helvetica,sans-Serif" font-size="10.00">quala::LimitedMemoryQR</text>
<text text-anchor="middle" x="335.5" y="-144.5" font-family="Helvetica,sans-Serif" font-size="10.00">::remove_column</text>
</a>
</g>
</g>
<!-- Node2&#45;&gt;Node7 -->
<g id="edge8" class="edge">
<title>Node2&#45;&gt;Node7</title>
<path fill="none" stroke="midnightblue" d="M229.31,-152.5C237.71,-152.5 246.37,-152.5 254.95,-152.5"/>
<polygon fill="midnightblue" stroke="midnightblue" points="254.96,-156 264.96,-152.5 254.96,-149 254.96,-156"/>
</g>
<!-- Node8 -->
<g id="node8" class="node">
<title>Node8</title>
<g id="a_node8"><a xlink:href="classquala_1_1LimitedMemoryQR.html#a0bf0ad441ec87440e4525e75de00d053" target="_top" xlink:title="Get iterators in the circular buffer.">
<polygon fill="white" stroke="black" points="619,-73.5 619,-103.5 760,-103.5 760,-73.5 619,-73.5"/>
<text text-anchor="start" x="627" y="-91.5" font-family="Helvetica,sans-Serif" font-size="10.00">quala::LimitedMemoryQR</text>
<text text-anchor="middle" x="689.5" y="-80.5" font-family="Helvetica,sans-Serif" font-size="10.00">::ring_iter</text>
</a>
</g>
</g>
<!-- Node2&#45;&gt;Node8 -->
<g id="edge10" class="edge">
<title>Node2&#45;&gt;Node8</title>
<path fill="none" stroke="midnightblue" d="M220.71,-137.47C235.1,-134.12 250.55,-130.87 265,-128.5 383.88,-108.99 523.2,-98.11 608.65,-92.77"/>
<polygon fill="midnightblue" stroke="midnightblue" points="609.04,-96.26 618.8,-92.15 608.61,-89.27 609.04,-96.26"/>
</g>
<!-- Node9 -->
<g id="node9" class="node">
<title>Node9</title>
<g id="a_node9"><a xlink:href="classquala_1_1LimitedMemoryQR.html#a8a153a1f58e5c5879095a4c3799b6f49" target="_top" xlink:title="Get the tail index of the circular buffer (points to one past the most recent element).">
<polygon fill="white" stroke="black" points="265,-49.5 265,-79.5 406,-79.5 406,-49.5 265,-49.5"/>
<text text-anchor="start" x="273" y="-67.5" font-family="Helvetica,sans-Serif" font-size="10.00">quala::LimitedMemoryQR</text>
<text text-anchor="middle" x="335.5" y="-56.5" font-family="Helvetica,sans-Serif" font-size="10.00">::ring_tail</text>
</a>
</g>
</g>
<!-- Node2&#45;&gt;Node9 -->
<g id="edge12" class="edge">
<title>Node2&#45;&gt;Node9</title>
<path fill="none" stroke="midnightblue" d="M187.74,-137.42C208.14,-125.23 238.02,-107.95 265,-94.5 272.36,-90.83 280.27,-87.17 288.03,-83.72"/>
<polygon fill="midnightblue" stroke="midnightblue" points="289.6,-86.85 297.36,-79.64 286.8,-80.44 289.6,-86.85"/>
</g>
<!-- Node10 -->
<g id="node10" class="node">
<title>Node10</title>
<g id="a_node10"><a xlink:href="classquala_1_1LimitedMemoryQR.html#a7a60dfe0a5f68bc1efec69e406a2b619" target="_top" xlink:title="Solve the least squares problem Ax = b.">
<polygon fill="white" stroke="black" points="265,-0.5 265,-30.5 406,-30.5 406,-0.5 265,-0.5"/>
<text text-anchor="start" x="273" y="-18.5" font-family="Helvetica,sans-Serif" font-size="10.00">quala::LimitedMemoryQR</text>
<text text-anchor="middle" x="335.5" y="-7.5" font-family="Helvetica,sans-Serif" font-size="10.00">::solve_col</text>
</a>
</g>
</g>
<!-- Node2&#45;&gt;Node10 -->
<g id="edge13" class="edge">
<title>Node2&#45;&gt;Node10</title>
<path fill="none" stroke="midnightblue" d="M172.78,-137.47C189.11,-113.48 224.22,-66.48 265,-39.5 267.4,-37.92 269.91,-36.42 272.49,-35.02"/>
<polygon fill="midnightblue" stroke="midnightblue" points="274.1,-38.13 281.53,-30.59 271.01,-31.85 274.1,-38.13"/>
</g>
<!-- Node3&#45;&gt;Node4 -->
<g id="edge3" class="edge">
<title>Node3&#45;&gt;Node4</title>
<path fill="none" stroke="midnightblue" d="M406.15,-248.04C503.34,-244.6 679.59,-238.36 785.67,-234.61"/>
<polygon fill="midnightblue" stroke="midnightblue" points="785.84,-238.1 795.71,-234.25 785.59,-231.11 785.84,-238.1"/>
</g>
<!-- Node5 -->
<g id="node5" class="node">
<title>Node5</title>
<g id="a_node5"><a xlink:href="classquala_1_1LimitedMemoryQR.html#a9f68bead8c70041aacb90dd175150dc4" target="_top" xlink:title="Get the next index in the circular storage for R.">
<polygon fill="white" stroke="black" points="442,-191.5 442,-221.5 583,-221.5 583,-191.5 442,-191.5"/>
<text text-anchor="start" x="450" y="-209.5" font-family="Helvetica,sans-Serif" font-size="10.00">quala::LimitedMemoryQR</text>
<text text-anchor="middle" x="512.5" y="-198.5" font-family="Helvetica,sans-Serif" font-size="10.00">::r_succ</text>
</a>
</g>
</g>
<!-- Node3&#45;&gt;Node5 -->
<g id="edge4" class="edge">
<title>Node3&#45;&gt;Node5</title>
<path fill="none" stroke="midnightblue" d="M396.24,-235.48C410.94,-231.78 426.81,-227.79 441.93,-223.99"/>
<polygon fill="midnightblue" stroke="midnightblue" points="442.89,-227.36 451.74,-221.53 441.19,-220.57 442.89,-227.36"/>
</g>
<!-- Node5&#45;&gt;Node4 -->
<g id="edge5" class="edge">
<title>Node5&#45;&gt;Node4</title>
<path fill="none" stroke="midnightblue" d="M583.34,-211.35C641.06,-215.36 723.33,-221.07 785.54,-225.39"/>
<polygon fill="midnightblue" stroke="midnightblue" points="785.52,-228.9 795.74,-226.1 786,-221.92 785.52,-228.9"/>
</g>
<!-- Node7&#45;&gt;Node5 -->
<g id="edge9" class="edge">
<title>Node7&#45;&gt;Node5</title>
<path fill="none" stroke="midnightblue" d="M385.25,-167.54C406.3,-174.04 431.11,-181.69 453.14,-188.49"/>
<polygon fill="midnightblue" stroke="midnightblue" points="452.12,-191.84 462.71,-191.45 454.19,-185.15 452.12,-191.84"/>
</g>
<!-- Node8&#45;&gt;Node4 -->
<g id="edge11" class="edge">
<title>Node8&#45;&gt;Node4</title>
<path fill="none" stroke="midnightblue" d="M709.74,-103.53C744.42,-130.64 817.14,-187.46 852.84,-215.36"/>
<polygon fill="midnightblue" stroke="midnightblue" points="851.04,-218.39 861.07,-221.79 855.35,-212.87 851.04,-218.39"/>
</g>
<!-- Node10&#45;&gt;Node8 -->
<g id="edge14" class="edge">
<title>Node10&#45;&gt;Node8</title>
<path fill="none" stroke="midnightblue" d="M392.46,-30.55C408.41,-34.65 425.85,-38.93 442,-42.5 497.46,-54.76 560.42,-66.47 608.82,-75.01"/>
<polygon fill="midnightblue" stroke="midnightblue" points="608.47,-78.5 618.92,-76.78 609.68,-71.6 608.47,-78.5"/>
</g>
<!-- Node11 -->
<g id="node11" class="node">
<title>Node11</title>
<g id="a_node11"><a xlink:href="classquala_1_1LimitedMemoryQR.html#ae8160acf26958eb65aa5c0743dd2826d" target="_top" xlink:title="Get reverse iterators in the circular buffer.">
<polygon fill="white" stroke="black" points="442,-3.5 442,-33.5 583,-33.5 583,-3.5 442,-3.5"/>
<text text-anchor="start" x="450" y="-21.5" font-family="Helvetica,sans-Serif" font-size="10.00">quala::LimitedMemoryQR</text>
<text text-anchor="middle" x="512.5" y="-10.5" font-family="Helvetica,sans-Serif" font-size="10.00">::ring_reverse_iter</text>
</a>
</g>
</g>
<!-- Node10&#45;&gt;Node11 -->
<g id="edge15" class="edge">
<title>Node10&#45;&gt;Node11</title>
<path fill="none" stroke="midnightblue" d="M406.17,-16.69C414.5,-16.84 423.06,-16.98 431.53,-17.13"/>
<polygon fill="midnightblue" stroke="midnightblue" points="431.73,-20.63 441.79,-17.3 431.85,-13.63 431.73,-20.63"/>
</g>
<!-- Node11&#45;&gt;Node8 -->
<g id="edge16" class="edge">
<title>Node11&#45;&gt;Node8</title>
<path fill="none" stroke="midnightblue" d="M551.04,-33.52C577.48,-44.09 613.07,-58.33 641.41,-69.66"/>
<polygon fill="midnightblue" stroke="midnightblue" points="640.13,-72.92 650.72,-73.39 642.73,-66.42 640.13,-72.92"/>
</g>
</g>
</svg>
