<?xml version="1.0" encoding="UTF-8" standalone="no"?>
<!DOCTYPE svg PUBLIC "-//W3C//DTD SVG 1.1//EN"
 "http://www.w3.org/Graphics/SVG/1.1/DTD/svg11.dtd">
<!-- Generated by graphviz version 2.43.0 (0)
 -->
<!-- Title: n Pages: 1 -->
<svg width="268pt" height="75pt"
 viewBox="0.00 0.00 268.00 75.00" xmlns="http://www.w3.org/2000/svg" xmlns:xlink="http://www.w3.org/1999/xlink">
<g id="graph0" class="graph" transform="scale(1 1) rotate(0) translate(4 71)">
<title>n</title>
<polygon fill="white" stroke="transparent" points="-4,4 -4,-71 264,-71 264,4 -4,4"/>
<!-- Node1 -->
<g id="node1" class="node">
<title>Node1</title>
<g id="a_node1"><a xlink:title="Get the size of the s and y vectors in the buffer.">
<polygon fill="#bfbfbf" stroke="black" points="231,-28.5 231,-47.5 260,-47.5 260,-28.5 231,-28.5"/>
<text text-anchor="middle" x="245.5" y="-35.5" font-family="Helvetica,sans-Serif" font-size="10.00">n</text>
</a>
</g>
</g>
<!-- Node2 -->
<g id="node2" class="node">
<title>Node2</title>
<g id="a_node2"><a xlink:href="classquala_1_1LBFGS.html#a728dfcb0d540fc7da341b3352dbe1582" target="_top" xlink:title=" ">
<polygon fill="white" stroke="black" points="32.5,-47.5 32.5,-66.5 80.5,-66.5 80.5,-47.5 32.5,-47.5"/>
<text text-anchor="middle" x="56.5" y="-54.5" font-family="Helvetica,sans-Serif" font-size="10.00">LBFGS</text>
</a>
</g>
</g>
<!-- Node1&#45;&gt;Node2 -->
<g id="edge1" class="edge">
<title>Node1&#45;&gt;Node2</title>
<path fill="none" stroke="midnightblue" d="M221.37,-48.89C213.22,-52.18 203.88,-55.35 195,-57 155.33,-64.35 108.12,-62 80.6,-59.55"/>
<polygon fill="midnightblue" stroke="midnightblue" points="222.8,-52.08 230.61,-44.91 220.04,-45.65 222.8,-52.08"/>
</g>
<!-- Node3 -->
<g id="node3" class="node">
<title>Node3</title>
<g id="a_node3"><a xlink:href="quala_8cpp.html#a12fb4e87da488d1fc7c6fa3e6a3adb90" target="_top" xlink:title=" ">
<polygon fill="white" stroke="black" points="0,-0.5 0,-19.5 113,-19.5 113,-0.5 0,-0.5"/>
<text text-anchor="middle" x="56.5" y="-7.5" font-family="Helvetica,sans-Serif" font-size="10.00">PYBIND11_MODULE</text>
</a>
</g>
</g>
<!-- Node1&#45;&gt;Node3 -->
<g id="edge2" class="edge">
<title>Node1&#45;&gt;Node3</title>
<path fill="none" stroke="midnightblue" d="M221.66,-27.58C213.42,-24.27 203.95,-20.96 195,-19 168.48,-13.18 138.45,-10.75 113.23,-9.85"/>
<polygon fill="midnightblue" stroke="midnightblue" points="220.4,-30.85 230.97,-31.53 223.13,-24.41 220.4,-30.85"/>
</g>
<!-- Node4 -->
<g id="node4" class="node">
<title>Node4</title>
<g id="a_node4"><a xlink:href="classquala_1_1LBFGS.html#abfe51417fbebd259808f86d27f1d7ec5" target="_top" xlink:title="Re&#45;allocate storage for a problem with a different size.">
<polygon fill="white" stroke="black" points="149,-28.5 149,-47.5 195,-47.5 195,-28.5 149,-28.5"/>
<text text-anchor="middle" x="172" y="-35.5" font-family="Helvetica,sans-Serif" font-size="10.00">resize</text>
</a>
</g>
</g>
<!-- Node1&#45;&gt;Node4 -->
<g id="edge3" class="edge">
<title>Node1&#45;&gt;Node4</title>
<path fill="none" stroke="midnightblue" d="M220.63,-38C212.42,-38 203.26,-38 195.18,-38"/>
<polygon fill="midnightblue" stroke="midnightblue" points="220.71,-41.5 230.71,-38 220.71,-34.5 220.71,-41.5"/>
</g>
<!-- Node4&#45;&gt;Node2 -->
<g id="edge4" class="edge">
<title>Node4&#45;&gt;Node2</title>
<path fill="none" stroke="midnightblue" d="M138.81,-43.39C120.32,-46.48 97.52,-50.3 80.77,-53.1"/>
<polygon fill="midnightblue" stroke="midnightblue" points="139.56,-46.81 148.85,-41.71 138.41,-39.91 139.56,-46.81"/>
</g>
<!-- Node4&#45;&gt;Node3 -->
<g id="edge5" class="edge">
<title>Node4&#45;&gt;Node3</title>
<path fill="none" stroke="midnightblue" d="M138.76,-30.05C125.49,-26.77 110.01,-22.96 96.15,-19.53"/>
<polygon fill="midnightblue" stroke="midnightblue" points="138.3,-33.54 148.85,-32.53 139.98,-26.74 138.3,-33.54"/>
</g>
</g>
</svg>
