<?xml version="1.0" encoding="UTF-8" standalone="no"?>
<!DOCTYPE svg PUBLIC "-//W3C//DTD SVG 1.1//EN"
 "http://www.w3.org/Graphics/SVG/1.1/DTD/svg11.dtd">
<!-- Generated by graphviz version 2.43.0 (0)
 -->
<!-- Title: n Pages: 1 -->
<svg width="281pt" height="85pt"
 viewBox="0.00 0.00 281.00 85.00" xmlns="http://www.w3.org/2000/svg" xmlns:xlink="http://www.w3.org/1999/xlink">
<g id="graph0" class="graph" transform="scale(1 1) rotate(0) translate(4 81)">
<title>n</title>
<polygon fill="white" stroke="transparent" points="-4,4 -4,-81 277,-81 277,4 -4,4"/>
<!-- Node1 -->
<g id="node1" class="node">
<title>Node1</title>
<g id="a_node1"><a xlink:title="Get the problem dimension.">
<polygon fill="#bfbfbf" stroke="black" points="244,-38.5 244,-57.5 273,-57.5 273,-38.5 244,-38.5"/>
<text text-anchor="middle" x="258.5" y="-45.5" font-family="Helvetica,sans-Serif" font-size="10.00">n</text>
</a>
</g>
</g>
<!-- Node2 -->
<g id="node2" class="node">
<title>Node2</title>
<g id="a_node2"><a xlink:href="classquala_1_1AndersonAccel.html#a1fcb04cfb2b1398b54d8242cc3b0fb34" target="_top" xlink:title=" ">
<polygon fill="white" stroke="black" points="12,-57.5 12,-76.5 101,-76.5 101,-57.5 12,-57.5"/>
<text text-anchor="middle" x="56.5" y="-64.5" font-family="Helvetica,sans-Serif" font-size="10.00">AndersonAccel</text>
</a>
</g>
</g>
<!-- Node1&#45;&gt;Node2 -->
<g id="edge1" class="edge">
<title>Node1&#45;&gt;Node2</title>
<path fill="none" stroke="midnightblue" d="M234.37,-58.89C226.22,-62.18 216.88,-65.35 208,-67 172.42,-73.59 131.29,-73.05 101.02,-71.17"/>
<polygon fill="midnightblue" stroke="midnightblue" points="235.8,-62.08 243.61,-54.91 233.04,-55.65 235.8,-62.08"/>
</g>
<!-- Node3 -->
<g id="node3" class="node">
<title>Node3</title>
<g id="a_node3"><a xlink:href="classquala_1_1AndersonAccel.html#ab55e2bb8c6d8912c0d55ff4dc2b3b4a2" target="_top" xlink:title="Call this function on the first iteration to initialize the accelerator.">
<polygon fill="white" stroke="black" points="149,-38.5 149,-57.5 208,-57.5 208,-38.5 149,-38.5"/>
<text text-anchor="middle" x="178.5" y="-45.5" font-family="Helvetica,sans-Serif" font-size="10.00">initialize</text>
</a>
</g>
</g>
<!-- Node1&#45;&gt;Node3 -->
<g id="edge2" class="edge">
<title>Node1&#45;&gt;Node3</title>
<path fill="none" stroke="midnightblue" d="M233.7,-48C225.63,-48 216.52,-48 208.11,-48"/>
<polygon fill="midnightblue" stroke="midnightblue" points="233.91,-51.5 243.91,-48 233.91,-44.5 233.91,-51.5"/>
</g>
<!-- Node4 -->
<g id="node4" class="node">
<title>Node4</title>
<g id="a_node4"><a xlink:href="classquala_1_1AndersonAccel.html#abfe51417fbebd259808f86d27f1d7ec5" target="_top" xlink:title="Change the problem dimension.">
<polygon fill="white" stroke="black" points="155.5,-0.5 155.5,-19.5 201.5,-19.5 201.5,-0.5 155.5,-0.5"/>
<text text-anchor="middle" x="178.5" y="-7.5" font-family="Helvetica,sans-Serif" font-size="10.00">resize</text>
</a>
</g>
</g>
<!-- Node1&#45;&gt;Node4 -->
<g id="edge3" class="edge">
<title>Node1&#45;&gt;Node4</title>
<path fill="none" stroke="midnightblue" d="M234.68,-36.88C223.38,-31.38 209.89,-24.8 199.07,-19.53"/>
<polygon fill="midnightblue" stroke="midnightblue" points="233.39,-40.15 243.91,-41.38 236.46,-33.85 233.39,-40.15"/>
</g>
<!-- Node4&#45;&gt;Node2 -->
<g id="edge4" class="edge">
<title>Node4&#45;&gt;Node2</title>
<path fill="none" stroke="midnightblue" d="M148.24,-23.9C126.35,-34.3 96.97,-48.25 77.65,-57.43"/>
<polygon fill="midnightblue" stroke="midnightblue" points="149.88,-26.99 157.41,-19.54 146.88,-20.67 149.88,-26.99"/>
</g>
<!-- Node5 -->
<g id="node5" class="node">
<title>Node5</title>
<g id="a_node5"><a xlink:href="quala_8cpp.html#a12fb4e87da488d1fc7c6fa3e6a3adb90" target="_top" xlink:title=" ">
<polygon fill="white" stroke="black" points="0,-0.5 0,-19.5 113,-19.5 113,-0.5 0,-0.5"/>
<text text-anchor="middle" x="56.5" y="-7.5" font-family="Helvetica,sans-Serif" font-size="10.00">PYBIND11_MODULE</text>
</a>
</g>
</g>
<!-- Node4&#45;&gt;Node5 -->
<g id="edge5" class="edge">
<title>Node4&#45;&gt;Node5</title>
<path fill="none" stroke="midnightblue" d="M145.29,-10C135.36,-10 124.11,-10 113.07,-10"/>
<polygon fill="midnightblue" stroke="midnightblue" points="145.49,-13.5 155.49,-10 145.49,-6.5 145.49,-13.5"/>
</g>
</g>
</svg>
