<?xml version="1.0" encoding="UTF-8" standalone="no"?>
<!DOCTYPE svg PUBLIC "-//W3C//DTD SVG 1.1//EN"
 "http://www.w3.org/Graphics/SVG/1.1/DTD/svg11.dtd">
<!-- Generated by graphviz version 2.43.0 (0)
 -->
<!-- Title: AndersonAccel Pages: 1 -->
<svg width="549pt" height="120pt"
 viewBox="0.00 0.00 549.00 119.50" xmlns="http://www.w3.org/2000/svg" xmlns:xlink="http://www.w3.org/1999/xlink">
<g id="graph0" class="graph" transform="scale(1 1) rotate(0) translate(4 115.5)">
<title>AndersonAccel</title>
<polygon fill="white" stroke="transparent" points="-4,4 -4,-115.5 545,-115.5 545,4 -4,4"/>
<!-- Node1 -->
<g id="node1" class="node">
<title>Node1</title>
<g id="a_node1"><a xlink:title=" ">
<polygon fill="#bfbfbf" stroke="black" points="0,-73 0,-92 89,-92 89,-73 0,-73"/>
<text text-anchor="middle" x="44.5" y="-80" font-family="Helvetica,sans-Serif" font-size="10.00">AndersonAccel</text>
</a>
</g>
</g>
<!-- Node2 -->
<g id="node2" class="node">
<title>Node2</title>
<g id="a_node2"><a xlink:href="classquala_1_1AndersonAccel.html#a727afc7a58d2e44ae7add57e3fa77bc6" target="_top" xlink:title="Get the problem dimension.">
<polygon fill="white" stroke="black" points="263,-92 263,-111 292,-111 292,-92 263,-92"/>
<text text-anchor="middle" x="277.5" y="-99" font-family="Helvetica,sans-Serif" font-size="10.00">n</text>
</a>
</g>
</g>
<!-- Node1&#45;&gt;Node2 -->
<g id="edge1" class="edge">
<title>Node1&#45;&gt;Node2</title>
<path fill="none" stroke="midnightblue" d="M89.22,-86.1C137.67,-90.08 214.05,-96.36 252.58,-99.53"/>
<polygon fill="midnightblue" stroke="midnightblue" points="252.56,-103.04 262.82,-100.37 253.14,-96.07 252.56,-103.04"/>
</g>
<!-- Node4 -->
<g id="node4" class="node">
<title>Node4</title>
<g id="a_node4"><a xlink:href="classquala_1_1AndersonAccel.html#abfe51417fbebd259808f86d27f1d7ec5" target="_top" xlink:title="Change the problem dimension.">
<polygon fill="white" stroke="black" points="125,-54 125,-73 171,-73 171,-54 125,-54"/>
<text text-anchor="middle" x="148" y="-61" font-family="Helvetica,sans-Serif" font-size="10.00">resize</text>
</a>
</g>
</g>
<!-- Node1&#45;&gt;Node4 -->
<g id="edge3" class="edge">
<title>Node1&#45;&gt;Node4</title>
<path fill="none" stroke="midnightblue" d="M89.13,-74.33C97.82,-72.71 106.8,-71.03 115.01,-69.49"/>
<polygon fill="midnightblue" stroke="midnightblue" points="115.74,-72.91 124.92,-67.63 114.45,-66.03 115.74,-72.91"/>
</g>
<!-- Node3 -->
<g id="node3" class="node">
<title>Node3</title>
<g id="a_node3"><a xlink:href="classquala_1_1LimitedMemoryQR.html#a727afc7a58d2e44ae7add57e3fa77bc6" target="_top" xlink:title=" ">
<polygon fill="white" stroke="black" points="386,-91 386,-110 539,-110 539,-91 386,-91"/>
<text text-anchor="middle" x="462.5" y="-98" font-family="Helvetica,sans-Serif" font-size="10.00">quala::LimitedMemoryQR::n</text>
</a>
</g>
</g>
<!-- Node2&#45;&gt;Node3 -->
<g id="edge2" class="edge">
<title>Node2&#45;&gt;Node3</title>
<path fill="none" stroke="midnightblue" d="M292.25,-101.42C310.26,-101.33 343.31,-101.15 375.46,-100.97"/>
<polygon fill="midnightblue" stroke="midnightblue" points="375.86,-104.47 385.85,-100.91 375.83,-97.47 375.86,-104.47"/>
</g>
<!-- Node4&#45;&gt;Node2 -->
<g id="edge4" class="edge">
<title>Node4&#45;&gt;Node2</title>
<path fill="none" stroke="midnightblue" d="M171,-70.45C181.83,-73.83 195.08,-77.94 207,-81.5 222.28,-86.07 239.51,-91.03 252.99,-94.87"/>
<polygon fill="midnightblue" stroke="midnightblue" points="252.32,-98.31 262.89,-97.67 254.23,-91.58 252.32,-98.31"/>
</g>
<!-- Node5 -->
<g id="node5" class="node">
<title>Node5</title>
<g id="a_node5"><a xlink:href="classquala_1_1LimitedMemoryQR.html#ad15543203799d1dccb5a5e1c572e3f02" target="_top" xlink:title="Re&#45;allocate storage for a problem with a different size.">
<polygon fill="white" stroke="black" points="207,-42.5 207,-72.5 348,-72.5 348,-42.5 207,-42.5"/>
<text text-anchor="start" x="215" y="-60.5" font-family="Helvetica,sans-Serif" font-size="10.00">quala::LimitedMemoryQR</text>
<text text-anchor="middle" x="277.5" y="-49.5" font-family="Helvetica,sans-Serif" font-size="10.00">::resize</text>
</a>
</g>
</g>
<!-- Node4&#45;&gt;Node5 -->
<g id="edge5" class="edge">
<title>Node4&#45;&gt;Node5</title>
<path fill="none" stroke="midnightblue" d="M171.21,-62.45C178.65,-62.1 187.43,-61.69 196.69,-61.26"/>
<polygon fill="midnightblue" stroke="midnightblue" points="197.06,-64.74 206.89,-60.78 196.73,-57.75 197.06,-64.74"/>
</g>
<!-- Node5&#45;&gt;Node3 -->
<g id="edge7" class="edge">
<title>Node5&#45;&gt;Node3</title>
<path fill="none" stroke="midnightblue" d="M342.5,-72.54C365.02,-77.83 389.98,-83.69 411.2,-88.68"/>
<polygon fill="midnightblue" stroke="midnightblue" points="410.44,-92.1 420.98,-90.98 412.04,-85.28 410.44,-92.1"/>
</g>
<!-- Node6 -->
<g id="node6" class="node">
<title>Node6</title>
<g id="a_node6"><a xlink:href="classquala_1_1LimitedMemoryQR.html#ac397ae83f5f4dd3d5cf9926f26acfb2d" target="_top" xlink:title=" ">
<polygon fill="white" stroke="black" points="384,-50 384,-69 541,-69 541,-50 384,-50"/>
<text text-anchor="middle" x="462.5" y="-57" font-family="Helvetica,sans-Serif" font-size="10.00">quala::LimitedMemoryQR::m</text>
</a>
</g>
</g>
<!-- Node5&#45;&gt;Node6 -->
<g id="edge6" class="edge">
<title>Node5&#45;&gt;Node6</title>
<path fill="none" stroke="midnightblue" d="M348.21,-58.26C356.56,-58.35 365.16,-58.45 373.72,-58.54"/>
<polygon fill="midnightblue" stroke="midnightblue" points="373.7,-62.04 383.74,-58.65 373.78,-55.04 373.7,-62.04"/>
</g>
<!-- Node7 -->
<g id="node7" class="node">
<title>Node7</title>
<g id="a_node7"><a xlink:href="classquala_1_1LimitedMemoryQR.html#ad20897c5c8bd47f5d4005989bead0e55" target="_top" xlink:title="Reset all indices, clearing the Q and R matrices.">
<polygon fill="white" stroke="black" points="392,-0.5 392,-30.5 533,-30.5 533,-0.5 392,-0.5"/>
<text text-anchor="start" x="400" y="-18.5" font-family="Helvetica,sans-Serif" font-size="10.00">quala::LimitedMemoryQR</text>
<text text-anchor="middle" x="462.5" y="-7.5" font-family="Helvetica,sans-Serif" font-size="10.00">::reset</text>
</a>
</g>
</g>
<!-- Node5&#45;&gt;Node7 -->
<g id="edge8" class="edge">
<title>Node5&#45;&gt;Node7</title>
<path fill="none" stroke="midnightblue" d="M344.05,-42.46C357.67,-39.33 372.12,-36.01 386.06,-32.81"/>
<polygon fill="midnightblue" stroke="midnightblue" points="387.14,-36.16 396.1,-30.51 385.57,-29.34 387.14,-36.16"/>
</g>
</g>
</svg>
