<?xml version="1.0" encoding="UTF-8" standalone="no"?>
<!DOCTYPE svg PUBLIC "-//W3C//DTD SVG 1.1//EN"
 "http://www.w3.org/Graphics/SVG/1.1/DTD/svg11.dtd">
<!-- Generated by graphviz version 2.43.0 (0)
 -->
<!-- Title: kwargs&#45;to&#45;struct.hpp Pages: 1 -->
<svg width="1057pt" height="330pt"
 viewBox="0.00 0.00 1057.00 330.00" xmlns="http://www.w3.org/2000/svg" xmlns:xlink="http://www.w3.org/1999/xlink">
<g id="graph0" class="graph" transform="scale(1 1) rotate(0) translate(4 326)">
<title>kwargs&#45;to&#45;struct.hpp</title>
<polygon fill="white" stroke="transparent" points="-4,4 -4,-326 1053,-326 1053,4 -4,4"/>
<!-- Node1 -->
<g id="node1" class="node">
<title>Node1</title>
<g id="a_node1"><a xlink:title="This file defines mappings from Python dicts (kwargs) to simple parameter structs.">
<polygon fill="#bfbfbf" stroke="black" points="289.5,-302.5 289.5,-321.5 407.5,-321.5 407.5,-302.5 289.5,-302.5"/>
<text text-anchor="middle" x="348.5" y="-309.5" font-family="Helvetica,sans-Serif" font-size="10.00">kwargs&#45;to&#45;struct.hpp</text>
</a>
</g>
</g>
<!-- Node2 -->
<g id="node2" class="node">
<title>Node2</title>
<g id="a_node2"><a xlink:title=" ">
<polygon fill="white" stroke="#bfbfbf" points="0,-246.5 0,-265.5 65,-265.5 65,-246.5 0,-246.5"/>
<text text-anchor="middle" x="32.5" y="-253.5" font-family="Helvetica,sans-Serif" font-size="10.00">functional</text>
</a>
</g>
</g>
<!-- Node1&#45;&gt;Node2 -->
<g id="edge1" class="edge">
<title>Node1&#45;&gt;Node2</title>
<path fill="none" stroke="midnightblue" d="M291.68,-302.49C238.34,-294.31 156.08,-281.23 74.92,-266"/>
<polygon fill="midnightblue" stroke="midnightblue" points="75.5,-262.55 65.03,-264.13 74.2,-269.43 75.5,-262.55"/>
</g>
<!-- Node3 -->
<g id="node3" class="node">
<title>Node3</title>
<g id="a_node3"><a xlink:title=" ">
<polygon fill="white" stroke="#bfbfbf" points="83.5,-246.5 83.5,-265.5 121.5,-265.5 121.5,-246.5 83.5,-246.5"/>
<text text-anchor="middle" x="102.5" y="-253.5" font-family="Helvetica,sans-Serif" font-size="10.00">map</text>
</a>
</g>
</g>
<!-- Node1&#45;&gt;Node3 -->
<g id="edge2" class="edge">
<title>Node1&#45;&gt;Node3</title>
<path fill="none" stroke="midnightblue" d="M299.67,-302.47C257.42,-294.75 194.56,-282.42 131.42,-266.03"/>
<polygon fill="midnightblue" stroke="midnightblue" points="132.26,-262.63 121.7,-263.47 130.48,-269.4 132.26,-262.63"/>
</g>
<!-- Node4 -->
<g id="node4" class="node">
<title>Node4</title>
<g id="a_node4"><a xlink:title=" ">
<polygon fill="white" stroke="#bfbfbf" points="140,-246.5 140,-265.5 191,-265.5 191,-246.5 140,-246.5"/>
<text text-anchor="middle" x="165.5" y="-253.5" font-family="Helvetica,sans-Serif" font-size="10.00">variant</text>
</a>
</g>
</g>
<!-- Node1&#45;&gt;Node4 -->
<g id="edge3" class="edge">
<title>Node1&#45;&gt;Node4</title>
<path fill="none" stroke="midnightblue" d="M319.5,-302.44C287.31,-292.94 235.33,-277.61 200.8,-267.41"/>
<polygon fill="midnightblue" stroke="midnightblue" points="201.69,-264.03 191.11,-264.56 199.71,-270.75 201.69,-264.03"/>
</g>
<!-- Node5 -->
<g id="node5" class="node">
<title>Node5</title>
<g id="a_node5"><a xlink:title=" ">
<polygon fill="white" stroke="#bfbfbf" points="209,-246.5 209,-265.5 344,-265.5 344,-246.5 209,-246.5"/>
<text text-anchor="middle" x="276.5" y="-253.5" font-family="Helvetica,sans-Serif" font-size="10.00">pybind11/detail/typeid.h</text>
</a>
</g>
</g>
<!-- Node1&#45;&gt;Node5 -->
<g id="edge4" class="edge">
<title>Node1&#45;&gt;Node5</title>
<path fill="none" stroke="midnightblue" d="M336.93,-302.32C326.08,-294.18 309.62,-281.84 296.62,-272.09"/>
<polygon fill="midnightblue" stroke="midnightblue" points="298.38,-269.03 288.28,-265.83 294.18,-274.63 298.38,-269.03"/>
</g>
<!-- Node6 -->
<g id="node6" class="node">
<title>Node6</title>
<g id="a_node6"><a xlink:title=" ">
<polygon fill="white" stroke="#bfbfbf" points="362,-246.5 362,-265.5 481,-265.5 481,-246.5 362,-246.5"/>
<text text-anchor="middle" x="421.5" y="-253.5" font-family="Helvetica,sans-Serif" font-size="10.00">pybind11/pybind11.h</text>
</a>
</g>
</g>
<!-- Node1&#45;&gt;Node6 -->
<g id="edge5" class="edge">
<title>Node1&#45;&gt;Node6</title>
<path fill="none" stroke="midnightblue" d="M360.23,-302.32C371.34,-294.11 388.24,-281.6 401.48,-271.81"/>
<polygon fill="midnightblue" stroke="midnightblue" points="403.6,-274.59 409.56,-265.83 399.44,-268.97 403.6,-274.59"/>
</g>
<!-- Node7 -->
<g id="node7" class="node">
<title>Node7</title>
<g id="a_node7"><a xlink:href="lbfgs_8hpp.html" target="_top" xlink:title=" ">
<polygon fill="white" stroke="black" points="693.5,-246.5 693.5,-265.5 785.5,-265.5 785.5,-246.5 693.5,-246.5"/>
<text text-anchor="middle" x="739.5" y="-253.5" font-family="Helvetica,sans-Serif" font-size="10.00">quala/lbfgs.hpp</text>
</a>
</g>
</g>
<!-- Node1&#45;&gt;Node7 -->
<g id="edge6" class="edge">
<title>Node1&#45;&gt;Node7</title>
<path fill="none" stroke="midnightblue" d="M407.75,-303.59C472.84,-295.34 580.72,-281.31 683.38,-266.13"/>
<polygon fill="midnightblue" stroke="midnightblue" points="683.92,-269.59 693.3,-264.66 682.9,-262.67 683.92,-269.59"/>
</g>
<!-- Node14 -->
<g id="node14" class="node">
<title>Node14</title>
<g id="a_node14"><a xlink:href="anderson-acceleration_8hpp.html" target="_top" xlink:title=" ">
<polygon fill="white" stroke="black" points="499.5,-246.5 499.5,-265.5 675.5,-265.5 675.5,-246.5 499.5,-246.5"/>
<text text-anchor="middle" x="587.5" y="-253.5" font-family="Helvetica,sans-Serif" font-size="10.00">quala/anderson&#45;acceleration.hpp</text>
</a>
</g>
</g>
<!-- Node1&#45;&gt;Node14 -->
<g id="edge13" class="edge">
<title>Node1&#45;&gt;Node14</title>
<path fill="none" stroke="midnightblue" d="M386.37,-302.44C427.98,-293.04 494.87,-277.93 539.97,-267.74"/>
<polygon fill="midnightblue" stroke="midnightblue" points="540.82,-271.13 549.81,-265.52 539.28,-264.31 540.82,-271.13"/>
</g>
<!-- Node23 -->
<g id="node23" class="node">
<title>Node23</title>
<g id="a_node23"><a xlink:href="broyden-good_8hpp.html" target="_top" xlink:title=" ">
<polygon fill="white" stroke="black" points="914,-118 914,-137 1049,-137 1049,-118 914,-118"/>
<text text-anchor="middle" x="981.5" y="-125" font-family="Helvetica,sans-Serif" font-size="10.00">quala/broyden&#45;good.hpp</text>
</a>
</g>
</g>
<!-- Node1&#45;&gt;Node23 -->
<g id="edge26" class="edge">
<title>Node1&#45;&gt;Node23</title>
<path fill="none" stroke="midnightblue" d="M407.56,-308.9C512.13,-304.54 725.32,-292.62 794.5,-266 867,-238.11 936.35,-174.25 966.18,-144.41"/>
<polygon fill="midnightblue" stroke="midnightblue" points="968.68,-146.86 973.21,-137.28 963.7,-141.95 968.68,-146.86"/>
</g>
<!-- Node8 -->
<g id="node8" class="node">
<title>Node8</title>
<g id="a_node8"><a xlink:href="decl_2lbfgs_8hpp.html" target="_top" xlink:title=" ">
<polygon fill="white" stroke="black" points="732,-185 732,-204 847,-204 847,-185 732,-185"/>
<text text-anchor="middle" x="789.5" y="-192" font-family="Helvetica,sans-Serif" font-size="10.00">quala/decl/lbfgs.hpp</text>
</a>
</g>
</g>
<!-- Node7&#45;&gt;Node8 -->
<g id="edge7" class="edge">
<title>Node7&#45;&gt;Node8</title>
<path fill="none" stroke="midnightblue" d="M746.66,-246.48C754.24,-237.46 766.37,-223.02 775.79,-211.81"/>
<polygon fill="midnightblue" stroke="midnightblue" points="778.6,-213.92 782.35,-204.01 773.24,-209.41 778.6,-213.92"/>
</g>
<!-- Node12 -->
<g id="node12" class="node">
<title>Node12</title>
<g id="a_node12"><a xlink:title=" ">
<polygon fill="white" stroke="#bfbfbf" points="600,-185 600,-204 665,-204 665,-185 600,-185"/>
<text text-anchor="middle" x="632.5" y="-192" font-family="Helvetica,sans-Serif" font-size="10.00">stdexcept</text>
</a>
</g>
</g>
<!-- Node7&#45;&gt;Node12 -->
<g id="edge11" class="edge">
<title>Node7&#45;&gt;Node12</title>
<path fill="none" stroke="midnightblue" d="M724.17,-246.48C706.53,-236.67 677.34,-220.43 656.64,-208.92"/>
<polygon fill="midnightblue" stroke="midnightblue" points="658.24,-205.81 647.8,-204.01 654.84,-211.93 658.24,-205.81"/>
</g>
<!-- Node13 -->
<g id="node13" class="node">
<title>Node13</title>
<g id="a_node13"><a xlink:title=" ">
<polygon fill="white" stroke="#bfbfbf" points="659,-56.5 659,-75.5 728,-75.5 728,-56.5 659,-56.5"/>
<text text-anchor="middle" x="693.5" y="-63.5" font-family="Helvetica,sans-Serif" font-size="10.00">type_traits</text>
</a>
</g>
</g>
<!-- Node7&#45;&gt;Node13 -->
<g id="edge12" class="edge">
<title>Node7&#45;&gt;Node13</title>
<path fill="none" stroke="midnightblue" d="M735.68,-246.18C731.92,-237.21 726.2,-222.84 722.5,-210 709.91,-166.34 700.73,-113.66 696.36,-86.03"/>
<polygon fill="midnightblue" stroke="midnightblue" points="699.77,-85.17 694.78,-75.82 692.85,-86.24 699.77,-85.17"/>
</g>
<!-- Node9 -->
<g id="node9" class="node">
<title>Node9</title>
<g id="a_node9"><a xlink:href="lbfgs-fwd_8hpp.html" target="_top" xlink:title=" ">
<polygon fill="white" stroke="black" points="721.5,-118 721.5,-137 857.5,-137 857.5,-118 721.5,-118"/>
<text text-anchor="middle" x="789.5" y="-125" font-family="Helvetica,sans-Serif" font-size="10.00">quala/decl/lbfgs&#45;fwd.hpp</text>
</a>
</g>
</g>
<!-- Node8&#45;&gt;Node9 -->
<g id="edge8" class="edge">
<title>Node8&#45;&gt;Node9</title>
<path fill="none" stroke="midnightblue" d="M789.5,-184.73C789.5,-175.18 789.5,-159.62 789.5,-147.28"/>
<polygon fill="midnightblue" stroke="midnightblue" points="793,-147.13 789.5,-137.13 786,-147.13 793,-147.13"/>
</g>
<!-- Node10 -->
<g id="node10" class="node">
<title>Node10</title>
<g id="a_node10"><a xlink:href="vec_8hpp.html" target="_top" xlink:title=" ">
<polygon fill="white" stroke="black" points="833.5,-56.5 833.5,-75.5 937.5,-75.5 937.5,-56.5 833.5,-56.5"/>
<text text-anchor="middle" x="885.5" y="-63.5" font-family="Helvetica,sans-Serif" font-size="10.00">quala/util/vec.hpp</text>
</a>
</g>
</g>
<!-- Node8&#45;&gt;Node10 -->
<g id="edge9" class="edge">
<title>Node8&#45;&gt;Node10</title>
<path fill="none" stroke="midnightblue" d="M810.68,-184.91C828.24,-176.71 852.52,-162.68 866.5,-143 878.53,-126.06 882.97,-102.28 884.59,-85.85"/>
<polygon fill="midnightblue" stroke="midnightblue" points="888.09,-86.05 885.32,-75.83 881.11,-85.54 888.09,-86.05"/>
</g>
<!-- Node11 -->
<g id="node11" class="node">
<title>Node11</title>
<g id="a_node11"><a xlink:title=" ">
<polygon fill="white" stroke="#bfbfbf" points="851,-0.5 851,-19.5 920,-19.5 920,-0.5 851,-0.5"/>
<text text-anchor="middle" x="885.5" y="-7.5" font-family="Helvetica,sans-Serif" font-size="10.00">Eigen/Core</text>
</a>
</g>
</g>
<!-- Node10&#45;&gt;Node11 -->
<g id="edge10" class="edge">
<title>Node10&#45;&gt;Node11</title>
<path fill="none" stroke="midnightblue" d="M885.5,-56.08C885.5,-49.01 885.5,-38.86 885.5,-29.99"/>
<polygon fill="midnightblue" stroke="midnightblue" points="889,-29.75 885.5,-19.75 882,-29.75 889,-29.75"/>
</g>
<!-- Node14&#45;&gt;Node12 -->
<g id="edge25" class="edge">
<title>Node14&#45;&gt;Node12</title>
<path fill="none" stroke="midnightblue" d="M593.95,-246.48C600.7,-237.55 611.47,-223.31 619.91,-212.14"/>
<polygon fill="midnightblue" stroke="midnightblue" points="622.82,-214.1 626.06,-204.01 617.24,-209.87 622.82,-214.1"/>
</g>
<!-- Node15 -->
<g id="node15" class="node">
<title>Node15</title>
<g id="a_node15"><a xlink:href="anderson-helpers_8hpp.html" target="_top" xlink:title=" ">
<polygon fill="white" stroke="black" points="459.5,-179.5 459.5,-209.5 581.5,-209.5 581.5,-179.5 459.5,-179.5"/>
<text text-anchor="start" x="467.5" y="-197.5" font-family="Helvetica,sans-Serif" font-size="10.00">quala/detail/anderson</text>
<text text-anchor="middle" x="520.5" y="-186.5" font-family="Helvetica,sans-Serif" font-size="10.00">&#45;helpers.hpp</text>
</a>
</g>
</g>
<!-- Node14&#45;&gt;Node15 -->
<g id="edge14" class="edge">
<title>Node14&#45;&gt;Node15</title>
<path fill="none" stroke="midnightblue" d="M577.9,-246.48C569.08,-238.64 555.65,-226.71 544,-216.37"/>
<polygon fill="midnightblue" stroke="midnightblue" points="546.09,-213.55 536.29,-209.52 541.44,-218.78 546.09,-213.55"/>
</g>
<!-- Node16 -->
<g id="node16" class="node">
<title>Node16</title>
<g id="a_node16"><a xlink:href="limited-memory-qr_8hpp.html" target="_top" xlink:title=" ">
<polygon fill="white" stroke="black" points="505.5,-112.5 505.5,-142.5 617.5,-142.5 617.5,-112.5 505.5,-112.5"/>
<text text-anchor="start" x="513.5" y="-130.5" font-family="Helvetica,sans-Serif" font-size="10.00">quala/detail/limited</text>
<text text-anchor="middle" x="561.5" y="-119.5" font-family="Helvetica,sans-Serif" font-size="10.00">&#45;memory&#45;qr.hpp</text>
</a>
</g>
</g>
<!-- Node15&#45;&gt;Node16 -->
<g id="edge15" class="edge">
<title>Node15&#45;&gt;Node16</title>
<path fill="none" stroke="midnightblue" d="M529.4,-179.4C534.61,-171.13 541.31,-160.51 547.24,-151.1"/>
<polygon fill="midnightblue" stroke="midnightblue" points="550.25,-152.9 552.62,-142.58 544.33,-149.17 550.25,-152.9"/>
</g>
<!-- Node16&#45;&gt;Node10 -->
<g id="edge23" class="edge">
<title>Node16&#45;&gt;Node10</title>
<path fill="none" stroke="midnightblue" d="M617.57,-116.2C676.81,-105.32 769.7,-88.27 829.08,-77.36"/>
<polygon fill="midnightblue" stroke="midnightblue" points="829.83,-80.78 839.03,-75.53 828.56,-73.9 829.83,-80.78"/>
</g>
<!-- Node16&#45;&gt;Node13 -->
<g id="edge24" class="edge">
<title>Node16&#45;&gt;Node13</title>
<path fill="none" stroke="midnightblue" d="M592.78,-112.4C614.73,-102.51 643.84,-89.38 665.12,-79.79"/>
<polygon fill="midnightblue" stroke="midnightblue" points="666.61,-82.96 674.29,-75.66 663.74,-76.58 666.61,-82.96"/>
</g>
<!-- Node17 -->
<g id="node17" class="node">
<title>Node17</title>
<g id="a_node17"><a xlink:title=" ">
<polygon fill="white" stroke="#bfbfbf" points="564.5,-56.5 564.5,-75.5 640.5,-75.5 640.5,-56.5 564.5,-56.5"/>
<text text-anchor="middle" x="602.5" y="-63.5" font-family="Helvetica,sans-Serif" font-size="10.00">Eigen/Jacobi</text>
</a>
</g>
</g>
<!-- Node16&#45;&gt;Node17 -->
<g id="edge16" class="edge">
<title>Node16&#45;&gt;Node17</title>
<path fill="none" stroke="midnightblue" d="M571.22,-112.4C577.05,-103.93 584.52,-93.1 590.69,-84.14"/>
<polygon fill="midnightblue" stroke="midnightblue" points="593.74,-85.88 596.53,-75.66 587.98,-81.91 593.74,-85.88"/>
</g>
<!-- Node18 -->
<g id="node18" class="node">
<title>Node18</title>
<g id="a_node18"><a xlink:title=" ">
<polygon fill="white" stroke="#bfbfbf" points="358,-0.5 358,-19.5 411,-19.5 411,-0.5 358,-0.5"/>
<text text-anchor="middle" x="384.5" y="-7.5" font-family="Helvetica,sans-Serif" font-size="10.00">cstddef</text>
</a>
</g>
</g>
<!-- Node16&#45;&gt;Node18 -->
<g id="edge17" class="edge">
<title>Node16&#45;&gt;Node18</title>
<path fill="none" stroke="midnightblue" d="M505.27,-121.65C471.53,-115.88 430.14,-103.32 403.5,-76 391.58,-63.78 387.07,-44.51 385.4,-30.12"/>
<polygon fill="midnightblue" stroke="midnightblue" points="388.86,-29.55 384.58,-19.86 381.89,-30.1 388.86,-29.55"/>
</g>
<!-- Node19 -->
<g id="node19" class="node">
<title>Node19</title>
<g id="a_node19"><a xlink:href="ringbuffer_8hpp.html" target="_top" xlink:title=" ">
<polygon fill="white" stroke="black" points="413,-56.5 413,-75.5 546,-75.5 546,-56.5 413,-56.5"/>
<text text-anchor="middle" x="479.5" y="-63.5" font-family="Helvetica,sans-Serif" font-size="10.00">quala/util/ringbuffer.hpp</text>
</a>
</g>
</g>
<!-- Node16&#45;&gt;Node19 -->
<g id="edge18" class="edge">
<title>Node16&#45;&gt;Node19</title>
<path fill="none" stroke="midnightblue" d="M542.07,-112.4C529.29,-103.13 512.61,-91.03 499.69,-81.65"/>
<polygon fill="midnightblue" stroke="midnightblue" points="501.58,-78.7 491.43,-75.66 497.47,-84.36 501.58,-78.7"/>
</g>
<!-- Node19&#45;&gt;Node18 -->
<g id="edge20" class="edge">
<title>Node19&#45;&gt;Node18</title>
<path fill="none" stroke="midnightblue" d="M464.24,-56.32C449.28,-47.82 426.25,-34.73 408.77,-24.8"/>
<polygon fill="midnightblue" stroke="midnightblue" points="410.15,-21.55 399.73,-19.65 406.69,-27.64 410.15,-21.55"/>
</g>
<!-- Node20 -->
<g id="node20" class="node">
<title>Node20</title>
<g id="a_node20"><a xlink:title=" ">
<polygon fill="white" stroke="#bfbfbf" points="565.5,-0.5 565.5,-19.5 629.5,-19.5 629.5,-0.5 565.5,-0.5"/>
<text text-anchor="middle" x="597.5" y="-7.5" font-family="Helvetica,sans-Serif" font-size="10.00">algorithm</text>
</a>
</g>
</g>
<!-- Node19&#45;&gt;Node20 -->
<g id="edge19" class="edge">
<title>Node19&#45;&gt;Node20</title>
<path fill="none" stroke="midnightblue" d="M498.2,-56.44C517.44,-47.64 547.65,-33.81 569.7,-23.72"/>
<polygon fill="midnightblue" stroke="midnightblue" points="571.25,-26.86 578.89,-19.52 568.34,-20.5 571.25,-26.86"/>
</g>
<!-- Node21 -->
<g id="node21" class="node">
<title>Node21</title>
<g id="a_node21"><a xlink:title=" ">
<polygon fill="white" stroke="#bfbfbf" points="429,-0.5 429,-19.5 482,-19.5 482,-0.5 429,-0.5"/>
<text text-anchor="middle" x="455.5" y="-7.5" font-family="Helvetica,sans-Serif" font-size="10.00">iterator</text>
</a>
</g>
</g>
<!-- Node19&#45;&gt;Node21 -->
<g id="edge21" class="edge">
<title>Node19&#45;&gt;Node21</title>
<path fill="none" stroke="midnightblue" d="M475.54,-56.08C472.29,-48.77 467.58,-38.18 463.55,-29.1"/>
<polygon fill="midnightblue" stroke="midnightblue" points="466.65,-27.47 459.39,-19.75 460.25,-30.31 466.65,-27.47"/>
</g>
<!-- Node22 -->
<g id="node22" class="node">
<title>Node22</title>
<g id="a_node22"><a xlink:title=" ">
<polygon fill="white" stroke="#bfbfbf" points="500,-0.5 500,-19.5 547,-19.5 547,-0.5 500,-0.5"/>
<text text-anchor="middle" x="523.5" y="-7.5" font-family="Helvetica,sans-Serif" font-size="10.00">vector</text>
</a>
</g>
</g>
<!-- Node19&#45;&gt;Node22 -->
<g id="edge22" class="edge">
<title>Node19&#45;&gt;Node22</title>
<path fill="none" stroke="midnightblue" d="M486.77,-56.08C493.04,-48.38 502.29,-37.03 509.93,-27.65"/>
<polygon fill="midnightblue" stroke="midnightblue" points="512.77,-29.71 516.37,-19.75 507.34,-25.29 512.77,-29.71"/>
</g>
<!-- Node23&#45;&gt;Node10 -->
<g id="edge27" class="edge">
<title>Node23&#45;&gt;Node10</title>
<path fill="none" stroke="midnightblue" d="M967.75,-117.98C952.13,-108.3 926.44,-92.37 907.92,-80.89"/>
<polygon fill="midnightblue" stroke="midnightblue" points="909.57,-77.8 899.23,-75.51 905.88,-83.75 909.57,-77.8"/>
</g>
</g>
</svg>
