<?xml version="1.0" encoding="UTF-8" standalone="no"?>
<!DOCTYPE svg PUBLIC "-//W3C//DTD SVG 1.1//EN"
 "http://www.w3.org/Graphics/SVG/1.1/DTD/svg11.dtd">
<!-- Generated by graphviz version 2.43.0 (0)
 -->
<!-- Title: quala.cpp Pages: 1 -->
<svg width="1791pt" height="386pt"
 viewBox="0.00 0.00 1790.50 386.00" xmlns="http://www.w3.org/2000/svg" xmlns:xlink="http://www.w3.org/1999/xlink">
<g id="graph0" class="graph" transform="scale(1 1) rotate(0) translate(4 382)">
<title>quala.cpp</title>
<polygon fill="white" stroke="transparent" points="-4,4 -4,-382 1786.5,-382 1786.5,4 -4,4"/>
<!-- Node1 -->
<g id="node1" class="node">
<title>Node1</title>
<g id="a_node1"><a xlink:title="This file defines all Python bindings.">
<polygon fill="#bfbfbf" stroke="black" points="1058,-358.5 1058,-377.5 1122,-377.5 1122,-358.5 1058,-358.5"/>
<text text-anchor="middle" x="1090" y="-365.5" font-family="Helvetica,sans-Serif" font-size="10.00">quala.cpp</text>
</a>
</g>
</g>
<!-- Node2 -->
<g id="node2" class="node">
<title>Node2</title>
<g id="a_node2"><a xlink:title=" ">
<polygon fill="white" stroke="#bfbfbf" points="0,-302.5 0,-321.5 90,-321.5 90,-302.5 0,-302.5"/>
<text text-anchor="middle" x="45" y="-309.5" font-family="Helvetica,sans-Serif" font-size="10.00">pybind11/attr.h</text>
</a>
</g>
</g>
<!-- Node1&#45;&gt;Node2 -->
<g id="edge1" class="edge">
<title>Node1&#45;&gt;Node2</title>
<path fill="none" stroke="midnightblue" d="M1057.81,-366.94C934.8,-366.4 482.56,-361.76 100.18,-321.98"/>
<polygon fill="midnightblue" stroke="midnightblue" points="100.34,-318.48 90.03,-320.92 99.61,-325.44 100.34,-318.48"/>
</g>
<!-- Node3 -->
<g id="node3" class="node">
<title>Node3</title>
<g id="a_node3"><a xlink:title=" ">
<polygon fill="white" stroke="#bfbfbf" points="108,-302.5 108,-321.5 202,-321.5 202,-302.5 108,-302.5"/>
<text text-anchor="middle" x="155" y="-309.5" font-family="Helvetica,sans-Serif" font-size="10.00">pybind11/cast.h</text>
</a>
</g>
</g>
<!-- Node1&#45;&gt;Node3 -->
<g id="edge2" class="edge">
<title>Node1&#45;&gt;Node3</title>
<path fill="none" stroke="midnightblue" d="M1057.97,-366.61C944.23,-364.96 548.97,-357 212.44,-322.03"/>
<polygon fill="midnightblue" stroke="midnightblue" points="212.32,-318.5 202,-320.93 211.58,-325.46 212.32,-318.5"/>
</g>
<!-- Node4 -->
<g id="node4" class="node">
<title>Node4</title>
<g id="a_node4"><a xlink:title=" ">
<polygon fill="white" stroke="#bfbfbf" points="220.5,-302.5 220.5,-321.5 327.5,-321.5 327.5,-302.5 220.5,-302.5"/>
<text text-anchor="middle" x="274" y="-309.5" font-family="Helvetica,sans-Serif" font-size="10.00">pybind11/chrono.h</text>
</a>
</g>
</g>
<!-- Node1&#45;&gt;Node4 -->
<g id="edge3" class="edge">
<title>Node1&#45;&gt;Node4</title>
<path fill="none" stroke="midnightblue" d="M1057.95,-366.06C954.92,-362.82 622.76,-350.8 337.85,-322.11"/>
<polygon fill="midnightblue" stroke="midnightblue" points="338.04,-318.61 327.73,-321.08 337.33,-325.58 338.04,-318.61"/>
</g>
<!-- Node5 -->
<g id="node5" class="node">
<title>Node5</title>
<g id="a_node5"><a xlink:title=" ">
<polygon fill="white" stroke="#bfbfbf" points="345.5,-302.5 345.5,-321.5 492.5,-321.5 492.5,-302.5 345.5,-302.5"/>
<text text-anchor="middle" x="419" y="-309.5" font-family="Helvetica,sans-Serif" font-size="10.00">pybind11/detail/common.h</text>
</a>
</g>
</g>
<!-- Node1&#45;&gt;Node5 -->
<g id="edge4" class="edge">
<title>Node1&#45;&gt;Node5</title>
<path fill="none" stroke="midnightblue" d="M1057.73,-364.91C970.21,-359.17 720.84,-342.26 502.78,-322.14"/>
<polygon fill="midnightblue" stroke="midnightblue" points="503.03,-318.65 492.75,-321.21 502.38,-325.62 503.03,-318.65"/>
</g>
<!-- Node6 -->
<g id="node6" class="node">
<title>Node6</title>
<g id="a_node6"><a xlink:title=" ">
<polygon fill="white" stroke="#bfbfbf" points="510.5,-302.5 510.5,-321.5 611.5,-321.5 611.5,-302.5 510.5,-302.5"/>
<text text-anchor="middle" x="561" y="-309.5" font-family="Helvetica,sans-Serif" font-size="10.00">pybind11/eigen.h</text>
</a>
</g>
</g>
<!-- Node1&#45;&gt;Node6 -->
<g id="edge5" class="edge">
<title>Node1&#45;&gt;Node6</title>
<path fill="none" stroke="midnightblue" d="M1057.81,-364.51C983.19,-358.6 792.44,-342.76 621.88,-322.04"/>
<polygon fill="midnightblue" stroke="midnightblue" points="622.06,-318.54 611.71,-320.8 621.21,-325.49 622.06,-318.54"/>
</g>
<!-- Node7 -->
<g id="node7" class="node">
<title>Node7</title>
<g id="a_node7"><a xlink:title=" ">
<polygon fill="white" stroke="#bfbfbf" points="630,-302.5 630,-321.5 752,-321.5 752,-302.5 630,-302.5"/>
<text text-anchor="middle" x="691" y="-309.5" font-family="Helvetica,sans-Serif" font-size="10.00">pybind11/functional.h</text>
</a>
</g>
</g>
<!-- Node1&#45;&gt;Node7 -->
<g id="edge6" class="edge">
<title>Node1&#45;&gt;Node7</title>
<path fill="none" stroke="midnightblue" d="M1057.69,-362.63C993.71,-353.97 849.57,-334.46 762.27,-322.65"/>
<polygon fill="midnightblue" stroke="midnightblue" points="762.56,-319.15 752.18,-321.28 761.62,-326.09 762.56,-319.15"/>
</g>
<!-- Node8 -->
<g id="node8" class="node">
<title>Node8</title>
<g id="a_node8"><a xlink:title=" ">
<polygon fill="white" stroke="#bfbfbf" points="770.5,-302.5 770.5,-321.5 887.5,-321.5 887.5,-302.5 770.5,-302.5"/>
<text text-anchor="middle" x="829" y="-309.5" font-family="Helvetica,sans-Serif" font-size="10.00">pybind11/iostream.h</text>
</a>
</g>
</g>
<!-- Node1&#45;&gt;Node8 -->
<g id="edge7" class="edge">
<title>Node1&#45;&gt;Node8</title>
<path fill="none" stroke="midnightblue" d="M1058,-360.38C1013.62,-351.2 932.92,-334.5 880.14,-323.58"/>
<polygon fill="midnightblue" stroke="midnightblue" points="880.8,-320.14 870.3,-321.55 879.39,-327 880.8,-320.14"/>
</g>
<!-- Node9 -->
<g id="node9" class="node">
<title>Node9</title>
<g id="a_node9"><a xlink:title=" ">
<polygon fill="white" stroke="#bfbfbf" points="431.5,-246.5 431.5,-265.5 550.5,-265.5 550.5,-246.5 431.5,-246.5"/>
<text text-anchor="middle" x="491" y="-253.5" font-family="Helvetica,sans-Serif" font-size="10.00">pybind11/pybind11.h</text>
</a>
</g>
</g>
<!-- Node1&#45;&gt;Node9 -->
<g id="edge8" class="edge">
<title>Node1&#45;&gt;Node9</title>
<path fill="none" stroke="midnightblue" d="M1057.94,-359.6C1026.17,-351.83 976.4,-338.45 935,-322 916.9,-314.81 914.66,-307.59 896,-302 754.25,-259.53 712.01,-282.93 565,-266 563.7,-265.85 562.38,-265.7 561.06,-265.54"/>
<polygon fill="midnightblue" stroke="midnightblue" points="561.11,-262.03 550.77,-264.33 560.29,-268.98 561.11,-262.03"/>
</g>
<!-- Node10 -->
<g id="node10" class="node">
<title>Node10</title>
<g id="a_node10"><a xlink:title=" ">
<polygon fill="white" stroke="#bfbfbf" points="1156.5,-302.5 1156.5,-321.5 1269.5,-321.5 1269.5,-302.5 1156.5,-302.5"/>
<text text-anchor="middle" x="1213" y="-309.5" font-family="Helvetica,sans-Serif" font-size="10.00">pybind11/pytypes.h</text>
</a>
</g>
</g>
<!-- Node1&#45;&gt;Node10 -->
<g id="edge9" class="edge">
<title>Node1&#45;&gt;Node10</title>
<path fill="none" stroke="midnightblue" d="M1109.49,-358.44C1129.64,-349.6 1161.32,-335.69 1184.33,-325.59"/>
<polygon fill="midnightblue" stroke="midnightblue" points="1185.85,-328.74 1193.6,-321.52 1183.04,-322.33 1185.85,-328.74"/>
</g>
<!-- Node11 -->
<g id="node11" class="node">
<title>Node11</title>
<g id="a_node11"><a xlink:title=" ">
<polygon fill="white" stroke="#bfbfbf" points="1288,-302.5 1288,-321.5 1374,-321.5 1374,-302.5 1288,-302.5"/>
<text text-anchor="middle" x="1331" y="-309.5" font-family="Helvetica,sans-Serif" font-size="10.00">pybind11/stl.h</text>
</a>
</g>
</g>
<!-- Node1&#45;&gt;Node11 -->
<g id="edge10" class="edge">
<title>Node1&#45;&gt;Node11</title>
<path fill="none" stroke="midnightblue" d="M1122,-359.83C1163.24,-350.59 1235.31,-334.44 1283.09,-323.73"/>
<polygon fill="midnightblue" stroke="midnightblue" points="1283.91,-327.14 1292.9,-321.54 1282.38,-320.31 1283.91,-327.14"/>
</g>
<!-- Node12 -->
<g id="node12" class="node">
<title>Node12</title>
<g id="a_node12"><a xlink:title=" ">
<polygon fill="white" stroke="#bfbfbf" points="1392,-302.5 1392,-321.5 1450,-321.5 1450,-302.5 1392,-302.5"/>
<text text-anchor="middle" x="1421" y="-309.5" font-family="Helvetica,sans-Serif" font-size="10.00">memory</text>
</a>
</g>
</g>
<!-- Node1&#45;&gt;Node12 -->
<g id="edge11" class="edge">
<title>Node1&#45;&gt;Node12</title>
<path fill="none" stroke="midnightblue" d="M1122.23,-362.91C1174.6,-356.08 1281.6,-341.35 1381.63,-322.14"/>
<polygon fill="midnightblue" stroke="midnightblue" points="1382.44,-325.55 1391.59,-320.21 1381.11,-318.68 1382.44,-325.55"/>
</g>
<!-- Node13 -->
<g id="node13" class="node">
<title>Node13</title>
<g id="a_node13"><a xlink:title=" ">
<polygon fill="white" stroke="#bfbfbf" points="1468,-302.5 1468,-321.5 1524,-321.5 1524,-302.5 1468,-302.5"/>
<text text-anchor="middle" x="1496" y="-309.5" font-family="Helvetica,sans-Serif" font-size="10.00">optional</text>
</a>
</g>
</g>
<!-- Node1&#45;&gt;Node13 -->
<g id="edge12" class="edge">
<title>Node1&#45;&gt;Node13</title>
<path fill="none" stroke="midnightblue" d="M1122.27,-364.35C1185.03,-358.91 1328,-345.19 1457.68,-322.05"/>
<polygon fill="midnightblue" stroke="midnightblue" points="1458.57,-325.45 1467.79,-320.22 1457.33,-318.56 1458.57,-325.45"/>
</g>
<!-- Node14 -->
<g id="node14" class="node">
<title>Node14</title>
<g id="a_node14"><a xlink:title=" ">
<polygon fill="white" stroke="#bfbfbf" points="1542,-302.5 1542,-321.5 1598,-321.5 1598,-302.5 1542,-302.5"/>
<text text-anchor="middle" x="1570" y="-309.5" font-family="Helvetica,sans-Serif" font-size="10.00">sstream</text>
</a>
</g>
</g>
<!-- Node1&#45;&gt;Node14 -->
<g id="edge13" class="edge">
<title>Node1&#45;&gt;Node14</title>
<path fill="none" stroke="midnightblue" d="M1122.17,-365.25C1193.98,-361.02 1372.89,-348.7 1531.84,-321.98"/>
<polygon fill="midnightblue" stroke="midnightblue" points="1532.53,-325.41 1541.8,-320.28 1531.36,-318.51 1532.53,-325.41"/>
</g>
<!-- Node15 -->
<g id="node15" class="node">
<title>Node15</title>
<g id="a_node15"><a xlink:title=" ">
<polygon fill="white" stroke="#bfbfbf" points="1058.5,-185 1058.5,-204 1123.5,-204 1123.5,-185 1058.5,-185"/>
<text text-anchor="middle" x="1091" y="-192" font-family="Helvetica,sans-Serif" font-size="10.00">stdexcept</text>
</a>
</g>
</g>
<!-- Node1&#45;&gt;Node15 -->
<g id="edge14" class="edge">
<title>Node1&#45;&gt;Node15</title>
<path fill="none" stroke="midnightblue" d="M1090.05,-358.26C1090.21,-331.65 1090.68,-251.21 1090.89,-214.34"/>
<polygon fill="midnightblue" stroke="midnightblue" points="1094.39,-214.04 1090.95,-204.02 1087.39,-214 1094.39,-214.04"/>
</g>
<!-- Node16 -->
<g id="node16" class="node">
<title>Node16</title>
<g id="a_node16"><a xlink:title=" ">
<polygon fill="white" stroke="#bfbfbf" points="1616,-302.5 1616,-321.5 1660,-321.5 1660,-302.5 1616,-302.5"/>
<text text-anchor="middle" x="1638" y="-309.5" font-family="Helvetica,sans-Serif" font-size="10.00">string</text>
</a>
</g>
</g>
<!-- Node1&#45;&gt;Node16 -->
<g id="edge15" class="edge">
<title>Node1&#45;&gt;Node16</title>
<path fill="none" stroke="midnightblue" d="M1122.06,-366.38C1202.24,-364.39 1417.9,-356.17 1605.72,-321.88"/>
<polygon fill="midnightblue" stroke="midnightblue" points="1606.58,-325.28 1615.77,-320.02 1605.3,-318.4 1606.58,-325.28"/>
</g>
<!-- Node17 -->
<g id="node17" class="node">
<title>Node17</title>
<g id="a_node17"><a xlink:title=" ">
<polygon fill="white" stroke="#bfbfbf" points="1678.5,-302.5 1678.5,-321.5 1719.5,-321.5 1719.5,-302.5 1678.5,-302.5"/>
<text text-anchor="middle" x="1699" y="-309.5" font-family="Helvetica,sans-Serif" font-size="10.00">tuple</text>
</a>
</g>
</g>
<!-- Node1&#45;&gt;Node17 -->
<g id="edge16" class="edge">
<title>Node1&#45;&gt;Node17</title>
<path fill="none" stroke="midnightblue" d="M1122.01,-366.9C1208.69,-366.13 1455.23,-360.61 1668.36,-321.66"/>
<polygon fill="midnightblue" stroke="midnightblue" points="1669.29,-325.05 1678.49,-319.79 1668.01,-318.17 1669.29,-325.05"/>
</g>
<!-- Node18 -->
<g id="node18" class="node">
<title>Node18</title>
<g id="a_node18"><a xlink:title=" ">
<polygon fill="white" stroke="#bfbfbf" points="1093.5,-56.5 1093.5,-75.5 1162.5,-75.5 1162.5,-56.5 1093.5,-56.5"/>
<text text-anchor="middle" x="1128" y="-63.5" font-family="Helvetica,sans-Serif" font-size="10.00">type_traits</text>
</a>
</g>
</g>
<!-- Node1&#45;&gt;Node18 -->
<g id="edge17" class="edge">
<title>Node1&#45;&gt;Node18</title>
<path fill="none" stroke="midnightblue" d="M1095.21,-358.3C1104.15,-344.16 1123.8,-316.35 1148,-302 1208.83,-265.93 1259.01,-321.38 1303,-266 1360.72,-193.34 1218.84,-111.63 1156.06,-80.25"/>
<polygon fill="midnightblue" stroke="midnightblue" points="1157.23,-76.92 1146.71,-75.65 1154.14,-83.21 1157.23,-76.92"/>
</g>
<!-- Node19 -->
<g id="node19" class="node">
<title>Node19</title>
<g id="a_node19"><a xlink:title=" ">
<polygon fill="white" stroke="#bfbfbf" points="1737.5,-302.5 1737.5,-321.5 1782.5,-321.5 1782.5,-302.5 1737.5,-302.5"/>
<text text-anchor="middle" x="1760" y="-309.5" font-family="Helvetica,sans-Serif" font-size="10.00">utility</text>
</a>
</g>
</g>
<!-- Node1&#45;&gt;Node19 -->
<g id="edge18" class="edge">
<title>Node1&#45;&gt;Node19</title>
<path fill="none" stroke="midnightblue" d="M1122.21,-367.13C1215.05,-367.01 1491.11,-363.1 1727.29,-321.95"/>
<polygon fill="midnightblue" stroke="midnightblue" points="1728.21,-325.34 1737.44,-320.15 1726.99,-318.45 1728.21,-325.34"/>
</g>
<!-- Node20 -->
<g id="node20" class="node">
<title>Node20</title>
<g id="a_node20"><a xlink:href="kwargs-to-struct_8hpp.html" target="_top" xlink:title="This file defines mappings from Python dicts (kwargs) to simple parameter structs.">
<polygon fill="white" stroke="black" points="944,-302.5 944,-321.5 1062,-321.5 1062,-302.5 944,-302.5"/>
<text text-anchor="middle" x="1003" y="-309.5" font-family="Helvetica,sans-Serif" font-size="10.00">kwargs&#45;to&#45;struct.hpp</text>
</a>
</g>
</g>
<!-- Node1&#45;&gt;Node20 -->
<g id="edge19" class="edge">
<title>Node1&#45;&gt;Node20</title>
<path fill="none" stroke="midnightblue" d="M1076.02,-358.32C1062.45,-349.9 1041.62,-336.97 1025.68,-327.07"/>
<polygon fill="midnightblue" stroke="midnightblue" points="1027.29,-323.95 1016.94,-321.65 1023.59,-329.9 1027.29,-323.95"/>
</g>
<!-- Node20&#45;&gt;Node9 -->
<g id="edge24" class="edge">
<title>Node20&#45;&gt;Node9</title>
<path fill="none" stroke="midnightblue" d="M943.65,-303.56C939.03,-303.02 934.44,-302.49 930,-302 767.98,-284.03 727.03,-283.84 565,-266 563.7,-265.86 562.38,-265.71 561.06,-265.56"/>
<polygon fill="midnightblue" stroke="midnightblue" points="561.09,-262.04 550.76,-264.39 560.3,-269 561.09,-262.04"/>
</g>
<!-- Node21 -->
<g id="node21" class="node">
<title>Node21</title>
<g id="a_node21"><a xlink:title=" ">
<polygon fill="white" stroke="#bfbfbf" points="996.5,-246.5 996.5,-265.5 1061.5,-265.5 1061.5,-246.5 996.5,-246.5"/>
<text text-anchor="middle" x="1029" y="-253.5" font-family="Helvetica,sans-Serif" font-size="10.00">functional</text>
</a>
</g>
</g>
<!-- Node20&#45;&gt;Node21 -->
<g id="edge20" class="edge">
<title>Node20&#45;&gt;Node21</title>
<path fill="none" stroke="midnightblue" d="M1007.29,-302.08C1010.85,-294.69 1016.02,-283.95 1020.42,-274.81"/>
<polygon fill="midnightblue" stroke="midnightblue" points="1023.6,-276.28 1024.79,-265.75 1017.29,-273.24 1023.6,-276.28"/>
</g>
<!-- Node22 -->
<g id="node22" class="node">
<title>Node22</title>
<g id="a_node22"><a xlink:title=" ">
<polygon fill="white" stroke="#bfbfbf" points="607,-246.5 607,-265.5 645,-265.5 645,-246.5 607,-246.5"/>
<text text-anchor="middle" x="626" y="-253.5" font-family="Helvetica,sans-Serif" font-size="10.00">map</text>
</a>
</g>
</g>
<!-- Node20&#45;&gt;Node22 -->
<g id="edge21" class="edge">
<title>Node20&#45;&gt;Node22</title>
<path fill="none" stroke="midnightblue" d="M943.64,-303.63C856.54,-292.78 700.24,-273.17 655.21,-265.58"/>
<polygon fill="midnightblue" stroke="midnightblue" points="655.63,-262.09 645.15,-263.67 654.32,-268.97 655.63,-262.09"/>
</g>
<!-- Node23 -->
<g id="node23" class="node">
<title>Node23</title>
<g id="a_node23"><a xlink:title=" ">
<polygon fill="white" stroke="#bfbfbf" points="663.5,-246.5 663.5,-265.5 714.5,-265.5 714.5,-246.5 663.5,-246.5"/>
<text text-anchor="middle" x="689" y="-253.5" font-family="Helvetica,sans-Serif" font-size="10.00">variant</text>
</a>
</g>
</g>
<!-- Node20&#45;&gt;Node23 -->
<g id="edge22" class="edge">
<title>Node20&#45;&gt;Node23</title>
<path fill="none" stroke="midnightblue" d="M943.96,-303.25C889.3,-295.68 805.59,-283.1 724.44,-266.15"/>
<polygon fill="midnightblue" stroke="midnightblue" points="725.06,-262.7 714.55,-264.06 723.61,-269.55 725.06,-262.7"/>
</g>
<!-- Node24 -->
<g id="node24" class="node">
<title>Node24</title>
<g id="a_node24"><a xlink:title=" ">
<polygon fill="white" stroke="#bfbfbf" points="732.5,-246.5 732.5,-265.5 867.5,-265.5 867.5,-246.5 732.5,-246.5"/>
<text text-anchor="middle" x="800" y="-253.5" font-family="Helvetica,sans-Serif" font-size="10.00">pybind11/detail/typeid.h</text>
</a>
</g>
</g>
<!-- Node20&#45;&gt;Node24 -->
<g id="edge23" class="edge">
<title>Node20&#45;&gt;Node24</title>
<path fill="none" stroke="midnightblue" d="M970.83,-302.44C935.94,-293.16 880.11,-278.31 841.83,-268.13"/>
<polygon fill="midnightblue" stroke="midnightblue" points="842.58,-264.7 832.02,-265.52 840.78,-271.47 842.58,-264.7"/>
</g>
<!-- Node25 -->
<g id="node25" class="node">
<title>Node25</title>
<g id="a_node25"><a xlink:href="lbfgs_8hpp.html" target="_top" xlink:title=" ">
<polygon fill="white" stroke="black" points="886,-246.5 886,-265.5 978,-265.5 978,-246.5 886,-246.5"/>
<text text-anchor="middle" x="932" y="-253.5" font-family="Helvetica,sans-Serif" font-size="10.00">quala/lbfgs.hpp</text>
</a>
</g>
</g>
<!-- Node20&#45;&gt;Node25 -->
<g id="edge25" class="edge">
<title>Node20&#45;&gt;Node25</title>
<path fill="none" stroke="midnightblue" d="M991.59,-302.32C980.89,-294.18 964.66,-281.84 951.84,-272.09"/>
<polygon fill="midnightblue" stroke="midnightblue" points="953.69,-269.1 943.61,-265.83 949.46,-274.67 953.69,-269.1"/>
</g>
<!-- Node30 -->
<g id="node30" class="node">
<title>Node30</title>
<g id="a_node30"><a xlink:href="anderson-acceleration_8hpp.html" target="_top" xlink:title=" ">
<polygon fill="white" stroke="black" points="1118,-246.5 1118,-265.5 1294,-265.5 1294,-246.5 1118,-246.5"/>
<text text-anchor="middle" x="1206" y="-253.5" font-family="Helvetica,sans-Serif" font-size="10.00">quala/anderson&#45;acceleration.hpp</text>
</a>
</g>
</g>
<!-- Node20&#45;&gt;Node30 -->
<g id="edge32" class="edge">
<title>Node20&#45;&gt;Node30</title>
<path fill="none" stroke="midnightblue" d="M1035.17,-302.44C1070.06,-293.16 1125.89,-278.31 1164.17,-268.13"/>
<polygon fill="midnightblue" stroke="midnightblue" points="1165.22,-271.47 1173.98,-265.52 1163.42,-264.7 1165.22,-271.47"/>
</g>
<!-- Node39 -->
<g id="node39" class="node">
<title>Node39</title>
<g id="a_node39"><a xlink:href="broyden-good_8hpp.html" target="_top" xlink:title=" ">
<polygon fill="white" stroke="black" points="528.5,-118 528.5,-137 663.5,-137 663.5,-118 528.5,-118"/>
<text text-anchor="middle" x="596" y="-125" font-family="Helvetica,sans-Serif" font-size="10.00">quala/broyden&#45;good.hpp</text>
</a>
</g>
</g>
<!-- Node20&#45;&gt;Node39 -->
<g id="edge45" class="edge">
<title>Node20&#45;&gt;Node39</title>
<path fill="none" stroke="midnightblue" d="M943.63,-303.71C938.68,-303.13 933.76,-302.55 929,-302 855.5,-293.53 647.81,-320.71 598,-266 568.36,-233.44 580.39,-176.42 589.43,-147.09"/>
<polygon fill="midnightblue" stroke="midnightblue" points="592.85,-147.91 592.66,-137.32 586.2,-145.72 592.85,-147.91"/>
</g>
<!-- Node25&#45;&gt;Node15 -->
<g id="edge30" class="edge">
<title>Node25&#45;&gt;Node15</title>
<path fill="none" stroke="midnightblue" d="M954.78,-246.48C982.05,-236.27 1027.91,-219.11 1058.8,-207.55"/>
<polygon fill="midnightblue" stroke="midnightblue" points="1060.12,-210.79 1068.26,-204.01 1057.67,-204.24 1060.12,-210.79"/>
</g>
<!-- Node25&#45;&gt;Node18 -->
<g id="edge31" class="edge">
<title>Node25&#45;&gt;Node18</title>
<path fill="none" stroke="midnightblue" d="M940.93,-246.43C971.48,-217.13 1072.08,-120.63 1111.73,-82.6"/>
<polygon fill="midnightblue" stroke="midnightblue" points="1114.22,-85.06 1119.02,-75.62 1109.38,-80.01 1114.22,-85.06"/>
</g>
<!-- Node26 -->
<g id="node26" class="node">
<title>Node26</title>
<g id="a_node26"><a xlink:href="decl_2lbfgs_8hpp.html" target="_top" xlink:title=" ">
<polygon fill="white" stroke="black" points="746.5,-185 746.5,-204 861.5,-204 861.5,-185 746.5,-185"/>
<text text-anchor="middle" x="804" y="-192" font-family="Helvetica,sans-Serif" font-size="10.00">quala/decl/lbfgs.hpp</text>
</a>
</g>
</g>
<!-- Node25&#45;&gt;Node26 -->
<g id="edge26" class="edge">
<title>Node25&#45;&gt;Node26</title>
<path fill="none" stroke="midnightblue" d="M913.66,-246.48C892.18,-236.49 856.38,-219.85 831.55,-208.31"/>
<polygon fill="midnightblue" stroke="midnightblue" points="832.85,-205.05 822.31,-204.01 829.9,-211.4 832.85,-205.05"/>
</g>
<!-- Node27 -->
<g id="node27" class="node">
<title>Node27</title>
<g id="a_node27"><a xlink:href="lbfgs-fwd_8hpp.html" target="_top" xlink:title=" ">
<polygon fill="white" stroke="black" points="736,-118 736,-137 872,-137 872,-118 736,-118"/>
<text text-anchor="middle" x="804" y="-125" font-family="Helvetica,sans-Serif" font-size="10.00">quala/decl/lbfgs&#45;fwd.hpp</text>
</a>
</g>
</g>
<!-- Node26&#45;&gt;Node27 -->
<g id="edge27" class="edge">
<title>Node26&#45;&gt;Node27</title>
<path fill="none" stroke="midnightblue" d="M804,-184.73C804,-175.18 804,-159.62 804,-147.28"/>
<polygon fill="midnightblue" stroke="midnightblue" points="807.5,-147.13 804,-137.13 800.5,-147.13 807.5,-147.13"/>
</g>
<!-- Node28 -->
<g id="node28" class="node">
<title>Node28</title>
<g id="a_node28"><a xlink:href="vec_8hpp.html" target="_top" xlink:title=" ">
<polygon fill="white" stroke="black" points="656,-56.5 656,-75.5 760,-75.5 760,-56.5 656,-56.5"/>
<text text-anchor="middle" x="708" y="-63.5" font-family="Helvetica,sans-Serif" font-size="10.00">quala/util/vec.hpp</text>
</a>
</g>
</g>
<!-- Node26&#45;&gt;Node28 -->
<g id="edge28" class="edge">
<title>Node26&#45;&gt;Node28</title>
<path fill="none" stroke="midnightblue" d="M782.82,-184.91C765.26,-176.71 740.98,-162.68 727,-143 714.97,-126.06 710.53,-102.28 708.91,-85.85"/>
<polygon fill="midnightblue" stroke="midnightblue" points="712.39,-85.54 708.18,-75.83 705.41,-86.05 712.39,-85.54"/>
</g>
<!-- Node29 -->
<g id="node29" class="node">
<title>Node29</title>
<g id="a_node29"><a xlink:title=" ">
<polygon fill="white" stroke="#bfbfbf" points="673.5,-0.5 673.5,-19.5 742.5,-19.5 742.5,-0.5 673.5,-0.5"/>
<text text-anchor="middle" x="708" y="-7.5" font-family="Helvetica,sans-Serif" font-size="10.00">Eigen/Core</text>
</a>
</g>
</g>
<!-- Node28&#45;&gt;Node29 -->
<g id="edge29" class="edge">
<title>Node28&#45;&gt;Node29</title>
<path fill="none" stroke="midnightblue" d="M708,-56.08C708,-49.01 708,-38.86 708,-29.99"/>
<polygon fill="midnightblue" stroke="midnightblue" points="711.5,-29.75 708,-19.75 704.5,-29.75 711.5,-29.75"/>
</g>
<!-- Node30&#45;&gt;Node15 -->
<g id="edge44" class="edge">
<title>Node30&#45;&gt;Node15</title>
<path fill="none" stroke="midnightblue" d="M1189.52,-246.48C1170.39,-236.58 1138.63,-220.14 1116.35,-208.62"/>
<polygon fill="midnightblue" stroke="midnightblue" points="1117.94,-205.5 1107.45,-204.01 1114.72,-211.71 1117.94,-205.5"/>
</g>
<!-- Node31 -->
<g id="node31" class="node">
<title>Node31</title>
<g id="a_node31"><a xlink:href="anderson-helpers_8hpp.html" target="_top" xlink:title=" ">
<polygon fill="white" stroke="black" points="1143,-179.5 1143,-209.5 1265,-209.5 1265,-179.5 1143,-179.5"/>
<text text-anchor="start" x="1151" y="-197.5" font-family="Helvetica,sans-Serif" font-size="10.00">quala/detail/anderson</text>
<text text-anchor="middle" x="1204" y="-186.5" font-family="Helvetica,sans-Serif" font-size="10.00">&#45;helpers.hpp</text>
</a>
</g>
</g>
<!-- Node30&#45;&gt;Node31 -->
<g id="edge33" class="edge">
<title>Node30&#45;&gt;Node31</title>
<path fill="none" stroke="midnightblue" d="M1205.71,-246.48C1205.48,-239.47 1205.13,-229.19 1204.81,-219.7"/>
<polygon fill="midnightblue" stroke="midnightblue" points="1208.31,-219.4 1204.47,-209.52 1201.31,-219.63 1208.31,-219.4"/>
</g>
<!-- Node32 -->
<g id="node32" class="node">
<title>Node32</title>
<g id="a_node32"><a xlink:href="limited-memory-qr_8hpp.html" target="_top" xlink:title=" ">
<polygon fill="white" stroke="black" points="890,-112.5 890,-142.5 1002,-142.5 1002,-112.5 890,-112.5"/>
<text text-anchor="start" x="898" y="-130.5" font-family="Helvetica,sans-Serif" font-size="10.00">quala/detail/limited</text>
<text text-anchor="middle" x="946" y="-119.5" font-family="Helvetica,sans-Serif" font-size="10.00">&#45;memory&#45;qr.hpp</text>
</a>
</g>
</g>
<!-- Node31&#45;&gt;Node32 -->
<g id="edge34" class="edge">
<title>Node31&#45;&gt;Node32</title>
<path fill="none" stroke="midnightblue" d="M1148.34,-179.48C1108.29,-169.39 1054.13,-155.74 1011.92,-145.11"/>
<polygon fill="midnightblue" stroke="midnightblue" points="1012.56,-141.66 1002.01,-142.61 1010.85,-148.45 1012.56,-141.66"/>
</g>
<!-- Node32&#45;&gt;Node18 -->
<g id="edge43" class="edge">
<title>Node32&#45;&gt;Node18</title>
<path fill="none" stroke="midnightblue" d="M989.13,-112.4C1020.58,-102.12 1062.69,-88.35 1092.27,-78.68"/>
<polygon fill="midnightblue" stroke="midnightblue" points="1093.37,-82.01 1101.78,-75.57 1091.19,-75.35 1093.37,-82.01"/>
</g>
<!-- Node32&#45;&gt;Node28 -->
<g id="edge42" class="edge">
<title>Node32&#45;&gt;Node28</title>
<path fill="none" stroke="midnightblue" d="M889.9,-112.47C847.76,-101.94 790.86,-87.72 751.99,-78"/>
<polygon fill="midnightblue" stroke="midnightblue" points="752.58,-74.54 742.03,-75.51 750.88,-81.33 752.58,-74.54"/>
</g>
<!-- Node33 -->
<g id="node33" class="node">
<title>Node33</title>
<g id="a_node33"><a xlink:title=" ">
<polygon fill="white" stroke="#bfbfbf" points="999,-56.5 999,-75.5 1075,-75.5 1075,-56.5 999,-56.5"/>
<text text-anchor="middle" x="1037" y="-63.5" font-family="Helvetica,sans-Serif" font-size="10.00">Eigen/Jacobi</text>
</a>
</g>
</g>
<!-- Node32&#45;&gt;Node33 -->
<g id="edge35" class="edge">
<title>Node32&#45;&gt;Node33</title>
<path fill="none" stroke="midnightblue" d="M967.57,-112.4C981.88,-103.04 1000.61,-90.79 1015.01,-81.38"/>
<polygon fill="midnightblue" stroke="midnightblue" points="1017.3,-84.06 1023.76,-75.66 1013.47,-78.2 1017.3,-84.06"/>
</g>
<!-- Node34 -->
<g id="node34" class="node">
<title>Node34</title>
<g id="a_node34"><a xlink:title=" ">
<polygon fill="white" stroke="#bfbfbf" points="792.5,-0.5 792.5,-19.5 845.5,-19.5 845.5,-0.5 792.5,-0.5"/>
<text text-anchor="middle" x="819" y="-7.5" font-family="Helvetica,sans-Serif" font-size="10.00">cstddef</text>
</a>
</g>
</g>
<!-- Node32&#45;&gt;Node34 -->
<g id="edge36" class="edge">
<title>Node32&#45;&gt;Node34</title>
<path fill="none" stroke="midnightblue" d="M894.04,-112.39C874.05,-104.61 852.55,-92.97 838,-76 826.89,-63.04 822.27,-43.88 820.35,-29.71"/>
<polygon fill="midnightblue" stroke="midnightblue" points="823.82,-29.23 819.32,-19.64 816.86,-29.94 823.82,-29.23"/>
</g>
<!-- Node35 -->
<g id="node35" class="node">
<title>Node35</title>
<g id="a_node35"><a xlink:href="ringbuffer_8hpp.html" target="_top" xlink:title=" ">
<polygon fill="white" stroke="black" points="847.5,-56.5 847.5,-75.5 980.5,-75.5 980.5,-56.5 847.5,-56.5"/>
<text text-anchor="middle" x="914" y="-63.5" font-family="Helvetica,sans-Serif" font-size="10.00">quala/util/ringbuffer.hpp</text>
</a>
</g>
</g>
<!-- Node32&#45;&gt;Node35 -->
<g id="edge37" class="edge">
<title>Node32&#45;&gt;Node35</title>
<path fill="none" stroke="midnightblue" d="M938.42,-112.4C933.96,-104.11 928.28,-93.55 923.52,-84.71"/>
<polygon fill="midnightblue" stroke="midnightblue" points="926.48,-82.81 918.66,-75.66 920.31,-86.12 926.48,-82.81"/>
</g>
<!-- Node35&#45;&gt;Node34 -->
<g id="edge39" class="edge">
<title>Node35&#45;&gt;Node34</title>
<path fill="none" stroke="midnightblue" d="M898.74,-56.32C883.78,-47.82 860.75,-34.73 843.27,-24.8"/>
<polygon fill="midnightblue" stroke="midnightblue" points="844.65,-21.55 834.23,-19.65 841.19,-27.64 844.65,-21.55"/>
</g>
<!-- Node36 -->
<g id="node36" class="node">
<title>Node36</title>
<g id="a_node36"><a xlink:title=" ">
<polygon fill="white" stroke="#bfbfbf" points="864,-0.5 864,-19.5 928,-19.5 928,-0.5 864,-0.5"/>
<text text-anchor="middle" x="896" y="-7.5" font-family="Helvetica,sans-Serif" font-size="10.00">algorithm</text>
</a>
</g>
</g>
<!-- Node35&#45;&gt;Node36 -->
<g id="edge38" class="edge">
<title>Node35&#45;&gt;Node36</title>
<path fill="none" stroke="midnightblue" d="M911.03,-56.08C908.62,-48.85 905.14,-38.41 902.13,-29.4"/>
<polygon fill="midnightblue" stroke="midnightblue" points="905.4,-28.13 898.92,-19.75 898.76,-30.34 905.4,-28.13"/>
</g>
<!-- Node37 -->
<g id="node37" class="node">
<title>Node37</title>
<g id="a_node37"><a xlink:title=" ">
<polygon fill="white" stroke="#bfbfbf" points="946.5,-0.5 946.5,-19.5 999.5,-19.5 999.5,-0.5 946.5,-0.5"/>
<text text-anchor="middle" x="973" y="-7.5" font-family="Helvetica,sans-Serif" font-size="10.00">iterator</text>
</a>
</g>
</g>
<!-- Node35&#45;&gt;Node37 -->
<g id="edge40" class="edge">
<title>Node35&#45;&gt;Node37</title>
<path fill="none" stroke="midnightblue" d="M923.48,-56.32C932.2,-48.34 945.34,-36.31 955.9,-26.65"/>
<polygon fill="midnightblue" stroke="midnightblue" points="958.33,-29.17 963.35,-19.83 953.61,-24 958.33,-29.17"/>
</g>
<!-- Node38 -->
<g id="node38" class="node">
<title>Node38</title>
<g id="a_node38"><a xlink:title=" ">
<polygon fill="white" stroke="#bfbfbf" points="1017.5,-0.5 1017.5,-19.5 1064.5,-19.5 1064.5,-0.5 1017.5,-0.5"/>
<text text-anchor="middle" x="1041" y="-7.5" font-family="Helvetica,sans-Serif" font-size="10.00">vector</text>
</a>
</g>
</g>
<!-- Node35&#45;&gt;Node38 -->
<g id="edge41" class="edge">
<title>Node35&#45;&gt;Node38</title>
<path fill="none" stroke="midnightblue" d="M934.12,-56.44C955.02,-47.56 987.93,-33.56 1011.72,-23.45"/>
<polygon fill="midnightblue" stroke="midnightblue" points="1013.14,-26.65 1020.97,-19.52 1010.4,-20.21 1013.14,-26.65"/>
</g>
<!-- Node39&#45;&gt;Node28 -->
<g id="edge46" class="edge">
<title>Node39&#45;&gt;Node28</title>
<path fill="none" stroke="midnightblue" d="M612.05,-117.98C630.59,-108.12 661.34,-91.79 683.02,-80.27"/>
<polygon fill="midnightblue" stroke="midnightblue" points="684.79,-83.29 691.98,-75.51 681.51,-77.11 684.79,-83.29"/>
</g>
</g>
</svg>
