<?xml version="1.0" encoding="UTF-8" standalone="no"?>
<!DOCTYPE svg PUBLIC "-//W3C//DTD SVG 1.1//EN"
 "http://www.w3.org/Graphics/SVG/1.1/DTD/svg11.dtd">
<!-- Generated by graphviz version 2.43.0 (0)
 -->
<!-- Title: ~alloc_raii_wrapper Pages: 1 -->
<svg width="424pt" height="88pt"
 viewBox="0.00 0.00 424.00 88.00" xmlns="http://www.w3.org/2000/svg" xmlns:xlink="http://www.w3.org/1999/xlink">
<g id="graph0" class="graph" transform="scale(1 1) rotate(0) translate(4 84)">
<title>~alloc_raii_wrapper</title>
<polygon fill="white" stroke="transparent" points="-4,4 -4,-84 420,-84 420,4 -4,4"/>
<!-- Node1 -->
<g id="node1" class="node">
<title>Node1</title>
<g id="a_node1"><a xlink:title=" ">
<polygon fill="#bfbfbf" stroke="black" points="0,-30 0,-49 114,-49 114,-30 0,-30"/>
<text text-anchor="middle" x="57" y="-37" font-family="Helvetica,sans-Serif" font-size="10.00">~alloc_raii_wrapper</text>
</a>
</g>
</g>
<!-- Node2 -->
<g id="node2" class="node">
<title>Node2</title>
<g id="a_node2"><a xlink:href="classquala_1_1vec__allocator.html#a455bb0797853d67addd58875c671acef" target="_top" xlink:title=" ">
<polygon fill="white" stroke="black" points="150,-24.5 150,-54.5 265,-54.5 265,-24.5 150,-24.5"/>
<text text-anchor="start" x="158" y="-42.5" font-family="Helvetica,sans-Serif" font-size="10.00">quala::vec_allocator</text>
<text text-anchor="middle" x="207.5" y="-31.5" font-family="Helvetica,sans-Serif" font-size="10.00">::free</text>
</a>
</g>
</g>
<!-- Node1&#45;&gt;Node2 -->
<g id="edge1" class="edge">
<title>Node1&#45;&gt;Node2</title>
<path fill="none" stroke="midnightblue" d="M114.14,-39.5C122.43,-39.5 131.05,-39.5 139.53,-39.5"/>
<polygon fill="midnightblue" stroke="midnightblue" points="139.79,-43 149.79,-39.5 139.79,-36 139.79,-43"/>
</g>
<!-- Node3 -->
<g id="node3" class="node">
<title>Node3</title>
<g id="a_node3"><a xlink:href="structquala_1_1vec__allocator_1_1findstack.html#ad950587c89b4306f927b08b5e5cb7e89" target="_top" xlink:title=" ">
<polygon fill="white" stroke="black" points="301,-49.5 301,-79.5 416,-79.5 416,-49.5 301,-49.5"/>
<text text-anchor="start" x="309" y="-67.5" font-family="Helvetica,sans-Serif" font-size="10.00">quala::vec_allocator</text>
<text text-anchor="middle" x="358.5" y="-56.5" font-family="Helvetica,sans-Serif" font-size="10.00">::findstack::begin</text>
</a>
</g>
</g>
<!-- Node2&#45;&gt;Node3 -->
<g id="edge2" class="edge">
<title>Node2&#45;&gt;Node3</title>
<path fill="none" stroke="midnightblue" d="M265.26,-49.02C273.65,-50.43 282.36,-51.89 290.93,-53.33"/>
<polygon fill="midnightblue" stroke="midnightblue" points="290.46,-56.8 300.9,-55 291.62,-49.9 290.46,-56.8"/>
</g>
<!-- Node4 -->
<g id="node4" class="node">
<title>Node4</title>
<g id="a_node4"><a xlink:href="structquala_1_1vec__allocator_1_1findstack.html#a7727305d5e1ec66a181e22c43af9a581" target="_top" xlink:title=" ">
<polygon fill="white" stroke="black" points="301,-0.5 301,-30.5 416,-30.5 416,-0.5 301,-0.5"/>
<text text-anchor="start" x="309" y="-18.5" font-family="Helvetica,sans-Serif" font-size="10.00">quala::vec_allocator</text>
<text text-anchor="middle" x="358.5" y="-7.5" font-family="Helvetica,sans-Serif" font-size="10.00">::findstack::end</text>
</a>
</g>
</g>
<!-- Node2&#45;&gt;Node4 -->
<g id="edge3" class="edge">
<title>Node2&#45;&gt;Node4</title>
<path fill="none" stroke="midnightblue" d="M265.26,-30.36C273.65,-29.01 282.36,-27.6 290.93,-26.22"/>
<polygon fill="midnightblue" stroke="midnightblue" points="291.59,-29.66 300.9,-24.62 290.47,-22.75 291.59,-29.66"/>
</g>
</g>
</svg>
