<?xml version="1.0" encoding="UTF-8" standalone="no"?>
<!DOCTYPE svg PUBLIC "-//W3C//DTD SVG 1.1//EN"
 "http://www.w3.org/Graphics/SVG/1.1/DTD/svg11.dtd">
<!-- Generated by graphviz version 2.43.0 (0)
 -->
<!-- Title: y Pages: 1 -->
<svg width="496pt" height="142pt"
 viewBox="0.00 0.00 496.00 142.00" xmlns="http://www.w3.org/2000/svg" xmlns:xlink="http://www.w3.org/1999/xlink">
<g id="graph0" class="graph" transform="scale(1 1) rotate(0) translate(4 138)">
<title>y</title>
<polygon fill="white" stroke="transparent" points="-4,4 -4,-138 492,-138 492,4 -4,4"/>
<!-- Node1 -->
<g id="node1" class="node">
<title>Node1</title>
<g id="a_node1"><a xlink:title=" ">
<polygon fill="#bfbfbf" stroke="black" points="459,-95.5 459,-114.5 488,-114.5 488,-95.5 459,-95.5"/>
<text text-anchor="middle" x="473.5" y="-102.5" font-family="Helvetica,sans-Serif" font-size="10.00">y</text>
</a>
</g>
</g>
<!-- Node2 -->
<g id="node2" class="node">
<title>Node2</title>
<g id="a_node2"><a xlink:href="classquala_1_1LBFGS.html#aa54be34168109d2e4995711cbd5f5ad8" target="_top" xlink:title="Update the inverse Hessian approximation using the new vectors sₖ = xₖ₊₁ &#45; xₖ and yₖ = pₖ₊₁ &#45; pₖ.">
<polygon fill="white" stroke="black" points="157,-114.5 157,-133.5 294,-133.5 294,-114.5 157,-114.5"/>
<text text-anchor="middle" x="225.5" y="-121.5" font-family="Helvetica,sans-Serif" font-size="10.00">quala::LBFGS::update_sy</text>
</a>
</g>
</g>
<!-- Node1&#45;&gt;Node2 -->
<g id="edge1" class="edge">
<title>Node1&#45;&gt;Node2</title>
<path fill="none" stroke="midnightblue" d="M448.63,-106.84C413.25,-109.58 345.54,-114.81 294.13,-118.78"/>
<polygon fill="midnightblue" stroke="midnightblue" points="449.22,-110.31 458.92,-106.05 448.68,-103.33 449.22,-110.31"/>
</g>
<!-- Node4 -->
<g id="node4" class="node">
<title>Node4</title>
<g id="a_node4"><a xlink:href="classquala_1_1LBFGS.html#aebac2ec4461761a48a7284152a8217f8" target="_top" xlink:title=" ">
<polygon fill="white" stroke="black" points="330,-76.5 330,-95.5 423,-95.5 423,-76.5 330,-76.5"/>
<text text-anchor="middle" x="376.5" y="-83.5" font-family="Helvetica,sans-Serif" font-size="10.00">quala::LBFGS::y</text>
</a>
</g>
</g>
<!-- Node1&#45;&gt;Node4 -->
<g id="edge3" class="edge">
<title>Node1&#45;&gt;Node4</title>
<path fill="none" stroke="midnightblue" d="M449.07,-100.31C441.24,-98.75 432.22,-96.94 423.29,-95.16"/>
<polygon fill="midnightblue" stroke="midnightblue" points="448.4,-103.75 458.89,-102.28 449.77,-96.88 448.4,-103.75"/>
</g>
<!-- Node3 -->
<g id="node3" class="node">
<title>Node3</title>
<g id="a_node3"><a xlink:href="classquala_1_1LBFGS.html#aa32c5f2c6818c5d54b9fcd1c019a4e1d" target="_top" xlink:title="Update the inverse Hessian approximation using the new vectors xₖ₊₁ and pₖ₊₁.">
<polygon fill="white" stroke="black" points="0,-95.5 0,-114.5 121,-114.5 121,-95.5 0,-95.5"/>
<text text-anchor="middle" x="60.5" y="-102.5" font-family="Helvetica,sans-Serif" font-size="10.00">quala::LBFGS::update</text>
</a>
</g>
</g>
<!-- Node2&#45;&gt;Node3 -->
<g id="edge2" class="edge">
<title>Node2&#45;&gt;Node3</title>
<path fill="none" stroke="midnightblue" d="M146.75,-114.94C138.17,-113.94 129.52,-112.93 121.2,-111.96"/>
<polygon fill="midnightblue" stroke="midnightblue" points="146.45,-118.43 156.79,-116.11 147.26,-111.47 146.45,-118.43"/>
</g>
<!-- Node4&#45;&gt;Node2 -->
<g id="edge8" class="edge">
<title>Node4&#45;&gt;Node2</title>
<path fill="none" stroke="midnightblue" d="M328.01,-98.11C307.26,-103.4 283.27,-109.52 263.83,-114.48"/>
<polygon fill="midnightblue" stroke="midnightblue" points="329.08,-101.45 337.9,-95.59 327.35,-94.67 329.08,-101.45"/>
</g>
<!-- Node4&#45;&gt;Node3 -->
<g id="edge7" class="edge">
<title>Node4&#45;&gt;Node3</title>
<path fill="none" stroke="midnightblue" d="M319.78,-89.37C263.96,-92.75 178.35,-97.93 121.18,-101.39"/>
<polygon fill="midnightblue" stroke="midnightblue" points="320.07,-92.86 329.84,-88.76 319.65,-85.87 320.07,-92.86"/>
</g>
<!-- Node5 -->
<g id="node5" class="node">
<title>Node5</title>
<g id="a_node5"><a xlink:href="classquala_1_1LBFGS.html#a9ae2b583badddda6ec2917bb565688c3" target="_top" xlink:title="Apply the inverse Hessian approximation to the given vector q.">
<polygon fill="white" stroke="black" points="168.5,-38.5 168.5,-57.5 282.5,-57.5 282.5,-38.5 168.5,-38.5"/>
<text text-anchor="middle" x="225.5" y="-45.5" font-family="Helvetica,sans-Serif" font-size="10.00">quala::LBFGS::apply</text>
</a>
</g>
</g>
<!-- Node4&#45;&gt;Node5 -->
<g id="edge4" class="edge">
<title>Node4&#45;&gt;Node5</title>
<path fill="none" stroke="midnightblue" d="M328.01,-73.89C307.26,-68.6 283.27,-62.48 263.83,-57.52"/>
<polygon fill="midnightblue" stroke="midnightblue" points="327.35,-77.33 337.9,-76.41 329.08,-70.55 327.35,-77.33"/>
</g>
<!-- Node6 -->
<g id="node6" class="node">
<title>Node6</title>
<g id="a_node6"><a xlink:href="classquala_1_1LBFGS.html#adeddc1e1eb8ce1c1bbaf931b6f9a5b9c" target="_top" xlink:title="Scale the stored y vectors by the given factor.">
<polygon fill="white" stroke="black" points="163.5,-0.5 163.5,-19.5 287.5,-19.5 287.5,-0.5 163.5,-0.5"/>
<text text-anchor="middle" x="225.5" y="-7.5" font-family="Helvetica,sans-Serif" font-size="10.00">quala::LBFGS::scale_y</text>
</a>
</g>
</g>
<!-- Node4&#45;&gt;Node6 -->
<g id="edge5" class="edge">
<title>Node4&#45;&gt;Node6</title>
<path fill="none" stroke="midnightblue" d="M356.44,-69.88C340.62,-57.2 317.04,-39.91 294,-29 286.08,-25.25 277.27,-22.1 268.71,-19.52"/>
<polygon fill="midnightblue" stroke="midnightblue" points="354.43,-72.75 364.39,-76.38 358.86,-67.34 354.43,-72.75"/>
</g>
<!-- Node7 -->
<g id="node7" class="node">
<title>Node7</title>
<g id="a_node7"><a xlink:href="quala_8cpp.html#a12fb4e87da488d1fc7c6fa3e6a3adb90" target="_top" xlink:title=" ">
<polygon fill="white" stroke="black" points="4,-0.5 4,-19.5 117,-19.5 117,-0.5 4,-0.5"/>
<text text-anchor="middle" x="60.5" y="-7.5" font-family="Helvetica,sans-Serif" font-size="10.00">PYBIND11_MODULE</text>
</a>
</g>
</g>
<!-- Node6&#45;&gt;Node7 -->
<g id="edge6" class="edge">
<title>Node6&#45;&gt;Node7</title>
<path fill="none" stroke="midnightblue" d="M153.26,-10C141.15,-10 128.73,-10 117.09,-10"/>
<polygon fill="midnightblue" stroke="midnightblue" points="153.34,-13.5 163.34,-10 153.34,-6.5 153.34,-13.5"/>
</g>
</g>
</svg>
