<?xml version="1.0" encoding="UTF-8" standalone="no"?>
<!DOCTYPE svg PUBLIC "-//W3C//DTD SVG 1.1//EN"
 "http://www.w3.org/Graphics/SVG/1.1/DTD/svg11.dtd">
<!-- Generated by graphviz version 2.43.0 (0)
 -->
<!-- Title: n Pages: 1 -->
<svg width="805pt" height="401pt"
 viewBox="0.00 0.00 805.00 400.75" xmlns="http://www.w3.org/2000/svg" xmlns:xlink="http://www.w3.org/1999/xlink">
<g id="graph0" class="graph" transform="scale(1 1) rotate(0) translate(4 396.75)">
<title>n</title>
<polygon fill="white" stroke="transparent" points="-4,4 -4,-396.75 801,-396.75 801,4 -4,4"/>
<!-- Node1 -->
<g id="node1" class="node">
<title>Node1</title>
<g id="a_node1"><a xlink:title="Get the size of the s and y vectors in the buffer.">
<polygon fill="#bfbfbf" stroke="black" points="768,-209.5 768,-228.5 797,-228.5 797,-209.5 768,-209.5"/>
<text text-anchor="middle" x="782.5" y="-216.5" font-family="Helvetica,sans-Serif" font-size="10.00">n</text>
</a>
</g>
</g>
<!-- Node2 -->
<g id="node2" class="node">
<title>Node2</title>
<g id="a_node2"><a xlink:href="classquala_1_1LBFGS.html#a727afc7a58d2e44ae7add57e3fa77bc6" target="_top" xlink:title="Get the size of the s and y vectors in the buffer.">
<polygon fill="white" stroke="black" points="639,-335.5 639,-354.5 732,-354.5 732,-335.5 639,-335.5"/>
<text text-anchor="middle" x="685.5" y="-342.5" font-family="Helvetica,sans-Serif" font-size="10.00">quala::LBFGS::n</text>
</a>
</g>
</g>
<!-- Node1&#45;&gt;Node2 -->
<g id="edge1" class="edge">
<title>Node1&#45;&gt;Node2</title>
<path fill="none" stroke="midnightblue" d="M775.95,-238.35C768.82,-260.37 754.59,-296.33 732,-320 725.9,-326.39 717.8,-331.55 710.13,-335.49"/>
<polygon fill="midnightblue" stroke="midnightblue" points="779.3,-239.37 778.89,-228.78 772.61,-237.31 779.3,-239.37"/>
</g>
<!-- Node6 -->
<g id="node6" class="node">
<title>Node6</title>
<g id="a_node6"><a xlink:href="structquala_1_1LBFGSStorage.html#a48072fa680a2364d8ce96eb84a5d5689" target="_top" xlink:title="Re&#45;allocate storage for a problem with a different size.">
<polygon fill="white" stroke="black" points="662.5,-291.5 662.5,-310.5 708.5,-310.5 708.5,-291.5 662.5,-291.5"/>
<text text-anchor="middle" x="685.5" y="-298.5" font-family="Helvetica,sans-Serif" font-size="10.00">resize</text>
</a>
</g>
</g>
<!-- Node1&#45;&gt;Node6 -->
<g id="edge7" class="edge">
<title>Node1&#45;&gt;Node6</title>
<path fill="none" stroke="midnightblue" d="M762.62,-235.3C743.24,-252.02 713.75,-277.48 697.76,-291.28"/>
<polygon fill="midnightblue" stroke="midnightblue" points="764.95,-237.91 770.23,-228.73 760.37,-232.61 764.95,-237.91"/>
</g>
<!-- Node7 -->
<g id="node7" class="node">
<title>Node7</title>
<g id="a_node7"><a xlink:href="structquala_1_1LBFGSStorage.html#a15e4a3db39457cabe764a7737d24e73f" target="_top" xlink:title=" ">
<polygon fill="white" stroke="black" points="530.5,-190.5 530.5,-209.5 559.5,-209.5 559.5,-190.5 530.5,-190.5"/>
<text text-anchor="middle" x="545" y="-197.5" font-family="Helvetica,sans-Serif" font-size="10.00">s</text>
</a>
</g>
</g>
<!-- Node1&#45;&gt;Node7 -->
<g id="edge9" class="edge">
<title>Node1&#45;&gt;Node7</title>
<path fill="none" stroke="midnightblue" d="M757.56,-217.07C708.59,-213.12 598.38,-204.23 559.72,-201.11"/>
<polygon fill="midnightblue" stroke="midnightblue" points="757.57,-220.58 767.82,-217.9 758.13,-213.6 757.57,-220.58"/>
</g>
<!-- Node12 -->
<g id="node12" class="node">
<title>Node12</title>
<g id="a_node12"><a xlink:href="structquala_1_1LBFGSStorage.html#aebac2ec4461761a48a7284152a8217f8" target="_top" xlink:title=" ">
<polygon fill="white" stroke="black" points="530.5,-38.5 530.5,-57.5 559.5,-57.5 559.5,-38.5 530.5,-38.5"/>
<text text-anchor="middle" x="545" y="-45.5" font-family="Helvetica,sans-Serif" font-size="10.00">y</text>
</a>
</g>
</g>
<!-- Node1&#45;&gt;Node12 -->
<g id="edge16" class="edge">
<title>Node1&#45;&gt;Node12</title>
<path fill="none" stroke="midnightblue" d="M769.45,-200.9C760.22,-187.94 746.63,-170.61 732,-158 674.61,-108.51 591.98,-68.63 559.68,-54.01"/>
<polygon fill="midnightblue" stroke="midnightblue" points="766.78,-203.21 775.35,-209.44 772.54,-199.23 766.78,-203.21"/>
</g>
<!-- Node15 -->
<g id="node15" class="node">
<title>Node15</title>
<g id="a_node15"><a xlink:href="structquala_1_1LBFGSStorage.html#ac7c2ee7d2562303f555dd1f4c3fca8cd" target="_top" xlink:title=" ">
<polygon fill="white" stroke="black" points="671,-228.5 671,-247.5 700,-247.5 700,-228.5 671,-228.5"/>
<text text-anchor="middle" x="685.5" y="-235.5" font-family="Helvetica,sans-Serif" font-size="10.00">α</text>
</a>
</g>
</g>
<!-- Node1&#45;&gt;Node15 -->
<g id="edge24" class="edge">
<title>Node1&#45;&gt;Node15</title>
<path fill="none" stroke="midnightblue" d="M758.02,-223.7C739.8,-227.34 715.17,-232.27 700.09,-235.28"/>
<polygon fill="midnightblue" stroke="midnightblue" points="758.77,-227.12 767.89,-221.72 757.4,-220.25 758.77,-227.12"/>
</g>
<!-- Node19 -->
<g id="node19" class="node">
<title>Node19</title>
<g id="a_node19"><a xlink:href="structquala_1_1LBFGSStorage.html#acade3dc51f7ca788be9b91908b2e73ab" target="_top" xlink:title=" ">
<polygon fill="white" stroke="black" points="530.5,-114.5 530.5,-133.5 559.5,-133.5 559.5,-114.5 530.5,-114.5"/>
<text text-anchor="middle" x="545" y="-121.5" font-family="Helvetica,sans-Serif" font-size="10.00">ρ</text>
</a>
</g>
</g>
<!-- Node1&#45;&gt;Node19 -->
<g id="edge31" class="edge">
<title>Node1&#45;&gt;Node19</title>
<path fill="none" stroke="midnightblue" d="M758.48,-209.71C709.99,-190.15 598.62,-145.23 559.72,-129.53"/>
<polygon fill="midnightblue" stroke="midnightblue" points="757.24,-212.99 767.82,-213.48 759.86,-206.49 757.24,-212.99"/>
</g>
<!-- Node3 -->
<g id="node3" class="node">
<title>Node3</title>
<g id="a_node3"><a xlink:href="classquala_1_1LBFGS.html#a728dfcb0d540fc7da341b3352dbe1582" target="_top" xlink:title=" ">
<polygon fill="white" stroke="black" points="331,-354.5 331,-373.5 450,-373.5 450,-354.5 331,-354.5"/>
<text text-anchor="middle" x="390.5" y="-361.5" font-family="Helvetica,sans-Serif" font-size="10.00">quala::LBFGS::LBFGS</text>
</a>
</g>
</g>
<!-- Node2&#45;&gt;Node3 -->
<g id="edge2" class="edge">
<title>Node2&#45;&gt;Node3</title>
<path fill="none" stroke="midnightblue" d="M628.51,-348.63C577.37,-351.95 502.03,-356.83 450.09,-360.2"/>
<polygon fill="midnightblue" stroke="midnightblue" points="628.97,-352.11 638.72,-347.97 628.51,-345.12 628.97,-352.11"/>
</g>
<!-- Node4 -->
<g id="node4" class="node">
<title>Node4</title>
<g id="a_node4"><a xlink:href="quala_8cpp.html#a12fb4e87da488d1fc7c6fa3e6a3adb90" target="_top" xlink:title=" ">
<polygon fill="white" stroke="black" points="4,-278.5 4,-297.5 117,-297.5 117,-278.5 4,-278.5"/>
<text text-anchor="middle" x="60.5" y="-285.5" font-family="Helvetica,sans-Serif" font-size="10.00">PYBIND11_MODULE</text>
</a>
</g>
</g>
<!-- Node2&#45;&gt;Node4 -->
<g id="edge3" class="edge">
<title>Node2&#45;&gt;Node4</title>
<path fill="none" stroke="midnightblue" d="M644.18,-357.24C631.14,-360.84 616.55,-364.47 603,-367 483.52,-389.27 450.06,-401.95 330,-383 232.56,-367.62 123.93,-318.52 80.72,-297.59"/>
<polygon fill="midnightblue" stroke="midnightblue" points="645.13,-360.61 653.81,-354.52 643.23,-353.87 645.13,-360.61"/>
</g>
<!-- Node5 -->
<g id="node5" class="node">
<title>Node5</title>
<g id="a_node5"><a xlink:href="classquala_1_1LBFGS.html#abfe51417fbebd259808f86d27f1d7ec5" target="_top" xlink:title="Re&#45;allocate storage for a problem with a different size.">
<polygon fill="white" stroke="black" points="487,-316.5 487,-335.5 603,-335.5 603,-316.5 487,-316.5"/>
<text text-anchor="middle" x="545" y="-323.5" font-family="Helvetica,sans-Serif" font-size="10.00">quala::LBFGS::resize</text>
</a>
</g>
</g>
<!-- Node2&#45;&gt;Node5 -->
<g id="edge4" class="edge">
<title>Node2&#45;&gt;Node5</title>
<path fill="none" stroke="midnightblue" d="M628.72,-337.35C620.35,-336.2 611.7,-335.01 603.3,-333.86"/>
<polygon fill="midnightblue" stroke="midnightblue" points="628.38,-340.83 638.77,-338.73 629.33,-333.9 628.38,-340.83"/>
</g>
<!-- Node5&#45;&gt;Node3 -->
<g id="edge5" class="edge">
<title>Node5&#45;&gt;Node3</title>
<path fill="none" stroke="midnightblue" d="M495.68,-338.04C474.38,-343.35 449.7,-349.5 429.71,-354.48"/>
<polygon fill="midnightblue" stroke="midnightblue" points="496.66,-341.4 505.52,-335.59 494.97,-334.61 496.66,-341.4"/>
</g>
<!-- Node5&#45;&gt;Node4 -->
<g id="edge6" class="edge">
<title>Node5&#45;&gt;Node4</title>
<path fill="none" stroke="midnightblue" d="M476.63,-325.69C399.21,-324.65 268.49,-320.75 157,-307 139.05,-304.79 119.42,-301.1 102.65,-297.57"/>
<polygon fill="midnightblue" stroke="midnightblue" points="476.68,-329.19 486.73,-325.82 476.77,-322.2 476.68,-329.19"/>
</g>
<!-- Node6&#45;&gt;Node5 -->
<g id="edge8" class="edge">
<title>Node6&#45;&gt;Node5</title>
<path fill="none" stroke="midnightblue" d="M652.37,-306.8C636.43,-309.68 616.77,-313.23 598.71,-316.49"/>
<polygon fill="midnightblue" stroke="midnightblue" points="653.03,-310.24 662.25,-305.02 651.78,-303.35 653.03,-310.24"/>
</g>
<!-- Node8 -->
<g id="node8" class="node">
<title>Node8</title>
<g id="a_node8"><a xlink:href="classquala_1_1LBFGS.html#a15e4a3db39457cabe764a7737d24e73f" target="_top" xlink:title=" ">
<polygon fill="white" stroke="black" points="344.5,-190.5 344.5,-209.5 436.5,-209.5 436.5,-190.5 344.5,-190.5"/>
<text text-anchor="middle" x="390.5" y="-197.5" font-family="Helvetica,sans-Serif" font-size="10.00">quala::LBFGS::s</text>
</a>
</g>
</g>
<!-- Node7&#45;&gt;Node8 -->
<g id="edge10" class="edge">
<title>Node7&#45;&gt;Node8</title>
<path fill="none" stroke="midnightblue" d="M520.26,-200C497.98,-200 464.07,-200 436.64,-200"/>
<polygon fill="midnightblue" stroke="midnightblue" points="520.47,-203.5 530.47,-200 520.47,-196.5 520.47,-203.5"/>
</g>
<!-- Node11 -->
<g id="node11" class="node">
<title>Node11</title>
<g id="a_node11"><a xlink:href="classquala_1_1LBFGS.html#aa54be34168109d2e4995711cbd5f5ad8" target="_top" xlink:title="Update the inverse Hessian approximation using the new vectors sₖ = xₖ₊₁ &#45; xₖ and yₖ = pₖ₊₁ &#45; pₖ.">
<polygon fill="white" stroke="black" points="157,-114.5 157,-133.5 294,-133.5 294,-114.5 157,-114.5"/>
<text text-anchor="middle" x="225.5" y="-121.5" font-family="Helvetica,sans-Serif" font-size="10.00">quala::LBFGS::update_sy</text>
</a>
</g>
</g>
<!-- Node7&#45;&gt;Node11 -->
<g id="edge15" class="edge">
<title>Node7&#45;&gt;Node11</title>
<path fill="none" stroke="midnightblue" d="M520.36,-194.34C466.3,-181.4 333.19,-149.54 266.27,-133.52"/>
<polygon fill="midnightblue" stroke="midnightblue" points="519.82,-197.81 530.36,-196.73 521.45,-191 519.82,-197.81"/>
</g>
<!-- Node9 -->
<g id="node9" class="node">
<title>Node9</title>
<g id="a_node9"><a xlink:href="classquala_1_1LBFGS.html#a9ae2b583badddda6ec2917bb565688c3" target="_top" xlink:title="Apply the inverse Hessian approximation to the given vector q.">
<polygon fill="white" stroke="black" points="168.5,-152.5 168.5,-171.5 282.5,-171.5 282.5,-152.5 168.5,-152.5"/>
<text text-anchor="middle" x="225.5" y="-159.5" font-family="Helvetica,sans-Serif" font-size="10.00">quala::LBFGS::apply</text>
</a>
</g>
</g>
<!-- Node8&#45;&gt;Node9 -->
<g id="edge11" class="edge">
<title>Node8&#45;&gt;Node9</title>
<path fill="none" stroke="midnightblue" d="M338.47,-188.1C315.56,-182.76 288.9,-176.55 267.34,-171.52"/>
<polygon fill="midnightblue" stroke="midnightblue" points="337.83,-191.55 348.37,-190.41 339.42,-184.73 337.83,-191.55"/>
</g>
<!-- Node10 -->
<g id="node10" class="node">
<title>Node10</title>
<g id="a_node10"><a xlink:href="classquala_1_1LBFGS.html#aa32c5f2c6818c5d54b9fcd1c019a4e1d" target="_top" xlink:title="Update the inverse Hessian approximation using the new vectors xₖ₊₁ and pₖ₊₁.">
<polygon fill="white" stroke="black" points="0,-114.5 0,-133.5 121,-133.5 121,-114.5 0,-114.5"/>
<text text-anchor="middle" x="60.5" y="-121.5" font-family="Helvetica,sans-Serif" font-size="10.00">quala::LBFGS::update</text>
</a>
</g>
</g>
<!-- Node8&#45;&gt;Node10 -->
<g id="edge12" class="edge">
<title>Node8&#45;&gt;Node10</title>
<path fill="none" stroke="midnightblue" d="M334.01,-202.44C286.03,-202.92 215.39,-199.69 157,-181 124.08,-170.46 90.51,-146.79 73.29,-133.51"/>
<polygon fill="midnightblue" stroke="midnightblue" points="334.25,-205.94 344.19,-202.28 334.14,-198.94 334.25,-205.94"/>
</g>
<!-- Node8&#45;&gt;Node11 -->
<g id="edge13" class="edge">
<title>Node8&#45;&gt;Node11</title>
<path fill="none" stroke="midnightblue" d="M350.32,-186.54C343.33,-183.49 336.28,-179.96 330,-176 311.64,-164.42 312.96,-153.56 294,-143 287.09,-139.15 279.33,-136.03 271.61,-133.52"/>
<polygon fill="midnightblue" stroke="midnightblue" points="349.15,-189.84 359.73,-190.4 351.8,-183.37 349.15,-189.84"/>
</g>
<!-- Node11&#45;&gt;Node10 -->
<g id="edge14" class="edge">
<title>Node11&#45;&gt;Node10</title>
<path fill="none" stroke="midnightblue" d="M146.75,-124C138.17,-124 129.52,-124 121.2,-124"/>
<polygon fill="midnightblue" stroke="midnightblue" points="146.79,-127.5 156.79,-124 146.79,-120.5 146.79,-127.5"/>
</g>
<!-- Node12&#45;&gt;Node11 -->
<g id="edge17" class="edge">
<title>Node12&#45;&gt;Node11</title>
<path fill="none" stroke="midnightblue" d="M520.24,-44.86C479.17,-40.54 393.21,-36.43 330,-67 309.06,-77.13 313.91,-92.97 294,-105 287.64,-108.84 280.48,-111.93 273.26,-114.41"/>
<polygon fill="midnightblue" stroke="midnightblue" points="520.02,-48.36 530.36,-46.03 520.83,-41.41 520.02,-48.36"/>
</g>
<!-- Node13 -->
<g id="node13" class="node">
<title>Node13</title>
<g id="a_node13"><a xlink:href="classquala_1_1LBFGS.html#aebac2ec4461761a48a7284152a8217f8" target="_top" xlink:title=" ">
<polygon fill="white" stroke="black" points="344,-0.5 344,-19.5 437,-19.5 437,-0.5 344,-0.5"/>
<text text-anchor="middle" x="390.5" y="-7.5" font-family="Helvetica,sans-Serif" font-size="10.00">quala::LBFGS::y</text>
</a>
</g>
</g>
<!-- Node12&#45;&gt;Node13 -->
<g id="edge18" class="edge">
<title>Node12&#45;&gt;Node13</title>
<path fill="none" stroke="midnightblue" d="M520.74,-42.2C496.57,-36.18 458.35,-26.66 429.73,-19.53"/>
<polygon fill="midnightblue" stroke="midnightblue" points="519.92,-45.61 530.47,-44.63 521.61,-38.81 519.92,-45.61"/>
</g>
<!-- Node13&#45;&gt;Node9 -->
<g id="edge19" class="edge">
<title>Node13&#45;&gt;Node9</title>
<path fill="none" stroke="midnightblue" d="M368.81,-26.47C356.43,-37.09 341.01,-51.73 330,-67 308.14,-97.32 322.55,-118.88 294,-143 289.44,-146.85 284.16,-149.92 278.59,-152.37"/>
<polygon fill="midnightblue" stroke="midnightblue" points="371.37,-28.9 376.81,-19.81 366.88,-23.52 371.37,-28.9"/>
</g>
<!-- Node13&#45;&gt;Node10 -->
<g id="edge22" class="edge">
<title>Node13&#45;&gt;Node10</title>
<path fill="none" stroke="midnightblue" d="M333.78,-18.84C285.74,-27.58 215.15,-43.15 157,-67 125.74,-79.82 92.59,-101.75 74.74,-114.34"/>
<polygon fill="midnightblue" stroke="midnightblue" points="334.44,-22.28 343.67,-17.08 333.22,-15.38 334.44,-22.28"/>
</g>
<!-- Node13&#45;&gt;Node11 -->
<g id="edge23" class="edge">
<title>Node13&#45;&gt;Node11</title>
<path fill="none" stroke="midnightblue" d="M344.85,-23.78C339.48,-26.62 334.36,-30 330,-34 303.93,-57.92 321.33,-82.54 294,-105 289.3,-108.87 283.86,-111.95 278.15,-114.4"/>
<polygon fill="midnightblue" stroke="midnightblue" points="346.45,-26.9 354.04,-19.5 343.5,-20.55 346.45,-26.9"/>
</g>
<!-- Node14 -->
<g id="node14" class="node">
<title>Node14</title>
<g id="a_node14"><a xlink:href="classquala_1_1LBFGS.html#adeddc1e1eb8ce1c1bbaf931b6f9a5b9c" target="_top" xlink:title="Scale the stored y vectors by the given factor.">
<polygon fill="white" stroke="black" points="163.5,-76.5 163.5,-95.5 287.5,-95.5 287.5,-76.5 163.5,-76.5"/>
<text text-anchor="middle" x="225.5" y="-83.5" font-family="Helvetica,sans-Serif" font-size="10.00">quala::LBFGS::scale_y</text>
</a>
</g>
</g>
<!-- Node13&#45;&gt;Node14 -->
<g id="edge20" class="edge">
<title>Node13&#45;&gt;Node14</title>
<path fill="none" stroke="midnightblue" d="M355.02,-23.35C346.77,-26.7 338.02,-30.37 330,-34 299.58,-47.75 265.09,-65.53 244.6,-76.34"/>
<polygon fill="midnightblue" stroke="midnightblue" points="356.43,-26.56 364.41,-19.59 353.83,-20.06 356.43,-26.56"/>
</g>
<!-- Node14&#45;&gt;Node4 -->
<g id="edge21" class="edge">
<title>Node14&#45;&gt;Node4</title>
<path fill="none" stroke="midnightblue" d="M164.23,-100.01C161.69,-101.51 159.26,-103.17 157,-105 97.75,-153.12 70.98,-247.85 63.66,-278.32"/>
<polygon fill="midnightblue" stroke="midnightblue" points="165.86,-103.11 173.24,-95.51 162.73,-96.84 165.86,-103.11"/>
</g>
<!-- Node16 -->
<g id="node16" class="node">
<title>Node16</title>
<g id="a_node16"><a xlink:href="classquala_1_1LBFGS.html#ac7c2ee7d2562303f555dd1f4c3fca8cd" target="_top" xlink:title=" ">
<polygon fill="white" stroke="black" points="498,-228.5 498,-247.5 592,-247.5 592,-228.5 498,-228.5"/>
<text text-anchor="middle" x="545" y="-235.5" font-family="Helvetica,sans-Serif" font-size="10.00">quala::LBFGS::α</text>
</a>
</g>
</g>
<!-- Node15&#45;&gt;Node16 -->
<g id="edge25" class="edge">
<title>Node15&#45;&gt;Node16</title>
<path fill="none" stroke="midnightblue" d="M660.94,-238C642.17,-238 615.32,-238 592.29,-238"/>
<polygon fill="midnightblue" stroke="midnightblue" points="660.97,-241.5 670.97,-238 660.97,-234.5 660.97,-241.5"/>
</g>
<!-- Node16&#45;&gt;Node9 -->
<g id="edge26" class="edge">
<title>Node16&#45;&gt;Node9</title>
<path fill="none" stroke="midnightblue" d="M487.68,-239.28C443.81,-238.79 381.86,-234.81 330,-219 295.07,-208.35 258.68,-184.95 239.74,-171.68"/>
<polygon fill="midnightblue" stroke="midnightblue" points="487.85,-242.78 497.87,-239.34 487.89,-235.78 487.85,-242.78"/>
</g>
<!-- Node17 -->
<g id="node17" class="node">
<title>Node17</title>
<g id="a_node17"><a xlink:href="classquala_1_1LBFGS.html#a1109c880f1969f61532c94c19122e927" target="_top" xlink:title="Check if the new vectors s and y allow for a valid BFGS update that preserves the positive definitene...">
<polygon fill="white" stroke="black" points="330,-267 330,-297 451,-297 451,-267 330,-267"/>
<text text-anchor="start" x="338" y="-285" font-family="Helvetica,sans-Serif" font-size="10.00">quala::LBFGS::update</text>
<text text-anchor="middle" x="390.5" y="-274" font-family="Helvetica,sans-Serif" font-size="10.00">_valid</text>
</a>
</g>
</g>
<!-- Node16&#45;&gt;Node17 -->
<g id="edge27" class="edge">
<title>Node16&#45;&gt;Node17</title>
<path fill="none" stroke="midnightblue" d="M500.83,-250.46C483.06,-255.58 462.33,-261.56 443.72,-266.93"/>
<polygon fill="midnightblue" stroke="midnightblue" points="502.27,-253.68 510.91,-247.55 500.33,-246.96 502.27,-253.68"/>
</g>
<!-- Node17&#45;&gt;Node4 -->
<g id="edge29" class="edge">
<title>Node17&#45;&gt;Node4</title>
<path fill="none" stroke="midnightblue" d="M319.7,-271.39C311.06,-270.4 302.34,-269.56 294,-269 233.25,-264.88 217.6,-263.03 157,-269 138.16,-270.86 117.52,-274.72 100.27,-278.49"/>
<polygon fill="midnightblue" stroke="midnightblue" points="319.42,-274.88 329.77,-272.61 320.26,-267.93 319.42,-274.88"/>
</g>
<!-- Node17&#45;&gt;Node11 -->
<g id="edge30" class="edge">
<title>Node17&#45;&gt;Node11</title>
<path fill="none" stroke="midnightblue" d="M365.28,-259.87C353.66,-248.42 340.1,-233.77 330,-219 308.91,-188.14 322.55,-167.12 294,-143 289.44,-139.15 284.16,-136.08 278.59,-133.63"/>
<polygon fill="midnightblue" stroke="midnightblue" points="362.95,-262.48 372.59,-266.9 367.81,-257.44 362.95,-262.48"/>
</g>
<!-- Node18 -->
<g id="node18" class="node">
<title>Node18</title>
<g id="a_node18"><a xlink:href="classquala_1_1LBFGS.html#a0e0ce3dda38d6f64657929adcf05e2c8" target="_top" xlink:title="Apply the inverse Hessian approximation to the given vector q, applying only the columns and rows of ...">
<polygon fill="white" stroke="black" points="168.5,-278.5 168.5,-297.5 282.5,-297.5 282.5,-278.5 168.5,-278.5"/>
<text text-anchor="middle" x="225.5" y="-285.5" font-family="Helvetica,sans-Serif" font-size="10.00">quala::LBFGS::apply</text>
</a>
</g>
</g>
<!-- Node17&#45;&gt;Node18 -->
<g id="edge28" class="edge">
<title>Node17&#45;&gt;Node18</title>
<path fill="none" stroke="midnightblue" d="M319.52,-284.58C307.23,-285.03 294.59,-285.49 282.74,-285.93"/>
<polygon fill="midnightblue" stroke="midnightblue" points="319.87,-288.07 329.73,-284.2 319.61,-281.07 319.87,-288.07"/>
</g>
<!-- Node19&#45;&gt;Node11 -->
<g id="edge32" class="edge">
<title>Node19&#45;&gt;Node11</title>
<path fill="none" stroke="midnightblue" d="M520.16,-124C472.73,-124 364.98,-124 294.03,-124"/>
<polygon fill="midnightblue" stroke="midnightblue" points="520.36,-127.5 530.36,-124 520.36,-120.5 520.36,-127.5"/>
</g>
<!-- Node20 -->
<g id="node20" class="node">
<title>Node20</title>
<g id="a_node20"><a xlink:href="classquala_1_1LBFGS.html#acade3dc51f7ca788be9b91908b2e73ab" target="_top" xlink:title=" ">
<polygon fill="white" stroke="black" points="344,-76.5 344,-95.5 437,-95.5 437,-76.5 344,-76.5"/>
<text text-anchor="middle" x="390.5" y="-83.5" font-family="Helvetica,sans-Serif" font-size="10.00">quala::LBFGS::ρ</text>
</a>
</g>
</g>
<!-- Node19&#45;&gt;Node20 -->
<g id="edge33" class="edge">
<title>Node19&#45;&gt;Node20</title>
<path fill="none" stroke="midnightblue" d="M520.74,-118.2C496.57,-112.18 458.35,-102.66 429.73,-95.53"/>
<polygon fill="midnightblue" stroke="midnightblue" points="519.92,-121.61 530.47,-120.63 521.61,-114.81 519.92,-121.61"/>
</g>
<!-- Node20&#45;&gt;Node9 -->
<g id="edge34" class="edge">
<title>Node20&#45;&gt;Node9</title>
<path fill="none" stroke="midnightblue" d="M367.45,-101.46C348.64,-114.06 320.52,-131.59 294,-143 285.5,-146.66 276.1,-149.82 267.08,-152.45"/>
<polygon fill="midnightblue" stroke="midnightblue" points="369.59,-104.23 375.88,-95.71 365.65,-98.45 369.59,-104.23"/>
</g>
<!-- Node20&#45;&gt;Node11 -->
<g id="edge36" class="edge">
<title>Node20&#45;&gt;Node11</title>
<path fill="none" stroke="midnightblue" d="M338.47,-97.9C315.56,-103.24 288.9,-109.45 267.34,-114.48"/>
<polygon fill="midnightblue" stroke="midnightblue" points="339.42,-101.27 348.37,-95.59 337.83,-94.45 339.42,-101.27"/>
</g>
<!-- Node20&#45;&gt;Node14 -->
<g id="edge35" class="edge">
<title>Node20&#45;&gt;Node14</title>
<path fill="none" stroke="midnightblue" d="M333.61,-86C318.75,-86 302.63,-86 287.51,-86"/>
<polygon fill="midnightblue" stroke="midnightblue" points="333.66,-89.5 343.66,-86 333.66,-82.5 333.66,-89.5"/>
</g>
</g>
</svg>
