<?xml version="1.0" encoding="UTF-8" standalone="no"?>
<!DOCTYPE svg PUBLIC "-//W3C//DTD SVG 1.1//EN"
 "http://www.w3.org/Graphics/SVG/1.1/DTD/svg11.dtd">
<!-- Generated by graphviz version 2.43.0 (0)
 -->
<!-- Title: history Pages: 1 -->
<svg width="727pt" height="268pt"
 viewBox="0.00 0.00 727.00 268.00" xmlns="http://www.w3.org/2000/svg" xmlns:xlink="http://www.w3.org/1999/xlink">
<g id="graph0" class="graph" transform="scale(1 1) rotate(0) translate(4 264)">
<title>history</title>
<polygon fill="white" stroke="transparent" points="-4,4 -4,-264 723,-264 723,4 -4,4"/>
<!-- Node1 -->
<g id="node1" class="node">
<title>Node1</title>
<g id="a_node1"><a xlink:title="Get the number of previous vectors s and y stored in the buffer.">
<polygon fill="#bfbfbf" stroke="black" points="669,-133.5 669,-152.5 719,-152.5 719,-133.5 669,-133.5"/>
<text text-anchor="middle" x="694" y="-140.5" font-family="Helvetica,sans-Serif" font-size="10.00">history</text>
</a>
</g>
</g>
<!-- Node2 -->
<g id="node2" class="node">
<title>Node2</title>
<g id="a_node2"><a xlink:href="classquala_1_1LBFGS.html#a9cf7dcccbc3bc69a10833450ee79c623" target="_top" xlink:title="Get the number of previous vectors s and y stored in the buffer.">
<polygon fill="white" stroke="black" points="512,-114.5 512,-133.5 633,-133.5 633,-114.5 512,-114.5"/>
<text text-anchor="middle" x="572.5" y="-121.5" font-family="Helvetica,sans-Serif" font-size="10.00">quala::LBFGS::history</text>
</a>
</g>
</g>
<!-- Node1&#45;&gt;Node2 -->
<g id="edge1" class="edge">
<title>Node1&#45;&gt;Node2</title>
<path fill="none" stroke="midnightblue" d="M658.78,-137.56C650.77,-136.28 642,-134.89 633.23,-133.5"/>
<polygon fill="midnightblue" stroke="midnightblue" points="658.39,-141.04 668.82,-139.16 659.49,-134.13 658.39,-141.04"/>
</g>
<!-- Node13 -->
<g id="node13" class="node">
<title>Node13</title>
<g id="a_node13"><a xlink:href="structquala_1_1LBFGSStorage.html#a48072fa680a2364d8ce96eb84a5d5689" target="_top" xlink:title="Re&#45;allocate storage for a problem with a different size.">
<polygon fill="white" stroke="black" points="549.5,-196.5 549.5,-215.5 595.5,-215.5 595.5,-196.5 549.5,-196.5"/>
<text text-anchor="middle" x="572.5" y="-203.5" font-family="Helvetica,sans-Serif" font-size="10.00">resize</text>
</a>
</g>
</g>
<!-- Node1&#45;&gt;Node13 -->
<g id="edge15" class="edge">
<title>Node1&#45;&gt;Node13</title>
<path fill="none" stroke="midnightblue" d="M665.76,-157.36C643.12,-169.29 611.54,-185.94 591.82,-196.34"/>
<polygon fill="midnightblue" stroke="midnightblue" points="667.64,-160.33 674.85,-152.57 664.37,-154.14 667.64,-160.33"/>
</g>
<!-- Node3 -->
<g id="node3" class="node">
<title>Node3</title>
<g id="a_node3"><a xlink:href="classquala_1_1LBFGS.html#a3c6a2dbecc0d6f8cd90bef088c46b072" target="_top" xlink:title="Get the number of previous s and y vectors currently stored in the buffer.">
<polygon fill="white" stroke="black" points="342,-191 342,-221 464,-221 464,-191 342,-191"/>
<text text-anchor="start" x="350" y="-209" font-family="Helvetica,sans-Serif" font-size="10.00">quala::LBFGS::current</text>
<text text-anchor="middle" x="403" y="-198" font-family="Helvetica,sans-Serif" font-size="10.00">_history</text>
</a>
</g>
</g>
<!-- Node2&#45;&gt;Node3 -->
<g id="edge2" class="edge">
<title>Node2&#45;&gt;Node3</title>
<path fill="none" stroke="midnightblue" d="M548.94,-139.26C530.03,-151.61 502.02,-168.87 476,-181 468.32,-184.58 459.99,-187.93 451.8,-190.94"/>
<polygon fill="midnightblue" stroke="midnightblue" points="551.03,-142.07 557.44,-133.64 547.17,-136.23 551.03,-142.07"/>
</g>
<!-- Node5 -->
<g id="node5" class="node">
<title>Node5</title>
<g id="a_node5"><a xlink:href="classquala_1_1LBFGS.html#aa871b5290773b86e2e4919bbac258a04" target="_top" xlink:title="Iterate over the indices in the history buffer, oldest first.">
<polygon fill="white" stroke="black" points="330,-76.5 330,-95.5 476,-95.5 476,-76.5 330,-76.5"/>
<text text-anchor="middle" x="403" y="-83.5" font-family="Helvetica,sans-Serif" font-size="10.00">quala::LBFGS::foreach_fwd</text>
</a>
</g>
</g>
<!-- Node2&#45;&gt;Node5 -->
<g id="edge4" class="edge">
<title>Node2&#45;&gt;Node5</title>
<path fill="none" stroke="midnightblue" d="M519.38,-112.18C495.77,-106.82 468.22,-100.57 445.96,-95.52"/>
<polygon fill="midnightblue" stroke="midnightblue" points="518.71,-115.61 529.23,-114.41 520.25,-108.79 518.71,-115.61"/>
</g>
<!-- Node7 -->
<g id="node7" class="node">
<title>Node7</title>
<g id="a_node7"><a xlink:href="classquala_1_1LBFGS.html#a0804b751cf2035a35f24762474f62cbf" target="_top" xlink:title="Iterate over the indices in the history buffer, newest first.">
<polygon fill="white" stroke="black" points="330.5,-38.5 330.5,-57.5 475.5,-57.5 475.5,-38.5 330.5,-38.5"/>
<text text-anchor="middle" x="403" y="-45.5" font-family="Helvetica,sans-Serif" font-size="10.00">quala::LBFGS::foreach_rev</text>
</a>
</g>
</g>
<!-- Node2&#45;&gt;Node7 -->
<g id="edge6" class="edge">
<title>Node2&#45;&gt;Node7</title>
<path fill="none" stroke="midnightblue" d="M549.82,-108.65C531.04,-95.96 502.77,-78.26 476,-67 467.18,-63.29 457.44,-60.14 448.06,-57.53"/>
<polygon fill="midnightblue" stroke="midnightblue" points="548,-111.65 558.22,-114.43 551.96,-105.88 548,-111.65"/>
</g>
<!-- Node8 -->
<g id="node8" class="node">
<title>Node8</title>
<g id="a_node8"><a xlink:href="classquala_1_1LBFGS.html#a71f7f5e949a948d578ae6f145e4c4914" target="_top" xlink:title="Get the previous index in the circular buffer of s and y vectors.">
<polygon fill="white" stroke="black" points="348.5,-0.5 348.5,-19.5 457.5,-19.5 457.5,-0.5 348.5,-0.5"/>
<text text-anchor="middle" x="403" y="-7.5" font-family="Helvetica,sans-Serif" font-size="10.00">quala::LBFGS::pred</text>
</a>
</g>
</g>
<!-- Node2&#45;&gt;Node8 -->
<g id="edge8" class="edge">
<title>Node2&#45;&gt;Node8</title>
<path fill="none" stroke="midnightblue" d="M558.5,-106.26C541.79,-84.75 510.78,-48.93 476,-29 469.27,-25.14 461.74,-22.05 454.15,-19.58"/>
<polygon fill="midnightblue" stroke="midnightblue" points="555.73,-108.4 564.56,-114.25 561.3,-104.17 555.73,-108.4"/>
</g>
<!-- Node9 -->
<g id="node9" class="node">
<title>Node9</title>
<g id="a_node9"><a xlink:href="classquala_1_1LBFGS.html#adeddc1e1eb8ce1c1bbaf931b6f9a5b9c" target="_top" xlink:title="Scale the stored y vectors by the given factor.">
<polygon fill="white" stroke="black" points="341,-152.5 341,-171.5 465,-171.5 465,-152.5 341,-152.5"/>
<text text-anchor="middle" x="403" y="-159.5" font-family="Helvetica,sans-Serif" font-size="10.00">quala::LBFGS::scale_y</text>
</a>
</g>
</g>
<!-- Node2&#45;&gt;Node9 -->
<g id="edge10" class="edge">
<title>Node2&#45;&gt;Node9</title>
<path fill="none" stroke="midnightblue" d="M519.38,-135.82C495.77,-141.18 468.22,-147.43 445.96,-152.48"/>
<polygon fill="midnightblue" stroke="midnightblue" points="520.25,-139.21 529.23,-133.59 518.71,-132.39 520.25,-139.21"/>
</g>
<!-- Node10 -->
<g id="node10" class="node">
<title>Node10</title>
<g id="a_node10"><a xlink:href="classquala_1_1LBFGS.html#a70926baed7362e4fcce66523bb8e2842" target="_top" xlink:title="Get the next index in the circular buffer of previous s and y vectors.">
<polygon fill="white" stroke="black" points="348.5,-114.5 348.5,-133.5 457.5,-133.5 457.5,-114.5 348.5,-114.5"/>
<text text-anchor="middle" x="403" y="-121.5" font-family="Helvetica,sans-Serif" font-size="10.00">quala::LBFGS::succ</text>
</a>
</g>
</g>
<!-- Node2&#45;&gt;Node10 -->
<g id="edge12" class="edge">
<title>Node2&#45;&gt;Node10</title>
<path fill="none" stroke="midnightblue" d="M501.89,-124C487.15,-124 471.8,-124 457.75,-124"/>
<polygon fill="midnightblue" stroke="midnightblue" points="501.97,-127.5 511.97,-124 501.97,-120.5 501.97,-127.5"/>
</g>
<!-- Node4 -->
<g id="node4" class="node">
<title>Node4</title>
<g id="a_node4"><a xlink:href="quala_8cpp.html#a12fb4e87da488d1fc7c6fa3e6a3adb90" target="_top" xlink:title=" ">
<polygon fill="white" stroke="black" points="169,-196.5 169,-215.5 282,-215.5 282,-196.5 169,-196.5"/>
<text text-anchor="middle" x="225.5" y="-203.5" font-family="Helvetica,sans-Serif" font-size="10.00">PYBIND11_MODULE</text>
</a>
</g>
</g>
<!-- Node3&#45;&gt;Node4 -->
<g id="edge3" class="edge">
<title>Node3&#45;&gt;Node4</title>
<path fill="none" stroke="midnightblue" d="M331.53,-206C315.15,-206 297.94,-206 282.29,-206"/>
<polygon fill="midnightblue" stroke="midnightblue" points="331.6,-209.5 341.6,-206 331.6,-202.5 331.6,-209.5"/>
</g>
<!-- Node6 -->
<g id="node6" class="node">
<title>Node6</title>
<g id="a_node6"><a xlink:href="classquala_1_1LBFGS.html#a9ae2b583badddda6ec2917bb565688c3" target="_top" xlink:title="Apply the inverse Hessian approximation to the given vector q.">
<polygon fill="white" stroke="black" points="168.5,-38.5 168.5,-57.5 282.5,-57.5 282.5,-38.5 168.5,-38.5"/>
<text text-anchor="middle" x="225.5" y="-45.5" font-family="Helvetica,sans-Serif" font-size="10.00">quala::LBFGS::apply</text>
</a>
</g>
</g>
<!-- Node5&#45;&gt;Node6 -->
<g id="edge5" class="edge">
<title>Node5&#45;&gt;Node6</title>
<path fill="none" stroke="midnightblue" d="M347.72,-74.25C322.91,-68.87 293.89,-62.59 270.47,-57.52"/>
<polygon fill="midnightblue" stroke="midnightblue" points="347.2,-77.72 357.71,-76.41 348.68,-70.87 347.2,-77.72"/>
</g>
<!-- Node7&#45;&gt;Node6 -->
<g id="edge7" class="edge">
<title>Node7&#45;&gt;Node6</title>
<path fill="none" stroke="midnightblue" d="M320.21,-48C307.48,-48 294.58,-48 282.59,-48"/>
<polygon fill="midnightblue" stroke="midnightblue" points="320.36,-51.5 330.36,-48 320.36,-44.5 320.36,-51.5"/>
</g>
<!-- Node8&#45;&gt;Node6 -->
<g id="edge9" class="edge">
<title>Node8&#45;&gt;Node6</title>
<path fill="none" stroke="midnightblue" d="M347.72,-21.75C322.91,-27.13 293.89,-33.41 270.47,-38.48"/>
<polygon fill="midnightblue" stroke="midnightblue" points="348.68,-25.13 357.71,-19.59 347.2,-18.28 348.68,-25.13"/>
</g>
<!-- Node9&#45;&gt;Node4 -->
<g id="edge11" class="edge">
<title>Node9&#45;&gt;Node4</title>
<path fill="none" stroke="midnightblue" d="M353.89,-174.06C325.74,-181.12 290.71,-189.9 264.51,-196.47"/>
<polygon fill="midnightblue" stroke="midnightblue" points="355.07,-177.37 363.92,-171.55 353.37,-170.58 355.07,-177.37"/>
</g>
<!-- Node11 -->
<g id="node11" class="node">
<title>Node11</title>
<g id="a_node11"><a xlink:href="classquala_1_1LBFGS.html#aa54be34168109d2e4995711cbd5f5ad8" target="_top" xlink:title="Update the inverse Hessian approximation using the new vectors sₖ = xₖ₊₁ &#45; xₖ and yₖ = pₖ₊₁ &#45; pₖ.">
<polygon fill="white" stroke="black" points="157,-114.5 157,-133.5 294,-133.5 294,-114.5 157,-114.5"/>
<text text-anchor="middle" x="225.5" y="-121.5" font-family="Helvetica,sans-Serif" font-size="10.00">quala::LBFGS::update_sy</text>
</a>
</g>
</g>
<!-- Node10&#45;&gt;Node11 -->
<g id="edge13" class="edge">
<title>Node10&#45;&gt;Node11</title>
<path fill="none" stroke="midnightblue" d="M338.14,-124C323.8,-124 308.54,-124 294.06,-124"/>
<polygon fill="midnightblue" stroke="midnightblue" points="338.39,-127.5 348.39,-124 338.39,-120.5 338.39,-127.5"/>
</g>
<!-- Node12 -->
<g id="node12" class="node">
<title>Node12</title>
<g id="a_node12"><a xlink:href="classquala_1_1LBFGS.html#aa32c5f2c6818c5d54b9fcd1c019a4e1d" target="_top" xlink:title="Update the inverse Hessian approximation using the new vectors xₖ₊₁ and pₖ₊₁.">
<polygon fill="white" stroke="black" points="0,-114.5 0,-133.5 121,-133.5 121,-114.5 0,-114.5"/>
<text text-anchor="middle" x="60.5" y="-121.5" font-family="Helvetica,sans-Serif" font-size="10.00">quala::LBFGS::update</text>
</a>
</g>
</g>
<!-- Node11&#45;&gt;Node12 -->
<g id="edge14" class="edge">
<title>Node11&#45;&gt;Node12</title>
<path fill="none" stroke="midnightblue" d="M146.75,-124C138.17,-124 129.52,-124 121.2,-124"/>
<polygon fill="midnightblue" stroke="midnightblue" points="146.79,-127.5 156.79,-124 146.79,-120.5 146.79,-127.5"/>
</g>
<!-- Node14 -->
<g id="node14" class="node">
<title>Node14</title>
<g id="a_node14"><a xlink:href="classquala_1_1LBFGS.html#abfe51417fbebd259808f86d27f1d7ec5" target="_top" xlink:title="Re&#45;allocate storage for a problem with a different size.">
<polygon fill="white" stroke="black" points="345,-240.5 345,-259.5 461,-259.5 461,-240.5 345,-240.5"/>
<text text-anchor="middle" x="403" y="-247.5" font-family="Helvetica,sans-Serif" font-size="10.00">quala::LBFGS::resize</text>
</a>
</g>
</g>
<!-- Node13&#45;&gt;Node14 -->
<g id="edge16" class="edge">
<title>Node13&#45;&gt;Node14</title>
<path fill="none" stroke="midnightblue" d="M539.47,-214.41C511.2,-221.84 470,-232.66 440.47,-240.42"/>
<polygon fill="midnightblue" stroke="midnightblue" points="540.47,-217.77 549.26,-211.84 538.7,-211 540.47,-217.77"/>
</g>
<!-- Node14&#45;&gt;Node4 -->
<g id="edge18" class="edge">
<title>Node14&#45;&gt;Node4</title>
<path fill="none" stroke="midnightblue" d="M353.89,-237.94C325.74,-230.88 290.71,-222.1 264.51,-215.53"/>
<polygon fill="midnightblue" stroke="midnightblue" points="353.37,-241.42 363.92,-240.45 355.07,-234.63 353.37,-241.42"/>
</g>
<!-- Node15 -->
<g id="node15" class="node">
<title>Node15</title>
<g id="a_node15"><a xlink:href="classquala_1_1LBFGS.html#a728dfcb0d540fc7da341b3352dbe1582" target="_top" xlink:title=" ">
<polygon fill="white" stroke="black" points="166,-240.5 166,-259.5 285,-259.5 285,-240.5 166,-240.5"/>
<text text-anchor="middle" x="225.5" y="-247.5" font-family="Helvetica,sans-Serif" font-size="10.00">quala::LBFGS::LBFGS</text>
</a>
</g>
</g>
<!-- Node14&#45;&gt;Node15 -->
<g id="edge17" class="edge">
<title>Node14&#45;&gt;Node15</title>
<path fill="none" stroke="midnightblue" d="M334.11,-250C318.01,-250 300.96,-250 285.3,-250"/>
<polygon fill="midnightblue" stroke="midnightblue" points="334.53,-253.5 344.53,-250 334.53,-246.5 334.53,-253.5"/>
</g>
</g>
</svg>
